<svg xmlns="http://www.w3.org/2000/svg" width="180" height="46" viewBox="0 0 180 46" fill="none">
<path fill-rule="evenodd" clip-rule="evenodd" d="M35.1016 6.8999H68.7901V23.8428C68.7901 28.1862 66.4731 32.1998 62.7118 34.3717L51.9459 40.5884L41.18 34.3717C37.4186 32.1998 35.1016 28.1862 35.1016 23.8428V6.8999ZM44.3454 15.8174V21.087C45.066 20.2733 46.3762 19.7225 47.8742 19.7225H49.5021V25.8484C49.5021 27.4782 49.0593 28.9047 48.4023 29.6893H55.4834C54.8278 28.9039 54.386 27.4792 54.386 25.8515V19.7225H56.014C57.512 19.7225 58.8221 20.2733 59.5427 21.087V15.8174H44.3454ZM115.365 29.6893V24.5311H122.155V29.6893H126.381V15.8174H122.155V20.8882H115.365V15.8174H111.14V29.6893H115.365ZM89.771 21.2671C89.0134 20.9756 88.0225 20.8882 86.9443 20.8882H80.9407V19.0231H91.2573V15.8175H76.715V29.6894H86.5653C87.9351 29.6894 88.9549 29.5728 89.7128 29.2812C91.3157 28.6692 92.3939 27.183 92.3939 25.2305C92.3939 23.2489 91.3739 21.8791 89.771 21.2671ZM87.6727 26.0756C87.4396 26.1631 87.119 26.1921 86.7109 26.1921H80.9407V23.9773H86.7109C87.1774 23.9773 87.556 24.0067 87.8476 24.1522C88.1972 24.3271 88.3721 24.6477 88.3721 25.0556C88.3721 25.4635 88.1682 25.9007 87.6727 26.0756ZM104.244 15.8175H98.0657L92.3829 29.6894H97.1624L97.9492 27.6785H104.36L105.177 29.6894H109.927L104.244 15.8175ZM98.9982 24.6184L101.009 19.0231H101.33L103.341 24.6184H98.9982ZM133.069 24.4437V29.6893H128.843V15.8174H133.069V21.0339H134.235L139.335 15.8174H144.638L137.877 22.4619L144.901 29.6893H139.276L134.235 24.4437H133.069Z" fill="#9CA5B3"/>
</svg>