<svg width="32" height="32" viewBox="0 0 32 32" fill="none" xmlns="http://www.w3.org/2000/svg">
<path d="M18.4384 18.786C18.4384 18.8442 18.4542 18.8759 18.4909 18.8759C18.5171 18.8759 18.5381 18.8653 18.5644 18.8495L28.0345 12.6486C28.2025 12.5376 28.3548 12.4794 28.5805 12.4794H30.6646C30.9848 12.4794 31.2 12.6962 31.2 13.0186V17.0204C31.2 17.5015 31.095 17.7816 30.6646 18.0407L28.1395 19.5684C28.108 19.5896 28.0765 19.6001 28.0555 19.6001C28.024 19.6001 27.9978 19.579 27.9978 19.4891V14.816C27.9978 14.7631 27.982 14.7261 27.9453 14.7261C27.9191 14.7261 27.8981 14.7367 27.8718 14.7526L20.9477 19.283C20.7534 19.4098 20.596 19.4468 20.4175 19.4468H15.8241C15.5039 19.4468 15.2887 19.2301 15.2887 18.9076V13.1455C15.2887 13.1032 15.2677 13.0662 15.2362 13.0662C15.2099 13.0662 15.189 13.0768 15.1627 13.0927L10.5956 15.8574C10.5484 15.8838 10.5379 15.9103 10.5379 15.9314C10.5379 15.9526 10.5431 15.9684 10.5799 16.0001L13.8398 19.283C13.8818 19.3253 13.9133 19.3623 13.9133 19.394C13.9133 19.431 13.8661 19.4521 13.8083 19.4521H10.8581C10.6271 19.4521 10.4486 19.4151 10.3226 19.2883L8.34357 17.2953C8.32257 17.2742 8.30682 17.2636 8.28583 17.2636C8.27008 17.2636 8.24383 17.2742 8.22283 17.2847L4.91563 19.2883C4.71615 19.4098 4.57966 19.4468 4.38018 19.4468H1.33545C1.01523 19.4468 0.800003 19.2301 0.800003 18.9076V14.9799C0.800003 14.4935 0.904994 14.2186 1.33545 13.9596L3.87622 12.4213C3.90247 12.4054 3.92347 12.4001 3.94447 12.4001C3.98122 12.4001 4.00221 12.4424 4.00221 12.527V17.7816C4.00221 17.8345 4.01796 17.8609 4.05471 17.8609C4.07571 17.8609 4.10195 17.8451 4.1282 17.8292L12.7112 12.6327C12.9159 12.5112 13.0419 12.4742 13.2781 12.4742H17.8977C18.2179 12.4742 18.4332 12.6909 18.4332 13.0134L18.4384 18.786Z" fill="#151515"/>
</svg>
