<svg width="32" height="32" viewBox="0 0 32 32" fill="none" xmlns="http://www.w3.org/2000/svg">
<path d="M16.0252 27.9994C9.88109 28.0602 4.00774 23.1335 4.00001 15.9045C3.99334 9.71476 8.98538 3.93473 16.2106 4.00056C22.2664 4.05675 28.1771 9.05193 27.9959 16.3527C27.8284 23.0993 22.1895 28.0246 16.0252 27.9994ZM16.0425 4.60425C9.33881 4.58926 4.60391 10.0937 4.59777 15.95C4.5911 22.5175 9.95418 27.3363 15.7742 27.4083C22.4344 27.4905 27.3774 22.016 27.379 16.026C27.3832 9.46456 21.9529 4.54725 16.0425 4.60425Z" fill="#151515"/>
<path d="M24.2989 16.0359C24.3659 20.5111 20.5726 24.3749 15.9348 24.3332C11.4397 24.2928 7.59887 20.5973 7.67009 15.7817C7.72904 11.8055 11.0577 7.64681 15.9948 7.66207C20.5966 7.67705 24.3768 11.4381 24.2989 16.0359ZM10.1988 11.9099C10.517 12.1381 10.6232 12.441 10.6237 12.7942C10.6269 14.7918 10.6221 16.7897 10.6378 18.7884C10.645 19.7019 10.9563 20.5076 11.6098 21.1611C12.0428 21.5938 12.5893 21.8333 13.1569 22.019C13.5274 22.1402 13.9105 22.2235 14.2887 22.3198C14.9337 22.4841 15.5445 22.7123 16.0142 23.216C16.0183 23.2202 16.0305 23.2173 16.0455 23.2181C16.2322 22.9345 16.5053 22.7501 16.8137 22.627C17.1548 22.4905 17.5037 22.3704 17.8566 22.2679C18.4016 22.1092 18.9663 22.0096 19.4795 21.7562C20.7022 21.1533 21.3648 20.1817 21.3701 18.7956C21.3725 18.3005 21.3664 17.8055 21.3659 17.3107C21.3643 15.8034 21.3628 14.296 21.3616 12.7884C21.3616 12.5328 21.4128 12.2925 21.5614 12.0806C21.6083 12.0134 21.7118 11.9505 21.7075 11.8914C21.7025 11.8165 21.6163 11.7453 21.5611 11.6757C21.285 11.3278 20.9855 11.0016 20.6241 10.7316C20.4275 10.9644 20.1706 11.0527 19.886 11.0584C19.3618 11.0693 18.8372 11.0699 18.3122 11.0707C16.3161 11.0734 14.3202 11.0749 12.3244 11.0752C12.2092 11.0776 12.0939 11.0713 11.9795 11.0562C11.7221 11.0166 11.5261 10.867 11.3511 10.672C10.9227 11.0479 10.5301 11.4432 10.1988 11.9099Z" fill="#151515"/>
<path d="M7.20089 16.7233C7.01417 16.5681 6.85413 16.4357 6.69675 16.3021C6.18728 15.8721 5.67647 15.4429 5.1694 15.0091C5.12965 14.9751 5.09258 14.905 5.09738 14.8558C5.21202 13.6341 5.54109 12.4423 6.06938 11.3356C6.08185 11.3134 6.09877 11.2941 6.11906 11.2788C6.13935 11.2635 6.16258 11.2526 6.18728 11.2468C7.05205 11.1175 7.91762 10.9933 8.78319 10.8689C8.79964 10.8698 8.81589 10.8729 8.83147 10.8783C8.82132 10.9074 8.80873 10.9356 8.79386 10.9626C8.65249 11.1783 8.50632 11.3907 8.36708 11.6093C8.31213 11.6963 8.24624 11.749 8.14275 11.7482C7.91682 11.7461 7.79972 11.8638 7.70183 12.0693C7.20196 13.1146 6.91975 14.2152 6.83119 15.3674C6.82612 15.4343 6.864 15.5347 6.91601 15.5711C7.15608 15.7402 7.24063 15.961 7.20329 16.2486C7.18649 16.3902 7.20089 16.539 7.20089 16.7233ZM6.12326 14.8395C6.25663 13.8304 6.5215 12.8978 6.90428 11.9706C6.7509 11.9933 6.62553 11.9998 6.5087 12.0346C6.44085 12.0567 6.38442 12.1048 6.35159 12.1683C6.05151 12.8868 5.85759 13.634 5.74369 14.4044C5.73889 14.4367 5.73835 14.4846 5.75729 14.5031C5.86719 14.6107 5.98269 14.7118 6.12326 14.8395Z" fill="#151515"/>
<path d="M24.7791 16.7878C24.7791 16.4854 24.7716 16.1847 24.7855 15.8847C24.7881 15.8261 24.8626 15.7562 24.921 15.7172C25.1048 15.5941 25.1445 15.4338 25.1274 15.2178C25.0338 14.0391 24.7116 12.9275 24.1802 11.8753C24.1652 11.8499 24.1448 11.8282 24.1204 11.8116C24.096 11.7951 24.0682 11.7842 24.0391 11.7798C23.731 11.7745 23.5515 11.608 23.4256 11.3426C23.3501 11.1833 23.2426 11.0396 23.1335 10.8628C23.3531 10.8954 23.547 10.923 23.7404 10.9532C24.411 11.0578 25.0815 11.1646 25.7527 11.2671C25.7896 11.2698 25.8251 11.2828 25.8551 11.3047C25.8851 11.3265 25.9085 11.3563 25.9226 11.3907C26.4437 12.476 26.7649 13.647 26.8706 14.847C26.8714 14.8701 26.8676 14.8932 26.8594 14.9148C26.8512 14.9365 26.8388 14.9563 26.8228 14.973C26.1542 15.5726 25.4836 16.1702 24.8111 16.7659C24.801 16.774 24.7903 16.7813 24.7791 16.7878ZM25.8642 14.8796C25.9882 14.7712 26.0901 14.6923 26.1781 14.6002C26.2185 14.5578 26.2406 14.501 26.2395 14.4424C26.1386 13.6396 25.9439 12.859 25.61 12.1186C25.5948 12.0849 25.5667 12.0383 25.5377 12.0327C25.3923 12.0019 25.2443 11.9826 25.0549 11.9524C25.4633 12.8983 25.7127 13.8534 25.8652 14.8796H25.8642Z" fill="#151515"/>
<path d="M11.7531 5.87106C12.0822 5.75011 12.3978 5.61952 12.7224 5.51811C13.9067 5.14776 15.1201 4.97837 16.3605 5.03644C16.7392 5.0541 16.9206 5.22375 16.9801 5.63959C17.0153 5.9103 16.989 6.18549 16.903 6.44452C16.8377 6.65137 16.667 6.81915 16.3962 6.8047C15.3365 6.75359 14.2962 6.88069 13.285 7.21171C13.1551 7.25425 13.1436 7.31339 13.1783 7.42578C13.2439 7.63665 13.241 7.63772 13.0316 7.71639C12.9153 7.76001 12.7936 7.79292 12.6848 7.84858C12.5608 7.91093 12.5082 7.87855 12.4621 7.75225C12.269 7.22589 12.0665 6.70328 11.8688 6.17906C11.8326 6.08433 11.7974 5.98934 11.7531 5.87106ZM16.185 5.88792C16.169 5.73459 16.0817 5.61444 15.9268 5.6123C15.3474 5.60507 14.7718 5.64147 14.205 5.75653C13.7624 5.84618 13.3266 5.97061 12.887 6.0755C12.7856 6.10012 12.7563 6.15043 12.7992 6.24837C12.8275 6.31313 12.8451 6.38217 12.8672 6.4504C12.8894 6.51864 12.9294 6.5454 13.0078 6.52185C13.9862 6.2275 14.983 6.04901 16.0081 6.05436C16.1281 6.0549 16.1634 5.97275 16.185 5.88792Z" fill="#151515"/>
<path d="M23.9887 8.49616C24.1504 8.68749 24.3088 8.86731 24.4542 9.0557C24.471 9.0771 24.4403 9.16033 24.4086 9.18949C24.0226 9.55797 23.6321 9.92163 23.2426 10.2866L22.9287 10.581C22.8452 10.4905 22.7686 10.399 22.6849 10.3174C22.1335 9.7889 21.8364 9.09557 21.4744 8.44424C21.2648 8.0672 21.0612 7.68642 20.8548 7.30777C20.8321 7.26603 20.8065 7.2275 20.7622 7.1515L20.1911 8.2671C19.9887 8.1713 19.803 8.07684 19.6118 7.99549C19.5051 7.95027 19.5011 7.89434 19.5456 7.80015C19.7756 7.31339 20.0009 6.82477 20.2285 6.33721C20.2845 6.21706 20.3424 6.09798 20.4125 5.95054C20.6953 6.10066 20.9689 6.24489 21.2394 6.3926C21.2701 6.40946 21.289 6.45335 21.3069 6.48813C21.7966 7.45147 22.2857 8.41481 22.774 9.37815C22.8561 9.5387 22.8756 9.54379 23.0098 9.41722C23.3277 9.11938 23.6444 8.82021 23.9887 8.49616Z" fill="#151515"/>
<path d="M9.18197 10.4196C8.76372 10.049 8.35507 9.68668 7.94589 9.32249C7.8392 9.22803 7.73117 9.13517 7.63328 9.03188C7.60874 9.00512 7.6002 8.92484 7.62074 8.90156C7.77411 8.71799 7.93683 8.54192 8.10647 8.35219C8.22544 8.45789 8.33133 8.55021 8.43563 8.64414C8.6741 8.85821 8.91576 9.06747 9.14783 9.28931C9.24732 9.3851 9.30574 9.38591 9.40523 9.28502C10.0187 8.66287 10.7171 8.1531 11.4823 7.73432C11.517 7.71532 11.5528 7.69819 11.608 7.66983L11.9395 8.17826C10.8715 8.7493 9.97339 9.50231 9.18197 10.4196Z" fill="#151515"/>
<path d="M18.5435 7.57323L17.7433 7.37467L18.2119 5.24784L19.0708 5.46352C18.8945 6.1705 18.7206 6.86598 18.5435 7.57323Z" fill="#151515"/>
<path d="M16.1367 22.6345C16.1263 22.6007 16.118 22.5663 16.1119 22.5315C16.1091 22.4958 16.1085 22.4601 16.11 22.4244C16.1088 18.8123 16.1075 15.1997 16.1063 11.5869C16.1063 11.3939 16.1063 11.4012 16.293 11.4009C17.2618 11.3993 18.2306 11.3937 19.2005 11.3894C19.3338 11.3894 19.4672 11.3824 19.6006 11.3894C19.9258 11.412 20.2513 11.3504 20.5459 11.2104C20.6259 11.1718 20.6841 11.1799 20.7446 11.247C20.9313 11.4544 21.1237 11.658 21.316 11.866C21.0775 12.193 21.0362 12.5529 21.0367 12.9224C21.0388 14.4388 21.0418 15.9552 21.0455 17.4715C21.0455 17.9398 21.0604 18.4081 21.0506 18.8759C21.0268 19.9968 20.4941 20.8116 19.5301 21.3514C18.9777 21.6607 18.3616 21.791 17.7619 21.9687C17.3415 22.0934 16.9286 22.2446 16.5184 22.3995C16.385 22.4512 16.2701 22.5515 16.1367 22.6345ZM18.7862 12.7038C18.676 12.7038 18.5744 12.7076 18.4731 12.7025C18.3981 12.6985 18.3696 12.7319 18.3632 12.8012C18.3421 13.0364 18.3181 13.2714 18.2981 13.5069C18.2934 13.5692 18.2934 13.6318 18.2981 13.6942C18.3029 13.7675 18.2738 13.8074 18.1999 13.7999C18.1044 13.7902 18.0882 13.8472 18.0876 13.9224C18.0876 13.9845 18.0946 14.049 18.0804 14.1081C18.0666 14.1493 18.0381 14.1839 18.0004 14.2053C17.9012 14.2628 17.7953 14.3088 17.6944 14.364C17.6014 14.4151 17.6072 14.4769 17.6483 14.5737C17.6801 14.6604 17.6786 14.7558 17.644 14.8413C17.5907 14.962 17.5907 15.0198 17.7203 15.0642C17.8404 15.106 17.9652 15.1333 18.0852 15.175C18.1135 15.1847 18.1527 15.2286 18.15 15.2526C18.1164 15.5523 18.2245 15.5451 17.8833 15.5448H17.8033C17.6219 15.5448 17.5963 15.5729 17.6166 15.7528C17.6208 15.7921 17.6299 15.8309 17.64 15.8866H18.7905C18.8652 16.121 18.8318 16.1694 18.6182 16.1713C18.3296 16.1734 18.0407 16.1833 17.7521 16.179C17.6128 16.1769 17.6187 16.2593 17.6227 16.353C17.6264 16.4394 17.6011 16.5384 17.7483 16.5285C17.883 16.5192 18.0188 16.5264 18.1612 16.5264C18.1612 16.6353 18.1583 16.7065 18.1612 16.7774C18.1663 16.8775 18.1319 16.9246 18.0225 16.9147C17.9305 16.9066 17.8358 16.923 17.7433 16.9187C17.5688 16.9104 17.6323 17.0391 17.6235 17.1231C17.6136 17.2162 17.6384 17.2708 17.7539 17.2682C18.074 17.2607 18.3941 17.2682 18.7142 17.2636C18.8385 17.2612 18.8345 17.3375 18.8366 17.4199C18.8388 17.5023 18.8222 17.5596 18.7121 17.5574C18.4368 17.5518 18.1612 17.5609 17.8852 17.562C17.6144 17.5633 17.6142 17.562 17.6294 17.833C17.6347 17.8557 17.6417 17.8779 17.6504 17.8994C17.779 17.8994 17.9172 17.8938 18.0505 17.9029C18.0895 17.9053 18.153 17.9462 18.1572 17.9767C18.1714 18.0709 18.1626 18.1686 18.1626 18.2781C17.9273 18.2355 17.8081 18.4062 17.6558 18.5068C17.6387 18.5181 17.6355 18.5871 17.652 18.6059C17.7345 18.7062 17.7371 18.7969 17.6542 18.9002C17.6008 18.9655 17.6075 19.034 17.6947 19.0723C17.8241 19.1298 17.9553 19.1831 18.0834 19.2433C18.1138 19.2574 18.1538 19.2912 18.1559 19.3187C18.1644 19.4228 18.1594 19.5282 18.1594 19.6302C17.9609 19.6554 17.9321 19.6979 17.95 19.8951C17.9577 19.9802 17.9876 20.0174 18.0815 20.0158C18.388 20.0113 18.695 20.0158 19.0012 20.0174C19.2679 20.0174 19.265 20.0174 19.2562 19.7461C19.2535 19.6701 19.2274 19.6364 19.1551 19.6436C19.0634 19.6527 19.0383 19.6056 19.0425 19.5242C19.0451 19.4707 19.0446 19.4171 19.0409 19.3637C19.0356 19.2786 19.07 19.2422 19.1572 19.2451C19.2682 19.2486 19.3797 19.2368 19.4904 19.2425C19.6379 19.2497 19.6238 19.1496 19.6262 19.0551C19.6286 18.9607 19.6158 18.8946 19.4896 18.8981C19.1922 18.9045 18.8942 18.89 18.5968 18.8962C18.4781 18.8986 18.4456 18.8496 18.4568 18.7463C18.4608 18.7078 18.4704 18.6698 18.4792 18.6219C18.8214 18.6219 19.1546 18.6158 19.4872 18.6249C19.6187 18.6286 19.6304 18.5633 19.631 18.4624C19.631 18.3573 19.624 18.2775 19.4821 18.2933C19.3756 18.3035 19.2682 18.3015 19.162 18.2874C19.1202 18.2823 19.0498 18.2368 19.0495 18.2093C19.0495 18.1076 19.0706 18.0054 19.0876 17.904C19.0876 17.8986 19.1212 17.9007 19.1375 17.8951C19.2762 17.8451 19.4168 17.7999 19.552 17.7418C19.639 17.7046 19.6422 17.6433 19.5915 17.558C19.5352 17.4632 19.5115 17.3581 19.5958 17.2532C19.6142 17.2302 19.5974 17.1421 19.5723 17.1279C19.4083 17.0356 19.2375 16.9551 19.057 16.8646V16.5861C19.2349 16.5026 19.385 16.4298 19.5371 16.3615C19.6296 16.3201 19.6227 16.2679 19.5904 16.1807C19.5619 16.1004 19.5438 15.9877 19.58 15.9222C19.64 15.8135 19.6035 15.7597 19.5216 15.7177C19.3706 15.6404 19.2138 15.5743 19.0377 15.4937C19.0377 15.4504 19.0396 15.3797 19.0377 15.3091C19.0345 15.2117 19.0644 15.1587 19.1762 15.1686C19.2829 15.1777 19.3896 15.1667 19.4963 15.171C19.6267 15.1761 19.619 15.0881 19.6192 15.0008C19.6195 14.9136 19.6176 14.8456 19.4955 14.8486C19.2157 14.8555 18.9353 14.8486 18.6555 14.8486C18.4021 14.8486 18.3992 14.8448 18.4437 14.5716C18.48 14.5689 18.5184 14.5636 18.5573 14.5633C18.8506 14.5612 19.144 14.5595 19.4376 14.5582C19.6072 14.5582 19.6272 14.5395 19.6243 14.3688C19.6191 14.3141 19.6102 14.2598 19.5976 14.2063C19.4768 14.2063 19.3661 14.2063 19.2557 14.2063C19.0268 14.2037 19.0225 14.2002 19.0388 13.9738C19.0468 13.8614 19.0463 13.7597 18.886 13.7704C18.886 13.7265 18.8889 13.6955 18.886 13.665C18.8574 13.3535 18.8233 13.0415 18.7873 12.7038H18.7862Z" fill="#151515"/>
<path d="M15.8785 22.6444C15.3063 22.2684 14.6862 22.0982 14.067 21.924C13.7256 21.828 13.3842 21.7303 13.0473 21.6187C12.6616 21.4908 12.3004 21.3096 11.9822 21.0517C11.4373 20.6101 11.142 20.0228 11.0219 19.3447C10.9723 19.0641 10.9468 18.7798 10.9457 18.4948C10.9377 16.5819 10.9353 14.6688 10.9385 12.7557C10.9385 12.4365 10.8547 12.1496 10.6336 11.8727C10.7859 11.703 10.9398 11.5277 11.0985 11.3573C11.171 11.2791 11.2441 11.1718 11.3346 11.1496C11.4124 11.1304 11.5149 11.2138 11.6069 11.2508C11.9182 11.3757 12.2455 11.3987 12.5752 11.3996C13.6155 11.4028 14.6557 11.4065 15.696 11.4014C15.8345 11.4014 15.8729 11.4421 15.8697 11.5732C15.8646 11.7736 15.8795 11.9746 15.8795 12.1748C15.8795 15.5952 15.8795 19.0155 15.8795 22.4357L15.8785 22.6444ZM13.7144 12.9875C13.8763 13.0945 13.9011 13.2411 13.9046 13.4046C13.9201 13.988 13.9419 14.5713 13.958 15.1547C13.9681 15.5472 13.9738 15.9396 13.975 16.3321C13.975 16.3728 13.9313 16.4504 13.915 16.4485C13.7443 16.4292 13.7342 16.5301 13.7438 16.6556C13.7416 16.689 13.7356 16.7219 13.7259 16.7538C13.5869 16.7538 13.4541 16.7514 13.3215 16.7538C13.2396 16.756 13.1964 16.7126 13.2127 16.6412C13.2487 16.4806 13.1783 16.4333 13.0348 16.4421C13.0233 16.4421 13.0113 16.4303 12.991 16.4196C12.991 16.3747 12.991 16.3262 12.991 16.2775C13.0074 15.3777 13.0238 14.4778 13.0404 13.5778C13.0444 13.3597 13.0038 13.1255 13.2634 12.9891C12.6277 12.9695 12.0054 12.9355 11.3807 12.9925C11.3924 13.0181 11.4126 13.0387 11.4378 13.0509C11.5522 13.1014 11.6018 13.1895 11.6042 13.3139C11.6231 14.2985 11.643 15.2831 11.664 16.2676C11.6656 16.3492 11.7077 16.4549 11.5645 16.4672C11.5573 16.4672 11.5464 16.4881 11.5461 16.4996C11.5413 16.6283 11.4967 16.7769 11.5461 16.8815C11.6114 17.023 11.5944 17.1566 11.5994 17.2941C11.6066 17.5122 11.5994 17.7311 11.6045 17.9494C11.609 18.1903 11.6112 18.1903 11.374 18.2334C11.374 18.3888 11.3692 18.5483 11.3786 18.707C11.3802 18.7338 11.4394 18.7624 11.4765 18.7811C11.5093 18.7977 11.58 18.8009 11.5805 18.8116C11.5837 18.9187 11.6178 19.0656 11.5621 19.1282C11.4717 19.2304 11.4975 19.3155 11.5063 19.4255H13.2052C13.198 19.3254 13.2228 19.2002 13.1809 19.1707C13.0492 19.0787 13.1196 18.9599 13.1068 18.8544C13.1041 18.8322 13.1561 18.7795 13.1759 18.7827C13.2804 18.8004 13.3199 18.7434 13.3386 18.6476C13.4597 18.6784 13.6117 18.574 13.6821 18.7578C13.6864 18.7694 13.724 18.7656 13.744 18.7742C13.7872 18.7926 13.8641 18.8122 13.8654 18.8349C13.8715 18.9334 13.8902 19.0918 13.8403 19.122C13.6941 19.2109 13.7555 19.3128 13.7603 19.433C14.3047 19.433 14.8377 19.433 15.3706 19.4303C15.4184 19.4303 15.5021 19.3998 15.5064 19.373C15.5178 19.3008 15.5717 19.2087 15.4637 19.1509C15.412 19.1242 15.3906 18.8427 15.433 18.8031C15.4412 18.7959 15.4507 18.7905 15.461 18.7871C15.4713 18.7838 15.4822 18.7825 15.493 18.7835C15.6584 18.8124 15.6632 18.7065 15.6587 18.5901C15.6568 18.5456 15.6587 18.501 15.6587 18.4563C15.6587 18.2299 15.6587 18.2299 15.448 18.1887C15.4408 18.1887 15.4346 18.1785 15.4154 18.1619C15.4154 17.7846 15.4154 17.3974 15.4154 17.0113C15.4154 17.0024 15.417 16.9936 15.4178 16.9845C15.432 16.8363 15.448 16.688 15.4586 16.5395C15.4605 16.5127 15.4458 16.4635 15.4301 16.4592C15.3253 16.4325 15.3429 16.3522 15.3437 16.2783C15.3526 15.3426 15.3614 14.4068 15.3703 13.4707C15.3719 13.2858 15.3274 13.0824 15.6061 13.0158L15.5701 12.984L13.7144 12.9875Z" fill="#151515"/>
<path d="M17.7145 18.5309C17.8572 18.4017 17.99 18.3284 18.1708 18.334C18.5918 18.3471 19.0132 18.3439 19.4344 18.3479C19.4987 18.3479 19.5678 18.3313 19.5723 18.4397C19.576 18.5419 19.528 18.5561 19.4445 18.5558C18.8908 18.5531 18.3368 18.5531 17.7827 18.5515C17.7593 18.5472 17.7364 18.5403 17.7145 18.5309Z" fill="#151515"/>
<path d="M19.5419 14.3056V14.4804H17.6928L17.6776 14.4453C17.7982 14.3918 17.9177 14.2989 18.0393 14.2949C18.5229 14.2789 19.0076 14.2906 19.4917 14.2925C19.5089 14.2952 19.5257 14.2996 19.5419 14.3056Z" fill="#151515"/>
<path d="M17.7198 18.97C17.7659 18.9676 17.8121 18.9628 17.8582 18.9631C18.3864 18.9651 18.9145 18.9675 19.4427 18.9703C19.5083 18.9703 19.5811 18.9545 19.576 19.0645C19.5712 19.1566 19.5312 19.182 19.4427 19.1812C18.9988 19.1772 18.5541 19.1919 18.1111 19.1718C17.9748 19.1659 17.8422 19.0717 17.708 19.0179L17.7198 18.97Z" fill="#151515"/>
<path d="M19.5243 17.193C19.4909 17.1954 19.4579 17.1999 19.4248 17.1999C18.8913 17.1999 18.3578 17.1999 17.8243 17.1999C17.7486 17.1999 17.6867 17.2047 17.6851 17.0942C17.6835 16.9837 17.7486 16.9896 17.8227 16.9896C18.2495 16.9907 18.6763 16.9907 19.1031 16.9896C19.273 16.9901 19.3965 17.0899 19.5243 17.193Z" fill="#151515"/>
<path d="M19.5707 17.6594C19.3816 17.7664 19.2338 17.8542 19.0372 17.8467C18.6299 17.829 18.2218 17.8346 17.8137 17.8328C17.7403 17.8328 17.684 17.8296 17.6843 17.7303C17.6843 17.6265 17.7483 17.6326 17.8177 17.6332C18.3453 17.6364 18.873 17.6393 19.4008 17.642C19.4443 17.6414 19.4909 17.6505 19.5707 17.6594Z" fill="#151515"/>
<path d="M17.6944 14.9216H19.5371V15.094C19.4491 15.1001 19.3618 15.1113 19.2743 15.1111C18.8742 15.1095 18.4741 15.1151 18.0767 15.0958C17.9433 15.0891 17.8118 15.0155 17.6795 14.9735C17.6838 14.9561 17.6894 14.9387 17.6944 14.9216Z" fill="#151515"/>
<path d="M17.6838 16.4343L17.7091 16.2569H19.4976C19.5037 16.2727 19.5096 16.2888 19.5157 16.3045C19.393 16.3581 19.2717 16.4541 19.1476 16.4581C18.6739 16.4731 18.1994 16.4581 17.7254 16.4544C17.7185 16.4544 17.7104 16.4477 17.6838 16.4343Z" fill="#151515"/>
<path d="M17.715 15.8066C17.6584 15.6342 17.6763 15.6059 17.8484 15.608C18.2695 15.6131 18.6913 15.6107 19.1114 15.6348C19.2469 15.642 19.3781 15.7188 19.5115 15.7637L19.4987 15.8076L17.715 15.8066Z" fill="#151515"/>
<path d="M18.1407 19.9342V19.7134C18.4341 19.7461 18.7505 19.6139 18.9993 19.9342H18.1407Z" fill="#151515"/>
<path d="M18.7491 14.186H18.2783V13.8852C18.5243 13.8424 18.7198 13.9604 18.7491 14.186Z" fill="#151515"/>
<path d="M18.3357 15.5267V15.2379C18.5304 15.2243 18.6824 15.3233 18.7734 15.5267H18.3357Z" fill="#151515"/>
<path d="M18.8385 19.6382C18.6801 19.6382 18.5451 19.6449 18.4101 19.6364C18.2751 19.6278 18.3418 19.5167 18.3325 19.449C18.3226 19.3768 18.3712 19.3629 18.4352 19.3688C18.6072 19.3872 18.7422 19.4579 18.8385 19.6382Z" fill="#151515"/>
<path d="M18.806 16.909H18.3525C18.3416 16.8911 18.3338 16.8842 18.3333 16.8767C18.3146 16.6224 18.3496 16.5917 18.5843 16.6893C18.6747 16.7271 18.7494 16.8031 18.831 16.8617L18.806 16.909Z" fill="#151515"/>
<path d="M18.3528 18.0083C18.563 17.999 18.6995 18.084 18.8276 18.2732C18.66 18.2732 18.5224 18.2762 18.3853 18.2695C18.3693 18.2695 18.3453 18.2176 18.3432 18.1892C18.3424 18.1288 18.3457 18.0683 18.3528 18.0083Z" fill="#151515"/>
<path d="M18.6859 13.7766H18.4813C18.4739 13.6225 18.4667 13.4737 18.4595 13.3233C18.6496 13.3348 18.7379 13.5178 18.6859 13.7766Z" fill="#151515"/>
<path d="M18.8772 15.9272C19.1439 15.9184 19.2677 15.985 19.3421 16.1681C19.2045 16.1681 19.0722 16.1849 18.9495 16.1576C18.9126 16.1493 18.9033 16.0177 18.8772 15.9272Z" fill="#151515"/>
<path d="M18.9076 17.539V17.3249C19.1298 17.3075 19.2661 17.3749 19.3408 17.539H18.9076Z" fill="#151515"/>
<path d="M17.8726 14.8298V14.608C18.0111 14.6265 18.0946 14.7003 18.166 14.8298H17.8726Z" fill="#151515"/>
<path d="M18.4989 12.843C18.5928 12.9171 18.6542 13.1303 18.6118 13.1983C18.6027 13.2128 18.5712 13.2286 18.5584 13.2229C18.5347 13.2122 18.5016 13.1884 18.5005 13.1681C18.4957 13.0648 18.4989 12.961 18.4989 12.843Z" fill="#151515"/>
<path d="M17.8756 18.8748V18.6703L18.1183 18.8389L18.1047 18.8748H17.8756Z" fill="#151515"/>
<path d="M14.95 16.4271H14.079C14.0681 16.2031 14.0524 15.9792 14.0468 15.7549C14.0268 14.9808 14.0105 14.2063 13.9934 13.4319C13.9873 13.1742 13.9865 13.1718 14.2444 13.1839C14.3506 13.1865 14.4564 13.1983 14.5605 13.2192C14.69 13.2463 14.806 13.3177 14.8887 13.4212C14.9714 13.5247 15.0157 13.6538 15.014 13.7865C15.0004 14.6497 14.9817 15.5133 14.9646 16.3765C14.9613 16.3938 14.9564 16.4107 14.95 16.4271Z" fill="#151515"/>
<path d="M11.6984 13.1873C11.9651 13.1873 12.2292 13.1922 12.4719 13.323C12.6157 13.4001 12.6939 13.5125 12.6893 13.6883C12.6672 14.5652 12.652 15.4424 12.6339 16.3195C12.6339 16.3541 12.6283 16.3886 12.6237 16.4394C12.4015 16.4394 12.1849 16.4394 11.9686 16.4394C11.7419 16.4394 11.7397 16.4394 11.7355 16.2128C11.7221 15.5047 11.7099 14.7967 11.6987 14.0886C11.6949 13.7945 11.6984 13.5023 11.6984 13.1873Z" fill="#151515"/>
<path d="M12.6973 19.1325H11.6733V17.075C11.9635 17.1039 12.2377 17.1242 12.4837 17.2601C12.7221 17.3915 12.8486 17.5922 12.8262 17.8735C12.819 17.966 12.8112 18.0584 12.8043 18.1448H12.3684C12.3775 18.0875 12.3898 18.019 12.3991 17.9502C12.4137 17.8637 12.3989 17.7747 12.3572 17.6976C12.3155 17.6204 12.2492 17.5595 12.1689 17.5245C12.0997 17.4933 12.0227 17.4839 11.948 17.4976C11.8733 17.5112 11.8046 17.5472 11.7507 17.6008C11.7165 17.6332 11.6921 17.6745 11.68 17.72C11.668 17.7656 11.6689 17.8136 11.6827 17.8587C11.784 18.2136 11.8926 18.5663 11.9995 18.9195C12.0068 18.9346 12.0164 18.9485 12.0278 18.9607L12.0601 18.9502C11.9625 18.5786 11.8651 18.2069 11.7651 17.8264L12.0345 17.7969C12.059 17.9818 12.0804 18.1574 12.1068 18.3321C12.1175 18.3769 12.1323 18.4206 12.1511 18.4627L12.301 18.3864V19.0257H12.3543V18.4507L12.759 18.5272C12.74 18.722 12.7192 18.9224 12.6973 19.1325Z" fill="#151515"/>
<path d="M13.9494 19.122V17.4688C14.0492 17.4627 14.1415 17.4466 14.2319 17.4541C14.3581 17.4646 14.3943 17.4084 14.3949 17.2936C14.3949 17.1298 14.4375 17.1025 14.5957 17.1555C14.7467 17.2063 14.8483 17.3161 14.9254 17.4536C14.7078 17.6875 14.8422 18.003 14.748 18.2283C14.5971 18.2069 14.4528 18.1627 14.3122 18.1729C14.1716 18.1831 14.0892 18.3067 14.1057 18.4504C14.1263 18.6273 14.166 18.8017 14.1972 18.977L14.2415 18.969L14.1759 18.5368L14.5629 18.4932C14.5629 18.6321 14.5586 18.7683 14.5653 18.9037C14.5675 18.9465 14.5981 18.9882 14.6157 19.0303C14.6517 19.0048 14.699 18.9866 14.7224 18.9524C14.7787 18.8728 14.8256 18.787 14.8622 18.6966C14.8843 18.638 14.8969 18.5539 14.8713 18.5028C14.7419 18.2462 14.8875 18.0014 14.8614 17.737L15.1311 17.8157L14.9497 18.5347C14.9473 18.5432 14.9433 18.5513 14.9409 18.5598C14.8875 18.7544 14.8131 18.9519 15.0559 19.0982L15.0292 19.122H13.9494Z" fill="#151515"/>
<path d="M13.8603 17.2136V18.1873C13.7683 18.1975 13.6821 18.197 13.6272 18.3083C13.6067 18.35 13.4554 18.3268 13.377 18.3011L13.1196 18.1426C13.1196 18.0589 13.1196 17.9286 13.1196 17.7948C13.1196 17.6342 13.1228 17.4737 13.1177 17.3131C13.1156 17.2443 13.1377 17.2122 13.2055 17.2122L13.8603 17.2136Z" fill="#151515"/>
<path d="M13.9673 16.8349V17.1266H12.8899V16.8349H13.9673Z" fill="#151515"/>
<path d="M11.6178 16.8563C11.5912 16.6709 11.5912 16.669 11.7552 16.669C12.0838 16.669 12.4125 16.6703 12.7421 16.6736C12.7883 16.6778 12.8341 16.6858 12.879 16.6976C12.8158 16.8812 12.6763 16.8566 12.5464 16.8563C12.2356 16.8558 11.9259 16.8563 11.6178 16.8563Z" fill="#151515"/>
<path d="M13.8443 16.6618C14.0244 16.6618 14.2042 16.6618 14.3842 16.6618C14.5642 16.6618 14.7387 16.6749 14.9153 16.6661C15.0486 16.6591 15.1233 16.7129 15.1724 16.8598H14.5896C14.4922 16.8598 14.3946 16.8598 14.2962 16.8598C14.2322 16.8598 14.1727 16.8702 14.1313 16.7881C14.1153 16.756 14.0222 16.7637 13.9646 16.7517C13.9211 16.7426 13.8782 16.7308 13.835 16.7201L13.8443 16.6618Z" fill="#151515"/>
<path d="M13.8272 19.3605C13.7971 19.2497 13.8291 19.2101 13.9339 19.2138C14.1156 19.2197 14.2988 19.2029 14.4797 19.2184C14.6059 19.2291 14.7288 19.2781 14.8531 19.3099L14.8438 19.3605H13.8272Z" fill="#151515"/>
<path d="M12.5904 19.3605H11.5813V19.2162C11.9222 19.2433 12.2743 19.1333 12.5904 19.3605Z" fill="#151515"/>
</svg>
