<svg width="32" height="32" viewBox="0 0 32 32" fill="none" xmlns="http://www.w3.org/2000/svg">
<path fill-rule="evenodd" clip-rule="evenodd" d="M7.20393 12.4257C7.75489 12.4257 8.30586 12.4261 8.85682 12.4265C10.3445 12.4276 11.8322 12.4287 13.3198 12.4219C13.9081 12.4192 14.3493 12.6238 14.6081 13.1706C14.6853 13.3331 14.8249 13.4081 15.0055 13.4081H16.9959C17.1754 13.4081 17.3002 13.3222 17.3965 13.17C17.4978 13.0102 17.6023 12.846 17.7342 12.7125C17.9701 12.475 18.2842 12.4268 18.6027 12.4263C22.7484 12.4246 26.8941 12.4246 31.0392 12.4257C31.3938 12.4257 31.5766 12.5412 31.6434 12.7957C31.6449 12.8016 31.6466 12.8076 31.6483 12.8135C31.6522 12.8273 31.6561 12.8412 31.6576 12.8553C31.6888 13.1449 31.2412 13.7436 30.9599 13.8262C30.8537 13.8574 30.7519 13.9455 30.6785 14.0337C30.6173 14.1075 30.5726 14.1955 30.528 14.2834L30.528 14.2834C30.5105 14.3179 30.4929 14.3524 30.4744 14.3861C30.3726 14.5716 30.2161 14.668 30.012 14.7243C29.8998 14.7555 29.7892 14.8409 29.7099 14.9306C29.6481 15 29.5997 15.081 29.5513 15.1621C29.519 15.2161 29.4867 15.2701 29.4504 15.3209C29.2567 15.5923 28.965 15.6996 28.6591 15.7882C27.376 16.1617 26.0944 16.5393 24.8123 16.9171L24.6852 16.9545C24.6261 16.9719 24.5665 16.9883 24.5068 17.0048L24.5067 17.0048C24.3165 17.0571 24.1256 17.1097 23.9502 17.1942C23.7669 17.2829 23.5655 17.4115 23.4637 17.5779C23.1594 18.0764 22.6931 18.2789 22.1645 18.4136C21.7308 18.5239 21.299 18.6418 20.867 18.7598L20.8664 18.76C20.6623 18.8157 20.4582 18.8714 20.2539 18.9264C20.0394 18.9843 19.825 19.0426 19.6107 19.1009L19.6102 19.101L19.6101 19.1011C19.0567 19.2516 18.5035 19.4022 17.9482 19.5453C17.616 19.6313 17.3133 19.5481 17.06 19.31C16.8011 19.067 16.5433 18.8235 16.2861 18.5788C16.0327 18.338 15.9544 18.3386 15.7087 18.5761C15.4597 18.8169 15.2079 19.0555 14.9557 19.293C14.6858 19.5475 14.3733 19.6313 14.0121 19.5333C13.6011 19.4223 13.1897 19.3121 12.7783 19.2019L12.7782 19.2018L12.778 19.2018L12.7779 19.2018L12.7777 19.2017L12.7776 19.2017L12.7774 19.2016L12.7773 19.2016L12.7772 19.2016C12.0853 19.0162 11.3934 18.8308 10.7027 18.6418L10.558 18.6022L10.558 18.6022L10.558 18.6022L10.558 18.6022L10.558 18.6022L10.5579 18.6022L10.5579 18.6022L10.5579 18.6022L10.5579 18.6022L10.5579 18.6022C10.1147 18.4811 9.67021 18.3597 9.24037 18.2018C9.04061 18.1284 8.82553 17.9768 8.71717 17.8001C8.41452 17.3053 7.94769 17.1225 7.43051 16.9769C6.70201 16.772 5.9761 16.5574 5.25029 16.3429L5.25012 16.3429L5.25009 16.3429L5.24999 16.3428C4.91972 16.2452 4.58947 16.1476 4.259 16.0509L4.03663 15.9856C3.75236 15.9018 3.46802 15.8181 3.18195 15.7395C2.81691 15.6394 2.55695 15.415 2.38784 15.0833C2.28003 14.8721 2.12733 14.7462 1.89145 14.6729C1.75334 14.63 1.63566 14.4971 1.52984 14.3776L1.50288 14.3472C1.46018 14.2992 1.43129 14.239 1.40233 14.1786C1.37451 14.1206 1.34664 14.0625 1.30641 14.015C1.25611 13.9552 1.18547 13.9124 1.11501 13.8696C1.0881 13.8532 1.06122 13.8369 1.0355 13.8197C0.995167 13.7927 0.95262 13.7679 0.910106 13.7431L0.910102 13.7431C0.820523 13.6909 0.731093 13.6388 0.662804 13.5668C0.578008 13.4772 0.51816 13.3626 0.459101 13.2495L0.4591 13.2495C0.444974 13.2224 0.430893 13.1955 0.416526 13.1689C0.235376 12.8346 0.38971 12.5117 0.76022 12.4471C0.846691 12.4323 0.935898 12.4257 1.02401 12.4257C3.08289 12.4246 5.14232 12.4246 7.2012 12.4246L7.20393 12.4257ZM9.04937 15.8955H22.9487V13.7458H9.04937V15.8955ZM14.3383 13.4574C14.1243 12.9418 13.9065 12.7924 13.4014 12.7924H1.0054C0.988565 12.7924 0.971727 12.7922 0.954889 12.792C0.916999 12.7915 0.879109 12.7911 0.841218 12.793C0.723552 12.7995 0.684695 12.8647 0.71808 12.9736C0.81057 13.2773 1.01963 13.436 1.34855 13.4519C1.43064 13.4557 1.51273 13.4574 1.59483 13.4574H14.0729H14.3383ZM17.9099 13.4574H17.6628C17.892 12.9335 18.1224 12.7897 18.5715 12.7897C20.8956 12.7924 23.2199 12.7928 25.5442 12.7931C27.3702 12.7934 29.1963 12.7937 31.0222 12.7951C31.0822 12.7951 31.1423 12.8141 31.2026 12.8331C31.2304 12.8419 31.2582 12.8506 31.286 12.8575C31.2773 12.8847 31.2692 12.912 31.2611 12.9394C31.2429 13.001 31.2248 13.0624 31.199 13.1208C31.0934 13.3578 30.9122 13.4749 30.6474 13.4541C30.6054 13.4507 30.5632 13.4528 30.5209 13.4548C30.4948 13.4561 30.4688 13.4574 30.4427 13.4574H17.9099ZM23.8107 14.063L23.8108 14.063L23.8108 14.063L23.8108 14.063L23.8109 14.063L23.8109 14.063L23.8109 14.063L23.8109 14.063L23.8109 14.063L23.8109 14.063L23.811 14.0631C24.2549 14.0909 24.6921 14.1184 25.1291 14.1431C25.87 14.1854 26.6114 14.2252 27.3527 14.265L27.721 14.2849C27.9035 14.2947 28.086 14.3052 28.2685 14.3157L28.2685 14.3157C28.7464 14.3432 29.2242 14.3707 29.7022 14.3861C30.0475 14.397 30.3184 14.1316 30.3737 13.7545H23.2525V14.0276V14.0282C23.4397 14.0397 23.6253 14.0514 23.8098 14.063L23.8105 14.063L23.8106 14.063L23.8106 14.063L23.8107 14.063L23.8107 14.063ZM1.58279 13.7617C1.60319 13.7987 1.62099 13.8288 1.63632 13.8548C1.66374 13.9012 1.68324 13.9342 1.69553 13.9696C1.80444 14.2843 2.02061 14.4167 2.35336 14.396C2.85436 14.3647 3.3556 14.3388 3.85677 14.313C4.11876 14.2995 4.38074 14.286 4.64265 14.2717C5.6989 14.2143 6.75461 14.1568 7.81032 14.0966C8.02123 14.0845 8.23165 14.0681 8.44207 14.0517C8.54725 14.0435 8.65243 14.0353 8.75767 14.0276V13.7611H1.58279V13.7617ZM16.8833 17.6918L17.3632 19.1092L17.117 18.8769C16.899 18.6712 16.6884 18.4725 16.4787 18.2724C16.1608 17.9686 15.8702 17.9588 15.5462 18.2548C15.3299 18.4522 15.1171 18.6536 14.9066 18.853C14.8194 18.9356 14.7325 19.0178 14.6459 19.0993C14.9732 18.1361 15.301 17.1712 15.6305 16.2009H16.3786L16.8833 17.6918ZM12.952 18.8831C13.0314 18.9044 13.1134 18.927 13.1974 18.9501L13.1975 18.9502C13.3811 19.0007 13.5739 19.0538 13.768 19.1015C14.109 19.1858 14.2973 19.0916 14.4177 18.7594C14.5985 18.2594 14.7723 17.7566 14.9461 17.2538L15.0766 16.8768C15.1273 16.7304 15.1759 16.583 15.2267 16.429C15.252 16.3521 15.2779 16.2736 15.3048 16.1927C15.2476 16.1927 15.1941 16.1934 15.1432 16.1941C15.0334 16.1955 14.9357 16.1968 14.8385 16.1905C14.7143 16.1823 14.6453 16.2266 14.5802 16.3361C14.3405 16.7389 14.0904 17.1362 13.8375 17.5308C13.6418 17.8355 13.4425 18.138 13.2413 18.4435C13.1455 18.589 13.0492 18.7352 12.9526 18.8826L12.952 18.8831ZM16.7135 16.1932C16.7159 16.2144 16.7171 16.2325 16.7182 16.2484C16.7201 16.2773 16.7216 16.299 16.7283 16.3191L16.8247 16.5997L16.8248 16.5999C16.9757 17.0395 17.1266 17.479 17.2827 17.9166C17.4015 18.2488 17.5268 18.5788 17.662 18.9039C17.7309 19.0687 17.8864 19.1715 18.0544 19.1387C18.304 19.0903 18.55 19.0218 18.7937 18.9539L18.7939 18.9538C18.8916 18.9266 18.9889 18.8995 19.086 18.8738C19.0485 18.8273 19.0109 18.7835 18.9743 18.7407L18.9743 18.7406L18.9742 18.7406C18.8992 18.6529 18.8281 18.5699 18.7697 18.4787C18.529 18.104 18.2905 17.7278 18.052 17.3516L18.0514 17.3506C17.8313 17.0035 17.6112 16.6564 17.3894 16.3103C17.3555 16.2578 17.2843 16.2036 17.2258 16.1982C17.1106 16.1873 16.9942 16.1891 16.8695 16.1911C16.8189 16.1919 16.7669 16.1927 16.713 16.1927L16.7135 16.1932ZM8.76205 14.31L5.74004 14.4965L2.60621 14.6898C2.70745 15.0981 2.9105 15.2579 3.32424 15.2213C3.74539 15.1838 4.16545 15.1366 4.58557 15.0893C4.76108 15.0696 4.9366 15.0498 5.11222 15.0308L5.12495 15.0294L5.12522 15.0294L5.12549 15.0294L5.12577 15.0293L5.12604 15.0293L5.12631 15.0293L5.12658 15.0292L5.12685 15.0292L5.12713 15.0292L5.1274 15.0292C6.08446 14.9257 7.04152 14.8223 7.99859 14.7183C8.18411 14.6984 8.36963 14.6775 8.55537 14.6567L8.76259 14.6335V14.3106L8.76205 14.31ZM23.2541 14.3166C25.3062 14.4435 27.3484 14.5694 29.4125 14.6964C29.1525 15.2689 29.0355 15.2583 28.4251 15.2034L28.3986 15.201C27.8297 15.1499 27.262 15.0834 26.6944 15.017L26.6944 15.017C26.4299 14.9861 26.1654 14.9551 25.9008 14.9257C25.2041 14.848 24.5074 14.7708 23.8101 14.6959C23.6812 14.6819 23.5521 14.6718 23.4199 14.6615C23.3652 14.6572 23.31 14.6529 23.2541 14.6482V14.3166ZM20.4757 18.3073L20.4757 18.3073L20.4757 18.3073C20.3641 18.2062 20.2582 18.1104 20.1592 18.008C20.033 17.8774 19.9057 17.7478 19.7783 17.6182L19.7782 17.6181L19.7782 17.618L19.7781 17.6179L19.778 17.6178L19.7779 17.6177L19.7778 17.6176L19.7777 17.6175L19.7776 17.6174L19.7774 17.6172C19.3987 17.2317 19.0199 16.8461 18.6712 16.4351C18.4551 16.1805 18.2177 16.188 17.9616 16.1961C17.8725 16.1989 17.7812 16.2018 17.6877 16.1938L17.7793 16.3394C17.8344 16.4273 17.8822 16.5034 17.9307 16.5791C18.0306 16.735 18.1303 16.8911 18.2301 17.0472L18.2302 17.0474L18.2302 17.0475L18.2303 17.0475L18.2303 17.0476L18.2304 17.0477L18.2305 17.0478L18.2305 17.0479L18.2306 17.048L18.2306 17.0481C18.5186 17.4989 18.8067 17.9498 19.0997 18.3971C19.2442 18.6182 19.4625 18.7463 19.728 18.6965C19.9419 18.6562 20.1521 18.5956 20.3646 18.5342C20.4554 18.508 20.5466 18.4817 20.6386 18.4568V18.4562C20.5831 18.4046 20.5288 18.3554 20.4757 18.3073L20.4757 18.3073ZM14.1504 16.1956H14.1504C14.04 16.198 13.9399 16.2001 13.8408 16.1905C13.6542 16.1719 13.5267 16.2376 13.3975 16.3749C12.9102 16.8917 12.4169 17.4028 11.9236 17.9139C11.7466 18.0973 11.5696 18.2808 11.3928 18.4645C11.4478 18.479 11.5061 18.4922 11.5662 18.5057C11.7052 18.5372 11.8537 18.5708 11.9921 18.6281C12.4672 18.8257 12.7764 18.6363 13.0571 18.1859C13.1771 17.9933 13.2986 17.8017 13.4201 17.61L13.4202 17.6099C13.4809 17.514 13.5417 17.4182 13.6022 17.3223C13.7162 17.1415 13.8304 16.9609 13.9469 16.7765L13.9476 16.7754L13.9486 16.7739L13.949 16.7732L13.9521 16.7683L13.955 16.7638L13.9565 16.7614C14.0729 16.5771 14.1918 16.389 14.3153 16.1932C14.2574 16.1932 14.2028 16.1944 14.1505 16.1956L14.1505 16.1956H14.1505H14.1505H14.1505H14.1504ZM9.79915 18.0305C9.88001 18.0517 9.96093 18.0707 10.0413 18.0896C10.2194 18.1315 10.395 18.1727 10.5621 18.2368C10.8193 18.3358 11.0283 18.2642 11.2341 18.1279C11.319 18.0721 11.3989 18.0058 11.4695 17.933C11.7827 17.6131 12.0939 17.2915 12.4052 16.9698C12.5252 16.8457 12.6453 16.7216 12.7654 16.5977C12.8565 16.5037 12.9478 16.4098 13.0534 16.3012L13.1584 16.1932C13.0836 16.1932 13.0126 16.1931 12.9444 16.1929C12.7502 16.1925 12.5789 16.1922 12.4075 16.1954C12.3632 16.1965 12.3128 16.214 12.2767 16.2403C11.56 16.7563 10.8446 17.274 10.1172 17.8003L10.1171 17.8004L10.1163 17.801L10.1154 17.8016L10.1151 17.8018L10.115 17.8019L10.1135 17.803L10.1125 17.8037L10.112 17.8041L10.1113 17.8046L9.79915 18.0305ZM22.1951 18.0283L21.5822 17.5846C21.0295 17.1843 20.4832 16.7888 19.9354 16.3946C19.9144 16.3795 19.8932 16.3633 19.8717 16.3468C19.7875 16.2823 19.6996 16.215 19.6076 16.2036C19.4391 16.1827 19.2674 16.187 19.0955 16.1913L19.0954 16.1913C19.0244 16.1931 18.9533 16.1949 18.8824 16.1949L18.8605 16.2294L18.8386 16.2638C18.867 16.2858 18.8963 16.307 18.9256 16.3281C18.9895 16.3743 19.0535 16.4205 19.1079 16.4756C19.3181 16.6889 19.5266 16.9036 19.7351 17.1183C20.0059 17.3972 20.2768 17.6761 20.5511 17.9517C20.7508 18.1525 20.984 18.3342 21.2872 18.2773C21.4978 18.238 21.7041 18.1753 21.9124 18.112L21.9124 18.112L21.9124 18.112L21.9125 18.112L21.9125 18.112L21.9125 18.1119L21.9125 18.1119L21.9125 18.1119L21.9125 18.1119L21.9126 18.1119L21.9126 18.1119C22.0061 18.0835 22.1001 18.0549 22.1951 18.0283ZM28.3061 15.5212C28.3066 15.5151 28.3073 15.5093 28.308 15.5034C28.3087 15.4975 28.3094 15.4916 28.3099 15.4856C26.6287 15.2957 24.9474 15.1058 23.2672 14.9164C23.2174 15.2732 23.2311 15.2847 23.5436 15.3329L23.8264 15.3764C24.5931 15.4941 25.3599 15.6118 26.1246 15.7439C26.6774 15.8391 27.2208 15.8676 27.761 15.6837C27.8806 15.6432 28.0023 15.6086 28.1239 15.5739C28.1847 15.5566 28.2455 15.5392 28.3061 15.5212ZM8.74508 14.9142L7.02519 15.1087L7.02133 15.1091C5.90779 15.235 4.79772 15.3604 3.68764 15.4861C3.80129 15.5517 3.91202 15.5866 4.02166 15.6212L4.02166 15.6212L4.04118 15.6273C4.4801 15.7658 4.92559 15.8791 5.38859 15.8107C6.17423 15.6943 6.95859 15.5697 7.74313 15.4451L7.74316 15.4451L7.74318 15.4451L7.74321 15.4451L7.74323 15.4451L7.74326 15.4451L7.74328 15.4451L7.74331 15.4451L7.74333 15.4451L7.74342 15.445L7.74359 15.445L7.74375 15.445L7.74392 15.445L7.74408 15.4449L7.74425 15.4449L7.74442 15.4449L7.74458 15.4449L7.74475 15.4448L7.74491 15.4448C7.98943 15.406 8.23396 15.3671 8.47855 15.3285C8.78777 15.2798 8.7916 15.2711 8.74508 14.9148V14.9142ZM20.2251 16.2439L20.2252 16.244C20.248 16.2641 20.262 16.2765 20.2774 16.2874C20.4235 16.3913 20.5695 16.4954 20.7155 16.5994C21.1907 16.9382 21.6658 17.2769 22.1448 17.6101C22.2542 17.6862 22.3856 17.7524 22.5147 17.7732C22.6307 17.7918 22.7955 17.7836 22.8726 17.7141C22.9967 17.6021 23.1004 17.4675 23.2056 17.3311L23.2057 17.3311L23.2057 17.3311L23.2057 17.331L23.2057 17.331C23.249 17.2749 23.2925 17.2184 23.3378 17.163C23.275 17.1441 23.2147 17.1279 23.1567 17.1123L23.1567 17.1123C23.0355 17.0797 22.9243 17.0499 22.8207 17.0032C22.7249 16.9603 22.6286 16.9183 22.5322 16.8762L22.5322 16.8762L22.5322 16.8762L22.5321 16.8762L22.5321 16.8762L22.532 16.8762L22.532 16.8761L22.5319 16.8761L22.5319 16.8761L22.5317 16.876L22.5317 16.876C22.1847 16.7246 21.8371 16.573 21.5159 16.3782C21.2067 16.1908 20.8911 16.1929 20.5525 16.1951C20.4255 16.196 20.2952 16.1969 20.1609 16.1878H20.1603C20.1886 16.2117 20.209 16.2297 20.2251 16.2439ZM8.66572 17.1564C8.69144 17.1907 8.71741 17.2245 8.74329 17.2581C8.80059 17.3327 8.85741 17.4066 8.90981 17.4832C9.15773 17.8444 9.31918 17.9177 9.72636 17.6671C10.1186 17.4255 10.4947 17.1576 10.8707 16.8896C11.0162 16.7859 11.1616 16.6823 11.308 16.5802C11.4191 16.5029 11.528 16.4225 11.6369 16.3422C11.6869 16.3054 11.7368 16.2686 11.7869 16.2321C11.5357 16.1932 11.3036 16.1828 11.0738 16.1976C10.9424 16.2058 10.8067 16.2376 10.6857 16.289C10.4562 16.3863 10.2336 16.4997 10.0108 16.6132L10.0108 16.6132C9.58067 16.8322 9.14971 17.0517 8.66627 17.157L8.66572 17.1564ZM8.76697 15.5595L7.48812 15.7736L5.62885 16.0849C5.71492 16.1114 5.79572 16.1377 5.87306 16.1628L5.87315 16.1628L5.87315 16.1628C6.04609 16.219 6.20176 16.2695 6.36057 16.3054L6.4194 16.3188C6.59756 16.3598 6.7866 16.4032 6.95656 16.3716C7.48116 16.2742 8.00012 16.1439 8.51823 16.0138L8.64055 15.9831C8.69309 15.9699 8.74289 15.8802 8.76205 15.8162C8.77608 15.7704 8.77342 15.7191 8.7702 15.6571V15.6571L8.7702 15.6571C8.76865 15.6272 8.76697 15.5949 8.76697 15.5595ZM26.3238 16.1144L26.3194 16.075C25.7729 15.9836 25.2263 15.8923 24.6795 15.801L24.679 15.801L24.6785 15.8009L24.678 15.8008L24.6753 15.8003L23.2661 15.5649C23.2136 15.9452 23.2141 15.9453 23.5304 16.0307L23.5403 16.0334C23.6476 16.0624 23.7539 16.0952 23.8602 16.1279L23.8602 16.1279C24.0265 16.1792 24.1927 16.2304 24.3624 16.2671C24.406 16.2766 24.45 16.2866 24.4943 16.2967C24.7381 16.3523 24.9885 16.4094 25.2271 16.3853C25.487 16.3589 25.7418 16.2833 25.9967 16.2076C26.1058 16.1753 26.2149 16.1429 26.3244 16.1144H26.3238ZM24.515 16.6858L24.5118 16.6207C23.6514 16.3224 22.7845 16.0646 21.8449 16.2447C21.96 16.2962 22.0747 16.3512 22.1896 16.4062C22.5516 16.5796 22.9154 16.7539 23.2984 16.8253C23.5639 16.8746 23.8494 16.8151 24.1349 16.7556L24.1349 16.7556L24.1349 16.7556L24.135 16.7556L24.135 16.7556L24.135 16.7556L24.135 16.7556L24.135 16.7556L24.135 16.7556L24.1351 16.7556C24.2622 16.7291 24.3892 16.7026 24.5145 16.6858H24.515ZM7.46717 16.6305C7.57292 16.6562 7.67772 16.6876 7.78211 16.719C8.14019 16.8264 8.49348 16.9324 8.86384 16.8002C9.16975 16.6909 9.46671 16.5565 9.76366 16.4222C9.89491 16.3629 10.0262 16.3035 10.1582 16.2463C9.35038 16.115 8.17317 16.2983 7.46717 16.6305ZM17.0458 15.4958L17.0457 15.4948C17.0707 15.4948 17.0927 15.4943 17.1129 15.4939C17.1488 15.4932 17.1789 15.4927 17.2089 15.4948L17.2173 15.4953C17.449 15.511 17.6682 15.5259 17.7239 15.2014C17.7316 15.1582 17.9571 15.1385 18.0824 15.1363C18.1322 15.1357 18.2187 15.2069 18.2274 15.2561C18.2696 15.4915 18.4053 15.5358 18.6313 15.4712L18.5379 15.2516L18.5379 15.2515C18.4042 14.9373 18.2711 14.6243 18.1344 14.3126C18.1156 14.2702 18.0845 14.2334 18.0533 14.1967L18.0533 14.1967C18.0391 14.1799 18.0248 14.163 18.0118 14.1457C17.9976 14.1621 17.9821 14.1778 17.9666 14.1935C17.9323 14.2283 17.898 14.263 17.8788 14.3044C17.7504 14.5824 17.6258 14.8618 17.4923 15.1614L17.4922 15.1616C17.4454 15.2666 17.3975 15.3741 17.3479 15.4849C17.3334 15.3691 17.3198 15.2581 17.3067 15.1505L17.3066 15.1504L17.3066 15.1499L17.3065 15.1492C17.2751 14.8928 17.2461 14.6558 17.2122 14.4193C17.2047 14.3646 17.1825 14.3118 17.1604 14.2591C17.1502 14.2349 17.14 14.2106 17.1312 14.1862C17.1125 14.2037 17.0921 14.2203 17.0718 14.2368C17.0274 14.273 16.9829 14.3091 16.9555 14.3553C16.8674 14.5039 16.7862 14.6566 16.7003 14.8183L16.7002 14.8185L16.7001 14.8186L16.7 14.8188C16.6654 14.8839 16.6301 14.9504 16.5932 15.0186C16.5802 14.9955 16.5689 14.9759 16.5589 14.9583L16.5589 14.9583C16.5406 14.9265 16.5264 14.9017 16.5133 14.8763C16.4839 14.8195 16.4548 14.7624 16.4258 14.7054L16.4248 14.7033L16.4246 14.703L16.4244 14.7026C16.3519 14.5602 16.2796 14.4181 16.2014 14.2792C16.1773 14.2366 16.1144 14.2065 16.0635 14.1922C16.0476 14.1878 15.9934 14.2524 15.9879 14.2902C15.9418 14.6168 15.9001 14.9439 15.8571 15.2818L15.8298 15.4958C15.925 15.4909 15.9885 15.4876 16.0487 15.4849L16.0889 15.1654L16.1319 14.8238C16.2377 14.9608 16.3121 15.1044 16.3856 15.2465C16.4012 15.2765 16.4166 15.3063 16.4323 15.336C16.4502 15.3702 16.4798 15.3977 16.5095 15.4253C16.5226 15.4375 16.5357 15.4497 16.5478 15.4625C16.5599 15.4482 16.573 15.4345 16.5861 15.4209L16.5861 15.4209C16.6137 15.392 16.6413 15.3633 16.6595 15.3295C16.7327 15.1927 16.8026 15.0539 16.8726 14.9149C16.8967 14.867 16.9209 14.8191 16.9451 14.7712L16.9654 14.7784L16.9856 14.7855C17.0059 15.0199 17.0255 15.2538 17.0457 15.4948L17.0453 15.4948L17.0458 15.4958ZM17.9609 14.5863L17.8914 14.7678L17.8334 14.9196H18.0911C18.0606 14.8419 18.033 14.7711 17.9996 14.6855L17.9609 14.5863ZM13.2349 14.1322C12.831 14.1328 12.5733 14.4009 12.5733 14.8196V14.8202C12.5727 15.2421 12.8447 15.5355 13.2371 15.5366C13.618 15.5371 13.9272 15.2208 13.9272 14.83C13.9267 14.4261 13.6344 14.1311 13.2349 14.1322ZM13.642 14.8658C13.6338 14.8353 13.6279 14.8031 13.6221 14.7712C13.609 14.6995 13.596 14.6285 13.5567 14.5783C13.4801 14.4798 13.3717 14.378 13.2574 14.3446C13.1047 14.3002 12.9865 14.4081 12.9208 14.5504C12.8272 14.7539 12.8261 14.9581 12.9432 15.154C13.0937 15.4052 13.3821 15.4079 13.5321 15.154C13.5668 15.0951 13.5883 15.0285 13.6104 14.9596C13.6204 14.9286 13.6305 14.8972 13.642 14.8658ZM21.2876 14.139C21.3231 14.16 21.3566 14.1774 21.3876 14.1936C21.4488 14.2255 21.5005 14.2525 21.5394 14.2917C21.689 14.4429 21.8334 14.5991 21.9905 14.769C22.0519 14.8353 22.1151 14.9037 22.1813 14.9747V14.1943H22.4057V15.5308C22.373 15.5102 22.3424 15.4934 22.3144 15.478L22.3144 15.478C22.261 15.4486 22.2167 15.4242 22.1841 15.389C22.0288 15.2226 21.8779 15.0521 21.7127 14.8654C21.6514 14.7961 21.5881 14.7246 21.5219 14.6502V15.4837H21.2876V14.139ZM14.067 15.4846C14.1414 15.4884 14.2065 15.4917 14.3045 15.4961V15.4955V14.6516C14.3655 14.7202 14.424 14.7866 14.481 14.851L14.481 14.8511C14.6484 15.0406 14.8017 15.2141 14.9601 15.3828C14.9946 15.4198 15.0422 15.4445 15.0985 15.4737C15.1272 15.4886 15.158 15.5046 15.1905 15.524V14.1952H14.9727V14.9893C14.9022 14.9125 14.8347 14.8381 14.769 14.7657L14.7689 14.7655L14.7688 14.7654C14.616 14.5969 14.4729 14.4391 14.3236 14.2871C14.2841 14.2468 14.2288 14.222 14.1656 14.1936C14.1344 14.1795 14.1012 14.1646 14.067 14.1465V15.4846ZM19.7602 15.4592C19.4576 15.5465 19.3355 15.3802 19.209 15.2081C19.1405 15.1147 19.0706 15.0196 18.9699 14.9622V15.4882H18.699V14.1484C18.7585 14.1518 18.8188 14.1526 18.879 14.1533C19.0219 14.155 19.1647 14.1567 19.2972 14.1944C19.4012 14.224 19.5101 14.3624 19.5462 14.4746C19.6092 14.6684 19.4953 14.8128 19.3 14.9064L19.4124 15.0416L19.7597 15.4592H19.7602ZM18.971 14.3613V14.7526C19.1505 14.7937 19.2874 14.7297 19.2945 14.5655C19.3021 14.3925 19.1631 14.3296 18.971 14.3613ZM10.3644 15.431C10.382 15.5317 10.5856 15.5229 10.6961 15.4266L10.6964 15.426L10.702 15.4327L10.702 15.4333V15.4327L10.702 15.4327L10.702 15.4324L10.7021 15.4326L10.702 15.4324L10.7018 15.4283C10.9166 15.5288 11.1342 15.5782 11.356 15.4475C11.4918 15.3676 11.5903 15.2614 11.5892 15.0907C11.5881 14.9221 11.5082 14.8077 11.3511 14.747C11.3294 14.7385 11.307 14.7313 11.2846 14.724C11.2356 14.708 11.1866 14.6921 11.1453 14.6643C11.0819 14.6211 11.0222 14.5614 10.9855 14.4952C10.9729 14.4728 11.0282 14.3759 11.0622 14.3704C11.1437 14.3568 11.2335 14.3666 11.3145 14.388C11.3468 14.3961 11.3745 14.4227 11.406 14.4528C11.4209 14.467 11.4366 14.4821 11.454 14.4963C11.5164 14.2095 11.4874 14.1603 11.251 14.1477L11.2418 14.1472C11.1502 14.1423 11.036 14.1362 10.9757 14.1844C10.8662 14.2714 10.7338 14.3951 10.7196 14.516C10.7075 14.6211 10.8307 14.7574 10.922 14.8531C10.9537 14.8866 11.003 14.9024 11.053 14.9184C11.097 14.9326 11.1415 14.9469 11.1749 14.9735C11.2184 15.0084 11.2463 15.0623 11.2741 15.1164C11.2866 15.1405 11.299 15.1646 11.3128 15.187C11.2857 15.1992 11.2587 15.2135 11.2318 15.2277C11.168 15.2615 11.1042 15.2952 11.0381 15.3014C11.0015 15.3047 10.9615 15.2669 10.921 15.2287C10.9015 15.2103 10.8818 15.1918 10.8624 15.1777C10.8343 15.1575 10.8056 15.1383 10.768 15.1133L10.7679 15.1132C10.7434 15.0968 10.7151 15.0779 10.6807 15.0545L10.7018 15.4283L10.6986 15.4268C10.6933 15.4181 10.6878 15.4095 10.6823 15.4009L10.6823 15.4009C10.6676 15.378 10.6528 15.355 10.6419 15.3303C10.5858 15.2034 10.5301 15.0764 10.4744 14.9494L10.4743 14.9493L10.4743 14.9493L10.4743 14.9492L10.4743 14.9492C10.3723 14.7169 10.2703 14.4846 10.1663 14.2532C10.1537 14.225 10.1285 14.2023 10.1031 14.1795C10.0911 14.1687 10.0791 14.1579 10.0684 14.1465C10.0574 14.1577 10.0454 14.1682 10.0335 14.1787C10.0081 14.2012 9.98278 14.2236 9.96712 14.2516C9.92476 14.3259 9.89039 14.4043 9.85601 14.4826L9.84453 14.5088C9.74122 14.7423 9.63876 14.9762 9.53655 15.2094L9.41929 15.4769C9.65998 15.5515 9.69884 15.4236 9.73795 15.295C9.75513 15.2384 9.77236 15.1817 9.80677 15.142L9.81921 15.1403C10.0619 15.1079 10.3026 15.0758 10.3644 15.431ZM10.6972 15.4261L10.6965 15.4258L10.6966 15.4255L10.6972 15.4261ZM9.98332 14.7208L10.0366 14.6067L10.0899 14.7457L10.0903 14.7466L10.157 14.9209H9.88995L9.98332 14.7208ZM19.6093 14.3909H20.0066V15.4871H20.2748V14.3953H20.6475V14.1982H19.589C19.5967 14.2721 19.6027 14.3301 19.6093 14.3909ZM12.5761 14.1975V14.3868H12.2122V15.4704C12.0228 15.5004 11.928 15.429 11.9276 15.2565V14.4038H11.5642V14.1975H12.5761ZM21.018 14.1895H20.7635V15.4816H21.018V14.1895Z" fill="#151515"/>
</svg>
