<svg width="32" height="32" viewBox="0 0 32 32" fill="none" xmlns="http://www.w3.org/2000/svg">
<path d="M25.7617 10.8C25.4167 10.8 25.0718 10.8 24.7268 10.8C24.7071 10.8103 24.6881 10.8276 24.6675 10.83C23.7872 10.9312 22.9863 11.2434 22.2575 11.7584C22.2086 11.793 22.0874 11.7735 22.0295 11.7339C21.5148 11.3817 20.9621 11.1172 20.3616 10.963C20.1094 10.8983 19.8523 10.8538 19.5975 10.8C19.2525 10.8 18.9076 10.8 18.5626 10.8C18.5429 10.8103 18.5239 10.8276 18.5033 10.83C17.6226 10.9304 16.824 11.2491 16.0931 11.7586C16.0433 11.7933 15.9222 11.7747 15.8643 11.735C15.3946 11.4126 14.8928 11.1604 14.3483 11.0061C14.0478 10.921 13.7386 10.8677 13.4333 10.8C13.0883 10.8 12.7434 10.8 12.3985 10.8C12.3789 10.8106 12.3601 10.8283 12.3397 10.8307C11.4595 10.9325 10.6602 11.2498 9.92845 11.7578C9.87843 11.7925 9.7577 11.775 9.70011 11.7356C9.23004 11.4138 8.72852 11.1608 8.18397 11.0066C7.88343 10.9215 7.57438 10.8679 7.26916 10.8001C6.92419 10.8001 6.57927 10.8001 6.23431 10.8001C6.18483 10.815 6.13625 10.8373 6.08578 10.8437C4.03639 11.1005 2.32571 12.6068 1.7798 14.6444C1.70531 14.9225 1.65921 15.2085 1.59999 15.4909C1.59999 15.8435 1.59999 16.196 1.59999 16.5486C1.61423 16.5824 1.63699 16.6151 1.64154 16.6501C2.13797 20.4924 6.44115 22.4791 9.6385 20.2923C9.79055 20.1883 9.88014 20.1918 10.0264 20.292C11.8046 21.5105 14.0891 21.502 15.8375 20.2694C15.9707 20.1755 16.0492 20.1957 16.1692 20.2778C17.9694 21.5098 20.215 21.5074 22.0012 20.2711C22.1159 20.1917 22.1918 20.1774 22.3142 20.2621C23.4065 21.0184 24.6076 21.3067 25.9212 21.1514C28.2812 20.8723 30.2221 18.8093 30.3876 16.3828C30.549 14.0164 29.1203 11.8272 26.9134 11.0835C26.5396 10.9575 26.1461 10.893 25.7617 10.8ZM22.9928 19.3821C23.8002 18.4067 24.229 17.2835 24.2299 16C24.2307 14.7104 23.7971 13.5822 22.9863 12.6031C24.4708 11.5324 26.875 11.5998 28.3543 13.3432C29.7353 14.9709 29.6361 17.3766 28.1287 18.8962C26.5757 20.4618 24.2861 20.3615 22.9928 19.3821ZM9.0035 19.394C7.54856 20.4536 5.11761 20.4152 3.62685 18.633C2.22936 16.9624 2.37149 14.5312 3.9509 13.0175C5.5286 11.5055 7.79335 11.6752 8.99314 12.6116C7.34433 14.5179 7.32328 17.4146 9.0035 19.394ZM16.8487 19.4046C18.5213 17.1143 18.5002 14.8514 16.8419 12.5865C18.1809 11.605 20.1919 11.7222 21.3278 12.6096C19.756 14.4489 19.6149 17.3581 21.3245 19.3896C20.1146 20.3079 18.1356 20.3563 16.8487 19.4046ZM15.1689 12.606C13.649 14.3286 13.3572 17.2646 15.1571 19.3911C13.8534 20.3888 11.7544 20.2805 10.6715 19.374C12.2411 17.568 12.4206 14.6846 10.668 12.6046C11.8274 11.6928 13.8531 11.6317 15.1689 12.606ZM22.1682 13.3407C23.6467 15.0129 23.3226 17.4887 22.1483 18.6416C20.7383 17.0619 20.9382 14.6773 22.1682 13.3407ZM9.83647 13.3411C11.2652 14.9578 11.0457 17.383 9.82538 18.6434C8.49955 17.1892 8.51586 14.7819 9.83647 13.3411ZM15.9907 13.3427C17.4047 14.8651 17.2448 17.3813 15.984 18.643C14.6824 17.2438 14.68 14.7913 15.9907 13.3427Z" fill="#151515"/>
</svg>
