<svg width="32" height="32" viewBox="0 0 32 32" fill="none" xmlns="http://www.w3.org/2000/svg">
<path fill-rule="evenodd" clip-rule="evenodd" d="M15.8591 25.5979C15.9118 25.597 15.9645 25.596 16.0171 25.596L16.0153 25.5966L16.0154 25.5979C16.0151 25.5948 16.0154 25.5979 16.0154 25.5979C16.0933 25.5979 16.1684 25.5973 16.2425 25.5966C16.3463 25.5957 16.4487 25.5948 16.5535 25.5958L16.5548 25.5957C16.9546 25.5707 17.3544 25.5458 17.7512 25.495C18.354 25.4184 18.9556 25.3125 19.5488 25.1791C20.4596 24.9741 21.3363 24.6519 22.1806 24.2419C23.2262 23.7334 24.1957 23.1047 25.0598 22.3015C25.5242 21.8696 25.9568 21.4091 26.3361 20.8988C26.816 20.2526 27.2037 19.5478 27.4944 18.787C27.7784 18.0442 27.9509 17.2721 27.9911 16.4783C28.0151 16.0041 27.9893 15.5218 27.93 15.0507C27.8707 14.5771 27.764 14.106 27.6388 13.6449C27.4878 13.0909 27.2565 12.5656 26.9605 12.0777C26.7112 11.6671 26.4571 11.2545 26.1605 10.8813C25.8537 10.4949 25.5098 10.1366 25.152 9.80014C24.7859 9.45617 24.3928 9.13962 23.9938 8.83615C23.4455 8.41927 22.8517 8.07842 22.2321 7.78991C21.8696 7.62104 21.5041 7.45715 21.1313 7.31383C20.1678 6.94245 19.1767 6.67824 18.1551 6.55236C18.055 6.54007 17.9548 6.52707 17.8546 6.51407C17.457 6.46247 17.0587 6.41077 16.66 6.40281C15.9937 6.38973 15.3256 6.42275 14.6593 6.46263C14.3142 6.48371 13.9704 6.53599 13.6271 6.58817C13.5646 6.59769 13.5018 6.60723 13.4393 6.61655C12.7838 6.71438 12.1438 6.88387 11.511 7.08577C10.5295 7.39858 9.59776 7.82543 8.71273 8.36257C7.94214 8.83054 7.22489 9.38015 6.58973 10.0313C6.21942 10.4114 5.88206 10.8314 5.56029 11.2583C5.10609 11.8608 4.76993 12.5369 4.49549 13.2461C4.19888 14.0119 4.0335 14.8133 4.00474 15.6339C3.98616 16.1692 4.02332 16.7132 4.09642 17.2447C4.19469 17.9576 4.4146 18.6418 4.7154 19.2923C5.03658 19.9865 5.41887 20.6446 5.92521 21.2104C5.9542 21.2427 5.98319 21.2751 6.0122 21.3075C6.4016 21.7427 6.79386 22.1811 7.23328 22.5557C7.69127 22.9455 8.19629 23.2781 8.69863 23.6088C8.74311 23.6381 8.78757 23.6674 8.83197 23.6967C9.48571 24.1279 10.1976 24.4401 10.9256 24.7111C11.9269 25.0831 12.9521 25.3561 14.0121 25.4682C14.4942 25.5193 14.9773 25.5548 15.4605 25.5902L15.5138 25.5941C15.6285 25.6022 15.7438 25.6001 15.8591 25.5979ZM11.0897 8.5744C14.3806 7.25273 17.6691 7.25647 21.0043 8.55757H21.0031C20.9207 8.61458 20.8413 8.66937 20.7641 8.72264C20.5797 8.8499 20.4077 8.96857 20.2367 9.08849C20.0745 9.20221 19.9112 9.31445 19.748 9.42668C19.3629 9.69138 18.9775 9.95627 18.6068 10.2407C17.8566 10.8171 17.3389 11.576 17.1094 12.5238C16.9758 13.0759 16.9656 13.6417 17.0381 14.2057C17.0501 14.2989 17.0619 14.3922 17.0738 14.4855C17.1456 15.0501 17.2175 15.6154 17.3167 16.1748C17.4493 16.9242 17.5981 17.6704 17.7469 18.4164L17.7476 18.4199C17.7943 18.654 17.841 18.8881 17.8872 19.1222C18.0046 19.7173 18.194 20.2868 18.4654 20.8271C18.8208 21.5331 19.3163 22.1151 19.9317 22.5812C20.1661 22.7585 20.4116 22.9198 20.6571 23.0811C20.7775 23.1602 20.8978 23.2393 21.0169 23.3203C21.0294 23.3285 21.0392 23.3406 21.0536 23.3581C21.0552 23.36 21.0569 23.362 21.0586 23.3641C21.0604 23.3663 21.0622 23.3685 21.0642 23.3708C21.0678 23.3751 21.0716 23.3797 21.0758 23.3846C21.0786 23.3877 21.0815 23.391 21.0846 23.3944C17.6978 24.7722 14.3381 24.7634 10.9381 23.3907C11.0527 23.313 11.1636 23.2384 11.2717 23.1657C11.5017 23.0111 11.7192 22.8648 11.934 22.7139C12.8215 22.0902 13.4506 21.2552 13.8383 20.2164C14.0842 19.5562 14.2164 18.8681 14.3488 18.1791L14.3542 18.1507C14.3813 18.0099 14.4088 17.8691 14.4363 17.7283C14.4979 17.4131 14.5596 17.0979 14.6155 16.7817C14.6851 16.3908 14.7472 15.9984 14.8094 15.6059C14.82 15.5386 14.8307 15.4713 14.8414 15.404C14.8572 15.3042 14.8736 15.2045 14.8901 15.1048C14.9385 14.8111 14.987 14.517 15.0188 14.2212C15.0757 13.6953 15.0601 13.1694 14.9553 12.6485C14.8342 12.0453 14.5789 11.5075 14.217 11.0239C13.969 10.6924 13.6717 10.4108 13.3386 10.1727C12.8342 9.81194 12.3264 9.45559 11.8188 9.09928L11.632 8.96822C11.5936 8.94137 11.5549 8.9148 11.5161 8.88817C11.3733 8.78999 11.2293 8.69107 11.0897 8.5744ZM23.7834 20.151C24.1621 20.1697 24.6361 20.0451 25.0885 19.8407L25.1037 19.8339L25.1349 19.82C25.3094 19.7422 25.5097 19.6531 25.5954 19.5067C25.8291 19.1079 26.0179 18.6761 26.185 18.2411C26.4097 17.6566 26.5146 17.0428 26.5649 16.4122C26.6015 15.9523 26.5679 15.5018 26.5152 15.0532C26.4727 14.6917 26.3888 14.3285 26.2725 13.9845C26.1299 13.562 25.9759 13.1327 25.7524 12.7538C25.4043 12.1624 24.9027 11.7225 24.2885 11.4296C23.7912 11.1922 23.2699 11.143 22.7474 11.2639C22.3429 11.358 21.9432 11.4976 21.5591 11.6614C21.0492 11.8795 20.5489 12.1257 20.0581 12.3874C19.4505 12.7114 19.1335 13.5483 19.3133 14.2175C19.4985 14.9073 19.7004 15.5934 19.9203 16.272C19.9674 16.4173 20.0122 16.5634 20.0571 16.7097C20.2341 17.286 20.4113 17.8629 20.7215 18.3863C20.9767 18.8163 21.2727 19.2101 21.6658 19.5073C22.2578 19.9554 22.9331 20.1485 23.7834 20.151ZM8.46442 20.1084C8.57868 20.1029 8.69288 20.0973 8.80203 20.0696C8.87127 20.0519 8.94097 20.0349 9.01078 20.0179C9.30463 19.9463 9.60024 19.8742 9.87042 19.7468C10.3857 19.5038 10.7716 19.0844 11.1 18.6046C11.4607 18.0781 11.6651 17.4817 11.858 16.8785C12.0461 16.2903 12.2289 15.7008 12.4057 15.1088C12.4322 15.0198 12.4607 14.9308 12.4892 14.8417C12.5791 14.561 12.6692 14.2791 12.7011 13.9915C12.776 13.3161 12.5369 12.7465 11.9689 12.377C11.6949 12.199 11.3924 12.0642 11.0937 11.9311L10.9901 11.885C10.5471 11.6874 10.1028 11.4892 9.64691 11.3277C9.08665 11.1289 8.51141 11.0983 7.93677 11.2915C7.23689 11.5271 6.72397 12.02 6.30812 12.6188C6.12379 12.884 5.99709 13.1963 5.87313 13.5019C5.86572 13.5202 5.85832 13.5384 5.85092 13.5566C5.64479 14.0632 5.51356 14.596 5.45784 15.1425C5.42129 15.5033 5.41649 15.8697 5.42668 16.2323C5.43627 16.5645 5.45784 16.9016 5.52255 17.2262C5.66337 17.9335 5.90305 18.6065 6.2428 19.2396C6.33448 19.4103 6.44893 19.5524 6.61611 19.6509C7.14042 19.9599 7.70248 20.112 8.30648 20.1188L8.30708 20.1182C8.3592 20.1135 8.41184 20.1109 8.46442 20.1084Z" fill="#151515"/>
</svg>
