<svg width="32" height="32" viewBox="0 0 32 32" fill="none" xmlns="http://www.w3.org/2000/svg">
<path d="M16.0391 10.4799C18.6689 10.5394 21.2998 10.5681 23.9285 10.6706C25.5769 10.7351 27.2226 10.895 28.8673 11.0422C29.8664 11.1321 30.4067 11.7192 30.3917 12.7827C30.3757 13.9256 30.3137 15.0757 30.1629 16.2059C30.028 17.2164 29.5616 18.0897 28.6907 18.6118C28.2666 18.866 27.8012 19.0501 27.3404 19.2249C25.6094 19.8826 23.8118 20.2586 22.0142 20.6302C20.0807 21.0299 18.1369 21.3805 16.1698 21.5018C15.4658 21.5454 14.7477 21.4114 14.0411 21.3171C11.3602 20.9593 8.70505 20.4433 6.09436 19.6957C5.30816 19.4708 4.54314 19.1554 3.7776 18.8544C2.68146 18.4233 2.0962 17.5059 1.86324 16.3431C1.61839 15.1209 1.55795 13.8705 1.61167 12.6212C1.64783 11.7733 2.08794 11.2374 2.87827 11.0896C3.39328 10.9932 3.91965 10.9628 4.44189 10.9182C8.3011 10.5874 12.1675 10.4766 16.0391 10.4782L16.0391 10.4799ZM9.03564 14.0116C9.22522 14.0116 9.36831 14.0116 9.51139 14.0116C11.2481 14.0122 12.9847 14.0116 14.7214 14.0155C14.8846 14.0155 15.0716 14.0155 15.1073 14.2454C15.1429 14.4747 15.069 14.6771 14.8516 14.7564C14.6925 14.8149 14.5179 14.848 14.35 14.8485C13.2409 14.8529 12.1319 14.8502 11.0228 14.838C10.8229 14.8358 10.7362 14.9059 10.6871 15.1137C10.5089 15.8696 10.3115 16.6199 10.124 17.373C10.0698 17.5908 10.0228 17.8102 9.97217 18.028C10.0238 18.0495 10.0476 18.0677 10.0708 18.0682C11.6701 18.0693 13.2688 18.082 14.8676 18.0621C15.4482 18.055 15.8098 17.7159 15.9632 17.1199C16.0428 16.8112 16.0944 16.4942 16.1507 16.1794C16.207 15.8662 16.2695 15.5459 15.9007 15.418C16.0143 15.2438 16.1533 15.1109 16.1972 14.9489C16.332 14.4472 16.4426 13.9372 16.5386 13.4256C16.6017 13.0893 16.4415 12.8544 16.127 12.7761C16.0112 12.7474 15.8883 12.7436 15.769 12.743C14.9265 12.7403 14.084 12.7408 13.2415 12.7408C12.0291 12.7408 10.8173 12.7381 9.60489 12.7458C9.50881 12.7463 9.34868 12.7949 9.32853 12.8599C9.21644 13.221 9.13741 13.5943 9.03564 14.0116ZM21.0193 15.976C21.0105 16.5262 20.7517 16.8173 20.2806 16.8206C19.5156 16.8261 18.7506 16.8255 17.9855 16.8228C17.5253 16.8211 17.3874 16.6304 17.4984 16.1441C17.6064 15.6722 17.7257 15.203 17.8419 14.7333C17.9917 14.1263 18.1312 14.0116 18.7252 14.0111C19.9717 14.0111 21.2176 14.0133 22.4641 14.01C22.5519 14.01 22.7058 13.9868 22.7172 13.9421C22.7864 13.667 22.8897 13.3721 22.8531 13.1036C22.8128 12.807 22.5214 12.7309 22.2595 12.7309C20.8674 12.7281 19.4748 12.7232 18.0826 12.7386C17.3812 12.7463 17.0738 13.0165 16.8811 13.7387C16.7778 14.1263 16.7117 14.5254 16.595 14.9081C16.5159 15.1672 16.3852 15.4015 16.582 15.6639C16.6182 15.7124 16.6218 15.8106 16.6074 15.8767C16.4798 16.4462 16.3749 17.0246 16.1972 17.5764C16.1161 17.8278 16.1884 17.9183 16.3558 17.9998C16.4457 18.044 16.5562 18.0555 16.6575 18.0555C18.0754 18.0605 19.4939 18.066 20.9118 18.0599C21.4175 18.0577 21.7755 17.7738 21.9475 17.2644C22.0173 17.0582 22.0679 16.8437 22.117 16.6304C22.2476 16.0631 22.3727 15.4947 22.4992 14.9301C22.4496 14.9025 22.4279 14.8799 22.4057 14.8799C21.727 14.8783 21.0482 14.8766 20.3694 14.8827C20.3204 14.8827 20.2398 14.9268 20.2279 14.9682C20.1375 15.2863 20.0605 15.6093 19.9676 15.976H21.0193Z" fill="#151515"/>
<path d="M11.5079 16.7505C11.5709 16.519 11.6086 16.3117 11.6876 16.1232C11.7176 16.0521 11.8411 15.9865 11.9232 15.9854C12.7807 15.9721 13.6387 15.9727 14.4967 15.9694C14.6661 15.9688 14.8495 15.9782 14.8908 16.1905C14.9342 16.4154 14.8366 16.6111 14.646 16.7181C14.5447 16.7749 14.4156 16.7975 14.2988 16.7975C13.4238 16.7975 12.5487 16.7892 11.6742 16.782C11.6334 16.782 11.5921 16.7671 11.5084 16.7517L11.5079 16.7505Z" fill="#151515"/>
</svg>
