<svg width="32" height="32" viewBox="0 0 32 32" fill="none" xmlns="http://www.w3.org/2000/svg">
<path d="M1.42819 11.6778C2.41869 11.8429 3.41521 11.7826 4.41031 11.7801C5.27842 11.778 6.14688 11.7527 7.01533 11.7534C7.87778 11.7534 8.74058 11.7891 9.60302 11.7809C10.2327 11.7741 10.8624 11.6935 11.4921 11.6949C11.964 11.6949 12.4352 11.7787 12.9071 11.8176C13.0026 11.8295 13.0997 11.8183 13.1901 11.7848C14.0603 11.3924 15.004 11.193 15.9573 11.2001C16.9106 11.2073 17.8513 11.4208 18.7157 11.8262C18.7925 11.8587 18.8774 11.8669 18.959 11.8497C19.6221 11.7057 20.302 11.6566 20.9786 11.7038C22.0987 11.7818 23.222 11.8028 24.3442 11.7669C25.3736 11.7313 26.4051 11.7734 27.436 11.7755C28.396 11.7776 29.3579 11.8426 30.3148 11.6977C30.4523 11.6775 30.5911 11.6673 30.7301 11.6674C30.9399 11.6674 31.1143 11.8101 31.1783 12.0177C31.2353 12.2043 31.1818 12.3455 30.9975 12.4861C30.9487 12.5274 30.8956 12.5633 30.8391 12.5931C30.6307 12.6901 30.5076 12.8185 30.4595 13.0757C30.4008 13.3871 30.1142 13.5441 29.8376 13.6636C29.7274 13.7098 29.6376 13.7949 29.585 13.9029C29.406 14.2275 29.1156 14.4287 28.7731 14.5511C28.7243 14.5649 28.6794 14.5905 28.6425 14.6256C28.6055 14.6607 28.5775 14.7043 28.5609 14.7526C28.5184 14.8596 28.4229 14.9542 28.3285 15.0241C28.0809 15.2071 27.794 15.3009 27.4912 15.3387C27.3801 15.3526 27.3143 15.3922 27.2789 15.5049C27.2514 15.5951 27.2011 15.6765 27.1328 15.741C27.0646 15.8055 26.9808 15.8509 26.8898 15.8727C26.628 15.9408 26.3592 15.9844 26.0921 16.0261C25.9912 16.0421 25.9279 16.0703 25.8823 16.1713C25.7762 16.4024 25.5639 16.4962 25.3357 16.5241C25.1124 16.5457 24.8877 16.5501 24.6636 16.5373C24.5196 16.5326 24.4086 16.5262 24.3212 16.6885C24.1999 16.914 23.9561 16.9503 23.728 16.9425C23.5097 16.935 23.2925 16.8876 23.0767 16.8494C22.9791 16.8323 22.9072 16.8251 22.8439 16.9304C22.7396 17.1041 22.5652 17.1444 22.3741 17.1276C22.3165 17.1223 22.251 17.1298 22.2033 17.1044C21.8945 16.9404 21.6373 17.1073 21.3766 17.2321C21.3287 17.263 21.2926 17.3093 21.274 17.3634C20.7886 18.5791 19.9117 19.4124 18.7705 19.9945C18.6099 20.0766 18.4648 20.1939 18.3244 20.3091C18.1971 20.4137 18.0609 20.4615 17.9059 20.4162C17.7973 20.3848 17.7259 20.399 17.6487 20.4896C17.5228 20.6373 17.3526 20.6701 17.1744 20.6006C17.0704 20.5599 16.9957 20.5628 16.9098 20.6455C16.7576 20.7918 16.5836 20.8082 16.4 20.6976C16.314 20.6459 16.2585 20.633 16.1708 20.703C16.0133 20.8303 15.8336 20.8299 15.6706 20.7154C15.5772 20.6498 15.5128 20.6345 15.4102 20.7019C15.2425 20.8125 15.0515 20.7871 14.8994 20.643C14.8247 20.5717 14.7625 20.5574 14.668 20.5952C14.4699 20.6751 14.2991 20.6291 14.1459 20.4743C14.1197 20.4515 14.0891 20.4345 14.056 20.4244C14.0229 20.4142 13.9881 20.4112 13.9538 20.4154C13.7302 20.459 13.5597 20.4037 13.4232 20.2132C13.3765 20.1483 13.288 20.1083 13.2109 20.0723C12.1143 19.5526 11.2356 18.7992 10.6873 17.6898C10.6331 17.5803 10.5879 17.4658 10.5436 17.3516C10.4396 17.0813 10.273 16.9949 9.98967 17.0595C9.84393 17.0923 9.6904 17.1348 9.54642 17.1191C9.42013 17.1052 9.27014 17.0442 9.18878 16.9521C9.08725 16.838 9.00023 16.8451 8.87288 16.8587C8.59377 16.8904 8.31042 16.9232 8.03237 16.9043C7.90891 16.8958 7.75149 16.7895 7.68499 16.6807C7.59407 16.5312 7.49254 16.5308 7.35387 16.5355C7.12989 16.5489 6.90522 16.5455 6.68175 16.5251C6.43412 16.4952 6.21656 16.3907 6.10195 16.1352C6.08002 16.0867 6.00113 16.0468 5.94241 16.0354C5.71035 15.9901 5.47192 15.9726 5.24269 15.9166C4.99188 15.8552 4.78776 15.7243 4.69579 15.4529C4.67775 15.3997 4.57516 15.3672 4.50582 15.3416C4.25183 15.2477 3.98935 15.175 3.74208 15.0665C3.66074 15.0334 3.58823 14.9816 3.53036 14.9151C3.47249 14.8486 3.43087 14.7694 3.40884 14.6838C3.39717 14.6396 3.33809 14.5943 3.29034 14.5768C2.88671 14.4227 2.53755 14.2104 2.35891 13.7884C2.34051 13.7449 2.27012 13.7239 2.22413 13.6921C2.03452 13.5619 1.83253 13.4471 1.66096 13.2955C1.57452 13.21 1.52131 13.0961 1.51097 12.9744C1.5 12.82 1.42784 12.7461 1.30862 12.6812C1.19562 12.622 1.0877 12.5534 0.986001 12.4761C0.805942 12.333 0.764199 12.1854 0.828228 11.9992C0.859308 11.9012 0.92078 11.8159 1.00358 11.7559C1.08638 11.6958 1.18612 11.6642 1.2881 11.6656C1.33586 11.6664 1.38185 11.6738 1.42819 11.6778ZM15.8825 17.9887C15.9985 17.9887 16.1149 17.9973 16.2298 17.9887C16.6604 17.9509 17.0788 17.8692 17.4464 17.6185C17.8957 17.3117 18.0899 16.5958 17.5599 16.127C17.4489 16.0286 17.3123 15.9583 17.1825 15.8834C17.0382 15.8003 17.0339 15.7532 17.1528 15.6391C17.2819 15.5153 17.4188 15.3926 17.5193 15.2467C17.7386 14.9285 17.6961 14.5736 17.4414 14.2818C17.2136 14.0178 16.9207 13.8751 16.5924 13.8002C16.0762 13.6804 15.5393 13.6853 15.0253 13.8145C14.7278 13.8897 14.4505 14.0495 14.1671 14.1776C14.0805 14.2168 14.061 14.2736 14.1247 14.372C14.1875 14.4676 14.2235 14.5785 14.229 14.6931C14.2379 15.4579 14.2361 16.2234 14.229 16.9881C14.229 17.0898 14.2131 17.2093 14.1583 17.2881C14.0394 17.459 14.1197 17.5293 14.2609 17.6092C14.7674 17.8906 15.3097 18.0044 15.8825 17.9887ZM19.3627 14.2964L19.4143 14.2764C19.3177 14.0749 19.2509 13.8484 19.1168 13.6782C18.9516 13.4642 18.7376 13.289 18.5317 13.1125C18.2239 12.8478 18.1588 12.6566 18.3223 12.3038C18.3902 12.1572 18.3594 12.1062 18.219 12.0512C16.9122 11.5408 15.5825 11.4805 14.2319 11.8372C14.0055 11.8968 13.7861 11.9849 13.5488 12.0648C13.5909 12.1361 13.6146 12.1743 13.6368 12.2139C13.8445 12.5778 13.8102 12.8003 13.4971 13.0782C13.402 13.1631 13.2965 13.2362 13.1993 13.319C12.987 13.4995 12.8055 13.7046 12.7263 13.9878C13.7115 13.1581 14.8534 12.8271 16.112 12.8763C17.3707 12.9255 18.4871 13.345 19.3627 14.2964ZM4.69968 12.7811L4.70428 12.694C5.56672 12.694 6.42917 12.6965 7.29161 12.694C7.56895 12.694 7.847 12.6787 8.12399 12.6619C8.1721 12.6591 8.21773 12.6145 8.26549 12.5906C8.23012 12.5492 8.20465 12.4893 8.15937 12.4704C8.07354 12.4355 7.98348 12.4123 7.89158 12.4015C7.15153 12.3031 6.41219 12.1989 5.67108 12.1162C4.31055 11.9556 2.94224 12.0102 1.57783 11.9817C1.48868 11.9799 1.39848 12.053 1.30862 12.0887C1.36664 12.1818 1.40343 12.3159 1.4855 12.3602C1.65636 12.4504 1.84915 12.5292 2.03912 12.5485C2.92562 12.6391 3.81318 12.7062 4.69968 12.7811ZM27.2934 12.6937C27.2934 12.7151 27.2934 12.7365 27.2934 12.7579C28.0497 12.7133 28.8075 12.6837 29.5617 12.6152C29.8627 12.5881 30.1599 12.4886 30.4521 12.4012C30.5851 12.3609 30.7248 12.2496 30.6746 12.0965C30.6523 12.0295 30.4743 11.982 30.3668 11.9813C29.9041 11.9774 29.441 12.0077 28.9783 12.0013C27.6648 11.9819 26.3518 12.0676 25.0517 12.2578C24.6626 12.3149 24.2734 12.378 23.8875 12.4504C23.8298 12.4615 23.7849 12.5399 23.734 12.5874C23.792 12.6131 23.8489 12.6587 23.9084 12.6619C24.1684 12.6791 24.4287 12.6915 24.6887 12.6926C25.5572 12.6958 26.4253 12.6937 27.2934 12.6937ZM19.6849 14.5454C19.9018 14.4797 19.9471 14.3602 19.8392 14.1487C19.7313 13.9372 19.6036 13.7324 19.4971 13.5184C19.2827 13.0886 19.4716 12.8278 19.8374 12.6866C20.0864 12.5933 20.3482 12.5398 20.6135 12.5278C21.2432 12.4961 21.8746 12.5021 22.505 12.4839C22.6959 12.4801 22.886 12.459 23.0732 12.4208C23.7354 12.2781 24.3951 12.1254 25.0542 11.976C25.0725 11.9708 25.0901 11.9634 25.1065 11.9539C24.8653 11.9539 24.6113 11.9496 24.3605 11.9539C23.7708 11.966 23.1807 11.9985 22.5917 11.9942C21.701 11.9877 20.8102 11.9417 19.9198 11.9432C19.5116 11.9432 19.0966 11.986 18.7171 12.1747C18.3944 12.3355 18.3343 12.6851 18.5908 12.9398C18.7093 13.0579 18.8515 13.1521 18.9841 13.2552C19.2707 13.4788 19.4911 13.7513 19.5922 14.1073C19.634 14.2479 19.6545 14.3916 19.6849 14.5454ZM6.87914 11.9246L6.87383 11.9531C6.899 11.9637 6.92475 11.9727 6.95095 11.9803C7.43099 12.0891 7.90926 12.2082 8.39213 12.3013C8.78869 12.3787 9.18878 12.4558 9.59064 12.4797C10.192 12.5175 10.7955 12.49 11.3948 12.5289C11.6892 12.5488 11.9782 12.618 12.2501 12.7336C12.5933 12.8795 12.6697 13.1617 12.5105 13.502C12.4189 13.6968 12.3039 13.8801 12.2045 14.0727C12.1617 14.1548 12.103 14.2432 12.1037 14.3281C12.1037 14.3956 12.1854 14.4616 12.2307 14.5283C12.2682 14.4805 12.3308 14.4366 12.3389 14.3856C12.4136 13.9101 12.6471 13.5366 13.0266 13.2498C13.1657 13.1453 13.3096 13.0443 13.4299 12.9188C13.6531 12.6837 13.5976 12.3402 13.3079 12.2004C13.1256 12.1121 12.9316 12.0508 12.732 12.0184C11.665 11.8515 10.5942 11.9724 9.52449 11.9917C9.13112 11.9988 8.73775 11.9988 8.34438 11.9888C7.8562 11.9724 7.36838 11.9453 6.88056 11.9246H6.87914ZM14.1031 18.6822C14.038 18.6519 13.9924 18.6294 13.9457 18.6108C13.3259 18.3415 12.7705 17.983 12.3651 17.4255C12.2944 17.3277 12.2353 17.2924 12.1101 17.3274C11.866 17.3955 11.6038 17.4319 11.4072 17.2271C11.255 17.0691 11.1323 17.205 10.9961 17.2189C11.0056 17.3071 11.0042 17.3973 11.0283 17.4829C11.0567 17.5593 11.0935 17.6323 11.1379 17.7005C11.6077 18.5391 12.2869 19.1534 13.1345 19.5825C13.5282 19.7819 13.4529 19.8165 13.6722 19.4306C13.6896 19.4002 13.7076 19.371 13.7263 19.3407C13.8498 19.1241 13.9733 18.9087 14.1031 18.6822ZM17.7393 18.6822C17.7387 18.7012 17.7412 18.7203 17.7467 18.7385C17.9236 19.0467 18.0955 19.3574 18.2827 19.6585C18.3049 19.6942 18.4224 19.7109 18.4687 19.686C18.7588 19.529 19.0538 19.3763 19.3238 19.1866C19.9984 18.715 20.5226 18.11 20.8417 17.3388C20.8612 17.2924 20.8371 17.2275 20.8332 17.1711C20.766 17.1786 20.6917 17.1711 20.6333 17.1965C20.5343 17.2382 20.4448 17.3434 20.3503 17.3459C20.1501 17.3487 19.9504 17.3255 19.756 17.2767C19.6358 17.2478 19.5689 17.2578 19.4957 17.3623C19.2158 17.7583 18.8512 18.0857 18.4288 18.3201C18.2041 18.4489 17.9692 18.562 17.7393 18.6815V18.6822ZM29.9554 13.0968L29.9289 13.0422C29.8797 13.034 29.8301 13.0287 29.7803 13.0261C29.0278 13.0261 28.2751 13.0318 27.5226 13.0301C27.0833 13.0301 26.6439 13.0301 26.2053 13.0104C25.4659 12.9776 24.7273 12.927 23.988 12.8888C23.8899 12.8863 23.7921 12.8983 23.6975 12.9245C23.6501 12.937 23.6126 12.988 23.5705 13.0215C23.6105 13.0597 23.6445 13.1167 23.6919 13.1321C23.8124 13.173 23.9367 13.2017 24.063 13.2177C24.6725 13.2844 25.2813 13.3643 25.8926 13.4014C26.8735 13.4613 27.8562 13.4988 28.8386 13.5295C29.1656 13.5456 29.4894 13.4583 29.7647 13.2798C29.8369 13.233 29.8924 13.1588 29.9554 13.0968ZM2.06848 13.0343L2.02992 13.1057C2.13428 13.1859 2.22767 13.3044 2.34582 13.34C2.62882 13.4257 2.92633 13.5184 3.21923 13.5248C3.83653 13.5366 4.45736 13.5106 5.07289 13.4699C5.9608 13.4114 6.84872 13.3315 7.7331 13.2498C7.93296 13.2313 8.13 13.1749 8.32563 13.125C8.36596 13.1146 8.39426 13.0561 8.42786 13.0197C8.39037 12.9887 8.35711 12.9359 8.31502 12.9298C8.16757 12.9045 8.01815 12.8925 7.86858 12.8942C6.67361 12.9366 5.47935 12.9944 4.28438 13.0276C3.608 13.0465 2.93057 13.0276 2.25349 13.0276C2.19194 13.0258 2.13039 13.0315 2.06848 13.0343ZM11.4595 14.1362C11.4917 14.2197 11.5168 14.285 11.5416 14.3503C11.6053 14.3182 11.6813 14.2989 11.7298 14.2511C11.883 14.1093 12.0257 13.9565 12.1568 13.7938C12.5558 13.2683 12.4221 12.8506 11.7772 12.7593C11.2112 12.6773 10.6271 12.7012 10.0509 12.6787C10.0339 12.6787 10.0038 12.6787 10.0017 12.6866C9.98755 12.7351 9.96173 12.7911 9.97482 12.8335C9.98472 12.8656 10.0477 12.8806 10.0866 12.9027C10.0074 13.1021 10.0074 13.1021 10.2585 13.2031C10.1818 13.441 10.3891 13.4171 10.4913 13.4528C10.5146 13.5484 10.5111 13.6579 10.5546 13.6821C10.6176 13.7178 10.7145 13.6914 10.7644 13.6914C10.7962 13.8013 10.7973 13.9329 10.8549 13.9675C10.9183 14.0032 11.0339 13.9529 11.1273 13.94C11.1574 14.1733 11.1574 14.1733 11.4595 14.1362ZM21.4852 13.4649C21.7356 13.3839 21.7356 13.3839 21.76 13.1892C21.9871 13.1093 21.9871 13.1093 21.9221 12.9248L22.0636 12.7525C21.9928 12.7265 21.9256 12.6791 21.8563 12.6776C21.4738 12.6709 21.09 12.6544 20.7097 12.683C20.4458 12.7037 20.186 12.7609 19.9375 12.8528C19.6244 12.9684 19.5484 13.2095 19.6789 13.5209C19.8204 13.8555 20.0903 14.0817 20.345 14.3182C20.4345 14.4013 20.5028 14.361 20.5131 14.2361C20.5159 14.2033 20.5131 14.1701 20.5131 14.1359C20.824 14.1651 20.824 14.1651 20.8813 13.9657C20.9832 13.9657 21.1063 14.0014 21.1615 13.9554C21.2167 13.9094 21.205 13.7806 21.2227 13.6878C21.5018 13.7228 21.5092 13.7167 21.4852 13.4649ZM3.03245 13.9211L3.013 13.9739C3.04553 14.0184 3.08199 14.0599 3.12195 14.0977C3.31899 14.2514 3.53867 14.3553 3.79231 14.3474C4.11068 14.3388 4.42906 14.3406 4.7439 14.2953C5.8759 14.1316 7.00791 13.9515 8.13814 13.7738C8.25825 13.7561 8.37567 13.7233 8.48765 13.6761C8.53894 13.654 8.56689 13.5783 8.60545 13.5273C8.55364 13.4878 8.49914 13.4521 8.44237 13.4203C8.40872 13.4115 8.37342 13.4115 8.33978 13.4203C7.8516 13.4788 7.36519 13.5491 6.87596 13.5944C5.82319 13.6921 4.76902 13.7777 3.71519 13.8673C3.48808 13.888 3.26027 13.9037 3.03245 13.9211ZM29.0141 13.9361C28.9185 13.9204 28.8651 13.9076 28.811 13.904C28.245 13.8648 27.679 13.8419 27.1155 13.7867C25.976 13.6746 24.8387 13.5448 23.7004 13.4239C23.6378 13.4135 23.5737 13.4162 23.5122 13.4317C23.4648 13.4481 23.4032 13.4974 23.3968 13.5387C23.3905 13.5801 23.4421 13.6433 23.4846 13.6654C23.5628 13.7038 23.6462 13.7302 23.7322 13.7438C24.4556 13.873 25.1766 14.0199 25.9039 14.1191C26.6467 14.2208 27.3981 14.2786 28.1463 14.3474C28.4116 14.372 28.6469 14.2714 28.8566 14.113C28.9065 14.0749 28.9433 14.0178 29.0141 13.9361ZM4.04772 14.753L4.02755 14.8126C4.0983 14.8518 4.16905 14.9039 4.24476 14.9281C4.67704 15.0626 5.12701 15.1118 5.56602 15.0237C6.59791 14.8161 7.62237 14.5728 8.64966 14.3413C8.72041 14.3253 8.80673 14.3057 8.85555 14.2586C8.90967 14.2051 8.9638 14.1102 8.95283 14.0446C8.94398 13.9925 8.84069 13.9293 8.77312 13.9211C8.67938 13.9094 8.57962 13.9425 8.4834 13.9604C7.37934 14.1641 6.27776 14.3713 5.17441 14.5721C4.80015 14.6399 4.4234 14.6931 4.04772 14.753ZM27.9811 14.8026C27.9383 14.7705 27.9263 14.7551 27.9104 14.7516C27.8484 14.7369 27.7858 14.7252 27.7232 14.7137L23.521 13.9568C23.4301 13.9408 23.3353 13.9069 23.2479 13.9211C23.1733 13.9322 23.0572 13.9893 23.048 14.0417C23.0364 14.1105 23.0979 14.2072 23.1542 14.2675C23.1963 14.3128 23.278 14.3271 23.3448 14.3421C24.3732 14.5732 25.3987 14.8172 26.4313 15.0248C26.8763 15.1143 27.3323 15.0633 27.7703 14.9242C27.8403 14.9007 27.9008 14.8489 27.9811 14.8026ZM5.3 15.4803C5.35548 15.5221 5.41349 15.5603 5.47369 15.5948C5.75801 15.7327 6.07725 15.7798 6.38884 15.73C7.14304 15.6087 7.85549 15.3466 8.56653 15.0794C8.82123 14.9834 9.07452 14.8818 9.32002 14.7644C9.37839 14.7366 9.45056 14.6082 9.4311 14.5718C9.39573 14.5069 9.30021 14.4715 9.22416 14.4348C9.19939 14.423 9.15765 14.4444 9.12405 14.4533C7.92506 14.7658 6.7262 15.0788 5.52746 15.3922C5.46307 15.409 5.40364 15.4393 5.3 15.4803ZM26.6956 15.4803C26.5955 15.4418 26.5364 15.4118 26.4734 15.3954C25.2749 15.0815 24.0762 14.7686 22.8772 14.4566C22.753 14.4237 22.6274 14.4016 22.5676 14.5536C22.505 14.7127 22.6334 14.764 22.7406 14.8033C23.5656 15.0922 24.3891 15.3858 25.2208 15.6533C25.4528 15.7282 25.7111 15.7446 25.9573 15.7446C26.2258 15.743 26.4858 15.649 26.6942 15.4782L26.6956 15.4803ZM10.0657 15.1675C9.94439 15.0815 9.86798 15.0384 9.80502 14.9806C9.71905 14.9017 9.63981 14.9092 9.53687 14.9502C8.63587 15.2963 7.73274 15.6351 6.83068 15.9811C6.76842 16.005 6.72172 16.0707 6.66795 16.1171C6.73127 16.1567 6.79318 16.2284 6.85791 16.2305C7.10554 16.2398 7.36873 16.2786 7.59867 16.2112C8.1622 16.0457 8.71652 15.8435 9.2613 15.6237C9.53121 15.5135 9.77247 15.3348 10.0657 15.1653V15.1675ZM21.9698 15.145C22.0529 15.2121 22.1198 15.2752 22.1955 15.3234C22.8238 15.735 23.5171 16.0011 24.2366 16.183C24.5271 16.2569 24.8455 16.2262 25.1507 16.2276C25.2102 16.2276 25.27 16.1563 25.3276 16.1178C25.2749 16.071 25.2296 16.0043 25.1681 15.9804C24.2554 15.6287 23.3412 15.2809 22.4254 14.9371C22.3773 14.9189 22.3069 14.9089 22.2666 14.931C22.1686 14.9856 22.0805 15.0619 21.9698 15.1429V15.145ZM13.2251 11.8775C13.3666 12.0252 13.4837 11.9927 13.6089 11.9424C15.1313 11.3444 16.824 11.3633 18.3329 11.9952C18.4617 12.0502 18.5699 12.0598 18.6845 11.9193C16.8655 11.1167 15.0656 11.102 13.2251 11.8775ZM21.4717 15.516C21.4958 15.5514 21.524 15.5838 21.5556 15.6127C21.8884 15.8445 22.2135 16.0889 22.5592 16.2993C22.9048 16.5098 23.2819 16.6154 23.6862 16.5783C23.7626 16.5712 23.8327 16.492 23.9059 16.4459C23.8472 16.3989 23.7948 16.3389 23.729 16.3065C23.1404 16.0211 22.5461 15.7493 21.9603 15.46C21.7102 15.3376 21.7169 15.3219 21.4717 15.516ZM10.5631 15.521C10.4007 15.4386 10.3233 15.307 10.1602 15.3876C9.50645 15.7065 8.84741 16.0175 8.19297 16.3364C8.15264 16.3561 8.10064 16.4078 8.1017 16.4434C8.1068 16.4678 8.11799 16.4904 8.13422 16.5091C8.15044 16.5279 8.17116 16.5421 8.19439 16.5505C8.32415 16.5738 8.45607 16.5827 8.58776 16.5769C9.11166 16.5412 9.53758 16.2676 9.95324 15.9776C10.1485 15.837 10.3385 15.6886 10.5631 15.521ZM16.6229 20.6577C16.8174 20.6577 16.9522 20.526 16.9144 20.332C16.8305 19.9039 16.7262 19.4791 16.6268 19.0539C16.5931 18.909 16.4775 18.9554 16.3855 18.9654C16.2988 18.9747 16.2068 18.9879 16.2175 19.1156C16.2528 19.5436 16.2818 19.9745 16.3261 20.403C16.3459 20.5778 16.4552 20.6566 16.6243 20.6562L16.6229 20.6577ZM16.7191 18.9526C16.729 19.0096 16.735 19.0596 16.747 19.1117C16.8364 19.4862 16.9265 19.8606 17.0173 20.2349C17.0505 20.3726 17.1153 20.4875 17.2617 20.5264C17.5009 20.5902 17.6894 20.3744 17.601 20.1179C17.4888 19.793 17.3534 19.4759 17.2246 19.157C17.0958 18.8381 17.0948 18.8413 16.7647 18.9244C16.7491 18.9318 16.7343 18.9408 16.7205 18.9511L16.7191 18.9526ZM16.1962 20.2546H16.2005C16.1743 19.8889 16.1456 19.524 16.123 19.1584C16.111 18.9629 15.9751 18.9922 15.8481 18.9857C15.7049 18.9783 15.6964 19.0642 15.69 19.1744C15.6748 19.4413 15.6451 19.7074 15.6309 19.9742C15.6217 20.1472 15.6083 20.3241 15.6362 20.4929C15.6642 20.6616 15.811 20.6976 15.9606 20.6851C16.1021 20.6734 16.1768 20.5827 16.1948 20.4461C16.1999 20.3819 16.2008 20.3175 16.1977 20.2531L16.1962 20.2546ZM13.4816 20.0181C13.49 20.1679 13.5523 20.261 13.6814 20.3116C13.8636 20.383 14.0132 20.3031 14.108 20.0694C14.2481 19.7244 14.3847 19.3779 14.5177 19.03C14.5481 18.9501 14.616 18.8584 14.4823 18.7949C14.2902 18.7047 14.205 18.7121 14.1286 18.8452C13.9616 19.1306 13.7936 19.4159 13.6308 19.7059C13.5732 19.8044 13.5314 19.9125 13.483 20.0166L13.4816 20.0181ZM15.5775 19.2804C15.5775 19.2394 15.5775 19.1755 15.5775 19.1113C15.5775 18.979 15.4799 18.9686 15.3872 18.9583C15.2945 18.9479 15.2022 18.9436 15.175 19.0728C15.0869 19.4702 14.9892 19.8658 14.9058 20.2638C14.8598 20.4839 14.9578 20.632 15.1414 20.6562C15.3423 20.6816 15.4792 20.571 15.4997 20.3484C15.5315 19.9984 15.551 19.6499 15.5789 19.279L15.5775 19.2804ZM17.2157 18.8502C17.405 19.3079 17.5847 19.7602 17.7817 20.2057C17.8405 20.3391 17.9738 20.3637 18.1111 20.3166C18.3233 20.2453 18.3775 20.052 18.2452 19.8147C18.0923 19.5404 17.9307 19.2715 17.775 18.9989C17.596 18.6829 17.5971 18.6822 17.2172 18.8488L17.2157 18.8502ZM14.1926 20.2089C14.1926 20.4058 14.2538 20.4857 14.4151 20.5228C14.5987 20.5649 14.7289 20.4797 14.7876 20.2517C14.8877 19.8618 14.9786 19.4698 15.0632 19.0763C15.0734 19.03 15.0218 18.9244 14.9963 18.9237C14.8867 18.9201 14.7487 18.7717 14.6677 18.9643C14.5163 19.3307 14.3698 19.6988 14.2241 20.0677C14.2095 20.1131 14.1994 20.16 14.194 20.2075L14.1926 20.2089ZM10.6232 17.2657C10.6611 17.3673 10.6919 17.4711 10.7368 17.5682C11.1029 18.3608 11.6597 18.9904 12.375 19.4755C12.6524 19.6639 12.9541 19.8155 13.2491 19.9749C13.2845 19.9935 13.3457 19.9606 13.3949 19.9517C13.3754 19.8996 13.3666 19.8376 13.3326 19.798C13.2987 19.7584 13.2396 19.753 13.1964 19.7245C12.8048 19.4677 12.3916 19.2376 12.029 18.944C11.5171 18.5273 11.1186 17.9862 10.8709 17.3716C10.8302 17.2735 10.7754 17.1965 10.6232 17.2657ZM18.4376 20.0077C19.4338 19.7855 21.0886 18.1143 21.1721 17.256C21.0129 17.2257 21.0058 17.2286 20.9411 17.3791C20.651 18.0721 20.1806 18.6732 19.5795 19.1188C19.2502 19.3624 18.8858 19.559 18.5342 19.7709C18.4401 19.8258 18.3651 19.8757 18.4376 20.0077ZM20.8767 15.8295C21.1824 16.2576 21.552 16.5833 22.0522 16.7395C22.123 16.7653 22.1971 16.7802 22.2723 16.7838C22.3405 16.7838 22.4085 16.7513 22.4767 16.7331C22.4414 16.6675 22.406 16.6015 22.3678 16.5366C22.3628 16.5273 22.3494 16.523 22.3398 16.5162C21.9861 16.2751 21.6277 16.0389 21.2786 15.791C21.1321 15.6872 21.0157 15.7204 20.8767 15.8295ZM11.1181 15.8367C10.9303 15.6911 10.885 15.6865 10.7223 15.7935C10.6257 15.857 10.5323 15.9259 10.4365 15.9911C10.1588 16.1802 9.87824 16.365 9.6055 16.5619C9.56022 16.5943 9.5489 16.6753 9.52201 16.7338C9.57862 16.7534 9.63875 16.7962 9.69146 16.7887C10.3172 16.7006 10.7555 16.33 11.1181 15.837V15.8367ZM20.2937 16.01C20.4389 16.368 20.6971 16.6675 21.0285 16.8622C21.1176 16.9165 21.217 16.9821 21.3026 16.8622C21.3882 16.7424 21.2963 16.6678 21.223 16.5936C21.0444 16.4113 20.8551 16.2394 20.6868 16.0482C20.569 15.9144 20.4582 15.8877 20.2937 16.01ZM11.7096 16.0058C11.566 15.9094 11.4493 15.8781 11.3361 16.0261C11.2724 16.1019 11.2038 16.1734 11.1309 16.2401C10.9961 16.3757 10.8521 16.5037 10.7297 16.6503C10.6901 16.6978 10.6848 16.7998 10.705 16.8644C10.7149 16.8954 10.8351 16.9282 10.8783 16.9061C11.2544 16.7175 11.5499 16.3975 11.7096 16.0058ZM21.6196 13.9465C21.552 13.9871 21.4968 14.0014 21.483 14.0339C21.4693 14.0663 21.4806 14.1409 21.506 14.1576C21.724 14.2935 21.9436 14.4284 22.1732 14.5422C22.2086 14.5604 22.3317 14.4879 22.3533 14.433C22.3749 14.3781 22.3384 14.2522 22.2928 14.2297C22.0724 14.1202 21.84 14.0356 21.6196 13.9465ZM9.78945 14.5721C10.0763 14.474 10.3201 14.3581 10.5012 14.1441C10.5744 14.0574 10.5097 13.9607 10.4163 13.9853C10.1689 14.0531 9.92652 14.1379 9.69075 14.2393C9.65219 14.2554 9.62637 14.3759 9.6437 14.4334C9.66104 14.4908 9.73993 14.5283 9.78945 14.5721ZM20.0083 16.2533C19.9552 16.3842 19.9085 16.4838 19.8742 16.5872C19.8457 16.6732 19.8514 16.767 19.8901 16.8489C19.9287 16.9308 19.9973 16.9944 20.0815 17.0263C20.1412 17.0511 20.2072 17.0556 20.2696 17.0393C20.3321 17.023 20.3876 16.9866 20.4278 16.9357C20.5251 16.8226 20.4352 16.7399 20.3698 16.6618C20.2633 16.533 20.1498 16.4103 20.0083 16.2533ZM20.9591 15.2242C20.9652 15.063 20.5216 14.6759 20.3613 14.713C20.3259 14.7216 20.2686 14.8143 20.2775 14.8254C20.419 15.0116 20.5559 15.2035 20.7218 15.3655C20.7996 15.4404 20.956 15.3341 20.9602 15.2242H20.9591ZM11.6456 14.7077C11.4549 14.7134 11.0619 15.0344 11.0442 15.1768C11.0422 15.2069 11.047 15.237 11.0583 15.265C11.0695 15.2929 11.087 15.3179 11.1093 15.338C11.1578 15.3694 11.2664 15.3865 11.295 15.3565C11.4441 15.2052 11.5808 15.0419 11.7036 14.8682C11.7552 14.7947 11.716 14.7066 11.6456 14.7077ZM9.74382 13.3194C9.53157 13.365 9.33276 13.4003 9.13961 13.4549C9.09291 13.4678 9.03348 13.5448 9.03525 13.5897C9.03702 13.6347 9.10105 13.6968 9.15128 13.7164C9.21508 13.7428 9.28545 13.7484 9.35257 13.7324C9.50131 13.6905 9.64599 13.6351 9.78485 13.5669C9.84605 13.5359 9.88319 13.456 9.93095 13.3982L9.74382 13.3194ZM22.256 13.3254C22.1944 13.3422 22.134 13.3633 22.0752 13.3886C22.0696 13.3911 22.0848 13.4842 22.1106 13.5031C22.3122 13.6429 22.5287 13.7603 22.7827 13.7324C22.8496 13.7249 22.9083 13.6386 22.9709 13.5897C22.9175 13.5366 22.8722 13.4535 22.8089 13.4356C22.6334 13.3846 22.4491 13.3615 22.256 13.3254ZM22.6586 12.9505V12.9594C22.5897 12.9562 22.5207 12.957 22.452 12.9619C22.4166 12.9659 22.3575 12.9923 22.3558 13.0126C22.3545 13.0341 22.3579 13.0557 22.3659 13.0757C22.3738 13.0958 22.3861 13.1138 22.4017 13.1285C22.5045 13.203 22.622 13.254 22.7462 13.2782C22.8705 13.3024 22.9984 13.2992 23.1213 13.2687C23.1793 13.2548 23.2214 13.172 23.2709 13.1207C23.215 13.0793 23.1648 13.0137 23.1022 13.0008C22.9552 12.9765 22.8072 12.9597 22.6586 12.9505ZM9.04197 13.2922L9.05471 13.3308C9.23158 13.2683 9.40846 13.2109 9.58109 13.1396C9.61647 13.1253 9.62743 13.0579 9.65007 13.0151C9.61116 12.9962 9.57189 12.9605 9.53369 12.9612C9.34453 12.961 9.15552 12.9722 8.96769 12.9948C8.88349 13.0069 8.80708 13.075 8.72714 13.1178C8.80956 13.176 8.89057 13.2359 8.97476 13.2908C8.99068 13.3015 9.01933 13.2922 9.04197 13.2922ZM22.5149 14.1287C22.5836 14.0931 22.6748 14.0677 22.678 14.0346C22.6837 13.9789 22.6494 13.8919 22.6041 13.8637C22.4512 13.7718 22.2892 13.6962 22.1209 13.6379C22.0604 13.6179 21.973 13.6818 21.898 13.7071C21.9334 13.7784 21.9475 13.888 22.0041 13.9186C22.1637 14.005 22.3402 14.0595 22.5149 14.1287ZM9.47461 14.1359C9.65927 14.0581 9.84287 13.9932 10.012 13.9012C10.0618 13.874 10.0703 13.7695 10.0976 13.7007C10.0325 13.6757 9.95607 13.6144 9.90477 13.6326C9.72219 13.7013 9.54484 13.7835 9.37415 13.8783C9.33665 13.8987 9.30021 13.9853 9.31436 14.021C9.33311 14.0667 9.40457 14.0891 9.47461 14.1359ZM21.7696 14.8664C21.7905 14.8507 21.8587 14.8261 21.8701 14.7854C21.8835 14.7355 21.8701 14.6428 21.8347 14.6199C21.6481 14.5085 21.4561 14.4066 21.2595 14.3146C21.2467 14.3089 21.1636 14.3891 21.1682 14.4216C21.187 14.5579 21.5885 14.8614 21.7696 14.8664ZM9.53723 12.7115C9.3554 12.6002 9.17994 12.571 8.81593 12.6045C8.74341 12.6113 8.67726 12.6898 8.60828 12.7354C8.67903 12.7896 8.74978 12.8906 8.81876 12.8895C9.00589 12.887 9.19303 12.8449 9.37839 12.8089C9.42898 12.7996 9.47107 12.7543 9.53723 12.7115ZM22.4721 12.6758C22.6105 12.8692 23.1857 12.9641 23.3342 12.8431C23.4177 12.775 23.405 12.6427 23.301 12.6248C23.0321 12.5788 22.7587 12.571 22.4736 12.6751L22.4721 12.6758ZM10.2235 14.8657C10.4004 14.8657 10.8022 14.5693 10.8302 14.427C10.8366 14.3941 10.7559 14.3085 10.7471 14.3128C10.5472 14.4109 10.3487 14.5133 10.1577 14.6281C10.1262 14.647 10.1107 14.7352 10.1255 14.7797C10.1404 14.8243 10.203 14.8489 10.2235 14.8657ZM10.6714 15.0797C10.8663 15.0797 11.1808 14.8329 11.2133 14.6874C11.2211 14.6517 11.2154 14.5882 11.1956 14.5778C11.1553 14.5572 11.0895 14.5443 11.0541 14.5636C10.906 14.6414 10.7633 14.7291 10.6268 14.8261C10.5811 14.8596 10.5352 14.9488 10.5493 14.9931C10.5635 15.0373 10.6498 15.0644 10.6714 15.0787V15.0797ZM21.3292 15.0797C21.3486 15.068 21.4141 15.0466 21.4455 15.0013C21.4639 14.9749 21.4434 14.8871 21.4134 14.8661C21.2557 14.7489 21.0893 14.6441 20.9156 14.5529C20.8201 14.5058 20.7614 14.5786 20.7872 14.6856C20.8219 14.8336 21.1403 15.0801 21.3292 15.078V15.0797ZM11.872 16.3928C11.774 16.4998 11.6972 16.5783 11.6282 16.6628C11.5642 16.7417 11.4744 16.8233 11.5709 16.9357C11.6675 17.0481 11.7889 17.0823 11.9134 17.0217C11.9671 16.9953 12.0252 16.8936 12.0156 16.8376C11.9905 16.6978 11.9289 16.5644 11.872 16.3928ZM19.9863 14.9388C19.9644 14.9663 19.9474 14.9975 19.9361 15.0309C19.9117 15.1554 20.0695 15.4543 20.1837 15.5071C20.2845 15.5531 20.3691 15.5381 20.402 15.4193C20.4412 15.2734 20.1614 14.9285 19.9849 14.9388H19.9863ZM12.0351 14.9624L11.9873 14.9331C11.791 14.9963 11.6689 15.1432 11.606 15.3355C11.5904 15.384 11.6413 15.4957 11.6863 15.5139C11.7361 15.532 11.8511 15.4925 11.8713 15.4475C11.9403 15.292 11.9813 15.1236 12.0336 14.9624H12.0351Z" fill="#151515"/>
<path d="M15.2616 16.7238C15.261 16.6257 15.2798 16.5284 15.3168 16.4377C15.3539 16.3469 15.4084 16.2645 15.4774 16.1953C15.5463 16.126 15.6283 16.0713 15.7184 16.0343C15.8085 15.9973 15.9051 15.9787 16.0024 15.9797C16.4269 15.9815 16.7453 16.3186 16.7371 16.7645C16.7368 16.8641 16.7168 16.9626 16.6784 17.0543C16.64 17.146 16.5839 17.2291 16.5133 17.2988C16.4428 17.3685 16.3593 17.4234 16.2676 17.4602C16.1758 17.4971 16.0778 17.5152 15.979 17.5136C15.5733 17.5032 15.2556 17.154 15.2616 16.7238Z" fill="#151515"/>
<path d="M15.9451 14.2004C16.2946 14.2069 16.5687 14.5215 16.5599 14.9085C16.5507 15.3077 16.2695 15.5955 15.897 15.5863C15.5559 15.5791 15.274 15.2556 15.2779 14.8757C15.2818 14.4958 15.5758 14.194 15.9451 14.2004Z" fill="#151515"/>
<path d="M18.9597 12.1108C18.993 12.1401 19.0326 12.1593 19.0443 12.19C19.0509 12.2074 19.0534 12.2262 19.0515 12.2448C19.0497 12.2634 19.0436 12.2812 19.0337 12.297C18.9901 12.3343 18.9426 12.3667 18.8922 12.3937C18.6888 12.5292 18.6736 12.633 18.8313 12.816C18.8462 12.8335 18.8748 12.8471 18.8777 12.8656C18.8851 12.9109 18.8985 12.9726 18.8777 12.9997C18.8568 13.0269 18.7818 13.0272 18.7493 13.0079C18.4694 12.8396 18.4482 12.4829 18.705 12.2795C18.779 12.2178 18.866 12.1715 18.9597 12.1108Z" fill="#151515"/>
<path d="M13.5201 12.6348C13.4349 12.7593 13.3542 12.8874 13.2605 13.0047C13.2417 13.0279 13.172 13.0101 13.126 13.0112C13.12 12.9607 13.121 12.9097 13.1289 12.8596C13.1391 12.8239 13.1826 12.8003 13.2067 12.7679C13.3128 12.6252 13.299 12.5389 13.1529 12.4308C13.097 12.3894 13.0298 12.3619 12.9803 12.3149C12.9667 12.2993 12.957 12.2807 12.952 12.2606C12.947 12.2405 12.9469 12.2195 12.9516 12.1993C12.9617 12.1809 12.9762 12.1652 12.9937 12.1538C13.0112 12.1423 13.0313 12.1354 13.0521 12.1336C13.2343 12.1497 13.4812 12.4297 13.5201 12.6348Z" fill="#151515"/>
</svg>
