<svg width="32" height="32" viewBox="0 0 32 32" fill="none" xmlns="http://www.w3.org/2000/svg">
<path d="M15.755 27.9998C15.7252 27.9918 15.6957 27.9789 15.6655 27.9766C15.5059 27.9649 15.3457 27.9588 15.1861 27.9453C14.9219 27.9229 14.6569 27.9047 14.3941 27.8698C13.9108 27.8054 13.4321 27.7133 12.9606 27.5887C11.4869 27.1997 10.1291 26.5633 8.90535 25.6538C6.67376 23.9952 5.17501 21.8282 4.42408 19.1492C4.25528 18.5469 4.14469 17.9333 4.07404 17.3115C4.00095 16.6691 3.98314 16.0249 4.01545 15.381C4.09307 13.8316 4.44291 12.3439 5.11237 10.9425C6.5595 7.91339 8.86617 5.82073 12.0218 4.66914C12.7158 4.41587 13.4318 4.24395 14.1629 4.13426C14.5373 4.07805 14.9124 4.02928 15.2911 4.01911C15.6893 4.00837 16.0882 3.99256 16.4861 4.00395C16.8207 4.01346 17.1549 4.05423 17.4885 4.08944C18.0284 4.1464 18.5593 4.25411 19.0831 4.39534C21.3081 4.99529 23.2087 6.13822 24.7793 7.82225C26.1539 9.29632 27.0945 11.0131 27.6059 12.9632C27.7606 13.553 27.8722 14.1512 27.9246 14.759C27.9481 15.031 27.9558 15.3044 27.9731 15.577C27.9774 15.6463 27.9908 15.715 28 15.7841C28 15.9247 28 16.0654 28 16.2061C27.9908 16.2673 27.9771 16.3282 27.9732 16.3897C27.9559 16.6622 27.9472 16.9355 27.9249 17.2077C27.8835 17.714 27.7978 18.2143 27.6794 18.7078C27.0406 21.3704 25.659 23.5706 23.5403 25.3035C22.2063 26.3946 20.6969 27.1488 19.0308 27.5888C18.5592 27.7134 18.0807 27.8057 17.5974 27.8697C17.3348 27.9045 17.0699 27.9232 16.8057 27.9453C16.6345 27.9597 16.4626 27.9665 16.2913 27.9786C16.2608 27.9808 16.2311 27.9926 16.2009 28C16.0522 27.9998 15.9036 27.9998 15.755 27.9998ZM15.99 27.2264C22.311 27.2072 27.2267 22.0906 27.2406 16.0101C27.2545 9.90577 22.3278 4.75426 16.0066 4.74654C9.78156 4.73891 4.76214 9.76219 4.75094 15.9642C4.73982 22.1613 9.73654 27.2023 15.99 27.2264Z" fill="#151515"/>
<path d="M8.89091 15.971C8.90767 12.0158 12.102 8.91217 15.9438 8.88524C19.8824 8.85775 23.1174 12.0608 23.0972 16.0334C23.078 19.7932 20.065 23.0472 16.0717 23.0827C12.0429 23.1187 8.89919 19.893 8.89091 15.971ZM22.7256 16.0025C22.7311 15.9573 22.7374 15.9308 22.7372 15.9045C22.7331 15.4422 22.6822 14.9849 22.5817 14.5338C22.0984 12.365 20.5794 10.5706 18.5192 9.73554C17.9855 9.51918 17.4336 9.36797 16.8602 9.30423C16.62 9.27758 16.3784 9.26176 16.1373 9.24406C16.0893 9.24058 16.0401 9.25112 15.9824 9.25602C15.9824 9.5462 15.9824 9.82311 15.9824 10.1001C15.9824 10.3814 15.9824 10.6628 15.9824 10.9441C15.9824 11.2216 15.9824 11.4989 15.9824 11.7764C15.9824 12.0539 15.9824 12.3313 15.9824 12.6087C15.9824 12.8901 15.9824 13.1714 15.9824 13.4527C15.9824 13.7302 15.9824 14.0076 15.9824 14.285C15.9824 14.5664 15.9834 14.8477 15.9822 15.129C15.981 15.4048 15.9874 15.6808 15.9778 15.9681C15.9098 15.9681 15.8558 15.9681 15.8019 15.9681C13.683 15.9681 11.5642 15.9681 9.44534 15.9682C9.40239 15.9682 9.35934 15.9686 9.31639 15.9707C9.27428 15.9727 9.2529 15.9968 9.25224 16.0386C9.25168 16.0777 9.25055 16.1168 9.25196 16.1559C9.26901 16.6134 9.32053 17.0666 9.42773 17.5123C9.79349 19.0323 10.5882 20.2821 11.8069 21.2591C12.6245 21.9145 13.5489 22.3548 14.5765 22.5679C14.8658 22.6279 15.1605 22.665 15.454 22.7026C15.6046 22.7219 15.7579 22.7217 15.9101 22.7252C15.9933 22.7272 16.0052 22.7124 16.0104 22.6317C16.0132 22.5888 16.0116 22.5457 16.0116 22.5028C16.0116 20.3965 16.0116 18.2904 16.012 16.1842C16.012 16.1272 16.0171 16.07 16.0203 16.0023C18.2598 16.0025 20.4867 16.0025 22.7256 16.0025Z" fill="#151515"/>
<path d="M9.35265 11.7739C8.66286 11.1244 7.98436 10.4854 7.30144 9.84241C7.34468 9.78686 7.37972 9.74053 7.41617 9.69525C7.82065 9.19265 8.24227 8.70503 8.70704 8.25677C8.82158 8.14623 8.95015 8.04822 9.08109 7.95717C9.26402 7.82988 9.47407 7.80822 9.6879 7.84814C9.9654 7.89993 10.1958 8.16817 10.2131 8.45044C10.2183 8.53528 10.214 8.62077 10.214 8.72104C10.249 8.71228 10.2882 8.70287 10.3271 8.69289C10.7721 8.57859 11.1722 8.82932 11.2569 9.27664C11.2873 9.43717 11.2461 9.58669 11.1786 9.73046C11.0946 9.90954 10.9701 10.0596 10.8346 10.2015C10.5217 10.5294 10.2085 10.857 9.89692 11.1862C9.75449 11.3365 9.61546 11.49 9.47492 11.6421C9.4379 11.6819 9.40088 11.7217 9.35265 11.7739ZM9.38506 10.8903C9.42368 10.854 9.4558 10.8268 9.48443 10.7964C9.80046 10.4615 10.1164 10.1265 10.4311 9.79043C10.4817 9.73649 10.531 9.68009 10.5723 9.61917C10.6046 9.57162 10.6328 9.51758 10.6472 9.46231C10.6922 9.28954 10.5711 9.14078 10.3931 9.13918C10.3105 9.13842 10.2403 9.16865 10.178 9.21761C10.129 9.25602 10.0829 9.29867 10.0396 9.34349C9.69864 9.69769 9.35849 10.0527 9.01873 10.4081C8.99829 10.4295 8.98284 10.4557 8.95807 10.4891C9.10124 10.6236 9.23952 10.7535 9.38506 10.8903ZM8.55491 10.1084C8.59061 10.0766 8.61793 10.0555 8.64138 10.0308C8.95571 9.69967 9.27146 9.36976 9.58164 9.03485C9.64664 8.96461 9.70193 8.88035 9.74206 8.79344C9.79519 8.67829 9.75704 8.55081 9.66746 8.47417C9.57627 8.39612 9.45646 8.38689 9.34182 8.45779C9.28267 8.49441 9.22766 8.5397 9.17698 8.58772C8.82516 8.92093 8.50216 9.28106 8.19207 9.65288C8.17558 9.67265 8.16531 9.69751 8.14826 9.72669C8.28466 9.85474 8.41719 9.97912 8.55491 10.1084Z" fill="#151515"/>
<path d="M14.9132 6.29922C14.9132 6.34828 14.9145 6.39733 14.913 6.44629C14.8939 7.04737 14.8745 7.64844 14.8547 8.24952C14.8516 8.34367 14.8402 8.35554 14.7604 8.36589C14.5866 8.3884 14.4129 8.41203 14.239 8.43406C14.2208 8.43632 14.2017 8.43095 14.1707 8.42785C14.2063 7.46983 14.2416 6.51625 14.2771 5.55965C14.3576 5.54666 14.4219 5.53197 14.487 5.52651C14.7047 5.50833 14.9226 5.49205 15.1406 5.47783C15.2392 5.47143 15.2411 5.47369 15.2788 5.56624C15.4759 6.05057 15.6723 6.53517 15.8683 7.01997C15.887 7.06629 15.9019 7.11422 15.9235 7.17504C15.9387 7.15386 15.9487 7.14444 15.9533 7.13295C16.1639 6.60786 16.3744 6.08277 16.5832 5.55701C16.6067 5.49798 16.6396 5.47011 16.7059 5.47623C16.9854 5.5024 17.2652 5.52575 17.5449 5.55061C17.5518 5.55127 17.5582 5.55777 17.5816 5.57114C17.6224 6.51418 17.6526 7.46786 17.6895 8.42794C17.6567 8.43001 17.6341 8.435 17.6125 8.43218C17.4463 8.41099 17.2806 8.3868 17.1143 8.36674C17.0201 8.35544 17.01 8.34829 17.0066 8.25206C16.9853 7.64327 16.964 7.03447 16.943 6.42567C16.9415 6.38377 16.9428 6.34178 16.9428 6.28548C16.9233 6.30186 16.9088 6.30817 16.9041 6.3189C16.6896 6.80003 16.4747 7.28106 16.2636 7.76359C16.2336 7.83223 16.1928 7.85492 16.1207 7.85219C15.992 7.8473 15.8627 7.84767 15.734 7.8521C15.6662 7.85445 15.6277 7.83317 15.5995 7.76887C15.3881 7.28642 15.1733 6.80539 14.9591 6.32408C14.9547 6.3141 14.9456 6.3061 14.9388 6.29725C14.9301 6.29791 14.9216 6.29857 14.9132 6.29922Z" fill="#151515"/>
<path d="M21.9523 7.29151C22.141 7.44281 22.3164 7.58357 22.4996 7.73055C22.1384 8.27183 21.7843 8.80277 21.4255 9.34048C21.4446 9.33944 21.4568 9.34217 21.4656 9.33775C21.9047 9.11658 22.3435 8.89457 22.7826 8.67349C22.8759 8.62651 22.8771 8.62764 22.9528 8.70202C23.0615 8.80889 23.1697 8.91622 23.2775 9.02393C23.3416 9.08796 23.3425 9.08927 23.2994 9.17382C23.076 9.61192 22.8518 10.0496 22.6283 10.4876C22.625 10.494 22.6261 10.5026 22.6228 10.5292C23.1647 10.1733 23.6963 9.82405 24.2258 9.47634C24.3088 9.53076 24.5947 9.87489 24.6732 10.0152C23.879 10.5155 23.0842 11.0162 22.2843 11.5202C22.1078 11.3125 21.9392 11.114 21.7668 10.911C22.0282 10.4103 22.2881 9.91274 22.5606 9.39085C22.0378 9.66003 21.5353 9.91877 21.0294 10.1792C20.8274 10.0096 20.631 9.84467 20.4276 9.67387C20.9343 8.88204 21.4371 8.09643 21.9523 7.29151Z" fill="#151515"/>
</svg>
