<svg width="32" height="32" viewBox="0 0 32 32" fill="none" xmlns="http://www.w3.org/2000/svg">
<path d="M15.6793 5.2006C18.4761 5.20531 20.7303 5.81933 22.7881 7.09024C24.7524 8.30131 26.2593 9.94167 27.1844 12.0806C27.8681 13.663 28.1333 15.3208 27.9369 17.0474C27.6493 19.5628 26.538 21.6509 24.7412 23.3902C23.4784 24.6116 22.0071 25.4834 20.366 26.0682C18.6926 26.6643 16.9617 26.8782 15.192 26.775C13.6181 26.6908 12.0735 26.3127 10.6367 25.6601C8.25479 24.5763 6.38077 22.9293 5.14234 20.5958C4.16909 18.7636 3.82066 16.7962 4.08584 14.7407C4.36411 12.5862 5.27984 10.7178 6.74791 9.12691C8.14442 7.61378 9.82902 6.55351 11.7685 5.89284C13.1622 5.41878 14.591 5.18599 15.6793 5.2006ZM15.4703 22.7003C15.4703 22.6296 15.4679 22.5589 15.4703 22.4882C15.4983 21.8379 15.2257 21.3874 14.6064 21.1688C14.1228 20.9973 13.6435 20.8121 13.1566 20.658C12.2736 20.379 11.5225 19.9186 10.9173 19.2C10.0993 18.2321 9.80657 17.07 9.58209 15.8651C9.41419 14.9645 9.21448 14.0692 8.9928 13.179C8.89552 12.7903 8.66542 12.4538 8.35254 12.1866C7.7988 11.7111 7.26376 11.7776 6.83911 12.3751C6.42754 12.9514 6.28724 13.6248 6.21147 14.3006C5.98558 16.3391 6.23018 18.306 7.19127 20.1481C8.22018 22.1235 9.62605 23.7271 11.6544 24.7063C12.282 25.0093 12.9335 25.2473 13.6463 25.2285C14.3427 25.2105 14.8669 24.8986 15.2055 24.2822C15.4777 23.7879 15.4759 23.2436 15.4703 22.7008V22.7003ZM25.8164 15.6865C25.8164 15.5451 25.8201 15.4037 25.8164 15.2624C25.7888 14.3156 25.6845 13.3873 25.2267 12.5334C24.8927 11.9109 24.3226 11.7135 23.7899 12.0622C23.4571 12.2872 23.201 12.6098 23.0561 12.9863C22.7007 13.8557 22.5884 14.7859 22.4014 15.6978C22.269 16.341 22.1619 16.9979 21.9449 17.6133C21.4113 19.126 20.4053 20.1806 18.8446 20.6542C18.3175 20.8139 17.7989 21.0057 17.2872 21.2107C16.8097 21.402 16.5029 21.7413 16.5127 22.2979C16.5207 22.729 16.4996 23.1626 16.5403 23.5904C16.6264 24.5211 17.3475 25.1809 18.2656 25.228C19.0307 25.2652 19.721 24.999 20.3898 24.6781C21.545 24.1225 22.5085 23.3138 23.3363 22.3356C24.1366 21.4023 24.7703 20.3363 25.2093 19.1849C25.6317 18.0601 25.8772 16.8985 25.8164 15.6865ZM15.4932 16.1761H15.4904C15.4904 15.2732 15.4969 14.3698 15.4904 13.467C15.4824 12.68 15.0414 12.2484 14.2618 12.2465C13.4592 12.2465 12.6557 12.2672 11.8536 12.2389C11.0249 12.2097 10.6087 12.6941 10.5558 13.4538C10.451 14.948 10.814 16.3523 11.4299 17.6949C11.9074 18.7316 12.6412 19.5011 13.8207 19.6952C14.1588 19.7497 14.5016 19.769 14.8436 19.7527C15.2523 19.7344 15.4922 19.3757 15.4941 18.84C15.4955 17.9507 15.4932 17.0634 15.4932 16.1761ZM16.5221 16.129C16.5221 16.6318 16.5221 17.1341 16.5221 17.6369C16.5221 18.1157 16.516 18.5949 16.5361 19.0732C16.5511 19.421 16.8013 19.7131 17.1231 19.74C17.7418 19.7918 18.3531 19.7348 18.9255 19.4653C19.6481 19.125 20.1415 18.5473 20.4983 17.8489C20.945 16.9781 21.2181 16.0455 21.3743 15.0833C21.473 14.4735 21.5492 13.8557 21.4211 13.2332C21.3051 12.6677 20.9604 12.2182 20.2149 12.2347C19.3969 12.2526 18.578 12.237 17.76 12.2399C16.9421 12.2427 16.5244 12.6701 16.5221 13.4905C16.5197 14.3717 16.5216 15.2515 16.5216 16.1332L16.5221 16.129ZM19.4559 10.8837C20.0718 10.8837 20.6873 10.8837 21.3032 10.8837C21.7765 10.8837 22.1628 10.7046 22.4449 10.3106C22.6548 10.0175 22.8616 9.72302 23.2493 9.63678C23.3681 9.61039 23.3957 9.50248 23.3218 9.39363C23.2818 9.33548 23.238 9.28007 23.1908 9.22775C22.4968 8.45587 21.6554 7.88097 20.7481 7.40031C19.8127 6.90505 18.8395 6.52335 17.7778 6.40837C17.2077 6.34664 16.5819 6.7665 16.5417 7.34047C16.4809 8.1851 16.4706 9.03265 16.5109 9.87852C16.5445 10.5524 16.9785 10.8822 17.6557 10.8832L19.4559 10.8837ZM12.5341 10.8837C13.1421 10.8837 13.7501 10.8874 14.3581 10.8837C15.0676 10.878 15.4974 10.493 15.5226 9.78475C15.5488 9.04067 15.546 8.29424 15.5194 7.54969C15.4969 6.91683 14.9203 6.36454 14.345 6.41167C13.9655 6.43972 13.5897 6.50458 13.2226 6.60534C12.0063 6.94682 10.866 7.51909 9.8627 8.29141C9.4516 8.60808 9.09335 8.99496 8.7164 9.35546C8.61865 9.4497 8.57936 9.58353 8.74633 9.63066C9.10271 9.73056 9.32345 9.97654 9.52269 10.2663C9.81452 10.6905 10.2242 10.8898 10.7387 10.8841C11.3326 10.8822 11.9322 10.887 12.5318 10.887L12.5341 10.8837Z" fill="#151515"/>
</svg>
