<svg width="32" height="32" viewBox="0 0 32 32" fill="none" xmlns="http://www.w3.org/2000/svg">
<path d="M15.8678 25.2C12.6833 25.1671 9.46528 24.6032 6.45331 23.1415C4.932 22.4027 3.5639 21.4612 2.46377 20.1739C0.233481 17.5539 0.245498 14.3824 2.49982 11.7789C3.90217 10.1581 5.69746 9.09108 7.67841 8.30572C10.7481 7.08909 13.9541 6.67785 17.2425 6.83045C20.1415 6.96478 22.9324 7.56042 25.5484 8.83361C27.0421 9.55888 28.3939 10.4774 29.4766 11.7382C31.8277 14.4778 31.77 17.7701 29.3234 20.4325C27.8376 22.0445 25.975 23.0891 23.9321 23.8485C21.381 24.7941 18.7301 25.1818 15.8678 25.2ZM16.5749 23.442C17.1788 23.3925 18.3498 23.3353 19.5094 23.1933C21.7571 22.9176 23.9231 22.3402 25.9425 21.308C27.3154 20.6057 28.5604 19.7391 29.4165 18.4394C30.471 16.838 30.4908 15.199 29.4316 13.6041C29.019 13.0026 28.523 12.4604 27.9577 11.9933C26.4749 10.7431 24.7072 10.009 22.8506 9.47757C19.8122 8.60914 16.7113 8.3994 13.5732 8.67336C11.3189 8.87073 9.12701 9.34736 7.04633 10.2458C5.53043 10.901 4.13529 11.7335 3.06401 13.0061C2.35202 13.8521 1.89599 14.806 1.87556 15.9254C1.85152 17.2174 2.40549 18.2821 3.26168 19.2135C4.33477 20.3819 5.67943 21.1684 7.13585 21.7799C9.96818 22.9695 12.9495 23.4054 16.5749 23.442Z" fill="#151515"/>
<path d="M5.1489 12.5895C5.25284 12.5842 5.34958 12.5748 5.44931 12.5748C7.15027 12.5748 8.85123 12.5748 10.5522 12.5707C10.7487 12.5707 10.8694 12.6426 11.0142 12.7716C11.6199 13.3119 11.8902 13.9558 11.7515 14.7553C11.7439 14.8237 11.7439 14.8926 11.7515 14.9609C11.7713 15.3698 11.8115 15.7858 11.3122 15.9531C11.3297 16.012 11.3285 16.0397 11.3411 16.0474C11.7094 16.283 11.7869 16.6218 11.7617 17.0342C11.7286 17.5226 11.7563 18.0146 11.7515 18.5071C11.7515 18.5914 11.7515 18.7233 11.7016 18.7522C11.2377 19.0168 10.8941 19.4669 10.2572 19.4357C9.30066 19.3862 8.33932 19.4227 7.35396 19.4227V17.7536H9.95616V16.5546H6.94118V19.3991H5.1489V12.5895ZM6.9514 14.2598V15.4441H9.93273V14.2598H6.9514Z" fill="#151515"/>
<path d="M26.8684 19.4121H22.7791V17.7265H24.998V16.765C24.998 16.2253 25.0076 15.685 24.9914 15.1453C24.9872 15.0134 24.9151 14.8749 24.8472 14.7547C24.6225 14.3582 24.2722 14.2486 23.8198 14.2834C23.3529 14.3211 22.8807 14.2916 22.3778 14.2916V19.4015H20.481V12.5736H20.7898C22.3712 12.5736 23.9532 12.5778 25.5364 12.5689C25.7479 12.5689 25.8698 12.6567 26.0206 12.7881C26.732 13.4085 26.9435 14.1591 26.8894 15.0858C26.8119 16.4162 26.8696 17.7548 26.8696 19.0922L26.8684 19.4121Z" fill="#151515"/>
<path d="M17.3975 19.408H15.3312V15.0081C15.7632 15.0081 16.191 14.9969 16.6176 15.0081C17.5789 15.0387 17.6787 14.9492 17.6426 13.9906C17.6258 13.5322 17.6426 13.0727 17.6426 12.5925H19.7209C19.7257 12.6897 19.7341 12.7846 19.7341 12.8794C19.7341 13.8221 19.7425 14.7647 19.7263 15.7074C19.7263 15.8512 19.6314 16.0097 19.5407 16.1328C19.2048 16.5859 18.75 16.7402 18.1846 16.6471C17.9442 16.6077 17.6883 16.6406 17.3999 16.6406L17.3975 19.408Z" fill="#151515"/>
<path d="M14.9196 16.6536C14.3753 16.6536 13.858 16.6589 13.3413 16.6483C13.2644 16.6483 13.1838 16.5788 13.1141 16.5305C12.6203 16.1888 12.4184 15.7487 12.4713 15.133C12.5313 14.4024 12.4863 13.6601 12.4863 12.9271V12.5919H14.6066C14.6066 13.2099 14.6132 13.815 14.603 14.4183C14.6 14.6169 14.6252 14.7812 14.8031 14.9056C14.8339 14.9285 14.8596 14.9572 14.8788 14.9901C14.898 15.023 14.9103 15.0594 14.9148 15.097C14.9196 15.5966 14.9196 16.0951 14.9196 16.6536Z" fill="#151515"/>
</svg>
