<svg width="32" height="32" viewBox="0 0 32 32" fill="none" xmlns="http://www.w3.org/2000/svg">
<path d="M1.60001 10.8H30.4C30.2801 10.9705 30.1843 11.1111 30.0828 11.2485C29.7162 11.7471 29.3742 12.2665 28.9752 12.7369C28.5762 13.2074 28.3986 13.7329 28.2965 14.3133C28.0916 15.4743 27.8353 16.6315 27.6342 17.7961C27.4984 18.5831 27.0455 19.0688 26.2602 19.2533C25.1113 19.5234 23.9606 19.7861 22.8023 20.0134C20.8782 20.3929 18.9396 20.7051 17.0188 21.109C16.0355 21.3161 15.1068 21.1291 14.1686 20.9532C11.7853 20.5053 9.40582 20.0366 7.02633 19.5674C6.58228 19.4794 6.1433 19.3633 5.70623 19.2472C4.93865 19.0438 4.49587 18.5751 4.35757 17.801C4.1089 16.4176 3.82535 15.041 3.54749 13.6632C3.51515 13.5062 3.45044 13.357 3.35719 13.2245C2.84018 12.5048 2.31049 11.7935 1.78651 11.0787C1.73068 10.9986 1.67613 10.9137 1.60001 10.8ZM3.11423 11.2968C3.58936 11.9518 4.03215 12.5457 4.454 13.1536C4.5679 13.3204 4.64618 13.5073 4.68427 13.7036C4.94816 15.115 5.20297 16.5276 5.44868 17.9415C5.55017 18.5213 5.91747 18.8317 6.49093 18.9442C9.20092 19.4757 11.9096 20.014 14.6228 20.5285C15.1766 20.6336 15.7647 20.757 16.3096 20.6825C17.8029 20.479 19.2847 20.1937 20.7653 19.9071C22.3595 19.6016 23.9466 19.2631 25.5357 18.9338C26.0521 18.8268 26.42 18.5604 26.5171 18.0252C26.7448 16.7733 27.0017 15.5256 27.192 14.2687C27.2853 13.6577 27.4953 13.1262 27.8949 12.6422C28.2394 12.2255 28.5331 11.7697 28.8744 11.298L3.11423 11.2968Z" fill="#151515"/>
<path d="M20.4843 15.5439V13.9608H26.8571C26.7759 14.4496 26.7068 14.9298 26.6034 15.4034C26.59 15.4645 26.413 15.5366 26.3166 15.5378C25.3866 15.5482 24.4567 15.5439 23.5254 15.5439H20.4843Z" fill="#151515"/>
<path d="M11.5385 15.8201V17.3757C11.4389 17.3836 11.3482 17.3971 11.2575 17.3971C9.51493 17.3971 7.76853 17.3971 6.02912 17.4026C5.79186 17.4026 5.70179 17.3415 5.67451 17.1063C5.62503 16.684 5.53178 16.2661 5.45185 15.8231L11.5385 15.8201Z" fill="#151515"/>
<path d="M11.843 17.683H15.8179V20.3483C15.4881 20.2963 15.1703 20.2511 14.8543 20.1955C13.9199 20.0324 12.9855 19.8692 12.0549 19.6902C12.004 19.671 11.9589 19.6398 11.9235 19.5996C11.8882 19.5594 11.8638 19.5114 11.8526 19.4599C11.8348 18.8812 11.843 18.3014 11.843 17.683Z" fill="#151515"/>
<path d="M15.823 13.4274V14.1795H5.17844C5.1315 13.9425 5.08328 13.6962 5.02936 13.4249L15.823 13.4274Z" fill="#151515"/>
<path d="M26.2665 17.1619C26.2739 17.1774 26.2793 17.1939 26.2824 17.2107C26.2189 17.936 26.2189 17.936 25.4805 17.936H16.177V17.1619H26.2665Z" fill="#151515"/>
<path d="M16.1808 12.0728H20.1551V13.6431H16.1808V12.0728Z" fill="#151515"/>
<path d="M6.99588 12.3667L7.43994 13.1469C6.60448 13.1469 5.82676 13.1469 5.04966 13.1433C5.01433 13.1413 4.97978 13.1325 4.94806 13.1174C4.91634 13.1023 4.88811 13.0811 4.86506 13.0553C4.63098 12.7498 4.40769 12.4302 4.15458 12.0777H15.8376C15.8376 12.3893 15.8433 12.7009 15.8313 13.0119C15.8313 13.0559 15.7272 13.139 15.6987 13.1298C15.6384 13.1097 15.5572 13.0431 15.5528 12.9899C15.5357 12.7895 15.5458 12.5872 15.5458 12.3642L6.99588 12.3667Z" fill="#151515"/>
<path d="M16.1789 18.1865H26.0565C25.9163 18.4639 25.667 18.5311 25.4279 18.5831C24.3495 18.8171 23.2653 19.0541 22.178 19.2613C20.3029 19.6181 18.4239 19.9542 16.5462 20.3C16.4326 20.3208 16.3172 20.3305 16.1789 20.3489V18.1865ZM23.4411 18.5708C23.4328 18.536 23.4246 18.5018 23.417 18.4676H16.4593V20.0055C16.5182 20.0102 16.5774 20.0102 16.6363 20.0055C18.6028 19.6389 20.5693 19.2723 22.5358 18.8898C22.8479 18.8281 23.1404 18.682 23.4411 18.5708Z" fill="#151515"/>
<path d="M26.5342 15.8158C26.4771 16.1702 26.4219 16.5081 26.3648 16.8637H23.965C23.9955 16.604 24.0234 16.3639 24.0545 16.0987H16.4422V16.849L16.3464 16.9065C16.2829 16.8417 16.1719 16.7806 16.1675 16.7128C16.1472 16.4207 16.1586 16.1274 16.1586 15.8146L26.5342 15.8158Z" fill="#151515"/>
<path d="M15.5496 15.5091V14.7282H7.8066C7.82436 14.9873 7.84275 15.2445 7.86242 15.5225H5.40046L5.21967 14.4698H15.8389C15.8389 14.785 15.8509 15.0887 15.8294 15.3899C15.8249 15.451 15.698 15.5091 15.627 15.5683L15.5496 15.5091Z" fill="#151515"/>
<path d="M27.4147 12.5934C27.2441 13.0033 26.9986 13.1726 26.5266 13.1646C24.6476 13.1317 22.7667 13.1518 20.8871 13.1518H20.4938V12.5934H27.4147Z" fill="#151515"/>
<path d="M11.5341 18.1883V18.7383H11.177C10.0059 18.7383 8.83426 18.7541 7.66323 18.7297C7.25851 18.7211 6.85061 18.6332 6.45414 18.5427C6.27017 18.5006 6.10905 18.3661 5.93713 18.2733C5.95109 18.2452 5.96505 18.2165 5.97837 18.1883H11.5341Z" fill="#151515"/>
<path d="M20.1538 15.0044H16.1757V14.4661H20.1538V15.0044Z" fill="#151515"/>
<path d="M15.823 16.3425V16.8606H11.8716V16.3425H15.823Z" fill="#151515"/>
</svg>
