<svg xmlns="http://www.w3.org/2000/svg" width="409" height="187" viewBox="0 0 409 187" fill="none">
<path d="M3.03146 112.817C3.67126 108.801 3.08005 105.731 2.78851 103.958C1.62234 96.7259 1.38751 84.8778 3.46881 74.3094C3.97092 74.3822 4.5054 74.4551 5.11279 74.447C5.85785 74.447 6.69199 74.3742 7.59091 74.0097C7.81766 73.9044 8.03635 73.7911 8.255 73.6696C8.46555 73.5157 8.668 73.3537 8.86237 73.1837L8.90286 73.1513L8.95145 73.1027L8.95953 73.0865L9.00003 73.0379L9.10532 72.9164C9.21869 72.7868 9.32397 72.6411 9.39685 72.5277C9.55881 72.2766 9.65601 72.0175 9.737 71.7826C10.0124 70.8351 9.97998 70.1063 9.99619 69.3612C9.99619 68.6243 9.95566 67.9197 9.90707 67.2151C9.85846 66.5106 9.81796 65.8546 9.75317 65.1662C9.61551 63.8624 9.48596 62.6395 9.38068 61.5948C9.16202 59.5054 9.01624 58.1125 9.01624 58.1125C10.1095 56.3308 11.4295 54.5977 13.0897 52.9538C14.2964 51.7633 15.7379 51.0587 17.6654 50.1112C17.7545 50.0788 17.8436 50.0545 17.9408 50.0302C18.702 49.8116 19.4471 49.5929 20.2569 49.3985C21.0587 49.1961 21.8766 49.0179 22.7026 48.8559C25.9987 48.2081 29.3838 47.9408 31.9348 47.9246C33.2063 47.9165 34.2753 47.9408 35.0204 47.9813C35.7654 48.0218 36.1946 48.0461 36.1946 48.0461C36.1946 48.0461 35.7735 47.9651 35.0365 47.8274C34.2996 47.6979 33.2387 47.5197 31.9673 47.3658C29.6268 47.0743 26.5251 46.8961 23.3586 47.0338C23.9741 46.6532 24.6219 46.2401 25.3103 45.7704C28.6954 43.4705 31.0117 41.5592 32.0158 40.7413C38.1302 35.7689 51.3306 26.156 60.6195 20.7543C77.0594 11.1982 92.8109 8.09646 108.141 5.07574C115.851 3.56133 121.568 2.87296 127.294 2.20079C134.915 1.30996 150.674 -0.293531 188.575 0.046604C210.182 0.240967 230.233 0.986029 250.577 4.12013C255.711 4.91377 262.465 6.09615 270.685 9.14926C280.719 12.8745 287.457 17.3368 296.301 23.2729C303.484 28.0996 312.829 34.9266 323.114 44.1021C323.495 43.6405 324.119 42.9765 325.026 42.4258C327.358 41.0167 329.877 41.3244 332.687 41.705C335.716 42.118 337.23 42.3205 338.194 43.1384C340.575 45.1711 340.583 49.9007 338.55 54.865C344.122 55.1646 377.52 57.3269 391.943 75.3379C391.716 75.5241 391.49 75.7104 391.247 75.921C390.817 76.2773 390.429 76.6336 390.032 76.9899C389.246 77.7026 388.485 78.4315 387.74 79.1684C386.25 80.6504 384.825 82.173 383.448 83.7521C382.071 85.3313 380.759 86.951 379.504 88.6355C378.88 89.4778 378.273 90.3362 377.674 91.2189C377.552 91.3971 377.447 91.5752 377.334 91.7453C377.334 91.6805 377.334 91.6238 377.334 91.5428C377.334 91.1136 377.334 90.4658 377.269 89.6559C377.164 88.0281 376.872 85.6958 376.135 82.9666C375.39 80.2455 374.175 77.1114 372.329 74.034C372.102 73.6453 371.875 73.2566 371.616 72.884L371.235 72.309L371.049 72.0175L370.806 71.6855C370.28 70.9809 369.745 70.2601 369.195 69.5556C368.944 69.1992 368.587 68.8348 368.271 68.4785L367.283 67.3933C366.627 66.6482 365.915 66.0165 365.21 65.3687L364.141 64.405C363.769 64.0972 363.388 63.8138 363.007 63.5222C362.254 62.9391 361.501 62.3479 360.699 61.8539C359.144 60.793 357.509 59.9103 355.913 59.1167C355.095 58.7523 354.318 58.3635 353.516 58.0558C352.714 57.7561 351.937 57.4484 351.167 57.1892C350.39 56.9544 349.637 56.7276 348.908 56.5009C348.171 56.3227 347.45 56.1526 346.77 55.9907C346.082 55.853 345.418 55.7315 344.786 55.6262C344.154 55.5291 343.547 55.4643 342.98 55.3914C341.846 55.2537 340.858 55.2051 340.04 55.1889C339.23 55.1484 338.583 55.1889 338.153 55.197C337.716 55.2213 337.489 55.2375 337.489 55.2375C337.489 55.2375 338.364 55.5291 339.894 56.0393C340.656 56.2903 341.563 56.6305 342.599 57.003C343.636 57.3917 344.778 57.8695 346.017 58.3797C346.632 58.6551 347.264 58.9385 347.928 59.2301C348.576 59.5459 349.248 59.8617 349.928 60.2019C350.601 60.5582 351.289 60.9226 352.002 61.2871C352.69 61.6839 353.395 62.0888 354.107 62.5018C354.82 62.9148 355.5 63.3926 356.221 63.8381C356.577 64.0567 356.934 64.2997 357.266 64.5588C357.614 64.8018 357.962 65.0528 358.31 65.3039C359.023 65.7736 359.671 66.3567 360.351 66.8831C360.691 67.1584 361.031 67.4176 361.363 67.6929L362.319 68.5757C362.967 69.1506 363.631 69.7256 364.182 70.3411C364.473 70.6489 364.765 70.9485 365.056 71.24C365.348 71.5397 365.648 71.8069 365.939 72.1795C366.514 72.8759 367.097 73.5481 367.672 74.2203L367.777 74.3417L367.834 74.4065L367.858 74.4389L367.867 74.447L368.02 74.6495L368.401 75.1435C368.66 75.4674 368.911 75.7995 369.146 76.1315C370.11 77.4516 370.984 78.7797 371.754 80.0836C372.531 81.3874 373.228 82.6508 373.811 83.8493C374.402 85.0479 374.936 86.1655 375.358 87.1859C375.779 88.2063 376.151 89.0971 376.435 89.8503C376.815 90.8626 377.074 91.5671 377.212 91.9397C377.139 92.0611 377.058 92.1745 376.985 92.296L373.973 91.0893L373.908 91.065C373.673 90.9679 373.422 90.9274 373.179 90.9274H352.504L342.17 90.9112C340.445 90.9112 338.728 90.9355 337.003 90.9436L331.837 91.0003C318.061 91.1622 304.286 91.47 290.518 91.9235H290.486C290.372 91.9235 290.259 91.9478 290.162 91.9883L284.485 93.9481C276.945 92.3284 269.398 90.7735 261.874 89.0971L238.988 83.9465C235.465 83.161 231.934 82.424 228.371 81.8004C227.974 81.4279 227.488 80.9906 226.945 80.5047C226.055 79.711 224.945 78.7635 223.649 77.7269C222.354 76.6903 220.864 75.5484 219.179 74.3822C215.834 72.0337 211.753 69.5637 207.161 67.3933C204.861 66.2838 202.488 65.312 199.921 64.3807C198.69 63.9676 197.475 63.5384 196.212 63.1335C194.908 62.761 193.596 62.3965 192.292 62.024C190.98 61.7244 189.676 61.4328 188.373 61.1332C187.061 60.8821 185.749 60.6716 184.453 60.4448C183.149 60.2586 181.853 60.1128 180.574 59.9508C179.294 59.8455 178.023 59.7484 176.784 59.6431C175.536 59.6026 174.314 59.554 173.115 59.5135C171.916 59.5216 170.742 59.5297 169.608 59.5459C168.467 59.6026 167.365 59.635 166.296 59.7079C165.227 59.7969 164.199 59.8617 163.211 59.967C161.243 60.1776 159.445 60.4286 157.858 60.6878C156.27 60.955 154.902 61.2304 153.776 61.4652C152.65 61.7244 151.776 61.9187 151.176 62.0807C150.577 62.2346 150.261 62.3156 150.261 62.3156C150.261 62.3156 150.585 62.2589 151.193 62.1617C151.8 62.0564 152.691 61.9349 153.825 61.773C154.966 61.6353 156.343 61.4733 157.939 61.3438C159.526 61.2223 161.324 61.1251 163.275 61.0846C164.255 61.0603 165.276 61.0846 166.329 61.0846C167.381 61.1089 168.467 61.1656 169.584 61.2061C170.694 61.2951 171.844 61.3842 173.01 61.4733C174.168 61.611 175.358 61.7568 176.565 61.9025C177.764 62.105 178.978 62.3075 180.209 62.5099C181.432 62.7772 182.663 63.0201 183.902 63.3036C185.125 63.6275 186.364 63.9595 187.603 64.2835C188.826 64.6722 190.049 65.0609 191.272 65.4497C192.454 65.8951 193.637 66.3405 194.819 66.7859C196.009 67.2799 197.208 67.8225 198.39 68.3408C200.601 69.3612 202.853 70.5193 204.893 71.7259C209.015 74.1231 212.611 76.7551 215.519 79.1846C215.891 79.4924 216.247 79.8001 216.596 80.0997C216.345 80.0754 216.094 80.0431 215.834 80.0107C208.052 79.1684 200.221 78.7878 192.397 78.8121C200.212 78.9741 208.019 79.5409 215.761 80.5695C219.633 81.0797 223.487 81.7032 227.318 82.4483C231.149 83.1934 234.947 84.0842 238.737 85.0236L254.966 89.089C254.812 89.251 254.65 89.413 254.472 89.5749C254.14 89.8908 253.759 90.1742 253.346 90.4496C252.941 90.7249 252.431 90.9921 252.051 91.146C251.257 91.5023 249.435 91.7534 247.483 91.9316C245.645 92.1097 243.604 92.215 241.498 92.2069C239.377 92.2069 237.133 92.1178 234.825 91.9883C233.691 91.9154 232.55 91.8506 231.4 91.7777C230.217 91.6886 229.027 91.5914 227.844 91.5023C225.488 91.3161 223.131 91.1379 220.815 90.9598C218.483 90.7006 216.199 90.4577 214.028 90.1742C211.858 89.8827 209.809 89.5668 208.019 88.9756C206.189 88.3845 204.513 87.5665 203.039 86.6757C200.075 84.894 197.929 82.8289 196.511 81.3388C195.807 80.5775 195.272 79.9702 194.924 79.5329C194.568 79.1036 194.382 78.8769 194.382 78.8769C194.382 78.8769 194.535 79.136 194.811 79.6138C195.086 80.0998 195.523 80.7962 196.107 81.6708C197.289 83.3958 199.103 85.8335 201.929 88.2306C203.338 89.4211 204.999 90.5953 206.926 91.5914C208.894 92.6037 211.048 93.3002 213.219 93.9562C215.397 94.6041 217.624 95.2195 219.884 95.8431C222.175 96.4019 224.508 96.9688 226.84 97.5276C227.998 97.8111 229.148 98.0864 230.306 98.3698C231.497 98.6371 232.687 98.9043 233.862 99.1716C236.186 99.6818 238.502 100.151 240.818 100.532C243.142 100.913 245.402 101.172 247.645 101.318C248.18 101.35 248.714 101.382 249.232 101.407C249.767 101.431 250.309 101.447 250.86 101.447C251.962 101.447 253.176 101.407 254.504 101.164C255.857 100.905 256.942 100.54 257.995 100.111C259.04 99.6818 259.995 99.1878 260.846 98.6614C262.554 97.6167 263.834 96.4829 264.814 95.5192C265.794 94.5393 266.458 93.7294 266.919 93.1382C267.324 92.6118 267.535 92.3284 267.535 92.3284L267.187 92.1016C272.556 93.3974 277.933 94.6689 283.303 95.9484C283.238 95.997 283.173 96.0375 283.1 96.0861C282.144 96.7421 280.752 97.7301 279.067 99.0987C277.391 100.467 275.398 102.217 273.325 104.419C272.807 104.938 272.224 105.553 271.843 106.306C271.446 107.043 271.22 107.902 271.171 108.793C271.114 109.683 271.284 110.607 271.649 111.473C271.73 111.692 271.859 111.894 271.965 112.113C272.094 112.315 272.232 112.55 272.37 112.72L272.58 112.988C272.677 113.109 272.734 113.174 272.815 113.263L273.269 113.789C273.908 114.47 274.556 115.166 275.22 115.871C275.552 116.227 275.892 116.583 276.233 116.948C276.597 117.304 276.994 117.644 277.407 117.96C279.083 119.215 281.165 120.041 283.4 120.244C284.533 120.333 285.586 120.284 286.68 120.3C287.773 120.3 288.874 120.3 289.992 120.3C292.227 120.3 294.511 120.3 296.827 120.309C306.108 120.317 316.012 120.333 325.917 120.341C335.821 120.349 345.717 120.365 355.006 120.373C359.647 120.373 364.133 120.381 368.393 120.39C369.454 120.39 370.507 120.39 371.543 120.39C372.061 120.39 372.572 120.39 373.082 120.39C373.608 120.39 374.248 120.365 374.823 120.3C377.164 120.041 379.35 119.159 381.148 117.871C382.047 117.223 382.849 116.478 383.537 115.66C383.715 115.433 383.893 115.207 384.063 114.98L384.444 114.429L384.574 114.227L384.671 114.073L384.857 113.765C384.979 113.554 385.092 113.352 385.213 113.141C385.667 112.315 386.056 111.473 386.38 110.639C386.461 110.428 386.533 110.218 386.614 110.007L386.72 109.708L386.833 109.335C386.979 108.817 387.076 108.299 387.125 107.78C387.214 106.744 387.116 105.739 386.865 104.816C386.582 103.82 386.315 103.261 386.031 102.581C385.748 101.933 385.456 101.318 385.157 100.735C385.003 100.443 384.849 100.16 384.703 99.8842C384.549 99.617 384.404 99.3578 384.258 99.1068C383.488 97.8353 382.735 96.7906 382.079 95.9484C382.266 96.078 382.444 96.2076 382.646 96.3452C383.278 96.742 383.958 97.147 384.784 97.4709C385.586 97.803 386.533 98.0621 387.57 98.0783C387.829 98.0783 388.08 98.0945 388.347 98.0459L388.736 97.9892L389.214 97.9082L389.514 97.8029C389.676 97.7463 389.878 97.6815 389.991 97.6167C390.234 97.5033 390.445 97.3737 390.647 97.2523C391.401 96.7421 391.935 96.2157 392.453 95.6974C392.964 95.1791 393.433 94.6769 393.879 94.1829C394.316 93.6889 394.745 93.2111 395.15 92.7657C395.579 92.296 395.92 91.8668 396.268 91.47C397.636 89.8665 398.543 88.7975 398.543 88.7975C398.543 88.7975 397.345 89.5263 395.539 90.6115C395.093 90.8788 394.591 91.1946 394.089 91.47C393.571 91.7696 393.02 92.0855 392.453 92.4094C391.886 92.7333 391.303 93.0492 390.712 93.3488C390.129 93.6403 389.53 93.9157 389.052 94.0291C388.939 94.0534 388.833 94.0696 388.752 94.0696C388.704 94.0696 388.736 94.0372 388.736 94.0372C388.76 94.0372 388.704 94.0372 388.655 94.0372H388.526H388.509H388.501C388.501 94.0372 388.696 94.0048 388.599 94.021H388.582L388.55 94.0048L388.485 93.9805L388.364 93.9481C388.291 93.94 388.202 93.8833 388.121 93.8428C387.805 93.697 387.481 93.4622 387.149 93.1544C386.825 92.871 386.517 92.4985 386.234 92.134C385.95 91.7534 385.691 91.3809 385.464 91.0084C385.149 90.4982 384.898 90.0203 384.703 89.6235C385.464 88.7084 386.242 87.8014 387.044 86.9105C388.372 85.4447 389.757 84.0275 391.182 82.6751C391.895 81.9948 392.623 81.3388 393.352 80.699C393.725 80.3832 394.089 80.0593 394.454 79.7758C394.575 79.6705 394.721 79.5653 394.859 79.4519C396.235 81.6061 397.896 84.4486 399.499 87.6637C403.224 95.1224 405.233 102.16 406.439 107.813C406.439 107.845 406.229 108.728 405.759 110.21C405.281 111.716 404.471 113.83 403.168 116.146C402.836 116.729 402.471 117.312 402.074 117.911C401.872 118.203 401.669 118.494 401.467 118.794C401.24 119.094 401.013 119.41 400.779 119.717C399.863 120.892 398.762 122.074 397.572 123.2C396.365 124.317 395.004 125.338 393.563 126.285C392.834 126.755 392.105 127.184 391.32 127.597C390.518 128.01 389.635 128.52 388.866 129.087C387.311 130.262 385.967 131.711 384.962 133.355C384.444 134.181 384.055 135.056 383.723 135.866C383.383 136.692 383.067 137.518 382.776 138.336C382.492 139.17 382.209 139.931 381.998 140.798C381.796 141.591 381.601 142.369 381.407 143.122C380.954 144.701 380.905 146.329 381.083 147.738C381.261 149.171 381.699 150.402 382.217 151.447C382.735 152.443 383.229 153.261 383.618 153.966C384.412 155.35 384.881 156.128 384.881 156.128C384.881 156.128 384.574 155.27 383.999 153.779C383.707 153.042 383.359 152.144 382.962 151.115C382.614 150.119 382.355 148.928 382.314 147.641C382.282 146.345 382.452 144.968 382.946 143.575C383.189 142.83 383.44 142.069 383.699 141.292C383.934 140.571 384.242 139.769 384.549 139.008C384.857 138.23 385.197 137.453 385.562 136.676C385.934 135.882 386.299 135.145 386.736 134.457C387.619 133.055 388.801 131.816 390.162 130.82C390.85 130.302 391.53 129.889 392.332 129.468C393.142 129.031 393.96 128.537 394.721 128.026C396.268 127.014 397.653 125.807 398.9 124.568C400.155 123.321 401.2 122.001 402.115 120.641C402.325 120.309 402.536 119.985 402.738 119.669C402.941 119.329 403.143 118.997 403.321 118.665C403.678 118 404.002 117.344 404.285 116.713C405.427 114.162 405.937 111.894 406.196 110.315C406.326 109.521 406.375 108.898 406.415 108.469C406.439 108.064 406.456 107.845 406.464 107.821C407.144 111.012 407.573 113.773 407.897 115.911C408.602 120.519 408.812 123.815 408.853 124.528C409.282 131.703 408.691 136.967 408.132 141.761C407.039 151.131 405.783 153.18 405.257 153.974C404.609 154.946 403.888 155.772 403.143 156.5C402.139 156.687 401.078 156.873 399.961 157.059C398.438 157.31 396.818 157.561 395.102 157.804L394.778 157.853L394.494 157.885C394.276 157.91 394.057 157.934 393.83 157.958C393.385 158.007 392.931 158.055 392.478 158.112C391.563 158.209 390.631 158.315 389.684 158.42C388.728 158.525 387.756 158.63 386.768 158.744C386.274 158.8 385.772 158.857 385.27 158.914L385.084 158.938H385.003L384.954 158.954L384.574 158.979L383.804 159.035C381.739 159.181 379.609 159.327 377.423 159.481C373.041 159.788 368.417 160.104 363.639 160.436C354.075 161.1 343.871 161.805 333.675 162.518C312.36 164 291.045 165.474 275.544 166.551C265.567 166.996 255.59 167.441 245.612 167.887L241.701 167.733C238.243 167.587 234.785 167.498 231.335 167.385C227.877 167.263 224.419 167.199 220.969 167.101C217.551 167.012 214.126 166.931 210.708 166.875C210.392 166.834 209.825 166.583 209.331 166.283C208.813 165.976 208.295 165.603 207.793 165.198C206.797 164.388 205.857 163.473 205.055 162.493C204.659 162.007 204.294 161.497 204.043 161.019C203.922 160.785 203.816 160.55 203.776 160.388L203.751 160.274L203.703 160.015L203.614 159.505L202.861 155.391C201.808 149.925 200.658 144.466 199.241 139.073C198.544 136.376 197.799 133.679 197.005 131.007C196.86 130.537 196.722 130.059 196.576 129.589C196.042 127.338 195.378 125.192 194.608 123.192C194.349 122.527 194.074 121.888 193.79 121.256C192.065 116.583 190.13 111.975 187.773 107.521C186.437 105.027 184.947 102.589 183.238 100.281C181.521 97.9811 179.578 95.7864 177.213 93.9724C176.031 93.0654 174.735 92.2798 173.326 91.6805C171.997 91.1055 170.515 90.6277 169.009 90.401C167.487 90.1661 165.964 90.1823 164.385 90.49L163.875 90.6034C163.697 90.6439 163.486 90.7087 163.3 90.7573C162.911 90.8707 162.563 90.9922 162.198 91.1298C161.486 91.4052 160.797 91.7453 160.158 92.1421C157.566 93.7213 155.614 95.9808 154.027 98.3536C152.44 100.743 151.233 103.31 150.213 105.926C149.192 108.541 148.391 111.222 147.743 113.935C147.079 116.64 146.593 119.385 146.253 122.139C146.86 119.434 147.654 116.778 148.512 114.154C149.387 111.538 150.383 108.971 151.541 106.484C152.707 104.006 154.051 101.634 155.639 99.4793C157.234 97.3413 159.137 95.422 161.364 94.2315C161.923 93.9319 162.49 93.6727 163.073 93.4703C163.356 93.365 163.672 93.2759 163.948 93.203C164.093 93.1706 164.215 93.1382 164.377 93.1058L164.887 93.0087C166.045 92.8386 167.325 92.8548 168.531 93.0977C169.762 93.3326 170.928 93.7537 172.119 94.3287C173.245 94.8632 174.297 95.5678 175.302 96.3695C177.302 97.9811 179.035 100.006 180.574 102.184C182.015 104.225 183.287 106.412 184.461 108.655C183.522 107.918 182.59 107.302 181.691 106.808C179.448 105.561 177.464 105.075 176.128 104.857C175.788 104.808 175.488 104.768 175.229 104.727C174.97 104.711 174.751 104.695 174.573 104.687C174.225 104.662 174.038 104.654 174.038 104.654C174.038 104.654 173.86 104.654 173.504 104.654C173.326 104.654 173.107 104.654 172.848 104.654C172.589 104.67 172.289 104.695 171.949 104.719C170.596 104.849 168.58 105.213 166.28 106.339C163.98 107.456 161.429 109.327 159.08 112.024C156.724 114.712 154.626 118.219 152.958 122.301C151.306 126.399 150.148 131.088 149.646 136.157C149.168 141.203 149.314 146.653 150.472 152.144C151.638 157.618 153.76 163.206 157.428 168.041C159.259 170.446 161.486 172.665 164.191 174.309C165.535 175.135 166.993 175.823 168.523 176.317C169.293 176.568 170.062 176.755 170.88 176.909C171.293 176.973 171.738 177.046 172.127 177.087L173.22 177.168H174.508C174.913 177.143 175.318 177.095 175.723 177.062C176.525 176.965 177.326 176.828 178.112 176.625C179.675 176.228 181.173 175.613 182.566 174.852C185.368 173.337 187.676 171.175 189.587 168.826C191.482 166.453 192.997 163.87 194.179 161.198C195.345 158.517 196.212 155.772 196.819 153.034C197.248 151.091 197.54 149.155 197.726 147.236C198.439 150.151 199.127 153.067 199.751 155.998L200.593 160.048L200.698 160.558L200.747 160.809L200.844 161.198C200.998 161.708 201.2 162.097 201.411 162.461C201.84 163.19 202.318 163.789 202.812 164.364C203.816 165.498 204.901 166.478 206.092 167.369C206.691 167.814 207.315 168.227 208.003 168.6C208.708 168.956 209.404 169.328 210.473 169.45C210.514 169.45 210.554 169.45 210.595 169.45C213.372 169.409 216.15 169.345 218.928 169.272C217.624 172.114 211.413 182.262 200.601 185.801C197.597 186.781 195.515 187.015 193.183 186.999C191.345 186.983 186.542 186.999 186.542 186.999H176.581C173.52 186.999 170.483 186.44 167.624 185.347L167.568 185.323C152.877 179.686 147.079 163.902 145.54 159.23C123.034 157.642 100.537 156.063 78.0312 154.476V154.322C78.0312 154.322 77.8692 154.322 77.6829 154.29C77.4643 154.257 77.1323 154.217 76.7031 154.16C75.7151 154.014 74.2573 153.796 72.4109 153.52C68.7018 152.937 63.3973 152.095 57.0319 151.091L56.7323 151.042L56.5784 151.018C56.5784 151.018 56.6027 151.018 56.6108 151.018H56.5703L56.4974 150.994C56.3112 150.953 56.0601 150.913 55.9305 150.872C55.6714 150.807 55.3556 150.71 55.0479 150.581C54.4323 150.329 53.8412 149.981 53.2986 149.544C52.2215 148.669 51.3711 147.422 50.9824 145.972C50.0754 142.425 49.055 138.611 47.9374 134.732C45.6941 126.957 43.054 118.721 39.7984 110.696C38.1544 106.695 36.3647 102.735 34.2509 99.0015C33.1901 97.1389 32.0563 95.3329 30.7849 93.6323C29.4972 91.9478 28.0719 90.3605 26.3631 89.1052C25.9177 88.8137 25.4723 88.5221 25.0107 88.2549C24.5247 88.0362 24.0389 87.769 23.5611 87.6151C22.5731 87.2588 21.504 87.0563 20.435 87.1211C19.9005 87.1616 19.3822 87.2345 18.872 87.4288C18.6453 87.5179 18.4266 87.5584 18.1837 87.688L17.4629 88.0605C16.5964 88.6193 15.8513 89.2915 15.252 90.0527C14.0373 91.5591 13.2599 93.2435 12.6201 94.8875C11.9884 96.5315 11.5349 98.1674 11.1543 99.7466C10.4173 102.905 10.0124 105.845 9.72891 108.452C9.44547 111.06 9.30777 113.344 9.2106 115.223C9.12152 117.102 9.09723 118.584 9.08102 119.588C9.08102 120.592 9.07294 121.135 9.07294 121.135C9.07294 121.135 9.09723 120.6 9.12964 119.588C9.17822 118.584 9.25107 117.11 9.39685 115.231C9.55072 113.36 9.76129 111.084 10.1257 108.501C10.4901 105.918 10.9842 103.002 11.8102 99.9085C12.2314 98.3617 12.7335 96.7744 13.3894 95.1952C14.0616 93.6322 14.8633 92.0287 16.0214 90.6925C16.5883 90.0203 17.2766 89.4454 18.0055 88.9999L18.5562 88.7246C18.7343 88.6274 19.0016 88.5788 19.2122 88.4978C19.5928 88.3521 20.0463 88.3035 20.4836 88.2873C22.2329 88.2468 24.047 89.0404 25.5371 90.1904C28.5497 92.5956 30.7525 96.1752 32.7042 99.8357C34.6478 103.529 36.2837 107.481 37.7819 111.473C40.7379 119.482 43.1026 127.719 45.0867 135.493C46.0828 139.397 46.9493 143.13 47.7673 146.774C48.2775 148.912 49.4761 150.823 51.0472 152.192C51.8327 152.88 52.7155 153.431 53.6387 153.844C54.1003 154.047 54.57 154.217 55.1045 154.371C55.3717 154.452 55.5256 154.476 55.7362 154.524L56.1006 154.597L56.4003 154.654C58.7731 155.108 60.9921 155.529 63.041 155.917C60.5143 162.607 56.1249 169.604 48.3342 173.807C48.3342 173.807 45.9128 174.779 44.9248 174.827C39.5393 175.07 34.9232 175.086 29.643 175.014C29.3433 175.014 29.0356 174.989 28.736 174.949C27.4078 174.771 26.2092 174.455 25.1241 174.05C11.4134 168.948 8.92715 147.236 8.60321 144.126C7.97156 143.867 7.09689 143.43 6.20605 142.693C4.10858 140.943 3.32306 138.635 2.13257 132.877C0.84491 126.633 0.205139 123.507 0.456177 121.629C0.974487 117.709 2.38361 117.191 3.0882 112.769L3.03146 112.817ZM398.236 138.457C398.26 138.692 398.268 138.943 398.309 139.17C398.373 139.623 398.471 140.077 398.616 140.522C398.892 141.405 399.337 142.247 400.001 142.944C400.325 143.292 400.746 143.592 401.248 143.754C401.499 143.826 401.758 143.867 402.018 143.859H402.163L402.228 143.835L402.366 143.802C402.439 143.794 402.601 143.729 402.714 143.689C403.597 143.26 403.937 142.555 404.212 141.964C404.706 140.733 404.804 139.68 404.876 138.943C404.933 138.206 404.917 137.785 404.917 137.785C404.917 137.785 404.925 137.364 404.876 136.627C404.804 135.898 404.706 134.837 404.212 133.614C403.945 133.023 403.581 132.319 402.73 131.897C402.504 131.8 402.301 131.735 401.985 131.727C401.88 131.727 401.823 131.711 401.678 131.727C401.54 131.752 401.37 131.776 401.256 131.825C400.762 131.986 400.341 132.286 400.017 132.634C399.353 133.331 398.916 134.173 398.632 135.056C398.349 135.947 398.219 136.837 398.211 137.817L398.236 138.457ZM283.788 142.352C284.21 142.96 284.647 143.559 285.092 144.15C285.991 145.341 286.947 146.499 287.959 147.633C288.461 148.191 288.996 148.75 289.538 149.293C290.057 149.811 290.615 150.378 291.255 150.913C292.527 151.957 294.017 152.767 295.612 153.253C296.414 153.496 297.232 153.666 298.074 153.747C298.487 153.788 298.965 153.812 299.321 153.804C299.791 153.804 300.115 153.779 300.52 153.771C302.067 153.723 303.613 153.666 305.176 153.617C311.412 153.407 317.737 153.196 324.07 152.978C327.237 152.872 330.403 152.775 333.553 152.67C336.744 152.565 339.854 152.33 342.972 152.168C349.2 151.811 355.322 151.463 361.25 151.123C362.732 151.042 364.206 150.953 365.656 150.872C367.186 150.799 368.701 150.386 370.037 149.69C371.373 148.993 372.547 148.013 373.454 146.855C374.394 145.681 374.92 144.345 375.455 143.089C375.981 141.818 376.443 140.538 376.831 139.259C376.929 138.935 377.018 138.619 377.115 138.303L377.245 137.825C377.293 137.631 377.325 137.429 377.325 137.226C377.325 136.416 376.888 135.639 376.216 135.242C376.046 135.145 375.868 135.056 375.681 135.007C375.511 134.951 375.244 134.918 375.115 134.91C374.75 134.902 374.467 134.91 374.143 134.91C373.511 134.918 372.888 134.926 372.272 134.934C371.033 134.951 369.826 134.967 368.636 134.983C363.882 135.04 359.533 135.096 355.67 135.137C351.807 135.185 348.446 135.193 345.677 135.185H336.963C336.963 135.185 333.796 135.283 328.257 135.453C325.487 135.526 322.118 135.606 318.264 135.655C314.401 135.72 310.044 135.785 305.298 135.866C300.544 135.939 295.402 136.028 289.959 136.206C288.599 136.246 287.222 136.295 285.821 136.335L285.295 136.352H285.036C284.947 136.368 284.768 136.384 284.647 136.4C284.088 136.481 283.545 136.765 283.132 137.161C282.315 137.963 281.982 139.21 282.541 140.417L282.606 140.547L282.711 140.725L282.857 140.951L283.157 141.413L283.772 142.328L283.788 142.352ZM228.363 142.158C228.363 142.668 228.46 143.284 228.638 143.98C228.824 144.669 229.124 145.438 229.642 146.207C230.177 146.969 230.906 147.689 232.031 148.159C233.019 148.58 234.404 148.702 235.643 148.264C236.898 147.859 238.032 147.009 238.842 145.916C239.263 145.373 239.587 144.766 239.838 144.134C239.903 143.972 239.968 143.818 240.016 143.656L240.162 143.122C240.275 142.709 240.275 142.587 240.356 142.158C240.51 140.806 240.389 139.397 239.862 138.133C239.368 136.87 238.486 135.76 237.392 135.04C236.842 134.667 236.259 134.432 235.611 134.286C235.457 134.254 235.271 134.205 235.141 134.197L234.752 134.173C234.396 134.157 234.145 134.173 233.845 134.205C232.703 134.359 231.764 134.87 231.068 135.461C230.371 136.06 229.877 136.724 229.513 137.34C229.164 137.963 228.913 138.538 228.776 139.024C228.622 139.51 228.533 139.899 228.492 140.166C228.452 140.433 228.427 140.579 228.427 140.579C228.427 140.579 228.411 140.725 228.387 140.992C228.355 141.259 228.346 141.664 228.363 142.166V142.158ZM219.511 116.591C221.997 117.296 225.561 118.276 229.853 119.345C231.999 119.887 234.323 120.479 236.793 121.045C239.255 121.629 241.855 122.252 244.551 122.851C247.248 123.459 250.034 124.074 252.877 124.665C255.719 125.249 258.602 125.848 261.485 126.439C261.874 126.512 262.133 126.569 262.433 126.65C262.724 126.731 263.008 126.828 263.283 126.941C263.834 127.168 264.368 127.451 264.854 127.8C265.105 127.978 265.292 128.132 265.559 128.358L266.352 129.071C266.879 129.549 267.397 130.035 267.907 130.529C269.94 132.497 271.835 134.546 273.568 136.619C275.293 138.7 276.88 140.781 278.273 142.847C278.622 143.357 278.962 143.875 279.286 144.377C279.448 144.636 279.61 144.887 279.764 145.138C279.893 145.365 280.023 145.592 280.152 145.819C280.63 146.742 280.922 147.738 281.035 148.718C281.254 150.686 280.8 152.565 279.982 154.014C279.553 154.751 279.116 155.31 278.557 155.909C278.055 156.428 277.512 156.922 277.034 157.327C276.063 158.144 275.245 158.752 274.67 159.132C274.095 159.513 273.787 159.716 273.787 159.716C273.787 159.716 274.135 159.594 274.775 159.311C275.407 159.027 276.346 158.598 277.455 157.902C278.022 157.545 278.605 157.165 279.269 156.654C279.861 156.209 280.557 155.521 281.132 154.759C282.282 153.221 283.141 151.05 283.092 148.588C283.076 147.365 282.841 146.078 282.339 144.831C282.209 144.523 282.063 144.215 281.918 143.907C281.772 143.64 281.626 143.365 281.48 143.089C281.181 142.531 280.873 141.98 280.549 141.421C279.253 139.186 277.779 136.886 276.071 134.643C274.37 132.391 272.459 130.164 270.369 128.051C269.843 127.524 269.317 126.998 268.774 126.488L267.956 125.718C267.673 125.459 267.292 125.143 266.944 124.9C266.239 124.39 265.47 123.969 264.66 123.629C264.255 123.459 263.842 123.321 263.421 123.2C263.008 123.078 262.546 122.989 262.214 122.916C259.323 122.357 256.432 121.799 253.581 121.24C250.731 120.697 247.92 120.195 245.199 119.717C242.478 119.231 239.838 118.81 237.336 118.405C234.841 117.984 232.469 117.628 230.274 117.312C225.901 116.656 222.232 116.186 219.665 115.879C217.098 115.571 215.624 115.433 215.624 115.433C215.624 115.433 217.041 115.879 219.527 116.575L219.511 116.591ZM157.647 47.2606C159.664 50.9372 161.648 54.6301 163.559 58.3635C163.964 59.1572 164.782 59.5864 165.608 59.5216L182.93 58.1773C184.032 58.3149 185.222 58.4526 186.518 58.6146C188.802 58.9223 191.377 59.2705 194.171 59.6836C195.572 59.8698 197.022 60.129 198.52 60.38C200.026 60.6149 201.573 60.8821 203.16 61.1737C204.748 61.4409 206.375 61.7568 208.036 62.0807C209.696 62.3965 211.388 62.7448 213.105 63.1173C216.539 63.8381 220.07 64.6722 223.641 65.5711C225.431 65.9841 227.213 66.5267 229.011 66.9965C230.816 67.45 232.598 68.025 234.388 68.5514C236.194 69.0454 237.959 69.6447 239.733 70.2115C240.616 70.5031 241.515 70.7622 242.381 71.07C243.248 71.3696 244.114 71.6693 244.981 71.9689C245.847 72.2685 246.706 72.5601 247.564 72.8597C248.431 73.1837 249.297 73.4995 250.156 73.8234C251.014 74.1393 251.864 74.4551 252.715 74.771C253.12 74.9248 253.525 75.0787 253.929 75.2245C254.342 75.3865 254.756 75.5403 255.16 75.7023C258.424 76.9899 261.566 78.2857 264.53 79.5733C267.486 80.861 270.28 82.1001 272.839 83.3067C275.382 84.5296 277.731 85.6472 279.796 86.6676C281.861 87.7123 283.651 88.6193 285.133 89.3644C288.097 90.8869 289.789 91.7534 289.789 91.7534C289.789 91.7534 289.425 91.4457 288.753 90.8545C288.064 90.2795 287.068 89.4211 285.748 88.4007C284.436 87.3721 282.825 86.125 280.922 84.7806C279.018 83.4282 276.856 81.93 274.419 80.4156C271.989 78.8769 269.317 77.2734 266.425 75.6942C263.534 74.115 260.433 72.5358 257.161 71.0214C256.748 70.8351 256.343 70.6408 255.93 70.4545L255.274 70.1548L254.65 69.8876C253.816 69.5394 252.982 69.183 252.14 68.8267C251.297 68.4704 250.447 68.114 249.597 67.7496C248.714 67.4176 247.823 67.0774 246.932 66.7454C245.151 66.0732 243.353 65.3768 241.531 64.8018C239.709 64.2025 237.895 63.5708 236.04 63.0444C232.355 61.9511 228.63 60.955 224.937 60.1452C223.091 59.7402 221.26 59.3191 219.43 59.0114C217.608 58.6794 215.81 58.3311 214.02 58.0963C212.239 57.8371 210.489 57.5537 208.764 57.3917C207.039 57.1973 205.363 56.9949 203.719 56.8815C203.419 56.8572 203.128 56.8329 202.836 56.8086L206.157 56.5819L216.304 55.9745L226.451 55.4319L236.607 54.9217L246.762 54.4682L256.918 54.0713L267.081 53.7069C273.86 53.4802 280.63 53.3182 287.417 53.1481C294.195 52.9699 300.973 52.8647 307.76 52.7513L328.111 52.484L317.94 51.9981L307.768 51.6256C304.375 51.5041 300.981 51.407 297.588 51.3422L287.408 51.1478C284.015 51.0749 280.622 51.0749 277.229 51.0425L267.041 51.0182C263.648 51.0425 260.246 51.0263 256.853 51.0749L246.665 51.2369L236.477 51.4555C233.084 51.5365 229.691 51.6256 226.298 51.7552L216.118 52.152L205.938 52.6136L195.766 53.14L185.587 53.7798L166.693 55.1565C164.976 51.8038 163.227 48.4672 161.405 45.1712C159.348 41.4621 157.234 37.7854 155.056 34.1492C151.306 27.8729 147.354 21.7018 143.256 15.6523C153.096 14.6967 162.96 13.895 172.832 13.2714C178.347 12.915 183.862 12.5749 189.385 12.3158L197.67 11.9513L205.954 11.6598L214.247 11.4168L222.54 11.2468C228.071 11.1739 233.602 11.1091 239.134 11.101L247.435 11.1334L255.735 11.2144L264.036 11.352L272.345 11.5383C266.83 11.0605 261.299 10.607 255.768 10.2668L247.467 9.77284L239.158 9.39221L230.849 9.10067C228.079 9.00349 225.31 8.963 222.532 8.90631L214.215 8.80103L205.898 8.77673C200.342 8.78483 194.803 8.89821 189.255 9.02778L180.938 9.27883C178.169 9.37601 175.391 9.4813 172.621 9.61087C161.534 10.1535 150.464 10.9066 139.401 11.8703C138.276 11.9675 137.433 12.9636 137.53 14.0893C137.563 14.4537 137.684 14.7858 137.879 15.0611L137.895 15.0854C142.633 22.0096 147.135 29.0795 151.411 36.3033C153.549 39.9072 155.622 43.5515 157.639 47.2282L157.647 47.2606ZM151.29 60.0723C151.314 59.8293 151.29 59.5945 151.209 59.3677V59.3515C149.33 53.6421 147.143 48.0299 144.576 42.5958C143.297 39.8829 141.92 37.1861 140.503 34.5703C139.093 31.9545 137.692 29.3225 136.21 26.7148C134.712 24.1071 133.157 21.4832 131.157 19.0375C130.655 18.4301 130.12 17.8389 129.553 17.272C129.262 16.9886 128.995 16.7051 128.663 16.4298C128.347 16.1625 128.015 15.8548 127.731 15.6442L127.294 15.3041L127.181 15.215L127.083 15.1421L127.019 15.1016L126.768 14.9315L125.78 14.2675C125.107 13.8545 124.419 13.4495 123.715 13.0851C120.88 11.6598 117.827 10.7366 114.75 10.2992C111.672 9.83763 108.57 9.78094 105.525 10.0239C102.472 10.2506 99.4759 10.7447 96.5199 11.4006C93.5721 12.0566 90.6648 12.8664 87.8141 13.7978C84.9554 14.7129 82.1533 15.7738 79.3755 16.8671C76.6059 17.9847 73.8524 19.0942 71.1151 20.3251C68.386 21.5561 65.7216 22.9328 63.1138 24.3986C60.5143 25.8725 57.9633 27.4356 55.5013 29.12C53.0394 30.8126 50.6504 32.5943 48.3261 34.465C46.0099 36.3438 43.799 38.3361 41.6367 40.3688C46.2205 36.5868 51.0391 33.1126 56.0925 30.0432C61.1378 26.9577 66.4261 24.3015 71.8683 22.0663C74.5893 20.9649 77.3833 19.9445 80.1611 18.9484C82.9469 17.9604 85.749 17.0371 88.5591 16.203C91.3774 15.3689 94.22 14.6481 97.0868 14.0974C99.9456 13.5386 102.837 13.1418 105.72 13.0041C107.161 12.9231 108.595 12.9312 110.028 12.9717C111.454 13.0608 112.879 13.158 114.272 13.409C117.066 13.8464 119.754 14.721 122.208 16.0086C122.816 16.3326 123.407 16.697 123.99 17.0614L124.84 17.6526L125.051 17.7984L125.107 17.8389L125.132 17.8551L125.229 17.9361L125.666 18.2843C126.711 19.1346 127.634 20.1065 128.509 21.2078C130.25 23.3782 131.748 25.8888 133.19 28.4317C134.623 30.9908 136.008 33.6066 137.401 36.2305C138.794 38.8463 140.114 41.4459 141.345 44.1184C143.434 48.6292 145.329 53.2372 146.981 57.9262L137.028 57.0597L124.354 56.015L111.68 54.9784L99.0062 53.9985L90.5595 53.3587C90.5595 53.3587 90.5676 53.2939 90.5757 53.2534C90.7701 52.152 91.0616 50.5485 91.4341 48.6454C92.1873 44.831 93.3291 39.7533 94.6978 34.7323C96.0583 29.7031 97.6375 24.7145 98.9333 21.0054C100.221 17.2963 101.177 14.8506 101.177 14.8506C101.177 14.8506 99.897 17.1424 98.1072 20.6572C96.3094 24.1719 94.0418 28.9257 91.9848 33.7928C89.9116 38.6519 88.049 43.6162 86.7532 47.382C86.1053 49.2609 85.587 50.8401 85.2307 51.9576C85.1092 52.3545 85.0039 52.6784 84.9149 52.9457L73.6418 52.1439L60.9516 51.2855L54.2866 50.8644C54.3028 50.8077 54.319 50.7591 54.3351 50.6943C54.5214 50.0545 54.7968 49.1232 55.145 48.0299C55.8415 45.8271 56.8781 42.9117 58.0604 40.0529C59.2347 37.1861 60.5628 34.384 61.6318 32.3027C62.6927 30.2295 63.4702 28.869 63.4702 28.869C63.4702 28.869 62.547 30.1242 61.2512 32.076C59.9474 34.0196 58.2872 36.6759 56.7728 39.4293C55.2503 42.1747 53.8654 45.0011 52.8936 47.1553C52.4077 48.2324 52.019 49.1394 51.7517 49.7792C51.5655 50.2327 51.4359 50.5323 51.3792 50.6781L48.2856 50.4837C47.411 50.3137 46.5445 49.9978 45.7346 49.5929C45.3297 49.3823 44.9329 49.1556 44.5603 48.8802C44.1878 48.613 43.8314 48.3214 43.5156 47.9813C43.3455 47.8193 43.1998 47.6412 43.0621 47.463C42.9082 47.2849 42.7867 47.0905 42.6653 46.8961C42.5276 46.7099 42.4304 46.4993 42.3251 46.2887C42.2198 46.0863 42.1227 45.8676 42.0417 45.649C41.7177 44.7743 41.5882 43.8268 41.6367 42.8874C41.5315 43.8268 41.5963 44.7905 41.8635 45.7137C41.9283 45.9486 42.0093 46.1673 42.1065 46.3859C42.1956 46.6046 42.2846 46.8313 42.4142 47.0338C42.5276 47.2443 42.641 47.4549 42.7868 47.6493C42.9245 47.8517 43.0621 48.0461 43.2241 48.2243C43.5318 48.6049 43.8882 48.9369 44.2607 49.2447C44.4388 49.4066 44.6494 49.5362 44.8357 49.682C45.0381 49.8197 45.2406 49.9492 45.4511 50.0707C46.2934 50.5566 47.1842 50.9372 48.1479 51.1802H48.1722H48.1965L60.8301 52.646L73.4718 54.0552L86.1135 55.4238L98.7632 56.7357L111.413 58.0234L124.071 59.2624L136.729 60.4853L149.387 61.6515C150.35 61.7406 151.209 61.0279 151.298 60.0642L151.29 60.0723ZM28.4039 51.9333C31.287 52.5488 33.9838 53.7231 36.6077 55.0836C39.2154 56.4604 41.8797 57.91 44.4793 59.3272C45.7751 60.048 47.0547 60.785 48.2856 61.5624C48.9011 61.9511 49.5085 62.3561 50.1158 62.7691C50.7232 63.1659 51.2739 63.6194 51.9704 64.0405C52.6588 64.4697 53.3471 64.9314 54.0598 65.2553C54.7643 65.5873 55.4689 66.0004 56.1897 66.2676L58.3439 67.1584L60.5143 67.9197C63.4135 68.9239 66.3532 69.7256 69.2849 70.4788C72.2246 71.2158 75.1805 71.8798 78.1446 72.4467C81.1005 73.0622 84.0727 73.5643 87.0367 74.0907C90.0088 74.5928 92.9809 75.0544 95.9531 75.5241C98.9333 75.9371 101.905 76.3502 104.886 76.7308L113.834 77.816L122.783 78.8121C125.763 79.1279 128.76 79.3871 131.74 79.6624C134.728 79.9459 137.717 80.1726 140.705 80.4237C143.693 80.6747 146.682 80.9258 149.67 81.1363L150.674 81.2092C149.743 82.173 148.852 83.1772 148.026 84.23C147.718 84.6349 147.354 85.1046 147.095 85.4852L146.682 86.0683L146.228 86.7405C145.653 87.607 145.143 88.4978 144.665 89.3968C143.693 91.1946 142.892 93.0573 142.219 94.9604C142.058 95.4382 141.863 95.9646 141.742 96.41L141.539 97.0984L141.337 97.8596C141.069 98.8315 140.851 99.8114 140.673 100.799C140.495 101.787 140.349 102.775 140.243 103.763C140.146 104.76 140.081 105.748 140.049 106.736C140.033 107.724 140.033 108.712 140.09 109.7C140.154 110.679 140.219 111.659 140.365 112.631C140.495 113.603 140.665 114.559 140.859 115.514C141.086 116.462 141.312 117.409 141.604 118.324C141.734 116.389 141.887 114.502 142.147 112.631C142.414 110.769 142.738 108.93 143.183 107.14C143.402 106.242 143.637 105.359 143.904 104.484C144.171 103.61 144.447 102.743 144.762 101.893C145.086 101.042 145.394 100.2 145.759 99.374L146.018 98.7829L146.317 98.135C146.52 97.6896 146.698 97.3413 146.892 96.9364C147.694 95.3329 148.593 93.7861 149.557 92.3041C150.043 91.5672 150.561 90.8545 151.079 90.158L151.452 89.6721L151.897 89.1133C152.205 88.7327 152.448 88.4654 152.739 88.1334C153.906 86.8296 155.128 85.5743 156.457 84.4486C157.768 83.2986 159.161 82.2377 160.619 81.2902L168.726 76.01L159.056 75.3622L150.115 74.7629C147.135 74.5766 144.155 74.3579 141.183 74.1231C138.211 73.8963 135.222 73.6939 132.25 73.4347C129.278 73.1918 126.306 72.9245 123.326 72.714L114.409 71.9527L105.509 71.1024L96.6252 70.1468C93.6693 69.8147 90.7133 69.4746 87.7574 69.1021C84.8096 68.7052 81.8618 68.3327 78.9382 67.8549C77.4724 67.6281 76.0066 67.4095 74.5489 67.1341C73.0992 66.8588 71.6253 66.6563 70.1838 66.3486C67.2845 65.7817 64.4015 65.1662 61.5913 64.3807L59.4939 63.7814L57.453 63.0768C56.1168 62.5747 54.7968 62.024 53.6225 61.3599C53.0151 61.0603 52.3591 60.6068 51.687 60.2343C51.0229 59.8536 50.3507 59.473 49.6786 59.1167C48.3261 58.3959 46.9494 57.7318 45.5807 57.1002C42.8192 55.853 40.1386 54.6139 37.3284 53.4559C34.5345 52.314 31.5785 51.326 28.5416 50.9696C25.5128 50.6133 22.4596 50.7186 19.5199 51.2936C22.5082 51.0911 25.5047 51.2774 28.3796 51.9333H28.4039ZM9.87469 144.814C10.4578 149.325 11.5186 153.982 13.5513 158.412C14.5555 160.623 15.8351 162.777 17.5844 164.648C18.459 165.579 19.4633 166.429 20.6294 167.077C20.921 167.239 21.2206 167.401 21.5365 167.522C21.8442 167.668 22.1682 167.774 22.4921 167.871C22.7998 167.984 23.1885 168.041 23.5448 168.114C23.9255 168.178 24.0956 168.178 24.5248 168.219C25.9177 168.251 27.2944 167.903 28.5011 167.304C29.7078 166.705 30.7525 165.878 31.6514 164.971C33.4492 163.133 34.745 160.987 35.7735 158.776C37.8386 154.354 38.8833 149.698 39.4826 145.187C40.0657 140.66 40.1467 136.279 39.9037 132.124C39.6527 127.978 39.0533 124.091 38.1949 120.576C37.3203 117.069 36.2351 113.927 34.9232 111.295C33.6193 108.671 32.1373 106.549 30.6229 105.083C29.8616 104.355 29.1004 103.796 28.3958 103.383C27.6831 102.978 27.0353 102.727 26.4927 102.573C25.9501 102.427 25.5209 102.354 25.2293 102.346C24.9378 102.322 24.792 102.306 24.792 102.306C24.792 102.306 24.6381 102.306 24.3547 102.306C24.0631 102.306 23.6339 102.346 23.0832 102.46C22.5325 102.573 21.8684 102.792 21.1396 103.164C20.4188 103.545 19.6333 104.079 18.8559 104.784C17.2848 106.193 15.7865 108.307 14.4584 110.922C13.1302 113.538 12.037 116.68 11.1543 120.187C10.2877 123.702 9.69647 127.589 9.45352 131.735C9.21057 135.874 9.29971 140.279 9.88278 144.798L9.87469 144.814Z" fill="#9CA5B3"/>
</svg>