<svg width="32" height="32" viewBox="0 0 32 32" fill="none" xmlns="http://www.w3.org/2000/svg">
<path d="M16.0795 28C14.2526 27.9882 12.5549 27.8906 10.8812 27.485C8.00029 26.7869 6.12453 24.9987 5.16362 22.1847C4.68495 20.7829 4.42131 19.3363 4.24348 17.8682C4.04964 16.2692 3.95538 14.6656 4.0205 13.0562C4.07308 11.7542 4.25652 10.4703 4.70411 9.23889C5.44347 7.2048 6.85176 5.84371 8.82494 5.05479C10.0502 4.5649 11.33 4.32098 12.6337 4.17534C14.3115 3.98789 15.9931 3.9627 17.6764 4.04342C19.3686 4.12455 21.0422 4.32315 22.6643 4.86135C25.4867 5.79768 27.1457 7.7592 27.7133 10.6918C28.0411 12.3856 28.0524 14.0937 27.9232 15.8077C27.8157 17.2328 27.6695 18.6525 27.3828 20.0542C27.0807 21.5308 26.6425 22.9562 25.838 24.2417C24.7484 25.9829 23.1429 26.9644 21.2076 27.4618C19.4849 27.9044 17.7272 27.9871 16.0795 28ZM15.6601 26.9369C17.5118 26.937 19.046 26.8576 20.546 26.4455C22.1188 26.0133 23.4169 25.1825 24.3257 23.7839C24.9144 22.8778 25.2955 21.8795 25.5572 20.8361C26.162 18.4253 26.3715 15.9687 26.3147 13.4882C26.2898 12.3972 26.1543 11.3169 25.8498 10.2632C25.2653 8.23981 24.024 6.82566 22.0797 6.05016C20.9113 5.58421 19.6917 5.36053 18.449 5.25143C16.824 5.10867 15.1976 5.10671 13.5719 5.24977C12.409 5.35217 11.2661 5.55036 10.1639 5.95839C8.34699 6.63119 7.05273 7.84715 6.36127 9.69173C5.93284 10.8348 5.74848 12.0295 5.69386 13.2429C5.61692 14.9493 5.69294 16.6516 5.93121 18.3439C6.11913 19.6792 6.38868 20.9935 6.87968 22.2558C7.73828 24.4633 9.27498 25.8832 11.5558 26.4722C13.0059 26.8466 14.4815 26.9416 15.6601 26.9369Z" fill="#151515"/>
<path d="M16.006 6.37987C17.388 6.40061 18.7593 6.4899 20.0988 6.88483C22.6033 7.62328 24.06 9.32262 24.5995 11.8711C24.9307 13.4355 24.904 15.0141 24.7623 16.5975C24.6492 17.8622 24.457 19.1107 24.0725 20.3222C23.595 21.8266 22.8628 23.1661 21.589 24.1394C20.6983 24.82 19.6813 25.2042 18.5918 25.3954C16.7742 25.7144 14.9547 25.7075 13.1445 25.3456C10.7288 24.8625 9.09276 23.4243 8.17689 21.1225C7.68497 19.8863 7.43132 18.593 7.27274 17.2769C7.13241 16.112 7.06841 14.9424 7.12783 13.7701C7.20069 12.3309 7.45761 10.9346 8.18443 9.66738C9.08155 8.10326 10.4781 7.24652 12.1639 6.80215C13.4245 6.46977 14.7122 6.39741 16.006 6.37987ZM20.3001 8.063C20.3001 8.24725 20.2984 8.39197 20.3004 8.53669C20.3281 10.508 20.367 12.4794 20.3799 14.4508C20.3858 15.3612 20.2276 16.2534 19.8784 17.0958C18.8804 19.503 17.7809 21.8623 16.585 24.1755C16.4362 24.4632 16.4915 24.5718 16.806 24.5507C17.3382 24.5149 17.8727 24.4812 18.3994 24.4008C19.5423 24.2262 20.577 23.7913 21.4382 22.9889C22.3709 22.12 22.9227 21.0174 23.2591 19.8049C23.8878 17.539 24.0519 15.231 23.7324 12.8986C23.5789 11.7777 23.2277 10.7191 22.5482 9.79589C21.9717 9.01265 21.229 8.45267 20.3001 8.063ZM15.5662 24.5549C15.4874 24.4056 15.4191 24.288 15.3615 24.1654C14.3537 22.0197 13.3397 19.877 12.3434 17.7258C11.8736 16.7115 11.6568 15.635 11.669 14.5115C11.6907 12.4998 11.7071 10.488 11.7255 8.4762C11.7261 8.40766 11.7256 8.33923 11.7256 8.24643C10.5194 8.69792 9.61902 9.45681 9.03273 10.5881C8.45786 11.6976 8.22122 12.8979 8.18942 14.1311C8.16405 15.1138 8.2043 16.1017 8.27748 17.0825C8.3695 18.3166 8.63019 19.5215 9.08888 20.6748C9.58957 21.9336 10.3326 22.9967 11.5026 23.7101C12.6684 24.4208 13.9616 24.6065 15.2889 24.6432C15.3746 24.6458 15.4621 24.5897 15.5662 24.5549ZM12.9112 7.7937C12.9252 7.85295 12.9309 7.89155 12.9432 7.92778C13.151 8.53659 13.3659 9.14301 13.5669 9.75419C14.2852 11.9385 15.1403 14.0768 15.7132 16.3099C15.7309 16.3788 15.7599 16.4488 15.7999 16.5068C15.9158 16.675 16.1401 16.6533 16.2178 16.4626C16.4148 15.9789 16.6235 15.4988 16.7929 15.0051C17.4555 13.0732 18.1051 11.1366 18.7585 9.20144C18.9145 8.73942 19.0671 8.27626 19.2281 7.79318C17.1069 7.44181 15.0178 7.43562 12.9112 7.7937Z" fill="#151515"/>
</svg>
