<svg width="32" height="32" viewBox="0 0 32 32" fill="none" xmlns="http://www.w3.org/2000/svg">
<path d="M15.9981 21.1779C15.5424 21.1779 15.0865 21.1885 14.631 21.175C14.1263 21.1601 13.6214 21.1326 13.1179 21.0933C12.5589 21.0498 12.0002 20.9972 11.4432 20.9304C9.94359 20.7506 8.4585 20.4773 6.99933 20.0547C5.91547 19.7408 4.85462 19.3544 3.85576 18.7903C3.24634 18.4461 2.67045 18.0474 2.20362 17.4879C1.92898 17.1589 1.71739 16.7911 1.63387 16.3477C1.53153 15.8042 1.66837 15.3192 1.94428 14.8722C2.26921 14.3457 2.71489 13.9587 3.19985 13.6223C4.05604 13.0282 4.99039 12.6223 5.95134 12.2819C6.92467 11.9371 7.91827 11.679 8.92348 11.4749C9.46487 11.3651 10.0097 11.2728 10.5551 11.1896C11.0111 11.1199 11.4697 11.0687 11.9283 11.0209C12.446 10.967 12.9646 10.9211 13.4833 10.8813C13.8005 10.857 14.1187 10.8481 14.4366 10.8375C14.917 10.8217 15.3974 10.801 15.8778 10.8001C16.3645 10.7991 16.8513 10.8185 17.338 10.8313C17.5438 10.8367 17.7496 10.8441 17.9551 10.8571C18.4466 10.8882 18.9383 10.9177 19.4291 10.958C19.8513 10.9927 20.2743 11.0268 20.6939 11.0871C21.413 11.1905 22.1315 11.3013 22.8467 11.4323C23.812 11.6092 24.7642 11.8537 25.7016 12.1628C26.56 12.446 27.3987 12.7841 28.1941 13.2398C28.7686 13.569 29.3105 13.9488 29.7587 14.4681C30.0494 14.8048 30.2746 15.1836 30.3644 15.6436C30.461 16.1391 30.3548 16.5936 30.1194 17.0174C29.8273 17.5434 29.4078 17.9322 28.9469 18.2724C28.2291 18.8024 27.443 19.1814 26.6314 19.5019C25.5625 19.9239 24.4654 20.235 23.3491 20.4639C22.7313 20.5906 22.1106 20.7019 21.4891 20.8052C21.1017 20.8696 20.7106 20.9095 20.3205 20.9542C19.9365 20.9981 19.5521 21.0367 19.1674 21.0728C18.9533 21.0929 18.7384 21.1066 18.5237 21.1164C17.8973 21.1452 17.2709 21.173 16.6444 21.1961C16.4293 21.2041 16.2136 21.1974 15.9981 21.1974C15.9981 21.1909 15.9981 21.1845 15.9981 21.1779ZM15.9971 19.5224C16.4747 19.5224 16.9521 19.5245 17.4297 19.5213C17.6105 19.5201 17.7914 19.5094 17.9719 19.4979C18.342 19.4746 18.7121 19.4499 19.0819 19.4219C19.3336 19.4027 19.5851 19.3808 19.8362 19.3536C20.1583 19.3188 20.4797 19.2767 20.8016 19.2393C21.0411 19.2115 21.2778 19.1716 21.4987 19.0604C21.8826 18.8671 22.0005 18.5524 21.8444 18.1262C21.7242 17.7981 21.5211 17.5312 21.2957 17.2839C20.0811 15.9506 18.8044 14.6925 17.4519 13.5262C17.1602 13.2747 16.866 13.0289 16.5164 12.8764C16.2958 12.7803 16.0697 12.724 15.8314 12.7692C15.4393 12.8436 15.1066 13.0566 14.7984 13.3162C13.9956 13.9921 13.2151 14.6982 12.4705 15.4488C11.8453 16.0789 11.2353 16.7272 10.6272 17.377C10.3991 17.6207 10.2105 17.9021 10.1203 18.2454C10.0366 18.5637 10.1238 18.8152 10.3823 18.9881C10.4612 19.041 10.5473 19.0937 10.6362 19.1138C10.9159 19.1768 11.197 19.2403 11.4806 19.2744C12.0283 19.3403 12.5774 19.394 13.1269 19.4382C13.6087 19.4768 14.0915 19.5058 14.5742 19.5197C15.0481 19.5332 15.5228 19.5225 15.9971 19.5224ZM15.6538 11.5613C15.6297 11.5586 15.6056 11.5529 15.5816 11.5534C15.1603 11.561 14.739 11.5683 14.3177 11.5782C14.1806 11.5814 14.0433 11.5889 13.9065 11.5993C13.4124 11.637 12.9182 11.6737 12.4244 11.7169C12.0799 11.747 11.7347 11.7753 11.3924 11.8255C10.7724 11.9164 10.1529 12.014 9.53572 12.1256C8.56015 12.3019 7.59919 12.5487 6.65909 12.8847C6.00592 13.1182 5.36775 13.3917 4.77529 13.7774C4.36245 14.0462 3.97554 14.3505 3.70996 14.7995C3.42196 15.2863 3.41651 15.7804 3.69924 16.2748C3.82603 16.4965 3.98869 16.6834 4.17114 16.8506C4.59782 17.2418 5.08054 17.5341 5.59386 17.7614C6.09694 17.9842 6.60968 17.9717 7.11813 17.7623C7.39969 17.6464 7.63301 17.4461 7.87325 17.2573C9.7284 15.7998 11.5828 14.341 13.4402 12.8868C14.1262 12.3496 14.8124 11.8094 15.6538 11.5613ZM16.3376 11.5633C16.5429 11.6415 16.7383 11.7016 16.9228 11.7893C17.3938 12.013 17.8261 12.313 18.2417 12.6384C20.2859 14.2393 22.3275 15.8443 24.3689 17.4493C24.9356 17.8948 25.5599 18.0462 26.2278 17.8223C26.5547 17.7128 26.8633 17.5268 27.1663 17.3476C27.5547 17.118 27.9094 16.8335 28.1876 16.4513C28.6126 15.8674 28.6224 15.2299 28.1904 14.6546C28.0264 14.4361 27.83 14.2382 27.6227 14.0679C27.0443 13.5927 26.3833 13.2869 25.7063 13.0216C24.8427 12.6832 23.957 12.4311 23.0556 12.2468C22.5024 12.1336 21.9464 12.0349 21.39 11.941C21.0334 11.8809 20.6743 11.8365 20.3156 11.7936C19.9412 11.7489 19.5663 11.7095 19.1909 11.6775C18.8555 11.649 18.5194 11.6279 18.1831 11.6138C17.5942 11.5893 17.0049 11.5726 16.4158 11.5532C16.3923 11.5527 16.3688 11.5592 16.3376 11.5633Z" fill="#151515"/>
</svg>
