<svg width="32" height="32" viewBox="0 0 32 32" fill="none" xmlns="http://www.w3.org/2000/svg">
<g clip-path="url(#clip0_17_1448)">
<path d="M31.9993 14.229C31.8795 14.5724 31.6494 14.7861 31.3356 14.9169C30.8904 15.1026 30.4212 15.1662 29.9483 15.215C29.919 15.218 29.8897 15.22 29.8605 15.2211C29.4423 15.2365 29.0512 15.294 28.6634 15.5157C28.1327 15.8188 27.5152 15.8576 26.9135 15.9067C26.8696 15.9101 26.8257 15.9124 26.7818 15.9132C26.2818 15.9213 25.8043 15.9642 25.3258 16.1867C24.7548 16.4522 24.1092 16.4718 23.4835 16.504C22.8195 16.5382 22.154 16.5608 21.4889 16.5619C20.5339 16.5635 19.6654 16.8125 18.8959 17.4063C18.3527 17.8253 17.7687 18.169 17.0863 18.2922C15.6633 18.5488 14.321 18.3785 13.1473 17.4462C12.3489 16.8121 11.4492 16.5531 10.4518 16.5627C9.50744 16.5719 8.56304 16.5481 7.62577 16.4158C7.11115 16.3429 6.60142 16.247 6.14761 15.9608C6.09919 15.9301 6.02599 15.9332 5.96444 15.9335C5.24337 15.937 4.52681 15.8933 3.82602 15.7033C3.5171 15.6197 3.22357 15.5004 2.96007 15.3082C2.90977 15.2714 2.83358 15.2656 2.76751 15.2579C2.21949 15.1923 1.66809 15.1482 1.12457 15.0573C0.884718 15.017 0.651621 14.8992 0.430911 14.7861C0.215455 14.6756 0.0694412 14.4868 0 14.2275C0.227091 14.2401 0.444424 14.2559 0.661756 14.2635C2.61249 14.3326 4.56285 14.4135 6.51358 14.4646C8.21546 14.5091 9.91808 14.5144 11.62 14.5478C12.2648 14.5605 12.871 14.412 13.4592 14.1607C14.294 13.8043 15.1558 13.5883 16.0676 13.6006C16.8506 13.6113 17.6002 13.7759 18.3257 14.0709C18.7848 14.2574 19.2416 14.4638 19.7389 14.5071C20.1425 14.5424 20.5501 14.5482 20.9551 14.5401C23.5571 14.4883 26.1591 14.4369 28.7607 14.369C29.8214 14.3414 30.8814 14.2743 31.9418 14.2252C31.9561 14.2244 31.9707 14.2267 32 14.2286L31.9993 14.229ZM6.44189 15.6147C6.44039 15.6255 6.43889 15.6362 6.43776 15.6466C6.53761 15.6842 6.63445 15.7402 6.7373 15.7567C7.20462 15.8326 7.67231 15.9378 8.14264 15.9585C9.25632 16.008 10.3719 16.0218 11.4871 16.0364C11.9488 16.0425 12.3662 16.1653 12.7389 16.4392C12.993 16.626 13.2449 16.8167 13.4859 17.0204C14.8323 18.1579 17.1779 18.1648 18.537 17.0093C18.7664 16.8144 19.0062 16.6321 19.2476 16.4534C19.6271 16.1722 20.0516 16.0421 20.5246 16.0364C21.6398 16.0225 22.7553 16.008 23.869 15.9581C24.3397 15.937 24.807 15.8323 25.2743 15.7551C25.3798 15.7379 25.4789 15.6784 25.5806 15.6385C25.5431 15.6128 25.5146 15.6109 25.4864 15.6128C24.935 15.6504 24.3844 15.7076 23.8322 15.7221C22.5706 15.7551 21.3087 15.7663 20.0467 15.7893C19.8076 15.7935 19.5588 15.7705 19.3595 15.9761C19.3519 15.8733 19.3508 15.7878 19.3381 15.7045C19.3193 15.5825 19.3718 15.5441 19.4837 15.5422C19.9191 15.5357 20.3542 15.5177 20.7892 15.5157C22.8094 15.5069 24.8307 15.5207 26.8467 15.3611C27.3959 15.3178 27.9401 15.2104 28.4859 15.126C28.5771 15.1118 28.6634 15.065 28.7517 15.0331C28.6837 15.0028 28.6259 15.0047 28.5685 15.0113C27.2986 15.1601 26.0239 15.2299 24.747 15.2449C23.0252 15.2652 21.3034 15.2687 19.5813 15.2825C19.4743 15.2833 19.3673 15.3086 19.2502 15.3239C19.2194 15.2606 19.1755 15.1824 19.1429 15.0995C19.0944 14.976 19.1455 14.9061 19.2769 14.9084C19.311 14.9092 19.3448 14.9169 19.379 14.9199C19.7341 14.951 20.0888 15.002 20.4442 15.0082C21.1679 15.0205 21.8924 15.0136 22.6161 15.0059C25.0863 14.9798 27.5576 14.9737 30.0196 14.732C30.4941 14.6855 30.9621 14.5678 31.4325 14.4784C31.4861 14.468 31.5338 14.4277 31.5845 14.4013C31.4006 14.3786 31.2301 14.3909 31.0597 14.399C27.4578 14.5685 23.854 14.669 20.2483 14.6763C20.0389 14.6767 19.82 14.679 19.6222 14.6211C19.1113 14.4715 18.6027 14.3069 18.1058 14.1147C17.0825 13.7188 16.0379 13.6117 14.9621 13.8051C14.3796 13.9098 13.8376 14.1415 13.2899 14.3571C12.8264 14.5398 12.353 14.6836 11.8508 14.6771C10.0656 14.6545 8.27964 14.6453 6.49482 14.5962C4.50467 14.5417 2.51565 14.4492 0.526251 14.3744C0.492469 14.3733 0.458687 14.3802 0.424905 14.3832C0.465068 14.4308 0.506733 14.4592 0.551776 14.4703C0.798386 14.5321 1.04349 14.6061 1.29348 14.6456C2.4173 14.8225 3.55164 14.8812 4.68597 14.9096C6.69563 14.9595 8.70642 14.9836 10.7165 15.0097C11.2296 15.0162 11.7431 14.9955 12.2562 14.9771C12.4116 14.9717 12.5651 14.9265 12.7205 14.9111C12.8568 14.8977 12.9127 14.9783 12.8616 15.1072C12.829 15.1896 12.7839 15.2675 12.7577 15.3201C12.63 15.3063 12.5178 15.2836 12.4056 15.2833C11.0798 15.2775 9.75405 15.2844 8.42866 15.2694C6.83902 15.2518 5.24938 15.2131 3.66649 15.0373C3.53512 15.0228 3.40299 15.012 3.27124 14.9994C3.28438 15.04 3.30352 15.0554 3.32492 15.0623C3.42739 15.0957 3.52874 15.1336 3.63346 15.1574C4.454 15.3431 5.28992 15.401 6.12546 15.4225C8.17905 15.4751 10.2334 15.505 12.2873 15.5422C12.6743 15.5491 12.6743 15.5457 12.6541 15.9447C12.6541 15.9516 12.6436 15.9581 12.6634 15.9343C12.5129 15.8871 12.3804 15.8311 12.2427 15.8062C12.1139 15.7828 11.9795 15.7908 11.8478 15.7881C10.4199 15.7574 8.9917 15.731 7.56383 15.6938C7.18923 15.6842 6.815 15.6416 6.44076 15.614L6.44189 15.6147ZM0.204194 14.3491C0.19481 14.3637 0.185802 14.3786 0.176418 14.3932C0.279266 14.4872 0.369352 14.6069 0.487965 14.6694C0.699292 14.7803 0.920753 14.9 1.15085 14.9387C1.709 15.0331 2.27392 15.0834 2.8362 15.1524C2.89251 15.1593 2.96007 15.1601 3.00136 15.1919C3.31854 15.4359 3.68489 15.5537 4.064 15.6408C4.70736 15.7885 5.36086 15.8238 6.01774 15.8207C6.07479 15.8207 6.14423 15.8154 6.1874 15.8441C6.62244 16.1349 7.11753 16.2278 7.61714 16.3022C8.58331 16.4461 9.55698 16.4557 10.5307 16.4545C11.4987 16.4534 12.3823 16.71 13.1698 17.3028C13.4524 17.5153 13.752 17.711 14.0635 17.8748C14.8383 18.2826 15.6764 18.3225 16.5255 18.2638C17.2773 18.2116 17.9537 17.9484 18.5629 17.4973C18.6977 17.3975 18.8302 17.2924 18.9747 17.2095C19.2724 17.0388 19.567 16.8562 19.8812 16.7238C20.4322 16.4917 21.0208 16.4557 21.6105 16.4545C22.5549 16.4522 23.4989 16.4388 24.4354 16.2968C24.8956 16.227 25.3509 16.1353 25.7597 15.8856C25.8224 15.8472 25.9027 15.8269 25.9763 15.8219C26.4687 15.7881 26.9634 15.782 27.4533 15.7256C28.0092 15.6619 28.5542 15.5384 29.0185 15.1827C29.0531 15.1563 29.1101 15.1567 29.1574 15.1528C29.5133 15.1233 29.8698 15.1049 30.2246 15.065C30.6142 15.0208 30.9978 14.9418 31.3563 14.7692C31.5432 14.679 31.7095 14.562 31.8412 14.3406C31.7669 14.3583 31.7147 14.3541 31.6918 14.3786C31.4801 14.6084 31.1949 14.6825 30.9133 14.7289C30.3105 14.8275 29.7028 14.8942 29.0974 14.9756C29.0407 14.9832 28.9739 14.9859 28.9318 15.0182C28.6743 15.218 28.3752 15.322 28.0651 15.3619C27.3771 15.4505 26.6853 15.51 25.9954 15.5848C25.9158 15.5936 25.834 15.614 25.7604 15.6462C25.5728 15.7283 25.3975 15.8614 25.203 15.9005C24.7342 15.9945 24.2594 16.0843 23.7838 16.1081C22.8364 16.1553 21.8871 16.1653 20.9386 16.1748C20.2825 16.1818 19.6838 16.3548 19.1466 16.7411C18.9345 16.8934 18.724 17.048 18.5179 17.2084C17.876 17.7071 17.155 17.9761 16.3495 18.0248C15.2977 18.0885 14.327 17.8736 13.4795 17.1996C13.2903 17.0492 13.0947 16.9076 12.8992 16.766C12.5561 16.5182 12.1864 16.3183 11.7693 16.2516C11.4522 16.2009 11.1279 16.1837 10.8062 16.1791C9.65233 16.1637 8.49697 16.1833 7.34951 16.0252C6.98053 15.9742 6.61831 15.8948 6.29475 15.6853C6.2133 15.6324 6.11083 15.5963 6.01473 15.5867C5.42617 15.5276 4.83536 15.4908 4.24792 15.421C3.85943 15.3749 3.47656 15.2875 3.13724 15.065C3.06742 15.0193 2.98109 14.9879 2.89851 14.9763C2.29832 14.8919 1.69512 14.8275 1.09755 14.7289C0.816403 14.6825 0.530756 14.6088 0.318679 14.3798C0.295406 14.3548 0.243232 14.3583 0.204194 14.3487V14.3491Z" fill="#151515"/>
<path d="M15.988 17.7033C15.3217 17.6933 14.672 17.5556 14.0725 17.2157C13.7614 17.0392 13.4866 16.8167 13.2877 16.5094C12.9945 16.0567 13.008 15.5618 13.3267 15.1271C13.5463 14.8275 13.8361 14.6138 14.1671 14.468C15.3732 13.9367 16.5871 13.9351 17.8002 14.4423C18.0968 14.5662 18.3603 14.7492 18.578 14.9932C19.0273 15.4962 19.0494 16.1077 18.632 16.6387C18.2889 17.0753 17.8246 17.3242 17.3153 17.4961C16.8892 17.64 16.4493 17.6987 15.988 17.7037V17.7033ZM17.1445 17.1516C17.1929 16.8658 17.2406 16.5853 17.2882 16.303C17.2387 16.2769 17.1966 16.2546 17.1482 16.2293C17.1685 16.1867 17.1839 16.1511 17.2015 16.1165C17.2927 15.94 17.2912 15.7643 17.2057 15.5852C17.1415 15.4509 17.0822 15.3143 17.0262 15.1762C16.9568 15.004 16.8404 14.8889 16.6655 14.8298C16.527 14.783 16.39 14.7297 16.2567 14.669C16.0792 14.5885 15.9099 14.5919 15.735 14.6794C15.5999 14.7473 15.4602 14.8095 15.3176 14.8578C15.1393 14.918 15.0297 15.0308 14.9764 15.215C14.9381 15.3481 14.8867 15.4785 14.8296 15.6047C14.7426 15.7962 14.7474 15.9776 14.8431 16.1649C14.9085 16.2926 14.9681 16.425 15.0132 16.5612C15.0691 16.7292 15.1757 16.8232 15.3394 16.8719C15.4839 16.9149 15.6291 16.9655 15.7635 17.0342C15.9508 17.1305 16.1242 17.1316 16.3063 17.0246C16.4838 16.9203 16.4876 16.9249 16.6118 17.0937C16.6347 17.1247 16.6467 17.165 16.67 17.1957C16.7267 17.2709 16.7871 17.3434 16.8705 17.4478C16.917 17.31 16.9478 17.2195 16.9789 17.1274C17.0307 17.1347 17.0728 17.1409 17.1445 17.1512V17.1516Z" fill="#151515"/>
<path d="M15.2819 16.7081C15.4036 16.585 15.4895 16.5547 15.6273 16.6283C16.1805 16.9233 16.8532 16.5293 16.8933 15.8902C16.9016 15.7605 16.9512 15.6991 17.0728 15.6719C17.1681 15.7705 17.1591 15.8821 17.1111 15.9988C17.0506 16.1453 16.9883 16.2911 16.9294 16.438C16.8667 16.5949 16.7623 16.7024 16.6017 16.7561C16.491 16.7933 16.3866 16.8531 16.2748 16.8857C16.1648 16.9176 16.0405 16.9648 15.9373 16.9398C15.7215 16.888 15.5158 16.7937 15.2819 16.7077V16.7081Z" fill="#151515"/>
<path d="M16.7323 14.9994C16.6253 15.1018 16.5398 15.1624 16.4091 15.0857C16.3157 15.0308 16.3104 15.04 16.2627 15.1666C16.2612 15.0174 16.179 15.009 16.0826 14.999C15.619 14.9503 15.1735 15.2982 15.1491 15.7793C15.1419 15.9197 15.062 15.9915 14.9336 16.0214C14.8518 15.9155 14.8844 15.8131 14.9272 15.7095C14.9877 15.5629 15.0511 15.4172 15.1044 15.2675C15.1603 15.1106 15.2545 15.0063 15.4156 14.9591C15.5323 14.9249 15.6419 14.8647 15.7586 14.8306C15.8596 14.801 15.9737 14.7573 16.0687 14.7799C16.2883 14.8317 16.5 14.9196 16.7323 14.999V14.9994Z" fill="#151515"/>
<path d="M15.699 16.5102C15.7286 16.4614 15.7474 16.3928 15.7902 16.3671C16.0511 16.2117 16.3176 16.0655 16.5829 15.9182C16.6024 15.9075 16.6302 15.9121 16.6663 15.9082C16.6689 16.161 16.5405 16.3506 16.3487 16.4403C16.1659 16.5255 15.9437 16.522 15.7391 16.5577C15.7256 16.542 15.7125 16.5263 15.699 16.5105V16.5102ZM16.0702 16.3095C16.1738 16.3532 16.3314 16.2669 16.3859 16.1131C16.2864 16.1748 16.1873 16.2366 16.0702 16.3095Z" fill="#151515"/>
<path d="M16.2091 16.0172C15.8682 16.2101 15.5274 16.4027 15.1705 16.6049C15.1119 16.4572 15.0597 16.3248 15.0023 16.1791C15.0579 16.1449 15.1108 16.1127 15.1881 16.0647V16.4887C15.3705 16.4775 15.393 16.4534 15.3439 16.2884C15.3259 16.3252 15.3078 16.3624 15.2898 16.3993C15.2819 16.3958 15.2744 16.3924 15.2665 16.3889V16.1204C15.3011 16.1369 15.3285 16.1499 15.3735 16.1714V15.9623C15.3863 15.9623 15.3991 15.9623 15.4114 15.9623C15.4186 16.0977 15.4253 16.2335 15.4325 16.369L15.473 16.3736C15.4865 16.3084 15.5004 16.2427 15.5225 16.1353C15.5518 16.2147 15.5668 16.255 15.5815 16.2957C15.5916 16.2957 15.6017 16.2961 15.6123 16.2965V15.8315C15.6734 15.8031 15.7121 15.7847 15.7508 15.7666C15.6457 15.8522 15.6239 16.1115 15.7185 16.2497C15.7335 16.1979 15.7463 16.1549 15.7616 16.1023C15.7797 16.1422 15.7947 16.1752 15.8097 16.2082C15.8232 16.1971 15.8371 16.1864 15.8506 16.1752V15.8487C15.86 15.8472 15.869 15.8457 15.8784 15.8441C15.8979 15.9285 15.9174 16.0126 15.9373 16.097C15.9456 16.097 15.9538 16.0966 15.9621 16.0962C15.9876 15.9589 16.0128 15.8211 16.0405 15.6704C16.0717 15.7237 16.0886 15.764 16.1152 15.7943C16.1411 15.8234 16.1775 15.843 16.2091 15.8668C16.1689 15.8921 16.1287 15.9178 16.0548 15.9646C16.1137 15.9846 16.161 16.0007 16.2083 16.0164L16.2091 16.0172Z" fill="#151515"/>
<path d="M16.3018 15.2879C15.9914 15.4643 15.6809 15.6408 15.3705 15.8173C15.3589 15.8035 15.3469 15.7897 15.3352 15.7762C15.348 15.5768 15.4527 15.4279 15.6092 15.3094C15.8206 15.1494 16.0492 15.167 16.2804 15.2253C16.2875 15.2461 16.2946 15.2672 16.3018 15.2879ZM15.9444 15.3972C15.9354 15.3796 15.926 15.3619 15.917 15.3443C15.8224 15.4152 15.7282 15.4858 15.6336 15.5568C15.6438 15.5718 15.6539 15.5863 15.6644 15.6013C15.7579 15.5334 15.8514 15.4651 15.9448 15.3972H15.9444Z" fill="#151515"/>
<path d="M16.7121 15.2092C16.8318 15.1075 16.8551 15.1106 16.9102 15.2434C16.95 15.3393 16.9853 15.4367 17.0311 15.5553C16.8123 15.6703 16.5972 15.7835 16.3821 15.8967C16.4632 15.8407 16.5439 15.7847 16.6246 15.7287L16.5728 15.7183C16.5713 15.6669 16.5634 15.614 16.5705 15.5637C16.5765 15.523 16.5187 15.3592 16.4786 15.3389C16.5582 15.2905 16.6381 15.2426 16.7177 15.1946C16.5856 15.345 16.664 15.5134 16.6565 15.6746C16.6711 15.6769 16.6858 15.6792 16.7004 15.6815C16.7098 15.6335 16.7192 15.5852 16.7286 15.5372C16.7582 15.5595 16.7879 15.5817 16.8145 15.6017C16.8288 15.5054 16.8431 15.421 16.8536 15.3366C16.8675 15.2249 16.825 15.1751 16.7121 15.21V15.2092Z" fill="#151515"/>
<path d="M16.6043 16.9237C16.7244 16.8673 16.8194 16.8224 16.9346 16.7683C16.896 16.9099 16.8614 17.0365 16.8153 17.2045C16.7346 17.0967 16.6734 17.0158 16.6043 16.9237Z" fill="#151515"/>
<path d="M16.3063 15.4248C16.3164 15.5906 16.3262 15.7563 16.3363 15.922C16.2958 15.9527 16.2556 15.9838 16.2151 16.0145C16.2474 15.9006 16.3145 15.7809 16.1674 15.693C16.1652 15.6919 16.1828 15.6493 16.1963 15.6297C16.2136 15.6044 16.2361 15.5829 16.2564 15.5599C16.2485 15.5503 16.2406 15.5411 16.2327 15.5315C16.1531 15.5572 16.0736 15.5829 15.994 15.6082C16.0983 15.5472 16.2023 15.4858 16.3067 15.4248H16.3063Z" fill="#151515"/>
<path d="M16.4835 15.335C16.4729 15.4425 16.4639 15.5499 16.4512 15.6569C16.4455 15.7026 16.4313 15.7475 16.4208 15.7927C16.4028 15.7904 16.3851 15.7885 16.3671 15.7862C16.3671 15.7106 16.3746 15.6335 16.3641 15.5595C16.3577 15.5134 16.3236 15.4716 16.3018 15.4279C16.3622 15.3972 16.423 15.3661 16.4835 15.3354V15.335Z" fill="#151515"/>
<path d="M17.1846 16.3586C17.1426 16.5612 17.1005 16.7641 17.0585 16.9667C17.0412 16.9636 17.024 16.9606 17.0067 16.9571C17.0472 16.7549 17.0878 16.5531 17.1283 16.3509C17.1471 16.3536 17.1659 16.3559 17.1846 16.3586Z" fill="#151515"/>
</g>
<defs>
<clipPath id="clip0_17_1448">
<rect width="32" height="32" fill="white"/>
</clipPath>
</defs>
</svg>
