<svg width="32" height="32" viewBox="0 0 32 32" fill="none" xmlns="http://www.w3.org/2000/svg">
<path d="M16.6609 6.88993C16.9659 6.97698 17.2649 7.11103 17.5579 7.29209C17.8188 7.46996 18.0409 7.63245 18.2242 7.77956C19.2476 8.59867 20.2216 9.44129 21.1933 10.3031C22.2697 11.2577 23.4234 12.3069 24.6546 13.4507C25.0612 13.8285 25.4346 14.2742 25.7207 14.732C25.9109 15.0367 26.0526 15.3583 26.1459 15.6969C26.2022 15.9523 26.2231 16.1989 26.2084 16.4368C26.2066 16.7943 26.1841 17.1456 26.1409 17.4906L26.0419 17.9254C24.8579 16.8856 23.5623 15.8184 22.2793 14.8717L22.0575 14.709L21.4119 14.2433L20.6692 13.731L20.4429 13.5821L19.6008 13.0529C18.9538 12.669 18.2889 12.293 17.5836 12.0135L17.4018 11.9461C16.5943 11.6109 15.7746 11.4947 14.9433 11.7707C14.4259 11.9424 14.0115 12.1038 13.6999 12.2547C13.0874 12.5439 12.5044 12.8643 11.9508 13.2157L11.0717 13.7728L10.9701 13.8385C10.764 13.976 10.5538 14.1199 10.3394 14.2702C9.1865 15.0786 8.06618 15.9279 6.97841 16.8181L5.67514 17.9066C5.62386 17.9496 5.59882 17.9381 5.60002 17.8723L5.60676 17.5149C5.60826 17.0901 5.60826 16.6661 5.60676 16.2427C5.60646 16.1455 5.64215 15.9754 5.71383 15.7322C5.8203 15.3701 5.96516 15.0233 6.1484 14.692L6.3369 14.3938C6.46406 14.2105 6.60892 14.0388 6.77147 13.879L7.29241 13.4054L7.84035 12.9171L9.11617 11.8142C10.8035 10.3741 12.4842 8.94614 14.1583 7.53017C14.3757 7.34621 14.5831 7.19997 14.7804 7.09145C15.0843 6.93592 15.4073 6.84162 15.7495 6.80854C16.0506 6.78446 16.3544 6.81159 16.6609 6.88993Z" fill="#151515"/>
<path d="M16.6109 14.1368C16.957 14.2195 17.2782 14.3666 17.5745 14.5781C18.5717 15.414 19.5674 16.2527 20.5616 17.0942C21.8371 18.1736 23.2647 19.4059 24.8443 20.7911C25.1355 21.0464 25.3455 21.2533 25.4741 21.4117C25.7744 21.7811 26.0039 22.1908 26.1629 22.6409C26.2097 22.7729 26.25 22.8902 26.2839 22.993C26.334 23.192 26.3644 23.3258 26.3752 23.3943C26.3923 23.5005 26.3979 23.6249 26.3919 23.7677L26.3937 24.8301L26.4 25.1783C26.4 25.1823 26.3988 25.1863 26.3966 25.1897C26.3944 25.1932 26.3913 25.1959 26.3875 25.1978C26.3838 25.1996 26.3796 25.2003 26.3755 25.2C26.3713 25.1996 26.3673 25.1981 26.364 25.1957L26.1939 25.0682C26.1229 25.0009 26.0518 24.9372 25.9807 24.8771C24.958 24.015 23.9098 23.1833 22.8361 22.3819C22.3803 22.0418 21.9037 21.7025 21.4065 21.3639L21.0389 21.1175L20.4221 20.7167L19.5593 20.1974C18.8488 19.7587 18.0977 19.3969 17.3059 19.112C17.1011 19.0383 16.8702 18.9778 16.6131 18.9305C16.3363 18.8774 16.058 18.8658 15.7782 18.8956C15.4549 18.9383 15.1415 19.0133 14.838 19.1207C14.4502 19.2576 14.0627 19.4237 13.6755 19.619L12.9094 20.0264L12.7047 20.1387L10.9889 21.2272C9.2959 22.4125 7.67788 23.685 6.13484 25.0447L5.97244 25.18C5.96104 25.1896 5.95325 25.1874 5.94905 25.1735L5.89011 24.9776C5.82773 24.5752 5.79474 24.1752 5.79114 23.7777C5.77615 23.5366 5.78845 23.301 5.82803 23.0709C6.00123 22.3636 6.40746 21.7221 6.90411 21.1776L7.24781 20.8155L7.87762 20.2288L8.19703 19.9332L8.84709 19.3361L9.1377 19.075L9.92047 18.3642L10.064 18.2371C11.3806 17.0504 12.3463 16.2072 12.9611 15.7075C13.5318 15.2439 13.9049 14.9447 14.0804 14.8101C14.2849 14.6531 14.5395 14.496 14.8443 14.3387C15.116 14.2145 15.398 14.1311 15.6905 14.0885C16 14.051 16.3068 14.0671 16.6109 14.1368Z" fill="#151515"/>
</svg>
