<svg width="32" height="32" viewBox="0 0 32 32" fill="none" xmlns="http://www.w3.org/2000/svg">
<path d="M15.1219 17.5983C14.6863 14.7751 13.83 12.0938 12.0884 9.74933C14.1363 7.96886 17.432 7.94479 19.9289 9.70979C18.2037 12.0426 17.3274 14.7046 16.872 17.524C17.1324 16.8217 17.3779 16.1136 17.6562 15.4182C18.3575 13.6656 19.335 12.0813 20.6852 10.7239C21.3404 10.0652 22.0839 9.82264 23.0173 10.0686C25.2559 10.6586 27.4144 11.4367 29.4315 12.5625C30.433 13.1216 30.5373 13.3505 30.2812 14.4183C30.0532 15.3678 29.7889 16.3092 29.5635 17.2593C29.0024 19.6259 27.5249 21.2779 25.2344 22.0868C23.5939 22.6663 21.8586 23.0771 20.1298 23.3137C16.5391 23.8051 12.9395 23.6523 9.38187 22.9427C7.66379 22.6 6.05306 21.9869 4.66712 20.8829C3.65043 20.0731 2.9735 19.0554 2.61978 17.8405C2.27542 16.6575 1.99725 15.4563 1.67131 14.2681C1.47804 13.5633 1.6703 13.0594 2.33615 12.6866C4.4563 11.5 6.70337 10.6403 9.07233 10.0579C9.96454 9.83854 10.6487 10.0866 11.2699 10.6942C12.9789 12.3658 14.0411 14.4005 14.7961 16.6113C14.9081 16.9392 15.0136 17.2693 15.1219 17.5983ZM17.4365 22.0645C17.92 22.0293 18.3438 22.0003 18.7672 21.9675C20.9661 21.7967 23.0527 21.2442 24.8437 19.9602C25.5514 19.4529 26.2428 18.7859 26.6391 18.0387C27.1102 17.1504 27.2956 16.1064 27.5303 15.1131C27.7307 14.2646 27.5072 13.8371 26.6415 13.6531C25.8972 13.4949 25.0564 13.3978 24.3346 13.573C20.3417 14.5415 17.6021 17.9387 17.4365 22.0645ZM14.6052 22.0462C14.5132 21.4719 14.4659 20.9652 14.348 20.4747C13.4865 16.8853 11.2866 14.4892 7.60436 13.5582C6.85404 13.3685 5.97003 13.5828 5.16776 13.7219C4.57286 13.8249 4.32232 14.2958 4.44881 14.8918C4.5884 15.5496 4.75979 16.2009 4.90298 16.858C5.20748 18.2552 6.02371 19.2616 7.23985 20.049C9.44562 21.4771 11.9006 21.9523 14.6052 22.0462Z" fill="#151515"/>
</svg>
