<svg width="32" height="32" viewBox="0 0 32 32" fill="none" xmlns="http://www.w3.org/2000/svg">
<path d="M9.57641 7.45616C10.943 7.35391 12.311 7.28271 13.6804 7.24255C13.7516 7.24054 13.8227 7.23754 13.8938 7.23354C14.062 7.22419 14.2271 7.22603 14.3937 7.22052C14.6633 7.21184 14.9291 7.21368 15.1969 7.20667C15.5848 7.19682 15.9734 7.20033 16.3615 7.20166C16.5793 7.20233 16.7313 7.20333 16.8177 7.20466C17.2272 7.21101 17.6367 7.22002 18.0462 7.2317C20.3428 7.2969 22.6344 7.44503 24.9212 7.67611C24.9566 7.67962 25.0054 7.70365 25.0422 7.72551C25.8047 8.18066 26.5425 8.67564 27.2558 9.21044C28.3393 10.023 29.3643 10.9616 30.1822 12.067C30.9853 13.1522 31.5928 14.5127 31.5995 15.9063C31.6 16.0387 31.6019 16.1758 31.5939 16.3035C31.4517 18.6065 29.96 20.4851 28.3445 21.9048C27.3227 22.8026 26.2032 23.58 25.0461 24.2741C24.9916 24.3068 24.9415 24.323 24.8745 24.3296C22.4164 24.576 19.9465 24.7352 17.4773 24.7814C17.1961 24.7867 16.9149 24.7908 16.6336 24.7936C16.0144 24.7998 15.6263 24.8015 15.4691 24.7986C15.1534 24.7929 14.8377 24.7871 14.5221 24.7812C14.2153 24.7754 13.9085 24.7688 13.6017 24.7612C13.5401 24.7597 13.4699 24.7522 13.4042 24.7498C11.3005 24.679 9.2012 24.5381 7.10621 24.3273C7.06411 24.3231 7.01353 24.3088 6.97703 24.2869C5.5252 23.4174 4.11578 22.418 2.90917 21.2006C1.90842 20.1907 0.995696 18.9408 0.609127 17.5248C0.286639 16.3432 0.337168 15.1733 0.760713 14.0149C0.960481 13.4687 1.22502 12.9479 1.55434 12.4523C2.03951 11.7222 2.60168 11.0787 3.22435 10.4889C4.35605 9.41721 5.63676 8.51838 6.95926 7.72484C7.01081 7.69397 7.05643 7.67795 7.11949 7.67161C7.93756 7.58928 8.75653 7.51746 9.57641 7.45616ZM30.4303 19.1701C30.6022 18.8946 30.7401 18.6 30.8864 18.3096C30.9348 18.2136 31.0165 18.0041 31.1314 17.6811C31.1426 17.6497 31.1521 17.6176 31.1599 17.585C31.2211 17.3285 31.2955 17.0687 31.3282 16.8085C31.3619 16.5396 31.3807 16.3298 31.3847 16.179C31.432 14.3773 30.5856 12.803 29.4529 11.5128C28.5085 10.437 27.3901 9.53403 26.2203 8.742C25.7948 8.45385 25.362 8.17776 24.9222 7.91375C24.9051 7.90341 24.8834 7.89695 24.8572 7.8944C22.0908 7.6197 19.3064 7.44882 16.5936 7.42662C15.073 7.41416 13.4963 7.45032 11.8633 7.53509C10.276 7.61754 8.69138 7.73919 7.10957 7.90007C7.09783 7.90129 7.08892 7.90374 7.08284 7.90741C6.06847 8.51671 5.08564 9.18641 4.16812 9.9454C3.15536 10.783 2.22087 11.7519 1.53033 12.8991C0.943673 13.8735 0.555824 15.0392 0.621452 16.2025C0.624014 16.2494 0.633938 16.3055 0.636499 16.3584C0.639594 16.4245 0.641728 16.4636 0.642902 16.4756C0.812096 18.1968 1.73858 19.627 2.86467 20.8341C3.23358 21.2295 3.67031 21.6363 4.17485 22.0547C5.09013 22.8133 6.07072 23.4834 7.0846 24.0895C7.09346 24.0948 7.10317 24.098 7.11373 24.099C8.85102 24.2765 10.5917 24.4054 12.3357 24.4858C14.4704 24.5843 16.4208 24.6012 18.4624 24.5334C20.6024 24.4624 22.7381 24.32 24.8693 24.106C24.8869 24.1042 24.9032 24.0989 24.918 24.09C26.4468 23.1755 27.9126 22.1084 29.1462 20.8176C29.1954 20.7662 29.2504 20.7163 29.2954 20.6669C29.508 20.4334 29.7119 20.1921 29.9071 19.9429C30.0975 19.6998 30.2661 19.4333 30.4303 19.1701Z" fill="#151515"/>
<path d="M24.1492 18.9409C24.1487 18.9445 24.1476 18.9479 24.1458 18.951C24.143 18.9555 24.1394 18.9592 24.1351 18.9622C24.1296 18.9661 24.1263 18.9716 24.125 18.9786C24.1242 18.983 24.1224 18.987 24.1197 18.9904C24.1018 19.0129 24.0864 19.0371 24.0736 19.063C24.0711 19.0682 24.0676 19.0728 24.0635 19.0765C24.0583 19.0813 24.0512 19.0906 24.0424 19.1044C23.947 19.2531 23.8357 19.397 23.6898 19.584C23.6368 19.6518 23.5814 19.724 23.5186 19.782C23.5082 19.7916 23.5055 19.8093 23.4933 19.8218C23.361 19.96 23.2289 20.0984 23.097 20.2369C23.0912 20.2429 23.0874 20.2441 23.0799 20.2464C23.0757 20.2478 23.0721 20.2502 23.069 20.2534C23.0336 20.291 23.0013 20.3305 22.9584 20.3592C22.9334 20.3759 22.9081 20.4103 22.8804 20.435C22.4109 20.8526 21.9157 21.2068 21.3948 21.4974C21.2191 21.5955 21.0409 21.6873 20.8624 21.7801C20.8554 21.7839 20.848 21.7832 20.8416 21.7866C20.7394 21.8381 20.636 21.8869 20.5314 21.9331C20.2945 22.0377 20.0543 22.1332 19.8108 22.2198C19.7562 22.2392 19.6555 22.2732 19.5084 22.3219C19.5084 22.3219 19.5035 22.3243 19.4972 22.3278C19.4936 22.3298 19.4895 22.3306 19.485 22.3303C19.4798 22.3298 19.4747 22.3305 19.4698 22.3323C19.3952 22.3586 19.3198 22.382 19.2436 22.4022C19.2264 22.4069 19.2108 22.4192 19.1865 22.4164C19.1838 22.4161 19.1811 22.4166 19.1787 22.4179C19.1763 22.4192 19.1743 22.4211 19.1729 22.4236C19.1681 22.432 19.1613 22.4342 19.1524 22.4302C19.1471 22.4278 19.1417 22.4279 19.1364 22.4306C19.11 22.4434 19.0825 22.4515 19.0536 22.4549C19.0487 22.4556 19.0445 22.4577 19.0408 22.4613L19.0372 22.4649C19.0358 22.4663 19.0342 22.4672 19.0324 22.4677C19.0307 22.4682 19.0288 22.4681 19.0271 22.4676C19.0136 22.4637 19.002 22.4663 18.9923 22.4753C18.9882 22.4792 18.9834 22.4805 18.9779 22.4793C18.9587 22.4755 18.9499 22.4856 18.9363 22.4893C18.9108 22.4962 18.8851 22.5021 18.8592 22.507C18.856 22.5075 18.8531 22.509 18.8508 22.5112C18.8444 22.5174 18.8364 22.519 18.8267 22.516C18.8242 22.5152 18.8216 22.515 18.819 22.5154C18.8165 22.5158 18.814 22.5167 18.8118 22.5182C18.7908 22.5324 18.7719 22.5274 18.7518 22.5332C18.6841 22.5535 18.6156 22.5695 18.5462 22.5813C18.541 22.5822 18.5362 22.5842 18.5318 22.5873C18.5217 22.5945 18.5129 22.5909 18.5035 22.5929C18.1553 22.6699 17.7734 22.7332 17.3579 22.7829C17.2239 22.7989 17.0896 22.8081 16.9556 22.8234C16.9061 22.8289 16.8597 22.8243 16.8096 22.8323C16.7598 22.84 16.7064 22.8418 16.6496 22.8376C16.6275 22.8359 16.606 22.8493 16.5844 22.8498C16.4892 22.8513 16.3941 22.8518 16.299 22.8513C16.2908 22.8511 16.2809 22.8598 16.2697 22.86C16.1015 22.8643 15.9334 22.8642 15.7653 22.8598C15.7565 22.8596 15.7352 22.8576 15.7015 22.8538C15.6107 22.8434 15.491 22.8546 15.3844 22.8431C15.3181 22.8358 15.2557 22.8424 15.1881 22.8321C15.13 22.8232 15.0759 22.8281 15.0167 22.8187C14.9658 22.8107 14.92 22.8162 14.867 22.8057C14.8262 22.7977 14.791 22.8042 14.7486 22.793C14.7157 22.7844 14.6809 22.7909 14.6474 22.7852C14.6345 22.7831 14.6176 22.7809 14.5967 22.7785C14.2538 22.7403 13.881 22.6772 13.4782 22.5894C13.4635 22.5863 13.4478 22.5761 13.4264 22.5786C13.4211 22.5792 13.4162 22.5779 13.4118 22.5748C13.3884 22.5577 13.3667 22.5753 13.3459 22.5572C13.3417 22.5537 13.337 22.5525 13.3316 22.5537C13.3181 22.557 13.3061 22.5538 13.2956 22.5442C13.2935 22.5422 13.2909 22.5408 13.2881 22.5402C13.2853 22.5395 13.2824 22.5396 13.2796 22.5404C13.2698 22.5434 13.2614 22.5414 13.2545 22.5345C13.2524 22.5326 13.25 22.5311 13.2474 22.5301C13.2448 22.5292 13.2419 22.5288 13.2391 22.529C13.2092 22.5314 13.1824 22.5177 13.1613 22.5128C13.0584 22.4887 12.9565 22.4612 12.8554 22.4304C12.8511 22.4291 12.8469 22.429 12.8428 22.4301C12.8365 22.4316 12.8313 22.4298 12.8272 22.4246C12.8239 22.4204 12.8197 22.4182 12.8146 22.4177C12.7787 22.4144 12.7413 22.397 12.7147 22.3899C12.6896 22.3832 12.6647 22.376 12.6398 22.3683C11.352 21.9705 10.1389 21.3432 9.11394 20.4306C9.03284 20.3584 8.97633 20.3047 8.94443 20.2696C8.93173 20.2557 8.92079 20.2468 8.91161 20.2431C8.90813 20.2416 8.90502 20.2395 8.90249 20.2367C8.78606 20.1147 8.66964 19.9926 8.55322 19.8704C8.51336 19.8287 8.47382 19.7706 8.4274 19.7252C8.41598 19.714 8.40254 19.697 8.38706 19.6741C8.37074 19.6498 8.344 19.6284 8.32784 19.6081C8.18452 19.4272 8.08891 19.3008 8.04099 19.2289C7.97931 19.1363 7.91747 19.0439 7.85547 18.9515C7.85323 18.9482 7.85179 18.9445 7.85115 18.9404C7.85083 18.9378 7.84997 18.9354 7.84859 18.9332C7.84731 18.9312 7.84549 18.9302 7.84314 18.9302C7.71338 18.9298 7.58356 18.9295 7.45369 18.929C7.44377 18.929 7.43849 18.926 7.43064 18.921C7.42606 18.9181 7.42109 18.9167 7.41576 18.9167C7.20223 18.9167 6.98869 18.9166 6.77516 18.9163C6.75723 18.9163 6.74699 18.9048 6.7305 18.905C6.53137 18.9063 6.3323 18.9057 6.13328 18.9031C6.12079 18.903 6.11487 18.8973 6.10094 18.8971C5.91142 18.8947 5.72184 18.893 5.53221 18.8921C5.51701 18.892 5.51301 18.8808 5.49956 18.8808C5.32615 18.8798 5.15269 18.8794 4.97917 18.8798C4.97405 18.8799 4.96936 18.8784 4.96509 18.8754C4.95772 18.8703 4.95255 18.8678 4.94956 18.8679C4.78906 18.8685 4.62857 18.8681 4.46807 18.8668C4.45702 18.8668 4.45462 18.8643 4.44598 18.8588C4.4415 18.8559 4.43659 18.8544 4.43125 18.8544C4.28997 18.8554 4.14868 18.855 4.00739 18.8532C3.99266 18.8531 3.98754 18.8427 3.97505 18.8429C3.79951 18.844 3.66644 18.8434 3.57584 18.8411C3.57136 18.841 3.56592 18.839 3.55951 18.8352C3.55503 18.8324 3.55018 18.8311 3.54495 18.8312C3.43311 18.832 3.32133 18.8313 3.2096 18.8292C3.19135 18.8289 3.18127 18.8177 3.16494 18.8177C3.07445 18.8184 2.98401 18.8181 2.89362 18.817C2.88642 18.817 2.88242 18.8145 2.87681 18.8107C2.87276 18.8079 2.86828 18.8066 2.86337 18.8067H2.75852C2.75308 18.8067 2.74886 18.8042 2.74588 18.7993C2.69391 18.7111 2.64375 18.6219 2.59541 18.5317C2.59157 18.5245 2.58645 18.5221 2.58261 18.5131C2.56777 18.4779 2.55096 18.4436 2.53218 18.4103C2.50412 18.3607 2.47808 18.3099 2.45407 18.2578C2.43838 18.2239 2.40077 18.167 2.38316 18.1178C2.35947 18.0517 2.32665 17.9898 2.29656 17.9269C2.29528 17.9241 2.29464 17.9214 2.29464 17.9187L2.29496 17.9142C2.29517 17.9114 2.29464 17.9088 2.29336 17.9063C2.27863 17.8763 2.23781 17.8081 2.23589 17.7772C2.23557 17.7717 2.23392 17.7667 2.23093 17.7622C2.21428 17.7365 2.21172 17.7084 2.19796 17.6832C2.18643 17.6622 2.17699 17.6404 2.16962 17.6178C2.15159 17.5628 2.13345 17.508 2.1152 17.4533C2.08308 17.3569 2.05123 17.2604 2.01964 17.1639C2.00987 17.134 2.00555 17.0923 1.98955 17.0581C1.98731 17.0532 1.98688 17.0481 1.98827 17.0427C1.99083 17.0328 1.98843 17.0244 1.98106 17.0175C1.97647 17.0132 1.97439 17.0078 1.97482 17.0015L1.97562 16.9887C1.97605 16.9824 1.9745 16.9767 1.97098 16.9716C1.95641 16.9509 1.97082 16.9317 1.95433 16.9114C1.9506 16.9069 1.94969 16.9019 1.95161 16.8964C1.95545 16.885 1.95278 16.875 1.94361 16.8663C1.94152 16.8644 1.93997 16.8618 1.93913 16.859C1.93828 16.8562 1.93817 16.8532 1.9388 16.8503C1.94286 16.8323 1.94019 16.816 1.9308 16.8014C1.92792 16.7968 1.92696 16.7918 1.92792 16.7864C1.93016 16.7748 1.92781 16.7644 1.92088 16.755C1.91757 16.7507 1.91602 16.7457 1.91623 16.7402L1.91735 16.6946C1.91745 16.6923 1.91694 16.6899 1.91587 16.6879C1.9148 16.6858 1.91321 16.684 1.91127 16.6828C1.90338 16.6776 1.90081 16.6701 1.90359 16.6602C1.9053 16.6544 1.90546 16.6487 1.90407 16.6429C1.89137 16.5867 1.88342 16.53 1.88022 16.4728C1.87979 16.4659 1.87702 16.4542 1.87189 16.4378C1.86389 16.4129 1.8743 16.3824 1.86709 16.3572C1.85301 16.3078 1.85733 16.2542 1.85797 16.2033C1.85829 16.1818 1.84724 16.1706 1.84708 16.1504C1.84623 16.0483 1.84612 15.9462 1.84676 15.8442C1.84676 15.8393 1.84788 15.8348 1.85013 15.8306C1.8513 15.8285 1.85253 15.8264 1.85381 15.8243C1.85615 15.8201 1.85738 15.8155 1.85749 15.8106C1.85802 15.7751 1.85813 15.7396 1.85781 15.7041C1.85733 15.6556 1.87478 15.6062 1.86789 15.5513C1.86757 15.5487 1.86832 15.5438 1.87013 15.5366C1.87131 15.532 1.87392 15.5288 1.87798 15.5269C1.88015 15.5259 1.88194 15.5242 1.88305 15.522C1.88415 15.5198 1.88451 15.5173 1.88406 15.5149C1.8759 15.4725 1.89078 15.4386 1.89174 15.4013C1.89313 15.3462 1.90124 15.2922 1.91607 15.2392C1.91757 15.2339 1.91773 15.2285 1.91655 15.223C1.91223 15.2022 1.93224 15.183 1.92792 15.1536C1.92707 15.1484 1.92792 15.1434 1.93048 15.1387L1.938 15.1257C1.94078 15.1207 1.94142 15.1155 1.93992 15.11C1.9364 15.0967 1.93982 15.0861 1.95017 15.0783C1.95265 15.0765 1.95442 15.0738 1.95516 15.0707C1.95589 15.0676 1.95554 15.0643 1.95417 15.0615C1.94841 15.0499 1.95044 15.0401 1.96025 15.0319C1.96263 15.0299 1.96436 15.0272 1.96519 15.0242C1.96602 15.0211 1.96592 15.0179 1.9649 15.0149C1.96105 15.0035 1.96281 14.9936 1.97018 14.9852C1.97434 14.9805 1.97626 14.975 1.97594 14.9687L1.97498 14.9487C1.97477 14.9437 1.97631 14.9394 1.97962 14.9358C1.98613 14.9288 1.98901 14.9207 1.98827 14.9114C1.98773 14.9058 1.98837 14.9003 1.99019 14.8949L2.01676 14.8132C2.01772 14.8104 2.01911 14.8078 2.02092 14.8053C2.02401 14.8013 2.02487 14.7965 2.02348 14.791C2.0222 14.7853 2.02241 14.7797 2.02412 14.7743C2.0635 14.6447 2.1199 14.4837 2.19332 14.2915C2.2105 14.2465 2.22362 14.2145 2.23269 14.1953C2.2344 14.1917 2.23515 14.1878 2.23493 14.1837C2.23472 14.1789 2.23637 14.1738 2.2399 14.1685C2.24886 14.1551 2.25686 14.1386 2.26391 14.1189C2.29416 14.0356 2.33546 13.9552 2.37467 13.8759C2.38076 13.8636 2.37884 13.8494 2.3862 13.8359C2.43966 13.7379 2.48955 13.638 2.53586 13.5362C2.53811 13.5311 2.5412 13.5269 2.54515 13.5233C2.54867 13.5201 2.55209 13.5153 2.55539 13.509C2.58826 13.447 2.62129 13.3851 2.65448 13.3234C2.6692 13.2962 2.6993 13.255 2.71242 13.2131C2.71564 13.2026 2.72243 13.1938 2.73149 13.1883C2.74056 13.1827 2.75126 13.1809 2.76156 13.183C2.79294 13.1897 2.82671 13.172 2.85745 13.1717C2.92489 13.1711 2.99228 13.1703 3.05961 13.1693C3.07258 13.169 3.08202 13.1588 3.09755 13.1588C3.20384 13.1586 3.31007 13.1586 3.41625 13.1587C3.42697 13.1587 3.42906 13.156 3.43738 13.1508C3.44175 13.1482 3.4465 13.1468 3.45163 13.1468C3.57307 13.1464 3.6945 13.1464 3.81594 13.1468C3.82203 13.1469 3.82715 13.1458 3.83131 13.1435C3.83377 13.142 3.83622 13.1404 3.83867 13.1386C3.84294 13.1354 3.84769 13.1338 3.85292 13.1338C4.01822 13.1339 4.18357 13.1339 4.34898 13.1338C4.36226 13.1338 4.36915 13.1253 4.38099 13.1251C4.52996 13.1231 4.67899 13.1217 4.82807 13.1209C4.8492 13.1208 4.8692 13.1109 4.89242 13.1106C5.02794 13.1089 5.16341 13.1084 5.29883 13.1089C5.33037 13.1091 5.36366 13.0973 5.40064 13.0971C5.53115 13.0966 5.6616 13.0966 5.79201 13.0969C5.80898 13.0969 5.81618 13.0856 5.83059 13.0856C5.98212 13.0851 6.1336 13.0848 6.28502 13.0846C6.28791 13.0846 6.29207 13.0824 6.29751 13.0781C6.30167 13.0747 6.30637 13.0731 6.3116 13.0731C6.4563 13.0716 6.601 13.0712 6.74571 13.0717C6.75414 13.0717 6.77169 13.0682 6.79837 13.061C6.83246 13.052 6.85823 13.0716 6.88801 13.0716C7.01137 13.072 7.13478 13.0721 7.25825 13.0717C7.26087 13.0717 7.26345 13.0711 7.26582 13.0699C7.26819 13.0688 7.27029 13.0672 7.27202 13.0652C7.27532 13.0613 7.27847 13.0594 7.28146 13.0594C7.46341 13.0603 7.6453 13.0603 7.82714 13.0594C7.83003 13.0594 7.83288 13.0586 7.83542 13.0571C7.83797 13.0557 7.84013 13.0536 7.8417 13.051L7.90253 12.9521C7.90552 12.9472 7.9092 12.9428 7.91357 12.9389C7.91902 12.934 7.92446 12.9265 7.9299 12.9163C7.97168 12.8382 8.03859 12.7581 8.09189 12.6809C8.13298 12.6212 8.17604 12.5631 8.22107 12.5065C8.239 12.484 8.26493 12.4434 8.29278 12.4162C8.31919 12.3903 8.332 12.3568 8.36177 12.3321C8.38066 12.3162 8.38658 12.2944 8.40163 12.2785C8.49073 12.1843 8.58021 12.0905 8.67007 11.9972C8.69792 11.9681 8.72097 11.9251 8.75634 11.8954C8.79305 11.8645 8.81466 11.8457 8.82117 11.8389C8.84091 11.8179 8.86076 11.7969 8.88072 11.7759C8.88856 11.7677 8.90105 11.7672 8.91113 11.757C8.9393 11.7282 8.96694 11.6988 8.99405 11.6689C9.00365 11.6584 9.02046 11.6555 9.03311 11.6422C9.06437 11.6093 9.09537 11.5762 9.12611 11.5431C9.12877 11.5402 9.13198 11.5381 9.13571 11.5369C9.13816 11.536 9.14062 11.5351 9.14307 11.5342C9.14553 11.5332 9.14772 11.5318 9.14964 11.5299C9.18901 11.4907 9.22519 11.4494 9.26761 11.4152C9.43141 11.2834 9.5957 11.1523 9.76046 11.022C9.80592 10.986 9.8549 10.9501 9.90741 10.9144C9.95767 10.8803 10.0077 10.8459 10.0576 10.8113C10.0972 10.7836 10.139 10.763 10.1789 10.7332C10.2115 10.7088 10.2524 10.6863 10.2874 10.6647C10.4016 10.5943 10.516 10.5244 10.6308 10.455C10.6731 10.4294 10.7082 10.4101 10.7359 10.3971C10.8003 10.3667 10.8397 10.3462 10.8914 10.3191C10.8938 10.3178 10.8964 10.3171 10.899 10.3171C10.9009 10.3171 10.9027 10.3171 10.9045 10.3171C10.9063 10.3172 10.908 10.3169 10.9096 10.316C10.9546 10.2918 10.9999 10.2682 11.0455 10.245C11.0482 10.2436 11.0509 10.2428 11.0538 10.2427C11.0585 10.2425 11.0629 10.2413 11.067 10.239C11.1101 10.2169 11.153 10.1944 11.1957 10.1716C11.2049 10.1664 11.2177 10.1686 11.2299 10.1613C11.2728 10.1356 11.317 10.1126 11.3624 10.0923C11.4685 10.0453 11.5754 10.0004 11.6831 9.95766C11.7743 9.92139 11.8652 9.88401 11.9557 9.84552C12.0155 9.82015 12.0762 9.79695 12.1378 9.77593C12.2196 9.74811 12.3013 9.72013 12.383 9.69198C12.3852 9.6912 12.3873 9.68987 12.3895 9.68798L12.393 9.68531C12.3947 9.68412 12.3968 9.68365 12.3989 9.68397C12.4229 9.68781 12.4399 9.67463 12.4572 9.66979C12.4868 9.66155 12.5163 9.65299 12.5455 9.64409C12.5495 9.64286 12.553 9.64086 12.5562 9.63808C12.5616 9.63363 12.5677 9.63224 12.5745 9.63391C12.5793 9.63502 12.584 9.63474 12.5887 9.63307L12.6862 9.59803C12.6913 9.59614 12.6966 9.59575 12.7019 9.59686C12.7081 9.59808 12.7136 9.5963 12.7184 9.59152C12.7222 9.58762 12.7268 9.58557 12.7322 9.58534L12.7511 9.58484C12.7565 9.58473 12.7614 9.58295 12.7658 9.5795C12.774 9.57316 12.7832 9.57094 12.7935 9.57283C12.7988 9.57372 12.8038 9.57283 12.8085 9.57016C12.8318 9.55681 12.8563 9.54919 12.8821 9.54729C12.8875 9.54685 12.8921 9.54474 12.8961 9.54095C12.9049 9.53278 12.9178 9.53628 12.9274 9.53411C12.9648 9.52543 13.0013 9.51403 13.0371 9.4999C13.0457 9.4964 13.0485 9.49756 13.0577 9.4984C13.0627 9.49884 13.0671 9.49745 13.0712 9.49423C13.0808 9.48644 13.0919 9.48399 13.1046 9.48688C13.1073 9.48749 13.1101 9.48737 13.1127 9.48652C13.1153 9.48567 13.1176 9.48412 13.1194 9.48204L13.1229 9.47787C13.1245 9.47605 13.1268 9.47497 13.1291 9.47487C13.1662 9.47309 13.202 9.46508 13.2365 9.45084C13.2417 9.44883 13.2469 9.44828 13.2524 9.44917C13.2619 9.45072 13.2705 9.44817 13.2782 9.44149C13.2821 9.43815 13.2866 9.43643 13.2918 9.43632C13.3004 9.43598 13.306 9.43765 13.3145 9.43431C13.3444 9.42263 13.3751 9.41462 13.4065 9.41028C13.4237 9.40795 13.4446 9.39493 13.4677 9.39977C13.4705 9.40034 13.4733 9.4003 13.4761 9.39964C13.4788 9.39897 13.4814 9.39771 13.4837 9.39593C13.4966 9.38592 13.5116 9.38319 13.5287 9.38775C13.5314 9.38853 13.5343 9.38858 13.5371 9.38791C13.5399 9.38725 13.5425 9.38587 13.5447 9.38392C13.5557 9.3739 13.5685 9.37079 13.5833 9.37457C13.5892 9.37602 13.5948 9.37501 13.6001 9.37157C13.6145 9.36189 13.6305 9.35883 13.6481 9.36239C13.6504 9.36286 13.6529 9.36276 13.6552 9.3621C13.6575 9.36143 13.6597 9.36022 13.6615 9.35855C13.6822 9.33919 13.7081 9.35688 13.7312 9.33986C13.7354 9.33674 13.7401 9.33563 13.7452 9.33652C13.7621 9.33975 13.7776 9.3368 13.7917 9.32768C13.7965 9.32445 13.8023 9.32321 13.808 9.32417C13.837 9.32868 13.8627 9.31599 13.8831 9.31266C13.9533 9.30131 14.0274 9.29413 14.0963 9.27628C14.1116 9.2721 14.1293 9.27577 14.1445 9.2726C14.2292 9.25547 14.3145 9.24295 14.4004 9.23505C14.4207 9.23322 14.443 9.22087 14.4646 9.22371C14.4947 9.2276 14.5214 9.2246 14.5446 9.21469C14.5497 9.21258 14.5549 9.21175 14.5603 9.21219C14.5791 9.21397 14.5976 9.21286 14.6157 9.20885C14.6552 9.19984 14.6821 9.20084 14.7186 9.19867C14.7228 9.19845 14.7266 9.19717 14.7302 9.19484L14.7343 9.19183C14.7388 9.18872 14.7437 9.18716 14.7489 9.18716H14.8224C14.8284 9.18716 14.834 9.18543 14.8392 9.18199C14.8416 9.18021 14.8442 9.1787 14.847 9.17748C14.8505 9.17581 14.8544 9.17498 14.8587 9.17498C14.8968 9.17487 14.9348 9.17503 14.9727 9.17548C14.979 9.17559 14.9842 9.17448 14.9885 9.17214C14.9916 9.17047 14.9946 9.16852 14.9976 9.1663C15.0007 9.16381 15.0045 9.16246 15.0084 9.16246L15.1326 9.16229C15.1379 9.1623 15.1431 9.16015 15.147 9.15629C15.1483 9.15495 15.1496 9.15373 15.151 9.15261L15.155 9.15111L15.3357 9.15028C15.3403 9.15028 15.3444 9.14878 15.348 9.14577L15.3528 9.1416C15.3551 9.13971 15.3577 9.13876 15.3607 9.13876H16.6456C16.6508 9.13876 16.6557 9.1401 16.6603 9.14277C16.6633 9.14455 16.6662 9.14627 16.6691 9.14794C16.672 9.14961 16.6751 9.15044 16.6785 9.15044C16.7309 9.15044 16.7833 9.15061 16.8356 9.15095C16.8407 9.15095 16.8452 9.15211 16.8492 9.15445C16.8512 9.15567 16.8532 9.1569 16.8551 9.15812C16.8596 9.16101 16.8644 9.16246 16.8695 9.16246H17.0027C17.0078 9.16246 17.0127 9.16422 17.0168 9.16747L17.0209 9.1708C17.0247 9.17381 17.0289 9.17531 17.0336 9.17531L17.1416 9.17481C17.1464 9.17481 17.1512 9.17625 17.1554 9.17898C17.1779 9.194 17.2337 9.18716 17.2615 9.18716C17.2668 9.18716 17.2716 9.18888 17.2757 9.19233C17.3049 9.21586 17.3774 9.18683 17.411 9.20752C17.4158 9.21041 17.421 9.21191 17.4267 9.21202L17.5223 9.21269C17.5278 9.21269 17.533 9.21419 17.5378 9.2172C17.5522 9.22621 17.5681 9.22827 17.5855 9.22337C17.5898 9.2222 17.5944 9.22279 17.5984 9.22504C17.6284 9.24206 17.661 9.23622 17.6873 9.24123C17.7178 9.2469 17.7482 9.25286 17.7785 9.25909C17.7974 9.26292 17.8211 9.25892 17.841 9.26626C17.8743 9.27844 17.8976 9.2681 17.9258 9.27928C17.9431 9.28618 17.9612 9.28868 17.9802 9.28679C17.9857 9.28623 17.9908 9.28718 17.9957 9.28963C18.015 9.29942 18.0357 9.30248 18.058 9.2988C18.0631 9.29804 18.0684 9.29885 18.0732 9.30114C18.0963 9.31227 18.1208 9.31549 18.1469 9.31082C18.1527 9.30982 18.158 9.31115 18.1627 9.31483L18.172 9.32217C18.1762 9.32562 18.1811 9.32679 18.1864 9.32567C18.2084 9.32122 18.2288 9.32462 18.2475 9.33585C18.2521 9.33854 18.2574 9.33937 18.2626 9.33819C18.2856 9.33285 18.3072 9.33552 18.3272 9.3462C18.3327 9.34909 18.3384 9.34998 18.3444 9.34887C18.3547 9.34698 18.3638 9.34959 18.3717 9.35671C18.376 9.36072 18.381 9.36244 18.3866 9.36189C18.4186 9.35888 18.4369 9.37507 18.4692 9.37307C18.475 9.37273 18.4799 9.37463 18.484 9.37874C18.4927 9.38764 18.5035 9.38992 18.5165 9.38558C18.5223 9.38369 18.5273 9.38514 18.5315 9.38992L18.5352 9.39393C18.5389 9.39827 18.5435 9.39999 18.5489 9.3991C18.5773 9.39493 18.5989 9.40828 18.6227 9.41145C18.652 9.41523 18.6804 9.42274 18.7081 9.43398C18.713 9.43598 18.7181 9.43659 18.7234 9.43582C18.7328 9.43437 18.741 9.43659 18.7479 9.44249C18.7529 9.44661 18.7586 9.44872 18.765 9.44883L18.786 9.44917C18.7878 9.44922 18.7895 9.44967 18.7911 9.45048C18.7926 9.45128 18.794 9.45243 18.7951 9.45384C18.8011 9.46152 18.8089 9.46374 18.8185 9.46052C18.8211 9.45963 18.8239 9.45939 18.8267 9.45982C18.8294 9.46026 18.8321 9.46135 18.8343 9.46302C18.8458 9.47125 18.8585 9.47476 18.8724 9.47353C18.8787 9.47298 18.8843 9.47476 18.8893 9.47887C18.8985 9.48677 18.9097 9.48911 18.9227 9.48588C18.9255 9.48519 18.9285 9.48539 18.9312 9.48646C18.9339 9.48753 18.9363 9.48942 18.9379 9.49189C18.9392 9.49367 18.9406 9.49512 18.9422 9.49623C18.9463 9.49923 18.9507 9.4999 18.9554 9.49823C18.9739 9.49172 18.981 9.50424 18.9938 9.50858C19.03 9.52082 19.0668 9.53027 19.1042 9.53695C19.1092 9.53784 19.1135 9.54017 19.117 9.54396C19.1188 9.54607 19.121 9.54763 19.1236 9.54863C19.1253 9.5493 19.1274 9.54935 19.1298 9.5488C19.1438 9.54524 19.1564 9.54807 19.1676 9.55731C19.1695 9.55883 19.1716 9.55991 19.1739 9.56049C19.1761 9.56106 19.1785 9.56112 19.1807 9.56065L19.1899 9.55881C19.1953 9.55759 19.2001 9.55892 19.2043 9.56281C19.2127 9.57049 19.2227 9.5735 19.2342 9.57183C19.2398 9.57105 19.2451 9.57199 19.2502 9.57466C19.2741 9.58779 19.2995 9.59541 19.3262 9.59753C19.331 9.59785 19.3356 9.59978 19.3392 9.60303C19.3517 9.61405 19.3619 9.60754 19.3751 9.61138C19.458 9.63563 19.5398 9.66333 19.6206 9.69449C19.6242 9.69593 19.628 9.69632 19.632 9.69565C19.6349 9.69521 19.6387 9.69582 19.6387 9.69582C19.7627 9.73687 19.8853 9.78188 20.0065 9.83083C20.242 9.92607 20.4752 10.0266 20.7064 10.1326C20.7646 10.1593 20.8227 10.1863 20.8807 10.2137C20.9729 10.2571 21.1179 10.3155 21.2324 10.3777C21.235 10.3793 21.2466 10.3838 21.2671 10.3914C21.2852 10.3981 21.2959 10.4118 21.3108 10.4191C21.4144 10.4704 21.5159 10.5258 21.6154 10.5853C22.0779 10.8623 22.5078 11.1862 22.9051 11.5567C22.9151 11.5661 22.9332 11.5853 22.9592 11.6145C22.9829 11.6412 23.0131 11.6652 23.0349 11.6881C23.1215 11.7792 23.2116 11.8862 23.3085 11.9641C23.3269 11.9788 23.3331 11.9997 23.3472 12.0143C23.4076 12.0776 23.4677 12.1412 23.5274 12.2051C23.5311 12.2091 23.5335 12.2154 23.5354 12.2206C23.5363 12.2229 23.5375 12.225 23.539 12.2268C23.7633 12.4903 23.968 12.7695 24.153 13.0644C24.156 13.0692 24.1603 13.0716 24.1658 13.0716C24.2887 13.0717 24.4111 13.0719 24.5328 13.0724C24.5874 13.0726 24.6422 13.0844 24.6878 13.0844C24.8538 13.0846 25.0199 13.0851 25.1859 13.0859C25.1995 13.0861 25.2063 13.0969 25.2183 13.0969C25.4027 13.0966 25.5871 13.0969 25.7716 13.0979C25.7889 13.0979 25.8008 13.1093 25.8163 13.1093C25.9981 13.1082 26.1799 13.1102 26.3616 13.1154C26.5622 13.1211 26.762 13.1216 26.9629 13.1228C26.9681 13.1228 26.9731 13.1242 26.9777 13.127C26.9804 13.1286 26.9831 13.1302 26.9859 13.1316C26.9886 13.1331 26.9915 13.1338 26.9947 13.1338C27.1773 13.1338 27.3599 13.1338 27.5425 13.1338C27.5532 13.1338 27.5551 13.136 27.5633 13.1418C27.5676 13.1447 27.5722 13.1461 27.5774 13.1461L28.1346 13.1478C28.1346 13.1478 28.1408 13.1499 28.1504 13.154L28.1544 13.156C28.1574 13.1578 28.1607 13.1587 28.1642 13.1587C28.3476 13.1587 28.531 13.1587 28.7143 13.1588C28.7361 13.1588 28.7513 13.1703 28.7713 13.1703C28.9546 13.1701 29.0992 13.1722 29.2051 13.1767C29.2218 13.1774 29.242 13.1818 29.2658 13.19C29.2709 13.1919 29.2752 13.1954 29.278 13.2001C29.2932 13.2258 29.301 13.254 29.3177 13.2777C29.3554 13.3317 29.3882 13.4028 29.4142 13.4482C29.4581 13.5254 29.4955 13.5986 29.5264 13.6677C29.5329 13.6822 29.5427 13.6894 29.5482 13.7009C29.583 13.774 29.618 13.847 29.653 13.92C29.6575 13.9293 29.6557 13.9368 29.6602 13.9465C29.6988 14.0311 29.7423 14.1172 29.7751 14.204C29.8118 14.3012 29.8486 14.3983 29.8854 14.4954C29.9005 14.535 29.9278 14.6207 29.9674 14.7526C29.9701 14.7616 29.9792 14.7713 29.9773 14.7849C29.9766 14.7903 29.9771 14.7955 29.9791 14.8005C29.9875 14.8233 29.9947 14.8464 30.0008 14.8699C30.004 14.8822 30.016 14.8933 30.0112 14.9119C30.0105 14.9147 30.0104 14.9176 30.011 14.9204C30.0116 14.9231 30.0128 14.9258 30.0146 14.928C30.023 14.9384 30.026 14.9509 30.0234 14.9654C30.0222 14.9716 30.0239 14.9769 30.0284 14.9814C30.035 14.9879 30.0371 14.9964 30.0348 15.0067C30.0343 15.0088 30.0343 15.0109 30.0349 15.0128C30.0355 15.0148 30.0365 15.0166 30.038 15.0179L30.0447 15.0241C30.0463 15.0256 30.0476 15.0277 30.0482 15.0299C30.0488 15.0321 30.0489 15.0345 30.0484 15.0368C30.0438 15.0562 30.0468 15.0738 30.0573 15.0893C30.0603 15.0937 30.0613 15.0985 30.0602 15.1039C30.0566 15.1218 30.0597 15.1381 30.0695 15.1528C30.0712 15.1553 30.0723 15.1582 30.0726 15.1612C30.073 15.1642 30.0726 15.1673 30.0716 15.1701C30.0677 15.1807 30.0698 15.1885 30.0778 15.1936C30.0803 15.1952 30.0822 15.1974 30.0834 15.2001C30.0845 15.2029 30.0849 15.2059 30.0844 15.2088C30.081 15.2274 30.0828 15.2452 30.09 15.2622C30.0922 15.2676 30.0936 15.2731 30.094 15.2789C30.0975 15.322 30.1102 15.3509 30.106 15.4064C30.1056 15.4119 30.1066 15.417 30.1092 15.4218C30.1252 15.4518 30.117 15.484 30.1225 15.5132C30.1293 15.5504 30.1327 15.5879 30.1326 15.6257C30.1325 15.6309 30.1337 15.6359 30.1363 15.6406C30.1606 15.684 30.1249 15.7724 30.1513 15.8205C30.1535 15.8246 30.1547 15.8289 30.1547 15.8335V16.1659C30.1547 16.1708 30.1535 16.1753 30.1511 16.1794C30.1358 16.2068 30.1422 16.264 30.1423 16.2961C30.1424 16.3091 30.1393 16.331 30.133 16.3617C30.1293 16.3804 30.1289 16.3998 30.1319 16.4199C30.1327 16.4252 30.1319 16.4305 30.1298 16.4354C30.1181 16.4638 30.1149 16.4936 30.1202 16.5247C30.1212 16.5304 30.1199 16.5362 30.1167 16.5409C30.1063 16.5557 30.1031 16.5725 30.1073 16.5913C30.1085 16.5966 30.1079 16.6018 30.1057 16.6067C30.0961 16.6275 30.0926 16.6494 30.0951 16.6724C30.0958 16.6784 30.0946 16.684 30.0918 16.6893C30.084 16.7041 30.0813 16.72 30.0837 16.7372C30.0846 16.7429 30.0833 16.7482 30.0799 16.7528C30.0626 16.7767 30.078 16.8009 30.0621 16.8258C30.0606 16.8282 30.0596 16.8309 30.0591 16.8338C30.0587 16.8366 30.0588 16.8395 30.0594 16.8423C30.062 16.8536 30.0593 16.8633 30.0514 16.8713C30.0493 16.8735 30.0478 16.8761 30.0471 16.8791C30.0463 16.882 30.0463 16.8851 30.0471 16.888C30.0506 16.9022 30.0479 16.9142 30.0391 16.9242C30.0373 16.9262 30.036 16.9287 30.0354 16.9313C30.0347 16.9339 30.0346 16.9366 30.0352 16.9393C30.0381 16.9525 30.0355 16.964 30.0272 16.9736C30.0238 16.9775 30.0227 16.9821 30.0237 16.9873C30.0262 16.9997 30.0238 17.0107 30.0165 17.0205C30.0133 17.0248 30.0118 17.0295 30.0119 17.0349L30.0124 17.0551C30.0124 17.0577 30.0119 17.0603 30.0108 17.0627C30.0098 17.0651 30.0082 17.0673 30.0063 17.0689C29.9995 17.0747 29.9973 17.0824 29.9994 17.092C30.0005 17.0972 29.999 17.1015 29.9951 17.1048C29.9882 17.1106 29.9859 17.1182 29.988 17.1277C29.9893 17.1332 29.989 17.1387 29.9871 17.1442C29.9717 17.1887 29.9569 17.2332 29.9427 17.2779C29.94 17.2864 29.941 17.29 29.9413 17.2987C29.9415 17.3041 29.9403 17.309 29.9376 17.3134C29.9214 17.3406 29.9107 17.3702 29.9056 17.4024C29.9046 17.4085 29.9019 17.4135 29.8974 17.4175C29.894 17.4207 29.8926 17.4248 29.8931 17.4301C29.8935 17.4344 29.893 17.4386 29.8917 17.4427C29.861 17.5285 29.8298 17.6141 29.7979 17.6994C29.7918 17.7158 29.7703 17.7511 29.7644 17.7788C29.7574 17.8112 29.7359 17.8399 29.7245 17.8706C29.6951 17.9512 29.6549 18.0277 29.6181 18.1051C29.608 18.1263 29.605 18.155 29.5869 18.178C29.5699 18.1992 29.5658 18.2136 29.56 18.2378C29.5587 18.2431 29.5563 18.2478 29.5528 18.252C29.5476 18.258 29.5415 18.2679 29.5345 18.2817C29.5148 18.3211 29.4956 18.3607 29.4769 18.4007C29.4654 18.4257 29.4412 18.4582 29.4281 18.4899C29.4126 18.5278 29.3874 18.5552 29.3737 18.5959C29.3719 18.6011 29.3689 18.6055 29.3647 18.6089C29.3479 18.6231 29.3458 18.643 29.3377 18.6573C29.311 18.7041 29.284 18.7506 29.2567 18.797C29.2537 18.8019 29.2495 18.8047 29.244 18.8055C29.209 18.8104 29.1712 18.8017 29.1369 18.8085C29.0449 18.827 28.9365 18.8184 28.8422 18.8177C28.8221 18.8175 28.8107 18.8292 28.7915 18.8295C28.6786 18.8313 28.5657 18.8319 28.453 18.8312C28.4486 18.8312 28.4446 18.8323 28.4411 18.8346C28.4392 18.8357 28.4374 18.8369 28.4357 18.8382C28.4322 18.8406 28.4282 18.8419 28.4241 18.8419C28.2914 18.843 28.1586 18.8435 28.0259 18.8432C28.0136 18.8431 28.0054 18.8532 27.9937 18.8534C27.8511 18.8547 27.7086 18.8552 27.566 18.8549C27.558 18.8549 27.5511 18.8584 27.5444 18.8626C27.5402 18.8652 27.5355 18.8666 27.5306 18.8666C27.3733 18.868 27.2161 18.8685 27.0589 18.8679C27.0434 18.8679 27.0335 18.8791 27.0203 18.8791C26.8449 18.8794 26.6694 18.8801 26.4939 18.8809C26.4908 18.8809 26.4876 18.8826 26.4843 18.886C26.4803 18.8898 26.4757 18.8918 26.4703 18.8918C26.284 18.893 26.0977 18.8934 25.9114 18.8928C25.8941 18.8928 25.8835 18.9038 25.867 18.9038C25.6661 18.9055 25.4652 18.9059 25.2644 18.9051C25.2549 18.9051 25.2413 18.9158 25.2277 18.9158C25.0124 18.9166 24.797 18.9168 24.5817 18.9165C24.5758 18.9165 24.5705 18.9183 24.5658 18.922L24.5596 18.9268C24.5576 18.9284 24.5555 18.9292 24.553 18.9292L24.1608 18.93C24.1539 18.93 24.15 18.9336 24.1492 18.9409ZM19.0053 15.9322C18.9813 15.9196 18.9605 15.898 18.936 15.8878C18.8443 15.8498 18.7504 15.8193 18.6541 15.7964C18.0545 15.654 17.4435 15.5556 16.8369 15.4508C16.8007 15.4445 16.7649 15.4373 16.7296 15.4289C16.6669 15.4139 16.6507 15.3338 16.671 15.2822C16.7464 15.0911 17.501 15.0898 17.67 15.0951C17.8667 15.1014 18.1068 15.1246 18.3905 15.1647C18.5988 15.1942 18.8057 15.2324 19.0111 15.2792C19.0238 15.2821 19.0344 15.2877 19.0429 15.2961L19.0466 15.298L19.0508 15.2975L19.0539 15.2947L19.0551 15.2906V14.7277C19.0551 14.7248 19.0542 14.722 19.0524 14.7197C19.0507 14.7175 19.0483 14.7159 19.0457 14.7153C19.0016 14.7045 18.9573 14.6918 18.9128 14.6771C18.8774 14.6656 18.8526 14.6334 18.8147 14.6264C18.3037 14.5311 17.759 14.501 17.2298 14.5231C16.9849 14.5333 16.7371 14.5684 16.4865 14.6282C16.4807 14.6295 16.4771 14.6333 16.4756 14.6394C16.4738 14.647 16.4734 14.6546 16.4746 14.6624C16.4755 14.6684 16.4732 14.6724 16.4677 14.6744C16.3729 14.7083 16.2947 14.7441 16.2334 14.7819C16.068 14.8837 15.9833 15.0394 15.9794 15.2488C15.9766 15.3905 15.9632 15.5639 15.9949 15.6864C16.0475 15.8893 16.1874 15.9868 16.3755 16.0345C16.598 16.0909 16.8266 16.1288 17.0859 16.1741C17.4396 16.2357 17.7929 16.2988 18.1461 16.3635C18.2226 16.3775 18.2987 16.3933 18.3745 16.4109C18.4574 16.4301 18.5288 16.4701 18.5259 16.5712C18.5233 16.664 18.5206 16.7231 18.4223 16.7513C18.0627 16.8551 17.722 16.8579 17.3179 16.8453C17.1621 16.8404 16.9647 16.821 16.7258 16.7872C16.4782 16.7521 16.2337 16.6995 15.9922 16.6293L15.9882 16.6291L15.9846 16.6308L15.982 16.634L15.9811 16.638L15.9814 17.2136C15.9814 17.2168 15.9825 17.22 15.9844 17.2225C15.9863 17.2251 15.989 17.2269 15.992 17.2278C16.3459 17.3225 16.6952 17.3733 17.0568 17.4063C17.1655 17.4163 17.2947 17.4158 17.4139 17.4258C17.5237 17.435 17.7105 17.43 17.9741 17.411C18.2257 17.393 18.473 17.3497 18.7161 17.2812C18.9082 17.2271 19.0863 17.1535 19.172 16.9671C19.2022 16.9014 19.2211 16.805 19.2289 16.6779C19.2389 16.514 19.2518 16.3162 19.1921 16.1605C19.1598 16.0761 19.087 15.9753 19.0053 15.9322ZM7.28932 17.1951C7.35335 17.1704 7.41193 17.123 7.47868 17.0932C7.48152 17.0919 7.48394 17.0898 7.48572 17.0873C7.50333 17.0611 7.55311 17.0276 7.57872 17.0039C7.58246 17.0004 7.58667 16.998 7.59137 16.9965C7.60065 16.9937 7.60727 16.9872 7.61122 16.9772C7.61192 16.9755 7.61298 16.974 7.6143 16.9728C7.61563 16.9716 7.6172 16.9707 7.6189 16.9702C7.6236 16.9686 7.62717 16.9656 7.62963 16.9612C7.6435 16.9356 7.65929 16.9112 7.67701 16.8881C7.73314 16.8148 7.7754 16.7337 7.80378 16.6449C7.83804 16.5381 7.85709 16.4551 7.86093 16.3958C7.86285 16.3678 7.86498 16.3446 7.86733 16.326C7.87677 16.2502 7.87421 16.1748 7.88174 16.0985C7.8891 16.025 7.88734 15.9484 7.87998 15.8719C7.87309 15.8025 7.87581 15.7277 7.86941 15.6641C7.86386 15.6089 7.8597 15.5706 7.85693 15.5495C7.7993 15.1111 7.55183 14.8663 7.16766 14.7371C7.06565 14.7028 6.97553 14.6824 6.89731 14.6759C6.85185 14.672 6.80783 14.6607 6.76893 14.6607C5.93283 14.6605 5.09668 14.6604 4.26047 14.6605C4.25396 14.6605 4.25146 14.6638 4.25295 14.6705C4.25743 14.6907 4.26383 14.7104 4.26383 14.7299C4.26383 15.5623 4.2641 16.4138 4.26464 17.2844C4.26464 17.2976 4.27093 17.3041 4.28352 17.3041C5.06146 17.3052 5.8433 17.3052 6.62903 17.3041C6.8773 17.3038 7.0745 17.2776 7.28932 17.1951ZM8.23596 17.1348C8.2033 17.1822 8.17673 17.2389 8.1444 17.2928C8.14013 17.3001 8.1421 17.3037 8.15032 17.3037L8.98733 17.3047C8.99469 17.3048 9.00024 17.3015 9.00397 17.2948L9.27145 16.8197C9.2738 16.8157 9.27721 16.8137 9.28169 16.8137H11.0277C11.0367 16.8137 11.0435 16.8177 11.0482 16.8257L11.3218 17.2963C11.3248 17.3015 11.3292 17.304 11.3349 17.304L12.203 17.3047L12.206 17.3039L12.2082 17.3016L12.2089 17.2984L12.2081 17.2953C11.7243 16.4727 11.2407 15.6505 10.7574 14.8288C10.7196 14.7645 10.692 14.7116 10.6746 14.6702C10.6727 14.6658 10.6694 14.6636 10.6647 14.6636L9.68619 14.6629C9.68203 14.6629 9.67904 14.6649 9.67723 14.6687C9.66645 14.6928 9.65439 14.7163 9.64105 14.7392C9.34097 15.2567 9.03887 15.773 8.73474 16.2879C8.57456 16.559 8.4155 16.8308 8.25757 17.1033C8.25757 17.1033 8.24962 17.1151 8.23596 17.1348ZM22.8286 17.2424C22.8646 17.2277 22.9118 17.2014 22.9701 17.1633C23.1314 17.0577 23.2709 16.9253 23.3253 16.7381C23.3685 16.5892 23.3791 16.4093 23.3791 16.2481C23.379 15.7411 23.3801 15.2341 23.3826 14.7271C23.3827 14.7071 23.3856 14.6882 23.3912 14.6704L23.3915 14.6669L23.3902 14.6636L23.3876 14.6614L23.3843 14.6606H22.5677L22.5653 14.6611L22.5633 14.6625L22.562 14.6647L22.5617 14.6672C22.5687 14.7494 22.5721 14.832 22.5721 14.9149C22.5718 15.3094 22.5717 15.7039 22.5718 16.0984C22.572 16.1775 22.5625 16.257 22.5574 16.3374C22.5538 16.3948 22.5423 16.4504 22.523 16.5041C22.4483 16.7116 22.2011 16.8152 22.0034 16.8479C21.9341 16.8594 21.8438 16.8587 21.7638 16.8669C21.6913 16.8745 21.5646 16.8694 21.3836 16.8516C21.2569 16.8391 21.135 16.7956 21.0182 16.7211C20.9121 16.6535 20.8485 16.5765 20.8194 16.4542C20.7971 16.3604 20.7874 16.261 20.7874 16.1632C20.787 15.6947 20.7873 15.2262 20.788 14.7578C20.788 14.7311 20.7947 14.6993 20.7962 14.6699C20.7965 14.6637 20.7937 14.6606 20.7877 14.6606H19.975L19.9718 14.6614L19.9693 14.6635L19.968 14.6667L19.9681 14.6701C19.9734 14.6896 19.976 14.7101 19.976 14.7313C19.9777 15.2455 19.9789 15.7598 19.9795 16.2742C19.9797 16.4215 19.9912 16.5624 20.02 16.692C20.097 17.039 20.4767 17.2656 20.7914 17.3397C20.9785 17.3838 21.1506 17.4088 21.3076 17.4148C21.408 17.4188 21.5083 17.4263 21.5903 17.4272C21.7952 17.429 21.9997 17.4202 22.2038 17.4006C22.4095 17.3808 22.6234 17.3385 22.8143 17.2538C22.8168 17.2527 22.8188 17.2511 22.8203 17.2491C22.8224 17.2461 22.8252 17.2439 22.8286 17.2424ZM25.0132 15.1907L25.0142 15.1876L25.0168 15.1857L25.02 15.1858L25.0225 15.1877L26.4508 17.2939C26.4532 17.2975 26.4565 17.3004 26.4602 17.3024C26.464 17.3044 26.4682 17.3055 26.4724 17.3055H27.6345C27.6368 17.3055 27.6389 17.3045 27.6405 17.3029C27.6421 17.3012 27.643 17.299 27.643 17.2966C27.643 16.4981 27.6429 15.6986 27.6428 14.8982C27.6428 14.835 27.646 14.7582 27.6524 14.6679C27.6528 14.663 27.6506 14.6605 27.6459 14.6605L26.8825 14.6603C26.8777 14.6603 26.8755 14.6629 26.8759 14.6679C26.8828 14.7501 26.8862 14.8324 26.8862 14.9148C26.8857 15.5379 26.8852 16.16 26.8849 16.7813C26.8849 16.7996 26.8799 16.8012 26.87 16.786C26.7748 16.639 26.676 16.4893 26.5736 16.3369C26.566 16.3255 26.5614 16.3108 26.5502 16.2985C26.5387 16.2859 26.5316 16.2775 26.5289 16.2733C26.4292 16.1143 26.3271 15.957 26.2224 15.8015C25.9981 15.4686 25.7791 15.1313 25.56 14.7947C25.5391 14.7625 25.5237 14.738 25.5137 14.7209C25.5048 14.7054 25.5037 14.6867 25.4955 14.6694C25.4928 14.6635 25.4884 14.6605 25.4822 14.6605H24.2526C24.2466 14.6605 24.2438 14.6636 24.2441 14.6699C24.2471 14.7279 24.2527 14.7905 24.2527 14.8439C24.2528 15.6592 24.253 16.4755 24.2532 17.2928C24.2532 17.3011 24.2572 17.3053 24.2652 17.3053L25.0054 17.305C25.0074 17.305 25.0094 17.3041 25.0109 17.3026C25.0124 17.301 25.0132 17.299 25.0132 17.2968V15.1907ZM14.1681 15.218L15.5271 15.2177C15.5294 15.2177 15.5315 15.2168 15.5331 15.2151C15.5347 15.2135 15.5356 15.2112 15.5356 15.2089L15.5377 14.675C15.5377 14.6706 15.5356 14.6683 15.5313 14.6683H11.9896C11.9854 14.6683 11.9833 14.6705 11.9833 14.6748L11.9853 15.2069C11.9853 15.2097 11.9863 15.2125 11.9883 15.2145C11.9902 15.2166 11.9928 15.2177 11.9955 15.2177L13.3506 15.2182C13.353 15.2182 13.3552 15.2192 13.3569 15.2209C13.3585 15.2226 13.3595 15.225 13.3595 15.2274V17.2966C13.3595 17.3015 13.3618 17.3039 13.3665 17.3039C13.5979 17.3044 13.8292 17.3046 14.0606 17.3046C14.0961 17.3046 14.1585 17.2952 14.1587 17.247C14.1612 16.5746 14.1621 15.9007 14.1612 15.2252C14.1612 15.2233 14.162 15.2215 14.1633 15.2201C14.1646 15.2188 14.1663 15.218 14.1681 15.218Z" fill="#151515"/>
<path d="M10.1639 15.1793L10.766 16.2771L10.7667 16.28L10.766 16.2828L10.764 16.285L10.7612 16.2858H9.55255L9.54974 16.285L9.54767 16.2829L9.54688 16.28L9.54759 16.2771L10.1543 15.1793L10.1563 15.1772L10.1591 15.1765L10.1618 15.1772L10.1639 15.1793Z" fill="#151515"/>
<path d="M5.0803 15.2258C5.08034 15.2231 5.08142 15.2204 5.08331 15.2185C5.0852 15.2165 5.08774 15.2155 5.09038 15.2155L6.53374 15.2206C6.6045 15.2209 6.67453 15.2341 6.73983 15.2597C6.80513 15.2852 6.86441 15.3224 6.9143 15.3693C6.96418 15.4162 7.00369 15.4718 7.03057 15.533C7.05744 15.5941 7.07116 15.6596 7.07093 15.7256L7.06901 16.2617C7.06855 16.395 7.01136 16.5227 6.91002 16.6167C6.80868 16.7106 6.67149 16.7631 6.52861 16.7626L5.08526 16.7573C5.08259 16.7573 5.08002 16.7562 5.07813 16.7542C5.07624 16.7523 5.07518 16.7496 5.07518 16.7468L5.0803 15.2258Z" fill="#151515"/>
</svg>
