<svg width="32" height="32" viewBox="0 0 32 32" fill="none" xmlns="http://www.w3.org/2000/svg">
<path fill-rule="evenodd" clip-rule="evenodd" d="M10.802 5.24316C10.8821 5.26197 10.9628 5.27909 11.0434 5.29621C11.229 5.33559 11.4145 5.37497 11.5933 5.4349L11.6302 5.44713C11.9282 5.54597 12.2345 5.64755 12.4214 5.93148C12.4609 5.99126 12.4939 6.12322 12.4673 6.14483C12.3989 6.20093 12.297 6.223 12.2052 6.24001C12.1794 6.24492 12.1513 6.2343 12.1227 6.22348C12.1004 6.21504 12.0777 6.20648 12.0556 6.20507C11.7949 6.18805 11.6425 6.3637 11.7352 6.60693C11.8114 6.80694 11.9078 7.01201 12.0432 7.17478C12.3668 7.56469 12.7161 7.93529 13.2169 8.1045C13.4965 8.19922 13.6479 8.07093 13.6016 7.78448C13.5093 7.2203 13.278 6.72694 12.8736 6.31496C12.8344 6.27514 12.8216 6.20927 12.8087 6.14346L12.8087 6.14344C12.8028 6.11349 12.797 6.08355 12.7886 6.05609C12.8161 6.05335 12.8467 6.04663 12.8772 6.0399C12.9441 6.02518 13.0112 6.01041 13.0471 6.03724C13.1002 6.07682 13.1539 6.11607 13.2076 6.15538C13.4593 6.33935 13.7131 6.52478 13.9169 6.75361C14.2502 7.12742 14.5499 7.53894 14.8138 7.96518C15.2591 8.68385 15.5754 9.45723 15.7117 10.3028C15.8379 11.084 15.837 11.8505 15.5666 12.5995C15.412 13.028 15.1246 13.3724 14.7831 13.6644C14.5761 13.8414 14.2401 13.8341 14.0069 13.6566C13.5047 13.2736 13.0044 12.8873 12.5192 12.4832C12.1524 12.1774 11.8054 11.8477 11.4625 11.5153C11.3721 11.4275 11.3065 11.2964 11.2711 11.1737C11.2326 11.0389 11.3115 10.9957 11.451 11.0288C11.8504 11.1235 11.9064 11.056 11.8196 10.6509C11.7113 10.1433 11.4299 9.73035 11.127 9.32665C10.684 8.73672 10.1924 8.1983 9.51213 7.87506C8.9333 7.59964 8.32464 7.5863 7.69853 7.66171C7.12372 7.73086 6.60578 7.95413 6.08713 8.1777L6.08713 8.1777C5.9402 8.24104 5.79321 8.3044 5.64486 8.36429C5.58706 8.38757 5.51895 8.38566 5.45096 8.38376C5.4196 8.38288 5.38826 8.382 5.35797 8.3836C5.36333 8.34879 5.36521 8.31141 5.3671 8.27402V8.27402C5.3712 8.19287 5.3753 8.11162 5.41489 8.05622C6.00014 7.23502 6.70107 6.53152 7.61132 6.0754C8.091 5.83493 8.58858 5.62388 9.09442 5.4464C9.28725 5.37859 9.49563 5.35476 9.70406 5.33092C9.80374 5.31952 9.90344 5.30812 10.0015 5.2919C10.0385 5.28562 10.0744 5.27289 10.1103 5.26017C10.127 5.25429 10.1436 5.2484 10.1603 5.24316H10.802ZM22.0023 5.27103L22.0023 5.27103L22.0023 5.27103C22.1205 5.29016 22.2387 5.30928 22.3542 5.33845C22.4693 5.36768 22.5858 5.39415 22.7024 5.42064L22.7024 5.42065C23.0117 5.49093 23.3214 5.56133 23.6086 5.68368C24.4953 6.0616 25.3175 6.55735 25.9882 7.26485C26.2322 7.52216 26.4532 7.80203 26.6659 8.08605C26.7057 8.13914 26.7132 8.21674 26.7207 8.29429V8.29431C26.7241 8.32971 26.7275 8.3651 26.734 8.39814C26.7006 8.39857 26.6663 8.40171 26.632 8.40485C26.5577 8.41166 26.4834 8.41847 26.4182 8.39768C26.2054 8.32972 25.9947 8.25311 25.7841 8.17653L25.784 8.17652C25.394 8.03471 25.0043 7.89302 24.6025 7.80664C23.5221 7.57464 22.5282 7.76843 21.6899 8.56983C21.1379 9.09689 20.6577 9.66675 20.3327 10.3586C20.2637 10.5054 20.2176 10.6675 20.1886 10.8277C20.155 11.0145 20.2941 11.1227 20.4911 11.0951C20.5466 11.0873 20.6034 11.0892 20.664 11.0913C20.6929 11.0923 20.7226 11.0933 20.7535 11.0933C20.8358 11.364 20.6663 11.5289 20.5097 11.6813C20.4938 11.6968 20.478 11.7122 20.4626 11.7276C20.1785 12.0116 19.8756 12.2786 19.5672 12.5363C19.0925 12.9331 18.6142 13.3267 18.1226 13.7018C17.659 14.0549 17.3317 13.8593 16.9763 13.4496C16.5974 13.0123 16.3608 12.4977 16.2954 11.9292C16.2462 11.5048 16.2351 11.0647 16.2871 10.6417C16.3902 9.80117 16.6457 8.9947 17.0729 8.26188C17.3409 7.80295 17.6645 7.37118 18.001 6.95874C18.1584 6.76586 18.3478 6.59921 18.5373 6.43252L18.5373 6.43252L18.5373 6.43251C18.6204 6.35933 18.7036 6.28615 18.7841 6.21074C18.8007 6.19509 18.8191 6.17944 18.8393 6.17115C18.8663 6.16007 18.8942 6.14582 18.9225 6.13137L18.9225 6.13136C19.0422 6.07021 19.1692 6.00539 19.2596 6.16102C19.3437 6.30583 19.2216 6.41591 19.1146 6.51244C19.1015 6.52422 19.0886 6.53581 19.0764 6.54723C18.7003 6.8989 18.483 7.33482 18.4351 7.8407C18.4075 8.13116 18.5861 8.24255 18.8513 8.1132C19.0313 8.02528 19.2035 7.90698 19.3536 7.77349C19.3926 7.73857 19.4321 7.70386 19.4715 7.66913C19.8071 7.37377 20.1446 7.0766 20.295 6.63054C20.3889 6.35205 20.2683 6.22179 19.9833 6.24526C19.9574 6.24736 19.9294 6.25142 19.9006 6.25561C19.7652 6.27525 19.6109 6.29765 19.5589 6.13295C19.4944 5.92903 19.6638 5.79646 19.8277 5.70946C20.2618 5.47792 20.7093 5.28137 21.2185 5.29288C21.2439 5.29351 21.2698 5.27889 21.2957 5.26428C21.3077 5.2575 21.3197 5.25072 21.3317 5.24547H21.8376L21.8367 5.24316C21.8917 5.25314 21.947 5.26208 22.0023 5.27103ZM20.9538 20.301C21.3384 19.7207 21.5325 19.0713 21.584 18.3811L21.5831 18.3815L21.5164 18.3162C21.494 18.3352 21.4693 18.3529 21.4446 18.3706L21.4446 18.3706L21.4446 18.3707L21.4446 18.3707L21.4445 18.3707C21.391 18.409 21.3375 18.4473 21.3076 18.4992C21.2423 18.6121 21.1851 18.7298 21.1278 18.8474C21.0795 18.9469 21.0311 19.0464 20.9778 19.1431C20.8011 19.4641 20.5881 19.7602 20.2652 19.9479C20.1916 19.9906 20.0518 19.9874 19.9796 19.9442C19.9175 19.9069 19.8678 19.7736 19.8834 19.6972C19.9161 19.5399 19.9625 19.3647 20.0619 19.2452C20.2017 19.077 20.3517 18.9169 20.5016 18.7569L20.5016 18.7569C20.6792 18.5674 20.8567 18.378 21.0173 18.175C21.2122 17.9287 21.3797 17.6605 21.5471 17.3926L21.5471 17.3925L21.5471 17.3925L21.5471 17.3925L21.5471 17.3925L21.5472 17.3923C21.6066 17.2972 21.666 17.2022 21.7266 17.1081C21.7528 17.0676 21.7607 17.0056 21.7547 16.9564C21.7482 16.9012 21.7298 16.8239 21.6912 16.8032C21.6576 16.7853 21.5725 16.8179 21.5389 16.8547C21.4929 16.905 21.4566 16.9647 21.4204 17.0244C21.4052 17.0493 21.3901 17.0742 21.3743 17.0985L21.3371 17.0665L21.2998 17.0345C21.3025 17.0216 21.3046 17.0085 21.3067 16.9954C21.3115 16.966 21.3162 16.9366 21.3274 16.9099C21.4483 16.6216 21.6333 16.387 21.8678 16.175C22.0463 16.0136 22.1875 16.0394 22.3702 16.2408C22.495 16.3786 22.4341 16.5052 22.3799 16.6179C22.3708 16.6368 22.3619 16.6554 22.3541 16.6735C22.3049 16.787 22.2365 16.892 22.1681 16.9971L22.168 16.9971C22.1136 17.0807 22.0591 17.1643 22.0141 17.2525C21.9781 17.3226 21.9649 17.4044 21.9516 17.4864L21.9516 17.4864L21.9516 17.4865L21.9516 17.4865L21.9516 17.4866C21.9456 17.5239 21.9395 17.5612 21.9313 17.5974C21.9658 17.5913 22.0032 17.5888 22.0406 17.5863C22.1216 17.5808 22.2027 17.5753 22.2533 17.5335C22.6011 17.2456 22.8559 16.8796 23.0413 16.4703C23.1112 16.3157 23.1839 16.1382 23.1738 15.9764C23.1563 15.6944 23.1246 15.4133 23.093 15.1321L23.093 15.132L23.093 15.1319L23.093 15.1319L23.093 15.1318C23.0647 14.881 23.0365 14.6302 23.0183 14.3787C22.9935 14.0366 22.9879 13.688 23.0275 13.3486C23.0373 13.265 23.1216 13.1902 23.2059 13.1154C23.2445 13.0812 23.2831 13.047 23.3145 13.012C23.3448 13.0414 23.3782 13.0692 23.4116 13.0971L23.4116 13.0971L23.4116 13.0971C23.4852 13.1586 23.5589 13.22 23.5997 13.2985C23.7773 13.6402 23.7594 14.0131 23.6917 14.3783C23.6134 14.8014 23.5309 15.2237 23.4485 15.646C23.3442 16.1802 23.24 16.7144 23.1439 17.2502C23.0491 17.7791 23.1029 18.3001 23.3458 18.7894C23.5781 19.2576 23.8569 19.3385 24.2966 19.07C24.3413 19.0424 24.3836 19.0065 24.4172 18.966C24.5205 18.8421 24.6252 18.7192 24.7299 18.5962L24.7302 18.5958C25.0023 18.2761 25.2746 17.9562 25.5244 17.6195C25.7535 17.3105 25.8887 16.9426 25.8887 16.5471C25.8887 16.4744 25.8224 16.3617 25.7613 16.3401C25.6969 16.3171 25.5879 16.3636 25.5235 16.4128C25.4841 16.4427 25.4595 16.4911 25.4348 16.5399L25.4348 16.5399L25.4348 16.54L25.4348 16.54L25.4348 16.54C25.4211 16.567 25.4073 16.5941 25.391 16.6183C25.2858 16.7736 25.1792 16.9279 25.0725 17.0822L24.9489 17.2613L24.8707 17.2189C24.8778 17.1898 24.8834 17.16 24.8891 17.1301V17.1301C24.9011 17.0667 24.9132 17.0033 24.9388 16.9458C25.1817 16.399 25.5018 15.8996 25.8813 15.4383C26.4959 14.6915 27.07 13.9175 27.3685 12.9844C27.4481 12.7357 27.4828 12.4719 27.5174 12.2094L27.5174 12.2094C27.526 12.1443 27.5345 12.0792 27.5438 12.0145C27.5491 11.976 27.5193 11.9327 27.4894 11.8892C27.4753 11.8687 27.4613 11.8483 27.4508 11.8283C27.4299 11.8393 27.4073 11.849 27.3847 11.8587C27.3329 11.881 27.281 11.9034 27.248 11.9418C27.2175 11.9775 27.1976 12.0225 27.1777 12.0674C27.1573 12.1133 27.137 12.1592 27.1054 12.1952C27.0631 12.2435 26.9697 12.2854 26.9131 12.2716C26.8565 12.2578 26.7884 12.1782 26.7746 12.1166C26.6771 11.6802 27.1505 11.2543 27.5741 11.3983C27.6637 11.4288 27.7497 11.4697 27.8357 11.5107C27.9196 11.5507 28.0034 11.5906 28.0907 11.6209C28.1537 11.6428 28.2244 11.6425 28.2951 11.6422C28.3265 11.6421 28.358 11.642 28.3888 11.6438C28.3857 11.6103 28.3862 11.5744 28.3868 11.5384C28.3879 11.4606 28.3891 11.3826 28.3538 11.3288C28.1022 10.9462 27.8474 10.5631 27.5612 10.2063C27.075 9.59923 26.5161 9.07313 25.7741 8.78064C24.9236 8.44539 24.0722 8.37641 23.2391 8.81744C22.4548 9.2327 21.8623 9.87285 21.3057 10.5466C21.2151 10.6565 21.1282 10.7728 21.0652 10.8993C21.0434 10.9425 21.0491 10.9997 21.0548 11.0568L21.0549 11.0568C21.0575 11.0829 21.0601 11.109 21.0601 11.1338C21.0839 11.1334 21.108 11.1345 21.1322 11.1355C21.1857 11.1378 21.2392 11.1401 21.2883 11.1265C21.3265 11.116 21.3627 11.0947 21.3985 11.0737C21.4428 11.0476 21.4866 11.0219 21.5334 11.017L21.5758 11.0124C21.7084 10.9977 21.8625 10.9805 21.9525 11.0423C22.0781 11.1283 22.0564 11.3178 21.9718 11.4516C21.9219 11.5308 21.8733 11.6115 21.8247 11.6922C21.6748 11.941 21.5245 12.1906 21.3324 12.4017C21.055 12.707 20.7601 12.9962 20.4652 13.2855C20.2407 13.5057 20.0161 13.726 19.7992 13.9534C19.215 14.5664 18.7734 15.2677 18.5674 16.1005C18.5347 16.232 18.5099 16.3889 18.6617 16.4298C18.7348 16.4497 18.8488 16.3608 18.934 16.2943L18.9496 16.2822C19.014 16.2323 19.0747 16.1772 19.1353 16.1222C19.2241 16.0416 19.3126 15.9611 19.4124 15.8977C19.4809 15.854 19.6198 15.8775 19.7026 15.9193C19.745 15.9405 19.7555 16.0729 19.7417 16.1483C19.6704 16.5452 19.3682 16.7798 19.0761 16.9973C18.5591 17.3813 18.1653 17.8559 17.928 18.4482C17.916 18.4781 17.9025 18.5084 17.8888 18.5392L17.8888 18.5392C17.8091 18.7183 17.7217 18.9148 17.8673 19.1546C17.9514 19.098 18.0331 19.0395 18.1141 18.9815C18.2967 18.8509 18.4756 18.7229 18.6699 18.6257C18.8592 18.5314 19.0636 18.4681 19.2844 18.3996L19.2845 18.3996C19.3857 18.3682 19.4904 18.3357 19.5987 18.2987C19.3264 18.685 19.0232 18.9651 18.6911 19.2185C18.5471 19.3289 18.4146 19.3978 18.2173 19.3256C18.1451 19.299 17.9864 19.3794 17.9326 19.4567C17.7696 19.6894 17.6315 19.94 17.4941 20.1893L17.4827 20.21C17.2444 20.6427 17.2246 21.0792 17.4096 21.5482C17.5678 21.9506 17.6892 22.3714 17.7822 22.794C17.882 23.2475 17.8369 23.6848 17.4454 24.0173C17.2564 24.1783 17.0738 24.1801 16.9118 23.9902C16.841 23.9069 16.7895 23.8007 16.7513 23.6968C16.723 23.6195 16.7011 23.5399 16.6792 23.4602C16.6555 23.3738 16.6318 23.2875 16.6 23.2043C16.5861 23.1682 16.546 23.1421 16.5058 23.1161C16.4871 23.104 16.4684 23.0918 16.4523 23.0787C16.4406 23.0938 16.4269 23.1085 16.4131 23.1231C16.3834 23.1547 16.3538 23.1862 16.3456 23.2226C16.3175 23.3464 16.2885 23.4779 16.3023 23.6011C16.3322 23.8692 16.3778 24.1364 16.4367 24.3999L16.4434 24.4302C16.526 24.7996 16.5749 25.0187 17.0107 25.0107C17.0493 25.0099 17.088 25.0101 17.1267 25.0103C17.2285 25.0107 17.3304 25.0112 17.4293 24.9946C17.732 24.9435 18.0347 24.8869 18.3314 24.8097C18.5053 24.7642 18.6226 24.6547 18.6391 24.4432C18.6575 24.2059 18.7035 23.9676 18.7665 23.7377C18.9745 22.9775 19.3052 22.2739 19.7841 21.6453C19.9943 21.3698 20.2123 21.0994 20.4396 20.8377C20.5057 20.7615 20.581 20.692 20.656 20.6227L20.656 20.6227C20.7652 20.5219 20.874 20.4215 20.9538 20.301ZM12.3282 18.1179C12.5764 18.5889 12.9775 18.8837 13.3983 19.1545C13.4625 19.1959 13.5736 19.2303 13.6319 19.2027C13.8797 19.0838 14.0261 19.2408 14.1206 19.4034C14.3276 19.7592 14.5226 20.1269 14.6713 20.5094C14.7332 20.6692 14.6947 20.8863 14.6511 21.0649C14.5959 21.2896 14.5316 21.5124 14.4675 21.7351L14.4674 21.7351C14.3742 22.0585 14.2811 22.3817 14.2156 22.7104C14.1357 23.1107 14.1376 23.5285 14.4941 23.8449C14.7355 24.0593 15.0049 24.0276 15.1416 23.7406C15.1957 23.627 15.2372 23.5073 15.2786 23.3876L15.2787 23.3875C15.3009 23.3234 15.3231 23.2593 15.3472 23.1961L15.3578 23.1679C15.3802 23.1076 15.4031 23.046 15.4408 22.996C15.4674 22.9601 15.5331 22.9275 15.5725 22.9358C15.6079 22.9432 15.6565 23.0093 15.6551 23.0478C15.6418 23.4119 15.6281 23.7769 15.5955 24.1396C15.5862 24.2433 15.551 24.3449 15.516 24.446L15.516 24.4461L15.516 24.4461L15.516 24.4462C15.5042 24.4802 15.4924 24.5142 15.4817 24.5482C15.3858 24.8517 15.2683 24.9077 14.9475 24.854C14.8008 24.8296 14.6527 24.813 14.5046 24.7963C14.3015 24.7735 14.0986 24.7507 13.8999 24.708C13.4327 24.6079 13.368 24.5367 13.3341 24.0721C13.2817 23.3609 12.9926 22.7462 12.632 22.1503C12.2658 21.5451 11.8335 20.9974 11.3163 20.514C11.0054 20.2234 10.8562 19.8347 10.709 19.4514L10.6748 19.3625C10.5591 19.0641 10.4811 18.7501 10.4059 18.4383C10.3936 18.3881 10.4185 18.329 10.4434 18.27L10.4434 18.27L10.4434 18.27L10.4434 18.27C10.4549 18.2427 10.4664 18.2154 10.4742 18.189C10.4943 18.2064 10.5161 18.2228 10.538 18.2391L10.538 18.2391C10.5858 18.2749 10.6337 18.3107 10.6624 18.358C10.7385 18.4838 10.8105 18.6123 10.8825 18.7407C11.0015 18.9529 11.1204 19.1649 11.2576 19.3648C11.3371 19.4808 11.4531 19.5717 11.5691 19.6625C11.6197 19.7022 11.6703 19.7418 11.7178 19.7835C11.8339 19.885 11.962 19.8414 12.0368 19.7537C12.0987 19.6811 12.1419 19.5434 12.1171 19.4557C12.0157 19.0907 11.7752 18.8185 11.5026 18.5572C10.9919 18.0687 10.499 17.5582 10.2457 16.8759C10.23 16.8342 10.244 16.7812 10.2579 16.7284C10.2643 16.7041 10.2707 16.6797 10.2742 16.6565C10.2957 16.6665 10.3184 16.6753 10.3412 16.6841C10.3937 16.7043 10.4464 16.7247 10.4848 16.7602C10.5085 16.7821 10.5277 16.8088 10.547 16.8357C10.5752 16.875 10.6037 16.9147 10.6468 16.9398C10.6546 16.4402 10.3765 16.1239 10.0264 15.865C9.95982 15.8154 9.79783 15.8237 9.72258 15.8714C9.57436 15.966 9.44678 16.1198 9.53856 16.3126C9.62413 16.4919 9.72537 16.6637 9.82662 16.8355L9.82663 16.8355L9.82665 16.8356C9.86929 16.9079 9.91193 16.9803 9.9534 17.0532C9.9613 17.0672 9.97169 17.0806 9.98198 17.094C10.0004 17.1179 10.0185 17.1414 10.0218 17.167C10.0282 17.2183 10.0247 17.271 10.0213 17.3236V17.3236C10.0198 17.3463 10.0183 17.369 10.0176 17.3915C9.9958 17.3877 9.9717 17.3861 9.94761 17.3846C9.89478 17.3812 9.84198 17.3778 9.81298 17.3498L9.76615 17.3044C9.60161 17.1454 9.43528 16.9846 9.30453 16.7997C9.01864 16.3966 8.79653 15.9563 8.84013 15.4421C8.85718 15.2419 8.89086 15.0431 8.92457 14.8441L8.92457 14.8441L8.92457 14.8441L8.92457 14.8441L8.92457 14.8441L8.92458 14.844L8.92458 14.844C8.94984 14.6949 8.97512 14.5457 8.9934 14.3958C9.00162 14.3284 9.01221 14.2608 9.02281 14.1932L9.02281 14.1932L9.02281 14.1932L9.02281 14.1932C9.07022 13.8909 9.11773 13.5878 8.95347 13.2903C8.79194 12.9978 8.60426 12.9735 8.43493 13.2577C8.24449 13.5772 8.18024 13.9316 8.25366 14.3021C8.31701 14.6222 8.38139 14.942 8.44576 15.2618C8.55859 15.8223 8.6714 16.3828 8.77864 16.9444C8.89565 17.5573 8.88693 18.1679 8.68961 18.767C8.5524 19.183 8.37986 19.3437 8.06644 19.2854C7.90629 19.2555 7.73604 19.1651 7.61581 19.0535C7.08533 18.5614 6.67095 17.9783 6.40892 17.3038C6.3285 17.0968 6.29469 16.8714 6.26101 16.6469C6.2501 16.5742 6.2392 16.5016 6.22674 16.4297C6.22139 16.3994 6.24522 16.3642 6.26901 16.329L6.26902 16.329C6.27988 16.313 6.29073 16.2969 6.29879 16.2814C6.31449 16.2922 6.33177 16.302 6.34905 16.3117C6.38681 16.3331 6.42454 16.3544 6.44563 16.3865C6.51067 16.4867 6.57217 16.5892 6.63367 16.6917C6.70713 16.8141 6.78058 16.9365 6.86001 17.055C6.90029 17.1153 6.95734 17.1643 7.01441 17.2133L7.01442 17.2134C7.04123 17.2364 7.06805 17.2594 7.09313 17.2836C7.10666 17.2761 7.12019 17.2687 7.13387 17.2613L7.15278 17.251C7.144 17.2124 7.13548 17.1737 7.12696 17.1351L7.12696 17.135C7.10612 17.0405 7.0853 16.9459 7.06055 16.8521C6.92724 16.3452 6.61406 15.9473 6.29769 15.5454L6.26666 15.5059C6.19435 15.414 6.12155 15.3222 6.04871 15.2303L6.04869 15.2303C5.64961 14.7271 5.24921 14.2222 4.91936 13.6759C4.61144 13.1658 4.44716 12.5713 4.48112 11.951C4.48331 11.9137 4.50095 11.8774 4.51863 11.841C4.52682 11.8242 4.53501 11.8073 4.54169 11.7903C4.56001 11.7982 4.57984 11.8046 4.59964 11.8111C4.64335 11.8253 4.68693 11.8395 4.71378 11.8688C4.74474 11.903 4.76736 11.9448 4.78996 11.9865C4.81359 12.0302 4.83719 12.0738 4.87026 12.1085C4.92533 12.1663 5.02812 12.2426 5.07951 12.2247C5.15339 12.1985 5.24334 12.0979 5.2493 12.0226C5.28051 11.6462 4.94552 11.1072 4.42054 11.3156C4.34672 11.345 4.27523 11.3805 4.20377 11.4159L4.20376 11.4159C4.11353 11.4606 4.02336 11.5053 3.92861 11.5378C3.86209 11.5605 3.78755 11.559 3.71289 11.5574H3.71287C3.67886 11.5567 3.64483 11.556 3.61152 11.5576C3.61426 11.5225 3.61324 11.485 3.61221 11.4474C3.60998 11.3655 3.60774 11.2835 3.64456 11.2265L3.68223 11.168C3.90883 10.8156 4.13721 10.4605 4.40678 10.1421C4.81565 9.65866 5.2594 9.20505 5.82613 8.89331C6.24647 8.66192 6.6994 8.54117 7.16931 8.4824C8.14078 8.3612 8.92273 8.7643 9.59317 9.41349C9.88178 9.69301 10.1516 9.99173 10.4216 10.2905L10.4216 10.2905L10.4216 10.2905L10.4216 10.2905C10.5409 10.4226 10.6603 10.5548 10.7812 10.6852C10.7859 10.6902 10.7915 10.6951 10.797 10.7C10.8099 10.7113 10.823 10.7227 10.8262 10.7362C10.8333 10.767 10.8444 10.8009 10.8556 10.8351L10.8556 10.8352L10.8556 10.8352L10.8556 10.8352C10.8835 10.9203 10.9119 11.0072 10.8808 11.0521C10.8077 11.1572 10.696 11.0936 10.59 11.0332L10.5706 11.0222C10.237 10.8326 10.0452 10.8648 9.96304 11.1329C9.92816 11.2458 9.95983 11.401 10.0108 11.5149C10.2599 12.0718 10.6881 12.4831 11.1309 12.8894L11.1313 12.8898C12.0384 13.7216 12.9496 14.5571 13.3281 15.7915C13.3364 15.8185 13.3463 15.8455 13.3562 15.8725L13.3562 15.8725C13.3805 15.9385 13.4049 16.0046 13.4052 16.0707C13.4052 16.1366 13.3822 16.2027 13.3593 16.2687C13.3493 16.2975 13.3394 16.3262 13.3313 16.3549C13.304 16.3399 13.2754 16.3263 13.2469 16.3127L13.2469 16.3127C13.1842 16.2828 13.1215 16.253 13.072 16.2089C13.0275 16.1693 12.9899 16.1206 12.9526 16.0722L12.9526 16.0722C12.9032 16.0082 12.8542 15.9448 12.7903 15.9035C12.7679 15.8893 12.7451 15.8734 12.7217 15.8572C12.5731 15.7542 12.4052 15.6378 12.2382 15.8278C12.0611 16.0293 12.2387 16.2378 12.3566 16.3677C12.6269 16.667 12.9339 16.9361 13.2464 17.1927C13.7544 17.6105 14.0004 18.1762 14.1867 18.7785C14.2023 18.8281 14.1591 18.9443 14.1284 18.9502C14.0554 18.964 13.9302 18.9571 13.9017 18.9112C13.6519 18.5084 13.2547 18.391 12.8579 18.2738C12.6971 18.2263 12.5364 18.1788 12.3855 18.1123C12.3778 18.1091 12.368 18.1108 12.3545 18.1132C12.3471 18.1145 12.3385 18.116 12.3286 18.1169L12.3282 18.1179ZM27.3406 18.2663C27.1628 17.8315 27.2153 17.375 27.4171 16.8796L27.4185 16.8805C27.438 16.9187 27.4529 16.9508 27.4656 16.9784C27.4886 17.028 27.5046 17.0626 27.5285 17.0903C27.5737 17.1421 27.6247 17.1889 27.6757 17.2358L27.6758 17.2359L27.6759 17.236C27.6981 17.2565 27.7204 17.277 27.7423 17.2979C27.762 17.2704 27.7861 17.2436 27.8101 17.2168C27.8615 17.1594 27.913 17.102 27.9224 17.0384C27.9371 16.9393 27.9522 16.8401 27.9673 16.7409L27.9674 16.7406C28.044 16.2376 28.1207 15.734 28.1476 15.2279C28.1767 14.6767 28.1433 14.1205 28.1101 13.5677L28.1101 13.5676L28.1057 13.4949C28.0891 13.22 28.0346 12.9465 27.9803 12.6747L27.9578 12.5614C27.9463 12.5021 27.868 12.4167 27.8178 12.4149C27.7671 12.413 27.7027 12.4925 27.6635 12.5499C27.6317 12.5963 27.6211 12.6615 27.6142 12.7202C27.5152 13.5711 27.3217 14.4004 27.0712 15.2187C26.6764 16.5067 26.0578 17.6868 25.3323 18.8141C25.1578 19.085 24.968 19.356 24.7386 19.5791C24.4083 19.9001 23.8095 19.9281 23.3802 19.6953C23.1868 19.5902 23.0712 19.6457 23.1094 19.8643C23.1716 20.2225 23.2499 20.5861 23.3862 20.9209C23.4889 21.1739 23.6502 21.443 23.8625 21.6032C24.2946 21.9288 24.821 21.9265 25.3332 21.8218C25.7427 21.7378 26.1168 21.5693 26.4194 21.2607C26.9463 20.723 27.2715 20.0824 27.4138 19.3514C27.4843 18.9882 27.4903 18.6332 27.3406 18.2663ZM4.63978 16.9305C4.61641 16.9757 4.59657 17.0158 4.57863 17.0521C4.54104 17.1281 4.51171 17.1874 4.47547 17.2423C4.44205 17.2929 4.37844 17.3675 4.34045 17.3611C4.27866 17.35 4.19765 17.2929 4.1766 17.2353C4.12259 17.0894 4.07865 16.9342 4.06309 16.7795C4.04529 16.6042 4.02511 16.4289 4.00494 16.2535C3.94627 15.7437 3.88756 15.2335 3.88688 14.7233C3.88618 14.2096 3.94791 13.6955 4.00956 13.1822C4.0283 13.0261 4.04704 12.8701 4.06401 12.7142C4.06963 12.6632 4.11798 12.617 4.16629 12.5708C4.1887 12.5494 4.2111 12.5279 4.22923 12.5061C4.2488 12.5293 4.27297 12.5519 4.29714 12.5746C4.34872 12.6229 4.40027 12.6712 4.40681 12.7248C4.52215 13.6826 4.73223 14.6202 5.03338 15.5334C5.46635 16.8453 6.0467 18.0919 6.8655 19.2081C7.19091 19.6516 7.61335 19.996 8.22665 19.9053C8.30275 19.8942 8.37601 19.8655 8.44949 19.8366C8.50107 19.8164 8.55276 19.7961 8.60561 19.7819C8.66802 19.7654 8.73281 19.7585 8.79774 19.7516C8.82711 19.7485 8.8565 19.7454 8.88572 19.7414C8.8869 19.7677 8.88903 19.794 8.89116 19.8204C8.89565 19.8759 8.90013 19.9313 8.89579 19.9859C8.85414 20.5293 8.65504 21.0202 8.39325 21.4903C8.212 21.8164 7.89254 21.9287 7.5685 21.961C6.82293 22.0356 6.13366 21.8311 5.61098 21.2868C5.06405 20.7172 4.8082 19.9877 4.64069 19.2159C4.5759 18.9173 4.64982 18.6549 4.72367 18.3928C4.75938 18.266 4.79508 18.1393 4.81507 18.0085C4.86999 17.6475 4.83292 17.2938 4.63978 16.9296V16.9305ZM14.2445 26.3856C14.7827 26.6631 15.3594 26.7295 15.9618 26.7565V26.757C16.0944 26.7383 16.2274 26.7216 16.3604 26.7049C16.6602 26.6674 16.96 26.6298 17.2548 26.5688C17.8678 26.4425 18.4013 26.179 18.6116 25.5419C18.6594 25.3957 18.6562 25.1886 18.5809 25.0663C18.552 25.019 18.4226 25.0305 18.296 25.0417C18.2436 25.0464 18.1916 25.051 18.1474 25.0514C18.1298 25.0514 18.1122 25.0594 18.0944 25.0675C18.084 25.0723 18.0735 25.0771 18.0629 25.0803C17.3985 25.2797 16.718 25.4124 16.0242 25.4033C15.2864 25.3939 14.5613 25.2666 13.8588 25.032C13.6141 24.9503 13.4079 25.1078 13.4557 25.3375C13.5535 25.8049 13.8069 26.16 14.2445 26.3856Z" fill="#151515"/>
</svg>
