<svg width="32" height="32" viewBox="0 0 32 32" fill="none" xmlns="http://www.w3.org/2000/svg">
<path d="M4.0055 16.1652C3.95676 14.5819 4.23228 13.0051 4.81567 11.5287C5.39905 10.0524 6.27837 8.7066 7.40127 7.57154C8.52417 6.43648 9.86769 5.53534 11.3519 4.92177C12.836 4.3082 14.4305 3.99475 16.0403 4.00007C17.6501 4.00539 19.2424 4.32938 20.7224 4.95274C22.2023 5.57611 23.5396 6.48611 24.6548 7.62856C25.7699 8.77102 26.64 10.1226 27.2133 11.6028C27.7866 13.083 28.0513 14.6615 27.9918 16.2445C27.9918 22.7269 22.4409 28.0302 15.9352 27.9999C9.4295 27.9695 3.88722 22.6054 4.0055 16.1652ZM15.9969 5.37971C9.91979 5.34597 4.99807 10.2715 4.98607 16.1753C5.01665 19.0241 6.18687 21.7463 8.24315 23.752C10.2994 25.7576 13.0761 26.8852 15.9715 26.8903C18.8668 26.8954 21.6476 25.7776 23.7111 23.7792C25.7747 21.7808 26.9548 19.0628 26.9958 16.2141C27.0061 10.2715 22.0672 5.35272 15.9969 5.37971Z" fill="#151515"/>
<path d="M9.23407 16.1449C7.69122 17.4573 6.75693 19.053 6.24607 20.9186C5.4335 17.8824 5.96322 15.1227 8.03236 12.7376C10.1015 10.3524 12.7844 9.3977 15.9369 9.63723C15.5324 9.01142 14.0512 7.71257 11.5946 6.89109C11.7675 6.78719 11.953 6.70502 12.1466 6.64651C13.4566 6.44462 14.7962 6.54157 16.0621 6.92989C18.8564 7.7733 20.7918 9.55794 21.9215 12.1826C22.4549 13.4324 22.672 14.791 22.5541 16.1416C22.5541 16.2141 22.5541 16.2866 22.5541 16.4401C23.2957 15.811 23.932 15.071 24.4398 14.2473C24.9113 13.4337 25.2814 12.5672 25.5421 11.6665C26.3426 14.6403 25.8524 17.378 23.8535 19.7429C21.7604 22.2242 19.0072 23.2329 15.6764 22.9124C15.9798 22.5751 16.2558 22.2816 16.4958 21.9712C18.2838 19.6603 18.9215 17.0794 18.3815 14.2119C18.0728 12.6859 17.3928 11.2563 16.3998 10.0454C16.2626 9.87675 16.1615 9.87675 16.0021 10.0353C14.6972 11.3471 13.8008 12.9988 13.4186 14.7955C13.2063 15.7179 13.1484 16.6683 13.2472 17.6091C13.6175 20.7769 15.1741 23.238 17.9495 24.9096C18.5461 25.2689 19.2078 25.5219 19.8969 25.8509C19.797 25.8954 19.6931 25.931 19.5866 25.9571C17.4407 26.2485 15.2593 25.7811 13.4307 24.6382C11.6022 23.4953 10.2451 21.7511 9.60093 19.7159C9.24843 18.6465 9.13155 17.5154 9.25807 16.398C9.25647 16.3132 9.24844 16.2286 9.23407 16.1449Z" fill="#151515"/>
</svg>
