<svg width="32" height="32" viewBox="0 0 32 32" fill="none" xmlns="http://www.w3.org/2000/svg">
<path d="M15.9865 12.102C15.9099 12.2491 15.8036 12.3789 15.6743 12.4831C15.5302 12.5987 15.3848 12.7133 15.2404 12.8287L12.962 14.6451C12.5469 14.9762 12.132 15.3074 11.7174 15.6386C10.945 16.2536 10.1727 16.8687 9.40053 17.4837L7.52538 18.9741C7.19656 19.2357 6.86738 19.4972 6.53784 19.7586C6.50442 19.7852 6.46672 19.8079 6.42227 19.8406C6.41351 19.8135 6.4065 19.7859 6.40129 19.7579C6.39844 19.7267 6.40129 19.6951 6.40129 19.6635V4.00319C6.45107 4.03548 6.48095 4.04932 6.50797 4.07097C7.40056 4.78064 8.2928 5.49149 9.18467 6.20353C10.0334 6.87842 10.8837 7.55297 11.7355 8.22715C12.5873 8.90134 13.4357 9.57837 14.2806 10.2582C14.7548 10.6367 15.2289 11.0136 15.7031 11.3887C15.7983 11.4653 15.8781 11.5591 15.9385 11.6652C15.9522 11.6856 15.9672 11.7051 15.9833 11.7237C16 11.7088 16.0153 11.701 16.021 11.6882C16.0921 11.542 16.2077 11.4356 16.3307 11.3373C16.9765 10.8223 17.623 10.3084 18.2702 9.79553C19.0199 9.19846 19.7695 8.6008 20.5191 8.00254C21.2688 7.40429 22.0171 6.81006 22.7641 6.21985C23.6145 5.54424 24.4636 4.86769 25.3114 4.19019C25.3871 4.12987 25.4639 4.07097 25.555 4C25.563 4.02757 25.5684 4.05585 25.571 4.08445C25.5621 4.27677 25.5607 4.47016 25.539 4.66106C25.5163 4.8465 25.431 5.01872 25.2972 5.14931C25.008 5.44383 24.7168 5.73585 24.4284 6.03072C24.1124 6.3541 23.7976 6.67865 23.4842 7.00439C23.2876 7.20842 23.0902 7.41174 22.8978 7.61932C22.3761 8.18209 21.8808 8.76579 21.4594 9.40876C21.2023 9.8012 20.9729 10.2089 20.8143 10.6507C20.6904 10.9871 20.6125 11.3386 20.5824 11.6957C20.5437 12.2045 20.6244 12.6984 20.7531 13.1881C20.884 13.6627 21.068 14.121 21.3015 14.5546C21.5 14.93 21.7189 15.2944 21.9572 15.6461C22.4179 16.331 22.9235 16.9849 23.4707 17.6033C23.7648 17.9362 24.0614 18.2669 24.3672 18.5883C24.7011 18.9393 25.0493 19.2767 25.3861 19.6248C25.4543 19.6954 25.51 19.7772 25.5507 19.8665C25.6531 20.095 25.5888 20.3026 25.4248 20.4736C25.2964 20.6006 25.1598 20.7191 25.0159 20.8284C24.4021 21.3207 23.7872 21.8113 23.1713 22.3003C22.223 23.0547 21.2747 23.8087 20.3264 24.5624C19.5915 25.1476 18.8556 25.7322 18.1187 26.3163C17.4549 26.8457 16.7911 27.376 16.1273 27.907C16.0885 27.9375 16.0466 27.9642 15.9954 28C15.9859 27.9749 15.9796 27.9486 15.9765 27.9219C15.9893 27.7335 16.0004 27.5451 16.0192 27.3574C16.0409 27.1402 16.1494 26.9635 16.2984 26.8109C16.6184 26.4813 16.9445 26.1545 17.2667 25.8256C17.5775 25.5062 17.8908 25.1933 18.1959 24.8704C18.5305 24.5155 18.8659 24.1607 19.1852 23.7934C19.6128 23.3097 19.9938 22.787 20.3232 22.2322C20.521 21.8975 20.6826 21.5428 20.8054 21.174C20.9647 20.6943 21.0219 20.1868 20.9736 19.6837C20.9447 19.3902 20.8905 19.0997 20.8114 18.8154C20.7274 18.504 20.618 18.2 20.4843 17.9064C20.3509 17.6179 20.203 17.3354 20.0469 17.0587C19.7987 16.6253 19.5245 16.2074 19.2258 15.8071C18.8787 15.3349 18.5145 14.8746 18.128 14.435C17.8286 14.0961 17.5295 13.7569 17.2201 13.4276C16.9242 13.1125 16.6207 12.805 16.3094 12.505C16.1804 12.3892 16.0714 12.253 15.9865 12.102ZM6.83905 4.80832C6.78464 4.93322 6.79353 4.99638 6.88492 5.08012C7.01828 5.20218 7.15661 5.31892 7.29139 5.43921C7.80738 5.9005 8.33156 6.35043 8.83511 6.82307C9.20103 7.16726 9.54633 7.53274 9.88808 7.90283C10.2466 8.28943 10.5776 8.7005 10.8788 9.13305C11.217 9.61917 11.5129 10.1266 11.7092 10.689C11.8962 11.2244 11.9819 11.7698 11.9094 12.3365C11.8368 12.9032 11.6345 13.4258 11.3685 13.9255C11.1227 14.3831 10.8324 14.8154 10.5019 15.2163C10.2885 15.478 10.0691 15.7346 9.84362 15.9863C9.62279 16.2326 9.39733 16.4746 9.16263 16.7074C8.90587 16.9625 8.63916 17.208 8.37174 17.4525C8.07018 17.7282 7.764 17.9986 7.45782 18.2686C7.26365 18.4404 7.06664 18.6075 6.87034 18.7782C6.83339 18.8103 6.81045 18.8556 6.8064 18.9044C6.80235 18.9531 6.81751 19.0015 6.84865 19.0393C6.87994 19.0163 6.9123 18.9943 6.94253 18.9684C7.37354 18.6192 7.80134 18.2665 8.23554 17.9213C8.77145 17.4955 9.29669 17.0572 9.78993 16.5828C10.11 16.2752 10.4211 15.9583 10.7287 15.6386C11.0613 15.2941 11.369 14.9265 11.6494 14.5386C11.8546 14.2552 12.0391 13.9575 12.2013 13.6476C12.3277 13.4029 12.4327 13.1478 12.5153 12.8851C12.5967 12.6299 12.6463 12.3657 12.6629 12.0984C12.6791 11.7757 12.6447 11.4525 12.5609 11.1404C12.4453 10.6791 12.2472 10.2533 12.0036 9.84627C11.5769 9.1366 11.0413 8.51528 10.4638 7.92732C10.221 7.67917 9.97283 7.4367 9.71916 7.19991C9.46383 6.9611 9.20565 6.72443 8.93681 6.49982C8.51897 6.14888 8.09081 5.80966 7.66656 5.46441C7.41573 5.26097 7.16503 5.05824 6.91444 4.85622C6.89038 4.83863 6.8652 4.82262 6.83905 4.80832ZM24.1706 5.64431C24.135 5.66773 24.1051 5.68405 24.0788 5.70498C23.7991 5.92758 23.5194 6.15054 23.2399 6.37385C22.7214 6.78936 22.2122 7.21481 21.7613 7.70519C21.4956 7.99438 21.2151 8.27009 20.9572 8.56602C20.4217 9.17989 19.9697 9.8484 19.677 10.6141C19.5679 10.893 19.4916 11.1835 19.4498 11.4799C19.3969 11.8585 19.4089 12.2433 19.4854 12.6179C19.5619 12.9796 19.6794 13.3315 19.8356 13.6668C20.0274 14.0809 20.2575 14.4763 20.523 14.8477C20.8673 15.3324 21.2343 15.799 21.6909 16.1858C21.7711 16.2549 21.8733 16.2933 21.9793 16.2943C21.972 16.2754 21.9633 16.257 21.9533 16.2393C21.8409 16.0779 21.7289 15.9164 21.6151 15.7561C21.3917 15.4373 21.1865 15.1062 21.0006 14.7643C20.7757 14.3491 20.5744 13.9215 20.3979 13.4837C20.2388 13.102 20.1371 12.6989 20.0963 12.2875C20.0711 12.0131 20.0772 11.7367 20.1144 11.4636C20.1695 11.0578 20.283 10.6621 20.4516 10.2887C20.6522 9.85288 20.8939 9.43704 21.1735 9.04682C21.6294 8.39428 22.1571 7.80206 22.7097 7.23113C22.8911 7.04555 23.0795 6.86742 23.268 6.68894C23.4814 6.48633 23.7001 6.28833 23.9159 6.08785C23.9871 6.02363 24.0543 5.9594 24.1222 5.89411C24.1901 5.82882 24.2004 5.74685 24.1706 5.64431ZM17.6803 26.1375C17.7311 26.102 17.7674 26.0832 17.8001 26.0576C18.1845 25.7571 18.5729 25.4619 18.9327 25.1319C19.1301 24.9513 19.3349 24.7788 19.5259 24.5922C19.7339 24.3888 19.9306 24.1738 20.1304 23.963C20.5127 23.5603 20.8737 23.1402 21.1813 22.6768C21.5621 22.1026 21.8733 21.498 22.0202 20.8178C22.0995 20.4505 22.134 20.0836 22.0877 19.7086C22.0553 19.4512 22.0015 19.197 21.927 18.9485C21.8461 18.6776 21.7416 18.4143 21.6148 18.1615C21.4327 17.791 21.2197 17.4365 20.9782 17.1016C20.6888 16.7049 20.4043 16.3029 20.0302 15.976C19.9242 15.8791 19.7908 15.8171 19.6482 15.7986C19.6577 15.8282 19.6696 15.8569 19.6838 15.8845C19.8015 16.0562 19.9221 16.2262 20.0394 16.3983C20.3101 16.7942 20.5516 17.2093 20.762 17.6402C20.9352 17.9968 21.0821 18.3659 21.2339 18.7328C21.3786 19.0851 21.4473 19.458 21.4711 19.8352C21.4809 20.0473 21.4751 20.2599 21.4537 20.4711C21.4146 20.9721 21.2549 21.4409 21.033 21.8876C20.916 22.1229 20.7823 22.351 20.6447 22.5753C20.309 23.1119 19.9283 23.6191 19.5067 24.0915C19.3438 24.2774 19.1774 24.4609 19.0056 24.6383C18.7648 24.8867 18.5205 25.1314 18.2727 25.3724C18.1042 25.5371 17.9288 25.6946 17.7564 25.855C17.6824 25.9263 17.6547 26.0108 17.6803 26.1375Z" fill="#151515"/>
</svg>
