<svg width="32" height="32" viewBox="0 0 32 32" fill="none" xmlns="http://www.w3.org/2000/svg">
<path fill-rule="evenodd" clip-rule="evenodd" d="M11.5439 12.8668C11.3369 12.8259 11.1284 12.8 10.8802 12.8C10.5705 12.8 10.3101 12.8512 10.0162 12.9168C9.09937 13.1214 8.35921 13.6059 7.83517 14.3749C7.27352 15.1994 6.97298 16.131 6.82118 17.1083C6.69366 17.9291 7.19641 18.8089 7.8953 19.0274C9.05383 19.3897 10.128 19.1706 11.08 18.4761C12.3794 17.5283 12.9921 16.2098 12.9987 14.6175C13.0024 13.6684 12.4826 13.051 11.5439 12.8668ZM10.4042 14.2022C10.8704 14.0968 11.2273 14.5004 11.2276 15.076C11.1596 16.0467 10.7612 16.9151 9.9136 17.556C9.59301 17.7985 9.19045 17.8527 8.92691 17.6896C8.60448 17.4904 8.48367 17.151 8.57656 16.7171C8.73322 15.9835 9.05383 15.3161 9.53229 14.7486C9.74359 14.4977 10.0848 14.2744 10.4042 14.2022Z" fill="#151515"/>
<path fill-rule="evenodd" clip-rule="evenodd" d="M28.8869 12.9204C29.0354 12.9204 29.1865 12.9186 29.3387 12.9167C29.7028 12.9123 30.0727 12.9079 30.427 12.9282C30.7888 12.9493 31.1058 13.1172 31.3432 13.4012C31.6741 13.7972 31.6887 14.476 31.3669 15.0357C31.0675 15.5556 30.6674 15.9925 30.1695 16.332C29.929 16.4956 29.8635 16.6575 30.0043 16.9313C30.1899 17.2911 30.3615 17.6582 30.5331 18.0253L30.5336 18.0265C30.6207 18.2128 30.7078 18.3992 30.7967 18.5845C30.9327 18.8685 30.8811 18.9744 30.5666 18.9871C30.303 18.998 30.0392 19.0021 29.7753 19.0062C29.6052 19.0088 29.435 19.0115 29.2648 19.0159C29.0219 19.0226 28.8659 18.9155 28.7802 18.691C28.7279 18.553 28.675 18.4153 28.6219 18.2777C28.5535 18.1004 28.4846 17.9234 28.4157 17.7463L28.3644 17.6144C28.3334 17.5346 28.3024 17.4548 28.2714 17.3749C28.2386 17.2906 28.2247 17.1913 28.1694 17.1263C28.0899 17.033 27.9806 16.9037 27.8828 16.9025C27.7899 16.9012 27.6478 17.0276 27.6102 17.1287C27.4886 17.4517 27.385 17.7811 27.2814 18.1104C27.2499 18.2105 27.2183 18.3106 27.1864 18.4105C26.9975 19.0015 26.9842 19.0099 26.36 18.9949C26.2891 18.9931 26.2181 18.9924 26.1471 18.9923C26.0803 18.9921 26.0135 18.9924 25.9467 18.9928C25.842 18.9933 25.7372 18.9938 25.6326 18.9925C25.4231 18.9895 25.3417 18.9046 25.4115 18.6868C25.5526 18.2499 25.691 17.8121 25.8293 17.3744L25.8328 17.3638C26.0487 16.6804 26.2646 15.9971 26.4911 15.3173C26.6988 14.6943 26.9359 14.0808 27.1728 13.4679L27.2185 13.3495C27.3843 12.92 27.3853 12.9201 27.7521 12.9212H27.7554L27.8147 12.9213C27.8375 12.9213 27.8615 12.9212 27.8869 12.921C27.978 12.9204 28.0691 12.9204 28.1595 12.9204H28.8869ZM28.705 15.4401C29.1197 15.4497 29.5392 15.1831 29.6437 14.8443C29.6777 14.7348 29.6746 14.5711 29.6139 14.4827C29.3692 14.1252 28.7651 13.9386 28.4827 14.455C28.4715 14.4755 28.4608 14.4958 28.4505 14.5159C28.4417 14.5332 28.4331 14.5503 28.4249 14.5672C28.4031 14.6118 28.3832 14.6551 28.3641 14.6965L28.3639 14.6968C28.3371 14.7552 28.3118 14.8099 28.2854 14.86C28.0771 15.2553 28.1281 15.357 28.5726 15.4299C28.6321 15.4395 28.6928 15.4389 28.705 15.4401Z" fill="#151515"/>
<path d="M15.4227 15.8499C15.5161 15.6976 15.6097 15.5454 15.7032 15.3931C15.9471 14.9963 16.1911 14.5995 16.4324 14.201C16.4867 14.1115 16.5392 14.0207 16.5912 13.9296L16.64 13.8438C16.7701 13.6151 16.9001 13.3865 17.0524 13.1732C17.1331 13.0595 17.3274 12.9842 17.478 12.9692C17.7773 12.9391 18.0828 12.9529 18.3846 12.968C18.7647 12.9866 18.8339 13.0612 18.7974 13.4259C18.7692 13.7077 18.7342 13.9888 18.6992 14.2699C18.6687 14.5147 18.6383 14.7593 18.6123 15.0044C18.5849 15.2656 18.5819 15.5292 18.5673 15.7916L18.6517 15.8259C18.7086 15.7421 18.7671 15.6593 18.8258 15.5765C18.9587 15.3886 19.0917 15.2007 19.2043 15.0014C19.5 14.4779 19.7847 13.9471 20.0464 13.4067C20.2037 13.0823 20.4217 12.9042 20.7909 12.9246C20.8852 12.9298 20.9798 12.9319 21.0744 12.934H21.0751C21.2427 12.9377 21.4102 12.9414 21.5754 12.9625C21.9178 13.0065 21.9798 13.1287 21.8109 13.4223C20.9985 14.8389 20.18 16.2525 19.3609 17.6655C19.31 17.7535 19.2583 17.841 19.2062 17.9283C19.15 18.0227 19.0932 18.1168 19.0365 18.2108C18.918 18.4075 18.7995 18.6041 18.6851 18.8029C18.577 18.9913 18.4295 19.0593 18.2127 19.0496C17.88 19.0346 17.5466 19.0461 17.2133 19.0449C16.7998 19.0437 16.7178 18.951 16.7512 18.5502C16.8003 17.9619 16.8434 17.373 16.8865 16.7847L16.8868 16.7802L16.8884 16.7586C16.8945 16.6738 16.889 16.5877 16.889 16.5023L16.8667 16.4916L16.8462 16.4818C16.832 16.4751 16.8177 16.4683 16.8034 16.4614C16.6856 16.5974 16.546 16.7201 16.4537 16.8706C16.0972 17.4513 15.7457 18.0357 15.4136 18.6302C15.2107 18.9931 14.9418 19.1484 14.5204 19.0683C14.3152 19.0292 14.0984 19.0491 13.8865 19.0473C13.4487 19.0437 13.3722 18.9901 13.4013 18.5664C13.4378 18.0369 13.4858 17.5082 13.5338 16.9792L13.534 16.9766L13.5349 16.9667C13.5623 16.6642 13.5898 16.3616 13.615 16.0588C13.6663 15.4457 13.7138 14.8326 13.7613 14.2195L13.7624 14.2054L13.7808 13.9681C13.7887 13.8688 13.7832 13.7683 13.7881 13.6684C13.8166 13.0366 13.9587 12.9072 14.6066 12.9319C14.8568 12.9415 15.11 12.9469 15.3565 12.9848C15.5799 13.0197 15.6698 13.1599 15.6255 13.3995C15.5277 13.9302 15.4427 14.464 15.3698 14.999C15.3454 15.1789 15.3391 15.3611 15.3327 15.5434C15.3317 15.5725 15.3307 15.6015 15.3296 15.6306C15.3274 15.6869 15.3251 15.7432 15.3219 15.7994L15.4214 15.8481L15.4227 15.8499Z" fill="#151515"/>
<path d="M4.66988 19.0418C4.61993 19.0418 4.56994 19.0421 4.51998 19.0424C4.44637 19.0429 4.37275 19.0433 4.29916 19.0428C4.26163 19.0426 4.22409 19.0421 4.18656 19.0412C3.83315 19.0328 3.76274 18.9492 3.86959 18.6212C4.04327 18.0886 4.22421 17.5584 4.4179 17.0324C4.58183 16.5871 4.57516 16.5462 4.09426 16.4788C3.83621 16.4427 3.57148 16.4481 3.30915 16.4499C3.07781 16.4517 2.94605 16.5907 2.87015 16.7995C2.79307 17.0128 2.71379 17.2253 2.63448 17.4378L2.63395 17.4392C2.48606 17.8356 2.33818 18.232 2.20467 18.6332C2.10571 18.9311 1.95634 19.0888 1.62238 19.0635C1.47352 19.0522 1.32386 19.0525 1.17422 19.0527C1.0119 19.053 0.849633 19.0532 0.688496 19.0388C0.392193 19.0123 0.352138 18.9155 0.443217 18.6464C0.66368 17.9972 0.88278 17.3475 1.10185 16.6978C1.36243 15.925 1.623 15.1522 1.88589 14.3804C1.97365 14.1225 2.06933 13.8672 2.16497 13.612C2.18819 13.5501 2.2114 13.4881 2.23453 13.4261C2.26308 13.3495 2.29145 13.2728 2.31944 13.196C2.37773 13.0366 2.47791 12.9613 2.66007 12.9674C2.84878 12.9737 3.03766 12.9719 3.22652 12.9702C3.33314 12.9692 3.43975 12.9683 3.54634 12.9687C3.59419 12.9689 3.64204 12.9694 3.68986 12.9704C3.93458 12.9746 4.04143 13.0859 3.95886 13.3399C3.82224 13.7587 3.69292 14.1793 3.5654 14.6006C3.47735 14.8919 3.53928 14.9791 3.84531 15.0147C3.88539 15.0195 3.92607 15.0189 3.96613 15.0206C4.63487 15.0435 5.09207 14.75 5.3378 14.1402C5.45316 13.8526 5.5491 13.5565 5.66446 13.2688C5.76464 13.0191 5.95044 12.8945 6.23278 12.9174C6.36273 12.9278 6.49303 12.9339 6.62325 12.94C6.79485 12.9481 6.96637 12.9562 7.1369 12.974C7.36158 12.9975 7.44477 13.1178 7.36522 13.3519C6.77199 15.1043 6.1812 16.8579 5.60193 18.6146C5.49567 18.9365 5.33536 19.1146 4.97226 19.0472C4.90505 19.0348 4.83496 19.0381 4.76496 19.0413C4.74723 19.0421 4.72953 19.0429 4.71186 19.0435C4.69784 19.0439 4.68382 19.0442 4.66988 19.0442V19.0418Z" fill="#151515"/>
<path d="M24.4729 17.6547C23.8475 17.6529 23.5359 17.6547 22.8358 17.6547H22.6233C22.6416 17.5941 22.6583 17.5384 22.6738 17.4866C22.7609 17.1951 22.812 17.0243 22.9269 16.7719C23.0028 16.6064 23.0483 16.5065 23.3216 16.5065H24.431C25.0217 16.5065 25.3089 16.4337 25.4468 15.8993C25.4822 15.8064 25.5141 15.713 25.5465 15.6157C25.6006 15.4532 25.6562 15.2803 25.7322 15.0827C25.5488 15.0827 25.3725 15.0831 25.2014 15.0835C24.7088 15.0847 24.2601 15.0859 23.8117 15.076C23.7145 15.0736 23.5037 15.0073 23.5341 14.8762C23.5419 14.8427 23.5486 14.8072 23.5556 14.7709C23.6028 14.5233 23.6581 14.2341 24.0885 14.2341C24.4917 14.2299 24.8961 14.2257 25.2993 14.242L25.3182 14.2428C26.1044 14.2745 26.1062 14.2746 26.3989 13.533C26.4062 13.5144 26.4183 13.4975 26.425 13.4789C26.558 13.1004 26.4651 12.9427 26.0631 12.9379C24.9629 12.9258 23.8621 12.924 22.7618 12.9367C22.655 12.9379 22.5026 13.0468 22.4528 13.1461C22.3137 13.4217 22.2056 13.7142 22.1061 14.0072C21.8298 14.8192 21.5561 15.6316 21.2823 16.444C21.0418 17.158 20.8012 17.872 20.5589 18.5857C20.4254 18.9799 20.4582 19.0388 20.8826 19.04C21.8012 19.043 22.7205 19.0394 23.6398 19.0412C24.2596 19.0432 24.6621 18.7524 24.8475 18.1686C24.9884 17.7251 24.9404 17.6565 24.4729 17.6547Z" fill="#151515"/>
</svg>
