<svg width="32" height="32" viewBox="0 0 32 32" fill="none" xmlns="http://www.w3.org/2000/svg">
<path d="M24 21.3399V24.7908H23.5432C18.5197 24.7908 13.4969 24.7939 8.47454 24.8C8.10924 24.8 7.99671 24.7169 8.00007 24.3421C8.01855 22.3346 7.98748 20.327 8.01519 18.3203C8.04458 16.1956 9.15306 14.9368 11.3415 14.7241C13.199 14.5437 15.0826 14.6169 16.9544 14.5911C18.2695 14.5728 19.5845 14.577 20.9013 14.5712H21.301V17.5991H13.0571C12.088 17.5991 11.7563 17.9315 11.7546 18.9012C11.7546 19.5792 11.7765 20.2581 11.7504 20.9353C11.737 21.2809 11.8655 21.3466 12.1838 21.3458C15.9476 21.3363 19.7111 21.3344 23.4743 21.3399H24Z" fill="#151515"/>
<path d="M23.9866 7.19995V10.6068H11.758V14.0967C10.4085 14.0136 9.33445 13.515 8.63745 12.4016C8.36621 11.9687 8.12184 11.4469 8.09077 10.9516C8.01351 9.71602 8.06557 8.47211 8.06557 7.19995H23.9866Z" fill="#151515"/>
</svg>
