<svg width="32" height="32" viewBox="0 0 32 32" fill="none" xmlns="http://www.w3.org/2000/svg">
<path d="M3.79643 17.9895C3.09136 17.9895 2.38684 17.9895 1.68176 17.9895C1.1108 17.986 0.808627 17.6655 0.803618 17.0484C0.798795 16.3526 0.798795 15.6563 0.803618 14.9597C0.80974 14.3581 1.10078 14.0204 1.65672 14.0162C3.12196 14.0049 4.58721 14.0162 6.05301 14.006C6.3396 14.006 6.29842 14.1904 6.30176 14.3802C6.3051 14.57 6.29675 14.7138 6.04132 14.7108C4.78031 14.6971 3.51874 14.7037 2.25717 14.7061C1.89267 14.7061 1.73073 14.8362 1.69456 15.1381C1.63891 15.5911 1.67342 15.6329 2.1008 15.6329C3.29726 15.6329 4.49372 15.6406 5.68962 15.6251C5.94059 15.6215 5.98233 15.723 5.97565 15.9539C5.96953 16.1694 5.9801 16.3275 5.69407 16.3239C4.48815 16.3084 3.28279 16.3138 2.07687 16.3239C1.92718 16.3239 1.70291 16.2165 1.68733 16.5424C1.6634 16.9887 1.76301 17.2281 2.03625 17.2847C2.1372 17.3004 2.23932 17.3056 2.34121 17.3003C3.54657 17.3003 4.75248 17.308 5.9584 17.2949C6.21661 17.2949 6.31177 17.3546 6.30955 17.653C6.30621 17.9388 6.21216 17.9985 5.96619 17.9985C5.24331 17.98 4.51987 17.9901 3.79643 17.9895Z" fill="#151515"/>
<path d="M22.6059 17.9889C21.8919 17.9889 21.1779 17.9889 20.4639 17.9889C19.9391 17.9889 19.6292 17.6685 19.6225 17.1075C19.6125 16.3615 19.6136 15.6156 19.6225 14.8702C19.6281 14.3963 19.8941 14.0944 20.3315 14.0347C20.4422 14.0196 20.5537 14.0121 20.6654 14.012C22.0455 14.0084 23.4272 14.018 24.8084 14.0001C25.0867 13.9965 25.1201 14.1194 25.1273 14.3689C25.1351 14.6327 25.0578 14.7108 24.8135 14.7085C23.5708 14.6965 22.3282 14.7001 21.085 14.7025C20.6437 14.7025 20.5029 14.8708 20.4934 15.3297C20.4884 15.5684 20.5747 15.637 20.7872 15.6347C21.6125 15.6257 22.4378 15.6317 23.2631 15.6317H24.4317C24.779 15.6317 24.7656 15.6317 24.7778 16.0142C24.7862 16.2577 24.7005 16.3198 24.4885 16.3186C23.3109 16.3108 22.1334 16.3144 20.9559 16.3144C20.5018 16.3144 20.3743 16.5268 20.5374 16.9959C20.6359 17.2788 20.8512 17.2997 21.0822 17.2997L24.6738 17.2985C24.7478 17.2985 24.8218 17.3021 24.8964 17.2985C25.1958 17.2877 25.1039 17.5276 25.119 17.6983C25.1368 17.8815 25.1045 17.9967 24.8875 17.9967C24.1273 17.986 23.3671 17.9925 22.6059 17.9925V17.9889Z" fill="#151515"/>
<path d="M18.6442 15.6341C18.7332 16.3168 18.7332 16.3162 18.1528 16.3162C17.0309 16.3162 15.9096 16.3132 14.7883 16.3209C14.6447 16.3209 14.4343 16.2195 14.3987 16.5131C14.3509 16.9147 14.4688 17.2167 14.7254 17.274C14.8725 17.2997 15.0217 17.3091 15.1706 17.3021C16.3392 17.3021 17.5078 17.3021 18.6737 17.3021C18.992 17.3021 19.1584 17.5933 18.9964 17.8935C18.9592 17.9627 18.8084 17.9878 18.7093 17.9884C17.4394 17.9937 16.17 17.9884 14.9001 17.9884C14.7148 17.9884 14.5295 17.9925 14.3436 17.9884C13.8572 17.9758 13.5512 17.678 13.5412 17.1612C13.5256 16.3765 13.5272 15.5905 13.5412 14.8057C13.5489 14.3749 13.815 14.0896 14.2179 14.0359C14.3842 14.0165 14.5514 14.0079 14.7187 14.0102C16.0417 14.0082 17.3661 14.0074 18.692 14.0078C18.7586 14.0071 18.824 14.0262 18.8811 14.0628C18.9382 14.0995 18.9847 14.1523 19.0155 14.2155C19.0464 14.2787 19.0604 14.3498 19.0559 14.421C19.0515 14.4922 19.0288 14.5607 18.9903 14.6189C18.9491 14.6834 18.8139 14.7007 18.7215 14.7013C17.4795 14.7067 16.2374 14.7013 14.993 14.7055C14.5551 14.7055 14.3982 14.8845 14.3915 15.3255C14.3876 15.5571 14.4638 15.6382 14.6825 15.6364C15.8968 15.6287 17.1105 15.6335 18.3248 15.6364L18.6442 15.6341Z" fill="#151515"/>
<path d="M28.1797 17.9889C27.4479 17.9889 26.715 17.9818 25.9832 17.9943C25.7606 17.9979 25.6977 17.9191 25.6994 17.6864C25.709 16.5632 25.709 15.4401 25.6994 14.317C25.6994 14.0926 25.7517 14.0025 25.9776 14.0043C27.4195 14.0144 28.8558 14.006 30.2943 14.012C30.8976 14.012 31.1947 14.3432 31.1975 14.9907C31.1975 15.6866 31.2031 16.3824 31.1975 17.0795C31.192 17.6607 30.8903 17.9842 30.3528 17.9884C29.6266 17.9931 28.9031 17.9889 28.1797 17.9889ZM28.3271 17.2985V17.3027C28.8091 17.3027 29.291 17.3062 29.774 17.3027C30.1675 17.2985 30.3083 17.1451 30.311 16.722C30.3144 16.2547 30.3138 15.788 30.311 15.3207C30.311 14.8648 30.1708 14.7102 29.7456 14.7085C28.7824 14.7037 27.8191 14.7085 26.8552 14.7025C26.6566 14.7025 26.5714 14.7622 26.577 14.9883C26.5866 15.6647 26.5866 16.341 26.577 17.0174C26.5736 17.2442 26.6582 17.3092 26.8552 17.305C27.3449 17.2919 27.838 17.2985 28.3288 17.2985H28.3271Z" fill="#151515"/>
<path d="M12.8027 14.0884L10.501 16.0053L12.7899 17.9084C12.3108 17.946 11.835 18.1423 11.4042 17.7407C10.9991 17.3629 10.5545 17.0353 10.1388 16.6707C9.97182 16.5221 9.8455 16.5316 9.68077 16.6748C9.27787 17.0246 8.84938 17.3414 8.45649 17.7025C8.21386 17.9251 7.96344 18.0259 7.64958 17.9943C7.45147 17.9746 7.25058 17.9907 7.02854 17.9215C7.17601 17.7944 7.32181 17.6655 7.47373 17.5414C8.00128 17.1037 8.52939 16.6673 9.05806 16.232C9.32351 16.013 9.32295 16.0011 9.06474 15.7874C8.44035 15.2722 7.8169 14.756 7.19437 14.2388C7.13144 14.188 7.07991 14.1227 7.04356 14.0478C7.51268 14.0627 7.9896 13.8592 8.42088 14.2764C8.81821 14.6613 9.27008 14.9812 9.68745 15.3434C9.85774 15.4914 9.98685 15.4729 10.1488 15.3333C10.5528 14.9848 10.978 14.6637 11.3731 14.3056C11.6146 14.0866 11.8628 13.9726 12.18 14.0072C12.3775 14.0281 12.579 14.0114 12.7788 14.0114C12.7877 14.0359 12.7949 14.0598 12.8027 14.0884Z" fill="#151515"/>
</svg>
