<svg width="32" height="32" viewBox="0 0 32 32" fill="none" xmlns="http://www.w3.org/2000/svg">
<path d="M15.9944 23.5991C14.5359 23.6114 13.0799 23.4825 11.6495 23.2143C9.96603 22.8858 8.33066 22.3905 6.81351 21.6053C5.56432 20.9594 4.43414 20.1705 3.57193 19.0842C2.61514 17.8845 2.17615 16.555 2.51189 15.0513C2.71523 14.1415 3.18338 13.3474 3.81861 12.6386C4.60674 11.7503 5.58166 11.0681 6.64721 10.5009C8.07452 9.74012 9.60428 9.23369 11.1971 8.90002C13.2499 8.46553 15.3587 8.31293 17.458 8.44698C18.9656 8.53321 20.4586 8.7749 21.9101 9.1677C23.6551 9.65411 25.3062 10.3259 26.7627 11.3758C27.6674 12.0291 28.4461 12.7846 28.9694 13.7486C29.5739 14.8496 29.7875 15.9923 29.4171 17.2224C29.0467 18.4525 28.2711 19.4246 27.2726 20.2528C26.2922 21.0647 25.1714 21.6616 23.9743 22.154C22.8303 22.6181 21.6376 22.9678 20.4159 23.1972C19.5694 23.3589 18.704 23.4471 17.8434 23.5287C17.231 23.5835 16.6108 23.5754 15.9944 23.5991ZM16.2679 23.0259C16.9158 22.9718 17.83 22.8925 18.745 22.8198C19.7822 22.7368 20.7942 22.5232 21.7888 22.2541C22.9369 21.951 24.0428 21.5209 25.0832 20.9728C26.1211 20.4211 27.0535 19.7538 27.7951 18.8737C28.4595 18.0847 28.8859 17.2046 28.9237 16.1695C28.9655 15.0083 28.5218 14.0229 27.7746 13.1383C26.8856 12.0832 25.7326 11.3454 24.4676 10.7508C22.6423 9.89064 20.6925 9.40868 18.6772 9.19365C16.7067 8.97201 14.7135 8.99869 12.7505 9.27299C10.9488 9.53102 9.21258 9.97443 7.57642 10.7337C6.44309 11.2594 5.40276 11.9119 4.54054 12.795C3.92895 13.4223 3.44346 14.1297 3.22042 14.9535C2.85236 16.3193 3.18574 17.5649 4.06372 18.6927C5.01894 19.9206 6.31777 20.7377 7.74665 21.3836C9.05101 21.9723 10.4263 22.3586 11.8505 22.6166C13.2242 22.8621 14.6065 22.9629 16.2711 23.023L16.2679 23.0259Z" fill="#151515"/>
<path d="M16.1923 22.4446C14.5451 22.432 13.0397 22.3193 11.5604 22.0272C9.96445 21.712 8.4213 21.2434 7.00345 20.4701C5.96469 19.9043 5.03627 19.2162 4.34981 18.2604C3.24643 16.7278 3.35834 14.9127 4.53502 13.4742C5.24434 12.6089 6.14911 11.9712 7.15083 11.4448C8.09331 10.9582 9.09353 10.5779 10.1307 10.3118C11.1682 10.0461 12.2251 9.85284 13.2927 9.73345C14.6144 9.57625 15.9385 9.57329 17.2625 9.62297C18.3246 9.66984 19.3808 9.79829 20.4206 10.0071C21.918 10.2962 23.3587 10.7359 24.7064 11.4159C25.9178 12.032 27.0062 12.7883 27.7415 13.9139C28.6589 15.316 28.6502 16.7315 27.7589 18.1403C27.1969 19.0301 26.3852 19.6848 25.4733 20.2328C24.0878 21.0625 22.569 21.5741 20.9809 21.9293C19.355 22.2933 17.7126 22.4127 16.1923 22.4446ZM14.099 12.6059C14.1473 12.6327 14.1979 12.6555 14.2503 12.6741C14.8982 12.8506 15.1054 13.2673 15.0873 13.8798C15.0384 15.5207 15.0337 17.1638 15.0085 18.8054C15.0006 19.3245 14.7894 19.7137 14.2251 19.8717C14.1466 19.8852 14.077 19.9275 14.0315 19.9891C13.986 20.0508 13.9683 20.127 13.9823 20.2009C13.9942 20.3307 13.9989 20.4619 14.0076 20.6028C14.1376 20.6154 14.2267 20.6317 14.3165 20.6324C15.4451 20.6403 16.5748 20.647 17.7055 20.6525C18.0995 20.6525 18.1531 20.5783 18.1358 20.215C18.1263 20.0229 18.0089 19.9822 17.8473 19.9273C17.3555 19.7612 17.0718 19.4824 17.0939 18.8974C17.1309 17.9223 17.1183 16.9465 17.1325 15.9708C17.1443 15.0943 17.1648 14.2179 17.179 13.3415C17.1885 12.7861 17.194 12.2293 17.2034 11.6746C17.2034 11.4833 17.1538 11.3039 16.9244 11.298C16.6383 11.2854 16.327 11.2557 16.0693 11.3439C15.397 11.5731 14.7476 11.863 14.099 12.1225V12.6059ZM18.2572 14.8571C18.4258 14.8652 18.5425 14.8749 18.6591 14.8756C20.8359 14.8959 23.013 14.9149 25.1903 14.9327C25.8398 14.9371 26.3812 14.4433 26.4466 13.7641L19.4189 13.6737C19.4189 13.4683 19.4189 13.3118 19.4189 13.1546C19.4226 13.1268 19.4199 13.0985 19.4111 13.0717C19.4023 13.0449 19.3875 13.0201 19.3678 12.9991C19.348 12.9781 19.3237 12.9612 19.2965 12.9497C19.2693 12.9381 19.2398 12.9322 19.21 12.9322C18.9003 12.9203 18.5905 12.9322 18.2564 12.9322L18.2572 14.8571ZM14.0257 13.6351L5.67151 13.5291C5.70382 13.842 5.86775 14.0392 6.00095 14.2439C6.22872 14.5938 6.54476 14.7525 7.01054 14.7518C8.83349 14.7518 10.6572 14.7896 12.481 14.8133C12.9002 14.8192 13.3203 14.8281 13.742 14.8348C13.887 14.8348 14.0178 14.8007 14.0225 14.642C14.0328 14.3254 14.0257 14.0073 14.0257 13.6351ZM18.2028 16.7968C18.3549 16.8072 18.4826 16.8212 18.6102 16.8235C19.5284 16.839 20.4474 16.8553 21.3687 16.865C22.2617 16.8739 23.1546 16.8843 24.0483 16.8783C24.6489 16.8783 25.2053 16.3274 25.2077 15.7239C25.0666 15.7239 24.9255 15.7239 24.7845 15.7239C23.4058 15.709 22.0276 15.6944 20.6499 15.6801C19.9406 15.6734 19.2313 15.6801 18.522 15.6608C18.3045 15.6564 18.2028 15.7231 18.2067 15.93C18.2083 16.1999 18.2059 16.4698 18.2059 16.7968H18.2028ZM13.9768 15.5911C13.1556 15.5911 12.3722 15.5911 11.5888 15.5911C10.8054 15.5911 10.0125 15.5793 9.22913 15.5785C8.44573 15.5778 7.67336 15.517 6.84661 15.5622C6.94332 15.8459 7.09747 16.1092 7.30057 16.3378C7.39553 16.4629 7.52196 16.564 7.66857 16.6319C7.81518 16.6998 7.9774 16.7325 8.14072 16.7271C9.93687 16.7389 11.733 16.7641 13.5284 16.7827C13.6687 16.7827 13.809 16.7708 13.9768 16.7634V15.5911ZM8.4741 18.3235C8.59134 18.7141 8.8226 19.066 9.14165 19.3393C9.29032 19.463 9.48396 19.5281 9.6823 19.521C10.3782 19.521 11.0741 19.5365 11.7701 19.5388C11.8999 19.546 12.0298 19.5255 12.1499 19.4787C12.7016 19.214 13.2376 18.9359 13.7759 18.6564C13.8507 18.6171 13.9548 18.5474 13.9603 18.4851C13.9973 18.0706 13.9973 17.6539 13.9603 17.2394C13.8231 17.2995 13.7412 17.3306 13.6639 17.3692C13.0973 17.6524 12.5369 17.9461 11.9632 18.216C11.7899 18.2965 11.5999 18.34 11.4067 18.3435C10.5666 18.3479 9.72644 18.3316 8.88472 18.3227L8.4741 18.3235ZM18.1854 17.6717C18.1752 17.9498 18.1586 18.1907 18.1594 18.434C18.1594 18.778 18.1768 18.8143 18.5291 18.7973C19.0185 18.7736 19.4181 18.9307 19.7814 19.2192C19.9207 19.331 20.0726 19.428 20.2346 19.5084C20.3597 19.5729 20.4982 19.6111 20.6405 19.6203C21.2292 19.6344 21.8227 19.6411 22.4082 19.6203C22.5896 19.6188 22.7659 19.5641 22.9126 19.4639C23.228 19.2227 23.4592 18.898 23.5763 18.5318C23.4761 18.5051 23.3738 18.4857 23.2705 18.474C22.8386 18.4614 22.4035 18.428 21.9748 18.4562C21.1796 18.5081 20.4379 18.3998 19.805 17.9127C19.3196 17.5427 18.7687 17.6984 18.1854 17.6717Z" fill="#151515"/>
</svg>
