<svg width="32" height="32" viewBox="0 0 32 32" fill="none" xmlns="http://www.w3.org/2000/svg">
<path d="M16.0241 4.80148C21.9716 4.69582 28.0255 9.58583 27.5765 16.7002C27.1891 22.8396 21.9784 27.267 15.8267 27.199C9.58138 27.1338 4.16655 22.1581 4.40776 15.6102C4.63891 9.34431 9.92766 4.78062 16.0241 4.80148ZM5.97972 14.9243C6.01809 15.331 6.06012 16.0986 6.16884 16.8574C6.47127 18.9725 7.16931 20.9504 8.35753 22.7623C9.11267 23.914 10.1232 24.7318 11.4352 25.2113C14.1963 26.2201 16.9912 26.2995 19.8172 25.5035C20.9853 25.1745 22.0483 24.6599 22.914 23.8026C23.5536 23.169 23.9647 22.4 24.3339 21.6031C25.1813 19.7788 25.7313 17.8799 25.8752 15.8757C25.9681 14.5109 25.8982 13.1403 25.6669 11.7911C25.3928 10.1364 24.5308 8.86969 23.0346 7.99948C20.7797 6.68796 18.3448 6.09347 15.7253 6.08015C13.0666 6.06639 10.676 6.79496 8.50737 8.27786C7.31367 9.09479 6.53934 10.1501 6.28716 11.5682C6.10991 12.5636 5.9989 13.5577 5.97972 14.9243Z" fill="#151515"/>
<path d="M7.86278 13.1825C7.92217 12.2342 7.95414 11.3999 8.03135 10.5701C8.11129 9.72347 8.59828 9.13741 9.3918 8.80132C10.4855 8.33869 11.6403 8.0945 12.8148 7.92445C14.5152 7.68069 16.2383 7.62305 17.9519 7.75263C19.4896 7.86496 20.983 8.15133 22.3992 8.78755C23.3444 9.21244 23.8272 9.92681 23.9456 10.8956C24.1068 12.2129 24.068 13.5355 23.9743 14.855C23.7761 17.6521 23.1219 20.348 22.0762 22.9563C22.0069 23.126 21.8973 23.2774 21.7564 23.3981C21.0456 23.9926 20.1849 24.2861 19.2895 24.4703C16.7993 24.9822 14.3265 24.9219 11.8888 24.1844C11.5797 24.0832 11.2786 23.9602 10.988 23.8163C10.5359 23.6093 10.1794 23.246 9.98796 22.7974C9.14054 20.8763 8.51696 18.8904 8.22916 16.8174C8.05465 15.5756 7.97379 14.3213 7.86278 13.1825ZM17.7057 16.4747V20.7333H18.6532C18.6573 20.6752 18.6632 20.6317 18.6632 20.5886C18.6632 18.2772 18.6623 15.966 18.6605 13.6549C18.6564 13.545 18.628 13.4372 18.5773 13.3388C18.3425 12.8598 18.0935 12.3869 17.8583 11.9074C17.7829 11.7529 17.6755 11.6916 17.5015 11.6939C16.9396 11.701 16.3772 11.697 15.8149 11.6987C15.4782 11.6987 15.4768 11.7014 15.4768 12.0366C15.4768 14.8648 15.4768 17.6929 15.4768 20.5211C15.4768 20.5992 15.4841 20.6769 15.4869 20.7404H16.3777V16.4747H17.7057ZM11.1419 15.4348V12.7368H12.9039V11.7489H10.1794V20.7617H11.125V16.4387H12.5366V15.4348H11.1419ZM20.8423 20.7364V12.7421H21.7889V11.7551H18.904V12.7607H19.8633V20.7364H20.8423ZM14.3174 20.7688V11.7245H13.3996V20.7688H14.3174Z" fill="#151515"/>
<path d="M17.6911 15.2146H16.4055V12.711C16.634 12.711 16.8578 12.7004 17.0812 12.7177C17.1424 12.7226 17.221 12.8016 17.2502 12.8646C17.3928 13.1732 17.5312 13.484 17.649 13.8019C17.6947 13.9218 17.6874 14.0621 17.6897 14.193C17.6938 14.5296 17.6911 14.8661 17.6911 15.2146Z" fill="#151515"/>
</svg>
