<svg width="32" height="32" viewBox="0 0 32 32" fill="none" xmlns="http://www.w3.org/2000/svg">
<path d="M1.60071 16.0932C1.6024 15.4666 1.7378 14.9892 1.96893 14.5409C2.10203 14.2827 2.23673 14.0266 2.44148 13.8192C2.57312 13.6859 2.67576 13.5192 2.81046 13.3902C3.02641 13.1834 3.25317 12.9882 3.48477 12.8016C3.68391 12.6411 3.88889 12.4856 4.10468 12.3527C4.44045 12.146 4.78243 11.9489 5.13147 11.7692C5.4664 11.5967 5.80938 11.4399 6.15658 11.2977C6.49895 11.1574 6.85006 11.0408 7.1991 10.92C7.46982 10.8263 7.74107 10.7325 8.01624 10.6556C8.43724 10.538 8.8603 10.4277 9.28529 10.3278C9.68396 10.2342 10.0843 10.1447 10.4874 10.0777C11.0602 9.98254 11.6349 9.89794 12.211 9.83057C12.7868 9.7632 13.3649 9.71741 13.9427 9.67121C15.0079 9.58595 16.0749 9.58907 17.1418 9.61894C17.5533 9.63043 17.9649 9.65308 18.3756 9.68377C18.826 9.71741 19.2762 9.75836 19.7251 9.81079C20.1447 9.85986 20.5631 9.92313 20.9807 9.98935C21.3619 10.0498 21.7431 10.1131 22.1211 10.1924C22.5305 10.2784 22.9376 10.3779 23.3431 10.4834C23.7103 10.579 24.0751 10.6858 24.4387 10.7965C24.7558 10.8931 25.0727 10.9923 25.3838 11.1084C25.6529 11.2087 25.9153 11.3306 26.1782 11.4492C26.4664 11.5793 26.7605 11.6988 27.0362 11.8549C27.4351 12.0807 27.8253 12.3257 28.2085 12.5808C28.4604 12.7485 28.7092 12.9293 28.9312 13.1384C29.2573 13.4455 29.5641 13.7737 29.8146 14.1622C30.0649 14.5506 30.2497 14.9646 30.3447 15.4213C30.4151 15.7602 30.4155 16.1035 30.3618 16.4503C30.3049 16.8187 30.1905 17.1614 30.0269 17.4874C29.8999 17.7408 29.7419 17.9703 29.5673 18.1906C29.2432 18.5995 28.8722 18.9499 28.4612 19.2523C28.2036 19.4419 27.9456 19.6346 27.6712 19.7934C27.2624 20.03 26.845 20.2522 26.4201 20.4535C26.0215 20.6423 25.6111 20.8046 25.2005 20.9622C24.913 21.0724 24.6165 21.156 24.3235 21.2498C24.1195 21.3151 23.9159 21.3832 23.7097 21.4401C23.4387 21.5147 23.1661 21.5832 22.8928 21.6474C22.6197 21.7116 22.3459 21.7729 22.0709 21.8254C21.7257 21.8913 21.3793 21.9506 21.0326 22.0062C20.6494 22.0676 20.2657 22.1273 19.8811 22.1767C19.5183 22.2233 19.1543 22.2624 18.79 22.2922C18.3659 22.3269 17.941 22.3603 17.516 22.3723C16.8372 22.3914 16.158 22.396 15.479 22.3996C15.1503 22.4013 14.8209 22.3954 14.4925 22.3772C13.9787 22.3488 13.465 22.315 12.9524 22.2684C12.5103 22.2282 12.0696 22.1695 11.6289 22.1139C11.3566 22.0796 11.0846 22.0411 10.8139 21.9953C10.4971 21.9419 10.1798 21.8889 9.86639 21.8174C9.37919 21.7063 8.89321 21.5876 8.41023 21.4575C7.97351 21.3398 7.53993 21.208 7.10804 21.0714C6.91158 21.0093 6.72302 20.919 6.53001 20.8441C6.39454 20.7915 6.25362 20.7527 6.12191 20.6913C5.65979 20.4755 5.19722 20.2602 4.7417 20.0292C4.49652 19.9049 4.26194 19.755 4.0285 19.606C3.6329 19.3535 3.2656 19.0574 2.91932 18.7334C2.69325 18.5218 2.48298 18.2919 2.31529 18.0224C2.17406 17.7954 2.01143 17.5791 1.89997 17.3363C1.70581 16.9134 1.58982 16.4619 1.60071 16.0932ZM16.234 21.6526C16.7522 21.6314 17.3474 21.6126 17.9419 21.581C18.3451 21.5595 18.7481 21.5266 19.1501 21.4867C19.5818 21.4438 20.0131 21.3935 20.443 21.3334C20.7749 21.2869 21.1047 21.2224 21.4347 21.1621C21.7745 21.1 22.1155 21.0428 22.4526 20.9661C22.8542 20.8746 23.2547 20.7742 23.6512 20.6601C24.0836 20.5356 24.513 20.3977 24.9398 20.2528C25.2476 20.1482 25.5544 20.036 25.8521 19.903C26.2029 19.7462 26.5474 19.5718 26.887 19.3889C27.1422 19.2513 27.388 19.0931 27.6328 18.9348C27.8288 18.8081 28.0236 18.6769 28.2068 18.5304C28.3837 18.3889 28.551 18.2317 28.7118 18.0694C28.8716 17.9081 29.0389 17.7477 29.1656 17.5584C29.3321 17.3096 29.4785 17.0462 29.5834 16.7531C29.7205 16.3697 29.7442 15.9808 29.6794 15.5915C29.6197 15.2321 29.4672 14.9009 29.2642 14.6044C29.1457 14.4312 29.0152 14.2665 28.8808 14.1068C28.7866 13.9948 28.6833 13.8892 28.5728 13.7959C28.3584 13.6149 28.1412 13.4369 27.916 13.2722C27.6834 13.1021 27.4485 12.9313 27.1989 12.7929C26.8391 12.5935 26.4671 12.4188 26.0969 12.2418C25.8401 12.119 25.5811 11.9999 25.3169 11.8974C25.0243 11.7838 24.7264 11.6847 24.4277 11.5906C24.0151 11.4607 23.6008 11.3363 23.1848 11.2196C22.9069 11.1417 22.6258 11.0758 22.3441 11.015C22.0753 10.957 21.804 10.9124 21.5338 10.862C21.2823 10.8152 21.0313 10.7631 20.7789 10.7231C20.5408 10.6854 20.3011 10.658 20.0616 10.6304C19.5792 10.5748 19.0972 10.5109 18.6135 10.4718C18.117 10.4316 17.6189 10.4066 17.1211 10.3934C16.554 10.3784 15.9864 10.3767 15.4191 10.3824C14.959 10.3871 14.4988 10.4064 14.039 10.4284C13.7079 10.4442 13.3768 10.468 13.0469 10.501C12.619 10.5437 12.1918 10.5965 11.765 10.6502C11.5198 10.681 11.2751 10.7184 11.0313 10.7599C10.7482 10.8081 10.466 10.8634 10.1837 10.9172C9.91502 10.9684 9.64438 11.0111 9.37865 11.0768C8.99992 11.1704 8.62441 11.2795 8.24852 11.3858C7.95426 11.469 7.65815 11.5472 7.36879 11.6473C7.03202 11.7638 6.69901 11.8942 6.36946 12.0323C6.03039 12.1744 5.68971 12.3163 5.36391 12.4891C4.99178 12.6864 4.63392 12.9151 4.27253 13.135C3.9343 13.3408 3.62922 13.5962 3.34285 13.8767C3.08456 14.1297 2.84199 14.3987 2.66394 14.7249C2.57948 14.8798 2.48597 15.0331 2.42836 15.1998C2.30378 15.5602 2.2543 15.932 2.30861 16.3201C2.37152 16.7703 2.55862 17.1569 2.81093 17.5096C2.94509 17.6971 3.09875 17.8717 3.26 18.0333C3.46513 18.239 3.68008 18.4352 3.90362 18.6175C4.08289 18.7637 4.27828 18.8885 4.47198 19.0132C4.67511 19.1439 4.88223 19.2681 5.09243 19.3854C5.23688 19.466 5.38976 19.5293 5.53851 19.6013C5.72032 19.6893 5.89844 19.7872 6.08401 19.8647C6.34353 19.973 6.60849 20.0666 6.87115 20.1663C7.08395 20.2471 7.29376 20.3393 7.5104 20.406C7.94574 20.5403 8.38285 20.6696 8.82302 20.7843C9.24855 20.8951 9.67752 20.9924 10.1075 21.082C10.5186 21.1676 10.9315 21.2474 11.3463 21.3082C11.8129 21.3765 12.2818 21.4285 12.7509 21.4734C13.321 21.528 13.8916 21.5809 14.4631 21.6104C15.0271 21.6397 15.5923 21.6387 16.234 21.6526Z" fill="#151515"/>
<path d="M16.1983 20.8746C15.395 20.8491 14.5914 20.8307 13.7884 20.7952C13.3782 20.777 12.9684 20.7352 12.5597 20.691C12.0703 20.638 11.5817 20.5761 11.0939 20.508C10.8297 20.4711 10.5681 20.413 10.3053 20.3651C10.0717 20.3226 9.83722 20.2846 9.60433 20.2379C9.41247 20.1993 9.22176 20.1539 9.03174 20.106C8.72727 20.0292 8.4225 19.9531 8.12025 19.867C7.79806 19.7753 7.47218 19.6913 7.15935 19.5702C6.51658 19.3213 5.87434 19.0707 5.26555 18.7297C4.8398 18.4912 4.43161 18.2263 4.06278 17.9001C3.86939 17.7291 3.71428 17.5094 3.53592 17.318C3.39692 17.1688 3.31069 16.9861 3.22409 16.8025C3.0768 16.4903 3.03614 16.1615 3.07143 15.8141C3.10311 15.502 3.19931 15.2156 3.35933 14.9601C3.5505 14.6549 3.77265 14.3763 4.04705 14.1458C4.3694 13.8751 4.70011 13.621 5.06679 13.4232C5.32508 13.2838 5.57885 13.1339 5.84258 13.0076C6.09995 12.8841 6.36622 12.7817 6.63057 12.6755C6.81645 12.601 7.00409 12.5306 7.19356 12.4673C7.45638 12.3794 7.72035 12.2949 7.98608 12.2178C8.30582 12.1251 8.62655 12.0352 8.94943 11.9563C9.25145 11.8825 9.55607 11.8201 9.861 11.7611C10.1517 11.7048 10.4436 11.6554 10.7359 11.6099C11.1765 11.5414 11.6167 11.4649 12.0595 11.4173C12.6874 11.3497 13.3172 11.3008 13.9468 11.2521C15.019 11.1691 16.093 11.1749 17.1666 11.2031C17.747 11.2184 18.3274 11.2565 18.9064 11.3044C19.4243 11.3473 19.9407 11.4136 20.4569 11.4772C20.8007 11.5195 21.1444 11.5667 21.4858 11.6274C21.8523 11.6926 22.2169 11.7713 22.5807 11.8527C22.999 11.9464 23.4216 12.0267 23.8312 12.1538C24.4624 12.3498 25.0918 12.5592 25.7075 12.8041C26.1242 12.9699 26.5212 13.196 26.9175 13.4151C27.1705 13.5549 27.4099 13.7244 27.6483 13.8921C27.9593 14.1109 28.2293 14.3837 28.465 14.6894C28.6625 14.9456 28.8152 15.2417 28.891 15.5623C29.0057 16.0477 28.9353 16.5148 28.7028 16.9588C28.4881 17.3686 28.1853 17.6946 27.8497 17.9762C27.5391 18.2368 27.1922 18.4519 26.848 18.6616C26.423 18.9205 25.976 19.1337 25.5136 19.3079C25.2904 19.392 25.0725 19.4928 24.8478 19.5717C24.6041 19.6574 24.3562 19.73 24.1084 19.8017C23.8126 19.8873 23.5167 19.9741 23.2178 20.0456C22.8101 20.1432 22.4009 20.2357 21.9897 20.3139C21.5344 20.4005 21.0774 20.48 20.6188 20.5414C20.0416 20.6185 19.4631 20.6935 18.883 20.7344C18.0863 20.7905 17.2878 20.8141 16.4899 20.8504C16.3931 20.8548 16.2961 20.851 16.1991 20.851C16.1985 20.8588 16.1984 20.8667 16.1983 20.8746ZM8.79048 15.506C8.71139 15.5178 8.63154 15.5208 8.55644 15.5427C8.24713 15.6323 7.99452 15.8291 7.7821 16.0732C7.49781 16.3998 7.26644 16.7635 7.15344 17.2071C7.07458 17.5166 7.06599 17.8236 7.15283 18.1203C7.23591 18.4039 7.42171 18.6345 7.62216 18.8363C7.86679 19.0826 8.15569 19.251 8.50028 19.2784C8.76026 19.2991 9.0184 19.2898 9.26319 19.1786C9.40388 19.1146 9.5451 19.0503 9.68042 18.9746C9.82541 18.8937 9.97047 18.8091 10.1035 18.7081C10.2581 18.5907 10.4015 18.4557 10.5466 18.3243C10.6501 18.2307 10.7522 18.1348 10.8478 18.0322C10.9433 17.9298 11.0252 17.813 11.1209 17.7109C11.3607 17.4547 11.5691 17.1718 11.7573 16.8713C11.8303 16.7549 11.8938 16.6316 11.9663 16.5147C12.1057 16.29 12.2486 16.0678 12.3897 15.8443C12.4879 15.6886 12.5779 15.5432 12.7942 15.5462C13.0412 15.5495 13.2886 15.5065 13.5361 15.4875C13.5997 15.4827 13.6649 15.4878 13.7283 15.4965C13.8289 15.5105 13.9341 15.5606 14.0276 15.5412C14.1242 15.5211 14.2374 15.4581 14.2934 15.3753C14.4237 15.183 14.4435 14.9562 14.3612 14.7313C14.3349 14.6598 14.2933 14.5831 14.2381 14.5374C14.0628 14.3918 13.6777 14.4725 13.5929 14.7914C13.5728 14.8671 13.5636 14.9691 13.5144 15.0069C13.4618 15.0473 13.3679 15.029 13.2919 15.0307C13.1705 15.0334 13.049 15.0314 12.9059 15.0314C13.0361 14.8598 13.15 14.7007 13.2732 14.5501C13.3915 14.4054 13.5174 14.2676 13.6438 14.1308C13.8123 13.9482 13.9761 13.7591 14.157 13.5915C14.4029 13.3636 14.6666 13.1579 14.9147 12.9325C14.9793 12.8738 15.0306 12.8754 15.0969 12.9009C15.1196 12.9097 15.1424 12.919 15.1659 12.9253C15.6107 13.0451 16.0545 13.1696 16.5009 13.2819C16.7979 13.3565 17.0964 13.4338 17.3985 13.4733C17.7882 13.5244 18.1818 13.5479 18.5745 13.5664C18.9547 13.5844 19.3362 13.5507 19.6971 13.4219C20.0567 13.2934 20.3768 13.0863 20.5563 12.7006C20.6617 12.474 20.7335 12.2384 20.7291 11.9806C20.6956 11.9758 20.6671 11.964 20.6415 11.9692C20.4864 12.0005 20.332 12.0352 20.1776 12.0697C19.942 12.1225 19.7086 12.1945 19.4706 12.2253C19.0126 12.2845 18.5526 12.3318 18.0922 12.3634C17.5911 12.3977 17.0901 12.3693 16.5921 12.297C16.3512 12.2621 16.1107 12.2227 15.871 12.1793C15.5867 12.1279 15.3043 12.0651 15.0197 12.0162C14.7589 11.9714 14.4973 11.9266 14.2344 11.9031C13.6737 11.8532 13.1124 11.7988 12.5504 11.7798C11.8478 11.7559 11.1549 11.8624 10.4762 12.0577C10.3013 12.1081 10.1224 12.1738 9.96986 12.2749C9.78537 12.397 9.61276 12.5493 9.46041 12.7151C9.20488 12.9933 9.0701 13.35 9.01433 13.7272C8.95066 14.1583 8.9591 14.5881 9.19438 14.9785C9.32095 15.1887 9.48642 15.3498 9.69132 15.4581C9.92552 15.582 10.1805 15.6204 10.44 15.5923C10.6856 15.5657 10.9287 15.5072 11.1215 15.3344C11.4527 15.0377 11.7074 14.691 11.6521 14.1863C11.625 13.9396 11.6109 13.6885 11.4526 13.4647C11.4207 13.4872 11.366 13.504 11.3557 13.5368C11.3145 13.6675 11.2959 13.8065 11.2529 13.9363C11.1629 14.2072 11.0328 14.4514 10.8171 14.636C10.7224 14.7171 10.6227 14.7321 10.5072 14.7181C10.4228 14.7078 10.332 14.702 10.2513 14.7243C10.0808 14.7713 9.96111 14.732 9.90703 14.5258C9.83439 14.2488 9.83339 13.9794 9.92015 13.7016C10.0143 13.4004 10.1623 13.1459 10.4006 12.9593C10.5906 12.8105 10.8056 12.7258 11.0395 12.6714C11.4794 12.5691 11.9226 12.5144 12.3707 12.5033C12.9772 12.4883 13.5766 12.5641 14.1712 12.687C14.2683 12.7071 14.3643 12.7325 14.4697 12.7575C14.275 12.9092 14.0944 13.0406 13.9235 13.185C13.6799 13.391 13.436 13.5977 13.206 13.8205C12.989 14.0307 12.7864 14.2586 12.5838 14.4853C12.4273 14.6606 12.2755 14.8415 12.132 15.0291C12.0679 15.1127 11.9956 15.1332 11.9042 15.1356C11.752 15.1396 11.5999 15.1543 11.4476 15.1562C11.3715 15.1571 11.3391 15.1905 11.3384 15.2673C11.3376 15.3637 11.3373 15.4601 11.3371 15.5565C11.3369 15.6308 11.3713 15.6646 11.4411 15.6604C11.4831 15.6579 11.5253 15.6599 11.5931 15.6599C11.4622 15.8246 11.3528 15.9659 11.2397 16.1038C11.0907 16.2853 10.934 16.4597 10.7893 16.645C10.5681 16.9283 10.3151 17.1756 10.0401 17.394C9.85295 17.5428 9.64705 17.6668 9.442 17.7873C9.20281 17.9278 8.9581 18.0678 8.66966 18.025C8.20578 17.9561 7.92908 17.6728 7.95862 17.1744C7.97718 16.8612 8.07299 16.5717 8.21775 16.2992C8.34993 16.0504 8.53825 15.8539 8.7387 15.673C8.79839 15.6194 8.82209 15.587 8.79048 15.506ZM21.5433 18.4615C21.5484 18.5768 21.556 18.6826 21.5573 18.7885C21.5618 19.1802 21.9165 19.3603 22.2175 19.2628C22.4854 19.1761 22.7144 19.0126 22.9143 18.8068C23.1855 18.5276 23.4528 18.2439 23.7149 17.955C23.7954 17.8664 23.8569 17.7567 23.9191 17.6513C23.9348 17.6245 23.9335 17.5619 23.9152 17.5427C23.8902 17.5163 23.839 17.5011 23.8035 17.5079C23.7581 17.5168 23.7082 17.5429 23.6757 17.5779C23.5176 17.7484 23.3545 17.9154 23.2122 18.1004C22.9972 18.3802 22.7286 18.5923 22.4674 18.8141C22.3986 18.8725 22.3117 18.9103 22.2283 18.9435C22.1505 18.9745 22.0773 18.8964 22.1022 18.8139C22.1497 18.657 22.1852 18.4923 22.256 18.348C22.4549 17.9424 22.6653 17.5429 22.879 17.1459C23.0244 16.8759 23.1852 16.6155 23.3349 16.3481C23.4514 16.1403 23.5581 15.9262 23.6752 15.7187C23.8253 15.4527 23.9847 15.1927 24.134 14.9261C24.2525 14.7147 24.3592 14.4955 24.4762 14.2831C24.607 14.0459 24.7452 13.8134 24.8771 13.5768C24.9275 13.4862 24.9081 13.4519 24.8062 13.4548C24.6162 13.46 24.4256 13.4652 24.2367 13.4855C24.1858 13.4909 24.1223 13.5388 24.0947 13.5869C23.9429 13.8522 23.8033 14.1255 23.6539 14.3924C23.4698 14.7213 23.2771 15.0447 23.0938 15.374C22.9394 15.6513 22.7937 15.9341 22.6424 16.2133C22.6091 16.2749 22.5683 16.332 22.5267 16.398C22.49 16.0924 22.2914 15.8927 22.0053 15.8641C21.7601 15.8395 21.5221 15.8841 21.2951 15.9759C20.9988 16.0957 20.7243 16.2607 20.471 16.4675C20.2133 16.6779 19.9797 16.915 19.7592 17.1676C19.6402 17.3039 19.5356 17.4558 19.4094 17.5835C19.2686 17.7261 19.1121 17.8512 18.9599 17.9805C18.8312 18.0898 18.5791 17.9937 18.564 17.8285C18.5353 17.5145 18.6366 17.2466 18.8548 17.0419C19.0218 16.8852 19.2167 16.7628 19.385 16.6076C19.5162 16.4866 19.6344 16.3461 19.7417 16.2003C19.816 16.0993 19.7342 15.8831 19.6227 15.8658C19.3931 15.8301 19.1575 15.8523 18.9907 16.0287C18.851 16.1765 18.7562 16.3756 18.6538 16.5598C18.5738 16.7038 18.5392 16.875 18.4114 16.9906C18.3122 17.0805 18.2213 17.1809 18.126 17.2758C18.0655 17.3362 18.0037 17.3952 17.9216 17.4752C17.9347 17.4334 17.9354 17.4215 17.9411 17.4142C18.191 17.0881 18.2443 16.7006 18.2246 16.2997C18.219 16.188 18.1689 16.0517 18.0948 15.9769C17.9489 15.8293 17.7532 15.8321 17.5661 15.885C17.3337 15.9507 17.1468 16.1025 16.9735 16.2735C16.8835 16.3622 16.799 16.4574 16.7126 16.5502C16.5628 16.711 16.4069 16.8659 16.2656 17.0349C16.1147 17.2156 15.9812 17.4128 15.8339 17.5971C15.672 17.7998 15.4784 17.9619 15.243 18.0554C15.1358 18.098 15.0219 18.1288 14.8893 18.0869C14.9675 17.9671 15.0497 17.8668 15.105 17.7517C15.2437 17.4627 15.3838 17.1746 15.4101 16.8393C15.4397 16.4633 15.3379 16.1501 15.0428 15.9374C14.7821 15.7494 14.4851 15.7855 14.2124 15.8877C13.7641 16.0558 13.3615 16.3262 13.0194 16.6776C12.7632 16.9408 12.5408 17.2417 12.3057 17.528C12.2731 17.5677 12.2492 17.6177 12.2299 17.6667C12.205 17.7297 12.2775 17.8099 12.3423 17.7931C12.3733 17.7851 12.4027 17.7695 12.4254 17.7604C12.4451 18.0293 12.4461 18.2926 12.4877 18.5482C12.5375 18.8542 12.6501 19.1253 12.9604 19.2463C13.1237 19.31 13.2855 19.2946 13.4399 19.26C13.8224 19.1744 14.1225 18.9245 14.4016 18.6463C14.5478 18.5004 14.6687 18.3479 14.9133 18.3645C15.2678 18.3888 15.5827 18.2256 15.8405 17.9708C16.0095 17.8037 16.1662 17.6216 16.3087 17.4224C16.4817 17.1805 16.6917 16.9673 16.8971 16.7542C17.0911 16.5532 17.2738 16.3336 17.5259 16.2079C17.6029 16.1695 17.6893 16.108 17.764 16.187C17.8407 16.2681 17.7695 16.3572 17.7298 16.4266C17.5818 16.6851 17.4277 16.9397 17.2704 17.1919C17.1132 17.4442 16.9472 17.6903 16.7891 17.942C16.6653 18.1393 16.5491 18.3419 16.427 18.5404C16.3216 18.712 16.2099 18.8792 16.1062 19.052C16.0439 19.1559 16.0665 19.2083 16.18 19.2027C16.3934 19.1922 16.6065 19.1688 16.8189 19.1433C16.9567 19.1268 16.9995 18.981 17.0759 18.8905C17.2763 18.6527 17.4522 18.3913 17.6485 18.1491C17.8 17.962 17.9661 17.7882 18.1288 17.6117C18.18 17.5561 18.2411 17.511 18.3111 17.4492C18.2949 17.5627 18.2832 17.6568 18.2679 17.7502C18.2416 17.9114 18.3504 18.2048 18.5131 18.2518C18.7754 18.3277 19.0192 18.287 19.2412 18.1223C19.367 18.0289 19.485 17.9233 19.6122 17.8185C19.6021 17.9138 19.5863 18.0044 19.5839 18.0954C19.5767 18.3728 19.6276 18.6424 19.7351 18.8919C19.8697 19.2042 20.125 19.3475 20.43 19.2728C20.7463 19.1954 21.016 19.0057 21.2487 18.7611C21.3432 18.6619 21.4404 18.566 21.5433 18.4615Z" fill="#151515"/>
<path d="M14.1763 15.0694C14.1553 15.1158 14.1453 15.1802 14.1107 15.2043C14.066 15.2356 14.0017 15.2349 13.9459 15.248C13.9368 15.1937 13.9196 15.1393 13.9208 15.0853C13.9226 15.0091 13.9326 14.9317 13.9508 14.8581C13.9559 14.8373 14.0086 14.8085 14.0276 14.8163C14.1298 14.8583 14.1713 14.9451 14.1763 15.0694Z" fill="#151515"/>
<path d="M13.0223 18.5837C13.0369 18.3021 13.107 18.0384 13.2094 17.7771C13.3604 17.3917 13.5957 17.069 13.8284 16.7426C13.9849 16.5231 14.1484 16.3071 14.3948 16.1971C14.4905 16.1543 14.5969 16.1324 14.7004 16.1183C14.8127 16.1032 14.9817 16.3428 14.9998 16.4836C15.032 16.7351 14.986 16.9752 14.9145 17.2121C14.819 17.5283 14.6657 17.8147 14.4626 18.0599C14.2238 18.348 13.9882 18.6469 13.6637 18.8359C13.5768 18.8866 13.4865 18.9346 13.3926 18.9663C13.1742 19.0401 13.0313 18.9273 13.0223 18.6837C13.0211 18.6506 13.0222 18.6172 13.0223 18.5837Z" fill="#151515"/>
<path d="M21.8039 16.1577C22.0843 16.1574 22.2666 16.2929 22.2188 16.5594C22.1364 17.0182 21.9504 17.4249 21.6897 17.7945C21.474 18.1001 21.2455 18.3965 20.9692 18.6408C20.8237 18.7695 20.6675 18.9001 20.4743 18.9414C20.2362 18.9923 20.1612 18.8894 20.1702 18.6239C20.1751 18.4795 20.2096 18.3303 20.2587 18.1948C20.3577 17.9216 20.4542 17.6427 20.5921 17.3915C20.7288 17.1426 20.909 16.9193 21.0822 16.6956C21.1788 16.5711 21.2892 16.4515 21.4131 16.3605C21.5527 16.2579 21.7046 16.1626 21.8039 16.1577Z" fill="#151515"/>
</svg>
