<svg width="32" height="32" viewBox="0 0 32 32" fill="none" xmlns="http://www.w3.org/2000/svg">
<path d="M15.9881 25.1535C14.168 25.1562 12.3545 24.9296 10.588 24.4789C8.87898 24.0605 7.24548 23.3652 5.74869 22.4192C4.4671 21.5901 3.3357 20.586 2.54472 19.2386C1.43501 17.3642 1.28315 15.4058 2.19428 13.3958C2.75331 12.16 3.62272 11.185 4.65066 10.344C6.18423 9.09098 7.93307 8.28425 9.79204 7.70066C11.1177 7.30196 12.4781 7.03752 13.8537 6.91109C15.1733 6.77523 16.5021 6.76374 17.8237 6.87676C19.0904 6.97402 20.3463 7.18655 21.5767 7.51185C23.2348 7.93857 24.8184 8.62764 26.2708 9.55442C27.4289 10.3148 28.4735 11.2125 29.2528 12.3986C30.3375 14.0515 30.7096 15.8315 30.1239 17.7728C29.7575 18.9167 29.1211 19.9493 28.2716 20.7782C26.9767 22.1016 25.4348 23.0096 23.7443 23.6962C22.2863 24.2928 20.7606 24.6965 19.2037 24.8977C18.1374 25.035 17.0644 25.102 15.9931 25.1998L15.9881 25.1535ZM29.952 14.2489L29.9604 14.1974C29.9454 14.1837 29.9337 14.1631 29.917 14.1579L27.7226 13.4937C27.2754 13.3581 26.8415 13.2122 26.5545 12.7848C25.9489 11.9291 25.1899 11.2002 24.3184 10.6375C22.9619 9.75281 21.4608 9.12823 19.8879 8.79403C18.5008 8.48324 17.0838 8.33639 15.6643 8.35634C13.293 8.37865 11.0202 8.84553 8.88758 9.94062C7.42744 10.6907 6.15086 11.6691 5.23806 13.0937C4.77275 13.8002 4.48179 14.6126 4.39034 15.4607C4.2535 16.8339 4.66401 18.0354 5.41661 19.1408C6.19591 20.2788 7.23387 21.113 8.40866 21.7738C9.95407 22.6239 11.6388 23.1732 13.3782 23.3941C14.7954 23.6043 16.2322 23.6354 17.6568 23.4868C19.3022 23.3151 20.8808 22.8998 22.2959 21.9815C23.0101 21.518 23.6142 20.9413 23.9546 20.1174C24.1487 19.6921 24.1889 19.2096 24.0681 18.7566C23.9472 18.3035 23.6733 17.9096 23.2955 17.6457C22.7019 17.2241 22.0117 16.9691 21.293 16.9059C20.2883 16.7796 19.2779 16.708 18.2659 16.6914C15.9547 16.6691 13.6418 16.6914 11.3306 16.712C10.6631 16.712 10.1441 16.4665 9.8421 15.8229C9.67523 15.4796 9.495 15.1243 9.32312 14.7758C9.24135 14.6128 9.15625 14.4497 9.0628 14.2489H29.952Z" fill="#151515"/>
</svg>
