<svg width="32" height="32" viewBox="0 0 32 32" fill="none" xmlns="http://www.w3.org/2000/svg">
<path d="M9.76521 15.7918C13.9835 16.097 18.1148 16.0934 22.2676 15.7938C22.1797 16.8797 22.09 17.8987 22.0188 18.9188C21.9983 19.2132 21.8625 19.36 21.5614 19.4022C19.3975 19.7052 17.24 20.1409 15.0381 19.9556C13.4865 19.8252 11.9439 19.5915 10.4011 19.379C10.2653 19.3603 10.0655 19.1656 10.0515 19.0373C9.9377 17.9879 9.86093 16.9349 9.76521 15.7918Z" fill="#151515"/>
<path d="M22.3481 15.3359C18.0968 15.7124 13.9443 15.6998 9.70193 15.3386C9.70193 14.2347 9.70193 13.1272 9.70193 12C13.9009 12 18.1356 12 22.3481 12C22.3481 13.1378 22.3481 14.2204 22.3481 15.3359Z" fill="#151515"/>
<path d="M30.3856 14.7973C27.8453 14.9793 25.3454 15.1584 22.8552 15.3369C22.8552 14.2164 22.8552 13.151 22.8552 12.0232C23.0908 12.0232 23.2595 12.0199 23.4279 12.0237C25.0717 12.0612 26.7154 12.0954 28.3589 12.1415C28.712 12.1514 29.0664 12.1901 29.4157 12.243C29.9767 12.328 30.3241 12.6353 30.3749 13.1766C30.4243 13.703 30.3856 14.237 30.3856 14.7973Z" fill="#151515"/>
<path d="M1.61424 14.795C1.61424 14.2649 1.57663 13.7625 1.62367 13.2674C1.68411 12.6307 2.07185 12.2757 2.76025 12.2308C4.02997 12.1482 5.30192 12.0895 6.57397 12.0486C7.40862 12.0217 8.24502 12.0435 9.11942 12.0435C9.16879 13.1411 9.21747 14.2216 9.2681 15.347C6.7139 15.1628 4.21781 14.9828 1.61424 14.795Z" fill="#151515"/>
<path d="M22.4263 19.254C22.5251 18.1381 22.6055 17.1034 22.7227 16.0725C22.7366 15.9501 22.9438 15.7612 23.0747 15.7504C24.4856 15.6343 25.8994 15.5507 27.3119 15.4522C28.3039 15.3829 29.2952 15.3042 30.3104 15.2278C30.2448 16.5543 29.611 17.51 28.3298 17.9082C26.9476 18.3379 25.514 18.6203 24.0985 18.9495C23.5713 19.0721 23.0314 19.1455 22.4263 19.254Z" fill="#151515"/>
<path d="M1.72858 15.2349C3.84014 15.3883 5.93906 15.5406 8.03799 15.6933C8.08609 15.6969 8.134 15.7042 8.18201 15.7089C8.54555 15.7445 9.01598 15.6637 9.24065 15.8503C9.43734 16.0138 9.36825 16.4769 9.39828 16.8091C9.46951 17.5981 9.52995 18.3879 9.60118 19.2559C8.74243 19.0947 7.92847 18.9591 7.12326 18.7865C6.15402 18.5789 5.18196 18.3729 4.22953 18.1067C2.75729 17.6952 1.79252 16.8372 1.72858 15.2349Z" fill="#151515"/>
</svg>
