<svg width="32" height="32" viewBox="0 0 32 32" fill="none" xmlns="http://www.w3.org/2000/svg">
<g clip-path="url(#clip0_17_1416)">
<path d="M0 12.9396C0.375529 12.9396 0.734949 12.926 1.09326 12.9396C2.61093 13.011 4.12471 13.0936 5.64128 13.162C7.64725 13.2529 9.65377 13.3313 11.6597 13.4245C11.9925 13.4408 12.3255 13.3963 12.6441 13.293C13.3696 13.057 14.0979 12.8352 14.8217 12.5957C15.5846 12.3346 16.4054 12.3346 17.1683 12.5957C17.8388 12.8199 18.5143 13.0252 19.1848 13.2446C19.5912 13.3815 20.0171 13.4414 20.443 13.4216C22.6062 13.3195 24.7699 13.2387 26.9337 13.142C28.5236 13.0706 30.1135 12.9856 31.7028 12.906C31.7911 12.9019 31.8789 12.906 32 12.906C31.7778 13.2953 31.5 13.5337 31.1112 13.5868C30.5062 13.6694 29.8996 13.7466 29.2919 13.8074C26.8565 14.0528 24.4239 14.2835 21.9929 14.5318C21.6351 14.5776 21.2805 14.6482 20.9313 14.743C20.7319 14.7915 20.5437 14.8821 20.378 15.0094C20.2122 15.1367 20.0722 15.2981 19.9664 15.484C19.8225 15.7241 19.6836 15.9677 19.5525 16.2161C18.7454 17.7463 17.5449 18.8118 16.0728 19.5645C16.0483 19.5769 16.0211 19.584 15.9794 19.5999C14.649 18.9315 13.5074 18.0112 12.6958 16.6727C12.5014 16.3512 12.3191 16.0196 12.1403 15.6863C11.8503 15.1395 11.4292 14.7831 10.8409 14.6834C10.2215 14.5837 9.59989 14.4776 8.97493 14.4144C6.66287 14.182 4.3497 13.9685 2.03708 13.7431C1.65988 13.7059 1.2838 13.6499 0.90827 13.5968C0.506076 13.5396 0.210541 13.3113 0 12.9396ZM16.0033 19.0041C16.26 18.8306 16.5139 18.669 16.7583 18.4926C18.036 17.5688 18.9142 16.3329 19.3331 14.7424C19.4487 14.3029 19.3737 14.1142 18.9926 13.9041C18.9198 13.8614 18.8436 13.8256 18.7648 13.7974C17.9871 13.5455 17.2094 13.2936 16.4316 13.0488C16.1417 12.9573 15.8483 12.9738 15.5534 13.044C14.7405 13.233 13.9433 13.4914 13.1696 13.8168C13.0411 13.872 12.919 13.9426 12.8058 14.0274C12.7182 14.0852 12.6513 14.1725 12.6159 14.2754C12.5804 14.3783 12.5784 14.4908 12.6102 14.595C12.6336 14.6899 12.6613 14.7837 12.6875 14.8781C13.2124 16.7618 14.3907 18.0549 16.0033 19.0041Z" fill="#151515"/>
<path d="M1.01493 14.0528C1.07937 14.0528 1.14103 14.0475 1.20158 14.0528C2.84147 14.2196 4.48099 14.3873 6.12013 14.556C7.13339 14.6598 8.14777 14.756 9.15936 14.8734C9.646 14.9324 10.1293 15.0256 10.6126 15.1094C10.967 15.1684 11.2492 15.3684 11.4759 15.6568C11.6003 15.8149 11.722 15.9766 11.8314 16.1465C12.3769 16.9977 12.8997 17.8691 13.6785 18.5292C12.6275 18.4053 11.6192 18.1162 10.5837 17.7994C10.7304 17.6685 10.8804 17.7251 11.0137 17.7062C11.1692 17.6844 11.3275 17.6797 11.4842 17.6673L11.9447 17.6284C11.847 17.4107 11.6842 17.3334 11.5003 17.3039C11.3994 17.2887 11.2971 17.2873 11.1959 17.2998C9.621 17.4667 8.09666 17.2024 6.6001 16.698C6.33623 16.609 6.07013 16.5246 5.80571 16.4367C5.79071 16.432 5.7796 16.4119 5.72071 16.3523L10.1926 16.4532C10.1404 16.2173 9.97042 16.1659 9.80376 16.1288C9.63974 16.0978 9.47369 16.0805 9.30713 16.0769C8.0961 16.009 6.88452 15.9559 5.67461 15.8727C4.83522 15.8137 3.99417 15.7601 3.17478 15.5329C2.32039 15.297 1.64155 14.7708 1.03048 14.1236C1.01771 14.1118 1.02104 14.0853 1.01493 14.0528Z" fill="#151515"/>
<path d="M18.3032 18.5327C19.022 17.9074 19.5331 17.1169 20.0386 16.3152C20.698 15.2728 20.8808 15.1406 22.049 14.9796C23.0301 14.8445 24.0156 14.7436 24.9999 14.6392C26.2515 14.5047 27.5036 14.3779 28.7558 14.2498C29.428 14.1814 30.1001 14.1165 30.7729 14.051C30.834 14.0451 30.8962 14.051 30.9951 14.051C30.965 14.0979 30.9326 14.143 30.8979 14.1861C30.0907 15.0604 29.1202 15.5949 27.9686 15.7028C26.6693 15.8226 25.3671 15.9111 24.0661 16.0055C23.485 16.0479 22.8995 16.0645 22.3207 16.1034C22.1029 16.117 21.9057 16.1854 21.7529 16.4515L26.2326 16.35L26.2437 16.3942C26.1829 16.4249 26.1204 16.4517 26.0565 16.4745C25.3077 16.6927 24.5594 16.9116 23.8095 17.1234C23.0595 17.3352 22.2918 17.3517 21.5224 17.3257C21.2174 17.3157 20.9113 17.2986 20.6069 17.2915C20.373 17.2862 20.1814 17.3771 20.0186 17.6248L21.3802 17.7357C21.3802 17.7558 21.383 17.7758 21.3846 17.7947C20.3791 18.1333 19.3482 18.3802 18.3032 18.5327Z" fill="#151515"/>
<path d="M15.3151 15.0245V15.5693H15.2013V15.1527C15.2013 15.0834 15.2013 15.0142 15.2013 14.9448C15.2013 14.8703 15.2188 14.7906 15.1329 14.7285C15.2357 14.7173 15.3084 14.7078 15.3699 14.8029C15.4759 14.9666 15.5974 15.1188 15.7117 15.2764C15.7176 15.2883 15.7216 15.3011 15.7238 15.3143L15.7462 15.297V14.7289H15.8562V15.5643C15.7869 15.5861 15.7352 15.5776 15.6879 15.5093C15.5729 15.3431 15.4504 15.1827 15.3308 15.02L15.3151 15.0245Z" fill="#151515"/>
<path d="M14.0278 15.4619C13.9979 15.35 14.1011 15.1984 13.909 15.1445L13.9268 15.1285H14.1863C14.1863 15.246 14.1863 15.3626 14.1854 15.4791C14.1841 15.4946 14.1773 15.5089 14.1664 15.5191C14.036 15.6372 13.6451 15.5926 13.5368 15.4452C13.4285 15.2978 13.422 15.1305 13.4789 14.9615C13.5326 14.8016 13.6543 14.7282 13.805 14.7074C13.9307 14.6902 14.052 14.7127 14.1745 14.7672C14.1642 14.8097 14.1552 14.8472 14.143 14.8986C14.0459 14.8117 13.9409 14.7725 13.827 14.8099C13.7732 14.8287 13.7249 14.8622 13.687 14.9073C13.594 15.0201 13.591 15.242 13.6712 15.3653C13.7494 15.4863 13.8682 15.5209 14.0278 15.4619Z" fill="#151515"/>
<path d="M17.957 15.5799C17.9651 15.5159 17.9697 15.4799 17.9755 15.4332C18.0141 15.447 18.0452 15.4639 18.078 15.4687C18.1464 15.4787 18.2165 15.4918 18.2841 15.4847C18.3175 15.481 18.3634 15.4398 18.3731 15.4058C18.3829 15.3717 18.3652 15.3121 18.3395 15.2881C18.29 15.242 18.2264 15.2131 18.1687 15.1771C18.1193 15.1464 18.0648 15.1225 18.0218 15.0841C17.8925 14.969 17.9239 14.7933 18.0825 14.734C18.2227 14.6814 18.3616 14.702 18.5084 14.75C18.503 14.7819 18.498 14.8113 18.4934 14.8412C18.4167 14.8253 18.345 14.8053 18.2723 14.7955C18.2354 14.791 18.1979 14.7962 18.1633 14.8105C18.0952 14.839 18.082 14.9116 18.1375 14.9624C18.1782 14.9998 18.2295 15.0243 18.2768 15.0531C18.3416 15.0924 18.4128 15.1223 18.4713 15.1703C18.5953 15.2726 18.5769 15.4611 18.4391 15.541C18.4073 15.5619 18.3715 15.575 18.3344 15.5794C18.2128 15.5829 18.0918 15.5799 17.957 15.5799Z" fill="#151515"/>
<path d="M17.3954 14.7498L17.3775 14.835C17.2877 14.819 17.2059 14.801 17.1232 14.7931C17.0701 14.7882 17.0158 14.804 16.9974 14.8691C16.9776 14.938 17.0246 14.9727 17.0704 15C17.1464 15.0451 17.2267 15.0817 17.3022 15.1279C17.4117 15.1941 17.4518 15.2743 17.4369 15.3789C17.4219 15.4787 17.3522 15.5603 17.2366 15.5733C17.1124 15.5872 16.9859 15.5765 16.8511 15.5765C16.8545 15.5193 16.8569 15.4806 16.8596 15.4355C16.912 15.4515 16.9558 15.471 17.0013 15.4782C17.0572 15.4871 17.1165 15.4966 17.1708 15.4858C17.1901 15.4803 17.2081 15.4704 17.2236 15.4568C17.2391 15.4432 17.2517 15.4263 17.2605 15.407C17.2716 15.377 17.2557 15.3228 17.2343 15.2951C17.2076 15.2599 17.1639 15.2382 17.1253 15.2152C17.0654 15.1787 17.0001 15.1498 16.9413 15.1105C16.8678 15.0611 16.8192 14.9918 16.8331 14.8919C16.8471 14.792 16.9148 14.7493 16.9942 14.7253C17.1277 14.6833 17.2589 14.703 17.3954 14.7498Z" fill="#151515"/>
<path d="M14.4237 15.5701C14.4237 15.354 14.4237 15.1468 14.4237 14.9394C14.4237 14.8676 14.4399 14.7914 14.3775 14.7217H14.4925C14.6245 14.7217 14.7566 14.7247 14.8884 14.7202C14.9503 14.7181 14.9832 14.7362 14.9795 14.8142H14.5892V15.0868H14.9349V15.1775C14.8438 15.1775 14.7528 15.1811 14.6623 15.176C14.6008 15.1727 14.5771 15.192 14.582 15.2603C14.5869 15.3285 14.5832 15.3973 14.5832 15.4735H14.9812V15.5695L14.4237 15.5701Z" fill="#151515"/>
<path d="M16.6164 15.087L16.6117 15.1765H16.2689V15.4751H16.6605V15.5711H16.1049V15.4337C16.1049 15.2633 16.1078 15.0929 16.1036 14.9221C16.102 14.8591 16.0837 14.7965 16.071 14.7212H16.1747C16.3067 14.7212 16.439 14.7244 16.5708 14.7197C16.6316 14.7175 16.659 14.7392 16.6574 14.8126H16.2684V15.0865L16.6164 15.087Z" fill="#151515"/>
<path d="M17.7675 15.5674C17.7547 15.5704 17.7418 15.5725 17.7289 15.5738C17.6945 15.5746 17.6599 15.5738 17.6149 15.5738V15.4128C17.6149 15.2585 17.6182 15.1042 17.6134 14.9503C17.6111 14.8766 17.5933 14.8035 17.582 14.7265H17.7675V15.5674Z" fill="#151515"/>
</g>
<defs>
<clipPath id="clip0_17_1416">
<rect width="32" height="32" fill="white"/>
</clipPath>
</defs>
</svg>
