<svg width="32" height="32" viewBox="0 0 32 32" fill="none" xmlns="http://www.w3.org/2000/svg">
<path d="M10.3447 12.8045V14.3033H2.91606C2.87988 14.3033 2.84308 14.3033 2.80689 14.3033C2.72538 14.3049 2.64703 14.3352 2.58564 14.389C2.52424 14.4428 2.48374 14.5167 2.47127 14.5975C2.46173 14.6514 2.45713 14.7061 2.45755 14.7608C2.45755 15.5719 2.45755 16.3828 2.45755 17.1934C2.45755 17.2172 2.45755 17.2403 2.45755 17.2641C2.4719 17.5401 2.60165 17.6772 2.87489 17.7022C2.92168 17.7066 2.96847 17.7085 3.01525 17.7085H8.18995C8.24706 17.7088 8.30414 17.7056 8.36088 17.6991C8.57423 17.674 8.70523 17.5601 8.72208 17.3455C8.73892 17.1183 8.72582 16.8886 8.72582 16.6502H5.64908V15.2333H10.3391C10.3433 15.2478 10.346 15.2627 10.3472 15.2778C10.3472 16.0438 10.3553 16.8104 10.3472 17.577C10.3347 18.4369 9.81066 18.9733 9.00218 19.1335C8.78554 19.1756 8.56533 19.1966 8.34466 19.1961C6.43157 19.2011 4.51973 19.2011 2.60914 19.1961C2.22423 19.1961 1.85368 19.1247 1.5218 18.9169C1.08574 18.6453 0.877379 18.2354 0.819987 17.7385C0.80646 17.622 0.799794 17.5047 0.800024 17.3874C0.800024 16.4312 0.800024 15.4793 0.800024 14.5249C0.804391 14.1194 0.901709 13.7401 1.15935 13.4147C1.43883 13.0617 1.81874 12.8921 2.25355 12.8352C2.4287 12.8144 2.60496 12.8046 2.78132 12.8057C5.26459 12.8057 7.74806 12.8057 10.2318 12.8057L10.3447 12.8045Z" fill="#151515"/>
<path d="M11.3659 12.8045H11.4476C12.2399 12.8045 13.0321 12.8045 13.8244 12.8045C13.8494 12.8018 13.8747 12.8073 13.8964 12.8202C13.918 12.833 13.935 12.8526 13.9448 12.8758C14.7533 14.3536 15.5643 15.8304 16.3778 17.3061C16.3909 17.3305 16.4064 17.3542 16.4277 17.3899L16.6454 16.9944C17.3848 15.6451 18.1232 14.2954 18.8606 12.9453C18.88 12.898 18.9142 12.8583 18.9582 12.8323C19.0021 12.8064 19.0533 12.7955 19.1039 12.8014C19.865 12.8082 20.6261 12.8045 21.3871 12.8045H21.4832V19.1917H19.8269V14.3991L19.8063 14.3947L19.6136 14.7471C18.8176 16.2073 18.022 17.6676 17.2268 19.1278C17.2175 19.1501 17.2013 19.1689 17.1807 19.1814C17.1601 19.1939 17.136 19.1994 17.112 19.1973C16.652 19.1948 16.1923 19.1948 15.7327 19.1973C15.7089 19.1995 15.6849 19.1939 15.6645 19.1814C15.6441 19.1689 15.6282 19.1501 15.6192 19.1278C14.9837 17.9596 14.3468 16.7914 13.7084 15.6232C13.5004 15.239 13.2912 14.8549 13.0808 14.4711C13.0661 14.4419 13.0447 14.4166 13.0184 14.3972V19.1898H11.3659V12.8045Z" fill="#151515"/>
<path d="M31.2 12.8045V14.4141H24.5443C24.5003 14.4131 24.4563 14.4158 24.4127 14.4223C24.341 14.4305 24.2738 14.4617 24.2212 14.5113C24.1686 14.5609 24.1333 14.6263 24.1208 14.6976C24.109 14.751 24.1031 14.8056 24.1033 14.8603C24.1033 15.6059 24.1033 16.3515 24.1033 17.097V17.1283C24.1089 17.4156 24.2518 17.5664 24.5369 17.5858C24.5861 17.5889 24.6354 17.5889 24.6847 17.5889H31.1975V19.1973H31.1133C28.8218 19.1973 26.5306 19.1973 24.2399 19.1973C23.8656 19.1973 23.505 19.1272 23.1794 18.9294C22.7589 18.6735 22.5418 18.2836 22.4726 17.808C22.4538 17.6711 22.4446 17.5331 22.4451 17.3949C22.4451 16.4718 22.4451 15.5494 22.4451 14.6263C22.4451 14.2908 22.4888 13.9648 22.6448 13.6638C22.8837 13.1925 23.2873 12.9441 23.7914 12.8521C23.955 12.8222 24.121 12.8069 24.2873 12.8064C26.5577 12.803 28.828 12.8024 31.0983 12.8045H31.2Z" fill="#151515"/>
</svg>
