<svg width="32" height="32" viewBox="0 0 32 32" fill="none" xmlns="http://www.w3.org/2000/svg">
<path d="M16.1879 25.1998C13.3406 25.1455 10.6849 24.8989 8.23436 23.7156C7.07504 23.1902 5.99452 22.5048 5.0241 21.6794C1.48018 18.512 1.54556 13.4214 5.10075 10.2585C7.16577 8.41688 9.66815 7.57525 12.3374 7.12728C16.2375 6.47117 20.0474 6.77207 23.7108 8.29245C24.7485 8.72704 25.7193 9.30751 26.5942 10.0164C30.5732 13.2563 30.6002 18.6477 26.6843 21.96C24.324 23.9555 21.4857 24.7292 18.4941 25.0618C17.6758 25.1523 16.8461 25.1613 16.1879 25.1998ZM16.3006 7.62276C12.8716 7.60918 9.93417 8.22683 7.34162 10.0323C4.65663 11.9011 3.4866 14.8717 4.30269 17.8038C4.97675 20.2156 6.64275 21.8016 8.82952 22.8468C12.2337 24.4713 15.8181 24.7564 19.4838 24.064C21.657 23.6523 23.6837 22.8876 25.3587 21.4034C27.5365 19.4758 28.4383 17.0685 27.692 14.1952C27.1285 12.03 25.6631 10.5345 23.7671 9.4644C21.4846 8.19797 18.908 7.56244 16.3006 7.62276Z" fill="#151515"/>
<path d="M11.51 13.9803L15.6265 11.7766C15.6801 12.0418 15.717 12.31 15.737 12.5798C15.737 15.2948 15.7528 18.0097 15.737 20.7247C15.7235 22.6998 15.1012 23.3717 13.158 23.2496C10.3242 23.0686 7.79475 22.1183 6.02054 19.7473C4.24633 17.3762 4.32749 14.2314 6.24598 11.9237C7.84209 10.0051 9.95897 9.00738 12.3238 8.50285C15.6603 7.78792 18.9698 7.93045 22.1417 9.28793C24.4322 10.2698 26.2808 11.7766 27.0067 14.288C27.7619 16.9079 26.7497 19.6387 24.3871 21.3242C22.6468 22.6058 20.535 23.2775 18.3769 23.236C17.0806 23.2111 16.3231 22.6387 16.2983 21.4826C16.2307 18.2948 16.2758 15.1024 16.2758 11.7223L20.3946 13.9147C20.496 15.4509 20.4893 16.8898 20.7057 18.2948C21.0145 20.2948 22.9601 21.0686 24.6396 19.9215C25.7668 19.1409 26.2537 17.978 26.398 16.6522C26.6776 14.0617 25.5616 12.1273 23.5282 10.6567C19.5041 7.77208 12.396 7.81733 8.40344 10.7155C5.82441 12.5889 4.87305 15.6228 6.04985 18.2699C6.55032 19.4011 7.32809 20.2247 8.62211 20.3785C9.99279 20.5414 11.0118 19.883 11.2733 18.521C11.4627 17.5323 11.4491 16.5029 11.4987 15.4893C11.5325 15.0052 11.51 14.5187 11.51 13.9803Z" fill="#151515"/>
</svg>
