<svg width="32" height="32" viewBox="0 0 32 32" fill="none" xmlns="http://www.w3.org/2000/svg">
<path d="M2.64837 15.7887C3.32699 15.5595 4.02528 15.442 4.74324 15.4362C4.76704 15.4362 4.78443 15.425 4.79541 15.4024C5.08186 14.8109 5.38594 14.2293 5.70763 13.6575C5.72822 13.6215 5.75842 13.6035 5.79823 13.6035L7.47852 13.6027C7.48344 13.6027 7.48828 13.604 7.49256 13.6066C7.49683 13.6091 7.5004 13.6128 7.5029 13.6173C7.5054 13.6217 7.50675 13.6268 7.5068 13.6319C7.50686 13.6371 7.50563 13.6422 7.50323 13.6467C7.03648 14.5077 6.63654 15.3644 6.30342 16.2168C6.03984 16.8919 5.77375 17.6063 5.50514 18.3602C5.49645 18.3842 5.47974 18.3962 5.45503 18.3962H3.7267L3.72072 18.3947L3.716 18.3904L3.71348 18.3843L3.71365 18.3775C3.90859 17.6928 4.1367 17.0043 4.39799 16.3119C4.40714 16.2869 4.39913 16.2742 4.37396 16.2737C3.807 16.266 3.32538 16.3314 2.92911 16.4698C2.63441 16.5726 2.40699 16.7607 2.24683 17.0341C2.02993 17.405 1.86405 17.8454 1.7492 18.3552C1.74325 18.3825 1.72677 18.3962 1.69978 18.3962H0.0208585C0.0176008 18.3963 0.0143803 18.3956 0.0114608 18.394C0.00854141 18.3925 0.00600632 18.3902 0.00406377 18.3874C0.00212122 18.3846 0.000826574 18.3813 0.000285839 18.3778C-0.000254895 18.3744 -2.62355e-05 18.3708 0.000953134 18.3674C0.0732532 18.1166 0.14807 17.8627 0.225404 17.6056C0.641358 16.2305 1.22708 14.9221 1.98257 13.6806C2.04297 13.5818 2.09239 13.6027 2.18986 13.6027C2.6772 13.6047 3.18788 13.6037 3.72189 13.5999C3.72588 13.5999 3.7298 13.601 3.73323 13.6032C3.73667 13.6053 3.73951 13.6084 3.74146 13.612C3.74341 13.6157 3.74441 13.6198 3.74434 13.624C3.74428 13.6282 3.74317 13.6323 3.74111 13.6359C3.32836 14.334 2.95794 15.0444 2.62984 15.7671C2.61977 15.7892 2.62595 15.7964 2.64837 15.7887Z" fill="#151515"/>
<path d="M16.8094 16.5692L16.8105 16.572L16.8128 16.5737L16.8157 16.574L16.8183 16.5728C17.7724 15.6205 18.6603 14.6437 19.4822 13.6424C19.4923 13.6301 19.5047 13.6203 19.5186 13.6136C19.5324 13.6069 19.5474 13.6034 19.5625 13.6034L21.5187 13.602C21.523 13.602 21.5272 13.6034 21.5307 13.6059C21.5343 13.6084 21.5371 13.6119 21.5387 13.616C21.5404 13.6202 21.5409 13.6247 21.5402 13.6291C21.5394 13.6336 21.5374 13.6377 21.5345 13.6409L17.1409 18.3595C17.13 18.3711 17.117 18.3803 17.1026 18.3866C17.0883 18.393 17.0728 18.3962 17.0571 18.3962H15.2725C15.2588 18.3962 15.2513 18.3888 15.2499 18.3739L14.9108 13.6416C14.9104 13.6368 14.911 13.6319 14.9125 13.6272C14.914 13.6226 14.9165 13.6184 14.9196 13.6148C14.9228 13.6112 14.9266 13.6083 14.9309 13.6064C14.9352 13.6044 14.9398 13.6034 14.9444 13.6034H16.5108C16.5359 13.6034 16.5497 13.6167 16.552 13.6431L16.8094 16.5692Z" fill="#151515"/>
<path d="M28.8212 15.0881C28.667 15.6758 28.4551 16.3133 28.1856 17.0009C28.0497 17.349 28.2817 17.4622 28.5631 17.4622C29.681 17.4622 30.8188 17.4617 31.9766 17.4607C31.981 17.4606 31.9854 17.4619 31.9892 17.4644C31.993 17.4669 31.996 17.4706 31.9978 17.4749C31.9997 17.4792 32.0004 17.484 31.9998 17.4888C31.9992 17.4936 31.9973 17.4981 31.9944 17.5018L31.3018 18.366C31.2943 18.3754 31.2849 18.383 31.2742 18.3883C31.2635 18.3935 31.2519 18.3962 31.2401 18.3962C30.0041 18.3943 28.7599 18.3955 27.5075 18.3998C27.2526 18.4008 27.0425 18.3715 26.8773 18.3119C26.4511 18.1584 26.3687 17.757 26.5273 17.3634C27.0384 16.0926 27.4324 14.8491 27.7093 13.633C27.7113 13.6245 27.7159 13.617 27.7223 13.6116C27.7288 13.6063 27.7368 13.6034 27.7449 13.6034L29.7774 13.602C29.8373 13.602 29.8428 13.6203 29.7938 13.6568C29.3312 13.9998 28.977 14.4957 28.8212 15.0881Z" fill="#151515"/>
<path d="M11.0389 17.4672C10.3552 17.4466 9.81022 17.4607 9.40387 17.5098C9.05564 17.552 8.73944 17.7123 8.45527 17.9905C8.34614 18.0971 8.26446 18.2449 8.16905 18.3696C8.15532 18.3873 8.13747 18.3962 8.11551 18.3962H6.47297C6.46928 18.3963 6.46565 18.3953 6.4625 18.3932C6.45936 18.3912 6.45684 18.3883 6.45525 18.3848C6.45366 18.3813 6.45306 18.3774 6.45352 18.3735C6.45399 18.3697 6.4555 18.3661 6.45787 18.3631C6.75897 17.9739 7.06167 17.5835 7.36597 17.1919C8.09766 16.2511 8.92362 15.4225 9.84385 14.7062C10.2799 14.3665 10.679 14.124 11.0409 13.9789C11.8756 13.6431 12.8647 13.6006 13.7728 13.6042C13.7766 13.6041 13.7803 13.605 13.7837 13.6068C13.787 13.6087 13.7899 13.6114 13.792 13.6147C13.7941 13.618 13.7954 13.6218 13.7958 13.6257C13.7961 13.6297 13.7955 13.6337 13.794 13.6373C13.1648 15.1941 12.6439 16.7674 12.2311 18.3573C12.2247 18.3833 12.2087 18.3962 12.1831 18.3962H10.8645C10.8307 18.3962 10.8188 18.3792 10.8288 18.3451L11.0677 17.5098C11.0759 17.4824 11.0663 17.4682 11.0389 17.4672ZM11.3759 16.5843C11.6093 15.9206 11.8708 15.2907 12.1659 14.6607C12.1783 14.6343 12.1703 14.6216 12.1419 14.6225C11.5468 14.6463 11.0595 14.8943 10.6044 15.3209C10.1523 15.7442 9.75919 16.1673 9.42515 16.5901C9.4229 16.5928 9.42145 16.5962 9.42098 16.5998C9.4205 16.6033 9.42102 16.607 9.42247 16.6103C9.42392 16.6135 9.42624 16.6163 9.42915 16.6182C9.43206 16.6201 9.43544 16.6211 9.43888 16.6211L11.3278 16.6189C11.3383 16.6189 11.3485 16.6156 11.3571 16.6095C11.3657 16.6033 11.3722 16.5945 11.3759 16.5843Z" fill="#151515"/>
<path d="M23.6904 17.4687C23.253 17.4533 22.8263 17.4588 22.4103 17.4852C21.9751 17.5126 21.5921 17.6404 21.2613 17.8687C21.0766 17.9962 20.94 18.1872 20.7973 18.3645C20.7893 18.3745 20.7794 18.3824 20.7682 18.3879C20.7571 18.3934 20.745 18.3962 20.7328 18.3962L19.1142 18.3969C19.0287 18.3969 19.0214 18.3717 19.0923 18.3213C19.1312 18.2939 19.1692 18.2615 19.2062 18.224C20.2171 17.2015 21.1924 16.1949 22.1323 15.2042C22.6952 14.6103 23.2704 14.087 24.0268 13.8593C24.7839 13.6315 25.5492 13.6179 26.3516 13.6013C26.3703 13.6008 26.377 13.6102 26.3715 13.6294C25.9281 15.2236 25.4039 16.8049 24.799 18.3732C24.7963 18.3799 24.7918 18.3858 24.7858 18.3899C24.7798 18.394 24.7727 18.3962 24.7653 18.3962H23.3692C23.3652 18.3963 23.3613 18.3952 23.3578 18.3932C23.3543 18.3912 23.3513 18.3883 23.3491 18.3847C23.3469 18.3811 23.3456 18.377 23.3453 18.3727C23.345 18.3685 23.3456 18.3641 23.3472 18.3602L23.7048 17.4924C23.7058 17.4899 23.7062 17.4871 23.706 17.4844C23.7057 17.4816 23.7049 17.479 23.7035 17.4766C23.7021 17.4743 23.7001 17.4724 23.6979 17.471C23.6956 17.4696 23.6931 17.4688 23.6904 17.4687ZM24.0817 16.5548L24.7317 14.6687C24.7431 14.6355 24.7319 14.6204 24.6981 14.6233C24.1686 14.6675 23.7094 14.8945 23.3205 15.3043C22.9041 15.7425 22.5048 16.173 22.1227 16.5959C22.1035 16.617 22.1078 16.6273 22.1357 16.6269C22.7375 16.6158 23.3539 16.6151 23.9849 16.6247C24.0334 16.6257 24.0657 16.6024 24.0817 16.5548Z" fill="#151515"/>
</svg>
