<svg width="32" height="32" viewBox="0 0 32 32" fill="none" xmlns="http://www.w3.org/2000/svg">
<path d="M29.3058 14.1119C28.8516 12.6446 27.9825 11.4813 26.8881 10.4923C25.6373 9.36289 24.2049 8.5707 22.6671 7.98395C20.5616 7.18192 18.3815 6.82854 16.1513 6.80091C14.3583 6.78164 12.5708 7.01385 10.8354 7.49149C8.95152 8.02173 7.18362 8.81772 5.61646 10.0668C4.61253 10.8672 3.7482 11.8077 3.15351 12.9923C2.17774 14.9323 2.14569 16.8977 3.08071 18.8621C3.70626 20.1763 4.65657 21.1945 5.76625 22.054C6.96462 22.9827 8.29062 23.6539 9.6957 24.1496C11.7443 24.8728 13.8531 25.1954 16.2352 25.1973C16.8089 25.2132 17.6052 25.151 18.3982 25.056C19.4991 24.9271 20.5872 24.6968 21.6503 24.3677C23.3643 23.8336 24.9728 23.0678 26.4045 21.9206C27.5478 21.0043 28.4975 19.9105 29.0838 18.5043C29.6806 17.0723 29.7672 15.6032 29.3058 14.1119ZM10.5019 8.79836C11.134 8.55832 11.7872 8.41227 12.4424 8.27288C13.1414 8.12471 13.8458 8.01083 14.5554 7.93124C15.3343 7.84466 16.1186 7.82671 16.9003 7.87758C18.4021 7.97283 19.8627 8.29352 21.3001 8.74914C21.4858 8.80788 21.6108 8.90186 21.6749 9.0349L20.7482 14.7183C20.7276 14.7983 20.7051 14.877 20.6796 14.9571C20.4484 15.6743 19.9729 16.0766 19.3174 16.2474L18.9046 16.3262C18.5882 16.37 18.2691 16.3849 17.951 16.4074C17.2919 16.4541 16.6328 16.4408 15.7894 16.4414C15.1767 16.4528 14.3783 16.4452 13.582 16.376C13.2391 16.3483 12.8982 16.2984 12.561 16.2268C11.7521 16.0496 11.2853 15.5108 11.1197 14.6808C10.9052 13.6061 10.7176 12.5253 10.5238 11.4461C10.4039 10.7764 10.291 10.1055 10.181 9.43432C10.1376 9.16984 10.235 8.89996 10.5019 8.79836ZM27.8734 16.2665C27.8081 17.4412 27.392 18.483 26.72 19.4127C25.7913 20.6967 24.5851 21.6073 23.2295 22.314C21.9032 23.0056 20.5032 23.4501 19.0481 23.7111C18.0528 23.8889 17.0507 23.9851 16.3655 23.9746C13.8058 23.9746 11.6416 23.5838 9.57287 22.6687C8.13872 22.0337 6.84059 21.1799 5.78123 19.9556C5.09966 19.1672 4.58706 18.2753 4.33361 17.232C4.03761 16.0182 4.16224 14.8405 4.62721 13.6985C5.11704 12.4957 5.91845 11.5607 6.89182 10.7774C7.34121 10.4145 7.82445 10.1059 8.31968 9.81851C8.33705 9.80835 8.35533 9.79978 8.3733 9.79089C8.64893 9.65658 8.76906 9.73691 8.79633 10.0605C8.86164 10.8392 8.92985 11.6176 9.00095 12.3957C9.07105 13.1736 9.13157 13.9531 9.21965 14.7291C9.31372 15.5565 9.34937 16.3957 9.57137 17.2018C9.83052 18.1433 10.4012 18.7379 11.3333 18.9005C11.9924 19.0158 12.6596 19.0609 13.3268 19.1021C14.3154 19.1628 15.3023 19.1498 16.2903 19.1656C17.1939 19.1792 18.0961 19.1548 18.9968 19.0926C19.5334 19.0548 20.0709 19.0189 20.6005 18.904C21.5524 18.6973 22.133 18.0928 22.3544 17.0964C22.509 16.4008 22.5758 15.6905 22.6501 14.9818C22.7348 14.1738 22.8103 13.3641 22.8828 12.5545C22.9508 11.7972 23.0093 11.039 23.0725 10.2811C23.0788 10.203 23.0851 10.1249 23.0929 10.0471L23.1318 9.83375C23.174 9.73119 23.2606 9.68452 23.3865 9.70357C23.4656 9.71506 23.5425 9.73959 23.6144 9.77628C25.2385 10.6262 26.5555 11.821 27.3623 13.5737C27.7507 14.4089 27.9269 15.337 27.8734 16.2665Z" fill="#151515"/>
</svg>
