<svg width="32" height="32" viewBox="0 0 32 32" fill="none" xmlns="http://www.w3.org/2000/svg">
<path d="M16.0662 26.8C14.0078 26.7642 11.949 26.7399 9.898 26.5351C8.93119 26.4386 7.97814 26.2627 7.05853 25.9177C5.75343 25.4282 4.88471 24.5065 4.4072 23.1538C4.01561 22.0447 3.81075 20.8946 3.65792 19.7347C3.31271 17.1143 3.13719 14.4813 3.22052 11.8348C3.24428 11.0797 3.27957 10.3237 3.42271 9.57939C3.8169 7.53037 5.06998 6.37625 6.9747 5.89028C8.24173 5.56699 9.53562 5.46437 10.8295 5.37101C13.4755 5.1801 16.1259 5.16404 18.7754 5.24911C20.6734 5.31003 22.5729 5.39976 24.4465 5.76146C25.291 5.92449 26.1061 6.18757 26.8219 6.70381C28.0824 7.613 28.5537 8.95309 28.6654 10.4627C28.7947 12.2118 28.8576 13.9652 28.7312 15.7179C28.5641 18.0331 28.3954 20.3495 27.7832 22.5992C27.3277 24.2727 26.3779 25.4692 24.7409 26.0061C23.8924 26.2844 23.0215 26.4474 22.1389 26.5388C20.1198 26.7478 18.0926 26.7647 16.0662 26.8ZM16.0071 25.8866C17.5066 25.8982 19.0047 25.8461 20.5005 25.748C21.5526 25.679 22.603 25.5803 23.6294 25.3048C24.8813 24.9687 25.8039 24.2345 26.3002 22.9651C26.5431 22.3438 26.7283 21.7059 26.8417 21.0481C27.4414 17.5691 27.6375 14.0678 27.3361 10.5438C27.1417 8.2712 26.0708 7.04887 23.9193 6.61013C22.2161 6.26277 20.4871 6.17349 18.7595 6.09751C16.6072 6.00284 14.4543 6.03804 12.3026 6.14685C10.8688 6.21935 9.44051 6.34138 8.02617 6.60868C6.16504 6.96045 5.13443 7.93319 4.75576 9.74242C4.59647 10.5036 4.56142 11.2833 4.53392 12.0607C4.45402 14.3205 4.53519 16.5742 4.79201 18.8198C4.94002 20.1137 5.12638 21.3989 5.54521 22.638C6.01956 24.0412 6.932 24.9314 8.32112 25.2993C8.9049 25.4539 9.4971 25.5593 10.0947 25.6235C12.0601 25.8345 14.0329 25.8801 16.0071 25.8866Z" fill="#151515"/>
<path d="M20.6035 25.1567C19.8742 25.1733 19.8745 25.1732 19.75 24.6398C19.5142 23.6296 19.2475 22.6298 18.9132 21.6479C18.5947 20.7124 17.9781 20.2442 17.0327 20.1625C16.2496 20.0948 15.4749 20.1162 14.6962 20.2076C13.9385 20.2967 13.4387 20.7038 13.1507 21.4297C12.7962 22.3232 12.571 23.2567 12.3295 24.1855C12.2938 24.3226 12.2614 24.4607 12.2255 24.5977C12.0735 25.1777 12.0729 25.1859 11.4782 25.1542C10.9201 25.1244 10.3634 25.0617 9.80512 25.0396C9.5644 25.0302 9.5056 24.915 9.49039 24.6982C9.40682 23.5075 9.31044 22.3178 9.22787 21.127C9.05971 18.7014 8.89281 16.2756 8.73459 13.8493C8.61413 12.0021 8.50793 10.1538 8.39508 8.3061C8.37576 7.98907 8.35928 7.67171 8.33337 7.3552C8.32088 7.20264 8.37094 7.14166 8.52232 7.13251C8.97499 7.10521 9.42747 7.07067 9.87888 7.02646C10.1475 7.00015 10.1233 7.21994 10.1566 7.37231C10.5024 8.95109 10.822 10.5362 11.1875 12.11C11.5255 13.5656 11.8176 15.0343 12.3052 16.4502C12.7791 17.8263 13.704 18.5363 15.1049 18.5957C15.8326 18.6266 16.5571 18.6418 17.2838 18.5399C18.4284 18.3795 19.1507 17.7036 19.5641 16.6196C20.0745 15.2815 20.3533 13.8744 20.6799 12.4838C21.0741 10.8051 21.4221 9.1145 21.7728 7.4252C21.8381 7.1108 21.9385 6.97752 22.2709 7.03692C22.6225 7.09975 22.9848 7.1085 23.343 7.11824C23.5644 7.12429 23.6263 7.21041 23.6112 7.43632C23.5287 8.67129 23.4614 9.90731 23.3845 11.1427C23.2695 12.9903 23.1579 14.8381 23.0321 16.6848C22.8794 18.9246 22.7136 21.1633 22.5533 23.4026C22.5212 23.8504 22.479 24.2977 22.4593 24.7461C22.4509 24.9402 22.3813 25.0154 22.197 25.0281C21.5971 25.0699 20.998 25.1242 20.6035 25.1567Z" fill="#151515"/>
</svg>
