<svg width="32" height="32" viewBox="0 0 32 32" fill="none" xmlns="http://www.w3.org/2000/svg">
<g clip-path="url(#clip0_17_1460)">
<path d="M22.2156 17.8718H20.4782V15.8438L20.4548 15.8353C20.4432 15.8688 20.4308 15.9023 20.42 15.9361C20.2234 16.5486 20.0256 17.1607 19.8326 17.7747C19.8075 17.8543 19.777 17.8805 19.7086 17.8791C19.4275 17.8745 19.1463 17.8745 18.8652 17.8791C18.8022 17.8791 18.7761 17.853 18.7543 17.7834C18.5587 17.1573 18.36 16.5347 18.162 15.9108C18.1547 15.8837 18.1412 15.8598 18.1231 15.842V17.8693H16.3787V14.0076C16.4076 14.0056 16.4368 14.002 16.4658 14.002C17.1643 14.002 17.8631 14.0034 18.561 14.0002C18.6294 14.0002 18.6601 14.0253 18.6853 14.1038C18.8697 14.6785 19.0582 15.2509 19.2457 15.8238C19.2598 15.867 19.2747 15.9097 19.282 15.9323C19.4522 15.312 19.6576 14.6981 19.8474 14.0776C19.8554 14.0585 19.8669 14.0419 19.8811 14.0294C19.8953 14.0168 19.9117 14.0086 19.9289 14.0054C20.6729 14.0013 21.4169 14.0022 22.1609 14.0027C22.1792 14.004 22.1974 14.0066 22.2154 14.0105L22.2156 17.8718Z" fill="#151515"/>
<path d="M11.8602 15.8433V17.8695H10.1214V14.0081C10.1503 14.006 10.1759 14.0025 10.2029 14.0025C10.8925 14.0025 11.582 14.0025 12.2716 14C12.3346 14 12.3611 14.0275 12.3843 14.0946C12.5886 14.6872 12.7946 15.279 13.0022 15.8701C13.0125 15.8999 13.024 15.9292 13.0316 15.9497C13.1896 15.3189 13.4043 14.7109 13.5854 14.0877C13.6025 14.0284 13.6235 14.0002 13.6809 14.0004C14.4156 14.0031 15.1507 14.002 15.8851 14.0022C15.9085 14.0022 15.932 14.0074 15.9577 14.0103V17.8682H14.2209V15.842L14.1993 15.833C14.1863 15.8661 14.1723 15.8988 14.1603 15.9325C13.9415 16.55 13.7232 17.1677 13.5054 17.7857C13.482 17.8528 13.4564 17.8809 13.3932 17.8796C13.1334 17.8742 12.8733 17.8742 12.6129 17.8796C12.5474 17.8796 12.5188 17.8537 12.4955 17.7796C12.3037 17.1647 12.1085 16.5515 11.9148 15.9377C11.9041 15.9041 11.892 15.8706 11.8806 15.8379L11.8602 15.8433Z" fill="#151515"/>
<path d="M30.8243 16.3912L32 17.8671C31.9655 17.8718 31.9441 17.8771 31.9229 17.8771C31.3302 17.8771 30.7374 17.8789 30.1445 17.8744C30.0954 17.8709 30.0489 17.8465 30.0128 17.8054C29.6928 17.4303 29.3766 17.0509 29.0592 16.6727C29.0354 16.6443 29.0111 16.617 28.9712 16.571V17.8711H27.0709V14.002H27.1815C28.2974 14.002 29.4136 13.9984 30.5294 14.0054C30.7197 14.0037 30.9096 14.0296 31.095 14.0825C31.7686 14.2876 32.0113 15.1859 31.5861 15.8666C31.405 16.1564 31.1602 16.3281 30.8243 16.3912ZM28.9717 15.7371C29.2294 15.7371 29.4776 15.7552 29.7232 15.7317C29.9395 15.7109 30.0418 15.5445 30.048 15.2813C30.0536 15.0423 29.9531 14.8659 29.7426 14.8352C29.4896 14.7981 29.2321 14.8066 28.9717 14.7952V15.7371Z" fill="#151515"/>
<path d="M0 14.0092H1.85403V15.397H2.82578V14.0092H4.68181V17.8686H2.82778V16.4806H1.85984V17.8698H0V14.0092Z" fill="#151515"/>
<path d="M5.06561 14.0065H6.92436V14.1386C6.92436 14.9549 6.92436 15.771 6.92436 16.5871C6.92436 16.9241 7.04177 17.0712 7.31578 17.0734C7.37921 17.0742 7.44253 17.0667 7.50469 17.0511C7.71083 16.9985 7.80229 16.857 7.80247 16.5967C7.80247 15.7805 7.80247 14.9643 7.80247 14.1483V14.0092H9.69933C9.70115 14.0494 9.70387 14.0854 9.70387 14.121C9.70387 14.922 9.70569 15.7232 9.70278 16.5245C9.70334 16.6699 9.69307 16.8151 9.67211 16.9583C9.59735 17.4408 9.35999 17.7564 8.97765 17.874C8.74345 17.9465 8.50336 17.9862 8.26195 17.9923C7.62119 18.0066 6.97989 17.9981 6.33841 17.9898C6.19335 17.9852 6.04896 17.964 5.90707 17.9266C5.38082 17.7969 5.10463 17.404 5.07396 16.7443C5.0638 16.5251 5.06634 16.3049 5.06616 16.085C5.06531 15.4365 5.06531 14.788 5.06616 14.1395L5.06561 14.0065Z" fill="#151515"/>
<path d="M24.5194 14.9435V15.5962H26.7152V16.3889H24.6332C24.5133 16.3889 24.5135 16.3889 24.5135 16.5421V16.9681H26.7168V17.8693H22.6605V14.0085H26.7145V14.9435H24.5194Z" fill="#151515"/>
</g>
<defs>
<clipPath id="clip0_17_1460">
<rect width="32" height="32" fill="white"/>
</clipPath>
</defs>
</svg>
