<svg width="32" height="32" viewBox="0 0 32 32" fill="none" xmlns="http://www.w3.org/2000/svg">
<path d="M16.6614 8.7998C17.1356 8.82523 18.0304 8.86556 18.9241 8.92278C20.3552 9.01441 21.7665 9.23664 23.1606 9.56048C24.1425 9.78853 25.1022 10.0873 26.0239 10.4861C26.8237 10.8322 27.5828 11.2503 28.2725 11.7826C28.7616 12.16 29.205 12.5774 29.5598 13.0756C30.0612 13.7795 30.3601 14.5505 30.3963 15.4177C30.4255 16.114 30.28 16.7617 29.9315 17.3661C29.6827 17.7975 29.374 18.1886 29.0279 18.5516C28.3477 19.2652 27.573 19.8649 26.7282 20.3872C25.674 21.039 24.543 21.5205 23.3583 21.8972C21.9839 22.3341 20.5741 22.6208 19.145 22.8072C18.0308 22.9525 16.9099 23.0616 15.7886 23.1416C14.5125 23.2326 13.2324 23.2199 11.9591 23.0821C10.8095 22.9577 9.67018 22.7643 8.55244 22.4709C7.99806 22.3254 7.4439 22.1717 6.90433 21.9822C5.87144 21.6196 4.90049 21.1353 4.03286 20.4747C3.4594 20.0381 2.94052 19.5469 2.50304 18.9774C1.67723 17.9022 1.39062 16.7188 1.75634 15.4144C1.94354 14.7467 2.31702 14.1729 2.7915 13.659C3.5278 12.8614 4.40339 12.2338 5.34371 11.6845C6.0811 11.2537 6.84953 10.8851 7.64808 10.5716C9.51692 9.83803 11.4601 9.37988 13.4444 9.06321C14.3709 8.91536 15.3014 8.82614 16.6614 8.7998ZM23.0125 11.1582C22.7817 11.0573 22.5804 10.9524 22.3675 10.8792C21.6418 10.6295 20.8799 10.5564 20.1217 10.4716C19.6719 10.4212 19.2209 10.3719 18.769 10.3512C18.0325 10.3175 17.2943 10.2806 16.5581 10.2969C16.0264 10.3087 15.4972 10.4094 14.9659 10.4604C14.7798 10.4782 14.6211 10.5433 14.4825 10.6556C14.0093 11.0389 13.6555 11.5065 13.4291 12.0645C13.1141 12.8407 13.1809 13.5729 13.7049 14.2455C14.0346 14.6687 14.4788 14.9144 15.0313 14.879C15.4349 14.8532 15.8389 14.7783 16.2333 14.6871C17.0658 14.4946 17.8824 14.2446 18.6586 13.8923C19.367 13.5707 20.0716 13.2382 20.7593 12.8771C21.536 12.4693 22.2125 11.9231 22.8519 11.3349C22.9017 11.289 22.9434 11.2347 23.0125 11.1582ZM9.5046 21.2609C9.58186 21.2876 9.62211 21.3034 9.66351 21.3154C10.305 21.5015 10.963 21.6103 11.6273 21.6675C12.3818 21.7325 13.139 21.7715 13.8956 21.8084C14.7153 21.8485 15.5363 21.8437 16.3506 21.7405C16.8638 21.6754 17.3727 21.5728 17.8791 21.4671C17.9913 21.4436 18.1152 21.357 18.1821 21.2644C18.5588 20.743 18.8511 20.1777 18.9784 19.5495C19.1143 18.8787 19.1152 18.2144 18.7602 17.59C18.5019 17.1356 17.9734 16.8674 17.4884 16.957C17.2592 16.9994 17.0304 17.0457 16.804 17.1002C15.7787 17.3465 14.7892 17.6872 13.8376 18.1354C13.2264 18.4233 12.6527 18.7696 12.12 19.1716C11.3061 19.7858 10.5157 20.4292 9.71649 21.0616C9.6486 21.1152 9.59008 21.1799 9.5046 21.2609ZM11.0755 10.9996C10.9912 11.0084 10.9508 11.0069 10.9137 11.0172C10.5369 11.1216 10.1592 11.223 9.78474 11.3346C8.90232 11.5976 8.04618 11.9266 7.24428 12.371C6.70268 12.6712 6.17786 13.0007 5.65386 13.3296C4.86437 13.8251 4.23539 14.4729 3.75977 15.2595C3.37532 15.8953 3.20824 16.5692 3.38106 17.3033C3.53945 17.9763 3.87774 18.5447 4.3946 19.0216C4.89371 19.4822 5.46598 19.8322 6.07598 20.1325C6.17237 20.1799 6.2251 20.1698 6.25909 20.0679C6.29661 19.9554 6.3425 19.8456 6.38147 19.7336C6.83059 18.4422 7.36696 17.1845 8.00443 15.9714C8.48144 15.0636 8.99737 14.1739 9.52546 13.2928C9.87482 12.7099 10.2748 12.1554 10.6553 11.5902C10.7821 11.4018 10.9186 11.2194 11.0755 10.9996ZM21.7082 20.5528C21.7993 20.5421 21.843 20.5402 21.8851 20.5314C22.1684 20.4721 22.4582 20.4319 22.7331 20.3468C23.3381 20.1595 23.9437 19.9693 24.5333 19.7419C24.9756 19.5712 25.411 19.3686 25.8166 19.128C26.1602 18.9242 26.4657 18.6557 26.7717 18.3977C27.2444 17.9992 27.6932 17.5747 27.9974 17.0345C28.1213 16.8147 28.1966 16.5691 28.3211 16.3497C28.5879 15.879 28.624 15.3745 28.5876 14.8569C28.5691 14.5937 28.5118 14.3368 28.3585 14.1127C28.1932 13.871 28.0294 13.6273 27.8462 13.3985C27.4499 12.9033 26.9898 12.4767 26.4028 12.1927C26.2935 12.1397 26.2356 12.1581 26.1912 12.2645C26.0881 12.5112 25.9854 12.7581 25.8746 13.0015C25.5747 13.6601 25.2908 14.3263 24.9633 14.9718C24.5215 15.8425 24.0622 16.7059 23.578 17.555C23.1454 18.3137 22.6708 19.0501 22.2102 19.7937C22.0596 20.037 21.8946 20.272 21.7082 20.5528Z" fill="#151515"/>
</svg>
