<svg width="32" height="32" viewBox="0 0 32 32" fill="none" xmlns="http://www.w3.org/2000/svg">
<path d="M16.007 12.8574C16.0065 12.8565 16.0058 12.8559 16.005 12.8554C16.0042 12.8549 16.0032 12.8547 16.0022 12.8547C16.0013 12.8547 16.0003 12.855 15.9995 12.8555C15.9987 12.856 15.9981 12.8567 15.9976 12.8576C15.9372 12.9739 15.8836 13.09 15.8382 13.2152C14.663 16.4545 13.4931 19.6782 12.3286 22.8864C12.3082 22.9427 12.2838 22.9978 12.2553 23.0518C12.1617 23.2287 11.9868 23.2041 11.8168 23.1821C10.1065 22.9601 8.41344 22.6329 6.78723 22.0909C6.35448 21.9466 5.95217 21.794 5.5803 21.6328C4.78231 21.2871 4.08309 20.8695 3.48263 20.38C2.39207 19.4913 1.50733 18.2613 1.26818 16.9056C1.11468 16.0356 1.22042 15.1898 1.58539 14.3682C1.88355 13.6972 2.34197 13.094 2.88859 12.5781C3.42583 12.071 4.03271 11.6222 4.70922 11.2316C5.61405 10.7094 6.58742 10.3108 7.5995 9.98857C8.6345 9.65908 9.6842 9.40182 10.7486 9.2168C12.8833 8.84598 15.052 8.74697 17.242 8.82432C17.9894 8.85083 18.6814 8.89492 19.3182 8.95659C21.3113 9.14988 23.2756 9.55673 25.1223 10.2346C26.4013 10.7041 27.6176 11.3231 28.6415 12.158C29.2446 12.6501 29.7906 13.227 30.1803 13.8799C30.5429 14.4873 30.7463 15.1325 30.7905 15.8155C30.8574 16.8459 30.5702 17.8628 30.0006 18.7487C29.815 19.0372 29.5998 19.3167 29.355 19.5872C28.823 20.1745 28.2008 20.6809 27.4884 21.1063C26.6519 21.6059 25.7224 21.9732 24.7646 22.2353C24.4845 22.312 24.1827 22.387 23.8593 22.4605C23.4075 22.5633 22.9533 22.6582 22.4967 22.7453C21.6885 22.8992 20.9175 23.0489 20.1837 23.1943C20.1642 23.1981 20.1283 23.1999 20.0758 23.1998C19.8764 23.199 19.7677 23.0559 19.7087 22.8941C18.4506 19.4421 17.2596 16.1907 16.1355 13.1398C16.1012 13.0467 16.0583 12.9525 16.007 12.8574ZM16.0086 11.1166C16.08 11.1999 16.1494 11.2839 16.2167 11.3685C17.9815 13.5871 19.7859 15.8569 21.6297 18.1779C21.7889 18.3784 21.926 18.541 22.041 18.6656C22.2217 18.8615 22.4195 19.0016 22.7052 18.9922C22.816 18.9884 22.9245 18.9755 23.0305 18.9536C23.5863 18.8388 24.1217 18.6978 24.6364 18.5308C25.3735 18.2916 26.0839 17.96 26.6943 17.5144C27.0941 17.2223 27.4513 16.9018 27.7091 16.5123C28.1171 15.8961 28.2152 15.2417 28.0033 14.5491C27.953 14.3848 27.8811 14.2123 27.7992 14.06C27.5217 13.5443 27.1447 13.069 26.6682 12.634C25.7578 11.803 24.6149 11.2552 23.4322 10.8271C21.8654 10.26 20.2062 9.91949 18.525 9.76399C17.256 9.64668 15.9854 9.61807 14.7133 9.67817C13.565 9.73237 12.4522 9.8687 11.3751 10.0872C10.2851 10.3084 9.22102 10.6241 8.18298 11.0341C7.39721 11.3447 6.63773 11.7156 5.95694 12.1907C5.43695 12.5535 4.99082 12.9671 4.61853 13.4315C4.39057 13.7159 4.19241 14.0391 4.06632 14.3684C3.82848 14.9895 3.8427 15.5893 4.10897 16.1679C4.41583 16.8343 5.02581 17.3628 5.66913 17.7506C6.41218 18.1982 7.24233 18.5391 8.15959 18.7735C8.51903 18.8653 8.88476 18.9419 9.25677 19.0032C9.55948 19.053 9.77503 18.9707 9.95765 18.739C11.8639 16.3204 13.7748 13.9051 15.6904 11.4931C15.791 11.3664 15.8942 11.2409 15.9999 11.1166C16.0005 11.116 16.0011 11.1155 16.0019 11.1152C16.0026 11.1148 16.0034 11.1146 16.0043 11.1146C16.0051 11.1146 16.0059 11.1148 16.0067 11.1152C16.0074 11.1155 16.0081 11.116 16.0086 11.1166Z" fill="#151515"/>
</svg>
