<svg width="32" height="32" viewBox="0 0 32 32" fill="none" xmlns="http://www.w3.org/2000/svg">
<g clip-path="url(#clip0_17_1405)">
<path d="M17.9291 4C18.5633 4.05972 19.1975 4.11012 19.8298 4.18664C22.1645 4.44234 24.4408 4.90707 26.6378 5.78054C26.7511 5.81 26.8497 5.87933 26.915 5.97555C26.9803 6.07176 27.0079 6.18824 26.9926 6.30313C26.9813 9.19792 26.9511 12.089 26.9926 14.9893C27.0406 17.0282 26.4757 19.0353 25.3694 20.7565C23.4005 23.9137 20.4726 26.3745 17.0043 27.7872C16.6882 27.9276 16.3457 28.0001 15.9992 28.0001C15.6527 28.0001 15.3102 27.9276 14.9941 27.7872C12.6202 26.8126 10.4862 25.3441 8.73727 23.4815C7.32358 22.0145 6.19111 20.3646 5.5173 18.4422C5.18009 17.4819 5.00784 16.4725 5.00769 15.4559C5.00769 12.4063 5.00769 9.35656 5.00769 6.3106C4.98857 6.19985 5.011 6.08601 5.07078 5.99046C5.13056 5.89492 5.22357 5.82425 5.33233 5.79174C7.21254 5.058 9.17813 4.55954 11.1834 4.30796C12.0648 4.18664 12.9632 4.13065 13.856 4.04106C13.9199 4.03242 13.9831 4.01869 14.0448 4H17.9291ZM5.44369 11.292C5.44369 12.6564 5.4569 14.0207 5.44369 15.385C5.42248 16.7143 5.71321 18.0303 6.29303 19.2298C8.0408 22.8506 10.8512 25.4449 14.5091 27.1191C16.17 27.8806 15.8303 27.8656 17.5969 27.0761C20.5171 25.7578 22.9976 23.6449 24.7484 20.9842C25.9945 19.1776 26.6362 17.03 26.583 14.8438C26.5283 12.0946 26.566 9.34349 26.583 6.59429C26.5998 6.47398 26.5703 6.35184 26.5004 6.25198C26.4305 6.15211 26.3253 6.08179 26.2055 6.0549C23.8745 5.1609 21.4473 4.71856 18.9672 4.50953C16.5905 4.30506 14.1988 4.34634 11.8308 4.63271C9.76268 4.85667 7.73071 5.33377 5.78154 6.05304C5.6725 6.07765 5.57668 6.14161 5.5128 6.23239C5.44892 6.32317 5.42158 6.43425 5.43614 6.5439C5.45124 8.1266 5.44369 9.70931 5.44369 11.292Z" fill="#151515"/>
<path d="M6.01386 11.7248C6.01386 10.2317 6.02519 8.74793 6.01386 7.25855C5.99609 7.12829 6.02773 6.99614 6.10266 6.88758C6.17759 6.77902 6.29052 6.70174 6.41966 6.67063C8.08943 6.03745 9.82819 5.59899 11.6007 5.36415C13.6004 5.08119 15.6234 4.99367 17.6405 5.10286C20.3584 5.2503 23.0178 5.67957 25.5677 6.65757C25.706 6.69056 25.8266 6.77376 25.9056 6.89063C25.9846 7.00751 26.0163 7.1495 25.9943 7.28841C25.9773 9.85284 25.9396 12.4191 25.9943 14.9817C26.05 17.0647 25.4252 19.11 24.2126 20.8142C22.4314 23.4453 19.9041 25.4977 16.9478 26.7139C16.652 26.849 16.33 26.9191 16.0041 26.9191C15.6782 26.9191 15.3562 26.849 15.0604 26.7139C11.3704 25.1218 8.54492 22.6377 6.79715 19.0243C6.26217 17.8962 5.99429 16.6624 6.01386 15.4166C6.01952 14.1866 6.01386 12.9585 6.01386 11.7248ZM25.832 11.6931C25.832 10.2355 25.832 8.77779 25.832 7.32014C25.8487 7.19983 25.8192 7.07768 25.7494 6.97782C25.6795 6.87796 25.5743 6.80764 25.4545 6.78075C23.2802 5.939 20.9964 5.51533 18.6654 5.31936C16.3415 5.11762 14.002 5.17585 11.6913 5.49294C9.91835 5.72558 8.17934 6.1641 6.51026 6.79941C6.39637 6.8273 6.29678 6.89551 6.23034 6.99113C6.1639 7.08675 6.13523 7.20315 6.14976 7.31827C6.16297 10.0059 6.14976 12.6935 6.14976 15.3811C6.1304 16.5224 6.35621 17.6547 6.81225 18.7033C8.47886 22.3913 11.3062 24.8979 14.9905 26.5422C15.3078 26.6937 15.6555 26.7724 16.0079 26.7724C16.3602 26.7724 16.7079 26.6937 17.0252 26.5422C19.8074 25.358 22.1999 23.4291 23.9332 20.9728C25.2299 19.155 25.9509 17.1672 25.8414 14.9182C25.7942 13.8451 25.8339 12.7719 25.8339 11.6931H25.832Z" fill="#151515"/>
<path d="M15.8169 24.8739C15.2205 23.838 14.6845 22.86 14.1013 21.9044C13.0922 20.1889 11.6835 18.7364 9.99231 17.6677C9.91065 17.6241 9.84381 17.5576 9.80017 17.4766C9.75653 17.3956 9.73801 17.3037 9.74694 17.2123C9.78807 16.3525 10.0071 15.5102 10.3906 14.7375C11.3909 12.5388 12.8197 10.6892 14.9487 9.44249C16.0978 8.74796 17.4338 8.41655 18.7783 8.4925C18.9671 8.5037 19.0275 8.40851 19.0973 8.27226C19.2295 7.98364 19.4292 7.73023 19.6799 7.53293C19.9307 7.33563 20.2252 7.20009 20.5393 7.13749C20.6111 7.12134 20.6847 7.11444 20.7583 7.11696C21.1584 7.13376 21.2226 7.24201 21.047 7.59476C20.7866 8.11362 20.7904 8.11175 21.1924 8.55036C21.5699 8.95723 21.936 9.36411 22.3022 9.77471C22.5721 10.0789 22.7193 10.4018 22.54 10.8236C22.5175 10.9722 22.5548 11.1237 22.6438 11.2454C23.2101 12.1786 23.8027 13.0894 24.3765 14.0133C24.603 14.3754 24.8351 14.7599 24.6596 15.2022C24.5854 15.4023 24.4733 15.5866 24.3293 15.7453C24.0217 16.0682 23.6781 16.3556 23.3573 16.6673C23.0647 16.951 22.959 16.9081 22.7816 16.5572C22.6409 16.3489 22.46 16.1701 22.2493 16.0309C22.2086 16.0152 22.1646 16.0101 22.1213 16.016C22.078 16.0218 22.037 16.0385 22.0021 16.0645C21.9643 16.1055 21.9832 16.2511 22.0247 16.3071C22.1361 16.4676 22.2909 16.602 22.4022 16.7662C22.4501 16.8812 22.48 17.0026 22.4909 17.1265C22.3741 17.1368 22.2567 17.1368 22.1399 17.1265C21.8568 17.0705 21.5736 16.9697 21.2962 16.9398C20.9055 16.895 20.8055 16.7849 20.8545 16.4079C20.8584 16.3555 20.8516 16.3029 20.8344 16.2531C20.8172 16.2034 20.79 16.1577 20.7545 16.1186C20.4657 15.8498 20.1637 15.5941 19.8542 15.3478C19.8149 15.3178 19.77 15.2957 19.722 15.2829C19.6741 15.2701 19.6241 15.2668 19.5748 15.2731C19.4164 15.3108 19.2506 15.3063 19.0945 15.2601C18.9383 15.2138 18.7973 15.1275 18.6859 15.01C18.5292 14.8718 18.3688 14.7393 18.214 14.5993C18.0592 14.4594 17.912 14.3175 17.7591 14.1757C16.7022 14.982 16.5398 16.0943 17.0381 17.1022C17.2684 17.5557 17.5496 17.9981 17.6704 18.4759C18.0705 20.0698 17.7704 21.6021 17.0513 23.0485C16.772 23.6084 16.3643 24.1068 16.0132 24.6294C15.9524 24.7143 15.8868 24.796 15.8169 24.8739Z" fill="#151515"/>
<path d="M9.43364 17.2607C8.67866 16.8557 7.98408 16.4862 7.29894 16.0942C7.23099 16.055 7.20646 15.8591 7.23477 15.7564C7.57514 14.4837 8.14552 13.2823 8.91837 12.2103C10.6888 9.72796 13.0519 8.12659 16.0906 7.5592C17.0765 7.36019 18.0916 7.34753 19.0822 7.52188C19.1294 7.53121 19.1766 7.54614 19.2389 7.56294C19.1162 7.74958 19.0143 7.93622 18.8897 8.09486C18.8348 8.15153 18.7595 8.18441 18.6802 8.18631C15.9698 8.15272 13.871 9.36961 12.1383 11.3237C10.8398 12.7926 9.90738 14.4518 9.50347 16.3929C9.47926 16.5355 9.46351 16.6795 9.45629 16.824C9.44496 16.9546 9.44119 17.0853 9.43364 17.2607Z" fill="#151515"/>
<path d="M17.7516 14.5303C17.9403 14.7001 18.0894 14.8084 18.0328 15.107C17.9894 15.3403 18.1196 15.6314 18.2348 15.8647C18.4669 16.3388 18.7293 16.7979 19.0011 17.2496C20.0429 18.9742 19.8297 20.6689 18.8652 22.3281C18.2234 23.433 17.2741 24.2598 16.2416 24.997C16.2209 25.012 16.1888 25.0082 16.1133 25.0232C16.202 24.9112 16.2624 24.8365 16.3247 24.7563C16.9982 23.9563 17.502 23.0304 17.8058 22.0338C18.1097 21.0372 18.2074 19.9903 18.0932 18.9555C18.0441 18.4777 17.8025 18.0223 17.6346 17.5576C17.4458 17.0667 17.191 16.5945 17.0891 16.0887C16.9626 15.4653 17.2929 14.9633 17.7516 14.5303Z" fill="#151515"/>
</g>
<defs>
<clipPath id="clip0_17_1405">
<rect width="22" height="24" fill="white" transform="translate(5 4)"/>
</clipPath>
</defs>
</svg>
