<svg width="32" height="32" viewBox="0 0 32 32" fill="none" xmlns="http://www.w3.org/2000/svg">
<path d="M0.799988 13.7508C0.894136 13.7055 0.986386 13.6246 1.08243 13.6207C1.4799 13.6056 1.87851 13.6126 2.27637 13.614C2.47985 13.6147 2.54135 13.6657 2.54173 13.8514C2.54287 15.2859 2.54059 16.7203 2.54059 18.155C2.54059 18.321 2.46314 18.4005 2.27637 18.3984C1.87851 18.3935 1.4799 18.4041 1.08243 18.3925C0.987145 18.3896 0.894136 18.3246 0.799988 18.2883C0.799988 16.7758 0.799988 15.2633 0.799988 13.7508Z" fill="#151515"/>
<path d="M6.19793 18.3942C5.47056 18.3942 4.7432 18.3946 4.01545 18.3942C3.73604 18.3942 3.68972 18.3495 3.68897 18.0847C3.68821 17.9204 3.68821 17.7565 3.6901 17.5922C3.69276 17.3587 3.75312 17.3003 4.00444 17.3021C5.19344 17.3105 6.38281 17.321 7.57181 17.3302C7.67925 17.3309 7.78782 17.3341 7.89298 17.3189C7.93891 17.3123 8.01104 17.2634 8.0118 17.2317C8.01332 17.1849 7.97346 17.1237 7.93056 17.0928C7.87779 17.0551 7.80528 17.04 7.73961 17.0193C6.74916 16.7013 5.75757 16.3865 4.76901 16.0646C4.5792 16.0027 4.3928 15.9253 4.21741 15.8342C3.68859 15.5592 3.44486 15.0667 3.56672 14.5486C3.68479 14.0467 4.13199 13.6801 4.7337 13.6531C5.47208 13.6196 6.21236 13.62 6.95188 13.6144C7.78668 13.608 8.62187 13.6105 9.45667 13.6109C9.68938 13.6109 9.719 13.6393 9.72165 13.8553C9.72431 14.0488 9.72507 14.2422 9.72355 14.4357C9.72165 14.6745 9.68597 14.7079 9.42175 14.7076C8.39713 14.7065 7.37213 14.7034 6.34751 14.7009C6.13871 14.7006 5.92916 14.69 5.7215 14.7041C5.6209 14.7108 5.455 14.7452 5.43792 14.799C5.3916 14.9468 5.56357 14.964 5.66759 14.9981C6.41736 15.2444 7.17206 15.4772 7.92031 15.7276C8.37093 15.8785 8.82914 16.0228 9.25319 16.2254C9.842 16.5064 10.0478 17.0731 9.81808 17.6327C9.63016 18.091 9.22738 18.2947 8.7369 18.3502C8.3808 18.3907 8.01826 18.3858 7.65837 18.3903C7.1713 18.3963 6.68424 18.3918 6.19718 18.3918V18.3946L6.19793 18.3942Z" fill="#151515"/>
<path d="M20.5464 13.6112C21.2738 13.6112 22.0008 13.6067 22.7281 13.6144C22.9221 13.6165 23.1203 13.639 23.309 13.6812C24.0678 13.8497 24.3867 14.676 23.8837 15.2285C23.6867 15.4452 23.4156 15.6309 23.1389 15.7533C22.1477 16.1916 21.139 16.5965 20.1375 17.0147C20.0457 17.053 19.9508 17.0889 19.8661 17.1385C19.8308 17.1593 19.794 17.2191 19.8027 17.2504C19.8118 17.2824 19.8748 17.32 19.9162 17.3218C20.0927 17.3292 20.27 17.3249 20.4469 17.3239C21.522 17.3168 22.5972 17.3088 23.6719 17.3024C23.9251 17.301 23.9559 17.3299 23.9581 17.5652C23.96 17.7586 23.9615 17.9521 23.9589 18.1452C23.9562 18.3366 23.9092 18.3805 23.6981 18.3833C23.4263 18.3872 23.1541 18.3861 22.8823 18.3861C21.7377 18.3861 20.5927 18.3932 19.4481 18.3816C19.122 18.3784 18.7857 18.3584 18.4732 18.281C17.7121 18.0921 17.4756 17.1762 18.0564 16.6791C18.2424 16.5198 18.477 16.396 18.7101 16.2985C19.7803 15.8508 20.8592 15.4202 21.9313 14.9763C22.0452 14.9292 22.2487 14.9239 22.2092 14.7533C22.1978 14.7041 21.9837 14.6714 21.863 14.6717C20.6994 14.6738 19.5358 14.6847 18.3723 14.6921C18.2777 14.6928 18.1745 14.7051 18.091 14.6753C18.0241 14.651 17.9383 14.5732 17.9342 14.5149C17.9167 14.2697 17.9258 14.0231 17.9266 13.7769C17.927 13.6605 17.9972 13.6077 18.1183 13.6067C18.3837 13.6042 18.6494 13.6007 18.9148 13.6003C19.4588 13.5993 20.0024 13.6003 20.5464 13.6003C20.5464 13.6042 20.5464 13.6081 20.5464 13.6119V13.6112Z" fill="#151515"/>
<path d="M10.8271 15.3443C10.8271 14.8578 10.826 14.3713 10.8275 13.8849C10.8283 13.6517 10.8761 13.6077 11.1278 13.6063C11.501 13.6045 11.8741 13.6045 12.2473 13.6063C12.4964 13.6077 12.5366 13.6425 12.5377 13.8726C12.5419 14.6872 12.5415 15.5018 12.5453 16.3161C12.5461 16.4565 12.5506 16.5979 12.567 16.7372C12.6011 17.0309 12.7659 17.2162 13.0817 17.2335C13.5593 17.2592 14.0407 17.2641 14.5179 17.237C14.8842 17.2162 15.046 17.0277 15.0809 16.6844C15.0934 16.562 15.1006 16.4389 15.1014 16.3161C15.1044 15.5075 15.1044 14.6988 15.1071 13.8898C15.1078 13.6383 15.1435 13.6066 15.4165 13.6056C15.8022 13.6045 16.1883 13.6073 16.574 13.6056C16.7414 13.6049 16.8181 13.6805 16.8165 13.8314C16.8059 14.88 16.8196 15.9296 16.7771 16.9771C16.7406 17.8712 16.2103 18.3316 15.2415 18.3499C14.2935 18.3678 13.3452 18.3559 12.3969 18.3517C12.2591 18.351 12.119 18.3309 11.9839 18.3042C11.3017 18.1691 10.927 17.7579 10.8636 17.0826C10.8537 16.9774 10.8355 16.8726 10.8347 16.7674C10.8317 16.2929 10.8332 15.8181 10.8332 15.3436C10.8313 15.3436 10.8298 15.3436 10.8279 15.3436L10.8271 15.3443Z" fill="#151515"/>
<path d="M25.2106 15.3846C25.2106 14.8982 25.2094 14.4117 25.2109 13.9252C25.2117 13.692 25.2595 13.6481 25.5112 13.6467C25.8844 13.6449 26.2576 13.6449 26.6307 13.6467C26.8798 13.6481 26.92 13.6829 26.9212 13.9129C26.9253 14.7276 26.925 15.5422 26.9288 16.3565C26.9295 16.4968 26.9341 16.6382 26.9504 16.7775C26.9846 17.0712 27.1493 17.2566 27.4652 17.2738C27.9427 17.2995 28.4241 17.3044 28.9013 17.2774C29.2677 17.2566 29.4294 17.0681 29.4643 16.7248C29.4768 16.6024 29.484 16.4792 29.4848 16.3565C29.4878 15.5478 29.4878 14.7392 29.4905 13.9302C29.4913 13.6787 29.5269 13.647 29.7999 13.6459C30.1856 13.6449 30.5717 13.6477 30.9574 13.6459C31.1248 13.6452 31.2015 13.7209 31.2 13.8718C31.1893 14.9203 31.203 15.9699 31.1605 17.0174C31.124 17.9115 30.5937 18.372 29.6249 18.3903C28.6769 18.4082 27.7286 18.3962 26.7803 18.392C26.6425 18.3913 26.5024 18.3713 26.3673 18.3445C25.6851 18.2095 25.3104 17.7983 25.247 17.1229C25.2371 17.0178 25.2189 16.9129 25.2181 16.8078C25.2151 16.3333 25.2166 15.8584 25.2166 15.3839C25.2147 15.3839 25.2132 15.3839 25.2113 15.3839L25.2106 15.3846Z" fill="#151515"/>
</svg>
