<svg width="32" height="32" viewBox="0 0 32 32" fill="none" xmlns="http://www.w3.org/2000/svg">
<path d="M23.5936 17.1621V17.9665C23.1052 17.9665 22.6275 17.9665 22.1497 17.9665C22.1071 17.9665 22.0597 17.9156 22.0229 17.878C21.4954 17.3257 21.4954 17.3243 21.4954 16.5199C21.4954 15.9957 21.4895 15.4715 21.4954 14.9473C21.5047 14.8349 21.5389 14.727 21.595 14.6336C21.7032 14.4035 21.8749 14.2198 22.084 14.1104C22.2931 14.001 22.5281 13.9719 22.7531 14.0276C23.032 14.0532 23.3121 14.0558 23.5912 14.0356V14.9044C23.3293 14.9044 23.0815 14.9044 22.8326 14.9044C22.724 14.9142 22.6216 14.9653 22.542 15.0492C22.4624 15.1332 22.4102 15.2452 22.394 15.3669C22.394 15.7879 22.394 16.2089 22.394 16.6299C22.394 16.8511 22.6595 17.1273 22.8575 17.1299L23.5474 17.1366C23.5604 17.1366 23.5699 17.1487 23.5936 17.1621Z" fill="#151515"/>
<path d="M29.113 17.1299C29.3774 17.1299 29.6204 17.1299 29.8622 17.1299C29.9773 17.1159 30.0847 17.0577 30.1665 16.965C30.2482 16.8723 30.2994 16.7507 30.3115 16.6205C30.3115 16.2183 30.3115 15.8094 30.3115 15.4031C30.3117 15.3377 30.3003 15.2729 30.2779 15.2126C30.2556 15.1523 30.2228 15.0976 30.1814 15.0519C30.1401 15.0062 30.0911 14.9702 30.0373 14.9463C29.9835 14.9223 29.926 14.9108 29.8681 14.9124C29.6204 14.9124 29.3714 14.9124 29.1166 14.9124V14.0705C29.2079 14.0598 29.2908 14.045 29.3738 14.0423C29.5836 14.0423 29.7946 14.0356 30.0045 14.0356C30.6885 14.0356 30.6908 14.0356 31.1188 14.6228C31.1659 14.6898 31.1929 14.772 31.1958 14.8575C31.2014 15.619 31.2014 16.3787 31.1958 17.1366C31.1875 17.2283 31.1576 17.3158 31.1093 17.39C30.9963 17.6113 30.8248 17.7868 30.619 17.8919C30.4131 17.9971 30.1832 18.0264 29.9618 17.9759C29.6782 17.9504 29.3934 17.9477 29.1095 17.9679L29.113 17.1299Z" fill="#151515"/>
<path d="M5.18611 14.049V14.7019C5.18611 15.4916 5.18611 16.2813 5.18611 17.0696C5.19241 17.1458 5.18171 17.2225 5.15499 17.2928C5.12828 17.363 5.0864 17.4246 5.03319 17.4718C5.01345 17.4915 4.99484 17.5125 4.97748 17.5348C4.56968 18.0027 4.41913 18.055 3.80863 17.937V14.049H5.18611Z" fill="#151515"/>
<path d="M23.7892 17.1299C24.0536 17.1299 24.2966 17.1299 24.5396 17.1299C24.6544 17.1146 24.7612 17.056 24.8429 16.9635C24.9247 16.8711 24.9765 16.7503 24.9901 16.6205C24.9901 16.2138 24.9901 15.8076 24.9901 15.4018C24.9818 15.2711 24.9316 15.1484 24.8488 15.0568C24.766 14.9651 24.6565 14.9109 24.5408 14.9044L23.8698 14.887C23.8451 14.882 23.8209 14.8744 23.7975 14.8642V14.0356C24.14 14.054 24.4831 14.0509 24.8253 14.0262C25.2034 13.9793 25.4512 14.1375 25.6764 14.4606C25.8136 14.6344 25.8873 14.8606 25.8827 15.0934C25.8685 15.7638 25.8827 16.4234 25.872 17.0884C25.859 17.2078 25.8181 17.3212 25.7535 17.4168C25.4927 17.8767 25.1252 18.0537 24.638 17.9759C24.354 17.951 24.0688 17.9483 23.7845 17.9679L23.7892 17.1299Z" fill="#151515"/>
<path d="M28.9423 17.1299V17.9679C28.6406 17.9497 28.3381 17.9524 28.0366 17.9759C27.8387 18.0164 27.6345 17.99 27.4498 17.8998C27.265 17.8097 27.1079 17.6598 26.9982 17.4691C26.9056 17.3492 26.8528 17.1966 26.8488 17.0374C26.8567 16.351 26.8567 15.6641 26.8488 14.9768C26.852 14.8192 26.9007 14.6671 26.9875 14.5437C27.0884 14.3495 27.2404 14.1958 27.4224 14.1042C27.6044 14.0126 27.8071 13.9877 28.0023 14.0329C28.2904 14.0603 28.5798 14.0688 28.8688 14.0584C28.8909 14.0636 28.9124 14.0717 28.9328 14.0826V14.9111C28.6732 14.9111 28.4136 14.9111 28.154 14.9111C28.0446 14.9185 27.9414 14.9713 27.8642 15.0594C27.787 15.1474 27.7412 15.2645 27.7355 15.3884C27.7355 15.8031 27.7355 16.2169 27.7355 16.6299C27.7521 16.7555 27.8039 16.8717 27.8833 16.9615C27.9627 17.0513 28.0655 17.1099 28.1765 17.1286C28.4207 17.1313 28.6744 17.1299 28.9423 17.1299Z" fill="#151515"/>
<path d="M8.55513 14.9044C8.20661 14.9044 7.88654 14.9191 7.56766 14.8977C7.38155 14.8856 7.32346 14.9607 7.29027 15.1551C7.14209 16.0252 6.9785 16.898 6.82913 17.7614C6.80305 17.9116 6.75563 17.9746 6.61338 17.9679C6.37629 17.9558 6.12972 17.9679 5.8547 17.9679C5.9116 17.6474 5.96376 17.3619 6.01474 17.0776C6.18307 16.1418 6.35377 15.2141 6.51499 14.2756C6.54226 14.1187 6.59204 14.0437 6.74141 14.045C7.25352 14.045 7.76681 14.0356 8.28248 14.045C8.31318 14.0513 8.34207 14.0659 8.36665 14.0876C8.39123 14.1093 8.41076 14.1375 8.42355 14.1697C8.47334 14.3869 8.50534 14.6135 8.55513 14.9044Z" fill="#151515"/>
<path d="M10.223 17.9625C9.92431 17.9625 9.65048 17.9705 9.37664 17.9545C9.33634 17.9545 9.27588 17.8526 9.26402 17.7882C9.09806 16.8859 8.9404 15.981 8.78036 15.08C8.72109 14.7502 8.66182 14.4191 8.60018 14.0571C8.90247 14.0571 9.1763 14.049 9.44777 14.0665C9.48926 14.0665 9.54734 14.1871 9.56631 14.2595C9.72516 15.1524 9.88282 16.048 10.0464 16.9449C10.1009 17.2761 10.165 17.6072 10.223 17.9625Z" fill="#151515"/>
<path d="M11.0884 14.0544H11.9431V17.9491H11.0884V14.0544Z" fill="#151515"/>
<path d="M17.1756 17.9478C17.1036 17.9687 17.0279 17.9683 16.9561 17.9464C16.8842 17.9246 16.8185 17.8821 16.7655 17.8231C16.5915 17.6818 16.4553 17.4891 16.3717 17.2661C16.288 17.0431 16.2602 16.7985 16.2913 16.5588C16.334 16.0225 16.2913 15.4863 16.3067 14.9419C16.3173 14.8153 16.3583 14.6943 16.4253 14.592C16.5047 14.4579 16.6197 14.352 16.7086 14.2247C16.7584 14.1414 16.8317 14.0796 16.9165 14.0494C17.0013 14.0192 17.0926 14.0224 17.1756 14.0584V17.9478Z" fill="#151515"/>
<path d="M15.3702 14.0544V14.8896H12.1518V14.0544H15.3702Z" fill="#151515"/>
<path d="M15.3679 17.15V17.9545H12.1553V17.15H15.3679Z" fill="#151515"/>
<path d="M17.3807 17.9531V17.1487H20.617V17.9531H17.3807Z" fill="#151515"/>
<path d="M17.3867 14.8655V14.0611H20.6099V14.8655H17.3867Z" fill="#151515"/>
<path d="M15.1557 15.6163V16.4207H12.1518V15.6163H15.1557Z" fill="#151515"/>
<path d="M3.61066 17.15V17.9545C3.55258 17.9545 3.49212 17.9679 3.44115 17.9679C2.81642 17.9679 2.19169 17.9679 1.56697 17.9679C1.46872 17.9596 1.37627 17.9121 1.30617 17.8338C1.13547 17.6273 0.984916 17.3981 0.799988 17.15H3.61066Z" fill="#151515"/>
</svg>
