<svg width="32" height="32" viewBox="0 0 32 32" fill="none" xmlns="http://www.w3.org/2000/svg">
<path d="M6.98561 13.958C5.71243 12.8108 4.76641 12.8315 3.80804 13.5041C3.5694 13.683 3.36616 13.9072 3.20926 14.1648C2.98703 14.513 2.72005 14.4446 2.43763 14.3238C2.18994 14.2204 1.89749 14.129 2.09425 13.7338C2.12589 13.6687 2.06956 13.5581 2.04024 13.3952C2.41371 13.6146 2.59041 13.4158 2.70307 13.1089C2.82499 12.775 2.8111 12.4403 2.54874 12.1962C2.46464 12.1167 2.19765 12.1239 2.1012 12.2042C1.74779 12.4952 1.72079 12.8855 1.93839 13.2982C1.68375 13.2759 1.45612 13.2759 1.2362 13.233C0.750847 13.1392 0.589577 12.6844 0.412874 12.3115C0.347285 12.1732 0.547909 11.8703 0.672913 11.6755C0.833412 11.4227 1.07416 11.2557 1.14746 10.9059C1.19608 10.673 1.49701 10.4575 1.73082 10.312C2.62899 9.7531 3.64137 9.61556 4.65915 9.60124C6.6924 9.5758 8.70172 9.89859 10.5891 10.6348C14.4234 12.135 18.2815 13.6011 21.9321 15.5426C23.784 16.5292 25.5333 17.7313 27.3335 18.8284C27.808 19.1178 28.2865 19.4056 28.7842 19.6481C29.0723 19.7988 29.3931 19.8711 29.716 19.8582C30.0389 19.8453 30.3532 19.7475 30.6291 19.5742C30.7179 19.5217 30.8066 19.4231 30.8946 19.4239C31.1083 19.4239 31.3838 19.4025 31.5119 19.5257C31.6191 19.6243 31.6245 19.955 31.5497 20.1244C31.2842 20.7254 30.778 21.0426 30.1553 21.1054C29.7379 21.1468 29.3143 21.1134 28.9068 21.1134C29.17 21.6508 29.1576 21.7542 28.7656 22.1342C28.4485 22.4411 28.0318 22.4912 27.6329 22.2368C27.4198 22.1141 27.2289 21.9544 27.0688 21.7645C26.0819 20.4551 24.7616 20.2229 23.2678 20.4201C22.6948 20.4992 22.1142 20.5008 21.5409 20.4249C20.2661 20.2428 19.5092 19.346 18.9173 18.2528C18.719 17.8887 18.5107 17.5087 18.2275 17.2193C17.7329 16.7113 17.0739 16.7717 16.4427 16.8416C15.0715 16.9951 13.7042 17.1064 12.3639 16.6294C12.3298 16.6156 12.2933 16.6091 12.2567 16.6103C12.2201 16.6116 12.1841 16.6205 12.1509 16.6365C11.3584 17.2519 10.505 17.046 9.68169 16.786C8.69015 16.4735 7.72175 16.0792 6.74332 15.7199C6.28035 15.5497 6.16769 15.6276 5.89453 16.0418C5.69068 16.3402 5.44039 16.6019 5.15377 16.8162C4.87752 17.0269 4.55112 17.1088 4.2417 16.8114C3.95157 16.5316 3.842 16.1754 4.0187 15.766C4.39603 14.8978 5.0033 14.292 5.94777 14.1202C6.28652 14.059 6.62681 14.0137 6.98561 13.958ZM4.9354 10.1649C3.85511 10.0854 2.87514 10.1395 1.93839 10.537C1.738 10.6232 1.55347 10.7442 1.39284 10.8948C1.33497 10.9496 1.38436 11.1253 1.38436 11.2462C1.47849 11.2136 1.62433 11.2088 1.65983 11.1428C1.90366 10.6833 2.28871 10.6825 2.72236 10.7342C2.48624 11.2398 2.22852 11.4298 1.66137 11.491C1.21846 11.5419 0.937582 11.7892 0.773996 12.2066C0.648992 12.5246 0.855789 12.6923 1.06336 12.814C1.25935 12.9293 1.46383 12.8776 1.58189 12.6415C1.69995 12.4053 1.80412 12.1644 1.93607 11.9402C2.16756 11.5427 2.6043 11.5181 2.89598 11.8695C3.18765 12.2209 3.25247 12.7719 2.99397 13.1614C2.78795 13.4723 2.531 13.7466 2.29256 14.036C2.65986 14.3007 2.75554 14.2824 3.0179 13.9644C3.18843 13.7577 3.3605 13.524 3.5835 13.3968C4.21161 13.039 4.41146 12.5492 4.15451 11.8385C4.1275 11.7637 4.10126 11.6882 4.07734 11.6127L4.18306 11.5387C4.3968 11.8059 4.59742 12.0865 4.82968 12.3338C4.98717 12.5091 5.17178 12.6563 5.376 12.7695C5.89916 13.043 6.44239 13.2775 6.97095 13.5414C7.15593 13.6483 7.33474 13.7662 7.50646 13.8944L7.44088 13.0112C7.88688 13.9859 8.68397 14.4867 9.56594 14.9049C9.25729 14.8445 8.94864 14.7809 8.68397 14.641C7.93009 14.2435 7.14071 14.2085 6.31893 14.2816C5.42924 14.3611 4.76332 14.7746 4.32504 15.5767C4.09895 15.9902 4.14216 16.4211 4.46702 16.6898C4.5519 16.759 4.68847 16.7613 4.80113 16.7947C4.42998 16.3225 4.38137 16.0895 4.62211 15.7381C4.65607 16.1786 4.83817 16.5061 5.11904 16.4592C5.32121 16.4258 5.55116 16.1969 5.65918 15.9941C5.94777 15.4376 6.14685 15.312 6.72712 15.4837C7.54042 15.7222 8.34754 15.9981 9.16315 16.2167C9.74342 16.3758 10.3376 16.5348 10.9302 16.5586C11.8693 16.5912 12.2628 15.9798 11.948 15.0671C11.8014 14.6426 11.5884 14.2427 11.3785 13.7728C12.5089 14.5925 13.7343 14.9725 15.0399 15.1307C14.0283 15.2969 13.0568 15.0568 12.0915 14.7658C12.1879 15.0775 12.3577 15.3597 12.3384 15.6284C12.3021 16.1317 12.5838 16.2581 12.9472 16.3575C13.0344 16.3813 13.1201 16.4076 13.2065 16.4314C14.6433 16.821 16.087 16.5109 17.6194 16.4839L17.1241 15.7191C17.301 15.7851 17.4598 15.8942 17.587 16.0371C18.0462 16.6357 18.5369 17.2177 18.9235 17.8657C19.7484 19.245 20.841 20.0361 22.4784 19.8747C23.027 19.8214 23.5834 19.8437 24.1366 19.8445C24.9522 19.8445 25.6799 20.0902 26.2625 20.7055C26.4693 20.9234 26.6776 21.1404 26.8991 21.3416C27.1676 21.5856 27.4323 21.8424 27.7324 22.038C27.9863 22.2018 28.2872 22.2487 28.5588 22.0579L27.7494 21.8043C27.9624 21.7446 28.156 21.8122 28.3358 21.7852C28.5156 21.7582 28.6977 21.6357 28.876 21.5546C28.7734 21.3956 28.7062 21.1738 28.5635 21.0943C27.8605 20.7008 27.3852 20.0751 26.9238 19.4414C26.514 18.8785 25.9739 18.6726 25.3226 18.6575C24.8218 18.6456 24.3195 18.609 23.821 18.5836C23.2986 18.5573 22.9198 18.2838 22.6767 17.8259C22.4336 17.368 22.2346 16.9021 22.0139 16.4386C22.2797 16.6851 22.5131 16.9662 22.7083 17.2749C23.0872 17.8529 23.5841 18.229 24.2701 18.3172C24.5248 18.349 24.7794 18.3864 25.034 18.4158C25.7532 18.4953 26.4716 18.5597 26.9562 19.2435C27.1591 19.5305 27.4191 19.7753 27.6607 20.0321C28.4585 20.8781 29.4354 21.1293 30.5203 20.8463C30.8089 20.7715 31.0736 20.5282 31.2974 20.3024C31.3892 20.2118 31.3444 19.9749 31.3614 19.8048C31.2001 19.792 30.9972 19.7078 30.8838 19.7769C30.035 20.2993 29.2178 20.122 28.4377 19.6577C26.7471 18.6551 25.1189 17.5397 23.3881 16.6111C19.4999 14.5233 15.3455 13.0843 11.2512 11.5093C10.9564 11.3956 10.63 11.3686 10.2519 11.2867C10.3715 11.5006 10.4487 11.6214 10.5089 11.751C10.5691 11.8806 10.6115 12.0126 10.6987 12.2432C9.46872 11.0236 8.0659 10.4599 6.51646 10.2373C5.82817 10.1427 5.21087 10.3295 4.65066 10.851C5.39053 11.1433 5.99895 11.7079 6.35828 12.4356C5.61366 11.879 4.85129 11.3805 3.93768 11.173C3.77255 11.1349 3.62903 10.983 3.4801 10.8844C4.07734 10.8582 4.58276 10.7795 4.9354 10.1649ZM12.6185 11.697C9.92784 10.467 7.10985 9.73958 4.0349 9.83419C4.49094 9.9932 4.95237 9.78092 5.29034 10.1188C6.99333 9.7849 8.49801 10.4146 9.96642 11.2994L9.87382 10.9242L12.6185 11.697Z" fill="#151515"/>
</svg>
