<svg width="32" height="32" viewBox="0 0 32 32" fill="none" xmlns="http://www.w3.org/2000/svg">
<path d="M23.5156 13.1376C24.2317 13.1376 24.8953 13.1376 25.6016 13.1376C25.6316 13.327 25.6602 13.5073 25.6695 13.5657C26.3349 13.3597 26.9691 13.0369 27.6247 12.9881C28.8081 12.9 29.7583 13.6456 30.1476 14.8136C30.5167 15.9211 30.4821 17.0342 30.0363 18.1136C29.3445 19.789 27.5225 20.3071 25.9939 19.2855C25.9301 19.2428 25.861 19.2077 25.7024 19.1159C25.7024 19.9731 25.7024 20.7643 25.7024 21.5999C24.9307 21.5999 24.2383 21.5999 23.5155 21.5999C23.5156 18.7861 23.5156 15.9888 23.5156 13.1376ZM25.5688 16.4821C25.5843 16.4855 25.5999 16.489 25.6154 16.4925C25.6302 16.749 25.6255 17.0082 25.6635 17.2614C25.7602 17.9072 26.1958 18.297 26.836 18.3361C27.395 18.3701 27.9176 18.056 28.0174 17.4441C28.1262 16.7772 28.1372 16.0757 28.0569 15.4045C27.9915 14.8578 27.508 14.5973 26.9562 14.5575C26.4063 14.5178 26.0032 14.7913 25.821 15.2754C25.6776 15.6561 25.6486 16.0782 25.5688 16.4821Z" fill="#151515"/>
<path d="M1.61587 15.359C2.38209 15.359 3.08402 15.359 3.87561 15.359C3.87561 15.7357 3.86463 16.0853 3.8778 16.4341C3.90757 17.2219 4.44469 17.7123 5.24616 17.6976C6.0774 17.6824 6.5867 17.2103 6.59036 16.4172C6.59866 14.6353 6.59329 12.8532 6.59341 11.0713C6.59341 10.859 6.59341 10.6467 6.59341 10.3999C7.37805 10.3999 8.09779 10.3999 8.81155 10.3999C8.84156 10.4408 8.88437 10.4717 8.88437 10.5027C8.88498 12.6401 8.92988 14.7789 8.86229 16.9143C8.81984 18.2601 7.73487 19.2846 6.19853 19.4814C5.46916 19.5749 4.69318 19.5462 3.96991 19.4113C2.50506 19.138 1.7708 18.2938 1.62344 16.8541C1.5755 16.3861 1.61587 15.9096 1.61587 15.359Z" fill="#151515"/>
<path d="M15.9823 16.6957C15.1457 16.6957 14.4404 16.6957 13.735 16.6957C13.0306 16.6957 12.3263 16.6957 11.578 16.6957C11.5487 17.2992 11.6473 17.7913 12.1756 18.063C12.6899 18.3274 13.1872 18.2496 13.6219 17.8428C13.7284 17.7431 13.8826 17.637 14.0186 17.6321C14.6394 17.6096 15.2616 17.6223 15.8803 17.6223C15.9169 18.5908 14.5232 19.537 13.3254 19.6444C11.8582 19.7758 10.5449 19.5009 9.81342 18.1039C9.05098 16.6477 9.27276 15.2122 10.2389 13.9246C11.041 12.8555 12.215 12.7463 13.4631 12.9545C14.7576 13.1705 15.4835 13.9577 15.7763 15.1555C15.8913 15.6269 15.9086 16.121 15.9823 16.6957ZM13.8389 15.4514C13.8744 14.6913 13.4285 14.2007 12.7247 14.1984C12.0469 14.1961 11.649 14.6708 11.7068 15.4514C12.4159 15.4514 13.128 15.4514 13.8389 15.4514Z" fill="#151515"/>
<path d="M23.0043 16.7043C21.4816 16.7043 20.0702 16.7043 18.6458 16.7043C18.5419 17.2855 18.6554 17.7552 19.1456 18.0363C19.6725 18.3385 20.1819 18.245 20.654 17.851C20.8036 17.7261 21.0318 17.6415 21.2293 17.6307C21.7728 17.6012 22.319 17.6206 23.0934 17.6206C22.7465 18.114 22.5498 18.5488 22.2192 18.8368C20.797 20.076 18.275 19.9478 17.1655 18.6213C15.9407 17.1568 16.2636 14.5169 17.8054 13.3901C19.6478 12.0439 22.4586 13.1514 22.8488 15.3831C22.9196 15.7875 22.9462 16.199 23.0043 16.7043ZM20.8975 15.447C20.8361 14.6312 20.3675 14.1658 19.6957 14.2C19.0253 14.2342 18.6961 14.6386 18.7142 15.447C19.4292 15.447 20.1459 15.447 20.8975 15.447Z" fill="#151515"/>
</svg>
