<svg width="32" height="32" viewBox="0 0 32 32" fill="none" xmlns="http://www.w3.org/2000/svg">
<path fill-rule="evenodd" clip-rule="evenodd" d="M3.73642 14.4008C4.02461 14.4 4.31285 14.4008 4.60104 14.4031C4.61062 14.407 4.61723 14.4139 4.62089 14.424C4.62385 15.3741 4.62385 16.3242 4.62089 17.2743C4.59782 17.4521 4.50298 17.5598 4.33636 17.5974C2.98649 17.6005 1.63661 17.6005 0.286739 17.5974C0.118252 17.5593 0.0234078 17.4501 0.00220678 17.2696C-0.000735593 16.9767 -0.000735593 16.6838 0.00220678 16.3908C0.00465508 16.3767 0.0127411 16.3682 0.0264692 16.3653C0.316511 16.3607 0.606187 16.3622 0.895506 16.3699C0.899181 16.3738 0.90286 16.3777 0.906534 16.3815C0.908003 16.5644 0.909477 16.7473 0.910946 16.9302C0.913152 16.9325 0.915357 16.9349 0.917563 16.9372C1.84689 16.9403 2.77621 16.9403 3.70554 16.9372C3.70774 16.9349 3.70995 16.9325 3.71216 16.9302C3.71362 16.0933 3.7151 15.2563 3.71657 14.4194C3.72273 14.4121 3.72935 14.4059 3.73642 14.4008Z" fill="#151515"/>
<path fill-rule="evenodd" clip-rule="evenodd" d="M5.73476 14.4008C7.15853 14.3985 8.5819 14.4008 10.005 14.4077C10.0102 14.4119 10.0139 14.4174 10.016 14.424C10.0189 14.6302 10.0189 14.8363 10.016 15.0424C10.0123 15.0494 10.0072 15.0548 10.0005 15.0587C8.78155 15.0603 7.56252 15.0618 6.34353 15.0634C6.33837 15.0657 6.33471 15.0696 6.3325 15.075C6.32955 15.2687 6.32955 15.4625 6.3325 15.6562C6.33413 15.6605 6.33634 15.6643 6.33912 15.6678C7.4802 15.6694 8.62124 15.6709 9.76233 15.6725C9.77023 15.6761 9.77684 15.6815 9.78218 15.6887C9.78514 15.8964 9.78514 16.1041 9.78218 16.3118C9.78055 16.3161 9.77834 16.3199 9.77556 16.3234C8.63192 16.3296 7.48788 16.3327 6.34353 16.3327C6.33837 16.335 6.33471 16.3389 6.3325 16.3443C6.32955 16.5381 6.32955 16.7318 6.3325 16.9256C6.33413 16.9298 6.33634 16.9337 6.33912 16.9372C7.55811 16.9387 8.77714 16.9403 9.99613 16.9418C10.0057 16.9457 10.0123 16.9527 10.016 16.9628C10.0204 17.1724 10.0189 17.3816 10.0116 17.5905C10.0083 17.5934 10.0046 17.5957 10.0005 17.5974C8.56981 17.6005 7.13903 17.6005 5.7083 17.5974C5.5711 17.5682 5.48067 17.4837 5.437 17.344C5.42914 17.3136 5.42473 17.2826 5.42376 17.251C5.42081 16.4172 5.42081 15.5833 5.42376 14.7495C5.44357 14.5496 5.54724 14.4334 5.73476 14.4008Z" fill="#151515"/>
<path fill-rule="evenodd" clip-rule="evenodd" d="M10.8431 14.4008C12.3945 14.4 13.9458 14.4008 15.4971 14.4031C15.5059 14.4058 15.5125 14.4112 15.5169 14.4194C15.5199 14.6286 15.5199 14.8378 15.5169 15.0471C15.5133 15.051 15.5096 15.0548 15.5059 15.0587C14.8808 15.0595 14.2559 15.0618 13.6311 15.0657C13.6289 15.906 13.6252 16.746 13.6201 17.5858C13.6164 17.5897 13.6127 17.5936 13.609 17.5974C13.3164 17.6005 13.0238 17.6005 12.7312 17.5974C12.7224 17.5913 12.7173 17.5828 12.7157 17.5719C12.715 16.7365 12.7128 15.9011 12.7091 15.0657C12.0843 15.0618 11.4594 15.0595 10.8343 15.0587C10.8306 15.0548 10.8269 15.051 10.8233 15.0471C10.8203 14.8378 10.8203 14.6286 10.8233 14.4194C10.8273 14.4096 10.8339 14.4034 10.8431 14.4008Z" fill="#151515"/>
<path fill-rule="evenodd" clip-rule="evenodd" d="M16.6308 14.4008C18.0116 14.4 19.3923 14.4008 20.7731 14.4031C20.9438 14.4281 21.046 14.5296 21.0797 14.7077C21.0826 15.5694 21.0826 16.4311 21.0797 17.2929C21.0584 17.43 20.9871 17.5253 20.8657 17.5788C20.8442 17.5872 20.8222 17.5934 20.7995 17.5974C19.4026 17.6005 18.0057 17.6005 16.6088 17.5974C16.4462 17.5609 16.3514 17.4563 16.3242 17.2836C16.3213 16.428 16.3213 15.5725 16.3242 14.717C16.3439 14.5846 16.4108 14.4893 16.5249 14.431C16.5597 14.4164 16.5949 14.4064 16.6308 14.4008ZM17.244 15.061C18.2174 15.0603 19.1909 15.061 20.1643 15.0634C20.1665 15.0657 20.1687 15.068 20.1709 15.0703C20.1739 15.6918 20.1739 16.3133 20.1709 16.9349C19.1927 16.9411 18.214 16.9411 17.2352 16.9349C17.23 16.3135 17.2293 15.692 17.233 15.0703C17.2373 15.0677 17.241 15.0646 17.244 15.061Z" fill="#151515"/>
<path fill-rule="evenodd" clip-rule="evenodd" d="M21.9068 14.4008C22.195 14.4 22.4832 14.4008 22.7714 14.4031C22.781 14.407 22.7876 14.4139 22.7913 14.424C22.7927 15.261 22.7942 16.0979 22.7957 16.9349C23.2578 16.938 23.7203 16.9395 24.183 16.9395C24.6458 16.9395 25.1083 16.938 25.5704 16.9349C25.5719 16.0979 25.5734 15.261 25.5748 14.424C25.5785 14.4139 25.5851 14.407 25.5947 14.4031C25.8862 14.3985 26.1773 14.4 26.4681 14.4077C26.4718 14.4116 26.4755 14.4155 26.4792 14.4194C26.4821 15.3788 26.4821 16.3381 26.4792 17.2975C26.4567 17.4325 26.3853 17.5263 26.2652 17.5788C26.2437 17.5872 26.2217 17.5934 26.199 17.5974C24.855 17.6005 23.5111 17.6005 22.1671 17.5974C22.0456 17.5725 21.9595 17.5005 21.909 17.3812C21.8982 17.3527 21.8908 17.3233 21.8869 17.2929C21.884 16.335 21.884 15.3772 21.8869 14.4194C21.8931 14.4121 21.8997 14.4059 21.9068 14.4008Z" fill="#151515"/>
<path fill-rule="evenodd" clip-rule="evenodd" d="M27.3063 14.4008C28.7488 14.4 30.1913 14.4008 31.6338 14.4031C31.7801 14.4224 31.8779 14.5053 31.9272 14.6519C31.9333 14.6763 31.9377 14.7011 31.9404 14.7262C31.9434 15.1432 31.9434 15.5601 31.9404 15.977C31.9148 16.1544 31.8185 16.2605 31.6515 16.2955C31.1927 16.2971 30.7339 16.2986 30.2751 16.3002C30.8368 16.7062 31.3986 17.1123 31.9603 17.5184C31.9743 17.5286 31.9868 17.5402 31.9978 17.5533C32.0035 17.5727 31.9983 17.5874 31.9823 17.5974C31.775 17.5982 31.5677 17.599 31.3603 17.5998C31.1483 17.6005 30.9366 17.5982 30.7251 17.5928C29.8818 16.9829 29.0385 16.373 28.1952 15.7631C28.1952 16.3726 28.1922 16.9817 28.1863 17.5905C28.183 17.5934 28.1794 17.5957 28.1753 17.5974C27.8827 17.6005 27.5901 17.6005 27.2975 17.5974C27.2922 17.5932 27.2885 17.5878 27.2864 17.5812C27.2835 16.5272 27.2835 15.4733 27.2864 14.4194C27.2926 14.4121 27.2992 14.4059 27.3063 14.4008ZM28.2018 15.061C29.1414 15.0603 30.081 15.061 31.0206 15.0634C31.0247 15.0651 31.0284 15.0674 31.0317 15.0703C31.0346 15.2563 31.0346 15.4423 31.0317 15.6283C31.0295 15.6306 31.0273 15.6329 31.0251 15.6353C30.0825 15.6384 29.14 15.6384 28.1974 15.6353C28.1923 15.4473 28.1915 15.259 28.1952 15.0703C28.1983 15.0678 28.2006 15.0647 28.2018 15.061Z" fill="#151515"/>
</svg>
