<svg width="32" height="32" viewBox="0 0 32 32" fill="none" xmlns="http://www.w3.org/2000/svg">
<g clip-path="url(#clip0_17_1415)">
<path d="M9.99949 14.8192H9.65986C8.6431 14.8192 7.62634 14.8303 6.6101 14.8109C6.36387 14.8067 6.34477 14.9424 6.34105 15.1992C6.33787 15.4706 6.38245 15.5862 6.61594 15.582C7.58813 15.5661 8.56084 15.591 9.53462 15.5675C9.84188 15.5598 9.78881 15.7959 9.80261 16.0319C9.81853 16.3088 9.74955 16.4154 9.52295 16.4113C8.56774 16.3947 7.61254 16.4113 6.65733 16.3953C6.42278 16.3912 6.34211 16.4576 6.33893 16.7878C6.33256 17.1519 6.46045 17.1651 6.67272 17.163C7.68099 17.154 8.68927 17.1589 9.69754 17.1589H9.96606C9.99153 17.2163 10.0069 17.235 10.008 17.2551C10.0526 17.9902 10.052 17.9902 9.49164 17.9902C8.31568 17.9902 7.13989 17.9902 5.96428 17.9902C5.55036 17.9902 5.44051 17.8559 5.43838 17.3257C5.43414 16.4147 5.43414 15.5038 5.43838 14.5928C5.43838 14.1381 5.53178 14.0169 5.88149 14.0148C7.13635 14.0079 8.39227 14.0042 9.64925 14.0038C10.0276 14.0038 10.0281 14.0038 10.0207 14.4883C10.0128 14.5838 10.0059 14.6745 9.99949 14.8192Z" fill="#151515"/>
<path d="M30.3899 16.4369L32 17.8905L31.9666 17.9971C31.4359 17.9009 30.8867 18.1709 30.3682 17.633C29.7006 16.9408 28.9662 16.3587 28.2041 15.6782V17.9708H27.3285V14.0252C27.4214 14.0197 27.5073 14.0107 27.5938 14.01C28.8841 14.01 30.174 14.01 31.4635 14.01C31.8758 14.01 31.9591 14.1201 31.9623 14.66C31.9623 15.0282 31.9687 15.3972 31.9623 15.7675C31.9549 16.2271 31.8657 16.3427 31.5187 16.3497C31.2364 16.3545 30.9535 16.3497 30.6696 16.3497H30.399C30.3974 16.3787 30.3937 16.4078 30.3899 16.4369ZM29.6433 14.8199C29.2288 14.8199 28.8139 14.8316 28.3994 14.815C28.1686 14.806 28.1967 14.9978 28.2009 15.1798C28.2052 15.3619 28.1505 15.564 28.3899 15.564C29.2108 15.555 30.0312 15.5508 30.8516 15.5592C31.1048 15.5592 31.0432 15.3418 31.0528 15.1591C31.0628 14.9514 31.0528 14.8046 30.8368 14.813C30.4377 14.833 30.0402 14.8192 29.6433 14.8199Z" fill="#151515"/>
<path d="M18.7269 14.0114C19.3637 14.0114 20.0005 14.0114 20.6341 14.0114C21.0019 14.0114 21.0809 14.1221 21.0815 14.6088C21.0815 15.5419 21.0815 16.4747 21.0815 17.4074C21.0815 17.8296 20.9844 17.9826 20.6612 17.9853C19.3632 17.9964 18.0651 17.9978 16.7671 17.9895C16.4662 17.9895 16.3373 17.7985 16.3362 17.406C16.3362 16.4613 16.3362 15.5167 16.3362 14.5721C16.3362 14.1374 16.4286 14.0183 16.7639 14.0135C17.4198 14.0079 18.0731 14.0121 18.7269 14.0114ZM20.1958 14.8171C19.2347 14.8171 18.3183 14.8136 17.4023 14.8254C17.3664 14.8386 17.3337 14.8636 17.3073 14.898C17.2809 14.9324 17.2617 14.9751 17.2516 15.022C17.2399 15.6658 17.2399 16.31 17.2516 16.9546C17.2617 17.0011 17.2808 17.0433 17.307 17.0774C17.3332 17.1115 17.3656 17.1362 17.4013 17.1492C18.2744 17.1612 19.1475 17.1612 20.0207 17.1492C20.0796 17.1492 20.1868 17.0356 20.1878 16.9733C20.2 16.2742 20.1958 15.5744 20.1958 14.8171Z" fill="#151515"/>
<path d="M25.6007 14.0335H26.4794C26.4874 14.1547 26.4991 14.2557 26.4991 14.3568C26.4991 15.3598 26.4991 16.3642 26.4964 17.3665C26.4964 17.8199 26.3781 17.9895 26.0438 17.9895C24.8055 17.9964 23.5673 17.9964 22.3291 17.9895C22.0351 17.9895 21.9114 17.8123 21.9104 17.4357C21.9072 16.3974 21.9104 15.3591 21.9051 14.3208C21.9051 14.1048 21.9438 14.0114 22.1248 14.0128C22.9738 14.0197 22.7913 13.8653 22.8077 14.8489C22.8189 15.483 22.8194 16.1185 22.8035 16.7518C22.7955 17.0564 22.8486 17.1755 23.1065 17.1672C23.8494 17.1429 24.5924 17.1478 25.3353 17.1672C25.5439 17.1713 25.6107 17.1021 25.6065 16.8211C25.5927 16.0146 25.6028 15.2068 25.6033 14.3983L25.6007 14.0335Z" fill="#151515"/>
<path d="M3.70999 17.1388V14.0508H4.60682C4.61213 14.1526 4.62327 14.2626 4.62327 14.3727C4.62327 15.3635 4.62327 16.3543 4.62327 17.3451C4.62327 17.8407 4.52192 17.9867 4.13824 17.9867C2.91912 17.9937 1.70017 17.9937 0.481398 17.9867C0.109929 17.9867 0.00379476 17.822 8.00714e-05 17.3319V17.2627C-0.000981268 16.4106 -0.00098125 16.4196 0.662356 16.4286C0.84809 16.4286 0.927691 16.5075 0.899565 16.7463C0.858173 17.082 0.965368 17.1734 1.21797 17.1658C1.95135 17.1443 2.68474 17.1561 3.41759 17.1561C3.50409 17.1561 3.59006 17.1464 3.70999 17.1388Z" fill="#151515"/>
<path d="M13.1596 14.0079C13.867 14.0079 14.5744 14.0231 15.2823 14.0003C15.5583 13.9913 15.5413 14.1851 15.5476 14.4322C15.5556 14.6967 15.52 14.8358 15.2791 14.8247C14.8116 14.8026 14.3425 14.8247 13.8744 14.813C13.6887 14.8067 13.6309 14.8822 13.6335 15.1279C13.6436 15.9586 13.6303 16.7892 13.642 17.6199C13.6457 17.8967 13.5964 18.004 13.3655 17.9999C12.7415 17.9888 12.7415 17.9999 12.7415 17.181C12.7415 16.5241 12.7277 15.8658 12.7473 15.2103C12.7569 14.8773 12.6661 14.8012 12.4289 14.8143C11.9879 14.8386 11.5448 14.8053 11.1022 14.8289C10.8634 14.842 10.821 14.7098 10.8326 14.4426C10.8427 14.2066 10.8045 13.9975 11.0905 14.0079C11.7804 14.0342 12.4703 14.0169 13.1602 14.0169L13.1596 14.0079Z" fill="#151515"/>
</g>
<defs>
<clipPath id="clip0_17_1415">
<rect width="32" height="32" fill="white"/>
</clipPath>
</defs>
</svg>
