<svg width="32" height="32" viewBox="0 0 32 32" fill="none" xmlns="http://www.w3.org/2000/svg">
<path d="M28.9875 10.4001C29.1165 10.4001 29.2456 10.4001 29.3741 10.4065C30.1533 10.4643 30.6006 11.158 30.3115 11.8604C30.2217 12.0645 30.0964 12.252 29.941 12.4147C27.6366 14.9722 25.3328 17.5304 23.0297 20.0893C22.1285 21.0911 20.9971 21.5969 19.6284 21.5981C17.2699 21.5981 14.9108 21.6027 12.55 21.5981C11.2175 21.5946 10.1046 21.1038 9.21892 20.1298C8.93063 19.8118 8.64372 19.4927 8.35821 19.1725C8.28504 19.0892 8.1518 19.0204 8.21188 18.8834C8.27196 18.7464 8.4165 18.7927 8.52773 18.7927C10.5002 18.7904 12.4726 18.7904 14.4451 18.7927C14.9406 18.7927 15.4361 18.7927 15.9322 18.7927C16.612 18.7869 17.1968 18.5522 17.6471 18.0568C18.9396 16.6347 20.2209 15.2034 21.5075 13.779C21.6128 13.6634 21.6806 13.5414 21.6039 13.3871C21.5331 13.2443 21.4034 13.2177 21.2553 13.2183C20.7104 13.2183 20.165 13.2183 19.6201 13.2183C14.1786 13.2183 8.73711 13.2196 3.29562 13.2223C3.08029 13.2223 2.92861 13.1749 2.78823 13.005C2.50985 12.6674 2.21125 12.3442 1.90907 12.0257C1.6069 11.7072 1.51113 11.3563 1.68958 10.9603C1.87398 10.551 2.22255 10.4001 2.67283 10.4001C6.7367 10.4044 10.8014 10.4044 14.8668 10.4001H28.9875Z" fill="#151515"/>
</svg>
