<svg width="32" height="32" viewBox="0 0 32 32" fill="none" xmlns="http://www.w3.org/2000/svg">
<path d="M30.4 10.4001C29.3394 10.9909 28.2809 11.5857 27.2176 12.1724C25.8566 12.9253 24.4913 13.6748 23.1216 14.4208C23.0144 14.4798 22.9099 14.545 22.7484 14.6413L24.9569 15.2157L16.0433 21.6001L7.06857 15.2157L9.30314 14.6379C9.14711 14.5504 9.04676 14.492 8.94435 14.4344C6.59865 13.1584 4.25272 11.8815 1.90656 10.6036C1.80002 10.5426 1.70173 10.468 1.6 10.4001H5.85127C5.9126 10.4275 5.97548 10.4512 6.0396 10.4714C9.28894 11.283 12.539 12.0913 15.7897 12.8961C15.9871 12.9372 16.1915 12.9316 16.3863 12.8798C18.7091 12.3051 21.0296 11.7239 23.3478 11.1361C24.2826 10.8993 25.2153 10.6457 26.1494 10.4001H30.4ZM11.0373 15.4911C11.0761 15.5273 11.1174 15.5606 11.1611 15.5908C12.7289 16.421 14.2954 17.2532 15.8701 18.0705C15.9711 18.1227 16.1553 18.1004 16.2639 18.0434C17.7761 17.2525 19.2807 16.4502 20.7867 15.6485C20.8554 15.6105 20.9207 15.5576 21.0163 15.4918L18.6387 14.7213L27.4444 11.1354L27.419 11.0031C26.6429 11.0764 25.8326 11.0336 25.0971 11.2446C22.1628 12.0856 19.2546 13.008 16.3306 13.8898C16.1495 13.943 15.9569 13.9451 15.7746 13.8959C13.3619 13.1765 10.9526 12.448 8.54637 11.7105C7.32701 11.3375 6.12208 10.9007 4.80787 11.0743C4.7302 11.0845 4.65184 11.0913 4.49787 11.1082L13.4293 14.722L11.0373 15.4911Z" fill="#151515"/>
</svg>
