<svg width="32" height="32" viewBox="0 0 32 32" fill="none" xmlns="http://www.w3.org/2000/svg">
<path d="M15.9806 22.471C14.9694 22.471 13.9476 22.4182 12.9443 22.3227C11.7132 22.2055 10.4946 21.9391 9.26925 21.7475C7.34505 21.4467 5.53178 20.773 3.83233 19.785C2.69066 19.1214 1.62811 18.299 1.16115 16.9135C0.882928 16.0879 0.964159 15.2577 1.41108 14.4841C2.05469 13.37 3.00631 12.6374 4.06238 12.0595C6.28726 10.8419 8.67553 10.2359 11.1411 9.86058C13.5534 9.49333 15.9661 9.42081 18.3867 9.57879C20.3769 9.7087 22.3459 10.014 24.2791 10.5742C25.5924 10.9548 26.8745 11.4211 28.0655 12.115C29.1706 12.7589 30.2115 13.5211 30.7516 14.8241C31.1158 15.7028 31.0797 16.5671 30.642 17.4122C30.0592 18.5374 29.1162 19.2329 28.1023 19.8314C26.6085 20.7133 25.0019 21.2877 23.3394 21.6536C22.1773 21.9094 20.997 22.0937 19.8166 22.2258C18.5429 22.3683 17.2597 22.4128 15.9806 22.5C15.9791 22.4474 15.9821 22.5236 15.9806 22.471ZM21.0361 10.6764C21.0729 10.8668 21.0818 10.9494 21.105 11.0272C21.4307 12.1221 21.1647 13.1275 20.5876 14.0156C20.1428 14.7003 19.607 15.3328 19.0398 15.907C18.1284 16.8297 17.0326 17.4753 15.8392 17.8627C14.9796 18.1418 14.0813 18.3464 13.1879 18.4281C11.8998 18.5459 10.6004 18.5219 9.30581 18.5591C9.03584 18.5668 8.99188 18.4069 9.07833 18.1828C9.15652 17.98 9.27314 17.7944 9.35352 17.5924C9.6821 16.7658 9.98808 15.9285 10.3304 15.1085C10.936 13.6582 11.5626 12.2178 12.1766 10.7714C12.2014 10.713 12.1876 10.6358 12.1939 10.5334C11.3481 10.68 10.5322 10.7646 9.74462 10.9725C8.82256 11.216 7.92138 11.5543 7.0181 11.8741C5.86512 12.2824 4.81622 12.9002 3.92744 13.7928C3.35804 14.3647 2.93965 15.0454 2.92274 15.9196C2.90044 17.071 3.51778 17.8643 4.29134 18.5312C5.28848 19.3908 6.44793 19.928 7.64713 20.385C8.03145 20.5315 8.2173 20.4733 8.3188 20.0414C8.37509 19.802 8.55478 19.7135 8.80541 19.75C9.43124 19.8414 10.0593 19.9542 10.6885 19.9712C11.9697 20.0056 13.2548 20.0362 14.5334 19.9668C15.6483 19.9064 16.7704 19.8339 17.8423 19.3946C18.6866 19.0485 19.1116 18.3447 18.9596 17.3871C18.9329 17.2185 18.9072 16.9856 18.9893 16.8724C19.3423 16.3857 19.7906 15.9624 20.3764 15.9201C21.0583 15.8709 21.7489 15.9537 22.4352 15.9911C22.5242 15.9959 22.6548 16.047 22.6888 16.1186C22.8173 16.3892 22.5125 16.9015 22.2226 16.9667C21.8809 17.0434 21.5443 17.1459 21.138 17.2554C22.3178 18.3311 22.8953 19.4724 21.8769 21.0037C22.082 20.9872 22.2136 21.0032 22.3281 20.9633C23.443 20.5753 24.5759 20.2335 25.6615 19.7663C26.5953 19.3645 27.4446 18.7751 28.1462 17.9704C29.279 16.671 29.1817 15.0376 28.0387 13.7751C27.0647 12.6992 25.8228 12.0767 24.5275 11.5829C23.8496 11.3245 23.1506 11.1237 22.4521 10.9353C22.0093 10.8161 21.5497 10.7676 21.0361 10.6764ZM10.6876 17.2099C10.8945 17.1316 10.9883 17.1007 11.0787 17.0611C11.8684 16.7155 12.5387 16.1857 13.0899 15.4962C13.9383 14.4351 14.7219 13.3267 15.0828 11.9494C15.2059 11.4796 15.1113 11.1161 14.8069 10.8704C14.5733 10.6819 13.6458 10.5389 13.461 10.669C13.4207 10.6974 13.3916 10.7517 13.3693 10.8003C13.2328 11.0981 13.0931 11.3944 12.9666 11.6971C12.4888 12.8409 12.015 13.9867 11.5412 15.1325C11.2716 15.7845 11.0047 16.4378 10.6876 17.2099Z" fill="#151515"/>
</svg>
