<svg width="32" height="32" viewBox="0 0 32 32" fill="none" xmlns="http://www.w3.org/2000/svg">
<path d="M15.3767 8.80005C19.1373 8.85022 22.1833 9.25111 25.0851 10.4312C26.6105 11.0516 28.0345 11.8381 29.1517 13.0785C29.7824 13.7786 30.2451 14.5701 30.367 15.5204C30.5411 16.8771 30.011 17.9932 29.124 18.971C28.0099 20.1991 26.5897 20.9747 25.0756 21.5938C23.0154 22.4361 20.8577 22.8753 18.6457 23.0751C15.7814 23.3336 12.9394 23.2018 10.1282 22.5789C7.97383 22.1017 5.92658 21.3638 4.11523 20.0726C3.47138 19.6137 2.89714 19.0833 2.43703 18.4377C1.28298 16.8186 1.32369 14.9964 2.5505 13.4267C3.42534 12.3072 4.57903 11.5433 5.83292 10.9155C7.75362 9.95374 9.8036 9.39608 11.9249 9.11828C13.283 8.9404 14.6546 8.86442 15.3767 8.80005ZM16.3896 22.9556C16.8731 22.9277 17.7205 22.8972 18.5645 22.8266C20.7365 22.6447 22.8558 22.2163 24.8828 21.4014C26.2857 20.8373 27.6059 20.1312 28.681 19.0455C30.5196 17.1888 30.5497 15.0296 28.7683 13.1209C28.0099 12.3082 27.088 11.7162 26.1005 11.2222C23.42 9.88149 20.54 9.3411 17.5751 9.16941C15.7374 9.06299 13.9039 9.13957 12.0803 9.40336C9.91076 9.71714 7.81123 10.2649 5.85528 11.2746C4.68153 11.8805 3.60211 12.6134 2.80881 13.6928C2.17163 14.5597 1.84783 15.519 2.02733 16.6012C2.18563 17.5556 2.68063 18.337 3.35107 19.0171C4.44636 20.1281 5.78949 20.8544 7.22451 21.4208C10.0495 22.5359 13.0068 22.9212 16.3896 22.9556Z" fill="#151515"/>
<path d="M16.5559 22.6367C13.0215 22.5996 10.1015 22.2351 7.31236 21.1344C5.94295 20.5939 4.65307 19.9153 3.60879 18.8541C2.77351 18.0053 2.23204 17.0265 2.32685 15.7915C2.40112 14.824 2.87262 14.0433 3.52301 13.3563C4.51125 12.3124 5.74309 11.6346 7.05647 11.0909C9.22949 10.1912 11.5082 9.75107 13.8467 9.57884C16.4484 9.38724 19.0307 9.51724 21.5813 10.0759C23.7562 10.5523 25.8319 11.2755 27.626 12.641C28.1991 13.0771 28.6941 13.5897 29.0668 14.2091C29.843 15.4992 29.8066 16.7793 28.9892 18.0338C28.2409 19.1824 27.1419 19.9221 25.9462 20.5358C23.9494 21.5608 21.8069 22.1138 19.5905 22.3841C18.4005 22.5291 17.1994 22.585 16.5559 22.6367ZM15.3372 13.4003C15.3545 13.4043 15.3718 13.4082 15.3892 13.4122C15.4289 13.7057 15.469 13.9992 15.5078 14.2929C15.5171 14.3625 15.5221 14.4325 15.5287 14.5024C15.5954 15.2013 15.5954 15.1928 16.2901 15.2003C16.5071 15.2026 16.6102 15.1361 16.6807 14.9276C16.9761 14.054 17.2903 13.1867 17.5976 12.3171C17.6829 12.0758 17.7681 11.8344 17.861 11.5715C17.5306 11.5715 17.242 11.5715 16.9686 11.5715C16.7622 12.1448 16.563 12.698 16.3638 13.2511C16.2495 12.8039 16.1788 12.3615 16.1485 11.9163C16.1301 11.6457 16.0526 11.516 15.7553 11.5492C15.5275 11.5746 15.2945 11.5542 15.0854 11.5542C14.6577 12.7719 14.2405 13.9597 13.8154 15.1701C14.1545 15.1701 14.4596 15.1701 14.7221 15.1701C14.9346 14.5589 15.1359 13.9796 15.3372 13.4003ZM12.1052 19.6356C11.8486 19.1579 11.618 18.7286 11.3844 18.2937C12.1685 18.0533 12.5411 17.6245 12.5663 16.9633C12.5841 16.4977 12.3897 16.1412 11.9331 16.0707C11.3162 15.9753 10.6823 15.988 10.1616 15.9599C9.73152 17.2461 9.33435 18.4341 8.93489 19.6288C9.27117 19.6288 9.61133 19.6288 9.94742 19.6288C10.093 19.2274 10.2345 18.8372 10.3959 18.3922C10.5885 18.7851 10.7444 19.1211 10.9194 19.4468C10.9624 19.5269 11.0651 19.6215 11.1461 19.627C11.4551 19.6482 11.7663 19.6356 12.1052 19.6356ZM22.9796 16.0258C22.5555 17.2464 22.1418 18.4373 21.7256 19.6352C22.0828 19.6352 22.4327 19.6352 22.7688 19.6352C22.9094 19.2338 23.0436 18.8507 23.2 18.4042C23.3862 18.7942 23.5409 19.1281 23.7061 19.4568C23.742 19.5284 23.8127 19.6321 23.8717 19.635C24.2154 19.652 24.5604 19.6433 24.9328 19.6433C24.7876 19.3806 24.6698 19.172 24.5562 18.961C24.4391 18.7433 24.3262 18.5234 24.2086 18.2993C24.9544 18.0942 25.2766 17.7531 25.3697 17.0951C25.454 16.4983 25.184 16.0893 24.5848 16.0364C24.0261 15.987 23.4596 16.0258 22.9796 16.0258ZM18.6282 11.5667C18.2033 12.7968 17.7935 13.9833 17.3735 15.1994C17.7737 15.1994 18.1559 15.1875 18.5372 15.2015C20.1634 15.2615 20.9693 14.0696 21.0878 12.8587C21.1587 12.1339 20.7559 11.6218 20.0505 11.5732C19.5598 11.5394 19.0649 11.5667 18.6282 11.5667ZM14.7128 15.8233C14.39 15.9473 14.0388 16.0258 13.7501 16.2042C13.0439 16.6406 12.7585 17.3449 12.6936 18.1315C12.6471 18.694 12.797 19.2136 13.3197 19.5361C13.8584 19.8685 14.4181 19.7939 14.9224 19.4851C15.7259 18.9929 16.1051 18.231 16.0579 17.3066C16.0071 16.3165 15.574 15.8903 14.7128 15.8233ZM10.1195 15.1926C10.4219 15.1926 10.6718 15.1793 10.9196 15.1968C11.1217 15.2112 11.233 15.1474 11.3088 14.9553C11.3497 14.8518 11.4642 14.7134 11.5561 14.7049C11.8838 14.6745 12.2161 14.693 12.5601 14.693C12.5601 14.8758 12.5601 15.0215 12.5601 15.1771C12.9036 15.1771 13.2325 15.1771 13.5541 15.1771C13.5012 13.9601 13.4489 12.7572 13.3968 11.5582C13.0617 11.5582 12.7308 11.5582 12.4731 11.5582C11.683 12.7782 10.9209 13.9551 10.1195 15.1926ZM22.431 16.0243C21.6373 16.0243 20.9055 16.0243 20.2217 16.0243C19.7818 17.2472 19.3537 18.4371 18.9151 19.6562C19.6473 19.6562 20.3625 19.6592 21.0777 19.6507C21.1387 19.65 21.2311 19.5852 21.2536 19.5286C21.3412 19.3082 21.4064 19.0791 21.4903 18.8213C21.0628 18.8213 20.6746 18.8213 20.283 18.8213C20.3869 18.2451 20.3869 18.2449 20.9135 18.2453C21.0347 18.2454 21.1573 18.2588 21.2764 18.2439C21.3454 18.2353 21.447 18.1982 21.4683 18.1471C21.565 17.9142 21.6385 17.6718 21.7331 17.3953C21.3859 17.3953 21.0986 17.3953 20.7928 17.3953C20.8129 17.3122 20.8303 17.2558 20.8398 17.1982C20.891 16.8841 21.0491 16.737 21.3926 16.7835C21.6372 16.8166 21.8901 16.7899 22.1564 16.7899C22.2447 16.5436 22.3316 16.3014 22.431 16.0243ZM16.4291 19.6547C16.64 19.6547 16.8221 19.6415 17.0013 19.6581C17.2149 19.678 17.3505 19.6121 17.4696 19.4234C17.6888 19.0758 17.9402 18.748 18.1823 18.4149C18.7631 17.6161 19.3462 16.8191 19.9343 16.0131C19.5512 16.0131 19.1628 16.0131 18.8299 16.0131C18.374 16.7308 17.939 17.4156 17.4684 18.1564C17.4684 17.3955 17.4684 16.7111 17.4684 16.0216C17.118 16.0216 16.7704 16.0216 16.4291 16.0216C16.4291 17.233 16.4291 18.4224 16.4291 19.6547ZM10.0087 11.5682C9.62278 11.5682 9.24675 11.5682 8.94119 11.5682C8.51161 12.7984 8.09724 13.9848 7.67494 15.1943C8.35126 15.1943 9.0157 15.1974 9.68009 15.1894C9.74503 15.1886 9.84432 15.1341 9.8674 15.0795C9.95942 14.8619 10.0276 14.6343 10.1189 14.3691C9.72679 14.3691 9.38021 14.3691 8.99014 14.3691C9.33865 13.4107 9.67215 12.4937 10.0087 11.5682ZM24.3368 12.9376C23.5883 12.9376 22.8851 12.9359 22.1819 12.9412C22.1324 12.9416 22.0541 12.9825 22.0388 13.023C21.9498 13.2591 21.8756 13.5007 21.7812 13.7865C22.2118 13.7865 22.5774 13.7865 22.943 13.7865C22.5665 13.9779 22.1773 14.1051 21.805 14.2699C21.6675 14.3308 21.5698 14.4803 21.4539 14.5894C21.4787 14.622 21.5035 14.6546 21.5283 14.6873C22.334 14.4133 23.1404 14.141 23.9441 13.8614C24.0008 13.8417 24.0603 13.776 24.0812 13.7183C24.1692 13.4761 24.243 13.2288 24.3368 12.9376ZM8.91011 16.5073C8.88248 16.4715 8.85486 16.4358 8.82724 16.4C8.03066 16.672 7.23361 16.9425 6.43868 17.2193C6.37973 17.2398 6.31115 17.2961 6.29062 17.3516C6.2015 17.5926 6.12863 17.8395 6.03315 18.1359C6.78495 18.1359 7.48587 18.1376 8.18672 18.1321C8.23524 18.1318 8.31121 18.0885 8.32708 18.0471C8.41765 17.8114 8.49386 17.5702 8.58879 17.2901C8.13965 17.2901 7.75339 17.2901 7.36713 17.2901C7.75872 17.0905 8.16588 16.9587 8.55983 16.7955C8.69366 16.74 8.79428 16.6057 8.91011 16.5073Z" fill="#151515"/>
<path d="M10.6583 17.5573C10.731 17.3176 10.7754 17.1335 10.846 16.96C10.8695 16.9022 10.9625 16.8318 11.0195 16.8353C11.1991 16.8464 11.4406 16.7985 11.4802 17.0591C11.5147 17.2865 11.3711 17.4429 11.1595 17.5049C11.0201 17.5457 10.8663 17.5377 10.6583 17.5573Z" fill="#151515"/>
<path d="M23.4743 17.6078C23.5388 17.3936 23.5923 17.2641 23.6151 17.1295C23.6528 16.9067 23.7794 16.8117 23.9897 16.8712C24.097 16.9015 24.2785 17.0235 24.2688 17.0533C24.2171 17.2112 24.1474 17.3958 24.022 17.4879C23.9015 17.5764 23.7054 17.5631 23.4743 17.6078Z" fill="#151515"/>
<path d="M18.683 14.3246C18.8955 13.7043 19.0976 13.0987 19.316 12.4988C19.3407 12.431 19.4655 12.3458 19.5294 12.3562C19.6661 12.3785 19.816 12.4332 19.9162 12.5232C19.9825 12.5828 20.0173 12.7418 19.9878 12.8305C19.8537 13.2328 19.7312 13.6476 19.5271 14.0154C19.3691 14.3001 19.0495 14.3917 18.683 14.3246Z" fill="#151515"/>
<path d="M13.7691 18.2321C13.7875 17.7532 13.8889 17.3496 14.1656 17.0092C14.302 16.8414 14.4706 16.7091 14.713 16.7817C14.9599 16.8557 15.0544 17.0725 15.019 17.2762C14.9448 17.703 14.8172 18.1216 14.6935 18.5381C14.6681 18.6239 14.5729 18.6986 14.494 18.7575C14.2028 18.9749 13.8906 18.8625 13.8041 18.5102C13.7782 18.4045 13.7763 18.293 13.7691 18.2321Z" fill="#151515"/>
<path d="M12.5336 13.8356C12.3533 13.8356 12.1857 13.8356 11.9561 13.8356C12.1442 13.5147 12.316 13.2216 12.5336 12.8505C12.5336 13.2252 12.5336 13.5125 12.5336 13.8356Z" fill="#151515"/>
</svg>
