<svg width="32" height="32" viewBox="0 0 32 32" fill="none" xmlns="http://www.w3.org/2000/svg">
<path d="M17.4495 6C18.2386 6.11535 19.0283 6.22704 19.8165 6.3481C20.1077 6.39286 20.3978 6.4505 20.6844 6.51896C21.3978 6.68913 21.543 7.09845 21.1005 7.68032C19.6725 9.55759 18.1994 11.4021 16.8292 13.3212C15.8548 14.686 15.0096 16.1451 14.1302 17.5767C13.9995 17.7894 13.9418 18.0844 13.9499 18.3381C13.9624 18.7252 14.2055 18.9544 14.6104 18.9629C14.8634 18.9682 15.1168 18.9672 15.3699 18.9672C19.0134 18.9675 22.6569 18.9623 26.3003 18.9758C26.6303 18.977 26.8046 18.8698 26.9572 18.5854C27.6552 17.2835 27.675 15.9029 27.463 14.4918C27.0475 11.726 25.3692 9.90297 23.0714 8.54841C22.6487 8.2992 22.2117 8.07438 21.7812 7.83839C22.2846 6.93271 22.2873 6.92657 23.2094 7.32711C25.8702 8.48284 27.9408 10.2615 29.0186 13.0396C30.0518 15.7026 29.6666 18.2267 28.1912 20.6227C27.9316 21.0444 27.5849 21.2352 27.0757 21.2342C22.5601 21.2248 18.0445 21.241 13.5289 21.228C12.9015 21.2262 12.2569 21.1781 11.6507 21.0273C9.93387 20.6005 9.1859 19.2404 9.75986 17.558C9.98951 16.8849 10.3229 16.2209 10.7327 15.6414C12.5837 13.0235 14.481 10.4389 16.3532 7.83609C16.4659 7.67947 16.5057 7.46957 16.5793 7.28448C16.3788 7.21849 16.177 7.0912 15.9781 7.09572C13.32 7.15531 10.7882 7.70479 8.53153 9.19372C6.52343 10.5186 5.08709 12.3065 4.63303 14.7173C4.12384 17.4206 4.98047 19.7541 6.87636 21.6917C8.443 23.2929 10.423 24.1044 12.5823 24.4877C15.6791 25.0373 18.7405 24.9101 21.7321 23.8594C22.8824 23.4554 23.9398 22.8774 24.8768 22.084C24.9771 21.999 25.1153 21.9129 25.2382 21.9093C25.8532 21.8916 26.4689 21.9012 27.1451 21.9997C26.6862 22.3986 26.247 22.824 25.7646 23.1918C23.941 24.5825 21.8464 25.3355 19.6142 25.6914C16.5263 26.1838 13.4467 26.1129 10.4141 25.2907C7.85077 24.5957 5.61303 23.3525 4.03574 21.1273C1.36684 17.3619 2.0257 12.378 5.56069 9.30284C7.5621 7.56182 9.92643 6.67472 12.4965 6.26029C13.132 6.15781 13.7724 6.08594 14.4105 6C15.4235 6 16.4365 6 17.4495 6Z" fill="#151515"/>
</svg>
