<svg width="32" height="32" viewBox="0 0 32 32" fill="none" xmlns="http://www.w3.org/2000/svg">
<path d="M16.0232 26.4001C11.8327 26.2811 7.98151 25.186 4.94522 22.0227C1.52324 18.4518 1.56094 13.4019 5.00322 9.86371C7.24201 7.5813 9.99409 6.3523 13.0594 5.85535C16.9802 5.22151 20.7443 5.73929 24.2504 7.73306C25.7625 8.56619 27.0666 9.74652 28.061 11.182C30.4013 14.6369 30.0504 18.8595 27.1591 21.9335C24.5752 24.6771 21.3127 25.9091 17.6878 26.2989C17.1368 26.3584 16.5829 26.3674 16.0232 26.4001ZM7.54651 22.0198C7.89451 22.3173 8.0627 22.487 8.2512 22.6149C12.346 25.7127 18.7115 25.9508 23.0034 23.1565C25.7033 21.371 27.4404 18.9904 27.2983 15.5355C27.2248 13.9638 26.6385 12.463 25.6337 11.2742C24.7289 14.5476 22.7337 16.7616 20.1237 18.4994L20.2339 18.6601H22.9831L22.6699 19.1749H18.4621L23.0817 10.2297L24.4621 10.1643C24.1354 9.70184 23.7236 9.30958 23.2499 9.00967C19.1697 6.47133 14.8893 6.19458 10.5132 8.05147C7.79881 9.20309 5.74852 11.1225 4.92782 14.1369C4.31592 16.3866 4.79732 18.4399 6.16321 20.4783L11.5282 10.2506H15.9739C15.9888 10.4119 15.9888 10.5743 15.9739 10.7356C15.4606 13.2234 14.5384 15.5088 12.5142 17.1246C11.0932 18.2584 9.5765 19.2701 8.1004 20.3325C7.90611 20.4753 7.70311 20.6092 7.50591 20.7461L7.57551 20.9098H12.0328L11.4528 22.0198H7.54651Z" fill="#151515"/>
<path d="M14.7588 19.4487H18.1721L17.6588 20.4545H12.3315L17.6704 10.2178H21.652C20.8052 14.4643 17.9198 16.9996 14.637 19.2196L14.7588 19.4487Z" fill="#151515"/>
</svg>
