<svg width="32" height="32" viewBox="0 0 32 32" fill="none" xmlns="http://www.w3.org/2000/svg">
<path d="M12.916 16.2023C12.6453 16.1638 12.3873 16.1302 12.1301 16.0878C12.084 16.0804 12.0433 16.0364 12 16.0092C12.0436 15.9769 12.084 15.9248 12.1314 15.9167C12.3882 15.8727 12.6466 15.8401 12.9178 15.8016C12.9351 15.5105 12.9533 15.2256 12.9683 14.942C13.0787 12.8765 13.1888 10.8107 13.2985 8.74459C13.3911 7.01244 13.4841 5.28029 13.5773 3.54814C13.587 3.36541 13.6049 3.18269 13.6049 2.99835C13.6049 2.87966 13.6544 2.84635 13.7598 2.82791C14.4133 2.71343 15.0655 2.59151 15.7181 2.47217C15.7695 2.46279 15.82 2.44888 15.8818 2.43433L15.9109 2H15.9643C15.9737 2.13389 15.9831 2.2681 15.9937 2.41687C16.3305 2.47961 16.6679 2.54246 17.006 2.60541C17.4167 2.68141 17.8272 2.76065 18.2393 2.82856C18.3481 2.84667 18.3879 2.88774 18.3939 3.00158C18.4566 4.23893 18.5218 5.47627 18.5895 6.71361C18.6905 8.58009 18.792 10.4466 18.894 12.313C18.9517 13.3835 19.0025 14.4543 19.063 15.5244C19.0818 15.8582 19.0317 15.798 19.3399 15.8407C19.5158 15.8653 19.693 15.8841 19.8674 15.9167C19.9153 15.9258 19.9561 15.9762 20 16.0076C19.9523 16.0357 19.9059 16.0807 19.8561 16.0894C19.64 16.1256 19.4224 16.1577 19.2045 16.1784C19.1032 16.1881 19.0768 16.2295 19.0718 16.3284C19.0405 16.9752 19.0016 17.6194 18.9668 18.265C18.8633 20.1638 18.7606 22.0626 18.6588 23.9614C18.5792 25.4458 18.5009 26.9306 18.424 28.4156C18.4111 28.6569 18.3945 28.8978 18.3794 29.1462L15.9934 29.5864C15.9828 29.7322 15.9733 29.8661 15.9621 30H15.9087C15.8985 29.9092 15.893 29.8178 15.8921 29.7264C15.8959 29.6139 15.8711 29.5586 15.7454 29.5369C15.0869 29.424 14.4299 29.2953 13.7714 29.1789C13.6554 29.1582 13.608 29.1197 13.6014 28.9877C13.476 26.5398 13.3468 24.0922 13.2139 21.6449C13.1302 20.0958 13.0466 18.5465 12.963 16.9972C12.9517 16.734 12.9332 16.472 12.916 16.2023ZM16.0144 28.8383C16.5622 28.7381 17.0916 28.6443 17.6193 28.5392C17.6569 28.5317 17.7059 28.4557 17.7087 28.4098C17.8153 26.517 17.9188 24.6239 18.0191 22.7305C18.1207 20.8479 18.2218 18.9655 18.3224 17.0832C18.3358 16.8271 18.3474 16.5706 18.3609 16.2958L16.4713 16.5532C16.32 20.6496 16.1677 24.7447 16.0144 28.8383ZM18.36 15.7081C18.36 15.6593 18.36 15.6383 18.36 15.6176C18.2732 14.0197 18.1863 12.4219 18.0991 10.8241C17.9695 8.41968 17.8414 6.01506 17.715 3.61023C17.7093 3.49898 17.6679 3.46146 17.5713 3.44853C17.4114 3.42459 17.2524 3.39193 17.0931 3.36315L16.022 3.16911C16.022 3.26031 16.0194 3.33469 16.022 3.40907C16.1302 6.30613 16.2386 9.20329 16.3471 12.1006C16.3863 13.1558 16.4262 14.2114 16.4585 15.267C16.4632 15.4154 16.5061 15.4733 16.6526 15.483C16.8658 15.4973 17.0775 15.5361 17.2897 15.5649L18.36 15.7081ZM15.8166 28.806C15.8166 28.3995 15.8288 28.0072 15.8147 27.6159C15.7311 25.2895 15.6445 22.9634 15.555 20.6375C15.5061 19.3238 15.4592 18.0099 15.4142 16.6958C15.4102 16.5771 15.3703 16.5412 15.2622 16.5289C15.0132 16.5011 14.7658 16.4587 14.5174 16.4241C14.2295 16.3844 13.9417 16.3465 13.6369 16.3055C13.6479 16.5208 13.6573 16.7129 13.6682 16.905C13.7855 19.0889 13.903 21.2729 14.0207 23.4572C14.1093 25.0979 14.1977 26.7387 14.2857 28.3794C14.2913 28.4887 14.3133 28.5385 14.4299 28.5554C14.709 28.5951 14.9849 28.6556 15.2625 28.7064C15.455 28.742 15.6485 28.7759 15.8166 28.806ZM14.2945 3.47666C14.0749 7.55641 13.8554 11.6197 13.6359 15.6939C13.682 15.6907 13.7118 15.69 13.7416 15.6861C14.238 15.6173 14.7341 15.5429 15.2317 15.4817C15.3672 15.4649 15.4111 15.4135 15.4161 15.2725C15.496 13.0009 15.5791 10.7293 15.6654 8.45773C15.7281 6.78379 15.7908 5.10985 15.8536 3.43591C15.8567 3.35765 15.8536 3.27971 15.8536 3.18851L14.2945 3.47666Z" fill="#151515"/>
</svg>
