<svg width="32" height="32" viewBox="0 0 32 32" fill="none" xmlns="http://www.w3.org/2000/svg">
<path fill-rule="evenodd" clip-rule="evenodd" d="M16.2567 4.7205L18.0778 8.62638C18.3344 9.17666 18.3344 9.81273 18.0778 10.3618L13.222 20.773C13.1206 20.9912 12.8114 20.9912 12.7099 20.773L11.1847 17.502C10.741 16.5497 10.741 15.4504 11.1847 14.4981L15.7446 4.7205C15.8461 4.50235 16.1553 4.50235 16.2567 4.7205ZM13.9223 21.6383L18.778 11.2271C18.8794 11.0089 19.1886 11.0089 19.29 11.2271L20.8153 14.4982C21.259 15.4504 21.259 16.5498 20.8153 17.502L16.2554 27.2796C16.154 27.4977 15.8447 27.4977 15.7433 27.2796L13.9223 23.3737C13.6656 22.8246 13.6656 22.1886 13.9223 21.6383Z" fill="#151515"/>
</svg>
