<svg width="32" height="32" viewBox="0 0 32 32" fill="none" xmlns="http://www.w3.org/2000/svg">
<path d="M2.40002 10.8468H2.67419C5.07766 10.8468 7.48065 10.851 9.88364 10.8421C10.089 10.8421 10.1912 10.9056 10.2868 11.0757C10.9373 12.2438 11.5953 13.4076 12.2608 14.5673C12.4182 14.8376 12.5965 15.0956 12.7944 15.3392C13.4205 16.1152 14.2999 16.339 15.2528 16.3671C15.9367 16.3867 16.6212 16.3736 17.3066 16.3885C17.3978 16.3885 17.5311 16.4455 17.5712 16.5161C18.4429 18.0444 19.3036 19.5788 20.1662 21.1122C20.1726 21.1329 20.1768 21.1542 20.1786 21.1758C20.1442 21.1843 20.109 21.1899 20.0736 21.1926C17.5512 21.1898 15.0288 21.1926 12.5063 21.18C9.91421 21.1664 7.91435 20.0446 6.49624 17.9598C5.79316 16.9259 5.1942 15.8227 4.57089 14.736C3.86398 13.5128 3.18383 12.2718 2.49269 11.0365C2.46689 10.9902 2.44779 10.9402 2.40002 10.8468Z" fill="#151515"/>
<path d="M15.4195 10.8047H15.6998C18.301 10.8047 20.9024 10.8032 23.5039 10.8C23.6983 10.8 23.7977 10.8617 23.8884 11.0239C24.7128 12.4975 25.5425 13.9686 26.3774 15.4373C26.3999 15.4775 26.4199 15.5195 26.4567 15.5915C26.3612 15.5971 26.2876 15.6055 26.2126 15.6055C23.5796 15.6055 20.9465 15.6055 18.3135 15.6055C18.1912 15.6055 18.0923 15.6055 18.0183 15.4723C17.1754 13.9647 16.3292 12.4587 15.4796 10.9542C15.4568 10.9055 15.4367 10.8556 15.4195 10.8047Z" fill="#151515"/>
<path d="M18.5499 16.3713H18.8092C21.4203 16.3713 24.0301 16.37 26.6387 16.3675C26.8192 16.3675 26.919 16.4142 27.0093 16.5754C27.8323 18.0495 28.6662 19.519 29.4964 20.9889C29.526 21.0421 29.5508 21.0977 29.6 21.1954H29.322C26.711 21.1954 24.1011 21.1969 21.4926 21.2C21.3073 21.2 21.2122 21.1435 21.1244 20.9851C20.3152 19.5297 19.4961 18.0794 18.6808 16.6278C18.6397 16.5544 18.6043 16.4787 18.5499 16.3713Z" fill="#151515"/>
</svg>
