<svg width="32" height="32" viewBox="0 0 32 32" fill="none" xmlns="http://www.w3.org/2000/svg">
<g clip-path="url(#clip0_17_1454)">
<path d="M11.2767 16.2828C11.2787 16.2443 11.2804 16.2261 11.2804 16.2077C11.2804 15.4179 11.28 14.628 11.279 13.8382C11.279 13.7781 11.2964 13.7629 11.3564 13.7637C11.6177 13.7668 11.8791 13.765 12.1406 13.765C12.2267 13.765 12.2269 13.765 12.2269 13.8485C12.2269 15.0215 12.2272 16.1944 12.2278 17.3674C12.2278 17.6885 12.2275 18.0095 12.2267 18.3306C12.2267 18.3491 12.2244 18.3676 12.2223 18.4001L9.29636 15.635C9.29245 15.652 9.28959 15.6691 9.28779 15.6864C9.28612 16.4613 9.28454 17.2361 9.28304 18.011C9.28304 18.0196 9.28304 18.028 9.28304 18.0366C9.27883 18.1274 9.27883 18.1285 9.18565 18.1287C8.95724 18.1287 8.72884 18.1278 8.5003 18.1287C8.45377 18.1287 8.4344 18.117 8.4344 18.0673C8.43572 16.5861 8.4362 15.1049 8.43585 13.6237C8.4375 13.6158 8.43957 13.6079 8.44204 13.6001L11.2767 16.2828Z" fill="#151515"/>
<path d="M28.9891 14.8858L28.4091 14.4211C28.5134 14.3419 28.6039 14.2652 28.7023 14.1997C29.0053 13.9959 29.3596 13.8765 29.7271 13.8545C30.243 13.8215 30.7068 13.9625 31.1196 14.2605C31.3879 14.4541 31.5951 14.7015 31.7488 14.9906C31.9399 15.3502 32.0176 15.7355 31.9967 16.136C31.9805 16.4443 31.9028 16.7409 31.7455 17.0101C31.4292 17.5512 30.972 17.9227 30.3439 18.0743C30.0906 18.1354 29.8326 18.1391 29.5736 18.1054C29.2799 18.0665 28.9986 17.9653 28.7494 17.8091C28.5198 17.6655 28.3204 17.4805 28.1619 17.264C27.9452 16.9725 27.8184 16.6464 27.7573 16.2936C27.7495 16.2489 27.7615 16.2327 27.8108 16.2333C28.0194 16.2354 28.228 16.2354 28.4367 16.2333C28.4851 16.2326 28.5042 16.2534 28.5125 16.2936C28.5784 16.6105 28.741 16.8715 28.9887 17.0844C29.1521 17.2245 29.3395 17.3263 29.5518 17.3715C29.7376 17.4114 29.9297 17.415 30.117 17.3822C30.3199 17.3476 30.5115 17.2661 30.6755 17.1447C30.8559 17.0144 31.0012 16.8434 31.0989 16.6464C31.212 16.4174 31.273 16.1793 31.258 15.9255C31.2439 15.6673 31.1613 15.4169 31.0181 15.1992C30.844 14.9307 30.6045 14.7479 30.304 14.6419C30.0771 14.5609 29.831 14.5456 29.5953 14.5979C29.3669 14.6461 29.17 14.7449 28.9891 14.8858Z" fill="#151515"/>
<path d="M17.4784 13.8485C17.4614 13.8764 17.4426 13.9033 17.4222 13.929C17.0889 14.2919 16.755 14.6544 16.4206 15.0165C16.2202 15.2349 16.0219 15.4546 15.8211 15.6724C15.7973 15.6981 15.7948 15.7152 15.8164 15.7433C16.019 16.0115 16.2208 16.2802 16.4219 16.5494C16.6335 16.832 16.8448 17.1152 17.0556 17.3991C17.1986 17.5905 17.3425 17.7811 17.4851 17.9726C17.5171 18.0155 17.5457 18.0609 17.582 18.1138C17.5556 18.1161 17.5375 18.1191 17.5195 18.1191C17.1813 18.1191 16.8432 18.1191 16.5046 18.1201C16.4555 18.1201 16.4281 18.1033 16.3992 18.063C16.0679 17.6014 15.7332 17.142 15.3996 16.682C15.3266 16.5813 15.2547 16.4804 15.177 16.3738C15.0497 16.5112 14.9328 16.6469 14.805 16.7719C14.7287 16.8466 14.7168 16.9282 14.718 17.0259C14.7222 17.3639 14.7193 17.7021 14.7192 18.0405C14.7192 18.0637 14.7192 18.0869 14.7192 18.1164H13.8403C13.8382 18.0916 13.8347 18.069 13.8347 18.0464C13.8347 17.5841 13.8354 17.1217 13.8368 16.6594C13.8367 16.6304 13.8467 16.6023 13.8651 16.5796C14.2616 16.1591 14.6592 15.7395 15.0579 15.321C15.3587 15.0042 15.6592 14.687 15.9597 14.3694C16.0978 14.2234 16.2354 14.077 16.3724 13.9302C16.3932 13.9057 16.4195 13.8862 16.4492 13.8732C16.4789 13.8602 16.5112 13.854 16.5438 13.855C16.8398 13.855 17.136 13.8486 17.432 13.8448C17.4425 13.8441 17.4533 13.8462 17.4784 13.8485Z" fill="#151515"/>
<path d="M26.2652 14.3398C26.1148 14.5059 25.9672 14.6667 25.8227 14.8301C25.7872 14.8703 25.7568 14.871 25.7186 14.8398C25.5779 14.7258 25.4147 14.6527 25.2399 14.6086C25.0429 14.5592 24.8375 14.5497 24.6366 14.5808C24.3465 14.6216 24.0773 14.7515 23.8682 14.9515C23.652 15.1514 23.5047 15.4117 23.4464 15.6964C23.3931 15.9459 23.4089 16.2047 23.4922 16.4462C23.5621 16.6495 23.6783 16.823 23.8257 16.9821C23.9998 17.17 24.2113 17.2933 24.4559 17.3656C24.6613 17.4264 24.871 17.4338 25.0845 17.4041C25.2861 17.3775 25.4784 17.3051 25.646 17.1929C25.7566 17.1186 25.8533 17.0236 25.9501 16.9317C25.9879 16.8958 26.0144 16.8897 26.0529 16.9209C26.1789 17.0227 26.3052 17.1245 26.4317 17.2261C26.4568 17.2464 26.4832 17.2654 26.5094 17.2846C26.5654 17.3253 26.5698 17.3462 26.5226 17.3975C26.2326 17.7098 25.8881 17.941 25.469 18.0575C24.9096 18.2131 24.3674 18.1622 23.8551 17.8981C23.3037 17.6137 22.9389 17.1741 22.7612 16.5881C22.6535 16.2366 22.6423 15.8637 22.7287 15.5066C22.8507 14.9935 23.1338 14.5758 23.569 14.2585C23.8135 14.0801 24.0942 13.9546 24.3925 13.8905C24.6653 13.8316 24.9473 13.8247 25.2228 13.8702C25.6115 13.9313 25.9535 14.0938 26.2652 14.3398Z" fill="#151515"/>
<path d="M1.05438 13.8681C1.05438 13.9214 1.05438 13.9701 1.05438 14.0186C1.05596 14.9176 1.0575 15.8163 1.059 16.7145C1.059 16.8984 1.059 17.0824 1.05359 17.2667C1.05175 17.3289 1.07428 17.341 1.13267 17.3408C1.75845 17.339 2.38475 17.3397 3.01 17.3397H3.08697V18.0962C3.05257 18.0994 3.01659 18.1059 2.98061 18.1059C2.4007 18.1074 1.82105 18.1085 1.24167 18.1091C0.934446 18.1099 0.627094 18.1132 0.319873 18.1141C0.240795 18.1141 0.161716 18.1059 0.0826372 18.1078C0.0209558 18.1093 0 18.091 0.000131798 18.0273C0.00224056 17.1331 0.00267989 16.2388 0.00144978 15.3444C0.00131798 14.8754 0.00237236 14.4069 0 13.9382C0 13.8801 0.0152885 13.862 0.0767063 13.8626C0.377469 13.8656 0.678231 13.8639 0.978994 13.8641C1.00048 13.8641 1.02183 13.8663 1.05438 13.8681Z" fill="#151515"/>
<path d="M3.51544 13.7891C3.55103 13.7862 3.57146 13.783 3.59202 13.7829C3.89067 13.7829 4.18946 13.784 4.48824 13.7813C4.50992 13.7801 4.53151 13.7848 4.55065 13.7948C4.5698 13.8047 4.58578 13.8196 4.59684 13.8378C4.77521 14.091 4.95349 14.3442 5.13168 14.5973C5.4103 14.9942 5.68866 15.3912 5.96675 15.7884C6.1583 16.0624 6.3494 16.3363 6.54007 16.6103C6.54901 16.6242 6.55393 16.6403 6.5543 16.6567C6.56195 17.1274 6.56814 17.5982 6.57631 18.0694C6.5771 18.1156 6.55852 18.1282 6.51463 18.1281C6.24453 18.1268 5.97439 18.1268 5.70421 18.1281C5.64767 18.1281 5.62895 18.1088 5.62921 18.0527C5.63141 17.6525 5.63141 17.2523 5.62921 16.852C5.62869 16.8121 5.61673 16.7732 5.59468 16.7395C5.26519 16.2701 4.93425 15.8026 4.60396 15.3341C4.31515 14.9244 4.02673 14.5145 3.73871 14.1043C3.66727 14.003 3.59544 13.9023 3.51544 13.7891Z" fill="#151515"/>
<path d="M19.3115 16.4197C19.2401 16.3298 19.1623 16.2375 19.0917 16.1405C18.8615 15.8242 18.9032 15.4055 19.1867 15.1478C19.4149 14.9402 19.6848 14.8839 19.9775 14.9947C20.3302 15.1284 20.5065 15.4442 20.4699 15.8012C20.4529 15.9663 20.3686 16.1086 20.2459 16.2241C20.1579 16.3067 20.0641 16.3831 19.9679 16.4665L20.5044 17.0504C20.5628 17.0018 20.6194 16.9528 20.6783 16.9067C20.6958 16.8915 20.7177 16.8818 20.741 16.8791C20.9255 16.8773 21.1101 16.8791 21.2946 16.8791C21.2979 16.8791 21.3012 16.8834 21.3105 16.8898C21.2963 16.9052 21.2831 16.9207 21.2686 16.9349C21.1321 17.068 20.9963 17.2021 20.8579 17.333C20.8184 17.37 20.8197 17.3964 20.8561 17.4346C21.0186 17.6051 21.179 17.7775 21.3394 17.9498C21.3548 17.9663 21.3657 17.9872 21.3884 18.0212C21.315 18.0212 21.2566 18.0212 21.1989 18.0212C21.0957 18.0212 20.9921 18.0155 20.8894 18.022C20.8057 18.0274 20.7547 17.9873 20.7077 17.9306C20.6474 17.858 20.5867 17.7857 20.5247 17.7144C20.4967 17.6821 20.4762 17.7068 20.4542 17.726C20.3709 17.7983 20.2921 17.8769 20.202 17.9399C19.9635 18.1069 19.6988 18.1394 19.4217 18.0531C19.0776 17.9458 18.8502 17.7279 18.7822 17.3733C18.7344 17.1235 18.8062 16.9022 18.9799 16.7183C19.0809 16.6111 19.1996 16.5193 19.3115 16.4197ZM19.6138 16.7417C19.5291 16.8091 19.4457 16.8646 19.3765 16.9336C19.2936 17.0158 19.2315 17.1086 19.2334 17.2369C19.2371 17.5143 19.5053 17.6909 19.7798 17.633C19.9356 17.6001 20.0492 17.4821 20.1591 17.3724C20.1673 17.3643 20.1627 17.3317 20.1525 17.321C19.9757 17.1287 19.7973 16.9383 19.6138 16.7417ZM19.6778 16.1539C19.7051 16.1268 19.7338 16.1011 19.7637 16.0768C19.8543 16.0106 19.9468 15.9484 20.0102 15.8523C20.0375 15.8135 20.0557 15.7692 20.0634 15.7227C20.0711 15.6762 20.0681 15.6287 20.0546 15.5834C20.0051 15.4143 19.7794 15.2822 19.6 15.3465C19.4462 15.4014 19.3125 15.5665 19.376 15.7425C19.4365 15.9097 19.5588 16.0274 19.6774 16.1539H19.6778Z" fill="#151515"/>
</g>
<defs>
<clipPath id="clip0_17_1454">
<rect width="32" height="32" fill="white"/>
</clipPath>
</defs>
</svg>
