<svg width="32" height="32" viewBox="0 0 32 32" fill="none" xmlns="http://www.w3.org/2000/svg">
<path d="M15.6772 29.5934C15.5576 29.5744 15.437 29.5598 15.3186 29.5374C14.997 29.4923 14.6784 29.4276 14.3646 29.3437C13.9536 29.2114 13.552 29.0512 13.1627 28.8643C12.6878 28.631 12.246 28.3353 11.849 27.985C11.5539 27.7381 11.2734 27.4741 11.009 27.1943C10.694 26.8516 10.3991 26.4887 10.1154 26.1179C9.69413 25.5467 9.3269 24.9374 9.01845 24.2979C8.67909 23.6314 8.39514 22.938 8.16949 22.2247C8.03992 21.8024 7.89358 21.3846 7.78858 20.9557C7.66347 20.4416 7.56517 19.9208 7.47469 19.3999C7.39873 18.9766 7.33841 18.5509 7.28256 18.1276C7.25148 17.8849 7.23321 17.6408 7.22782 17.3962C7.21218 16.6659 7.19208 15.9401 7.20325 15.2054C7.21107 14.717 7.2591 14.2287 7.31495 13.7426C7.35852 13.2811 7.4166 12.8163 7.5015 12.3683C7.6132 11.7893 7.74166 11.2136 7.88353 10.6423C7.97066 10.2951 8.08683 9.95351 8.20747 9.61526C8.35604 9.19972 8.50796 8.78419 8.68669 8.38321C8.86541 7.98224 9.05643 7.61038 9.26197 7.23517C9.4521 6.87182 9.66321 6.5199 9.89422 6.18121C10.1758 5.77103 10.4832 5.37934 10.8147 5.00853C11.1807 4.60979 11.5725 4.23564 11.9876 3.88849C12.3137 3.63565 12.6567 3.4055 13.0141 3.19966C13.4148 2.95245 13.849 2.76458 14.3032 2.64188C14.6321 2.54618 14.9684 2.47836 15.3085 2.43915C15.6967 2.39867 16.0874 2.38968 16.477 2.41227C16.8005 2.44124 17.1211 2.49706 17.4354 2.57916C18.0072 2.7206 18.5555 2.94471 19.0629 3.24446C19.8119 3.67765 20.4857 4.22993 21.058 4.87972C21.4458 5.31106 21.802 5.76998 22.1237 6.25289C22.4531 6.75792 22.7487 7.28438 23.0084 7.82879C23.291 8.41569 23.5345 9.02387 23.7624 9.63542C23.925 10.0859 24.0641 10.5447 24.179 11.0097C24.3019 11.4857 24.4136 11.9673 24.4918 12.4523C24.5812 13.0023 24.6337 13.5578 24.6873 14.1122C24.7286 14.53 24.751 14.95 24.7722 15.3689C24.7889 15.6982 24.809 16.0286 24.7956 16.3579C24.7755 16.8507 24.7308 17.3435 24.6895 17.8352C24.6594 18.2071 24.627 18.5789 24.5778 18.9486C24.5331 19.2846 24.4762 19.6206 24.3991 19.9566C24.2438 20.6286 24.0908 21.2939 23.8986 21.9514C23.7556 22.4226 23.5848 22.8849 23.387 23.3358C23.1916 23.7972 22.9704 24.2486 22.738 24.6921C22.4197 25.3329 22.028 25.9343 21.5707 26.4842C21.23 26.8796 20.8916 27.2805 20.5162 27.6412C20.1942 27.9304 19.8555 28.2004 19.5019 28.4499C19.1024 28.7474 18.6613 28.984 18.1928 29.1521C17.7987 29.2878 17.397 29.4 16.9897 29.4881C16.7663 29.543 16.5261 29.5643 16.2938 29.6001L15.6772 29.5934ZM7.44453 16.937C7.49145 17.385 7.52831 17.814 7.58304 18.2396C7.65677 18.7996 7.72044 19.3753 7.83326 19.9342C7.95614 20.5413 8.11364 21.1427 8.2879 21.7375C8.4186 22.1855 8.59397 22.6145 8.76376 23.0468C8.90004 23.394 9.04303 23.739 9.21058 24.0716C9.40942 24.4674 9.62426 24.8534 9.85512 25.2297C10.0466 25.5469 10.2566 25.8525 10.484 26.1448C10.7532 26.4887 11.0425 26.8168 11.3408 27.1372C11.5576 27.3727 11.7929 27.5903 12.0445 27.7879C12.577 28.2134 13.1643 28.5649 13.7905 28.8329C14.3347 29.0599 14.9103 29.2023 15.4973 29.2552C15.875 29.2753 16.2535 29.2674 16.63 29.2317C17.0499 29.1983 17.4632 29.1079 17.8588 28.9628C18.4475 28.7521 19.0046 28.4612 19.5142 28.0982C19.981 27.7748 20.4111 27.4011 20.7966 26.9837C21.1127 26.6399 21.3875 26.2568 21.6768 25.8883C22.0482 25.4021 22.3693 24.8794 22.6353 24.3281C22.8386 23.9047 23.034 23.4567 23.2217 23.0087C23.3558 22.6895 23.4786 22.3647 23.5859 22.0365C23.7121 21.649 23.8249 21.2525 23.9277 20.8638C24.0226 20.5032 24.112 20.1403 24.1734 19.774C24.2606 19.2599 24.3332 18.7425 24.3868 18.225C24.4471 17.6325 24.4929 17.0366 24.5197 16.4419C24.5365 16.0667 24.4963 15.6904 24.4996 15.314C24.5016 14.7815 24.4642 14.2495 24.3879 13.7224C24.3198 13.2296 24.2673 12.7334 24.1801 12.2429C24.1086 11.8408 24.007 11.4432 23.9031 11.0478C23.7914 10.6222 23.6708 10.1988 23.5356 9.7799C23.4429 9.49093 23.3267 9.20868 23.2083 8.92755C23.0575 8.56802 22.9078 8.20624 22.7324 7.85679C22.5459 7.4827 22.3415 7.11644 22.1237 6.75915C21.9334 6.43658 21.7245 6.12542 21.4981 5.82728C21.2267 5.47894 20.9396 5.14405 20.6313 4.81924C20.4029 4.58414 20.1592 4.3645 19.9018 4.16178C19.6624 3.96568 19.408 3.78855 19.1411 3.632C18.7824 3.42938 18.4132 3.24582 18.0353 3.08206C17.6801 2.92549 17.3036 2.82281 16.9182 2.77741C16.6401 2.74604 16.3597 2.69452 16.0827 2.68444C15.8287 2.67522 15.5745 2.69249 15.3242 2.73596C14.9119 2.80169 14.5044 2.89485 14.1044 3.01485C13.5769 3.19304 13.0771 3.44491 12.6198 3.76304C12.2014 4.04291 11.8098 4.36126 11.4503 4.71396C11.247 4.9122 11.0638 5.13173 10.8716 5.3423C10.4558 5.81585 10.0866 6.3286 9.76911 6.8734C9.34421 7.57498 8.98306 8.31345 8.69004 9.07988C8.41402 9.77608 8.19 10.4919 8.01981 11.2214C7.89805 11.7814 7.7964 12.3414 7.69922 12.9015C7.61991 13.3864 7.554 13.8759 7.51155 14.3665C7.47134 14.8145 7.46464 15.2737 7.45458 15.7284C7.43783 16.1395 7.44453 16.5483 7.44453 16.9381V16.937Z" fill="#151515"/>
<path d="M8.20524 18.7705H15.0338V18.0805H16.9819V18.7705H23.7668C23.7378 18.981 23.7222 19.1759 23.6819 19.3652C23.5535 19.9633 23.4306 20.5625 23.2753 21.1573C23.1591 21.5983 23.0174 22.0321 22.8509 22.4565C22.6341 23.0098 22.404 23.5586 22.1426 24.0929C21.8014 24.8083 21.37 25.4768 20.8592 26.0821C20.5391 26.464 20.1955 26.8253 19.8304 27.1641C19.3567 27.5954 18.8203 27.9519 18.2397 28.2214C17.7487 28.4595 17.2237 28.6193 16.6836 28.6952C16.2932 28.7316 15.9004 28.7338 15.5096 28.7019C15.2353 28.6868 14.9632 28.644 14.6975 28.5742C14.0522 28.4037 13.4408 28.1234 12.8901 27.7454C12.4427 27.4434 12.0279 27.0954 11.6524 26.7071C11.1398 26.1812 10.6948 25.5931 10.3276 24.9565C10.0819 24.5241 9.83278 24.0929 9.61384 23.646C9.4345 23.2732 9.27418 22.8916 9.13351 22.5024C8.98047 22.088 8.83525 21.668 8.7202 21.2413C8.58392 20.7361 8.48003 20.2232 8.36945 19.7113C8.30801 19.4246 8.25774 19.1345 8.20747 18.8455C8.20432 18.8206 8.20357 18.7955 8.20524 18.7705ZM9.71772 19.8905L9.7557 19.8838C9.92773 20.4349 10.0998 20.9859 10.2718 21.537H10.4393C10.598 20.9882 10.7555 20.4449 10.913 19.9028C10.9353 20.3665 10.9387 20.8269 10.9297 21.2883C10.9297 21.3365 10.8515 21.3858 10.8068 21.4306C10.7781 21.4558 10.7471 21.4783 10.7141 21.4978L10.7354 21.5437C10.9889 21.5437 11.2436 21.5437 11.4983 21.5437C11.5307 21.5437 11.5631 21.5134 11.5966 21.4978C11.5691 21.4726 11.5373 21.4525 11.5028 21.4384C11.4542 21.4315 11.4104 21.4055 11.3809 21.3663C11.3514 21.327 11.3386 21.2777 11.3453 21.229C11.3453 20.8425 11.3453 20.455 11.3453 20.0686C11.3453 19.9633 11.3911 19.9006 11.4961 19.8927C11.6011 19.8849 11.5999 19.8379 11.5787 19.7628H10.8381L10.4807 20.987C10.446 20.875 10.4248 20.8134 10.4047 20.7485C10.312 20.4405 10.2215 20.1324 10.1221 19.8267C10.1105 19.8069 10.0943 19.7902 10.0748 19.7781C10.0554 19.766 10.0332 19.7588 10.0104 19.7572C9.82943 19.7494 9.64735 19.7572 9.46639 19.7516C9.35468 19.7516 9.35468 19.7998 9.37591 19.8793C9.57809 19.9118 9.58368 19.9185 9.58368 20.128C9.58368 20.4965 9.58368 20.8649 9.58368 21.2334C9.58368 21.3365 9.55798 21.4003 9.45075 21.4261C9.41389 21.435 9.38596 21.4798 9.35468 21.5079L9.37926 21.5403H9.95007C9.91767 21.4933 9.90315 21.4451 9.87969 21.4395C9.71884 21.4059 9.71772 21.2816 9.71661 21.1606C9.71661 20.8952 9.71661 20.6297 9.71661 20.3632L9.71772 19.8905ZM18.3748 21.1662C18.3658 21.1751 18.3572 21.1845 18.3492 21.1942L18.2196 21.3835C18.1894 21.3051 18.1581 21.2256 18.128 21.1461C18.128 21.1461 18.128 21.1371 18.128 21.1326C18.1168 20.9086 18.0297 20.7328 17.8063 20.6521L17.7057 20.6129C17.7962 20.5861 17.8688 20.5648 17.9392 20.5424C18.1414 20.4774 18.233 20.3643 18.2319 20.1873C18.2307 20.0104 18.138 19.8984 17.9414 19.8323C17.517 19.69 17.0813 19.7774 16.6501 19.7483C16.6267 19.8311 16.6133 19.8804 16.716 19.8984C16.7426 19.9104 16.7657 19.9289 16.7832 19.9522C16.8008 19.9754 16.8122 20.0028 16.8166 20.0316C16.8244 20.4461 16.8244 20.8616 16.8166 21.276C16.8166 21.3208 16.7618 21.3667 16.7272 21.4082C16.6919 21.4432 16.6546 21.4761 16.6155 21.5067L16.6423 21.5437C16.8825 21.5437 17.1237 21.5437 17.365 21.5437C17.4 21.5349 17.4333 21.5201 17.4633 21.5C17.4365 21.4742 17.4108 21.4474 17.3829 21.4227C17.3315 21.3757 17.2388 21.3331 17.2343 21.2838C17.2176 21.0766 17.2276 20.8683 17.2276 20.6622C17.5248 20.632 17.6566 20.7205 17.7057 20.9736C17.7227 21.0548 17.7332 21.1372 17.737 21.22C17.7437 21.556 18.0118 21.6557 18.2888 21.5392C18.3202 21.5213 18.3475 21.4971 18.3691 21.4682C18.3908 21.4392 18.4062 21.4061 18.4145 21.3709C18.4227 21.3357 18.4237 21.2991 18.4173 21.2635C18.4108 21.2279 18.3972 21.1941 18.3771 21.164L18.3748 21.1662ZM15.3901 20.5558C15.3901 20.3721 15.3823 20.1952 15.3957 20.0204C15.4018 19.9923 15.4146 19.966 15.4331 19.944C15.4516 19.9219 15.4752 19.9047 15.5018 19.8939C15.7755 19.8457 16.162 19.8883 16.2592 20.278C16.2659 20.306 16.3094 20.324 16.3362 20.3464C16.3552 20.315 16.3921 20.2836 16.391 20.2534C16.3831 20.0888 16.3675 19.9241 16.3541 19.7561H14.7411C14.7679 19.8099 14.7835 19.8793 14.8059 19.8816C14.969 19.8972 14.9757 20.0238 14.9779 20.1336C14.9857 20.4875 14.9835 20.8425 14.9779 21.1965C14.9779 21.3085 14.96 21.4082 14.8226 21.4339C14.7947 21.4395 14.7746 21.4843 14.7344 21.5303H16.3843C16.3977 21.3141 16.4111 21.1091 16.4234 20.903L16.372 20.8784C16.3408 20.9134 16.3124 20.9509 16.2871 20.9904C16.2492 21.0865 16.2009 21.1782 16.143 21.2637C15.9698 21.4552 15.7386 21.463 15.5063 21.4093C15.4793 21.4004 15.4549 21.3848 15.4354 21.3641C15.4159 21.3434 15.4019 21.3181 15.3946 21.2906C15.3834 21.0878 15.3946 20.884 15.3946 20.6835C15.6358 20.6622 15.7297 20.7317 15.8034 20.9512C15.8168 20.9949 15.8626 21.0285 15.8928 21.0632L15.9229 21.0374V20.2209L15.8849 20.1985C15.8504 20.234 15.8207 20.2739 15.7967 20.3172C15.714 20.5222 15.6414 20.5693 15.3901 20.5558ZM21.631 20.4438L21.6824 20.4102C21.6511 20.194 21.7226 19.9712 21.6366 19.7628H20.1711V20.4214L20.2135 20.4405C20.2375 20.4059 20.2566 20.3682 20.2705 20.3284C20.3364 20.0361 20.3889 19.8905 20.7273 19.8726C20.7273 20.3105 20.7273 20.7485 20.7273 21.1853C20.7273 21.2973 20.6972 21.4093 20.5542 21.4317C20.5252 21.4317 20.5028 21.4821 20.4526 21.5347H21.3462L21.3685 21.5023C21.3395 21.4754 21.3127 21.4317 21.2792 21.4238C21.1608 21.3981 21.1429 21.3242 21.1451 21.2189C21.1451 20.8829 21.1451 20.5379 21.1451 20.1974V19.8849C21.2101 19.8733 21.2771 19.883 21.3362 19.9124C21.3953 19.9418 21.4435 19.9895 21.4735 20.0484C21.5182 20.1414 21.5383 20.2456 21.5741 20.3441C21.5895 20.3775 21.6086 20.4091 21.631 20.4382V20.4438ZM14.6149 19.727C14.5881 19.727 14.5512 19.7191 14.5467 19.727C14.4786 19.8681 14.3836 19.8132 14.2864 19.7695C14.244 19.7527 14.2003 19.7393 14.1558 19.7292C14.0347 19.6967 13.906 19.7102 13.7942 19.767C13.6825 19.8239 13.5956 19.9201 13.5503 20.0372C13.4587 20.3352 13.5414 20.6589 13.9189 20.7854C14.0582 20.8286 14.1938 20.8829 14.3244 20.9478C14.5311 21.0598 14.5478 21.3152 14.3579 21.4149C14.2947 21.4481 14.2238 21.4638 14.1525 21.4602C14.0811 21.4567 14.0121 21.4341 13.9525 21.3947C13.7949 21.2861 13.6772 21.1288 13.6173 20.9467C13.5861 20.8705 13.5503 20.8448 13.4598 20.884L13.5012 21.556C13.5302 21.556 13.5671 21.565 13.5738 21.556C13.6687 21.407 13.7804 21.4675 13.8966 21.5235C13.9367 21.5465 13.9822 21.5581 14.0284 21.5571C14.1837 21.5437 14.3635 21.5571 14.4886 21.491C14.5879 21.4322 14.6654 21.3426 14.7093 21.2357C14.7533 21.1288 14.7613 21.0104 14.7321 20.8985C14.715 20.7927 14.6684 20.6938 14.5976 20.6133C14.5269 20.5329 14.4349 20.4741 14.3322 20.4438C14.1633 20.3853 13.9994 20.3134 13.8419 20.2288C13.8178 20.2128 13.7976 20.1916 13.7827 20.1669C13.7677 20.1422 13.7583 20.1145 13.7552 20.0857C13.7521 20.057 13.7554 20.0279 13.7648 20.0005C13.7741 19.9732 13.7894 19.9482 13.8095 19.9275C13.929 19.7953 14.244 19.8278 14.3602 19.9868C14.4171 20.0652 14.4629 20.1515 14.521 20.2276C14.5626 20.2658 14.6087 20.2985 14.6584 20.3251C14.6406 20.0966 14.6283 19.9163 14.6149 19.727ZM19.0741 21.5336C19.0406 21.4843 19.0272 21.4451 18.9993 21.4216C18.9728 21.4104 18.949 21.3936 18.9297 21.3723C18.9103 21.351 18.8957 21.3258 18.887 21.2983C18.8783 21.2708 18.8757 21.2418 18.8792 21.2132C18.8828 21.1846 18.8925 21.1571 18.9077 21.1326C18.9423 21.0654 18.9077 20.94 19.0473 20.9422C19.1869 20.9445 19.3266 20.9422 19.4651 20.9422C19.4997 20.9422 19.5388 20.9915 19.5611 21.0262C19.5835 21.061 19.5813 21.1069 19.5991 21.1438C19.6583 21.2693 19.6706 21.3757 19.5042 21.4261C19.4933 21.4322 19.4842 21.4409 19.4775 21.4515C19.4709 21.4621 19.467 21.4741 19.4662 21.4866C19.4662 21.5034 19.5008 21.5291 19.5209 21.5291C19.7689 21.5291 20.0169 21.5291 20.2917 21.5291C20.2649 21.4754 20.2582 21.4339 20.237 21.425C20.1826 21.3987 20.1351 21.36 20.0984 21.3119C20.0618 21.2639 20.0369 21.2078 20.0258 21.1483C20.0013 21.0654 19.9733 20.9825 19.9443 20.9008C19.8259 20.5648 19.6952 20.2288 19.5902 19.8927C19.55 19.7617 19.4897 19.7225 19.3668 19.7415C19.34 19.7415 19.312 19.7415 19.2785 19.7415C19.2372 19.8535 19.1936 19.9656 19.1534 20.0776C19.0618 20.3318 18.9836 20.5928 18.8742 20.8392C18.7848 21.0397 18.7781 21.2872 18.5569 21.4205C18.5368 21.4406 18.5368 21.4888 18.5234 21.5336H19.0741ZM12.0367 20.9478C12.2032 20.9478 12.3651 20.9478 12.5271 20.9478C12.5444 20.9487 12.5613 20.9536 12.5765 20.9621C12.5916 20.9707 12.6045 20.9827 12.6142 20.9971C12.6496 21.0826 12.6773 21.171 12.6969 21.2614C12.7125 21.3331 12.6969 21.397 12.6064 21.4171C12.5684 21.425 12.5383 21.4698 12.5048 21.4978L12.5282 21.5325H13.3437C13.323 21.4901 13.2999 21.449 13.2744 21.4093C13.2174 21.3354 13.1303 21.2738 13.1001 21.1853C12.9527 20.7843 12.8175 20.3788 12.6835 19.9734C12.6042 19.7337 12.6086 19.7326 12.3584 19.7438C12.3495 19.7438 12.3406 19.7494 12.3528 19.7438C12.0792 20.334 11.9831 20.9758 11.5944 21.5269H12.1283C12.0914 21.4709 12.0758 21.4149 12.0445 21.4026C11.9261 21.3645 11.9328 21.2906 11.9596 21.1942C11.9864 21.0979 12.011 21.0386 12.0367 20.9478ZM21.8276 21.5079L21.8589 21.5381H22.6464C22.614 21.4877 22.6006 21.4373 22.5749 21.4261C22.4353 21.3914 22.4353 21.2872 22.4353 21.1763C22.4353 20.8179 22.4353 20.4595 22.4353 20.1011C22.4353 19.9667 22.4822 19.8905 22.6252 19.8771L22.6174 19.7651H21.8489L21.8221 19.8043C21.8573 19.8325 21.8905 19.8632 21.9215 19.8961C21.9617 19.9454 22.0276 20.0003 22.0332 20.0529C22.0421 20.4539 22.0421 20.8541 22.0332 21.2536C22.0332 21.3085 21.9628 21.3656 21.9215 21.416C21.8937 21.4467 21.8642 21.4759 21.8332 21.5034L21.8276 21.5079Z" fill="#151515"/>
<path d="M17.5795 7.99232C17.5467 8.02927 17.5018 8.05337 17.453 8.06034C17.4041 8.06731 17.3543 8.0567 17.3125 8.0304C16.9931 7.88815 16.6769 7.74479 16.3597 7.59918C16.1463 9.68022 16.6066 11.6044 17.8387 13.364C17.4667 13.364 17.1305 13.364 16.7942 13.364C16.7725 13.3587 16.7521 13.3491 16.7342 13.3356C16.7163 13.3221 16.7014 13.3051 16.6903 13.2856C16.4437 12.9032 16.2505 12.4886 16.1162 12.0536C16.086 11.9494 16.0458 11.8486 16.0045 11.7176C15.9576 11.8587 15.9151 11.9718 15.8805 12.0872C15.7405 12.4996 15.5539 12.8946 15.3242 13.2643C15.309 13.2891 15.2886 13.3103 15.2645 13.3266C15.2404 13.3428 15.2132 13.3537 15.1846 13.3584C14.8494 13.3663 14.5266 13.3584 14.168 13.3584C15.3856 11.6078 15.857 9.68022 15.647 7.58574C15.3789 7.71567 15.1097 7.85231 14.836 7.97776C14.7472 8.01446 14.6541 8.04004 14.559 8.05392C14.5255 8.05952 14.4853 8.0304 14.4473 8.01808C14.4565 7.98045 14.4724 7.94479 14.4942 7.91279C14.6314 7.80071 14.7616 7.68026 14.8841 7.55214C15.0864 7.31005 15.2704 7.05323 15.4348 6.78379C15.5504 6.57425 15.6397 6.35116 15.7006 6.11961C15.7688 5.88216 15.7989 5.63463 15.8458 5.39158C15.8738 5.2471 15.8983 5.10261 15.9307 4.96037C15.9374 4.93236 15.9754 4.89092 15.9966 4.89204C16.0134 4.89557 16.0291 4.90326 16.0422 4.91441C16.0552 4.92557 16.0653 4.93982 16.0715 4.95589C16.1062 5.07923 16.1316 5.20504 16.1474 5.33222C16.2043 6.07124 16.4762 6.77729 16.9294 7.36285C17.1027 7.55776 17.2894 7.74039 17.4879 7.90943C17.5225 7.92959 17.546 7.9576 17.5795 7.99232Z" fill="#151515"/>
<path d="M10.4472 7.69775C11.3006 7.60814 12.3953 8.35857 12.9225 9.2658C12.6455 9.1538 12.354 9.0418 12.0602 8.92979C11.9931 8.91995 11.925 8.91995 11.858 8.92979C12.5996 10.2971 13.0514 11.8033 13.185 13.354H12.1864C12.1775 11.2953 11.6681 9.39573 10.4472 7.69775Z" fill="#151515"/>
<path d="M19.8225 13.3596H18.8172C18.9445 11.8061 19.3943 10.2965 20.1375 8.92755C19.7343 8.91523 19.4182 9.13588 19.0618 9.29156C19.6069 8.35857 20.6793 7.62382 21.5495 7.69663C20.3431 9.39013 19.8225 11.2897 19.8225 13.3596Z" fill="#151515"/>
<path d="M16.8936 16.9448H15.0997C15.0516 16.7454 15.0192 16.5506 14.9567 16.3657C14.8801 16.1319 14.7342 15.9271 14.5383 15.7788C14.3425 15.6304 14.1061 15.5457 13.8609 15.5358C13.8273 15.5358 13.7961 15.5044 13.7626 15.4876C13.7972 15.4686 13.8318 15.4339 13.8664 15.4339C15.2814 15.4339 16.6944 15.4339 18.1056 15.4339C18.1403 15.4339 18.1738 15.4686 18.2084 15.4876C18.1788 15.5094 18.1455 15.5257 18.1101 15.5358C17.8446 15.5539 17.5922 15.658 17.3908 15.8323C17.1893 16.0066 17.0498 16.2417 16.9931 16.5024C16.9528 16.648 16.926 16.7958 16.8936 16.9448Z" fill="#151515"/>
<path d="M20.2079 14.838V15.258H11.8178V14.838H20.2079Z" fill="#151515"/>
<path d="M11.8178 13.616H20.2068V14.0036H11.8178V13.616Z" fill="#151515"/>
<path d="M19.8035 14.2455V14.6532H12.1987V14.2455H19.8035Z" fill="#151515"/>
<path d="M14.7176 17.1778H17.3058V17.8397H14.7176V17.1778Z" fill="#151515"/>
<path d="M13.1873 15.4406C13.1582 15.995 12.8823 16.2246 12.2244 16.1518V15.4406H13.1873Z" fill="#151515"/>
<path d="M19.7745 15.4439V16.1451C19.226 16.2459 18.7692 15.9972 18.8395 15.4439H19.7745Z" fill="#151515"/>
<path d="M17.2343 20.5446C17.2343 20.3912 17.2343 20.2612 17.2343 20.1324C17.224 20.0773 17.2341 20.0203 17.2627 19.972C17.2912 19.9238 17.3364 19.8876 17.3896 19.8704C17.4571 19.8557 17.5274 19.8612 17.5917 19.8863C17.6561 19.9114 17.7117 19.9549 17.7515 20.0115C17.8878 20.2523 17.7582 20.5917 17.4443 20.5457C17.3744 20.5408 17.3043 20.5404 17.2343 20.5446Z" fill="#151515"/>
<path d="M19.2808 20.1571C19.3489 20.3811 19.4159 20.595 19.4874 20.8291H19.0082C19.0875 20.6051 19.1679 20.3811 19.2484 20.1571H19.2808Z" fill="#151515"/>
<path d="M12.0792 20.8302L12.3137 20.1504H12.3495C12.4187 20.3744 12.4869 20.5984 12.5595 20.8325L12.0792 20.8302Z" fill="#151515"/>
</svg>
