<svg width="32" height="32" viewBox="0 0 32 32" fill="none" xmlns="http://www.w3.org/2000/svg">
<path d="M15.983 26.8C13.8588 26.7464 11.7574 26.5778 9.71243 25.9771C8.02375 25.481 6.47987 24.7281 5.2078 23.502C3.85914 22.2022 3.06423 20.6112 2.70124 18.8087C2.2514 16.5753 2.28178 14.3473 2.95302 12.1582C3.8235 9.31936 5.76698 7.4524 8.53982 6.37047C10.0938 5.7641 11.7182 5.46609 13.3766 5.31604C14.936 5.17494 16.4972 5.16493 18.0572 5.27259C20.3417 5.43023 22.5666 5.8431 24.6168 6.90696C27.3518 8.32608 28.9075 10.57 29.3927 13.5484C29.7148 15.5253 29.6808 17.4942 29.1546 19.4349C28.3484 22.4087 26.4101 24.3968 23.536 25.5473C22.0972 26.1233 20.5937 26.4479 19.0531 26.5953C18.0326 26.6928 17.0065 26.7337 15.983 26.8ZM5.97711 14.06C5.94099 14.2432 5.89209 14.4115 5.87653 14.5828C5.7498 15.9773 5.79773 17.3652 6.09637 18.7368C6.41434 20.197 7.03889 21.5046 8.1582 22.5489C9.13946 23.4645 10.3233 24.0113 11.6183 24.3451C13.3803 24.7992 15.1795 24.8464 16.9856 24.7934C18.3272 24.7541 19.6522 24.5982 20.9361 24.19C23.2584 23.4518 24.8796 22.0054 25.6609 19.7019C26.0919 18.4311 26.2244 17.1215 26.2022 15.7933C26.1913 15.1397 26.137 14.4867 26.1001 13.7898C25.9277 13.8432 25.819 13.8733 25.7128 13.9104C24.1858 14.4435 22.6611 14.9832 21.1316 15.5093C20.1444 15.8489 19.2396 16.3219 18.457 17.0098C17.4409 17.9029 16.7447 19.0168 16.1573 20.2064C16.1067 20.3088 16.0511 20.4087 15.9838 20.5364C15.8191 20.2215 15.6777 19.9492 15.5345 19.6777C14.5965 17.8997 13.2312 16.5564 11.3028 15.8551C9.55812 15.2206 7.78345 14.6653 5.97711 14.06ZM16.0108 17.0718C15.9931 17.0876 16.0106 17.0783 16.0186 17.0639C16.061 16.9873 16.1024 16.9101 16.1416 16.832C16.9714 15.1812 18.1859 13.8808 19.8531 13.028C20.7441 12.5723 21.679 12.1993 22.5931 11.7869C23.3596 11.441 24.1246 11.092 24.9143 10.7335C24.8344 10.5978 24.7914 10.5127 24.7373 10.435C24.3462 9.87391 23.8752 9.38688 23.3222 8.97675C21.9487 7.95829 20.3575 7.51697 18.6832 7.31209C16.7607 7.07682 14.8369 7.08398 12.9199 7.36834C11.4692 7.58349 10.0883 8.00179 8.87265 8.84223C8.08274 9.38836 7.4291 10.0577 6.96025 10.934C7.24548 11.0796 7.5051 11.232 7.78039 11.349C8.87523 11.8142 9.97769 12.2623 11.0722 12.7283C12.472 13.3243 13.7425 14.1109 14.7127 15.2873C15.1814 15.8554 15.582 16.4776 16.0108 17.0718Z" fill="#151515"/>
</svg>
