<svg width="32" height="32" viewBox="0 0 32 32" fill="none" xmlns="http://www.w3.org/2000/svg">
<g clip-path="url(#clip0_17_1396)">
<path d="M16.0365 4.00001C22.6208 3.9936 27.9886 9.35087 28 15.94C28.0115 22.6053 22.6506 27.9973 16.0095 28C9.40673 28.0027 4.00239 22.6088 4 16.0134C3.99753 9.36139 9.36269 4.00649 16.0365 4.00001ZM6.44545 21.0842C6.57163 21.0386 6.61912 21.0332 6.65122 21.0081C9.13832 19.0714 11.6279 17.1378 14.1016 15.1842C14.2625 15.0572 14.3536 14.784 14.3877 14.565C14.612 13.1217 14.8184 11.6755 15.0181 10.2285C15.2465 8.57341 15.4619 6.91656 15.6946 5.17272C11.8555 5.43483 8.88226 7.05464 6.87946 10.239C4.68447 13.7289 4.65418 17.3636 6.44545 21.0842ZM16.3968 5.17527C16.3968 5.40222 16.3816 5.53242 16.399 5.65809C16.8168 8.66229 17.2311 11.6671 17.6727 14.6677C17.7062 14.8947 17.896 15.1464 18.0853 15.2955C20.3524 17.0818 22.633 18.851 24.9106 20.624C25.1102 20.7794 25.3133 20.9304 25.5606 21.1182C27.3111 17.4333 27.3184 13.8559 25.2586 10.4253C23.2973 7.15912 20.304 5.45438 16.3968 5.17527ZM6.83164 21.7353C9.24384 25.2066 12.4546 26.9815 16.605 26.7733C20.2781 26.5892 23.1056 24.8288 25.1322 21.7904C25.0576 21.6976 25.0476 21.6726 25.0302 21.6654C22.1131 20.4757 19.1971 19.283 16.2734 18.1094C16.0956 18.038 15.834 18.0618 15.6499 18.1364C12.7493 19.3094 9.85522 20.498 6.83164 21.7353Z" fill="#151515"/>
</g>
<defs>
<clipPath id="clip0_17_1396">
<rect width="24" height="24" fill="white" transform="translate(4 4)"/>
</clipPath>
</defs>
</svg>
