<svg width="32" height="32" viewBox="0 0 32 32" fill="none" xmlns="http://www.w3.org/2000/svg">
<g clip-path="url(#clip0_17_1395)">
<path d="M15.44 22.8C15.0644 22.7342 14.6851 22.6878 14.3162 22.5982C12.5677 22.1801 11.1865 21.2394 10.1658 19.8092C10.0756 19.6833 9.98717 19.634 9.82943 19.6356C9.11279 19.644 8.39643 19.644 7.68035 19.6356C7.56716 19.6299 7.45933 19.5872 7.37447 19.5146C7.08946 19.2603 6.8203 18.9899 6.50024 18.68H9.48725C9.3654 18.3002 9.26107 17.9536 9.13713 17.6146C9.12128 17.571 9.00318 17.5407 8.93224 17.5403C7.81263 17.5359 6.69303 17.5335 5.57342 17.5403C5.49168 17.5452 5.40986 17.532 5.33422 17.5016C5.25857 17.4713 5.19109 17.4246 5.13693 17.3652C4.8903 17.1106 4.62741 16.87 4.32779 16.5819H8.95603V15.4455C8.87549 15.4406 8.78911 15.4313 8.70315 15.4313C6.92963 15.4313 5.15612 15.4321 3.38261 15.4338C3.30437 15.4378 3.22619 15.4247 3.15393 15.3954C3.08166 15.3662 3.01718 15.3215 2.96531 15.2647C2.71493 15.006 2.44494 14.763 2.20041 14.4636H2.41573C4.57191 14.4636 6.72808 14.4612 8.88383 14.4676C9.06745 14.4676 9.15007 14.4273 9.19556 14.2433C9.26942 13.945 9.38334 13.6561 9.49309 13.3247H9.19806C6.53404 13.3247 3.87029 13.326 1.20682 13.3284C1.12876 13.3326 1.05072 13.3197 0.978489 13.2908C0.906254 13.2619 0.841672 13.2176 0.789526 13.1613C0.533723 12.9038 0.263314 12.6625 0 12.4147L0.0212821 12.359H0.299202C3.44284 12.359 6.58648 12.3605 9.73011 12.3635C9.95337 12.3635 10.0852 12.3045 10.2196 12.1213C11.4223 10.4837 13.0614 9.53047 15.1187 9.2504C15.2676 9.23022 15.4175 9.2165 15.5652 9.19995H16.3998C16.686 9.24031 16.9748 9.26614 17.2586 9.3186C19.1606 9.6701 20.6616 10.6257 21.7721 12.1536C21.8876 12.3122 22.0016 12.3635 22.1952 12.3631C25.3597 12.3574 28.5242 12.3561 31.6887 12.359H32C31.8014 12.5531 31.6244 12.6916 31.4905 12.8631C31.1917 13.2489 30.8128 13.3409 30.322 13.336C27.7974 13.3114 25.2728 13.3247 22.7481 13.3247H22.4702C22.5582 13.5782 22.6409 13.8026 22.7143 14.0302C22.8541 14.4632 22.8516 14.4636 23.3144 14.4636H29.8175C29.6122 14.6654 29.4244 14.8123 29.2838 14.9943C29.0026 15.3575 28.6474 15.4479 28.1863 15.4402C26.5455 15.4132 24.9039 15.4297 23.2622 15.4297H23.0077V16.5649H27.6296C27.2858 16.9031 26.9849 17.2066 26.6728 17.4984C26.6311 17.5387 26.5292 17.5339 26.4554 17.5339C25.3358 17.5359 24.2157 17.5395 23.0961 17.5311C22.9067 17.5311 22.8165 17.5714 22.7711 17.7651C22.701 18.063 22.5833 18.3503 22.479 18.6691H25.4418C25.1079 19.0024 24.8025 19.3112 24.4887 19.6094C24.4494 19.6465 24.3572 19.6389 24.2896 19.6393C23.5593 19.6393 22.8291 19.6429 22.0988 19.6393C22.0447 19.6359 21.9907 19.6473 21.9429 19.6719C21.8951 19.6966 21.8553 19.7336 21.828 19.7789C20.574 21.5251 18.8597 22.5296 16.6693 22.7652C16.6203 22.773 16.572 22.7846 16.525 22.8H15.44ZM22.0254 15.9931C22.0116 12.7743 19.2879 10.1556 15.9662 10.1685C12.6445 10.1814 9.92833 12.815 9.94168 16.0068C9.95545 19.2256 12.6762 21.8411 16.0013 21.8322C19.3167 21.8237 22.0391 19.1849 22.0254 15.9931Z" fill="#151515"/>
<path d="M14.6271 17.5218H14.0011V15.4233L13.9544 15.4132C13.9323 15.4705 13.9073 15.5266 13.8881 15.5847C13.6949 16.1739 13.4983 16.7619 13.3134 17.3535C13.2717 17.4939 13.2012 17.5395 13.0501 17.5375C12.5552 17.5319 12.5556 17.5375 12.4062 17.0863C12.2393 16.5811 12.0711 16.076 11.9017 15.571C11.8858 15.5102 11.8503 15.4559 11.8003 15.416V17.5145H11.1919V14.4656C11.4698 14.4656 11.7402 14.4567 12.0086 14.4733C12.059 14.4761 12.1246 14.573 12.1467 14.6379C12.3741 15.3082 12.594 15.9806 12.8169 16.6521C12.8394 16.7195 12.8669 16.7853 12.912 16.9039C13.1294 16.2421 13.3293 15.6363 13.5271 15.0294C13.709 14.4644 13.7065 14.4644 14.3112 14.4644H14.6271V17.5218Z" fill="#151515"/>
<path d="M17.3637 15.42V17.523H16.7574V14.468C16.9911 14.468 17.2306 14.4604 17.4693 14.4749C17.516 14.4777 17.5678 14.56 17.5995 14.6153C17.9471 15.2207 18.291 15.826 18.6361 16.4314C18.6692 16.4974 18.7173 16.5555 18.7767 16.6013V14.4777H19.3968V17.5343C19.1619 17.5343 18.9336 17.5436 18.707 17.5278C18.6528 17.5238 18.5906 17.4439 18.5568 17.3854C18.2108 16.7869 17.8699 16.1868 17.5265 15.5871C17.491 15.525 17.4534 15.4636 17.4171 15.4023L17.3637 15.42Z" fill="#151515"/>
<path d="M15.3703 14.4781H16.0058V17.5181H15.3703V14.4781Z" fill="#151515"/>
<path d="M20.7751 17.527H20.1613V14.4785H20.7751V17.527Z" fill="#151515"/>
</g>
<defs>
<clipPath id="clip0_17_1395">
<rect width="32" height="32" fill="white"/>
</clipPath>
</defs>
</svg>
