<svg width="32" height="32" viewBox="0 0 32 32" fill="none" xmlns="http://www.w3.org/2000/svg">
<path d="M28.8 26.7069C28.3851 26.7069 27.9958 26.7062 27.6066 26.7071C26.5391 26.7095 25.4716 26.7114 24.4041 26.7157C22.9883 26.7214 21.5725 26.7282 20.1567 26.7379C20.061 26.7385 20.007 26.7124 19.9571 26.6235C19.1394 25.1676 18.3175 23.714 17.496 22.2603C16.9837 21.3538 16.4704 20.4478 15.9578 19.5415C15.9368 19.5042 15.9184 19.4654 15.8902 19.4107C15.9405 19.4063 15.9796 19.4 16.0187 19.4C18.755 19.3995 21.4914 19.4 24.2277 19.3977C24.3145 19.3976 24.3597 19.4245 24.4061 19.5009C25.2438 20.8788 26.0863 22.2538 26.9264 23.6303C27.5462 24.6458 28.164 25.6625 28.8 26.7069Z" fill="#151515"/>
<path d="M3.19995 26.8C3.38964 26.4735 3.56692 26.1675 3.74508 25.862C4.26237 24.975 4.77981 24.0881 5.2976 23.2014C5.78659 22.3641 6.2758 21.5269 6.76547 20.6899C7.00063 20.288 7.23522 19.8858 7.47598 19.4873C7.50141 19.4453 7.56704 19.4032 7.61413 19.4032C10.2938 19.3993 12.9735 19.3998 15.6532 19.4002C15.6667 19.4002 15.6802 19.404 15.7148 19.4092C15.5881 19.6269 15.4667 19.8368 15.344 20.046C14.5719 21.3623 13.7993 22.6784 13.0274 23.995C12.4958 24.9017 11.9663 25.8097 11.4304 26.7139C11.4042 26.758 11.3252 26.7931 11.2706 26.7933C10.1948 26.7988 9.11906 26.7987 8.04328 26.7992C6.63897 26.7997 5.23466 26.7997 3.83034 26.8C3.62752 26.8 3.42474 26.8 3.19995 26.8Z" fill="#151515"/>
<path d="M15.8338 5.19995C16.043 5.52267 16.2396 5.82722 16.4374 6.13098C17.0344 7.048 17.6318 7.96474 18.2293 8.88153C18.7875 9.73829 19.3467 10.5945 19.9036 11.4522C19.9886 11.5831 20.1235 11.72 20.1254 11.8557C20.1272 11.9869 19.987 12.1201 19.9095 12.2526C18.9706 13.8559 18.0323 15.4594 17.0929 17.0623C16.6755 17.7748 16.2562 18.4861 15.8376 19.1979C15.8287 19.2129 15.819 19.2275 15.798 19.2608C15.6179 18.9423 15.4463 18.6385 15.2745 18.335C14.5935 17.1322 13.9123 15.9297 13.2315 14.7268C12.7304 13.8413 12.2304 12.955 11.7279 12.0703C11.6883 12.0007 11.6853 11.9498 11.7301 11.8773C12.952 9.89562 14.1712 7.91216 15.3904 5.92877C15.5357 5.69258 15.6788 5.45498 15.8338 5.19995Z" fill="#151515"/>
</svg>
