<svg width="32" height="32" viewBox="0 0 32 32" fill="none" xmlns="http://www.w3.org/2000/svg">
<path d="M28.1027 19.4822C27.8698 19.5141 27.6376 19.5639 27.4037 19.5747C26.5784 19.6127 26.0242 19.9413 25.6285 20.7475C24.0394 23.9853 21.4205 25.9039 17.9164 26.6109C13.55 27.4919 8.76288 25.2233 6.64002 21.2697C6.55231 21.1063 6.4418 20.9494 6.38714 20.775C6.10486 19.8745 5.43316 19.5912 4.57587 19.5678C4.37009 19.5622 4.1658 19.4996 3.96077 19.4633C3.96772 19.3947 3.9746 19.3262 3.98156 19.2576C4.91415 19.2576 5.84666 19.2576 6.84184 19.2576C7.59108 21.3265 8.90376 23.0441 10.828 24.2629C15.9057 27.4789 22.5795 25.3877 24.9369 19.8213C25.1507 19.3165 25.3857 19.1063 25.9411 19.15C26.6554 19.2064 27.3775 19.1638 28.0963 19.1638C28.0984 19.27 28.1005 19.3761 28.1027 19.4822Z" fill="#151515"/>
<path d="M28.0955 12.797C27.207 12.797 26.3174 12.8188 25.431 12.775C25.2884 12.7679 25.1129 12.4886 25.0321 12.3005C23.6591 9.10267 21.2873 7.13516 17.9122 6.38688C13.5161 5.4122 8.76677 7.92729 7.07574 12.1637C6.87841 12.658 6.65476 12.8497 6.12677 12.7971C5.57897 12.7426 5.02123 12.7964 4.46819 12.7847C4.29726 12.7811 4.12759 12.7177 3.95733 12.6817C3.96167 12.6209 3.966 12.56 3.97027 12.4992C4.27453 12.4436 4.57893 12.3409 4.88312 12.3414C5.67341 12.3428 6.04115 11.8794 6.38108 11.2256C8.44135 7.26241 11.7318 5.16381 16.1553 5.20042C20.2584 5.2344 23.4228 7.18353 25.4077 10.8109C25.9831 11.8622 26.5906 12.4556 27.7661 12.4316C27.8811 12.4292 27.9977 12.5053 28.1135 12.545C28.1076 12.6291 28.1016 12.713 28.0955 12.797Z" fill="#151515"/>
<path d="M18.7438 15.0887C18.0538 15.0887 17.3622 15.0628 16.6745 15.1024C16.4263 15.1167 16.1871 15.2883 15.9438 15.388C16.177 15.4759 16.4057 15.6209 16.6443 15.6397C17.1494 15.6795 17.6597 15.647 18.1677 15.656C18.7339 15.6661 19.0339 16.0172 19.0417 16.5359C19.05 17.0867 18.7531 17.4618 18.1493 17.466C17.2516 17.4723 16.3537 17.4676 15.4351 17.4676C15.2969 17.0619 15.3789 16.8823 15.806 16.8923C16.4754 16.9081 17.147 16.921 17.8142 16.8792C18.0147 16.8666 18.2036 16.6677 18.3978 16.5541C18.1954 16.4459 17.9995 16.2625 17.7896 16.2444C17.2622 16.199 16.7281 16.2405 16.1974 16.2243C15.6128 16.2065 15.2207 15.8405 15.2733 15.3362C15.329 14.802 15.6308 14.5037 16.196 14.5102C16.935 14.5186 17.6751 14.4893 18.4124 14.5245C18.5817 14.5326 18.7418 14.7374 18.9061 14.8516C18.852 14.9306 18.7979 15.0096 18.7438 15.0887Z" fill="#151515"/>
<path d="M10.3313 17.2579C10.4861 17.1376 10.6355 16.9224 10.7965 16.9133C11.4866 16.8742 12.1816 16.9213 12.8712 16.8787C13.0581 16.8672 13.2325 16.6514 13.4127 16.5293C13.2328 16.4303 13.0579 16.259 12.8721 16.2457C12.321 16.2066 11.7654 16.2317 11.2117 16.2278C10.6538 16.2239 10.3512 15.9436 10.3458 15.3759C10.3403 14.8022 10.6511 14.5213 11.2045 14.5157C12.0557 14.507 12.9069 14.5135 13.7728 14.5135C13.9371 14.912 13.8713 15.101 13.4304 15.0915C12.7846 15.0774 12.1371 15.0668 11.493 15.1025C11.3171 15.1123 11.1507 15.2931 10.9799 15.3955C11.1439 15.4809 11.3042 15.6304 11.4726 15.6401C12.0246 15.6717 12.5798 15.6405 13.1332 15.656C13.7458 15.6732 14.1386 16.0496 14.0908 16.5968C14.0412 17.1651 13.7167 17.4724 13.1314 17.4708C12.2556 17.4684 11.3798 17.4702 10.504 17.4702C10.4463 17.3994 10.3888 17.3287 10.3313 17.2579Z" fill="#151515"/>
<path d="M3.20001 14.5789C3.74841 14.3909 4.13769 14.5495 4.50042 14.9635C4.99812 15.5317 5.55071 16.0511 6.20446 16.7187C6.20446 15.8879 6.20446 15.2299 6.20446 14.5424C6.45533 14.5424 6.63038 14.5424 6.84588 14.5424C6.84588 15.5028 6.84588 16.4459 6.84588 17.4012C6.317 17.5906 5.93415 17.4177 5.57628 17.0092C5.07544 16.4374 4.52704 15.908 3.87366 15.2305C3.87366 16.0603 3.87366 16.7149 3.87366 17.4244C3.61254 17.437 3.42471 17.4461 3.20001 17.4569C3.20001 16.4599 3.20001 15.5169 3.20001 14.5789Z" fill="#151515"/>
<path d="M28.8 17.69C28.2989 17.4152 27.8988 17.2751 27.6011 17.0159C27.0095 16.5007 26.4743 15.9198 25.8234 15.2745C25.8234 16.0397 25.8234 16.7123 25.8234 17.3848C25.7525 17.4364 25.6816 17.4881 25.6107 17.5398C25.4571 17.3866 25.1794 17.2402 25.1707 17.079C25.1259 16.2474 25.1499 15.412 25.1499 14.5892C25.7045 14.4034 26.0738 14.5346 26.427 14.9338C26.9444 15.5185 27.5241 16.0472 28.2059 16.7283C28.2059 16.0552 28.223 15.533 28.2006 15.0124C28.1817 14.5715 28.3282 14.3968 28.7999 14.5709C28.8 15.5031 28.8 16.4474 28.8 17.69Z" fill="#151515"/>
<path d="M24.1321 17.6151C22.7554 16.7045 21.3828 16.5848 20.0166 17.6189C19.9824 17.5364 19.9482 17.4539 19.9141 17.3714C20.4868 16.4477 21.034 15.5056 21.6631 14.6227C21.7461 14.5062 22.4006 14.5796 22.5278 14.7567C23.1293 15.5936 23.6395 16.4973 24.1822 17.3771C24.1655 17.4564 24.1489 17.5358 24.1321 17.6151ZM21.3353 16.3097C21.861 16.3097 22.2741 16.3097 22.755 16.3097C22.5056 15.9028 22.3051 15.5756 22.0469 15.1542C21.7912 15.5692 21.5816 15.9098 21.3353 16.3097Z" fill="#151515"/>
<path d="M8.96195 14.6011C8.96195 15.5251 8.96195 16.4491 8.96195 17.3718C8.39239 17.4739 8.37908 17.4741 8.37325 17.0254C8.3642 16.3281 8.35149 15.629 8.39463 14.934C8.40533 14.7615 8.62457 14.6023 8.74794 14.437C8.81921 14.4917 8.89054 14.5464 8.96195 14.6011Z" fill="#151515"/>
</svg>
