<svg width="32" height="32" viewBox="0 0 32 32" fill="none" xmlns="http://www.w3.org/2000/svg">
<path d="M1.58349 14.9644L1.6135 16.4535C1.61359 16.4606 1.61197 16.4675 1.60883 16.4734C1.6057 16.4793 1.60122 16.4838 1.59598 16.4864C1.59075 16.4889 1.585 16.4895 1.57953 16.4878C1.57405 16.4862 1.56909 16.4826 1.56533 16.4773L0.810322 15.4229C0.805824 15.4166 0.803298 15.4085 0.803215 15.4001V14.412C0.803102 14.4032 0.805642 14.3947 0.810322 14.3882L1.37184 13.6159C1.37447 13.6124 1.37765 13.6096 1.38119 13.6078C1.38472 13.6059 1.38853 13.605 1.39237 13.605L5.25584 13.6258C5.26294 13.626 5.26972 13.6295 5.27479 13.6357L5.86869 14.3743C5.87365 14.3807 5.87648 14.3892 5.87658 14.3981L5.88685 15.8743C5.88693 15.8813 5.88535 15.8881 5.88232 15.8939C5.87929 15.8996 5.87494 15.9042 5.86984 15.9068C5.86474 15.9095 5.85912 15.9102 5.85371 15.9088C5.84829 15.9074 5.84333 15.904 5.83947 15.8991L4.64931 14.3555C4.64677 14.3521 4.64371 14.3494 4.64032 14.3476C4.63693 14.3457 4.63327 14.3447 4.62957 14.3446H2.03839C2.03468 14.3447 2.03102 14.3457 2.02763 14.3476C2.02424 14.3494 2.02118 14.3521 2.01864 14.3555L1.59139 14.9407C1.58642 14.947 1.58359 14.9555 1.58349 14.9644Z" fill="#151515"/>
<path d="M11.607 14.8684C11.607 14.8486 11.5989 14.8387 11.5826 14.8387H11.0005C10.9842 14.8387 10.9744 14.8489 10.9713 14.8694L10.4919 18.2961C10.4856 18.3423 10.4635 18.3648 10.4256 18.3635L10.1942 18.3506C10.1652 18.3493 10.1486 18.3305 10.1444 18.2942C10.1023 17.9179 10.0512 17.5489 9.9912 17.1872C9.96329 17.0196 9.9625 16.8506 9.98883 16.6803C10.1326 15.7463 10.2821 14.7404 10.4374 13.6625C10.4427 13.6222 10.4614 13.6021 10.4935 13.6021H11.7966C11.8119 13.6021 11.8271 13.6062 11.841 13.6142C11.8549 13.6223 11.8672 13.634 11.8771 13.6486L12.3802 14.3753C12.3992 14.4017 12.4086 14.4328 12.4086 14.4684V18.3258C12.4086 18.3753 12.3889 18.4001 12.3494 18.4001H11.6607C11.6249 18.4001 11.607 18.3777 11.607 18.3328V14.8684Z" fill="#151515"/>
<path d="M17.6115 14.3447H15.029C15.0253 14.3447 15.0216 14.3456 15.0182 14.3475C15.0148 14.3494 15.0118 14.3521 15.0093 14.3555L14.5923 14.9298C14.5875 14.9363 14.585 14.9448 14.5852 14.9536L14.6081 16.4615C14.6081 16.4683 14.6064 16.4749 14.6034 16.4805C14.6003 16.486 14.596 16.4903 14.591 16.4928C14.586 16.4953 14.5805 16.4958 14.5752 16.4942C14.5699 16.4927 14.5652 16.4892 14.5615 16.4843L13.7883 15.4209C13.7838 15.4147 13.7812 15.4066 13.7812 15.3981V14.4159C13.7812 14.4075 13.7838 14.3994 13.7883 14.3932L14.3664 13.615C14.3689 13.6115 14.372 13.6088 14.3754 13.6069C14.3788 13.605 14.3825 13.6041 14.3862 13.6041L18.2449 13.6268C18.252 13.6269 18.2588 13.6304 18.2639 13.6367L18.8562 14.3803C18.8612 14.3866 18.864 14.3951 18.8641 14.4041L18.8696 15.8813C18.8698 15.8881 18.8682 15.8949 18.8652 15.9006C18.8623 15.9064 18.8579 15.9108 18.8529 15.9134C18.8478 15.916 18.8422 15.9166 18.8369 15.9151C18.8316 15.9136 18.8267 15.9101 18.823 15.9051L17.6305 14.3546C17.6255 14.3482 17.6186 14.3447 17.6115 14.3447Z" fill="#151515"/>
<path d="M21.1993 17.608L23.9966 17.607C24.0022 17.6072 24.0078 17.6051 24.0124 17.6011L24.5976 17.0763C24.601 17.0733 24.6037 17.0692 24.6056 17.0646C24.6076 17.06 24.6086 17.0548 24.6087 17.0496L24.6079 14.4516C24.6078 14.4466 24.6068 14.4417 24.605 14.4373C24.6033 14.4328 24.6007 14.4289 24.5976 14.4258L23.8363 13.6605C23.8318 13.6562 23.8285 13.6503 23.8269 13.6435C23.8253 13.6367 23.8254 13.6295 23.8272 13.6228C23.829 13.6161 23.8325 13.6103 23.8371 13.6063C23.8417 13.6022 23.8472 13.6 23.8529 13.6001L24.6497 13.6031C24.6558 13.6033 24.6617 13.6061 24.6663 13.611L25.4197 14.3902C25.4227 14.3934 25.4251 14.3973 25.4267 14.4018C25.4284 14.4062 25.4292 14.411 25.4292 14.4159L25.43 17.5536C25.4302 17.5623 25.4276 17.5709 25.4229 17.5773L24.8322 18.3595C24.8296 18.3629 24.8266 18.3657 24.8232 18.3675C24.8198 18.3694 24.8161 18.3704 24.8124 18.3704H20.3527C20.3456 18.3704 20.3387 18.3668 20.3337 18.3605C20.3287 18.3542 20.3258 18.3457 20.3258 18.3367V13.6367C20.3258 13.6278 20.3287 13.6192 20.3337 13.6129C20.3387 13.6066 20.3456 13.6031 20.3527 13.6031H23.3514C23.3575 13.6033 23.3633 13.6061 23.368 13.611L24.0732 14.3308C24.0777 14.3351 24.0811 14.3412 24.0827 14.348C24.0843 14.3549 24.0841 14.3622 24.0822 14.369C24.0802 14.3757 24.0766 14.3815 24.0719 14.3855C24.0672 14.3895 24.0615 14.3915 24.0558 14.3912L21.2001 14.3843C21.193 14.3843 21.1861 14.3878 21.1811 14.3941C21.1761 14.4004 21.1732 14.409 21.1732 14.4179L21.1724 17.5744C21.1724 17.5833 21.1753 17.5918 21.1803 17.5982C21.1853 17.6045 21.1922 17.608 21.1993 17.608Z" fill="#151515"/>
<path d="M27.9904 14.8595L27.1438 18.3466C27.1423 18.353 27.1391 18.3585 27.1349 18.3625C27.1306 18.3664 27.1254 18.3685 27.1201 18.3684L26.358 18.3714C26.3542 18.3714 26.3504 18.3703 26.3469 18.3682C26.3435 18.3661 26.3405 18.363 26.3382 18.3591C26.3359 18.3552 26.3343 18.3508 26.3336 18.346C26.333 18.3413 26.3332 18.3364 26.3343 18.3318L27.4139 13.6427C27.4154 13.6365 27.4184 13.631 27.4225 13.6271C27.4267 13.6232 27.4317 13.621 27.4368 13.6209L28.6333 13.6011C28.6385 13.6009 28.6436 13.6029 28.6479 13.6066C28.6521 13.6104 28.6553 13.6157 28.657 13.6219L28.9966 14.7991C28.998 14.8037 28.9985 14.8087 28.998 14.8137C28.9975 14.8186 28.9961 14.8233 28.9938 14.8274C28.9916 14.8315 28.9886 14.8349 28.9851 14.8372C28.9816 14.8395 28.9776 14.8407 28.9737 14.8407L28.0141 14.8377C28.0088 14.8376 28.0037 14.8397 27.9994 14.8436C27.9951 14.8476 27.992 14.8531 27.9904 14.8595Z" fill="#151515"/>
<path d="M29.8077 13.6278L31.1984 18.3228C31.1999 18.3282 31.2004 18.334 31.1998 18.3396C31.1992 18.3453 31.1974 18.3507 31.1948 18.3553C31.1922 18.36 31.1887 18.3638 31.1847 18.3664C31.1806 18.369 31.1761 18.3704 31.1716 18.3704L30.3573 18.3714C30.3515 18.3715 30.3459 18.3693 30.3411 18.3652C30.3363 18.3612 30.3326 18.3554 30.3305 18.3486L28.9374 13.6496C28.9357 13.6441 28.9351 13.6383 28.9356 13.6325C28.9362 13.6267 28.9379 13.6212 28.9405 13.6164C28.9432 13.6116 28.9467 13.6077 28.9508 13.605C28.955 13.6024 28.9596 13.601 28.9642 13.6011L29.7808 13.605C29.7866 13.6049 29.7923 13.6071 29.7971 13.6111C29.8019 13.6152 29.8056 13.621 29.8077 13.6278Z" fill="#151515"/>
<path d="M8.03177 14.8932L8.03019 18.3258C8.03019 18.3628 8.01545 18.3813 7.98596 18.3813H7.25465C7.22622 18.3813 7.21201 18.3638 7.21201 18.3288L7.2128 14.4981C7.2128 14.4645 7.22148 14.4344 7.23886 14.408L7.74193 13.6516C7.75562 13.6311 7.77326 13.6209 7.79484 13.6209H9.22587C9.23283 13.621 9.23954 13.6241 9.24487 13.6297C9.2502 13.6353 9.25381 13.643 9.25509 13.6516C9.46833 15.1711 9.68262 16.6918 9.89795 18.214C9.90375 18.2555 9.91454 18.2948 9.93033 18.3318C9.93318 18.3387 9.93455 18.3465 9.93431 18.3543C9.93408 18.3621 9.93225 18.3697 9.929 18.3763C9.92575 18.383 9.92118 18.3885 9.91575 18.3923C9.91031 18.3961 9.90418 18.3981 9.89795 18.3981L9.15006 18.4001C9.12479 18.4001 9.11004 18.3843 9.10583 18.3526L8.66436 14.8892C8.66173 14.8701 8.65251 14.8605 8.63672 14.8605L8.05862 14.8595C8.04072 14.8595 8.03177 14.8707 8.03177 14.8932Z" fill="#151515"/>
<path d="M2.01943 17.607H4.62483C4.63097 17.6072 4.63691 17.6043 4.64141 17.5991L5.08604 17.0734C5.08849 17.0706 5.09046 17.0673 5.09182 17.0635C5.09318 17.0598 5.0939 17.0557 5.09394 17.0516L5.08604 15.4793C5.08594 15.4733 5.08731 15.4674 5.08996 15.4623C5.0926 15.4573 5.0964 15.4534 5.10086 15.4512C5.10531 15.4489 5.11021 15.4484 5.1149 15.4497C5.11959 15.451 5.12385 15.4541 5.12711 15.4585L5.89633 16.4239C5.90079 16.4293 5.90335 16.4368 5.90344 16.4446V17.5357C5.90335 17.5436 5.90079 17.551 5.89633 17.5565L5.26453 18.3615C5.26227 18.3644 5.25956 18.3666 5.25657 18.3682C5.25359 18.3697 5.25038 18.3705 5.24715 18.3704H1.44134C1.43811 18.3705 1.4349 18.3697 1.43191 18.3682C1.42893 18.3666 1.42622 18.3644 1.42396 18.3615L0.811902 17.5872C0.807438 17.5817 0.804884 17.5743 0.804795 17.5664L0.800056 15.9417C0.799933 15.9355 0.801342 15.9295 0.804087 15.9243C0.806832 15.9192 0.810777 15.9153 0.815377 15.9131C0.819976 15.911 0.825001 15.9106 0.829755 15.9122C0.83451 15.9138 0.838759 15.9171 0.841913 15.9219L2.00127 17.5971C2.00355 17.6003 2.00635 17.6029 2.00949 17.6046C2.01262 17.6063 2.01602 17.6071 2.01943 17.607Z" fill="#151515"/>
<path d="M18.0917 17.0457L18.0909 15.4932C18.0909 15.4871 18.0923 15.4811 18.095 15.4761C18.0977 15.471 18.1015 15.467 18.106 15.4647C18.1105 15.4623 18.1154 15.4617 18.1202 15.4629C18.1249 15.4641 18.1293 15.4671 18.1327 15.4714L18.8735 16.4209C18.8758 16.4238 18.8776 16.4272 18.8788 16.4309C18.88 16.4346 18.8807 16.4387 18.8806 16.4427L18.8814 17.5397C18.8814 17.5438 18.8808 17.5478 18.8796 17.5515C18.8784 17.5552 18.8766 17.5586 18.8743 17.5615L18.2607 18.3605C18.2585 18.3635 18.2558 18.366 18.2528 18.3677C18.2498 18.3694 18.2466 18.3703 18.2433 18.3704H14.4209C14.4177 18.3704 14.4145 18.3697 14.4115 18.3681C14.4085 18.3666 14.4058 18.3643 14.4035 18.3615L13.7907 17.5813C13.7884 17.5784 13.7866 17.575 13.7854 17.5713C13.7842 17.5676 13.7836 17.5636 13.7836 17.5595L13.7765 15.9417C13.7762 15.9353 13.7776 15.9289 13.7804 15.9235C13.7833 15.9181 13.7874 15.9139 13.7922 15.9116C13.797 15.9093 13.8023 15.909 13.8072 15.9106C13.8122 15.9123 13.8166 15.9159 13.8199 15.9209L14.9943 17.5962C14.9965 17.5995 14.9993 17.6022 15.0024 17.6041C15.0055 17.6059 15.009 17.607 15.0124 17.607H17.6186C17.6247 17.6071 17.6306 17.6043 17.6352 17.5991L18.0838 17.0674C18.0862 17.0647 18.0881 17.0613 18.0895 17.0576C18.0908 17.0538 18.0916 17.0498 18.0917 17.0457Z" fill="#151515"/>
</svg>
