<svg width="32" height="32" viewBox="0 0 32 32" fill="none" xmlns="http://www.w3.org/2000/svg">
<path d="M5.13221 15.1206C4.43874 15.0764 3.76631 15.0339 3.094 14.9902C2.93275 14.9797 2.77076 14.9723 2.611 14.9502C2.40945 14.9223 2.33957 14.8066 2.45708 14.6336C2.64297 14.36 2.82771 14.0821 3.04785 13.8367C3.13345 13.7413 3.31271 13.6906 3.45137 13.6863C3.99389 13.6693 4.53749 13.6696 5.08012 13.6837C5.29929 13.6893 5.38546 13.6251 5.4435 13.4045C6.26345 10.2894 8.10754 7.95693 10.9685 6.43388C12.7002 5.51192 14.5699 5.10553 16.5302 5.21834C19.6056 5.39531 22.189 6.6262 24.212 8.93563C26.1052 11.097 26.9761 13.6287 26.8657 16.4897C26.8617 16.5933 26.8616 16.6972 26.8619 16.8008C26.862 16.8183 26.8736 16.8358 26.8907 16.8834C27.283 16.9126 27.6883 16.9452 28.0939 16.9723C28.4927 16.9989 28.8921 17.0176 29.2908 17.0443C29.6178 17.0662 29.681 17.1936 29.5012 17.4564C29.4906 17.472 29.4767 17.4859 29.4685 17.5027C29.1372 18.188 28.6086 18.471 27.8365 18.3451C27.5212 18.2936 27.1896 18.3474 26.8664 18.3325C26.6748 18.3237 26.6095 18.396 26.5657 18.5754C26.1627 20.2256 25.4072 21.7026 24.2919 22.9921C22.5736 24.9791 20.4166 26.2397 17.8056 26.6461C14.1132 27.2206 10.9094 26.1837 8.25346 23.5783C6.65198 22.0073 5.66935 20.0878 5.2906 17.8903C5.16023 17.134 5.17933 16.3523 5.13341 15.582C5.12501 15.4414 5.13221 15.2999 5.13221 15.1206ZM6.97242 13.679C7.10073 13.679 7.22023 13.679 7.33974 13.679C11.7419 13.679 16.1441 13.678 20.5463 13.6842C20.6808 13.6844 20.8152 13.7603 20.9497 13.8009C20.8569 13.9067 20.7809 14.0363 20.6684 14.1144C19.8651 14.6717 19.054 15.218 18.2462 15.7688C18.0165 15.9255 17.7893 16.0856 17.5609 16.2442C17.5686 16.2649 17.5763 16.2857 17.584 16.3065C20.1589 16.4689 22.7338 16.6312 25.3065 16.7935C25.8153 12.3442 22.4398 7.30815 16.8732 6.75441C11.9383 6.26353 7.87522 9.80487 6.97242 13.679ZM6.64483 15.2092C6.49571 18.4957 7.60911 21.2231 10.1896 23.24C13.1603 25.5618 16.4718 25.9729 19.9241 24.4122C22.5669 23.2175 24.2374 21.1345 25.0707 18.3366C24.8974 18.3366 24.784 18.3366 24.6706 18.3366C20.2509 18.3366 15.8312 18.3376 11.4114 18.3312C11.2982 18.331 11.185 18.2503 11.0719 18.2071C11.1417 18.1166 11.1944 18.0019 11.2841 17.9393C12.0855 17.3803 12.894 16.8311 13.6992 16.2775C13.9519 16.1038 14.2012 15.9252 14.5235 15.6985C11.8541 15.5327 9.27846 15.3728 6.64483 15.2092Z" fill="#151515"/>
</svg>
