<svg width="32" height="32" viewBox="0 0 32 32" fill="none" xmlns="http://www.w3.org/2000/svg">
<path d="M24.5995 11.0338C24.9689 11.5007 25.4816 11.8546 25.9498 12.2337C26.0576 12.321 26.2478 12.3028 26.4 12.3333C26.3886 12.1711 26.3792 12.0087 26.3642 11.8469C26.3607 11.8093 26.3445 11.7693 26.3234 11.7377C25.8989 11.1001 25.9261 10.4453 26.2456 9.77722C26.2734 9.71917 26.2875 9.65389 26.3044 9.59097C26.5915 8.52728 26.2025 7.48846 25.3273 6.97999C24.4584 6.47521 23.2242 6.65621 22.5513 7.47708C22.2246 7.87555 22.0477 8.40097 21.8409 8.79646C21.4642 8.07161 21.0608 7.22736 20.5957 6.41967C20.1548 5.65402 19.5269 5.18345 18.6203 4.95985C17.5198 4.68848 16.5299 4.76654 15.4825 5.16501C14.6553 5.4797 13.9541 6.1246 13.0148 6.1457C12.8644 6.14907 12.6854 6.17104 12.573 6.25679C12.4381 6.3598 12.2431 6.58725 12.2787 6.67896C12.4142 7.02895 12.5594 7.49717 12.8382 7.63572C13.1585 7.79482 13.6304 7.8692 14.0115 7.4952C14.5654 6.95151 15.4552 7.16208 15.7381 7.89619C15.5855 7.94962 15.4341 8.04172 15.2787 8.04933C14.8581 8.07012 14.4345 8.03521 14.0143 8.06039C13.673 8.08079 13.3145 8.09782 12.9841 8.40591C13.875 8.7235 14.739 8.57349 15.6582 8.65022C14.8836 9.32728 13.9996 8.94858 13.2264 9.10471C13.1579 9.97626 13.8318 9.89444 14.4557 9.96756C14.1197 10.6018 13.8336 11.1416 13.5529 11.6714C12.0727 10.4918 10.672 9.3633 9.2547 8.257C8.98651 8.04768 8.66666 7.83931 8.34489 7.78329C7.76797 7.68287 7.17075 7.66388 6.58356 7.67793C6.20697 7.68687 5.82437 7.80094 5.63345 8.24053C5.74184 8.28689 5.82831 8.32385 5.92095 8.36347C5.54621 8.83404 5.50908 9.11993 5.76045 9.59795C6.35474 9.47847 6.86689 9.59427 7.18024 10.1951C7.03287 10.334 6.90024 10.4591 6.76768 10.5841C6.78019 10.6359 6.79262 10.6877 6.80513 10.7395C7.42651 10.7534 8.04921 10.7957 8.66852 10.766C8.8836 10.7557 8.99886 10.7946 9.11674 10.9533C9.45766 11.4121 9.80352 11.8671 10.1524 12.3198C10.3539 12.5813 10.5648 12.8352 10.8325 13.1687C9.56065 13.2161 8.38233 13.2682 7.20348 13.2992C6.82913 13.3091 6.51207 13.4267 6.29251 13.7233C5.9299 14.2129 5.87872 14.7907 5.92612 15.3407C6.1131 15.4265 6.25708 15.5321 6.38029 15.6587C6.57808 15.8618 6.76212 16.0788 6.97929 16.3203C7.34414 15.7868 7.75848 15.6122 8.28414 15.7058C8.29842 15.9046 8.31023 16.0689 8.32274 16.2431C8.82531 16.2633 9.33128 16.1791 9.54359 15.7585C9.81093 15.2289 10.2016 15.2411 10.6476 15.2451C10.8404 15.2468 11.0376 15.2598 11.2256 15.2262C12.1242 15.0654 12.8021 15.3307 13.275 16.1693C13.4991 16.5668 13.8518 16.8893 14.1547 17.256C12.7839 18.716 11.8364 20.4083 10.9124 22.1154C10.8504 22.2301 10.8158 22.4295 10.8721 22.5281C11.0673 22.8695 11.1043 23.1977 10.8756 23.5181C10.6199 23.8762 10.2385 23.8825 9.86096 23.8034C9.54806 23.7379 9.24752 23.6126 8.93525 23.5426C8.37176 23.4165 7.81638 23.6358 7.56493 24.0993C7.31967 24.5515 7.10845 25.0227 6.89877 25.452C7.36522 25.7118 7.88153 25.8981 8.26337 26.2398C8.67068 26.6042 9.00117 26.6782 9.52961 26.533C10.512 26.263 11.4878 26.5459 12.45 26.7904C12.5752 26.8223 12.8031 26.8413 12.8296 26.7878C12.8899 26.6655 12.9022 26.4749 12.8507 26.3467C12.6053 25.7353 12.7499 25.2156 13.1817 24.767C14.2249 23.6832 15.2757 22.607 16.3294 21.5337C16.5913 21.2669 16.8754 21.0226 17.1577 20.7601C17.2629 20.8299 17.3479 20.8846 17.4313 20.9418C18.2513 21.5042 19.0696 22.0692 19.8915 22.6287C20.235 22.8625 20.5691 23.0346 21.0335 22.9293C21.5112 22.8208 21.8961 23.2297 21.9115 23.7372C21.9255 24.1965 21.627 24.4696 21.1069 24.459C20.9542 24.4558 20.8014 24.4258 20.6501 24.3994C19.7603 24.2445 19.2144 24.6003 19.0667 25.4359C19.0041 25.7895 18.9437 26.1436 18.8977 26.4087C19.5423 26.6614 20.1672 26.9178 20.8014 27.1473C20.9611 27.2051 21.1583 27.2144 21.3253 27.1801C21.6503 27.1134 21.9633 26.9886 22.2862 26.9085C23.0376 26.722 23.7645 26.943 24.4988 27.0555C24.6457 27.078 24.8851 27.0738 24.9371 26.9895C25.0032 26.8824 24.9326 26.6791 24.9017 26.5212C24.8228 26.1166 24.6724 25.7163 24.6598 25.3108C24.6256 24.2132 24.6481 23.1139 24.6481 22.0152C24.6481 21.8765 24.6481 21.7378 24.6481 21.5895C24.4362 21.5895 24.2818 21.5977 24.1286 21.5879C23.6578 21.5578 23.2259 21.4258 23.0149 20.9511C22.7201 20.2878 22.4561 19.6103 22.1945 18.9769C22.7114 18.817 23.2454 18.7092 23.7307 18.4902C24.8559 17.9824 25.3951 16.9555 25.1014 15.7375C24.8586 14.7304 24.4777 13.7569 24.1455 12.7729C23.7883 11.7145 23.3987 10.667 23.0587 9.60305C22.8986 9.10188 23.043 8.61821 23.3509 8.19895C23.6021 7.8568 23.9787 7.73018 24.3379 7.8419C24.6901 7.95142 24.7353 8.06949 24.5542 8.39587C24.0607 9.28492 23.9408 10.2011 24.5995 11.0338ZM16.1187 6.05822C15.7761 6.19489 15.4264 6.31336 15.0498 6.44877C14.9019 5.87087 14.9252 5.83659 15.4276 5.79061C15.6315 5.77194 15.8347 5.7302 16.0381 5.73122C16.117 5.73162 16.1955 5.82105 16.2742 5.86993C16.2231 5.9345 16.1846 6.03194 16.1187 6.05822ZM23.7904 15.0111C23.8696 15.2273 23.8929 15.4672 23.9237 15.6986C24.0957 16.9896 23.3866 17.4695 22.3634 17.6106C21.7838 17.6904 21.272 17.611 20.9436 16.98C20.6513 16.4184 20.2336 15.9254 19.9009 15.3834C19.813 15.2401 19.7757 15.0122 19.8164 14.8493C19.9736 14.2195 20.1717 13.6003 20.367 12.935C20.5647 13.0047 20.7423 13.0674 20.978 13.1506C21.297 12.1336 21.6097 11.1368 21.9236 10.1363C21.9479 10.1431 21.9787 10.1435 21.9827 10.1541C22.5881 11.7719 23.1958 13.3891 23.7904 15.0111Z" fill="#151515"/>
</svg>
