<svg width="32" height="32" viewBox="0 0 32 32" fill="none" xmlns="http://www.w3.org/2000/svg">
<path d="M17.3871 22.0902C17.535 21.9771 17.8655 21.864 18.0481 21.7858C18.0394 21.5074 17.9263 21.2465 17.9959 21.0117C18.1177 20.5942 18.4047 20.4116 18.683 20.3768C18.7004 20.3855 18.7178 20.4203 18.7004 20.429C18.5439 20.5768 18.483 20.7855 18.4569 21.0117C18.4482 21.0987 18.4308 21.3683 18.5091 21.5596C18.6743 21.4726 19.0744 21.3335 19.2049 21.3074C19.2223 21.0291 19.2657 20.7595 19.344 20.5594C19.5006 20.168 19.8485 19.8549 20.1964 20.0376C20.2138 20.0463 20.2312 20.0811 20.2138 20.0898C19.9963 20.168 19.8572 20.3942 19.7354 20.6551C19.7006 20.7334 19.5788 21.1508 19.718 21.2378C19.718 21.2378 19.7267 21.2378 19.7267 21.2465C19.9789 21.1943 20.0224 21.2204 20.292 21.1943C20.3355 20.9247 20.4573 20.6899 20.5617 20.5159C20.7182 20.2115 21.127 19.968 21.4923 20.1854C21.5097 20.1941 21.5271 20.2376 21.501 20.2376C21.2488 20.2898 21.0835 20.455 20.9965 20.6029C20.953 20.6725 20.7182 20.9943 20.84 21.1247C20.8487 21.1247 20.8661 21.1247 20.8835 21.1247C21.1009 21.116 21.2575 21.1595 21.4836 21.203C21.5532 21.0378 21.614 21.0204 21.6836 20.9334C21.9359 20.629 22.362 20.5246 22.5099 20.8116C22.5273 20.829 22.5273 20.8638 22.5099 20.8638C22.3794 20.8812 22.162 20.9508 22.0576 21.0813C22.0315 21.1074 21.9619 21.1856 21.8924 21.3335C22.1881 21.5596 22.3533 21.7423 22.4316 22.0467C22.449 22.0989 22.4751 22.412 22.3707 22.2554C21.8924 21.6553 21.2488 21.5248 20.2833 21.6205C19.2483 21.7162 18.77 21.8727 17.735 22.4294C18.309 22.9425 17.448 23.447 17.3088 22.6903C16.8044 23.4557 16.2738 22.4902 16.9522 22.3511C16.2564 21.6727 17.2045 21.3596 17.3871 22.0902Z" fill="#151515"/>
<path d="M19.1528 18.785C19.5268 18.6633 19.9356 18.5328 20.1443 18.4893C20.1791 17.8805 20.7532 17.1238 21.4316 17.3847C21.4576 17.3934 21.475 17.4282 21.449 17.4369C21.275 17.4891 20.7184 18.0197 20.9097 18.3589C21.0489 18.3675 21.4316 18.3588 21.5446 18.3675C21.6925 17.6978 22.2752 17.2282 22.9362 17.5326C22.9623 17.5413 22.9797 17.5848 22.9536 17.5848C22.6927 17.6283 22.1013 18.0457 22.1708 18.4023C22.2926 18.411 22.6231 18.5241 22.8318 18.6372C22.9101 18.4719 22.9971 18.411 23.0754 18.3241C23.3624 18.0197 23.9538 17.9936 24.1278 18.2893C24.1451 18.3067 24.1451 18.3415 24.1278 18.3415C23.8755 18.3328 23.6494 18.3675 23.432 18.5589C23.3972 18.585 23.3276 18.6894 23.2493 18.8372C23.4581 18.9503 23.6929 19.1677 23.7364 19.3764C23.7712 19.4808 23.7886 19.5678 23.7712 19.6722C23.7625 19.6983 23.7103 19.6722 23.6929 19.6548C23.1449 19.0546 21.936 18.6807 20.7619 18.8285C19.9791 18.9242 19.2137 19.1416 18.5788 19.4199C18.7962 19.2286 18.9876 19.0199 19.1528 18.785ZM17.4307 20.1418C17.3786 20.194 17.3264 20.2375 17.2829 20.2897C17.5612 20.6724 17.1176 20.9768 16.9872 20.5941C16.6567 20.9507 16.3958 20.5332 16.6132 20.3593C16.8915 20.3158 17.1698 20.2462 17.4307 20.1418Z" fill="#151515"/>
<path d="M17.2391 25.2737C17.3174 25.1867 17.5087 25.0215 17.6044 24.9432C17.3087 24.4823 17.4739 23.8908 17.7609 23.8473C17.7783 23.856 17.787 23.8821 17.7783 23.8995C17.7 24.0126 17.6652 24.6214 17.8914 24.7519C18.0044 24.6736 18.2219 24.517 18.3176 24.4909C18.1523 23.9343 18.4393 23.1863 18.996 23.3081C19.0133 23.3168 19.022 23.3516 19.0133 23.3603C18.5611 23.5951 18.5524 24.2909 18.6741 24.3692C18.8568 24.317 19.0568 24.2387 19.2569 24.2213C19.3438 23.482 19.9962 23.1515 20.3267 23.3429C20.3441 23.3516 20.3527 23.3951 20.3441 23.3951C20.1614 23.2907 19.4743 23.9952 19.7004 24.2039C19.857 24.1952 20.0396 24.2648 20.2223 24.3083C20.3006 23.8995 20.8746 23.5603 21.1181 23.8212C21.1355 23.8386 21.1355 23.8734 21.1268 23.8734C20.9094 23.9169 20.6224 24.117 20.5789 24.4996C21.0398 24.7171 20.9877 25.1693 20.9094 25.0476C20.4745 24.4736 19.5526 24.5692 18.8481 24.7171C18.4393 24.8041 17.8653 25.1954 17.6218 25.4738C18.361 25.8217 17.6913 26.474 17.3782 25.7347C16.8651 26.6392 16.3606 25.813 16.9608 25.5694C16.2302 25.0041 16.9868 24.6214 17.2391 25.2737Z" fill="#151515"/>
<path d="M9.79429 24.5855C9.06371 23.7419 8.44619 22.8287 7.95044 21.9067H15.9521V24.5855H9.79429Z" fill="#151515"/>
<path d="M19.8052 11.4958H25.6846V13.8007H19.8052V11.4958Z" fill="#151515"/>
<path d="M25.6844 8.00029L23.9449 7.38277L21.9184 6.97399L19.6397 6.47824L17.5262 6.31299H15.9172V8.73957H25.6757L25.6844 8.00029Z" fill="#151515"/>
<path d="M7.57662 5.278C7.81145 5.19972 8.04628 5.13015 8.28981 5.06057C8.37678 5.03447 8.46376 5.00838 8.55943 4.99099C8.6551 4.97359 8.75077 4.96489 8.84645 4.99099L8.88123 5.00838C8.91602 5.02578 8.93342 5.05187 8.95081 5.08666C8.97691 5.14754 8.9856 5.20842 8.9943 5.278C9.0117 5.41716 9.0117 5.55632 8.9943 5.69548C8.9856 5.80854 8.96821 5.92161 8.92472 6.01728C8.90733 6.06077 8.88123 6.09556 8.84645 6.13035C8.82035 6.15644 8.79426 6.18253 8.76817 6.19993C8.70729 6.24341 8.6551 6.2782 8.58552 6.3043C8.42897 6.37388 8.27242 6.42606 8.10716 6.47824C7.82885 6.57392 7.55053 6.66959 7.27221 6.76526V7.27841C7.13305 7.33059 6.9939 7.39147 6.85474 7.44366V5.51283C7.09826 5.43455 7.33309 5.35628 7.57662 5.278ZM7.27221 6.41736C7.55053 6.32169 7.82885 6.22602 8.11586 6.13035C8.20284 6.10426 8.28981 6.07816 8.36809 6.04337L8.42897 6.00858L8.45506 5.99119L8.48115 5.9651L8.50725 5.939L8.52464 5.91291L8.55073 5.86073C8.55943 5.82594 8.56813 5.79985 8.56813 5.76506C8.57683 5.67808 8.57683 5.59981 8.55073 5.51283L8.53334 5.46934L8.51594 5.43455L8.48985 5.40846L8.45506 5.39107L8.42027 5.38237H8.38548H8.35069C8.26372 5.39107 8.18544 5.41716 8.09847 5.44325C7.82015 5.53023 7.54183 5.6259 7.26352 5.71287L7.27221 6.41736ZM10.8121 4.39956C11.0034 4.36477 11.1861 4.32998 11.3774 4.31259C11.4383 4.30389 11.4992 4.30389 11.56 4.30389C11.5861 4.30389 11.6209 4.31259 11.647 4.32129C11.6731 4.32998 11.6905 4.33868 11.7166 4.35608C11.734 4.37347 11.7514 4.38217 11.7688 4.39956C11.7862 4.41696 11.7949 4.44305 11.8036 4.46044C11.821 4.49523 11.8297 4.52133 11.8297 4.55612C11.8471 4.66918 11.8558 4.79095 11.8644 4.91271C11.8731 5.05187 11.8731 5.18233 11.8644 5.31279C11.8644 5.36498 11.8644 5.42586 11.8558 5.47804C11.8471 5.58241 11.8471 5.68678 11.821 5.79115C11.8123 5.81724 11.8036 5.84333 11.7949 5.86073C11.7775 5.89552 11.7601 5.93031 11.734 5.9651L11.6818 6.04337L11.6035 6.09556C11.5687 6.11295 11.5426 6.12165 11.5079 6.13905C11.3687 6.18253 11.2295 6.20862 11.0904 6.24341C10.8034 6.3043 10.5163 6.35648 10.2293 6.41736C10.0902 6.44345 9.95102 6.46955 9.81186 6.48694C9.77707 6.49564 9.73358 6.49564 9.69879 6.49564L9.61182 6.48694C9.58573 6.47824 9.56833 6.46955 9.55094 6.46085L9.50745 6.42606L9.47266 6.37388L9.42047 6.08686V5.31279C9.42917 5.22582 9.43787 5.13015 9.45526 5.04317L9.48136 4.96489C9.49875 4.92141 9.51615 4.88662 9.54224 4.85183L9.60312 4.78225L9.6553 4.73876C9.70749 4.70397 9.76837 4.66918 9.83795 4.64309L10.1511 4.54742C10.3511 4.48654 10.5772 4.44305 10.8121 4.39956ZM10.5946 4.79095L10.1424 4.89531C10.1076 4.90401 10.0728 4.92141 10.038 4.9301L10.0032 4.9562L9.96841 4.98229L9.94232 5.00838L9.91623 5.03447L9.89013 5.06057L9.87274 5.09536C9.85535 5.12145 9.84665 5.15624 9.83795 5.18233C9.81186 5.2954 9.81186 5.40846 9.81186 5.52153C9.81186 5.64329 9.81186 5.76506 9.82925 5.87812L9.84665 5.92161L9.87274 5.9651L9.90753 5.99989L9.94232 6.02598L9.98581 6.04337L10.0293 6.05207H10.0815C10.1163 6.05207 10.1424 6.05207 10.1685 6.04337C10.3424 6.01728 10.5163 5.98249 10.6903 5.9477C10.8295 5.92161 10.9773 5.88682 11.1165 5.85203C11.1426 5.84333 11.1774 5.83464 11.2034 5.82594L11.2469 5.79985L11.2904 5.77375L11.3252 5.73896L11.36 5.70417L11.3861 5.66069L11.4035 5.6172L11.4209 5.57371C11.447 5.44325 11.4383 5.32149 11.4383 5.19103C11.4383 5.12145 11.4383 5.05187 11.4296 4.99099L11.4209 4.9388C11.4122 4.90401 11.4035 4.86922 11.3861 4.83443L11.3687 4.79964L11.3513 4.77355L11.3252 4.74746L11.3078 4.73876L11.273 4.72137L11.2382 4.71267L11.1687 4.70397C11.0904 4.70397 11.0208 4.71267 10.9512 4.72137C10.8295 4.74746 10.7077 4.77355 10.5946 4.79095ZM13.4648 4.07776C13.6822 4.06036 13.8996 4.04297 14.1171 4.04297C14.1606 4.04297 14.2128 4.04297 14.2562 4.04297C14.3084 4.04297 14.3519 4.05167 14.3954 4.07776C14.4128 4.08646 14.4302 4.09515 14.4389 4.10385C14.4737 4.12994 14.4998 4.15603 14.5172 4.19952C14.5346 4.22561 14.5433 4.2604 14.552 4.2865C14.5693 4.35608 14.5693 4.43435 14.5693 4.50393C14.5693 4.5996 14.5693 4.68658 14.5606 4.78225C14.5606 4.81704 14.5519 4.85183 14.5433 4.88662L14.5259 4.92141C14.5085 4.9475 14.4998 4.96489 14.4824 4.99099L14.4389 5.02578C14.4215 5.03447 14.4041 5.05187 14.378 5.06057C14.3519 5.06926 14.3171 5.07796 14.291 5.08666L14.0562 5.13884L14.291 5.2693C14.3258 5.2954 14.3519 5.31279 14.378 5.33888L14.4041 5.37367C14.4389 5.42586 14.465 5.47804 14.4911 5.53892C14.5259 5.64329 14.5433 5.74766 14.5433 5.85203C14.4041 5.86073 14.2649 5.86073 14.1258 5.86943C14.1171 5.79115 14.1084 5.72157 14.0823 5.64329L14.0475 5.55632L14.0301 5.51283L14.004 5.47804L13.9779 5.44325L13.9431 5.41716L13.8996 5.39107C13.8736 5.38237 13.8475 5.37367 13.8214 5.37367C13.7692 5.36498 13.7083 5.37367 13.6561 5.37367C13.3865 5.39107 13.1256 5.41716 12.856 5.44325L12.7516 5.45195V5.9651C12.6124 5.98249 12.4733 5.99989 12.3341 6.00858V4.18213C12.7168 4.13864 13.0908 4.10385 13.4648 4.07776ZM12.7603 5.13884C13.0386 5.11275 13.3169 5.08666 13.5952 5.06926C13.6909 5.06057 13.7866 5.05187 13.8822 5.04317C13.9083 5.04317 13.9344 5.03447 13.9605 5.02578L13.9953 5.01708L14.0301 4.99968L14.0562 4.98229L14.0823 4.9562L14.0997 4.9301L14.1171 4.90401C14.1258 4.87792 14.1345 4.86053 14.1345 4.83443C14.1432 4.75616 14.1432 4.67788 14.1432 4.5996C14.1432 4.57351 14.1345 4.54742 14.1258 4.51263L14.1084 4.48654L14.091 4.46044L14.0649 4.43435L14.0388 4.41696L14.0127 4.39956L13.9779 4.39086C13.9518 4.38217 13.9257 4.38217 13.8996 4.38217C13.7605 4.38217 13.6213 4.39956 13.4909 4.40826C13.2473 4.42565 13.0125 4.45175 12.769 4.46914L12.7603 5.13884ZM15.7174 5.56502C15.874 5.56502 16.0305 5.56502 16.1958 5.56502C16.3001 5.56502 16.4132 5.56502 16.5263 5.55632C16.5524 5.55632 16.5698 5.54762 16.5958 5.54762C16.6219 5.53892 16.6393 5.53023 16.6567 5.52153L16.6828 5.50413L16.7002 5.47804L16.7176 5.45195L16.7263 5.42586L16.735 5.36498V5.278L16.7176 5.18233L16.7089 5.15624L16.7002 5.13015L16.6828 5.10405L16.6567 5.08666L16.6306 5.06926L16.5698 5.05187L16.4654 5.03447H16.3349H15.4565C15.3695 5.03447 15.2825 5.03447 15.2043 5.01708C15.1782 5.00838 15.1608 5.00838 15.1434 4.99968L15.1173 4.98229L15.0912 4.96489L15.0738 4.9475L15.0564 4.92141L15.039 4.89531C15.0216 4.86053 15.0042 4.82574 14.9955 4.79095C14.9781 4.69527 14.9781 4.59091 14.9781 4.49523C14.9781 4.37347 14.9868 4.25171 15.039 4.13864C15.0477 4.12124 15.0651 4.10385 15.0738 4.08646C15.1347 4.03427 15.213 4.00818 15.2912 3.99078C15.3695 3.97339 15.4565 3.97339 15.5348 3.97339C15.7261 3.97339 15.9174 3.97339 16.1088 3.97339C16.4219 3.97339 16.7437 3.98209 17.0568 3.99078V4.2691C16.6393 4.2604 16.2219 4.25171 15.8044 4.25171C15.7087 4.25171 15.613 4.25171 15.5174 4.2604C15.5 4.2604 15.4739 4.2691 15.4565 4.2691L15.4217 4.2865L15.3956 4.31259L15.3782 4.34738L15.3695 4.38217L15.3608 4.44305C15.3608 4.49523 15.3608 4.53872 15.3608 4.59091L15.3695 4.62569L15.3782 4.66048L15.4043 4.69527L15.4478 4.72137L15.4913 4.73006C15.9261 4.73876 16.3697 4.74746 16.8046 4.76485L16.8568 4.77355C16.9263 4.79095 16.9959 4.81704 17.0481 4.86922C17.0742 4.89531 17.0916 4.92141 17.1003 4.9475C17.1438 5.04317 17.1525 5.15624 17.1525 5.26061C17.1525 5.38237 17.1525 5.50413 17.1177 5.6172C17.109 5.6346 17.109 5.65199 17.1003 5.66938L17.0742 5.70417C17.0568 5.73027 17.0394 5.74766 17.0133 5.76506C16.9698 5.79115 16.9263 5.81724 16.8829 5.82594C16.8133 5.84333 16.735 5.84333 16.6654 5.85203C16.448 5.86073 16.2392 5.86073 16.0218 5.86073C15.6826 5.86073 15.3434 5.86943 15.0129 5.86943C15.0129 5.77375 15.0129 5.66939 15.0129 5.57371C15.239 5.56502 15.4652 5.56502 15.6913 5.56502H15.7174ZM18.5962 5.9477C18.4223 5.93031 18.2397 5.92161 18.0657 5.89552C17.9874 5.88682 17.9092 5.86943 17.8396 5.84333C17.8048 5.82594 17.77 5.81724 17.7352 5.79115C17.7091 5.77375 17.6917 5.75636 17.6656 5.73896C17.6482 5.72157 17.6308 5.69548 17.6134 5.67808C17.596 5.65199 17.5873 5.6259 17.5787 5.59981C17.5526 5.50413 17.5439 5.39977 17.5439 5.2954C17.5352 5.04317 17.5352 4.79964 17.5439 4.54742V4.48654C17.5526 4.37347 17.5613 4.2604 17.6308 4.16473C17.6569 4.13864 17.6743 4.11255 17.7091 4.09515C17.7961 4.05167 17.9005 4.03427 17.9961 4.02557C18.1005 4.01688 18.1962 4.01688 18.3005 4.02557C18.5006 4.03427 18.7093 4.04297 18.9094 4.06036C19.2051 4.08646 19.4921 4.11255 19.7878 4.14734V4.47784C19.3964 4.44305 19.0137 4.40826 18.6223 4.38217C18.5006 4.37347 18.3701 4.36477 18.2397 4.37347L18.1788 4.38217L18.1353 4.39086L18.1005 4.40826L18.0657 4.43435L18.0309 4.46914L18.0048 4.50393L17.9874 4.54742C17.9787 4.57351 17.97 4.5996 17.97 4.62569C17.9526 4.74746 17.9439 4.87792 17.9526 5.00838C17.9526 5.11275 17.9526 5.21712 17.97 5.32149C17.9787 5.34758 17.9787 5.37367 17.9874 5.39977L18.0048 5.44325L18.0309 5.47804L18.0657 5.51283L18.1005 5.53892L18.1353 5.55632L18.1788 5.57371C18.2136 5.58241 18.2484 5.59111 18.2831 5.59111C18.3962 5.6085 18.518 5.6172 18.631 5.6259C19.0224 5.66069 19.4225 5.69548 19.8139 5.73896C19.8139 5.84333 19.8139 5.939 19.8139 6.04337V6.07816C19.5704 6.05207 19.3181 6.02598 19.0746 6.00858C18.9268 5.97379 18.7615 5.9651 18.5962 5.9477ZM21.2577 5.12145C21.5795 5.18233 21.9013 5.24321 22.2231 5.30409V4.56481C22.3709 4.5996 22.5188 4.63439 22.6753 4.66048V6.56522C22.5275 6.53043 22.3796 6.49564 22.2231 6.46085V5.71287C21.9621 5.66069 21.7099 5.6085 21.449 5.55632C21.2142 5.51283 20.9706 5.46934 20.7358 5.42586V6.16514C20.588 6.13905 20.4401 6.12165 20.2835 6.09556V4.24301C20.4314 4.2604 20.588 4.2778 20.7358 4.30389V5.03447C20.9098 5.06057 21.0837 5.08666 21.2577 5.12145ZM24.6757 5.24321C24.8323 5.2954 24.9889 5.34758 25.1541 5.39977V5.71287C24.6931 5.55632 24.2235 5.40846 23.7538 5.26061L23.5973 5.21712V5.69548C23.9365 5.79985 24.2844 5.90422 24.6236 6.01728C24.7714 6.06947 24.928 6.11295 25.0758 6.16514V6.44345C24.641 6.2956 24.1974 6.15644 23.7538 6.02598L23.5973 5.98249V6.48694C23.9278 6.58261 24.2583 6.68698 24.5801 6.79135C24.7714 6.85223 24.9628 6.92181 25.1628 6.98269V7.3045C24.5366 7.09576 23.9017 6.90442 23.2581 6.72177L23.1885 6.70438V4.79095C23.6842 4.9301 24.18 5.08666 24.6757 5.24321Z" fill="#151515"/>
<path d="M6.82843 19.2376C6.55011 18.3069 6.40225 17.4372 6.39355 16.6892H12.2208C12.2382 17.672 12.647 18.5765 13.2906 19.2376H6.82843Z" fill="#151515"/>
<path d="M6.13275 5.19103L6.24582 5.14754C9.49865 3.9473 12.7428 3.32108 15.9956 3.2602C19.2485 3.20802 22.4926 3.72117 25.7454 4.81704L25.8672 4.86053V4.98229C25.8411 8.88743 25.815 12.7926 25.7889 16.6977C25.7802 18.7155 24.7191 21.5509 22.7187 24.0296C21.1097 26.03 18.8832 27.8043 16.1 28.7436H16.0043C13.1951 28.0217 10.9772 26.3171 9.35949 24.3253C7.28951 21.7596 6.22842 18.6981 6.21973 16.6194C6.20233 14.7321 6.19363 12.8448 6.17624 10.9661L6.13275 5.19103ZM9.92482 24.4819H15.8391V22.1075H8.25492C8.22883 22.064 8.20274 22.0205 8.18534 21.977C8.59412 22.7076 9.07248 23.4295 9.62042 24.1166C9.72478 24.2384 9.82046 24.3601 9.92482 24.4819ZM15.8478 24.7776H10.1944C11.6556 26.3779 13.543 27.7086 15.8478 28.3523V24.7776ZM10.0727 24.6472C10.064 24.6385 10.064 24.6385 10.064 24.6298C10.064 24.6385 10.0727 24.6472 10.0727 24.6472ZM8.08967 21.8031H15.8478V20.4028C15.9086 20.4028 15.9695 20.4028 16.0304 20.4028C16.0739 20.4028 16.1087 20.4028 16.1522 20.4028V28.3609C16.1435 28.3609 16.1348 28.3696 16.1348 28.3696C18.7788 27.4477 20.901 25.743 22.4491 23.8209C24.3712 21.4378 25.3975 18.7242 25.441 16.776C25.441 16.7847 25.441 16.7847 25.441 16.7934H19.8486C19.8486 16.7325 19.8573 16.6716 19.8573 16.6107V16.489H25.4497C25.4584 15.654 25.4584 14.8191 25.4671 13.9928H19.8573V13.6971H25.4671C25.4758 13.0187 25.4758 12.349 25.4845 11.6793H19.8573V11.3836H19.8138V11.3749H25.4845C25.4932 10.5573 25.4932 9.74848 25.5019 8.93092H16.0652V11.3836H15.7608V6.45216C12.6645 6.50434 9.55953 7.12186 6.44586 8.3308L6.43716 8.01769C9.63781 6.78266 12.8385 6.17384 16.0304 6.14775C19.1963 6.12165 22.3534 6.66959 25.5019 7.75677C25.5019 7.86114 25.5019 7.96551 25.5019 8.06987C25.5106 7.07837 25.5193 6.08686 25.5193 5.10406C22.3447 4.05167 19.1702 3.55592 16.0043 3.6081C12.7863 3.66028 9.57693 4.2778 6.36758 5.46935L6.52414 10.9661C6.54153 12.81 6.55023 14.6538 6.56762 16.5064C6.56762 16.5064 6.56762 16.5064 6.56762 16.4977H12.2296V16.6194C12.2296 16.6803 12.2296 16.7412 12.2383 16.8021H6.55893C6.57632 17.4979 6.72418 18.3067 6.9764 19.1591C6.9764 19.1504 6.9677 19.1417 6.9677 19.133H13.1777C13.2298 19.1939 13.282 19.2548 13.3429 19.3069L13.5343 19.4374H7.06338C7.3156 20.2028 7.6548 21.0029 8.08967 21.8031ZM7.04598 19.3765C7.03728 19.3591 7.03728 19.3417 7.02859 19.333C7.03728 19.3504 7.04598 19.3591 7.04598 19.3765ZM7.01119 19.2635C7.00249 19.2461 7.00249 19.2287 6.9938 19.2113C7.00249 19.2287 7.01119 19.2461 7.01119 19.2635ZM25.4323 16.6194V16.6281C25.4323 16.6281 25.4323 16.6281 25.4323 16.6194ZM25.4323 16.6716V16.6803C25.4323 16.6803 25.4323 16.6803 25.4323 16.6716ZM25.4323 16.6716C25.4323 16.6629 25.4323 16.6629 25.4323 16.6629V16.6716ZM25.4323 16.6455C25.4323 16.6368 25.4323 16.6368 25.4323 16.6368V16.6455ZM25.4323 16.5151C25.4323 16.5064 25.4323 16.5064 25.4323 16.5064V16.5151ZM16.0652 8.63521H25.4932C25.4932 8.68739 25.4932 8.73088 25.4932 8.78306C25.4932 8.54823 25.4932 8.3134 25.4932 8.07857C22.3534 6.9827 19.2137 6.43476 16.0652 6.45216V8.63521ZM16.0478 28.3957C16.0391 28.3957 16.0391 28.3957 16.0304 28.4044C16.0391 28.4044 16.0391 28.4044 16.0478 28.3957ZM15.926 28.3783C15.9 28.3696 15.8826 28.3696 15.8565 28.3609C15.8826 28.3609 15.9086 28.3696 15.926 28.3783Z" fill="#151515"/>
<path d="M7.79375 10.0003C7.959 9.89589 8.13295 9.79153 8.3069 9.70455C8.28081 9.43493 8.25471 9.01745 8.32429 8.79132C8.45476 8.37385 8.83744 8.03465 9.28971 8.11292C9.3158 8.12162 9.33319 8.14771 9.3158 8.15641C9.06357 8.28687 8.86353 8.48691 8.75047 8.76523C8.71568 8.84351 8.59391 9.40014 8.77656 9.44363C8.79395 9.45233 8.81135 9.45233 8.83744 9.45233C9.16794 9.31317 9.50714 9.1914 9.85504 9.08703C9.85504 8.81741 9.86374 8.44343 9.95941 8.24338C10.1334 7.852 10.5682 7.56499 11.0379 7.70415C11.064 7.71284 11.0814 7.74763 11.064 7.75633C10.7857 7.852 10.5595 8.01725 10.4117 8.27817C10.3682 8.35645 10.1855 8.88699 10.3769 8.95657H10.3856C10.7074 8.88699 11.0379 8.82611 11.3945 8.78262C11.438 8.513 11.5075 8.16511 11.6293 7.98246C11.8902 7.59978 12.4121 7.33885 12.8991 7.5215C12.9252 7.5302 12.9426 7.56499 12.9165 7.57368C12.5947 7.65196 12.3164 7.79982 12.1164 8.05204C12.0642 8.12162 11.7946 8.60868 11.9511 8.72174C11.9685 8.72174 11.9859 8.72174 12.0033 8.71305C12.2816 8.68695 12.6034 8.67826 12.9078 8.69565C12.9861 8.5304 13.0644 8.38254 13.1514 8.28687C13.4558 7.97377 14.1255 7.8607 14.3255 8.13032C14.3429 8.14771 14.3516 8.1825 14.3255 8.1825C14.0385 8.1912 13.7428 8.23469 13.5253 8.43473C13.4906 8.46952 13.3688 8.59128 13.2992 8.73044C13.7602 8.80872 14.1516 8.96527 14.2733 9.26098C14.3168 9.35665 14.3429 9.44363 14.3255 9.548C14.3255 9.57409 14.2646 9.55669 14.2472 9.5306C13.6645 8.99136 12.7339 8.93048 11.4902 9.14792C10.229 9.36535 9.17664 9.73934 8.04598 10.2786C8.49824 10.7917 7.78505 11.1831 7.55022 10.6439C7.00229 11.2962 6.49784 10.3482 7.24581 10.2351C6.81964 9.57409 7.68069 9.548 7.79375 10.0003Z" fill="#151515"/>
<path d="M7.95058 15.2021C8.09843 15.089 8.28978 14.9933 8.44633 14.8977C8.28978 14.6454 8.1941 14.2801 8.25499 14.0453C8.35936 13.6278 8.62028 13.4278 8.94208 13.4452C8.96817 13.4452 8.98557 13.48 8.96817 13.4887C8.74204 13.6365 8.70725 13.8279 8.63767 14.1149C8.60288 14.2714 8.68986 14.5324 8.80292 14.628C9.08994 14.4715 9.08124 14.4976 9.38565 14.3845C9.29868 14.1149 9.31607 13.7496 9.42914 13.5235C9.60309 13.1582 9.8901 13.019 10.1771 13.0799C10.2032 13.0886 10.2206 13.1147 10.1945 13.1234C9.96838 13.2191 9.50741 13.5843 9.81182 14.2714C10.0901 14.1758 10.1075 14.1584 10.4641 14.0801C10.4902 13.8105 10.4989 13.4887 10.6033 13.2973C10.8207 12.906 11.3339 12.7233 11.5687 12.819C11.5948 12.8277 11.6122 12.8625 11.5861 12.8712C11.4556 12.9581 11.2817 13.0277 11.1077 13.2886C11.0121 13.4278 10.8468 13.7496 10.8903 13.967C11.1425 13.9322 11.473 13.9149 11.76 13.9235C11.8209 13.7583 11.9427 13.5583 12.021 13.4626C12.0732 13.4017 12.1427 13.3495 12.2123 13.3234V14.2975C11.734 14.2714 11.2034 14.3236 10.699 14.4454C9.5596 14.715 9.26389 14.9238 8.24629 15.4717C8.85511 15.8544 8.26368 16.4371 7.88969 15.8631C7.22869 16.6197 6.80252 15.6456 7.48961 15.4978C6.96777 14.8629 7.82012 14.5237 7.95058 15.2021Z" fill="#151515"/>
<path d="M7.65496 12.6101C7.82891 12.5057 8.06374 12.4275 8.23769 12.3405C8.2203 12.0709 8.18551 11.8273 8.26378 11.6012C8.40294 11.1924 8.62038 10.9837 8.96827 11.0185C8.99437 11.0272 9.01176 11.0533 8.99437 11.0707C8.74214 11.2011 8.80302 11.3751 8.68996 11.6447C8.65517 11.723 8.56819 12.0535 8.75084 12.1057C8.76823 12.1144 8.78563 12.1144 8.81172 12.1144C9.14222 11.9839 9.02046 11.9926 9.35966 11.9056C9.36836 11.6447 9.38575 11.2881 9.47273 11.0968C9.65537 10.7228 9.99457 10.5401 10.3077 10.6184C10.3338 10.6271 10.386 10.688 10.3599 10.6967C10.1076 10.775 9.67277 11.2881 9.85541 11.6882C10.0728 11.6534 10.2207 11.5838 10.6121 11.5316C10.6643 11.262 10.7512 10.9924 10.8817 10.8097C11.1513 10.4358 11.5688 10.3575 11.8123 10.4705C11.8384 10.4792 11.8732 10.5488 11.8471 10.5575C11.5253 10.6271 11.5166 10.5923 11.3079 10.8445C11.1948 10.975 10.9687 11.3316 11.1339 11.4968C11.4122 11.4794 11.6036 11.4447 11.908 11.4708C11.9863 11.3142 12.0472 11.0968 12.1341 11.0098C12.4385 10.6967 12.9691 10.6706 13.143 10.8793C13.1604 10.8967 13.1691 10.9315 13.143 10.9315C12.856 10.9402 12.7517 11.0185 12.5255 11.2185C12.4994 11.2359 12.4472 11.3055 12.3864 11.3925H12.2211V11.9317C11.7514 11.8882 11.2383 11.9056 10.7599 11.9752C9.49882 12.1665 9.03785 12.4536 7.99416 12.958C8.43773 13.4799 7.71585 13.8451 7.49841 13.2972C6.94178 13.9408 6.44602 12.9754 7.2114 12.8797C6.78522 12.1926 7.5332 12.01 7.65496 12.6101Z" fill="#151515"/>
<path d="M19.6658 11.5669V16.6201C19.6658 18.6118 18.0394 20.2296 16.0303 20.2296C14.0299 20.2296 12.3948 18.6118 12.3948 16.6201V11.5669H19.6658ZM19.8398 11.3843H12.2122V16.6114C12.2122 18.6901 13.9255 20.4035 16.0216 20.4035C18.1264 20.4035 19.8311 18.6901 19.8311 16.6114L19.8398 11.3843Z" fill="#151515"/>
<path d="M15.8654 15.0885C15.9002 15.1233 15.9784 15.0798 16.0045 15.045C16.0654 14.9493 16.0567 14.8276 16.0654 14.7058C16.0741 14.5753 16.0741 14.4623 16.0306 14.3405C15.961 14.1318 15.8654 13.9665 15.6305 13.9317C15.6044 13.923 15.5523 13.9752 15.5696 13.9926C15.7262 14.1579 15.7871 14.1492 15.8306 14.4014C15.8741 14.6449 15.848 15.0711 15.8654 15.0885ZM14.2215 18.1239C14.2563 18.1326 14.3346 18.0282 14.3607 17.9673C14.3868 17.9152 14.3781 17.8108 14.3781 17.8021C14.3694 17.7847 14.2824 17.8195 14.2389 17.8195C14.1955 17.8195 14.1607 17.8108 14.0998 17.8021C14.0389 17.7934 14.0476 17.6542 14.0389 17.576C14.0215 17.3759 14.0128 17.1759 14.0215 16.9758C14.0215 16.9237 14.0389 16.8541 14.0824 16.8193C14.1433 16.7845 14.2302 16.7932 14.2998 16.8019C14.439 16.828 14.5694 16.8976 14.7173 16.9237C14.7956 16.941 14.8826 16.9323 14.9608 16.9063C15.0304 16.8889 15.0826 16.8367 15.1435 16.8106C15.1783 16.8019 15.2218 16.7932 15.2478 16.8106C15.3609 16.8715 15.4392 16.9845 15.5523 17.028C15.7001 17.0715 15.8567 17.0541 16.0132 17.0628C16.135 17.0628 16.2567 17.0454 16.3785 17.0628C16.4307 17.0715 16.5177 17.0802 16.5351 17.1411C16.5525 17.2194 16.422 17.2889 16.4394 17.3672C16.4742 17.489 16.6133 17.5499 16.6742 17.6542C16.7003 17.6977 16.6916 17.7499 16.6742 17.7934C16.6568 17.8282 16.5959 17.8369 16.5699 17.8717C16.5351 17.9239 16.5264 17.9847 16.4916 18.0369C16.4568 18.0891 16.4046 18.1326 16.3524 18.1761C16.2394 18.2631 16.1263 18.35 15.9958 18.4196C15.9523 18.4457 15.8741 18.3935 15.8567 18.437C15.8219 18.5153 15.7871 18.611 15.7523 18.6631C15.7175 18.7153 15.674 18.724 15.6479 18.7501C15.6218 18.7849 15.587 18.8458 15.6044 18.8545C15.6218 18.8632 15.7871 18.8632 15.848 18.8545C15.9088 18.8458 15.9436 18.8371 15.961 18.8284C15.9784 18.811 15.9523 18.7588 15.9349 18.6544C15.9262 18.5501 16.2133 18.5066 16.3524 18.4283C16.5003 18.3326 16.6481 18.2283 16.796 18.1413C16.8569 18.1065 16.9438 18.0978 16.996 18.0456C17.0221 18.0195 17.0134 17.976 17.0134 17.9412C17.0134 17.8543 16.996 17.7673 16.996 17.6803C16.996 17.6368 16.996 17.5847 17.0308 17.5586C17.0569 17.5325 17.1091 17.5238 17.1352 17.5412C17.1874 17.5673 17.1961 17.6455 17.2396 17.6803C17.3091 17.7325 17.3961 17.7499 17.4744 17.7847C17.544 17.8195 17.6657 17.8195 17.6744 17.8891C17.6918 18.0195 17.6048 18.1413 17.5527 18.2544C17.5266 18.3152 17.4657 18.35 17.4309 18.4109C17.4135 18.4457 17.4135 18.4892 17.3874 18.5153C17.3178 18.5849 17.2222 18.6283 17.1526 18.6979C17.1004 18.7501 17.0569 18.8023 17.0308 18.8632C17.0134 18.898 17.0047 18.9328 16.9873 18.9675C16.9612 19.0023 16.9177 19.011 16.8917 19.0632C16.8656 19.1154 16.8047 19.2546 16.8569 19.2459C16.9091 19.2372 17.2135 19.185 17.2222 19.1502C17.2309 19.1241 17.2048 19.0458 17.1874 18.9501C17.17 18.8545 17.3874 18.7849 17.4918 18.724C17.5527 18.6892 17.6396 18.7066 17.6918 18.6631C17.7266 18.637 17.7092 18.5762 17.7179 18.5414C17.744 18.4805 17.7614 18.4109 17.8136 18.3587C17.8745 18.2891 17.9788 18.2631 18.031 18.1935C18.0832 18.1065 18.1441 18.0021 18.1267 17.9065C18.1093 17.8282 18.0136 17.8021 17.9614 17.7412C17.918 17.6977 17.8745 17.6455 17.8571 17.5847C17.831 17.4977 17.8136 17.4107 17.8397 17.3237C17.8745 17.2194 17.9788 17.1498 18.0397 17.0628C18.0919 16.9845 18.1702 16.9237 18.1963 16.8367C18.2224 16.7323 18.1702 16.6192 18.1615 16.5149C18.1615 16.4975 18.1441 16.4714 18.1615 16.454C18.2311 16.3931 18.3093 16.3148 18.405 16.2974C18.492 16.2887 18.5616 16.3757 18.6485 16.3931C18.7355 16.4018 18.8399 16.4105 18.9269 16.3757C18.9529 16.367 18.9616 16.3061 18.9442 16.28C18.8834 16.2279 18.7529 16.2453 18.7268 16.1757C18.7094 16.1148 18.8312 16.0974 18.866 16.0365C18.9095 15.9582 18.9442 15.8713 18.9442 15.7756C18.9442 15.7408 18.8747 15.7408 18.8486 15.7582C18.8051 15.7843 18.8051 15.8452 18.7703 15.88C18.7442 15.9061 18.7007 15.9148 18.6659 15.9148C18.6311 15.9148 18.579 15.8974 18.5616 15.8713C18.5355 15.8452 18.5181 15.7843 18.5442 15.7669C18.6137 15.7234 18.7094 15.7408 18.7877 15.7234C18.8225 15.7147 18.866 15.706 18.8834 15.6799C18.9095 15.6277 18.9095 15.5669 18.8834 15.5147C18.8747 15.4886 18.8312 15.4886 18.8051 15.4973C18.7703 15.506 18.7529 15.5582 18.7094 15.5582C18.6572 15.5582 18.605 15.5321 18.5703 15.4973C18.5442 15.4625 18.5355 15.4103 18.5529 15.3755C18.579 15.3146 18.6659 15.2972 18.692 15.2364C18.7268 15.1581 18.7529 15.0624 18.7355 14.9754C18.7268 14.9406 18.6572 14.9232 18.6311 14.9493C18.5877 14.9754 18.5964 15.0363 18.5703 15.0711C18.5355 15.1233 18.5181 15.2016 18.4659 15.2277C18.4311 15.2451 18.3702 15.2103 18.3615 15.1668C18.3441 15.0972 18.3876 15.0276 18.405 14.9667C18.4311 14.8972 18.4659 14.8276 18.5094 14.7667C18.5529 14.7058 18.6398 14.6797 18.6746 14.6101C18.7007 14.558 18.7268 14.4884 18.692 14.4449C18.6659 14.4101 18.605 14.4362 18.5703 14.4623C18.5442 14.4797 18.5529 14.5406 18.5268 14.558C18.4485 14.5927 18.3528 14.5667 18.2832 14.6014C18.2224 14.6362 18.1963 14.6971 18.1615 14.758C18.1006 14.8624 18.0919 15.045 18.0658 15.0624C18.0397 15.0885 17.9788 15.0798 17.9614 15.045C17.9353 15.0015 17.9788 14.9319 17.944 14.8885C17.918 14.8624 17.8484 14.8624 17.8223 14.8885C17.7875 14.9232 17.7788 14.9754 17.7788 15.0276C17.7788 15.1059 17.7875 15.1842 17.8223 15.2537C17.8832 15.3668 17.9788 15.4538 18.0571 15.5582C18.1354 15.6625 18.2311 15.7582 18.2745 15.88C18.3006 15.9582 18.3093 16.0539 18.2745 16.1235C18.2485 16.1931 18.1789 16.2626 18.1093 16.2626C18.0136 16.254 17.944 16.1496 17.8658 16.0974C17.7875 16.0452 17.7092 15.9756 17.6222 15.9582C17.4222 15.9234 17.2135 15.9582 17.0047 15.9582C16.8221 15.9582 16.6307 15.9843 16.4481 15.9582C16.3611 15.9495 16.2654 15.9148 16.2046 15.8539C16.1437 15.793 16.1002 15.706 16.1002 15.6277C16.0915 15.5147 16.135 15.4103 16.1785 15.3059C16.2133 15.2364 16.2654 15.1668 16.335 15.1233C16.3872 15.0885 16.4742 15.0711 16.5264 15.0885C16.5872 15.1146 16.7525 15.3407 16.7873 15.332C16.8221 15.3233 16.796 15.1233 16.7786 15.0624C16.7438 14.9667 16.6394 14.9145 16.6133 14.8189C16.6046 14.7928 16.6481 14.758 16.6742 14.758C16.7264 14.758 16.7873 14.7928 16.8308 14.8363C16.8569 14.8537 16.9699 15.0189 16.996 15.0102C17.0221 15.0015 16.9786 14.7754 16.9525 14.7058C16.9091 14.6101 16.7699 14.5406 16.7612 14.5145C16.7525 14.4971 16.7612 14.4797 16.7873 14.471C16.8395 14.471 16.8917 14.4971 16.9438 14.5145C16.9873 14.5319 17.0569 14.584 17.083 14.5753C17.1091 14.5667 17.083 14.4884 17.0569 14.4536C16.9612 14.3405 16.8308 14.2709 16.7351 14.1666C16.6829 14.1144 16.6307 14.0448 16.6307 13.9665C16.6307 13.923 16.6829 13.8796 16.7264 13.8622C16.8047 13.8274 16.9091 13.81 16.9786 13.7665C17.0047 13.7491 16.9873 13.7317 16.9612 13.723C16.8482 13.6795 16.7264 13.6621 16.6046 13.6621C16.5351 13.6621 16.4742 13.7056 16.4046 13.723C16.3611 13.7404 16.3176 13.7665 16.2654 13.7665C16.1785 13.7665 16.0828 13.7752 16.0219 13.723C15.9871 13.6882 16.0306 13.6186 16.0567 13.5664C16.0828 13.523 16.1263 13.4969 16.1611 13.4621C16.1872 13.436 16.2654 13.4099 16.2393 13.4012C16.2133 13.3925 16.0741 13.3925 15.9958 13.4186C15.9262 13.436 15.8654 13.4621 15.8132 13.5143C15.7697 13.5578 15.7784 13.6534 15.7175 13.6795C15.6131 13.7404 15.561 13.723 15.4479 13.7752C15.4218 13.7926 15.3609 13.8622 15.3348 13.8709C15.1957 13.8883 14.9173 13.8187 14.9086 13.8448C14.8913 13.8709 15.1261 14.0013 15.1696 14.1231C15.187 14.1753 15.0565 14.097 15.0043 14.1057C14.9173 14.1144 14.8304 14.1318 14.7608 14.1666C14.6912 14.2014 14.6303 14.2622 14.5781 14.3231C14.526 14.3753 14.4999 14.4449 14.439 14.4884C14.4129 14.5058 14.352 14.4797 14.3346 14.5058C14.3085 14.5406 14.2998 14.6188 14.3433 14.6188L14.5868 14.6362C14.6303 14.6362 14.5434 14.7319 14.5694 14.7754C14.5868 14.8015 14.6477 14.7928 14.6738 14.7754C14.7086 14.758 14.726 14.7058 14.7695 14.6797C14.813 14.6536 14.8565 14.6188 14.9086 14.6188C14.9695 14.6188 15.0478 14.6449 15.0739 14.6971C15.1 14.7493 15.0391 14.8102 15.0304 14.8624C15.0217 14.9232 15.0565 15.0015 15.013 15.045C14.8826 15.1668 14.8391 15.0624 14.6477 15.3059C14.4912 15.4973 14.5607 15.3929 14.5086 15.6451C14.4999 15.6973 14.4912 15.7495 14.4477 15.7843C14.4042 15.8104 14.3346 15.8278 14.2911 15.8017C14.2042 15.7582 14.152 15.6712 14.0911 15.5842C14.0563 15.5408 14.0737 15.4625 14.0302 15.4277C13.9693 15.3929 13.8824 15.3929 13.8128 15.4103C13.7606 15.4277 13.7345 15.4886 13.7084 15.5321C13.6388 15.6277 13.5866 15.7408 13.5258 15.8365C13.4736 15.9148 13.404 15.9843 13.3605 16.0626C13.3344 16.1061 13.3518 16.1583 13.3257 16.2018C13.2735 16.3235 13.23 16.4366 13.1692 16.5497C13.1431 16.5932 13.0909 16.6192 13.0735 16.6714C13.0648 16.7236 13.0822 16.8367 13.1083 16.8367C13.1344 16.8367 13.2213 16.7758 13.2735 16.741C13.3344 16.7149 13.4475 16.6801 13.4562 16.6627C13.4649 16.6453 13.3953 16.5845 13.3605 16.541C13.2996 16.4627 13.4301 16.3496 13.4823 16.2626C13.4997 16.2279 13.5432 16.2192 13.5605 16.1844C13.5953 16.1148 13.604 16.0278 13.6388 15.9582C13.6823 15.8626 13.7345 15.7669 13.8041 15.6973C13.8389 15.6625 13.8997 15.6364 13.9432 15.6712C14.0128 15.7147 14.0215 15.8104 14.065 15.8887C14.0998 15.9408 14.1433 15.993 14.1607 16.0539C14.1781 16.1061 14.1259 16.1757 14.1607 16.2192C14.2042 16.2713 14.2911 16.2887 14.3607 16.2974L14.5173 16.3148L14.5347 16.5323C14.5434 16.6105 14.3694 16.5497 14.2911 16.5671C14.2215 16.5845 14.152 16.6105 14.0737 16.6279C14.0041 16.6453 13.8737 16.5845 13.8563 16.6627C13.7954 16.9671 13.8737 17.2715 13.891 17.576C13.891 17.6542 13.8476 17.7847 13.9258 17.8195L14.0737 17.8804C14.0998 17.9412 14.1172 18.0195 14.152 18.063C14.1433 18.1065 14.1868 18.1152 14.2215 18.1239Z" fill="#151515"/>
<path d="M19.0137 12.3227C19.0137 12.2618 18.9702 12.2357 18.8919 12.2357H18.5962C18.5179 12.2357 18.4744 12.2618 18.4744 12.3227C18.4744 12.3836 18.5179 12.4097 18.5962 12.4097H18.6571V12.9576C18.6571 13.0533 18.6832 13.0968 18.7441 13.0968C18.8049 13.0968 18.831 13.0533 18.831 12.9576V12.4097H18.8919C18.9789 12.4097 19.0137 12.3836 19.0137 12.3227ZM18.17 12.514C18.17 12.5836 18.1352 12.6184 18.0657 12.6184H17.9874V12.4097H18.0657C18.1352 12.4097 18.17 12.4445 18.17 12.514ZM18.3614 13.0098C18.3614 12.975 18.344 12.9402 18.3092 12.8967L18.17 12.7228C18.2831 12.6967 18.3527 12.6097 18.3527 12.4879C18.3527 12.3314 18.2483 12.2183 18.0657 12.2183H17.9352C17.8395 12.2183 17.8134 12.2618 17.8134 12.3575V12.9489C17.8134 13.0446 17.8395 13.0881 17.9004 13.0881C17.9613 13.0881 17.9874 13.0446 17.9874 12.9489V12.7402L18.1874 13.0272C18.2222 13.0707 18.2483 13.0968 18.2831 13.0968C18.3266 13.0968 18.3614 13.062 18.3614 13.0098ZM17.4394 12.7402H17.2568L17.3525 12.4271L17.4394 12.7402ZM17.683 13.0011C17.683 12.9837 17.683 12.9663 17.6743 12.9402L17.4829 12.3314C17.4568 12.2618 17.4133 12.2183 17.3525 12.2183C17.2916 12.2183 17.2481 12.2618 17.222 12.3401L17.022 12.9402C17.0133 12.9576 17.0133 12.975 17.0133 12.9924C17.0133 13.0446 17.0481 13.0881 17.0915 13.0881C17.1263 13.0881 17.1611 13.062 17.1785 13.0011L17.2046 12.9141H17.4829L17.5003 12.9924C17.5177 13.0533 17.5438 13.0881 17.5873 13.0881C17.6482 13.0968 17.683 13.062 17.683 13.0011ZM16.8915 12.6967C16.8915 12.601 16.8567 12.5662 16.7871 12.5662H16.6741C16.6045 12.5662 16.5697 12.5923 16.5697 12.6532C16.5697 12.7141 16.6045 12.7402 16.6741 12.7402H16.7262C16.7262 12.8445 16.6741 12.9141 16.5871 12.9141C16.4914 12.9141 16.4218 12.8097 16.4218 12.6445C16.4218 12.4792 16.4914 12.3836 16.5871 12.3836C16.6828 12.3836 16.7262 12.4619 16.7697 12.4619C16.8045 12.4619 16.8393 12.4184 16.8393 12.3749C16.8393 12.2879 16.7436 12.2009 16.5958 12.2009C16.3871 12.2009 16.2566 12.3749 16.2566 12.6532C16.2566 12.9228 16.3871 13.1055 16.5784 13.1055C16.7697 13.1055 16.8915 12.9315 16.8915 12.6967ZM16.2131 12.3227C16.2131 12.2618 16.1696 12.2357 16.0913 12.2357H15.7956C15.7173 12.2357 15.6739 12.2618 15.6739 12.3227C15.6739 12.3836 15.7173 12.4097 15.7956 12.4097H15.8565V12.9576C15.8565 13.0533 15.8826 13.0968 15.9435 13.0968C16.0044 13.0968 16.0305 13.0533 16.0305 12.9576V12.4097H16.0913C16.1696 12.4097 16.2131 12.3836 16.2131 12.3227ZM15.6391 12.3227C15.6391 12.2618 15.5956 12.2357 15.5173 12.2357H15.2216C15.1433 12.2357 15.0998 12.2618 15.0998 12.3227C15.0998 12.3836 15.1433 12.4097 15.2216 12.4097H15.2825V12.9576C15.2825 13.0533 15.3086 13.0968 15.3695 13.0968C15.4303 13.0968 15.4564 13.0533 15.4564 12.9576V12.4097H15.5173C15.5956 12.4097 15.6391 12.3836 15.6391 12.3227ZM14.9955 12.7141V12.3575C14.9955 12.2618 14.9694 12.2183 14.9085 12.2183C14.8476 12.2183 14.8215 12.2618 14.8215 12.3575V12.6967C14.8215 12.8445 14.7693 12.9228 14.6737 12.9228C14.578 12.9228 14.5258 12.8445 14.5258 12.6967V12.3575C14.5258 12.2618 14.4997 12.2183 14.4388 12.2183C14.3779 12.2183 14.3519 12.2618 14.3519 12.3575V12.7141C14.3519 12.9663 14.4736 13.1055 14.6737 13.1055C14.865 13.1055 14.9955 12.9663 14.9955 12.7141ZM14.2823 12.3227C14.2823 12.2618 14.2388 12.2357 14.1605 12.2357H13.8648C13.7865 12.2357 13.743 12.2618 13.743 12.3227C13.743 12.3836 13.7865 12.4097 13.8648 12.4097H13.9257V12.9576C13.9257 13.0533 13.9518 13.0968 14.0127 13.0968C14.0735 13.0968 14.0996 13.0533 14.0996 12.9576V12.4097H14.1605C14.2388 12.4097 14.2823 12.3836 14.2823 12.3227ZM13.6822 12.8184C13.6822 12.688 13.6126 12.6097 13.4734 12.5575C13.3864 12.5227 13.3343 12.514 13.3343 12.4532C13.3343 12.4097 13.369 12.3836 13.4212 12.3836C13.4647 12.3836 13.5169 12.4097 13.5517 12.4097C13.6039 12.4097 13.63 12.3749 13.63 12.3314C13.63 12.2618 13.5517 12.2096 13.4212 12.2096C13.256 12.2096 13.1516 12.3227 13.1516 12.4792C13.1516 12.6097 13.2212 12.6706 13.3603 12.7228C13.4386 12.7489 13.4908 12.775 13.4908 12.8445C13.4908 12.8967 13.456 12.9315 13.4038 12.9315C13.3256 12.9315 13.2647 12.888 13.2212 12.888C13.169 12.888 13.1342 12.9228 13.1342 12.975C13.1342 13.0446 13.2386 13.1142 13.3777 13.1142C13.5691 13.1055 13.6822 12.9837 13.6822 12.8184Z" fill="#151515"/>
</svg>
