<svg width="32" height="32" viewBox="0 0 32 32" fill="none" xmlns="http://www.w3.org/2000/svg">
<path d="M23.6234 15.9033V18.3666H20.374V13.6127H24.9347L25.5917 15.0521L26.262 13.6085H30.8V18.3614H27.5771V15.8917L27.5147 15.8687C27.1252 16.6989 26.7347 17.528 26.3395 18.3697H24.8354C24.4572 17.5521 24.0687 16.7219 23.682 15.8917L23.6234 15.9033Z" fill="#151515"/>
<path d="M7.99566 16.7722L9.30411 18.353H5.90818C5.67372 18.0159 5.3986 17.6788 5.18872 17.2988C4.97884 16.9187 4.70278 16.9439 4.36621 16.9952V18.4001H1.20001V13.6189C1.26903 13.6116 1.32292 13.6001 1.37775 13.6001C3.37069 13.6001 5.36362 13.6039 7.35656 13.6116C7.76409 13.6221 8.15936 13.768 8.49105 14.0304C9.1415 14.5119 9.12164 15.7776 8.64421 16.1995C8.43905 16.3796 8.2339 16.5618 7.99566 16.7722ZM4.35486 15.7556C4.6867 15.7368 5.00531 15.8268 5.31351 15.6792C5.39404 15.6467 5.46172 15.584 5.50474 15.5019C5.54776 15.4198 5.5634 15.3236 5.54892 15.2301C5.54454 15.1342 5.5069 15.0439 5.44384 14.9779C5.38078 14.912 5.29718 14.8756 5.21046 14.8763C4.92684 14.8585 4.65078 14.8763 4.35203 14.8763L4.35486 15.7556Z" fill="#151515"/>
<path d="M17.2078 13.6137C18.0161 15.1903 18.815 16.7544 19.6384 18.3572H16.2264L15.8993 17.4391H13.706C13.5849 17.7332 13.4554 18.0442 13.3212 18.3687H9.9555L12.215 13.6137H17.2078ZM15.3689 16.1587C15.1799 15.6813 15.0031 15.2312 14.8253 14.781H14.7563C14.5729 15.2343 14.3904 15.6886 14.1995 16.1618L15.3689 16.1587Z" fill="#151515"/>
</svg>
