<svg width="32" height="32" viewBox="0 0 32 32" fill="none" xmlns="http://www.w3.org/2000/svg">
<path d="M11.3516 7.29118C12.1412 6.8257 12.9588 6.49583 13.8045 6.30158C14.1233 6.22847 14.4954 6.15728 14.9207 6.08803C15.0346 6.06951 15.1438 6.04993 15.2483 6.02929C15.3489 6.00961 15.4426 6.00006 15.5293 6.00064C15.8812 6.00277 16.2229 6.00257 16.5543 6.00006C16.686 5.9991 16.8361 6.00894 17.0044 6.02958C17.1538 6.0481 17.3043 6.06941 17.456 6.09353C19.989 6.4966 22.3991 7.87193 23.8998 10.0242C23.9085 10.0365 23.9054 10.0428 23.8905 10.043C23.2076 10.0494 22.5798 10.0531 21.943 10.036C21.8246 10.033 21.7344 10.0209 21.6725 9.99987C21.5817 9.96881 21.4998 9.92271 21.427 9.86156C21.2489 9.71186 21.0723 9.56815 20.8972 9.43041C19.2183 8.10804 17.0436 7.58633 14.9373 7.89392C13.8536 8.05191 12.8475 8.42865 11.9189 9.02415C10.826 9.72469 9.89339 10.692 9.23633 11.8376C9.04378 12.173 8.88388 12.57 8.68203 12.9134C8.66233 12.9472 8.63586 12.9742 8.60265 12.9944C8.34159 13.1549 8.07021 13.2962 7.78851 13.4184C7.39551 13.5889 7.00327 13.7575 6.61178 13.9242C6.60371 13.9276 6.60052 13.925 6.60221 13.9163C7.16355 11.1084 8.93737 8.71454 11.3516 7.29118Z" fill="#151515"/>
<path d="M30.4 11.3512V11.6489C29.9445 12.2352 29.479 12.8142 29.0037 13.386C28.5797 13.8954 28.1301 14.386 27.6549 14.8576C27.5677 14.9441 27.4978 15.0018 27.4452 15.031C27.267 15.1299 27.0547 15.1212 26.854 15.1091C26.2474 15.0723 25.6171 15.0301 24.9952 15.0072C23.4908 14.9523 21.8746 14.9381 20.3052 14.888C20.3033 14.888 20.3015 14.8875 20.2999 14.8865C20.2983 14.8855 20.297 14.884 20.2962 14.8823C20.2954 14.8806 20.295 14.8787 20.2951 14.8768C20.2953 14.8749 20.2959 14.8731 20.297 14.8715C20.6689 14.3081 21.0774 13.7477 21.4098 13.1631C21.4106 13.1617 21.4111 13.1601 21.4111 13.1585C21.4112 13.1568 21.4109 13.1552 21.4102 13.1537C21.4095 13.1522 21.4084 13.151 21.4072 13.15C21.4059 13.149 21.4044 13.1484 21.4028 13.1481C20.6774 13.0426 19.9287 12.9863 19.1566 12.9794C16.9149 12.9586 14.6149 13.2731 12.4084 13.8449C10.6705 14.2949 8.97292 14.9013 7.31555 15.6641C6.82656 15.8889 6.33166 16.1438 5.82916 16.3924C5.44424 16.5824 5.07329 16.8067 4.71633 17.0651C4.71403 17.0668 4.71222 17.069 4.7111 17.0717C4.70999 17.0743 4.70961 17.0772 4.71002 17.0801C4.71043 17.083 4.7116 17.0857 4.71341 17.088C4.71522 17.0902 4.7176 17.0919 4.72028 17.0929C5.18477 17.2567 5.68784 17.3398 6.1819 17.3716C6.61599 17.3994 7.02587 17.425 7.41155 17.4485C7.52397 17.4553 7.65112 17.4679 7.793 17.4865C7.84818 17.4936 7.89622 17.5105 7.93714 17.5371C8.04618 17.6077 8.14001 17.6833 8.21865 17.764C8.5041 18.0562 8.77577 18.3647 9.06038 18.6514C9.497 19.0918 9.92096 19.501 10.3075 19.9694C10.3178 19.982 10.3151 19.9877 10.2993 19.9865C9.74361 19.9474 9.19353 19.8852 8.64908 19.8002C7.41474 19.6076 6.24899 19.3786 5.15184 19.1129C3.9402 18.8192 2.75193 18.4387 1.62278 17.8971C1.61638 17.894 1.61094 17.8892 1.60711 17.8831C1.60327 17.877 1.60119 17.8699 1.6011 17.8626C1.59998 17.8076 1.59969 17.7538 1.60026 17.7012C1.60044 17.6647 1.61705 17.6306 1.65009 17.5987C1.88168 17.3732 2.10933 17.1717 2.33304 16.9943C2.96175 16.4956 3.66094 16.0083 4.4306 15.5324C7.14608 13.8538 10.0792 12.6715 13.1857 11.7716C13.6164 11.6468 14.0059 11.5375 14.3542 11.4438C17.8092 10.5128 21.3138 10.1749 24.8682 10.4302C26.7249 10.5636 28.5688 10.8707 30.4 11.3512Z" fill="#151515"/>
<path d="M19.062 16.2477C19.0217 16.2415 18.9799 16.2374 18.9367 16.2353C18.3425 16.2071 17.7883 16.1972 17.2741 16.2055C15.9547 16.2266 14.6166 16.301 13.2701 16.3574C12.4405 16.3921 11.3685 16.5718 10.788 15.7888C10.7868 15.7872 10.7861 15.7853 10.7858 15.7833C10.7855 15.7813 10.7858 15.7792 10.7865 15.7774C10.7873 15.7755 10.7885 15.7739 10.79 15.7726C10.7916 15.7714 10.7934 15.7706 10.7953 15.7703C11.7474 15.6241 12.6477 15.5642 13.7983 15.5026C14.8327 15.4472 15.5107 15.4141 15.8322 15.4031C19.4204 15.2786 23.0038 15.5527 26.6254 15.8235C26.6382 15.8245 26.6399 15.8295 26.6305 15.8386C25.9965 16.4495 25.3592 16.994 24.7185 17.472C24.4886 17.6437 24.2488 17.8049 23.9992 17.9558C23.9791 17.9679 23.9573 17.9736 23.9339 17.9729C23.0216 17.9435 22.1903 17.9055 21.4399 17.8589C20.236 17.7842 19.0493 17.7112 17.8799 17.6398C17.8783 17.6397 17.8766 17.6391 17.8753 17.6381C17.8739 17.6371 17.8728 17.6358 17.8721 17.6342C17.8714 17.6327 17.8711 17.631 17.8713 17.6293C17.8715 17.6277 17.8722 17.6261 17.8732 17.6248C18.0646 17.373 18.2691 17.1352 18.4866 16.9112C18.6921 16.6991 18.8773 16.4887 19.0679 16.2636C19.069 16.2623 19.0698 16.2608 19.0701 16.2591C19.0704 16.2574 19.0702 16.2556 19.0696 16.254C19.069 16.2524 19.068 16.2509 19.0666 16.2498C19.0653 16.2487 19.0637 16.248 19.062 16.2477Z" fill="#151515"/>
<path d="M9.2169 20.2122C10.4902 22.2895 12.6505 23.8486 15.0448 24.142C15.2655 24.169 15.5055 24.1894 15.7649 24.203C17.4121 24.2904 19.0243 23.8341 20.4085 22.9351C21.4751 22.2424 22.3378 21.3351 22.9967 20.2134C23.0958 20.0446 23.1942 19.8503 23.2918 19.6306C23.4426 19.2905 23.5848 18.964 23.7182 18.6511C23.7402 18.5996 23.7729 18.5573 23.8162 18.5241C24.4573 18.0333 25.1152 17.5437 25.7899 17.0553C25.8053 17.0441 25.8119 17.0482 25.8096 17.0675C25.6079 18.8706 24.9959 20.4897 23.9736 21.9249C23.763 22.2207 23.4963 22.5456 23.1735 22.8998C21.5571 24.6738 19.2841 25.7604 16.9259 25.9684C16.3619 26.0182 15.7701 26.0091 15.1504 25.9412C13.575 25.7682 12.0762 25.2526 10.7602 24.3535C9.15891 23.2597 7.8997 21.7247 7.15369 19.9107C7.14656 19.893 7.15228 19.8853 7.17086 19.8878C7.41859 19.9208 7.66876 19.9583 7.92138 20.0001C8.34064 20.0696 8.7601 20.1322 9.17974 20.1879C9.18731 20.1889 9.19457 20.1916 9.20099 20.1958C9.20742 20.2 9.21285 20.2056 9.2169 20.2122Z" fill="#151515"/>
<path d="M20.8341 19.8902C20.0864 20.2762 19.3418 20.6361 18.5401 20.9336C17.8391 21.1934 17.0849 21.3777 16.3826 21.2909C16.0802 21.2533 15.6791 21.0884 15.6132 20.7467C15.6038 20.6979 15.6002 20.6421 15.6025 20.5794C15.6191 20.1141 15.9479 19.7093 16.2455 19.3621C16.4575 19.1146 16.6614 18.877 16.8572 18.6494C16.9951 18.4891 17.1554 18.3394 17.338 18.2003C17.3656 18.1795 17.3954 18.1635 17.4306 18.1653C18.7314 18.2322 20.0777 18.3049 21.4695 18.3832C22.0479 18.4158 22.6113 18.4545 23.1597 18.4992C23.1826 18.5009 23.1844 18.5083 23.1651 18.5212C22.4241 19.0143 21.6472 19.4706 20.8341 19.8902Z" fill="#151515"/>
</svg>
