<svg width="32" height="32" viewBox="0 0 32 32" fill="none" xmlns="http://www.w3.org/2000/svg">
<path d="M15.9864 27.9886C15.1567 27.9889 14.326 27.9655 13.4976 27.9986C13.0752 28.0155 12.8209 27.8778 12.6173 27.5137C10.9163 24.4718 9.19823 21.4393 7.4968 18.3976C7.16459 17.8037 6.90337 17.1706 6.56993 16.5774C6.35373 16.1929 6.33955 15.858 6.55221 15.4691C8.28391 12.3008 9.99942 9.12379 11.7336 5.9568C12.0451 5.38793 12.4018 4.84065 12.7766 4.31049C12.8835 4.15928 13.1264 4.0193 13.3087 4.01702C15.1115 3.99486 16.9147 3.99429 18.7175 4.01559C18.8986 4.01778 19.1485 4.15928 19.2471 4.3121C21.5978 7.95182 23.6622 11.7498 25.5329 15.6517C25.6307 15.8558 25.6183 16.1914 25.5172 16.3982C23.6508 20.2138 21.6212 23.9417 19.376 27.5527C19.1758 27.8747 18.955 28.0088 18.5709 27.9968C17.7103 27.9699 16.8481 27.9884 15.9864 27.9886ZM18.7182 4.29518C16.8548 4.29518 15.1011 4.28795 13.3478 4.3083C13.2004 4.31001 13.0093 4.46721 12.9173 4.60433C12.5558 5.14363 12.1992 5.68948 11.8885 6.25854C10.2274 9.30124 8.57578 12.3492 6.93345 15.4019C6.64551 15.937 6.7116 16.0144 7.31479 16.0149C8.54292 16.0157 9.77182 15.9904 10.9989 16.0263C11.5571 16.0426 11.8696 15.8204 12.138 15.3586C13.6666 12.7292 15.2134 10.1102 16.7645 7.49384C17.3842 6.44854 18.0307 5.41884 18.7182 4.29518ZM25.1779 16.015C25.2186 15.9664 25.2592 15.9178 25.2999 15.8692C23.4541 11.9114 21.3362 8.10017 18.9484 4.35537C18.1306 5.97715 17.3457 7.51295 16.5897 9.06264C16.5087 9.22878 16.5235 9.51616 16.6159 9.67915C17.7329 11.6496 18.8728 13.6075 20.007 15.5684C20.1899 15.8845 20.4538 16.025 20.8328 16.0206C22.0611 16.006 23.2895 16.0151 24.5179 16.0151C24.7378 16.015 24.9579 16.015 25.1779 16.015ZM16.0244 10.3519C15.8679 10.5896 15.7774 10.7139 15.7005 10.8461C14.8069 12.38 13.9266 13.9219 13.0148 15.445C12.7956 15.8112 12.814 16.0914 13.0247 16.4467C13.9385 17.9875 14.8273 19.5431 15.7274 21.092C15.8016 21.2197 15.8936 21.3372 16.004 21.4987C16.1048 21.3661 16.1684 21.2984 16.2139 21.2203C17.1715 19.5773 18.1384 17.9391 19.0677 16.2804C19.1728 16.0928 19.1501 15.7412 19.0416 15.5445C18.383 14.3517 17.683 13.1815 16.9956 12.0044C16.6943 11.4885 16.3903 10.9743 16.0244 10.3519Z" fill="#151515"/>
</svg>
