<svg width="32" height="32" viewBox="0 0 32 32" fill="none" xmlns="http://www.w3.org/2000/svg">
<path d="M2.00001 16.0055C1.99195 8.35633 8.11925 2.16016 15.7028 2.00308C23.65 1.83827 30.1683 8.30242 29.9967 16.3131C29.8334 23.932 23.5741 30.0931 15.8224 29.9989C8.15364 29.9051 1.9966 23.6599 2.00001 16.0055ZM2.85701 15.9987C2.86011 23.2529 8.74139 29.1392 15.9934 29.1426C23.2516 29.147 29.1415 23.251 29.1415 15.9776C29.1415 8.76373 23.237 2.85692 16.0253 2.85939C8.74294 2.86218 2.8536 8.73832 2.85701 15.9987Z" fill="#151515"/>
<path d="M28.1699 16.0136C28.1513 22.7835 22.6074 28.3006 15.7455 28.1642C9.11506 28.0329 3.69295 22.5567 3.83423 15.7384C3.96994 9.14448 9.36292 3.81887 16.021 3.83436C22.7472 3.85047 28.1978 9.33098 28.1699 16.0136ZM16.0095 4.26438C9.49398 4.26159 4.15832 9.60083 4.2618 16.1976C4.36436 22.5688 9.61017 27.8235 16.1725 27.7327C22.5318 27.645 27.6897 22.4762 27.7324 16.0811C27.7761 9.53329 22.4674 4.27243 16.0095 4.26438Z" fill="#151515"/>
<path d="M19.5831 22.9604V20.6678C19.637 20.6625 19.6761 20.6557 19.7164 20.6557C20.6301 20.6557 21.5444 20.6532 22.4578 20.6557C22.938 20.6557 23.2652 20.9036 23.3486 21.3119C23.4353 21.7394 23.2736 22.0087 22.7909 22.2134C22.8417 22.2345 22.8792 22.2516 22.9176 22.2652C23.0998 22.3286 23.2539 22.454 23.3529 22.6196C23.4519 22.7852 23.4895 22.9803 23.4592 23.1708C23.3972 23.6045 23.0669 23.9323 22.6536 23.9344C21.368 23.9406 20.0824 23.94 18.7968 23.9326C18.7444 23.9326 18.6558 23.8706 18.6456 23.8251C18.5675 23.4691 18.3602 23.3604 18.0042 23.4025C17.6783 23.4397 17.3443 23.4136 17.0127 23.4081C16.9139 23.4065 16.8643 23.439 16.8306 23.532C16.7816 23.6668 16.75 23.8458 16.6493 23.9127C16.5486 23.9797 16.3705 23.9366 16.2261 23.9372C15.9011 23.9388 15.5754 23.9344 15.2504 23.9394C15.1575 23.9394 15.0973 23.9131 15.0819 23.822C15.0199 23.4629 14.8049 23.369 14.46 23.4031C14.1276 23.4359 13.7895 23.4136 13.454 23.4081C13.3462 23.4062 13.2882 23.4347 13.2504 23.5444C13.1144 23.9381 13.1101 23.9372 12.6927 23.9375C12.4396 23.9375 12.1868 23.9375 11.9336 23.9347C11.9189 23.932 11.9044 23.9277 11.8906 23.922C11.907 23.8616 11.9237 23.8003 11.9401 23.7408C11.9271 23.7331 11.916 23.7228 11.9119 23.725C11.3016 24.0602 10.6367 24.0181 9.97702 24.0023C9.62473 23.9936 9.27772 23.9419 8.94929 23.8037C8.6314 23.6695 8.40275 23.4555 8.32962 23.1038C8.31847 23.0496 8.31692 22.9932 8.31041 22.9307C8.34892 22.9235 8.38782 22.9186 8.42691 22.9161C8.81421 22.9161 9.2015 22.9161 9.58848 22.9142C9.67276 22.9142 9.71737 22.9322 9.7372 23.0255C9.75018 23.098 9.78634 23.1644 9.84024 23.2147C9.89415 23.2649 9.9629 23.2964 10.0362 23.3043C10.2597 23.3227 10.4846 23.3187 10.7073 23.2922C10.8387 23.2779 10.9242 23.1763 10.9242 23.0304C10.9242 22.8845 10.8532 22.7826 10.7203 22.7541C10.5156 22.7137 10.309 22.6837 10.1013 22.6642C9.78399 22.6295 9.46083 22.6283 9.14945 22.566C8.72404 22.4811 8.48733 22.2252 8.44612 21.8823C8.38911 21.4098 8.54682 21.0582 8.95921 20.872C9.2171 20.7554 9.49106 20.6782 9.77191 20.643C10.3578 20.5724 10.9468 20.5811 11.5219 20.7459C11.819 20.8301 12.0814 20.9724 12.2125 21.2726C12.2617 21.3853 12.2744 21.5139 12.3073 21.6524H10.9028C10.8899 21.6157 10.8795 21.5781 10.8718 21.5399C10.8458 21.367 10.7346 21.2676 10.5738 21.2502C10.4052 21.2312 10.2349 21.2334 10.0669 21.2568C9.87911 21.284 9.79266 21.4017 9.79855 21.561C9.80382 21.7128 9.8915 21.8104 10.0848 21.8271C10.4238 21.8565 10.7643 21.8637 11.1039 21.8891C11.2531 21.8993 11.4015 21.92 11.5479 21.951C11.9327 22.0331 12.2686 22.1843 12.3953 22.6506C12.4321 22.5716 12.4541 22.5288 12.4721 22.4845C12.7029 21.9157 12.935 21.3472 13.1612 20.7762C13.1965 20.687 13.2371 20.6498 13.3381 20.6523C13.8545 20.6577 14.3709 20.6577 14.8873 20.6523C14.9895 20.6523 15.0289 20.692 15.0639 20.7787C15.3179 21.4052 15.5767 22.0297 15.8338 22.6546C15.8493 22.6924 15.8664 22.7293 15.898 22.8015C15.9327 22.7302 15.9574 22.685 15.977 22.6379C16.2313 22.0229 16.487 21.4083 16.7364 20.7911C16.7767 20.6917 16.8241 20.6505 16.9375 20.652C17.4433 20.6592 17.9494 20.6592 18.4556 20.652C18.5638 20.652 18.6065 20.6898 18.6443 20.7837C18.917 21.4618 19.1958 22.1375 19.4747 22.8163C19.4958 22.8678 19.5212 22.9173 19.5444 22.9678L19.5831 22.9604ZM14.1229 21.4383L13.6213 22.6373H14.6013L14.1229 21.4383ZM17.6993 21.4919L17.66 21.4891C17.5085 21.8671 17.357 22.245 17.1977 22.6413H18.1821L17.6993 21.4919ZM21.3591 22.619H21.0803C20.7255 22.619 20.7283 22.619 20.7472 22.9709C20.7518 23.0574 20.7825 23.0887 20.8671 23.0877C21.1865 23.0852 21.506 23.0896 21.8254 23.0852C21.9825 23.0834 22.0733 22.9923 22.0748 22.8501C22.0764 22.7079 21.9819 22.6243 21.822 22.6205C21.668 22.6162 21.5134 22.619 21.3591 22.619ZM21.308 21.929C21.4468 21.929 21.5868 21.9306 21.725 21.929C21.8957 21.9269 22.0002 21.8361 22.0039 21.6883C22.0076 21.5405 21.9078 21.4457 21.7325 21.4439C21.5156 21.4417 21.2987 21.4439 21.0837 21.4439C20.7156 21.4439 20.7178 21.4439 20.7481 21.8225C20.7543 21.9002 20.7813 21.9324 20.86 21.9306C21.0093 21.9266 21.1586 21.9287 21.308 21.929Z" fill="#151515"/>
<path d="M13.4754 9.58255C13.6154 9.37312 13.7595 9.16957 13.8871 8.95674C13.9119 8.91522 13.8871 8.83064 13.8623 8.77457C13.456 7.79785 13.0481 6.82185 12.6385 5.84657C12.6174 5.79607 12.6007 5.7434 12.5722 5.66502C12.975 5.68919 13.3378 5.74433 13.5965 6.05693C13.7458 6.23755 13.7338 6.44915 13.6526 6.65827C13.6253 6.72859 13.5878 6.7952 13.5596 6.8804C13.8292 6.66353 14.0997 6.61954 14.3621 6.86646C14.5297 7.02415 14.5601 7.22831 14.4891 7.43806C14.399 7.7048 14.188 7.8027 13.9113 7.81726C14.1161 8.049 14.3946 8.10383 14.6859 8.11468C15.1379 8.13203 15.5097 7.93127 15.6411 7.6007C15.3427 7.69829 15.0778 7.67506 14.9018 7.39375C14.7857 7.20787 14.7888 7.00866 14.9059 6.82216C15.0648 6.5678 15.3012 6.51235 15.5822 6.5963C15.4543 6.17249 15.4865 5.9866 15.7108 5.82178C15.8004 5.75512 15.9085 5.71782 16.0202 5.71499C16.1318 5.71216 16.2416 5.74395 16.3345 5.80598C16.5622 5.96089 16.6056 6.16257 16.4938 6.5805C16.7863 6.51545 17.0233 6.59104 17.1577 6.86646C17.2619 7.0793 17.2392 7.29306 17.0809 7.47368C16.8804 7.70263 16.6329 7.69334 16.3655 7.58893C16.5282 7.90091 16.7906 8.07812 17.1243 8.14659C17.5119 8.22497 17.8369 8.0933 18.1554 7.8058C17.901 7.79433 17.6962 7.7302 17.6126 7.5217C17.5575 7.37995 17.5435 7.22553 17.5723 7.0762C17.6166 6.87111 17.7818 6.75121 17.9918 6.71124C18.1951 6.67252 18.358 6.76391 18.4996 6.91572L18.5306 6.87203L18.4522 6.73603C18.2577 6.39803 18.3478 6.05445 18.6859 5.86113C18.9281 5.72295 19.1918 5.66998 19.4914 5.67029C19.418 5.84905 19.3532 6.01108 19.2863 6.1697C18.926 7.03128 18.5709 7.89502 18.2019 8.75257C18.1148 8.95395 18.2883 9.0156 18.3596 9.1293C18.3791 9.16028 18.4835 9.15687 18.5455 9.142C18.8907 9.05464 19.2355 9.01498 19.5853 9.11102C19.633 9.12434 19.6783 9.1451 19.752 9.17298C19.6132 9.44654 19.4924 9.70802 19.3492 9.9568C19.2749 10.0866 19.2891 10.1659 19.3876 10.2759C19.9797 10.9361 20.1551 11.7298 20.1021 12.5914C20.0962 12.6875 20.0848 12.7829 20.0755 12.8805L19.3198 12.5514L19.2773 12.5911C19.5722 13.0474 19.7324 13.5777 19.7393 14.1209C19.7455 14.6712 19.6395 15.1972 19.3644 15.6864L18.794 15.0358L18.7444 15.0609C18.8934 15.7704 18.925 16.468 18.5312 17.1149C18.3754 17.3739 18.1578 17.5903 17.8979 17.7448L17.2321 16.5814L17.1813 16.5982L17.1729 16.7221C17.1463 17.1437 17.1283 17.566 17.0902 17.9864C17.0499 18.431 16.8228 18.7746 16.4888 19.0655C15.9246 19.5575 15.2578 19.8189 14.5229 19.9968C14.8179 18.9338 14.8182 17.8718 14.7544 16.8017C14.425 17.3191 14.2809 17.8966 14.1833 18.5252C13.6749 18.1261 13.3019 17.6642 13.1624 17.0452C13.0208 16.4163 13.1863 15.8404 13.5358 15.2604C13.3215 15.3203 13.1311 15.4451 12.9908 15.6176C12.8572 15.7787 12.7445 15.9569 12.623 16.1269C12.4765 15.7025 12.6369 14.8146 13.0165 13.9828C12.597 13.9295 12.1945 13.8396 11.9652 13.4353C11.8016 13.146 11.7756 12.8297 11.7917 12.4687C12.2546 12.8371 12.7482 12.9873 13.3056 12.7897C13.7146 12.6444 14.0145 12.3609 14.2998 11.9895C14.0458 11.8857 13.8153 11.7726 13.5726 11.6979C13.3077 11.6164 13.0707 11.5 12.9034 11.2778C12.75 11.0737 12.5403 10.9847 12.3079 11.0216C11.99 11.0724 11.678 11.1672 11.3666 11.2537C11.2427 11.2877 11.1299 11.3512 11.0159 11.3999C11.0013 11.3869 10.988 11.3804 10.9883 11.3745C10.9992 10.8336 11.1036 10.3174 11.4159 9.86417C11.7412 9.39233 12.2407 9.19963 12.7968 9.34214C13.04 9.40441 13.2712 9.50882 13.4754 9.58255ZM16.4718 13.2151C16.3729 14.3053 15.9017 15.0739 15.287 15.2037C15.2529 14.8419 15.2185 14.4775 15.181 14.0773L14.816 14.3666L14.7643 14.3474C14.7742 14.203 14.7333 14.0249 14.8039 13.922C14.9427 13.7185 15.1429 13.5565 15.3511 13.3436L15.6346 14.5587C16.2403 13.8694 16.1468 13.1097 15.9398 12.3188C16.1691 12.4588 16.3952 12.5911 16.5734 12.7708C16.7516 12.9505 16.8882 13.1828 17.0409 13.3904C17.3684 13.0168 17.3725 12.3928 17.0013 12.052C16.789 11.8572 16.5176 11.7267 16.2713 11.5697C16.2111 11.5375 16.149 11.5088 16.0854 11.4838C17.4728 11.2809 18.5765 10.7177 19.2457 9.43043C18.4039 9.43043 17.8391 9.86416 17.3666 10.4528C17.0846 10.3205 17.0605 10.2654 17.2615 10.0618C17.4958 9.82451 17.7573 9.61415 18.0051 9.39016C18.0324 9.36537 18.0742 9.31611 18.0671 9.30124C18.0437 9.2643 18.0091 9.23585 17.9683 9.22007C17.9373 9.20706 17.897 9.21605 17.8611 9.21605C16.6577 9.21605 15.4546 9.21914 14.2515 9.21264C14.0749 9.21264 13.9664 9.2746 13.9026 9.4295C13.8716 9.50572 13.8431 9.58441 13.8122 9.65969C13.7781 9.74334 13.8069 9.79198 13.8946 9.79725C14.0383 9.80561 14.1827 9.80778 14.3265 9.81305C14.6053 9.82327 14.8842 9.82296 15.1596 9.84929C15.2922 9.86231 15.4199 9.92613 15.5609 9.97043C15.4946 10.134 15.454 10.2802 15.2566 10.2105C15.22 10.3016 15.1915 10.3846 15.154 10.4633C14.9616 10.8661 14.5681 11.0417 14.0876 10.9401C13.6953 10.8571 13.4912 10.586 13.4648 10.13C13.461 10.0994 13.4507 10.07 13.4347 10.0437C13.4187 10.0173 13.3973 9.99471 13.3719 9.97724C13.2159 9.88659 13.0521 9.80987 12.8826 9.74799C12.1452 9.50014 11.4382 10.025 11.4332 10.8323C11.6294 10.7858 11.8208 10.7276 12.0167 10.6963C12.4836 10.6216 12.9093 10.6756 13.2306 11.0851C13.3081 11.1836 13.4425 11.2465 13.5624 11.3004C13.7074 11.3655 13.8704 11.3912 14.0154 11.4553C14.195 11.5315 14.3669 11.6249 14.5285 11.7342C14.7029 11.8581 14.7091 12.0056 14.5756 12.1722C14.4714 12.307 14.3604 12.4363 14.2431 12.5598C13.7102 13.102 13.0865 13.3591 12.3222 13.1531C12.3021 13.1526 12.2821 13.1554 12.263 13.1615C12.3222 13.3473 12.4418 13.4799 12.6097 13.5221C12.8222 13.5765 13.041 13.6022 13.2603 13.5983C13.4899 13.5921 13.7177 13.5329 13.9866 13.4905C13.4472 13.9273 13.0806 14.4307 12.9951 15.1439C13.418 14.8595 13.8555 14.7344 14.3584 14.7297C14.2345 14.8871 14.1273 15.0129 14.0297 15.1452C13.6619 15.6443 13.41 16.1818 13.4853 16.8249C13.5228 17.1833 13.6777 17.5192 13.9259 17.7804C14.0668 17.4281 14.188 17.0787 14.3454 16.7466C14.5062 16.4073 14.7345 16.1093 15.0363 15.8305C15.1989 17.0341 15.2021 18.2539 15.0456 19.4583C15.0747 19.4544 15.1035 19.4484 15.1317 19.4403C15.5803 19.2803 15.9923 19.0321 16.3435 18.7104C16.5839 18.488 16.7051 18.2188 16.7512 17.9012C16.842 17.2739 16.8327 16.6456 16.7934 16.016C16.7884 15.9327 16.7853 15.849 16.7813 15.7657L16.8349 15.7347C17.0564 15.9541 17.2959 16.1585 17.4948 16.3968C17.6938 16.635 17.853 16.9061 18.034 17.1698C18.2572 16.945 18.4037 16.6553 18.4522 16.3423C18.543 15.8224 18.4795 15.3137 18.3165 14.8155C18.2614 14.647 18.1994 14.4809 18.1278 14.278C18.5687 14.4441 18.9387 14.6526 19.2597 14.9844C19.4146 14.4534 19.4245 13.9567 19.2866 13.4567C19.1487 12.9567 18.873 12.5335 18.4959 12.1394C18.9455 12.1221 19.3399 12.2051 19.7278 12.3343C19.8127 11.7066 19.5013 10.7397 19.0211 10.4159C18.5226 11.0225 17.858 11.3828 17.0812 11.649C17.1525 11.7047 17.1952 11.7329 17.2318 11.7679C17.4267 11.956 17.567 12.1815 17.6017 12.4495C17.6947 13.1599 17.3399 13.7036 16.9127 14.2535C16.8281 13.8657 16.7302 13.5227 16.4718 13.2151ZM14.0371 8.50596C14.0789 8.61099 14.1043 8.70641 14.1539 8.78758C14.1824 8.83405 14.2493 8.8861 14.2992 8.88641C15.4549 8.89157 16.6108 8.89219 17.7669 8.88827C17.8069 8.88827 17.8676 8.86875 17.8834 8.83932C17.9376 8.7377 17.9763 8.62741 18.0275 8.50596H14.0371ZM13.8298 10.1222C13.7843 10.4587 13.9695 10.6433 14.2964 10.6638C14.6016 10.683 14.9121 10.5145 14.9449 10.1613C14.8284 10.1241 14.7398 10.103 14.6574 10.2508C14.526 10.4869 14.1688 10.4748 14.0024 10.2539C13.9596 10.1975 13.8881 10.1644 13.8298 10.1213V10.1222Z" fill="#151515"/>
<path d="M9.77253 11.2267C9.80351 11.2533 9.83449 11.2784 9.86362 11.3069C10.2974 11.7441 10.8164 11.8758 11.4112 11.749C11.6737 11.6933 11.9361 11.6378 12.2001 11.5923C12.6648 11.5123 13.1621 11.7503 13.3995 12.1586C13.4115 12.1794 13.419 12.2029 13.4382 12.2475C12.9542 11.9687 12.4802 11.9833 11.9953 12.1747C11.8268 12.2394 11.6534 12.2902 11.4766 12.3265C10.9567 12.4387 10.5189 12.2841 10.1635 11.8928C9.98502 11.7028 9.85141 11.4752 9.77253 11.2267Z" fill="#151515"/>
</svg>
