<svg width="32" height="32" viewBox="0 0 32 32" fill="none" xmlns="http://www.w3.org/2000/svg">
<path d="M27.1871 14.5003C27.1871 16.7412 27.2304 18.9755 27.1583 21.2147C27.0879 23.3856 26.0678 24.5846 23.8622 25.0803C22.5766 25.3693 21.6 25.6003 19.9292 25.5989C13.6 25.5989 11.2 25.6011 5.9067 25.0779C5.24356 25.0527 4.98238 24.7857 4.9756 24.1255C4.9315 20.0369 4.79667 15.9482 4.80006 11.8596C4.80261 8.83157 6.31119 7.13767 9.46998 6.79905C12.2565 6.50032 15.0795 6.37415 17.8838 6.40589C20.6898 6.43845 23.4907 6.76812 26.2951 6.95208C26.8658 6.98952 27.0167 7.25732 27.0328 7.77095C27.1041 10.011 27.0913 12.2203 27.1871 14.4596C27.1871 14.4596 27.1871 14.4736 27.1871 14.5003ZM5.92281 18.6946C5.92281 20.4398 5.905 22.0971 5.95249 23.7527C5.95673 23.9033 6.36971 24.1451 6.61478 24.1736C11.2101 24.7035 15.8215 24.9477 20.4456 24.6758C21.6379 24.6058 22.8361 24.4015 23.9962 24.1247C25.325 23.8081 26.0737 22.9086 26.2179 21.5875C26.2671 21.1358 26.2561 20.6767 26.3264 20.229C26.4231 19.6144 26.2357 19.3238 25.5429 19.1846C19.7876 18.0255 14.0424 16.8233 8.29126 15.6438C7.4704 15.4753 6.63852 15.3581 5.83377 15.2214C5.83377 16.0875 6.02959 16.291 6.51386 16.4586C9.66163 17.1342 12.1183 17.8564 15.2533 18.5857C15.7104 18.6924 16.8077 18.9592 17.241 19.1578C17.1978 19.2954 17.1545 19.4329 17.1104 19.5705C13.3572 19.2766 9.60396 18.9828 5.92112 18.6946H5.92281ZM15.1227 11.9084C15.1321 11.7513 15.1422 11.5942 15.1516 11.438C18.8352 11.3126 22.5096 11.7424 26.1645 11.9345V7.85804C25.7879 7.7849 25.1748 7.72385 24.8975 7.7035C22.4061 7.52117 20.2599 7.25569 17.7642 7.17185C14.7292 7.07011 11.6782 7.06034 8.70763 7.80269C6.48503 8.35783 5.77519 9.86056 5.8219 12.1038C12.6517 13.1758 19.4755 14.2462 26.2993 15.3174C26.2993 13.7677 26.1695 13.727 24.9773 13.477C22.4808 13.0863 19.9817 12.7078 17.4844 12.3162C16.6949 12.1925 15.9105 12.046 15.1227 11.9092V11.9084ZM26.3163 16.527C19.4492 15.3736 12.611 14.2162 5.8219 13.0758C5.83377 13.8898 5.93959 14.2561 6.54778 14.3642C11.0888 15.1717 15.623 16.0158 20.1513 16.8827C22.1908 17.2734 24.2124 17.7455 26.3154 18.1965V16.527H26.3163Z" fill="#151515"/>
</svg>
