<svg width="32" height="32" viewBox="0 0 32 32" fill="none" xmlns="http://www.w3.org/2000/svg">
<path d="M28 16.013C27.9619 22.7228 22.5701 28.0417 15.8492 27.9998C9.26893 27.9586 3.94957 22.5178 4.00035 15.8666C4.04878 9.52991 9.1419 3.92 16.1418 4.00086C22.9656 4.07966 27.9851 9.5849 28 16.013ZM27.7047 15.992C27.6851 9.50706 22.4447 4.27055 15.9874 4.2855C9.3979 4.30074 4.18519 9.70037 4.28428 16.1859C4.38083 22.503 9.55161 27.7392 16.0633 27.715C22.4873 27.6912 27.7242 22.4246 27.7047 15.992Z" fill="#151515"/>
<path d="M26.8628 16.0028C26.8624 22.0203 21.9949 26.8785 15.9721 26.8727C9.98069 26.867 5.11474 21.983 5.12324 15.9836C5.13169 9.97898 9.99705 5.12924 16.0056 5.13615C22.0213 5.14318 26.8631 9.98908 26.8628 16.0028ZM15.9914 25.9304C21.4625 25.9325 25.9091 21.4951 25.9146 16.0275C25.9202 10.5229 21.5095 6.09034 16.0153 6.079C10.5295 6.06772 6.0698 10.5094 6.06543 15.9887C6.061 21.4665 10.5157 25.9282 15.9914 25.9304Z" fill="#151515"/>
<path d="M12.6061 12.8263C12.3605 12.6143 12.162 12.4103 11.9326 12.2508C11.1341 11.6958 10.3289 11.1499 9.51742 10.6139C9.21053 10.4112 9.1934 10.3914 9.43628 10.1105C9.98801 9.47274 10.6335 8.95037 11.3436 8.49551C11.6558 8.29558 11.9006 8.30633 12.2088 8.49067C13.2007 9.08403 14.1285 9.75838 14.9699 10.5521C15.2607 10.8264 15.5806 11.0506 16.1159 10.9875C15.6711 10.4179 15.2887 9.87202 14.8473 9.37906C14.4219 8.90401 13.9322 8.48695 13.4792 8.03605C13.3953 7.95259 13.2868 7.81402 13.3068 7.72826C13.3272 7.64108 13.4835 7.55686 13.5956 7.52449C14.5675 7.24393 15.5602 7.11511 16.5702 7.20347C16.7713 7.22107 16.9989 7.30914 17.1527 7.43819C18.9672 8.96053 20.0403 10.9231 20.4481 13.236C20.7115 14.7302 20.6473 16.2358 20.3242 17.7224C20.1783 18.3933 20.0034 19.0579 19.8478 19.7269C19.7636 20.0887 19.9288 20.2772 20.2865 20.27C20.5334 20.2649 20.5738 20.1141 20.5824 19.9196C20.606 19.3943 20.6289 19.3773 21.1605 19.4948C22.0245 19.6859 22.7843 20.081 23.4419 20.6713C23.6777 20.883 23.6763 21.0126 23.4388 21.2273C22.7356 21.8632 21.9117 22.26 20.9844 22.4418C20.6657 22.5044 20.5858 22.4268 20.5819 22.0909C20.5771 21.6627 20.5562 21.641 20.1304 21.641C17.552 21.6407 14.9735 21.6354 12.3951 21.6498C12.1553 21.6511 11.9081 21.7579 11.6786 21.8508C11.2865 22.0095 10.988 22.3826 10.5054 22.3404C10.2711 22.3199 10.0327 22.3261 9.79739 22.3402C9.60748 22.3516 9.49746 22.2773 9.38822 22.1225C8.90658 21.4404 8.4018 20.7747 7.92329 20.0905C7.83318 19.9616 7.75688 19.7527 7.80052 19.6233C7.83383 19.5247 8.06567 19.4439 8.21123 19.4405C8.96859 19.4227 9.72671 19.4272 10.4844 19.4365C10.6263 19.4383 10.7768 19.4759 10.9072 19.5336C11.3747 19.7401 11.8283 19.9798 12.3023 20.1689C12.4627 20.2329 12.7115 20.2506 12.8396 20.1667C12.9473 20.0962 12.9962 19.8391 12.9724 19.6792C12.6727 17.6618 11.4998 16.3348 9.63807 15.6055C9.02026 15.3636 8.35887 15.2294 7.71259 15.0647C7.34085 14.97 7.24702 14.8638 7.31233 14.4877C7.46794 13.5917 7.74737 12.7384 8.16936 11.9296C8.31416 11.6521 8.50366 11.5502 8.79001 11.6585C9.68011 11.995 10.5652 12.345 11.4574 12.6758C11.7472 12.7833 12.0512 12.8548 12.3528 12.9258C12.4115 12.9397 12.4888 12.8749 12.6061 12.8263ZM16.4958 18.1352C16.4966 18.7518 16.98 19.2449 17.5895 19.2508C18.2027 19.2569 18.7132 18.744 18.7106 18.1245C18.708 17.5116 18.2199 17.021 17.6087 17.0173C16.9773 17.0133 16.4949 17.4979 16.4958 18.1352Z" fill="#151515"/>
</svg>
