<svg width="32" height="32" viewBox="0 0 32 32" fill="none" xmlns="http://www.w3.org/2000/svg">
<path d="M20.9504 4.42219C21.5302 4.55308 22.0698 4.666 22.6035 4.79827C23.002 4.8969 23.3934 5.02549 23.7906 5.12873C23.9374 5.16698 23.9988 5.23196 23.9988 5.39558C23.9943 9.93482 24.0126 14.475 23.9804 19.0138C23.9715 20.2545 23.4941 21.373 22.7943 22.3851C22.2422 23.1843 21.5316 23.8088 20.7739 24.3886C19.2542 25.5525 17.7394 26.723 16.2295 27.9001C16.0616 28.031 15.9577 28.0347 15.7894 27.9029C14.2571 26.7046 12.7198 25.5141 11.1774 24.3315C10.5214 23.8305 9.90078 23.2991 9.39793 22.6303C8.63135 21.6099 8.15314 20.4697 8.04433 19.1788C8.01164 18.7898 8.00582 18.3976 8.00537 18.0063C8.00269 13.8276 8.0009 9.64892 8 5.47024C8 5.26561 8.05597 5.16329 8.25299 5.11582C9.11629 4.9075 9.97779 4.69242 10.8375 4.47058C11.0466 4.4162 11.0963 4.48164 11.0963 4.69042C11.0912 9.03011 11.0889 13.3698 11.0892 17.7095C11.0892 18.2598 11.1339 18.7985 11.3292 19.3152C11.8038 20.566 12.6698 21.439 13.8626 21.9298C15.6985 22.6852 17.4828 22.5414 19.1221 21.368C20.3042 20.5218 20.9307 19.3313 20.9311 17.8261C20.9329 13.4557 20.9338 9.08526 20.9338 4.71485C20.9342 4.63512 20.9427 4.55308 20.9504 4.42219Z" fill="#151515"/>
<path d="M14.4564 10.9193C14.4564 8.71487 14.46 6.51046 14.4506 4.30651C14.4506 4.06777 14.5276 3.99864 14.7416 4.00002C15.5843 4.00601 16.427 4.00002 17.2697 4.00509C17.563 4.00786 17.5684 4.02445 17.5679 4.32771C17.5652 6.10903 17.5585 7.89034 17.559 9.67396C17.559 11.4935 17.5666 13.3149 17.5679 15.1331C17.5679 15.9314 17.5616 16.7301 17.5608 17.5297C17.5608 18.2542 17.0651 18.8322 16.324 18.9714C15.5583 19.1152 14.8092 18.7368 14.554 18.0533C14.4881 17.8581 14.4562 17.6525 14.46 17.4459C14.4537 15.268 14.4525 13.0925 14.4564 10.9193Z" fill="#151515"/>
</svg>
