<svg width="32" height="32" viewBox="0 0 32 32" fill="none" xmlns="http://www.w3.org/2000/svg">
<path d="M18.7108 12.3282C18.206 12.1257 17.7063 11.9157 17.1774 11.7656C16.5362 11.5834 15.8636 11.5013 15.1597 11.5194C13.8947 11.5522 12.6993 12.1224 11.8743 13.072C10.9672 14.116 10.5996 15.4937 10.8549 16.8471C11.0963 18.1262 11.9013 19.2453 13.043 19.8988C13.7149 20.2833 14.4444 20.4823 15.2316 20.4958C15.774 20.5051 16.3302 20.449 16.8423 20.3325C17.4476 20.1948 18.073 19.95 18.6587 19.7017C18.7228 19.6746 18.7739 19.6635 18.8122 19.6683C18.8983 19.6794 18.9673 19.7571 18.9673 19.8458C18.9677 21.4637 18.9676 23.0581 18.9668 24.6291C18.9667 24.738 18.9274 24.8244 18.849 24.8884C18.8108 24.9194 18.7195 24.9611 18.5751 25.0134C17.7832 25.2998 16.9864 25.4804 16.1847 25.5551C14.454 25.7162 12.8047 25.443 11.2367 24.7354C10.347 24.3337 9.47929 23.7724 8.74166 23.095C7.3884 21.8527 6.46192 20.3635 5.9622 18.6274C5.71835 17.7797 5.59763 16.897 5.60003 15.9791C5.60484 14.2226 6.05896 12.5862 6.96238 11.0699C7.03916 10.941 7.11961 10.8144 7.20375 10.6901C8.19252 9.22904 9.47448 8.1176 11.0497 7.3558C12.2092 6.79491 13.4612 6.4795 14.8056 6.40956C14.9533 6.40199 15.105 6.39887 15.2606 6.4002C16.4767 6.41045 17.6363 6.62978 18.7392 7.0582C18.8911 7.11716 18.9671 7.23225 18.9673 7.40347C18.9682 9.00726 18.9678 10.5987 18.9661 12.1776C18.9659 12.2547 18.9019 12.3222 18.8303 12.3396C18.7927 12.3488 18.7529 12.345 18.7108 12.3282Z" fill="#151515"/>
<path d="M26.035 17.192C25.8612 17.5778 25.6657 17.9629 25.4484 18.3474C24.8491 19.4076 24.1682 20.4139 23.4059 21.3661C23.0749 21.7796 22.7321 22.1727 22.3776 22.5453C21.7911 23.1616 21.1608 23.7205 20.4428 24.1805C20.3508 24.2395 20.2632 24.2656 20.171 24.1976C20.114 24.1558 20.0856 24.1016 20.0856 24.035C20.0851 18.5719 20.0852 13.2179 20.0858 7.97303C20.0858 7.8131 20.2681 7.72667 20.3999 7.80642C20.6625 7.96479 20.916 8.14901 21.1556 8.34012C21.9897 9.00525 22.7467 9.81963 23.4215 10.6658C24.243 11.6963 24.9591 12.7693 25.5697 13.8848C25.811 14.3258 26.0156 14.7552 26.1836 15.1727C26.2446 15.3244 26.3002 15.491 26.3506 15.6726C26.4052 15.8698 26.4146 16.0513 26.3785 16.217C26.3068 16.5475 26.1745 16.8826 26.035 17.192Z" fill="#151515"/>
</svg>
