<svg width="32" height="32" viewBox="0 0 32 32" fill="none" xmlns="http://www.w3.org/2000/svg">
<path d="M7.11896 9.12831C7.94788 8.64592 8.79169 8.2643 9.65036 7.98345C10.0371 7.85637 10.4001 7.78636 10.7394 7.77341C10.8471 7.76937 10.9147 7.8151 10.942 7.9106C10.949 7.9348 10.9468 7.96075 10.936 7.98345L10.895 8.06357C10.8668 8.11861 10.8801 8.13197 10.9348 8.10364C11.7154 7.70219 12.4949 7.41283 13.2732 7.23558C13.4316 7.19916 13.6049 7.19066 13.793 7.21009C13.842 7.21575 13.8633 7.24287 13.8569 7.29143C13.8424 7.39665 13.793 7.47556 13.7086 7.52817C13.3837 7.7289 13.0758 7.92679 12.7848 8.12185C10.7406 9.4901 8.74224 11.4763 8.3334 13.8607C8.23934 14.4107 8.31531 15.0699 8.47571 15.6102C8.90183 17.0493 9.80031 18.11 11.1711 18.7923C11.4823 18.9469 12.0121 19.1193 12.7606 19.3095C13.5052 19.4989 14.2223 19.6539 14.9122 19.7744C15.2824 19.8388 15.6237 20.3536 15.2679 20.6595C15.038 20.8578 14.8068 21.0423 14.5745 21.2131C13.7435 21.8226 14.0221 22.7926 14.8458 23.1957C15.7479 23.6388 17.1734 23.5247 17.7499 22.6008C18.2962 21.723 17.3049 21.2168 16.7839 20.7712C16.3316 20.3863 16.6609 19.8764 17.1348 19.7927C18.3276 19.5851 19.6192 19.3252 20.6238 18.8991C22.3653 18.161 23.6014 16.4953 23.669 14.5066C23.7051 13.4297 23.1624 12.2412 22.5679 11.3768C21.4945 9.8179 19.934 8.54677 18.2769 7.58887C18.1756 7.52979 18.1121 7.44238 18.0864 7.32664C18.0759 7.27726 18.0956 7.24853 18.1455 7.24044C18.3199 7.21373 18.492 7.2198 18.6616 7.25865C19.4833 7.44561 20.262 7.71514 20.9977 8.06722C21.0628 8.09878 21.0861 8.07936 21.0676 8.00894C21.0282 7.85678 21.0829 7.77908 21.2316 7.77584C21.5138 7.77098 21.7341 7.79243 21.8925 7.84019C24.2145 8.53787 26.1176 9.68192 27.6017 11.2723C28.2313 11.9466 28.6586 12.6855 28.8837 13.4892C29.1732 14.5248 28.8512 15.5483 28.2433 16.3921C27.4136 17.5418 26.2438 18.2156 24.9111 18.717C24.8999 18.721 24.8963 18.7287 24.9003 18.7401V18.7413C24.9043 18.7542 24.9128 18.7587 24.9256 18.7546C26.9915 18.1549 29.3492 16.7296 29.4554 14.3148C29.5277 12.6855 28.2723 11.3573 27.0687 10.4492C26.366 9.91745 25.6762 9.48403 24.9992 9.14895C24.8834 9.09229 24.8259 8.99719 24.8267 8.86364C24.8275 8.82236 24.848 8.7997 24.8882 8.79566C25.0651 8.77704 25.2327 8.79808 25.3911 8.85879C27.3871 9.62122 30.2212 11.6354 30.3888 14.0756C30.4314 14.6899 30.3522 15.2173 30.1512 15.6576C29.0719 18.0262 26.5212 19.0545 24.1888 19.6725C22.4063 20.1451 20.5575 20.5591 18.6423 20.9145C18.6099 20.9203 18.5799 20.9357 18.5561 20.9587C18.5322 20.9817 18.5157 21.0112 18.5085 21.0436C18.5013 21.076 18.5037 21.1099 18.5155 21.1409C18.5273 21.1719 18.5479 21.1987 18.5748 21.218C18.8088 21.3871 19.0447 21.5757 19.2827 21.7837C20.2355 22.6178 19.29 23.1908 18.57 23.4786C18.1575 23.6429 17.7816 23.8832 17.4424 24.1997C16.609 24.9755 15.4283 25.0204 14.5986 24.2106C14.1114 23.7359 13.4987 23.5126 12.9018 23.2127C12.3253 22.9225 12.1058 22.2973 12.6678 21.842C12.9251 21.6332 13.1912 21.4033 13.4662 21.1524C13.4853 21.1351 13.4992 21.1127 13.5064 21.0878C13.5135 21.0629 13.5136 21.0365 13.5065 21.0116C13.4995 20.9867 13.4856 20.9643 13.4666 20.9469C13.4475 20.9295 13.424 20.9178 13.3986 20.9132C11.6322 20.5863 9.82604 20.1868 7.98004 19.715C5.65848 19.1213 3.38275 18.2289 2.07786 16.08C1.79485 15.6147 1.63726 15.0902 1.6051 14.5066C1.45917 11.8417 4.47901 9.68192 6.62449 8.85272C6.74911 8.80496 6.89745 8.78473 7.06951 8.79201C7.10971 8.79444 7.13262 8.81548 7.13825 8.85514C7.15031 8.94175 7.13182 9.01904 7.08278 9.08703C7.03052 9.15907 7.04258 9.17282 7.11896 9.12831ZM21.5114 19.3993C21.4978 19.3993 21.4849 19.3997 21.4728 19.4005C21.468 19.4005 21.4652 19.4029 21.4644 19.4078C21.4636 19.4118 21.4652 19.4155 21.4692 19.4187C21.4741 19.4222 21.4797 19.4245 21.4855 19.4256C21.4914 19.4266 21.4973 19.4264 21.503 19.4248C23.2336 18.9015 25.0342 18.0735 26.2498 16.7733C26.9987 15.9732 27.3449 15.042 27.2375 13.9239C26.9686 11.1376 24.0935 9.32984 21.7189 8.36466C21.702 8.35819 21.6899 8.36304 21.6827 8.37923V8.38044C21.6762 8.39501 21.6799 8.40594 21.6935 8.41322C22.8947 9.01621 23.9572 9.75558 24.881 10.6313C25.9471 11.6426 27.0723 13.3678 26.6779 14.9109C26.2619 16.5475 24.8448 17.8392 23.3494 18.6029C22.7464 18.9104 22.1506 19.1731 21.5621 19.3908C21.546 19.3965 21.5291 19.3993 21.5114 19.3993ZM10.2799 19.3362C8.4323 18.6587 6.66791 17.6146 5.69708 15.8943C5.11819 14.8688 5.09568 13.7907 5.62954 12.66C6.50872 10.7989 8.413 9.37476 10.2473 8.43265C10.2594 8.42617 10.2626 8.41646 10.257 8.40351C10.2505 8.38975 10.2401 8.38571 10.2256 8.39137C7.91251 9.31042 5.10613 11.1315 4.76363 13.8413C4.52002 15.7741 5.80441 17.1424 7.38669 18.0711C8.31773 18.6174 9.28173 19.0444 10.2787 19.352C10.2827 19.3536 10.2867 19.3532 10.2907 19.3507C10.2948 19.3475 10.2944 19.3443 10.2895 19.341C10.2871 19.3394 10.2839 19.3378 10.2799 19.3362ZM6.37365 18.4281C4.50072 17.6328 2.42639 15.6296 3.14396 13.3605C3.70596 11.5795 5.38352 10.1214 6.98991 9.21208C7.00519 9.20318 7.00881 9.19144 7.00077 9.17687L6.99956 9.17566C6.99152 9.16028 6.97986 9.15623 6.96459 9.16352C5.95958 9.67585 5.04985 10.2987 4.2354 11.032C2.86176 12.2691 2.05132 13.8462 2.8702 15.6855C3.57089 17.2601 5.41367 18.2557 6.97785 18.7267C6.98991 18.7308 6.99795 18.7267 7.00197 18.7146L7.00318 18.7134C7.00881 18.6964 7.00318 18.6846 6.9863 18.6781C6.77243 18.5948 6.56821 18.5114 6.37365 18.4281Z" fill="#151515"/>
</svg>
