<svg width="32" height="32" viewBox="0 0 32 32" fill="none" xmlns="http://www.w3.org/2000/svg">
<path d="M15.4766 23.9984C11.4499 23.8333 7.72911 23.1939 4.41984 21.1554C3.57204 20.6332 2.77809 19.965 2.12029 19.2287C0.354127 17.2515 0.375947 14.8268 2.08941 12.8112C3.47034 11.1867 5.28933 10.1609 7.30113 9.50037C13.888 7.33786 20.4 7.40458 26.7225 10.4117C27.7674 10.9086 28.7384 11.6572 29.5635 12.4631C31.7368 14.5858 31.7297 17.3283 29.636 19.5293C27.9081 21.3458 25.6685 22.315 23.285 23.0133C20.6804 23.7764 18.0039 24.0225 15.4766 23.9984ZM15.7112 23.0266C18.6007 23.0209 21.1406 22.7036 23.5993 21.9014C25.4265 21.3053 27.1444 20.5093 28.5182 19.1458C30.4558 17.2225 30.4657 14.8738 28.5437 12.9453C27.4283 11.826 26.0695 11.0622 24.585 10.5252C19.3239 8.62148 13.9976 8.5617 8.64377 10.1175C6.75447 10.6665 5.0012 11.4993 3.58556 12.8787C1.58282 14.8302 1.54276 17.2302 3.58084 19.1501C4.3605 19.8845 5.29698 20.5145 6.26486 20.999C9.31318 22.525 12.6223 22.9862 15.7112 23.0266Z" fill="#151515"/>
<path d="M24.3569 16.4262C24.2702 16.1542 24.1482 15.8874 24.1039 15.6089C23.9919 14.9041 23.5223 14.7063 22.8612 14.6096C20.6579 14.2877 18.4977 14.6896 16.3259 14.9092C15.7136 14.971 15.1052 15.0679 14.4944 15.1431C13.5526 15.2587 12.9377 15.7275 12.6957 16.6424C12.4433 17.5961 12.1642 18.5432 11.7704 19.5284C11.7029 19.337 11.6224 19.1489 11.5702 18.9536C11.3575 18.1572 11.1661 17.3555 10.9428 16.562C10.7206 15.7729 10.2069 15.2978 9.34032 15.1855C7.63579 14.9648 5.93458 14.721 4.23222 14.485C3.96272 14.4476 3.6945 14.4013 3.42564 14.3591C3.4213 14.3053 3.41683 14.2516 3.41249 14.1977C4.18743 14.086 4.96198 13.9722 5.73718 13.863C6.91343 13.6974 8.09121 13.5415 9.26644 13.3691C10.1418 13.2406 10.7303 12.7807 11.0016 11.9413C11.2327 11.2259 11.4994 10.5213 11.8995 9.80364C12.0865 10.3569 12.3089 10.9016 12.453 11.4651C12.7545 12.6453 13.4757 13.2938 14.7477 13.4217C16.627 13.6107 18.4955 13.9187 20.3779 14.0561C21.3171 14.1247 22.287 13.9815 23.2218 13.8195C23.5458 13.7633 23.8422 13.3899 24.0826 13.1067C24.2438 12.9168 24.2844 12.6304 24.4089 12.3101C24.5018 12.4397 24.5714 12.4945 24.5828 12.5591C24.7689 13.5988 25.483 13.9528 26.483 13.9926C26.8903 14.0088 27.2935 14.1219 27.6987 14.1908C27.6985 14.2435 27.6983 14.2962 27.6982 14.349C27.2313 14.4341 26.7665 14.5755 26.2969 14.5924C25.3818 14.6255 24.8135 14.9886 24.6825 15.9065C24.6577 16.0796 24.5582 16.2428 24.4931 16.4106C24.4478 16.4158 24.4024 16.421 24.3569 16.4262Z" fill="#151515"/>
<path d="M22.1268 21.6818C22.056 21.6339 22.0253 21.6241 22.0229 21.61C21.82 20.3836 20.8578 20.193 19.8489 20.2083C18.7933 20.2244 17.7338 20.3331 16.6896 20.4877C16.4359 20.5252 16.1768 20.8698 16.0262 21.1308C15.8489 21.438 15.7873 21.8079 15.5449 22.1446C15.4492 21.8589 15.3268 21.5787 15.2635 21.2865C15.1425 20.7274 14.824 20.446 14.2239 20.3911C13.5155 20.3264 12.8136 20.1942 12.1089 20.0912C12.1095 20.0287 12.1102 19.9664 12.1108 19.9039C12.6035 19.8347 13.0951 19.7161 13.5891 19.7068C14.5793 19.6882 15.2726 19.3568 15.4324 18.3212C15.4439 18.2465 15.5149 18.1805 15.6092 18.0276C15.7156 18.2596 15.8223 18.4262 15.8695 18.6072C16.0369 19.249 16.4519 19.6116 17.1285 19.6306C18.2684 19.6625 19.4093 19.6709 20.5497 19.6699C21.2873 19.6693 21.727 19.2949 21.8766 18.5921C21.8995 18.4842 21.9693 18.3857 22.0401 18.2343C22.1338 18.3426 22.2225 18.3974 22.2295 18.4606C22.339 19.4598 23.0793 19.6168 23.9132 19.6814C24.3841 19.7179 24.851 19.8022 25.3197 19.865C25.3182 19.9197 25.3167 19.9744 25.3152 20.0292C24.7866 20.111 24.2596 20.2458 23.7287 20.2623C22.8979 20.288 22.4305 20.6645 22.2645 21.437C22.2484 21.5117 22.1871 21.5772 22.1268 21.6818Z" fill="#151515"/>
<path d="M19.9915 19.2976C19.8767 18.9482 19.7409 18.6038 19.6528 18.2482C19.5491 17.8291 19.2875 17.6243 18.8614 17.5647C18.0946 17.4575 17.3297 17.3379 16.5639 17.2232C16.5629 17.1598 16.562 17.0964 16.561 17.0329C16.9688 16.9721 17.3755 16.8691 17.7846 16.8589C18.8443 16.8324 19.726 16.6046 19.9061 15.3924C19.9158 15.3272 19.9987 15.2723 20.0609 15.1964C20.4346 16.8487 21.7907 16.8758 23.0745 16.9212C23.7639 16.9456 24.4688 16.8243 25.1491 16.6868C25.3888 16.6383 25.6083 16.37 25.7777 16.1573C25.9245 15.9729 25.9874 15.7255 26.1726 15.445C26.4361 17.0414 27.8698 16.6882 29.0268 17.1089C28.6781 17.1947 28.4945 17.2501 28.3065 17.2833C28.1189 17.3164 27.9275 17.3294 27.7373 17.3476C26.9804 17.4197 26.4569 17.7397 26.3557 18.5357C26.3392 18.6657 26.2539 18.7873 26.1704 18.9829C26.0806 18.8102 25.991 18.7095 25.9768 18.5996C25.858 17.6806 25.2329 17.3392 24.3828 17.3703C23.2859 17.4104 22.1875 17.4985 21.1007 17.6437C20.867 17.6749 20.6204 18.0079 20.4872 18.2561C20.3172 18.5728 20.2564 18.9446 20.1484 19.2926C20.0964 19.2943 20.0439 19.2959 19.9915 19.2976Z" fill="#151515"/>
</svg>
