<svg width="32" height="32" viewBox="0 0 32 32" fill="none" xmlns="http://www.w3.org/2000/svg">
<path d="M16.0548 5.59985C16.5204 5.94159 16.9843 6.28573 17.452 6.62463C19.0768 7.80196 20.7028 8.9775 22.3283 10.1537C23.6688 11.1237 25.0093 12.0937 26.3497 13.0639C26.3647 13.0748 26.3775 13.0888 26.4 13.1092C26.1966 13.4036 25.9532 13.6542 25.6736 13.8703C24.9858 14.402 24.1938 14.678 23.3438 14.8184C22.5885 14.9431 21.8311 14.9465 21.0733 14.8697C20.5607 14.8177 20.0498 14.7408 19.5648 14.5555C19.4319 14.5047 19.3 14.437 19.1866 14.352C17.4868 13.0796 15.7896 11.8038 14.0949 10.5247C14.0164 10.4654 13.9676 10.4668 13.8947 10.519C13.7272 10.6389 13.5553 10.7527 13.3721 10.878C17.5805 14.0581 21.7782 17.2302 25.9594 20.3898C22.3839 21.9988 19.052 24.0113 15.9189 26.3999C12.4996 23.8337 9.05488 21.2484 5.59998 18.6555C5.98657 18.2979 6.40016 17.9942 6.84871 17.7366C7.51765 17.3524 8.2352 17.1076 9.00172 17.0232C10.0827 16.9042 11.1127 17.1103 12.1098 17.5283C12.8842 17.8529 13.549 18.3433 14.2088 18.8463C15.1141 19.5366 16.0251 20.2197 16.9332 20.9065C17.3257 21.2033 17.7169 21.5018 18.119 21.8074C18.2798 21.6579 18.4414 21.5078 18.6195 21.3422C14.2914 18.066 9.96582 14.7918 5.62192 11.5036C5.83336 11.4208 6.02763 11.3487 6.21875 11.2691C7.41671 10.7701 8.57468 10.1885 9.72071 9.58258C11.0503 8.8796 12.3582 8.139 13.6308 7.33769C14.4234 6.83869 15.202 6.32002 15.9178 5.71376C15.9575 5.68014 15.9899 5.63799 16.0257 5.59985C16.0354 5.59985 16.0451 5.59985 16.0548 5.59985Z" fill="#151515"/>
</svg>
