<svg width="32" height="32" viewBox="0 0 32 32" fill="none" xmlns="http://www.w3.org/2000/svg">
<path d="M15.5692 8.82412C15.8755 8.82412 16.1827 8.81054 16.4881 8.8272C17.0319 8.85806 17.5744 8.90527 18.1175 8.94693C18.5061 8.97779 18.8966 9.00093 19.2833 9.04259C19.6572 9.08301 20.0311 9.13516 20.4032 9.19687C20.8232 9.26846 21.2445 9.34622 21.6574 9.44373C22.1741 9.56716 22.6857 9.70972 23.1987 9.85074C23.6567 9.97694 24.1151 10.1031 24.5697 10.2466C24.9069 10.3534 25.2391 10.4781 25.5669 10.6117C25.9072 10.7499 26.249 10.8894 26.5722 11.0619C27.1642 11.3766 27.7391 11.7185 28.2474 12.1585C28.5129 12.3881 28.7967 12.6013 29.0345 12.8565C29.3608 13.2071 29.663 13.5823 29.8743 14.0186C29.8974 14.0658 29.9466 14.101 29.9678 14.1488C30.0282 14.2893 30.0838 14.4317 30.1345 14.5759C30.1921 14.7413 30.2526 14.907 30.294 15.0767C30.3894 15.4664 30.4124 15.858 30.3944 16.2635C30.3754 16.6834 30.2753 17.0747 30.127 17.4552C30.0229 17.7227 29.8696 17.9733 29.7219 18.2207C29.5917 18.4367 29.4549 18.6527 29.2882 18.841C29.0587 19.1006 28.8104 19.3432 28.5453 19.567C28.1953 19.8605 27.8264 20.1323 27.4546 20.4002C27.2356 20.5559 27.0066 20.6973 26.7691 20.8235C26.3765 21.0346 25.9835 21.2478 25.575 21.425C25.1303 21.6178 24.6713 21.7786 24.212 21.9378C23.7256 22.1072 23.2354 22.2689 22.7409 22.4136C22.41 22.5084 22.0743 22.5855 21.735 22.6444C21.2131 22.737 20.6883 22.8175 20.1636 22.8944C19.7005 22.9613 19.2371 23.023 18.7697 23.0767C18.4743 23.1101 18.1777 23.1314 17.8788 23.14C16.9727 23.1659 16.0665 23.1931 15.16 23.1996C14.6956 23.2036 14.2314 23.1825 13.7693 23.1363C13.1938 23.077 12.6198 22.9925 12.0498 22.8934C11.3007 22.7628 10.5544 22.6177 9.81092 22.4581C9.4563 22.3812 9.11291 22.2532 8.76484 22.147C8.43547 22.0467 8.10267 21.9554 7.7789 21.8403C7.44673 21.7221 7.12452 21.5789 6.79608 21.4481C6.48447 21.3247 6.16632 21.2083 5.85782 21.0735C5.62732 20.9708 5.40226 20.8566 5.1835 20.7313C4.82764 20.5304 4.47365 20.3255 4.12776 20.1089C3.96202 19.999 3.80456 19.8773 3.6566 19.7448C3.43848 19.5596 3.21069 19.3791 3.01749 19.1693C2.64605 18.7648 2.31013 18.3417 2.07082 17.8353C1.84209 17.3512 1.71527 16.8479 1.62303 16.3323C1.58439 16.1163 1.60153 15.8861 1.62303 15.6648C1.67725 15.0786 1.8368 14.517 2.14996 14.0128C2.34743 13.6951 2.56604 13.3908 2.80435 13.1018C3.39205 12.3881 4.14614 11.8589 4.90211 11.343C5.27355 11.0887 5.69423 10.9033 6.09901 10.699C6.43119 10.5314 6.76492 10.3617 7.11206 10.23C7.55641 10.0615 8.01199 9.9214 8.46819 9.78501C8.85583 9.6696 9.24721 9.56376 9.64389 9.48014C10.1518 9.37276 10.6647 9.28728 11.177 9.20243C11.5902 9.13269 12.0047 9.07128 12.4197 9.01389C12.6977 8.97563 12.9766 8.93891 13.2564 8.92132C14.0273 8.87503 14.7986 8.83985 15.5698 8.80005L15.5692 8.82412ZM16.1522 9.51439C16.4878 9.85382 16.8225 10.1902 17.1553 10.5281C17.5195 10.8983 17.8807 11.2686 18.2459 11.6389C18.651 12.0456 19.0617 12.4452 19.464 12.8538C19.8784 13.275 20.2857 13.7026 20.6961 14.1278C20.9059 14.3451 21.1154 14.5627 21.3246 14.7808C21.3352 14.7919 21.3464 14.8027 21.3558 14.8141C21.7347 15.2153 22.1105 15.6164 22.4935 16.0138C22.8098 16.3415 23.1348 16.6618 23.4545 16.9849C23.5729 17.1053 23.6857 17.2318 23.8032 17.3524C24.27 17.835 24.7374 18.3173 25.2054 18.7993C25.3672 18.9672 25.5255 19.1387 25.6822 19.3112C25.752 19.3878 25.8221 19.4075 25.91 19.3421C25.9411 19.319 25.9795 19.3035 26.0134 19.2832C26.2169 19.1597 26.426 19.0443 26.6223 18.9107C26.8489 18.7564 27.0645 18.5864 27.2839 18.4222C27.7918 18.0469 28.22 17.5761 28.544 17.0368C28.7581 16.677 28.9332 16.2962 28.9843 15.8642C29.0289 15.5096 29.0184 15.1504 28.9532 14.799C28.8595 14.3048 28.6417 13.8418 28.3197 13.453C28.0081 13.0728 27.6316 12.7433 27.273 12.4008C27.1224 12.2529 26.9551 12.1228 26.7744 12.0129C26.4441 11.8203 26.0913 11.6654 25.7598 11.4744C25.2484 11.1791 24.7003 10.9764 24.1394 10.8033C23.672 10.6586 23.2011 10.5176 22.7269 10.3941C22.066 10.2219 21.4032 10.0547 20.7357 9.9106C20.3583 9.82975 19.9694 9.80167 19.5858 9.75045C19.2085 9.69984 18.8317 9.63967 18.4528 9.60326C18.1552 9.57487 17.8548 9.57981 17.556 9.56407C17.1247 9.54186 16.6938 9.51316 16.2625 9.49063C16.2247 9.49258 16.1874 9.50061 16.1522 9.51439ZM15.6162 9.5505L15.6063 9.50205C15.5616 9.48931 15.5158 9.48125 15.4695 9.47798C15.3937 9.48045 15.3186 9.49989 15.2429 9.50205C14.7986 9.51439 14.3539 9.5218 13.9092 9.53507C13.7684 9.53939 13.6288 9.55296 13.4876 9.56778C13.1268 9.60645 12.7663 9.64677 12.4063 9.68874C12.1935 9.71311 11.9804 9.73626 11.7688 9.76958C11.4422 9.8205 11.1172 9.87789 10.7925 9.93528C10.4167 9.99978 10.035 10.0414 9.66695 10.1359C9.17212 10.2621 8.68818 10.4216 8.20612 10.5821C7.88173 10.6897 7.56358 10.8178 7.24698 10.9474C6.58079 11.2198 5.94579 11.5617 5.3527 11.9672C4.99591 12.2113 4.66934 12.5035 4.35181 12.7979C4.09086 13.0335 3.85279 13.2928 3.64071 13.5724C3.24091 14.117 3.00596 14.7305 3.02185 15.4155C3.02902 15.7173 3.04834 16.024 3.17766 16.3033C3.33346 16.6393 3.48304 16.9821 3.68465 17.2929C3.86227 17.5653 4.09286 17.8082 4.32906 18.0378C4.57336 18.2757 4.84446 18.4886 5.11556 18.6972C5.27449 18.8206 5.45553 18.9132 5.62816 19.0175C5.77898 19.1101 5.93323 19.1949 6.08312 19.2878C6.18377 19.3495 6.26074 19.3449 6.34394 19.2508C6.45456 19.1249 6.58294 19.0147 6.69948 18.894C7.10852 18.4703 7.51684 18.0457 7.92443 17.6203C8.16374 17.3719 8.40618 17.1266 8.64331 16.876C9.06087 16.435 9.47531 15.9913 9.88976 15.5491C10.178 15.2424 10.4641 14.9338 10.756 14.6305C11.2612 14.1059 11.7713 13.5851 12.2764 13.0599C12.5447 12.7806 12.8086 12.4967 13.0713 12.2122C13.363 11.8981 13.6456 11.5772 13.9398 11.2665C14.3016 10.8803 14.6673 10.4977 15.0366 10.1186C15.2236 9.92387 15.4224 9.73934 15.6162 9.5505ZM22.104 19.049L22.1305 19.0061C20.427 16.4776 18.7182 13.9422 17.0041 11.3998L9.74641 16.7563C10.0471 16.809 10.3298 16.8593 10.6127 16.9087C11.0159 16.9791 11.4201 17.0469 11.823 17.1198C12.1577 17.1815 12.4908 17.2491 12.8258 17.3095C13.4103 17.4151 13.9974 17.5095 14.5807 17.623C15.103 17.7246 15.6209 17.8474 16.1416 17.9575C16.6872 18.0729 17.2322 18.1893 17.7807 18.297C18.149 18.3682 18.5211 18.4204 18.8906 18.4852C19.1486 18.5312 19.4042 18.5929 19.6625 18.6367C20.0274 18.6984 20.3945 18.7484 20.76 18.8067C21.0352 18.851 21.31 18.898 21.5842 18.9477C21.7575 18.9774 21.9301 19.0147 22.104 19.049ZM6.86339 19.6544C7.07747 19.729 7.29965 19.8179 7.53024 19.8852C7.89638 19.9919 8.26595 20.0873 8.63583 20.1814C9.01226 20.2771 9.38868 20.3749 9.76885 20.4542C10.2556 20.5557 10.7451 20.6458 11.2356 20.7294C11.6581 20.8013 12.0826 20.8652 12.5082 20.9177C12.8628 20.9612 13.2203 20.9862 13.5767 21.0136C14.0167 21.0473 14.4567 21.0917 14.8973 21.1016C15.5667 21.1164 16.2373 21.1053 16.9069 21.1056C16.9814 21.1056 17.0559 21.1114 17.13 21.1077C17.5498 21.0877 17.9714 21.0682 18.3893 21.0426C18.6448 21.0272 18.9003 21.0084 19.1546 20.9785C19.5179 20.9356 19.88 20.88 20.243 20.8319C20.4923 20.7992 20.7416 20.7745 20.9878 20.7375C21.31 20.6896 21.6313 20.6362 21.9519 20.5798C22.2115 20.5338 22.4704 20.485 22.7275 20.428C22.9251 20.3838 23.1189 20.3237 23.3152 20.2737C23.6087 20.1971 23.9073 20.1336 24.1961 20.0447C24.4707 19.9605 24.7371 19.8497 25.0063 19.7519C25.0474 19.7371 25.0908 19.7281 25.1328 19.7164L25.126 19.6547L6.86339 19.6544Z" fill="#151515"/>
</svg>
