<svg width="32" height="32" viewBox="0 0 32 32" fill="none" xmlns="http://www.w3.org/2000/svg">
<path d="M23.9541 10.5453C23.9541 10.8673 23.9526 11.1641 23.9544 11.4609C23.9717 14.4726 24.009 17.4844 23.998 20.4959C23.9934 21.7372 23.8894 22.9783 23.8214 24.2189C23.8047 24.5214 23.7588 24.8229 23.713 25.1226C23.6575 25.4863 23.4481 25.7321 23.1168 25.8015C22.5159 25.9275 21.911 26.0447 21.3026 26.116C18.3644 26.4601 15.417 26.4442 12.4695 26.3149C11.6212 26.2777 10.7755 26.1639 9.92969 26.0738C9.67098 26.0463 9.41135 25.9989 9.16008 25.9285C8.79088 25.8252 8.5784 25.5342 8.5391 25.1474C8.41044 23.8806 8.24933 22.6134 8.20318 21.3421C8.11275 18.851 8.08896 16.3572 8.04288 13.8645C8.02514 12.9061 8.02594 11.9473 8.00821 10.989C8.00496 10.813 8.05393 10.7581 8.21379 10.7775C9.00453 10.8735 9.7961 10.9613 10.5867 11.0584C10.894 11.0961 11.2016 11.1385 11.5052 11.2004C11.8052 11.2616 11.8815 11.382 11.9099 11.7042C12.0151 12.8959 12.1258 14.0871 12.2337 15.2786C12.3176 16.2062 12.3958 17.1345 12.485 18.0615C12.5506 18.7433 12.6304 19.4235 12.7021 20.1047C12.7163 20.2395 12.7046 20.3801 12.7357 20.5095C12.7977 20.7671 12.9857 20.9266 13.2433 20.931C14.4099 20.9508 15.5768 20.9785 16.7435 20.9708C17.4417 20.9663 18.1395 20.902 18.8374 20.8639C19.1983 20.8442 19.3764 20.6622 19.4081 20.2771C19.4495 19.7742 19.4907 19.2713 19.5276 18.768C19.6051 17.7097 19.6844 16.6516 19.7544 15.5928C19.8436 14.2435 19.9243 12.8936 20.0092 11.544C20.0267 11.2641 20.122 11.1258 20.3847 11.0744C21.03 10.9484 21.677 10.8311 22.3254 10.725C22.7696 10.6523 23.2172 10.6027 23.6637 10.5468C23.7466 10.5364 23.8317 10.5453 23.9541 10.5453ZM17.2798 23.5227C17.3724 23.5957 17.4212 23.6305 17.4662 23.6702C17.6909 23.8681 17.9316 24.0497 18.1342 24.2708C18.365 24.5224 18.6309 24.5634 18.9333 24.5278C19.0565 24.5133 19.1208 24.4657 19.1176 24.3227C19.1055 23.7788 19.1062 23.2345 19.0876 22.6908C19.074 22.2928 19.0639 22.2931 18.6853 22.301C18.3186 22.3086 18.3192 22.3086 18.3215 22.7039C18.3228 22.9268 18.3217 23.1498 18.3217 23.3951C18.2693 23.3652 18.2298 23.3508 18.1998 23.3242C17.9661 23.1176 17.7401 22.9004 17.4999 22.7028C17.2772 22.5197 17.1001 22.2455 16.75 22.3072C16.5379 22.3446 16.4871 22.366 16.489 22.6044C16.4927 23.0641 16.4947 23.5241 16.5104 23.9834C16.5324 24.6289 16.424 24.5516 17.0872 24.5467C17.2385 24.5456 17.2875 24.4722 17.2821 24.3171C17.2734 24.0732 17.2798 23.8287 17.2798 23.5227ZM22.3622 24.4157C22.375 24.3916 22.388 24.3677 22.4008 24.3436C22.0371 23.981 21.6733 23.6184 21.2899 23.2362C21.695 22.8909 22.1699 22.6893 22.5307 22.2928C22.485 22.2668 22.4649 22.2457 22.4445 22.2453C21.9647 22.2355 21.4743 22.1486 21.0673 22.5483C20.9301 22.6831 20.7504 22.7689 20.5719 22.8895C20.5572 22.8206 20.5457 22.7907 20.5452 22.7605C20.5361 22.2045 20.5943 22.2522 19.9926 22.258C19.8326 22.2595 19.7643 22.333 19.7686 22.5074C19.7804 22.9859 19.7753 23.4648 19.7915 23.943C19.8136 24.5922 19.7162 24.5001 20.3755 24.5027C20.519 24.5033 20.571 24.4271 20.5689 24.2873C20.5669 24.1517 20.5548 24.0151 20.5658 23.8807C20.5808 23.6993 20.713 23.6436 20.8426 23.7618C21.0085 23.9131 21.1823 24.059 21.3262 24.2321C21.6362 24.6049 22.0017 24.4702 22.3622 24.4157ZM15.4442 24.554C15.5701 24.554 15.6796 24.5586 15.7886 24.5528C15.9069 24.5465 15.9408 24.4797 15.8771 24.3722C15.498 23.7323 15.1194 23.0921 14.7336 22.457C14.6958 22.3947 14.6125 22.3326 14.5459 22.3267C14.1622 22.292 13.7645 22.2433 13.6042 22.763C13.6005 22.775 13.5918 22.7852 13.5856 22.7963C13.2917 23.3166 12.9953 23.8353 12.7055 24.3581C12.6185 24.515 12.646 24.5605 12.8168 24.5693C12.9563 24.5764 13.0972 24.563 13.2359 24.577C13.4228 24.5958 13.5458 24.529 13.6285 24.3429C13.6774 24.233 13.7303 24.1062 13.8887 24.1101C14.1499 24.1163 14.4117 24.1007 14.6726 24.1125C14.7371 24.1154 14.8287 24.172 14.8568 24.2313C14.9857 24.504 15.1713 24.6341 15.4442 24.554ZM11.3099 22.3754C11.3099 22.3785 11.3099 22.3815 11.3099 22.3846C10.8903 22.3846 10.4707 22.3833 10.0511 22.3859C9.97902 22.3863 9.90112 22.3884 9.83719 22.4177C9.80092 22.4343 9.75943 22.515 9.76837 22.5545C9.85609 22.942 10.0177 23.0728 10.3868 23.072C10.4902 23.0717 10.5939 23.0779 10.6969 23.0706C10.8368 23.0606 10.8923 23.1181 10.8898 23.2718C10.8839 23.6215 10.8977 23.9716 10.8898 24.3212C10.8856 24.5098 10.9611 24.5792 11.1279 24.572C11.2432 24.567 11.3593 24.5653 11.4744 24.5732C11.6371 24.5844 11.7039 24.5201 11.6973 24.3377C11.6843 23.9818 11.6929 23.6251 11.6848 23.269C11.6816 23.1284 11.7286 23.067 11.863 23.0698C12.0453 23.0737 12.2295 23.0812 12.4095 23.0582C12.4931 23.0474 12.5792 22.9803 12.6453 22.9164C12.7013 22.8622 12.7312 22.7766 12.7708 22.7039C12.9062 22.4556 12.8695 22.3788 12.6051 22.3765C12.1734 22.3726 11.7416 22.3754 11.3099 22.3754Z" fill="#151515"/>
<path d="M8.01602 10.0613C8.01018 10.0286 7.99931 9.99798 8.00003 9.96766C8.02609 8.8931 8.05185 7.81854 8.08166 6.7441C8.08648 6.56991 8.10757 6.39608 8.12556 6.22259C8.14738 6.01205 8.32965 5.8337 8.5299 5.83845C9.66028 5.86519 10.7904 5.9069 11.9209 5.92074C12.5944 5.92898 13.2689 5.9111 13.9418 5.87763C15.4485 5.80268 16.9539 5.78325 18.4626 5.83499C19.2737 5.86282 20.0882 5.78266 20.901 5.74504C21.4593 5.71919 22.0173 5.68393 22.5754 5.6503C22.7936 5.63713 23.0112 5.61267 23.2295 5.6009C23.5119 5.58566 23.6809 5.73765 23.7076 6.04261C23.7557 6.59017 23.8032 7.13808 23.835 7.68688C23.8724 8.33287 23.8897 8.98022 23.9233 9.62651C23.9307 9.76793 23.9085 9.83701 23.757 9.84933C23.1036 9.90259 22.4505 9.96292 21.7982 10.0307C21.1576 10.0974 20.5181 10.1766 19.8781 10.2491C19.7755 10.2607 19.6676 10.2487 19.5704 10.2783C19.3694 10.3396 19.1707 10.4129 18.9774 10.4976C18.8101 10.5708 18.7672 10.724 18.7684 10.9106C18.7761 12.219 18.7809 13.5273 18.7807 14.8357C18.7806 16.1699 18.7772 17.5041 18.7671 18.8382C18.7649 19.1352 18.7281 19.4319 18.7092 19.7289C18.6977 19.909 18.6091 19.9787 18.4409 20.0008C16.8587 20.2088 15.2753 20.1837 13.6896 20.0571C13.5002 20.0419 13.4068 19.9642 13.3913 19.7736C13.3405 19.1487 13.2663 18.5244 13.2491 17.8983C13.201 16.1443 13.1761 14.3894 13.1438 12.6348C13.1334 12.0715 13.1231 11.5081 13.1237 10.9448C13.124 10.7387 13.0449 10.5871 12.8677 10.5515C12.5852 10.4946 9.28086 10.1614 8.01602 10.0613Z" fill="#151515"/>
<path d="M14.261 23.0096C14.3783 23.2083 14.4781 23.3771 14.5966 23.5776C14.3614 23.5776 14.1674 23.5776 13.9373 23.5776C14.0498 23.3803 14.1471 23.2094 14.261 23.0096Z" fill="#151515"/>
</svg>
