<svg width="32" height="32" viewBox="0 0 32 32" fill="none" xmlns="http://www.w3.org/2000/svg">
<path d="M12.6078 9.2404C11.6395 9.33451 10.6806 9.38476 9.73787 9.5328C8.97957 9.65191 8.4278 10.0759 8.30734 10.8885C8.30116 10.93 8.27778 10.9691 8.26273 11.0085C7.19513 10.7164 5.63011 9.57266 5.05133 8.62894C5.96165 8.3076 6.84961 7.9654 7.75624 7.68042C9.451 7.14763 11.1978 6.86404 12.9668 6.68699C13.387 6.64489 13.6419 6.77584 13.8931 7.09048C14.5674 7.93508 15.2745 8.7545 15.9975 9.61837C16.4725 9.05638 16.9331 8.51227 17.3927 7.96731C17.6775 7.62959 17.9731 7.29962 18.2398 6.94868C18.3955 6.74381 18.5652 6.66186 18.8272 6.68232C21.6067 6.89889 24.2864 7.50259 26.8325 8.63407C26.8522 8.64282 26.8679 8.66032 26.9218 8.70155C26.1258 9.81035 25.0077 10.4897 23.7851 11.0285C23.7525 11.0045 23.7222 10.9937 23.7203 10.9792C23.586 9.9749 22.8716 9.58292 21.9669 9.46618C21.1176 9.35654 20.2572 9.32859 19.3681 9.26223C18.2502 15.4154 17.1436 21.5069 16.0369 27.5985C16.0154 27.599 15.9939 27.5994 15.9725 27.5999C14.8579 21.5181 13.7433 15.4363 12.6078 9.2404Z" fill="#151515"/>
<path d="M4.66874 8.04786C4.4465 7.60004 4.23373 7.17123 4 6.70033C7.00469 5.50623 10.095 4.80954 13.2831 4.51897C19.6519 3.93856 25.4548 5.60994 28 6.73025C27.7862 7.15781 27.5729 7.58432 27.3415 8.04681C23.7076 6.51834 19.9321 5.81074 16.0003 5.81501C12.077 5.81929 8.30676 6.51361 4.66874 8.04786Z" fill="#151515"/>
</svg>
