<svg width="32" height="32" viewBox="0 0 32 32" fill="none" xmlns="http://www.w3.org/2000/svg">
<path d="M15.494 7.59985C19.0147 7.63646 21.9013 8.15854 24.5831 9.49413C26.0786 10.239 27.3923 11.1953 28.3738 12.5137C29.2411 13.6788 29.6899 14.9645 29.585 16.3998C29.487 17.7405 28.9166 18.9007 28.0276 19.9297C26.7497 21.4087 25.0925 22.392 23.2456 23.1125C21.4239 23.8232 19.5205 24.2111 17.5558 24.3442C14.6614 24.5403 11.8401 24.2281 9.12022 23.2485C7.27007 22.5821 5.5977 21.6479 4.25875 20.2458C3.30793 19.2501 2.64937 18.1138 2.45692 16.7675C2.24208 15.2647 2.64321 13.9005 3.52669 12.6526C4.44809 11.3512 5.70362 10.3973 7.13593 9.63886C8.93761 8.68484 10.8776 8.1043 12.918 7.8371C13.9399 7.7033 14.9732 7.64631 15.494 7.59985ZM14.8964 23.4616C14.0876 22.558 13.7538 22.0311 13.3712 20.9352C12.8293 19.3828 12.651 17.78 12.6524 16.155C12.6525 15.9753 12.619 15.8986 12.4059 15.8674C11.3524 15.7132 10.3199 15.4737 9.32317 15.1119C8.36018 14.7624 7.44413 14.3337 6.70519 13.6343C6.20651 13.1623 5.87672 12.6128 5.90356 11.9188C5.90442 11.8963 5.88647 11.8731 5.86612 11.8226C4.43806 13.5758 3.91493 15.466 4.68624 17.5777C5.23377 19.0768 6.30689 20.2057 7.64713 21.1221C9.3257 22.27 11.2198 22.9292 13.2514 23.2566C13.7962 23.3444 14.3479 23.3943 14.8964 23.4616ZM17.0505 23.4321C17.1736 23.4321 17.2505 23.4375 17.3263 23.4313C18.8222 23.308 20.2794 23.0207 21.6764 22.4936C23.4695 21.8171 25.0543 20.861 26.2523 19.4039C27.171 18.2864 27.6868 17.0265 27.6648 15.6013C27.6456 14.3592 27.2032 13.2429 26.4495 12.2312C26.3514 12.0996 26.2461 11.9726 26.1106 11.801C26.1011 11.8845 26.0946 11.9108 26.0956 11.9369C26.117 12.5067 25.8824 12.9859 25.5067 13.415C25.1164 13.8609 24.6302 14.1968 24.1029 14.4807C22.7035 15.2342 21.1739 15.6202 19.5991 15.8673C19.3937 15.8996 19.3456 15.9641 19.3466 16.1504C19.3538 17.4873 19.2346 18.8137 18.8798 20.1118C18.5464 21.3316 18.1057 22.5055 17.0505 23.4321ZM12.7915 13.8358C12.8296 13.7849 12.8441 13.7738 12.8467 13.7607C12.8732 13.6285 12.8969 13.4958 12.9229 13.3636C13.1354 12.2844 13.4444 11.2354 14.0238 10.2726C14.2845 9.83927 14.5949 9.44227 15.0297 9.14652C15.6632 8.71556 16.3416 8.71686 16.9758 9.14993C17.4033 9.44187 17.7093 9.83289 17.9685 10.258C18.4355 11.0242 18.7256 11.8538 18.9333 12.7106C19.021 13.0727 19.091 13.4386 19.1702 13.8082C19.2164 13.8082 19.249 13.8144 19.278 13.8073C20.1215 13.5992 20.9746 13.4191 21.8047 13.171C22.4269 12.985 23.0024 12.6829 23.4617 12.2255C24.0054 11.684 24.0025 11.0706 23.4599 10.5278C23.0987 10.1664 22.6513 9.92419 22.1774 9.724C20.9456 9.20368 19.6383 8.9578 18.3069 8.82413C16.4401 8.63672 14.5752 8.6624 12.7192 8.95083C11.6577 9.1158 10.6189 9.35772 9.64512 9.80383C9.20608 10.005 8.79535 10.2458 8.47254 10.5991C8.03307 11.0802 8.00848 11.6206 8.43826 12.1073C8.61843 12.3114 8.84363 12.49 9.0771 12.6408C9.72688 13.0604 10.4616 13.3073 11.2169 13.4949C11.7436 13.6257 12.279 13.726 12.7915 13.8358ZM13.9219 16.1012C13.9202 16.1279 13.9139 16.1718 13.9152 16.2154C13.9445 17.2237 14.094 18.2134 14.4503 19.1684C14.6278 19.644 14.8517 20.0998 15.2366 20.4637C15.7224 20.9233 16.3013 20.939 16.7583 20.4548C17.0224 20.1748 17.2377 19.8377 17.4041 19.4957C17.7885 18.7059 17.9475 17.8569 18.0329 16.9964C18.0635 16.6878 18.0749 16.3776 18.0928 16.1013C16.6816 16.1012 15.3161 16.1012 13.9219 16.1012ZM17.9328 13.9644C17.9328 13.8984 17.9436 13.8519 17.9312 13.8118C17.7371 13.1816 17.5801 12.5374 17.3275 11.9285C17.1882 11.5926 16.9161 11.2911 16.6508 11.0201C16.4012 10.7652 16.055 10.6789 15.687 10.8157C15.3459 10.9425 15.1175 11.1915 14.9241 11.4714C14.5639 11.9928 14.3602 12.5744 14.2079 13.1734C14.144 13.4252 14.0979 13.6811 14.0373 13.9647C15.3595 14.071 16.6402 14.0758 17.9328 13.9644Z" fill="#151515"/>
</svg>
