<svg width="32" height="32" viewBox="0 0 32 32" fill="none" xmlns="http://www.w3.org/2000/svg">
<path d="M19.0497 23.5998C19.0553 23.3424 19.0798 23.0837 19.0612 22.828C19.0403 22.5433 19.1593 22.4703 19.4245 22.4751C20.1611 22.4886 20.8983 22.4827 21.6351 22.4775C21.7551 22.4767 21.8994 22.4748 21.9874 22.4111C22.0666 22.3538 22.1495 22.1673 22.1146 22.1151C22.0461 22.0124 21.8989 21.9052 21.781 21.9015C21.1307 21.8812 20.4788 21.8742 19.8288 21.8989C19.5064 21.9112 19.3767 21.8228 19.4178 21.491C19.4429 21.2885 19.4224 21.0805 19.4224 20.8222C20.0349 20.8222 20.6085 20.8223 21.1821 20.822C21.3049 20.8219 21.4433 20.8559 21.5467 20.8107C21.6845 20.7505 21.7953 20.6281 21.9177 20.5325C21.7966 20.441 21.6786 20.2755 21.554 20.2704C20.9041 20.2434 20.2526 20.2582 19.6017 20.2557C19.4574 20.2552 19.3132 20.2435 19.1486 20.236C19.1486 19.8427 19.1486 19.4806 19.1486 19.0892C19.2786 19.0828 19.3988 19.0717 19.5189 19.0717C20.3909 19.0712 21.2629 19.0697 22.1349 19.0748C23.1627 19.0808 23.7237 20.0138 23.2296 20.9233C23.1065 21.1499 23.1139 21.2653 23.2986 21.4498C23.8333 21.984 23.6903 23.0056 23.0472 23.4122C22.9458 23.4764 22.8421 23.5373 22.7396 23.5997C21.5097 23.5998 20.2797 23.5998 19.0497 23.5998Z" fill="#151515"/>
<path d="M12.9243 23.5998C13.0991 23.1723 13.2632 22.74 13.4508 22.3182C13.8891 21.3334 14.3434 20.3556 14.7804 19.3702C14.8772 19.1518 15.0022 19.0493 15.2515 19.0615C15.6679 19.0818 16.0873 19.0515 16.5023 19.084C16.638 19.0946 16.83 19.2033 16.8838 19.3192C17.5441 20.7405 18.1835 22.1715 18.8283 23.5999C18.2871 23.5999 17.7459 23.5999 17.2047 23.5999C17.1579 23.131 17.1072 23.0817 16.6592 23.0805C16.1336 23.0791 15.6059 23.1084 15.083 23.071C14.6653 23.0412 14.5094 23.2308 14.4741 23.5999C13.9575 23.5998 13.4409 23.5998 12.9243 23.5998ZM16.5926 21.8877C16.3804 21.376 16.1975 20.9118 15.9943 20.4566C15.9152 20.2797 15.7849 20.2892 15.7083 20.4671C15.5109 20.9255 15.3251 21.389 15.1192 21.8877C15.6178 21.8877 16.0659 21.8877 16.5926 21.8877Z" fill="#151515"/>
<path d="M10.268 23.5996C10.4147 23.2418 10.5614 22.8839 10.7205 22.4957C10.3477 22.5246 10.1787 22.3079 10.0184 22.0378C9.51094 21.1827 8.98334 20.3395 8.46482 19.4909C8.39567 19.3777 8.33361 19.2602 8.22542 19.0689C8.75382 19.0689 9.22415 19.0566 9.69278 19.0796C9.78289 19.084 9.88842 19.2128 9.94894 19.3083C10.2907 19.8477 10.6202 20.3949 10.9557 20.9382C11.0312 21.0605 11.114 21.1784 11.2446 21.3755C11.4371 21.0194 11.5989 20.7273 11.7536 20.4316C11.9471 20.0622 12.1282 19.6861 12.3293 19.3209C12.3819 19.2253 12.4851 19.0951 12.5708 19.0908C13.0197 19.0678 13.4704 19.08 13.983 19.08C13.596 19.8458 13.2393 20.5534 12.8811 21.2601C12.5428 21.9276 12.2009 22.5933 11.8654 23.2621C11.8122 23.3682 11.7839 23.4868 11.744 23.5995C11.252 23.5996 10.76 23.5996 10.268 23.5996Z" fill="#151515"/>
<path d="M30.3613 8.40116C30.4978 8.74072 30.2442 8.7976 30.0498 8.88007C28.4222 9.57086 26.7929 10.2574 25.1644 10.9461C23.5249 11.6395 21.8889 12.3414 20.2433 13.0203C19.9728 13.1318 19.8862 13.2713 19.8673 13.5563C19.7008 16.057 17.6779 17.833 15.1838 17.6873C13.004 17.56 11.1715 15.6329 11.1543 13.4497C11.1534 13.3391 11.1385 13.2257 11.1577 13.1185C11.2006 12.8786 11.0867 12.7732 10.8772 12.6846C9.07901 11.9248 7.28501 11.1552 5.48968 10.3885C4.30424 9.88217 3.11798 9.37773 1.93401 8.86783C1.75416 8.79037 1.5231 8.73172 1.62494 8.3999C2.47142 8.69262 3.30152 8.97988 4.13177 9.26692C7.96065 10.5904 11.7884 11.917 15.6214 13.2284C15.8213 13.2968 16.0856 13.2943 16.2861 13.2258C20.7945 11.6879 25.298 10.1362 29.8026 8.58728C29.9863 8.52413 30.1712 8.46438 30.3613 8.40116ZM19.3888 13.1056C18.5749 14.0393 17.3389 14.1667 16.3175 14.704C15.8743 14.9371 13.1725 14.707 12.8562 14.4251C13.7026 14.1302 14.5284 13.8425 15.3541 13.5547C15.3558 13.5175 15.3575 13.4803 15.3593 13.4431C13.9756 13.9642 12.7175 13.8599 11.6596 12.7638C11.3448 14.0064 12.0232 15.6548 13.1777 16.4856C14.5226 17.4535 16.253 17.5181 17.6117 16.6511C18.8471 15.8628 19.6217 14.3172 19.3888 13.1056Z" fill="#151515"/>
<path d="M19.1548 11.8111C18.7628 11.7878 18.5364 11.6082 18.3297 11.3113C17.0253 9.43708 14.2823 9.3296 12.8356 11.096C12.6176 11.362 12.3922 11.5297 12.0554 11.5462C12.3016 10.515 13.8469 9.48695 15.3139 9.38058C16.9191 9.26417 18.5695 10.3003 19.1548 11.8111Z" fill="#151515"/>
</svg>
