<svg width="32" height="32" viewBox="0 0 32 32" fill="none" xmlns="http://www.w3.org/2000/svg">
<path d="M4.0011 15.9748C4.01188 9.28383 9.33556 4.025 16.0512 4.00008C22.4563 3.97638 28.2109 9.3056 27.9941 16.3975C27.7967 22.8544 22.4185 28.2 15.6029 27.9942C9.02328 27.7955 3.91385 22.3281 4.0011 15.9748ZM5.00983 15.9938C5.02223 22.077 9.95076 26.9902 16.0299 26.9796C22.0598 26.9691 26.9856 22.0176 26.9791 15.9733C26.9727 9.93527 22.024 5.00532 15.9804 5.01661C9.92137 5.028 4.99752 9.9547 5.00983 15.9938Z" fill="#151515"/>
<path d="M18.9174 19.5436C18.4647 18.5372 18.043 17.5611 17.5794 16.6054C17.5006 16.443 17.2471 16.2778 17.066 16.2679C16.3574 16.2293 15.645 16.2672 14.9349 16.2456C14.6269 16.2363 14.4894 16.3624 14.373 16.6307C13.9507 17.6038 13.5035 18.5661 13.0328 19.6048C12.1045 17.5445 11.211 15.5618 10.3177 13.5791C9.97101 12.8096 9.61725 12.0432 9.28545 11.2675C9.2282 11.1335 9.19596 10.9083 9.26806 10.8124C9.8494 10.0393 10.537 9.375 11.4061 8.84827C12.1456 10.4852 12.8675 12.0835 13.5896 13.6817C13.8538 14.2664 14.1331 14.8449 14.3762 15.4382C14.4889 15.7134 14.6372 15.8215 14.94 15.8117C15.6331 15.7894 16.3279 15.7887 17.0209 15.8119C17.3388 15.8226 17.4988 15.716 17.6285 15.4225C18.4948 13.4612 19.3808 11.5085 20.2602 9.55292C20.3561 9.3396 20.4515 9.12608 20.5727 8.8558C21.4738 9.38639 22.1723 10.0754 22.7673 10.8751C22.8162 10.9408 22.7829 11.1017 22.7401 11.1969C21.5079 13.9373 20.2697 16.6749 19.0313 19.4125C19.018 19.4414 18.9883 19.4629 18.9174 19.5436Z" fill="#151515"/>
<path d="M7.82289 14.0071C9.23857 17.1483 10.6541 20.2897 12.0865 23.468C9.49604 22.3995 6.63927 18.597 7.82289 14.0071Z" fill="#151515"/>
<path d="M24.2016 13.9406C25.2475 17.7708 23.211 21.9415 19.8924 23.4809C21.3434 20.2685 22.7527 17.1482 24.2016 13.9406Z" fill="#151515"/>
<path d="M18.3516 7.83205C17.5648 9.57407 16.7973 11.2737 15.9907 13.0596C15.1832 11.2727 14.4177 9.57824 13.6327 7.8411C15.2159 7.37114 16.7509 7.38273 18.3516 7.83205Z" fill="#151515"/>
<path d="M13.6971 24.104C14.4453 22.4454 15.1938 20.786 15.9895 19.0222C16.7793 20.7733 17.5336 22.4455 18.2881 24.1184C17.1769 24.6096 14.568 24.5907 13.6971 24.104Z" fill="#151515"/>
</svg>
