<svg width="32" height="32" viewBox="0 0 32 32" fill="none" xmlns="http://www.w3.org/2000/svg">
<g clip-path="url(#clip0_17_1443)">
<path d="M16.6426 28C16.2158 28 15.789 28 15.3623 28C15.2976 27.9881 15.2334 27.9696 15.1682 27.9653C13.9083 27.8819 12.6832 27.6254 11.5267 27.1215C7.32296 25.2899 4.84682 22.1077 4.1159 17.5811C4.06416 17.2606 4.03803 16.9361 4 16.6135C4 16.1873 4 15.7611 4 15.335C4.04396 14.9593 4.0747 14.5816 4.13393 14.2083C4.60677 11.2293 5.97312 8.73393 8.29614 6.80741C11.1446 4.44511 14.4286 3.58694 18.0829 4.18262C19.8042 4.4632 21.3776 5.12612 22.8197 6.10343C23.1318 6.31493 23.4748 6.28247 23.7469 6.01991C23.8283 5.94127 23.9085 5.86123 23.9875 5.78015C24.2675 5.49269 24.2379 5.18138 23.9054 4.95916C23.5953 4.75198 23.2803 4.55236 22.9707 4.34454C22.8925 4.29203 22.8268 4.22088 22.7553 4.15829C22.7598 4.13756 22.7642 4.11687 22.7687 4.09614C22.8539 4.07573 22.939 4.03775 23.0243 4.03755C24.4842 4.03383 25.9441 4.03211 27.404 4.03655C27.7507 4.03759 27.9966 4.28651 27.9976 4.63308C28.0015 6.07101 28.0004 7.50894 27.9965 8.94684C27.9963 9.03772 27.957 9.12844 27.9358 9.21929C27.9146 9.22397 27.8933 9.22869 27.872 9.23337C27.8085 9.16278 27.7364 9.09807 27.6831 9.02047C27.491 8.74066 27.3088 8.454 27.1158 8.17483C26.9772 7.97445 26.7814 7.90734 26.5787 7.97489C26.24 8.08786 25.9086 8.56113 25.9742 8.90458C26.0257 9.17383 26.0999 9.4568 26.2394 9.68835C27.3389 11.5127 27.9338 13.4854 27.9917 15.6103C28.0633 18.2384 27.3701 20.6582 25.8541 22.811C23.8391 25.6726 21.0861 27.3724 17.6112 27.8842C17.2896 27.9316 16.9655 27.9618 16.6426 28ZM23.914 13.4755C22.997 10.4005 19.8103 7.40874 15.392 7.7118C13.3904 7.84911 11.6604 8.64017 10.2142 10.0301C9.21393 10.9914 8.50533 12.1373 8.07453 13.4755C13.3683 13.4755 18.6322 13.4755 23.914 13.4755ZM8.09296 18.5263C8.94411 21.4287 11.9076 24.3184 16.0322 24.303C20.1578 24.2876 23.08 21.3749 23.9076 18.5263C18.6353 18.5263 13.366 18.5263 8.09296 18.5263ZM24.4931 17.4194C25.0096 17.4133 25.4993 17.288 25.9179 16.9559C26.5965 16.4174 26.5915 15.5675 25.9122 15.0313C25.1525 14.4315 23.9003 14.4193 23.1299 15.0042C22.4044 15.5548 22.4058 16.4473 23.1363 16.9934C23.5343 17.2911 23.9906 17.4136 24.4931 17.4194ZM12.2708 17.4174C13.0066 17.4162 13.5333 17.2392 13.9047 16.925C14.5129 16.4106 14.5266 15.6481 13.9371 15.1291C13.1699 14.4536 11.7745 14.441 10.9965 15.1024C10.3874 15.6203 10.3736 16.3635 10.9701 16.8981C11.3869 17.2716 11.8916 17.4109 12.2708 17.4174ZM20.6001 16.6759C20.275 16.1195 19.97 15.5976 19.6436 15.039C19.8984 15.039 20.1021 15.039 20.3096 15.039C20.3096 14.9162 20.3096 14.8133 20.3096 14.7046C19.4149 14.7046 18.5324 14.7046 17.645 14.7046C17.645 14.8195 17.645 14.9225 17.645 15.0468C17.7879 15.0468 17.9209 15.0588 18.0509 15.0438C18.2162 15.0248 18.2966 15.0962 18.3703 15.238C18.7107 15.8927 19.0654 16.54 19.409 17.1932C19.4657 17.3011 19.5303 17.3438 19.6551 17.3409C20.0346 17.3321 20.4147 17.332 20.7943 17.341C20.92 17.3439 20.9825 17.2982 21.0388 17.191C21.3883 16.5259 21.7471 15.8658 22.0961 15.2005C22.1565 15.0856 22.2245 15.0321 22.3583 15.044C22.502 15.0567 22.6477 15.0469 22.8026 15.0469C22.8026 14.9212 22.8026 14.8181 22.8026 14.7073C22.1864 14.7073 21.5784 14.7073 20.9742 14.7073C20.9742 14.8251 20.9742 14.928 20.9742 15.0511C21.1239 15.0511 21.2599 15.0511 21.4317 15.0511C21.1505 15.6004 20.8855 16.1183 20.6001 16.6759ZM5.58909 15.0468C5.7346 15.0468 5.86785 15.0591 5.99785 15.0437C6.16352 15.0242 6.24471 15.097 6.31793 15.2375C6.65624 15.8863 7.00914 16.5274 7.34689 17.1765C7.41233 17.3023 7.48727 17.3442 7.62485 17.3408C7.9846 17.3317 8.34495 17.3304 8.70458 17.3413C8.84997 17.3457 8.92988 17.3031 8.99829 17.1709C9.30101 16.5861 9.63291 16.0158 9.91901 15.4232C10.0582 15.1349 10.2198 14.976 10.5509 15.0445C10.6126 15.0573 10.6803 15.0411 10.7546 15.0379C10.7546 14.9206 10.7546 14.8176 10.7546 14.7071C10.1379 14.7071 9.5294 14.7071 8.92591 14.7071C8.92591 14.8249 8.92591 14.9281 8.92591 15.0515C9.08934 15.0515 9.23846 15.0515 9.41891 15.0515C9.12196 15.604 8.84116 16.1263 8.54689 16.6737C8.22384 16.1223 7.91912 15.6021 7.59223 15.0442C7.83728 15.0442 8.04447 15.0442 8.25506 15.0442C8.25506 14.9134 8.25506 14.8107 8.25506 14.7063C7.35835 14.7063 6.4757 14.7063 5.58909 14.7063C5.58909 14.8229 5.58909 14.9256 5.58909 15.0468ZM18.2801 17.3278C18.2801 16.9179 18.2801 16.5285 18.2801 16.1411C17.9546 16.0982 17.9537 16.0979 17.8518 16.3782C17.7717 16.5983 17.6183 16.7501 17.4051 16.8348C17.0795 16.9641 16.7427 16.8978 16.4097 16.899C16.4097 16.27 16.4097 15.6678 16.4097 15.0435C16.6174 15.0435 16.8135 15.0435 17.0199 15.0435C17.0199 14.9188 17.0199 14.8162 17.0199 14.709C16.1878 14.709 15.3675 14.709 14.5506 14.709C14.5506 14.828 14.5506 14.9305 14.5506 15.0549C14.7628 15.0549 14.9587 15.0549 15.1571 15.0549C15.1571 15.6796 15.1571 16.2821 15.1571 16.9084C14.9512 16.9084 14.7551 16.9084 14.5469 16.9084C14.5469 17.0609 14.5469 17.1894 14.5469 17.3278C15.7946 17.3278 17.0304 17.3278 18.2801 17.3278Z" fill="#151515"/>
<path d="M23.7582 15.9775C23.8404 15.7314 23.885 15.4761 24.0054 15.2635C24.2287 14.869 24.6692 14.8665 24.9381 15.2307C25.2284 15.6238 25.2375 16.3029 24.9578 16.7011C24.6822 17.0934 24.2171 17.0883 23.9861 16.6673C23.8747 16.4643 23.8359 16.2215 23.7582 15.9775Z" fill="#151515"/>
<path d="M13.1143 16.0042C13.0965 16.2965 13.0343 16.5717 12.829 16.7936C12.5826 17.0599 12.2318 17.0486 11.9978 16.7703C11.6767 16.3884 11.6764 15.6072 11.9971 15.224C12.2366 14.9379 12.5938 14.9316 12.8413 15.2126C13.0405 15.4388 13.1004 15.7146 13.1143 16.0042Z" fill="#151515"/>
</g>
<defs>
<clipPath id="clip0_17_1443">
<rect width="24" height="24" fill="white" transform="translate(4 4)"/>
</clipPath>
</defs>
</svg>
