<svg width="32" height="32" viewBox="0 0 32 32" fill="none" xmlns="http://www.w3.org/2000/svg">
<path d="M26.7265 17.2188C26.4498 19.57 25.518 21.6029 23.931 23.3175C21.0148 26.4675 16.5184 27.6212 12.4574 26.1969C8.61932 24.8513 5.88993 21.5051 5.3118 17.5088C4.35294 10.8811 9.6901 4.94885 16.4268 5.20815C22.721 5.4508 27.4518 11.0475 26.7265 17.2188ZM12.7526 8.60786L15.9332 20.0746C15.955 20.1534 15.9764 20.1534 15.9976 20.0746L19.0098 8.56932C19.0163 8.54596 19.0316 8.53428 19.0557 8.53428L20.1626 8.53691C20.2155 8.53691 20.2187 8.52406 20.1723 8.49836C17.5434 7.06962 14.4421 7.06086 11.814 8.51326C11.7635 8.5407 11.767 8.55443 11.8246 8.55443L12.6804 8.55355C12.7185 8.55355 12.7426 8.57165 12.7526 8.60786ZM23.7724 19.5928C25.2318 16.391 24.6343 12.6523 22.2072 10.0795C22.2041 10.0763 22.2002 10.0739 22.1959 10.0726C22.1915 10.0713 22.1869 10.0712 22.1825 10.0723C22.1781 10.0734 22.1741 10.0756 22.1709 10.0787C22.1676 10.0818 22.1653 10.0857 22.164 10.09L17.8104 24.3371C17.7998 24.3722 17.8125 24.3856 17.8483 24.3774C20.4948 23.7572 22.6602 22.0324 23.7724 19.5928ZM9.74474 10.1347C6.64432 13.488 6.69191 18.6301 9.81172 21.9212C10.9509 23.123 12.3622 23.933 14.0455 24.3511C14.0801 24.3599 14.0925 24.3468 14.0825 24.3117L9.81172 10.1496C9.79879 10.1052 9.77647 10.1003 9.74474 10.1347Z" fill="#151515"/>
</svg>
