<svg width="32" height="32" viewBox="0 0 32 32" fill="none" xmlns="http://www.w3.org/2000/svg">
<path d="M14.1042 25.6772C13.5693 25.0837 13.23 24.338 13.1329 23.5424C12.7508 20.701 12.3705 17.8575 11.9921 15.0117C11.7689 13.3731 10.9911 12.0796 9.67904 11.0733C8.72539 10.3274 7.91032 9.41743 7.27152 8.38546C6.55668 7.26165 6.30574 6.0278 6.43074 4.70161C6.49093 4.11499 6.51223 3.52464 6.55853 2.93709C6.57057 2.7916 6.61038 2.64891 6.65761 2.3999C6.85206 2.5799 6.98077 2.67969 7.08633 2.80093C8.97438 4.95621 10.8541 7.11896 12.7486 9.26865C13.4653 10.0828 13.8061 10.9893 13.8264 12.0992C13.8968 15.2337 14.0644 18.3664 14.1792 21.5C14.2246 22.7413 14.232 23.9835 14.2533 25.2258C14.25 25.3615 14.2398 25.4969 14.2228 25.6315L14.1042 25.6772Z" fill="#151515"/>
<path d="M25.501 2.49316C25.5362 3.56661 25.6242 4.63819 25.5936 5.7135C25.5344 7.88278 24.1917 9.35072 22.7555 10.7497C22.4898 11.008 22.1925 11.2337 21.9129 11.4762C20.7545 12.4806 20.1906 13.7863 19.9943 15.285C19.6304 18.0651 19.2832 20.8481 18.8637 23.6189C18.7711 24.2409 18.409 24.8229 18.1563 25.416C18.1081 25.5298 17.9877 25.6119 17.8238 25.7947C17.7951 25.6275 17.7763 25.4587 17.7674 25.2892C17.8482 22.5299 17.9316 19.77 18.0174 17.0094C18.0479 16.0171 18.0887 15.0257 18.1248 14.0334C18.1572 13.1651 18.1692 12.295 18.2276 11.4295C18.2785 10.6928 18.5979 10.0539 19.0813 9.5074C20.3147 8.09914 21.5684 6.70954 22.8018 5.30222C23.5083 4.4983 24.1871 3.67386 24.8834 2.86621C25.0226 2.71806 25.1691 2.57706 25.3223 2.44374L25.501 2.49316Z" fill="#151515"/>
<path d="M16.8349 12.2185C16.7756 15.4939 16.7229 18.7702 16.6553 22.0465C16.608 24.2848 16.5395 26.5165 16.4821 28.7511C16.471 29.195 16.2154 29.6734 16.0089 29.5904C15.6386 29.4459 15.5395 29.1139 15.5348 28.7231C15.5089 26.5016 15.474 24.2807 15.4302 22.0605C15.3734 19.1892 15.3117 16.3174 15.245 13.4449C15.2256 12.6056 15.2163 11.7662 15.1589 10.9324C15.1172 10.3216 15.571 10.0726 15.9201 9.74149C15.9583 9.72018 16.0013 9.709 16.0451 9.709C16.0888 9.709 16.1318 9.72018 16.1701 9.74149C16.4979 10.0343 16.8969 10.2768 16.8664 10.8205C16.8405 11.2868 16.8608 11.7532 16.8608 12.2195L16.8349 12.2185Z" fill="#151515"/>
</svg>
