<svg width="32" height="32" viewBox="0 0 32 32" fill="none" xmlns="http://www.w3.org/2000/svg">
<path d="M26.4 26.3582C26.4 26.3692 26.3956 26.3798 26.3878 26.3877C26.3799 26.3955 26.3693 26.3999 26.3583 26.3999H5.64166C5.6306 26.3999 5.62 26.3955 5.61218 26.3877C5.60437 26.3798 5.59998 26.3692 5.59998 26.3582V5.64151C5.59998 5.63046 5.60437 5.61987 5.61218 5.61205C5.62 5.60424 5.6306 5.59985 5.64166 5.59985H26.3583C26.3693 5.59985 26.3799 5.60424 26.3878 5.61205C26.3956 5.61987 26.4 5.63046 26.4 5.64151V26.3582ZM12.5793 13.779C12.5429 13.6106 12.5251 13.4609 12.5259 13.3299C12.5381 11.3867 12.5377 9.42321 12.5246 7.43928C12.5246 7.39329 12.5012 7.37029 12.4543 7.37029L7.40799 7.36899C7.36023 7.36899 7.33635 7.39285 7.33635 7.44058V24.5839C7.33635 24.6481 7.36848 24.6802 7.43274 24.6802H17.7038C17.7117 24.6802 17.7193 24.6772 17.725 24.6718C17.7306 24.6664 17.7337 24.6591 17.7337 24.6515V19.0356C17.7337 19 17.7212 18.9697 17.696 18.9445L12.6536 13.9131C12.6154 13.8758 12.5906 13.8311 12.5793 13.779ZM19.448 18.2363C19.4571 18.2458 19.4622 18.2583 19.4623 18.2715V24.6294C19.4623 24.6361 19.4636 24.6427 19.4662 24.6488C19.4687 24.655 19.4725 24.6606 19.4772 24.6653C19.4819 24.67 19.4875 24.6738 19.4937 24.6763C19.4998 24.6789 19.5064 24.6802 19.5131 24.6802L24.6232 24.6815C24.6367 24.6815 24.6496 24.6761 24.6591 24.6666C24.6687 24.6571 24.674 24.6442 24.674 24.6307V7.41976C24.674 7.41309 24.6727 7.40649 24.6702 7.40033C24.6676 7.39417 24.6639 7.38857 24.6591 7.38386C24.6544 7.37914 24.6488 7.3754 24.6427 7.37285C24.6365 7.3703 24.6299 7.36899 24.6232 7.36899H14.317C14.3103 7.36899 14.3037 7.3703 14.2976 7.37285C14.2914 7.3754 14.2858 7.37914 14.2811 7.38386C14.2764 7.38857 14.2726 7.39417 14.2701 7.40033C14.2675 7.40649 14.2662 7.41309 14.2662 7.41976L14.2675 13.0591C14.2676 13.0722 14.2727 13.0848 14.2818 13.0943L19.448 18.2363Z" fill="#151515"/>
</svg>
