<svg width="32" height="32" viewBox="0 0 32 32" fill="none" xmlns="http://www.w3.org/2000/svg">
<path d="M25.7982 6.85715C26.4171 7.3011 26.4579 7.84659 26.6443 8.7581C26.7896 9.47047 26.8872 10.0974 26.9369 10.639C27.1047 12.4821 27.177 14.5897 27.198 16.5461C27.2236 18.954 27.0142 21.3513 26.5698 23.7379C26.2994 25.1937 25.2912 25.5999 24.008 25.5975C19.3601 25.5904 14.251 25.5912 8.6808 25.5999C8.01415 25.6011 7.28223 25.5456 6.65287 25.3342C6.11286 25.1516 5.77293 24.7588 5.63307 24.1559C5.12881 21.981 4.85453 19.7785 4.81024 17.5486C4.75197 14.6424 4.9435 11.7186 5.38483 8.777C5.64356 7.0496 6.30439 6.41083 8.01182 6.40729C13.0545 6.39706 18.3873 6.39745 24.0104 6.40847C24.5605 6.40847 25.3332 6.52182 25.7982 6.85715ZM23.6036 7.61517C22.8565 7.35187 21.8869 7.33534 21.1048 7.33416C17.9992 7.33022 14.9185 7.32825 11.8626 7.32825C10.8797 7.32825 10.0102 7.36289 9.25422 7.43216C8.24142 7.52543 7.46637 8.04377 7.3067 9.12885C7.17384 10.027 7.05807 11.0672 6.95939 12.2495C6.66919 15.7031 6.70065 19.1661 7.26475 22.4981C7.39994 23.301 7.60157 24.0496 8.42323 24.3826C8.74879 24.5148 9.08833 24.5856 9.44186 24.5951C10.2818 24.6179 11.0405 24.6313 11.718 24.6352C15.2362 24.6581 18.6309 24.6624 21.902 24.6482C23.1479 24.6435 24.3588 24.4758 24.6654 23.0436C25.0158 21.4064 25.2007 19.6109 25.2201 17.6572C25.2396 15.7192 25.1564 13.4448 24.9707 10.8338C24.9159 10.0628 24.7889 9.36145 24.557 8.64121C24.3891 8.12091 24.0714 7.7789 23.6036 7.61517Z" fill="#151515"/>
<path d="M17.1328 18.8415C18.7381 19.3633 20.7097 19.9777 23.0476 20.6846C23.1275 20.7087 23.1972 20.7589 23.2461 20.8274C23.295 20.8959 23.3203 20.9789 23.318 21.0636C23.3118 21.3029 23.283 21.5654 23.2318 21.8511C23.1774 22.1557 22.9901 22.3084 22.67 22.3092C18.4471 22.3202 14.397 22.321 10.5199 22.3116C10.2673 22.3116 10.0187 22.2978 9.77395 22.2703C8.99658 22.1841 8.77048 21.5583 8.7495 20.8687C8.73707 20.4374 8.69589 20.0143 8.62596 19.5995C8.57235 19.2795 8.70055 18.9949 8.95695 18.8131C10.8225 17.4907 12.725 16.1408 14.6643 14.7632C14.9883 14.533 15.5815 14.017 15.4685 13.5802C15.3881 13.272 14.9219 13.1468 14.648 13.0618C12.9044 12.5156 10.9884 11.9201 8.89985 11.2754C8.83856 11.256 8.78584 11.2157 8.75074 11.1614C8.71565 11.1071 8.70037 11.0422 8.70754 10.9779C8.7324 10.7472 8.75882 10.5131 8.78679 10.2753C8.84973 9.74165 9.17723 9.6897 9.65624 9.68852C13.7463 9.68537 17.8026 9.68734 21.825 9.69442C22.6234 9.69678 23.2562 9.98842 23.2889 10.9165C23.306 11.3911 23.3483 11.8984 23.4159 12.4384C23.4555 12.7584 23.3098 13.0264 23.0558 13.2059C20.8522 14.7613 18.8165 16.2096 16.9487 17.5509C16.7144 17.7186 16.3962 18.1283 16.5978 18.4294C16.733 18.6317 16.9114 18.769 17.1328 18.8415Z" fill="#151515"/>
</svg>
