<svg width="32" height="32" viewBox="0 0 32 32" fill="none" xmlns="http://www.w3.org/2000/svg">
<path d="M9.60248 3.22918C9.97816 3.22918 10.3066 3.1774 10.6155 3.23781C12.163 3.52644 13.5839 4.30105 14.6804 5.45383C14.9475 5.71891 15.1575 6.03801 15.2971 6.39076C15.4366 6.74351 15.5026 7.12213 15.4909 7.50244C15.4605 10.4934 15.4791 13.4843 15.4808 16.477C15.4743 16.6489 15.4861 16.8211 15.5162 16.9904C15.5377 17.1051 15.599 17.208 15.6888 17.2802C15.7786 17.3523 15.8909 17.3889 16.005 17.3831C16.1123 17.3892 16.218 17.3555 16.3028 17.2881C16.3875 17.2206 16.4455 17.1241 16.466 17.0163C16.5072 16.8353 16.5262 16.6498 16.5225 16.464C16.5225 13.4153 16.5344 10.3665 16.5175 7.31691C16.5006 6.73683 16.6997 6.17182 17.0747 5.73601C18.2464 4.35963 19.7331 3.54588 21.4789 3.22228C21.6603 3.19822 21.8437 3.19359 22.026 3.20847C22.1445 3.2194 22.2623 3.23726 22.3789 3.26197C22.3873 3.41816 22.4 3.55796 22.4 3.69775C22.4 11.3048 22.4 18.9119 22.4 26.519C22.4 27.0669 22.1864 27.4147 21.7398 27.6641C20.9116 28.1257 20.0041 28.3225 19.089 28.4847C17.3119 28.7917 15.5048 28.8749 13.7079 28.7324C12.8249 28.6677 11.9427 28.5503 11.1035 28.2405C10.7613 28.1124 10.4331 27.9481 10.1242 27.7504C9.95366 27.6461 9.81466 27.4956 9.72258 27.3156C9.6305 27.1356 9.58894 26.933 9.60248 26.7304C9.60923 26.4715 9.60248 26.2126 9.60248 25.9537V3.22918ZM21.5059 7.26427C20.7901 7.00539 20.4397 7.21508 20.3603 7.90198C20.3396 8.1026 20.3303 8.3043 20.3325 8.50603C20.3401 11.5116 20.3418 14.5164 20.3688 17.5211C20.3688 18.0026 20.1999 18.2978 19.7778 18.435C19.404 18.5622 19.0225 18.6642 18.6356 18.7405C17.2705 18.9933 15.8911 18.9734 14.515 18.8941C13.7738 18.8509 13.03 18.7638 12.3242 18.4928C11.7459 18.271 11.6489 18.1304 11.6489 17.5125C11.6489 14.521 11.6475 11.5295 11.6446 8.53796C11.6561 8.32357 11.6507 8.10859 11.6286 7.89507C11.6028 7.71258 11.5392 7.53782 11.442 7.38249C11.2799 7.14259 10.9355 7.08046 10.6358 7.17711C10.3361 7.27376 10.467 7.52833 10.4408 7.72249C10.4344 7.80866 10.4344 7.8952 10.4408 7.98137L10.4914 20.6665C10.4914 21.4285 10.5125 22.1913 10.4855 22.9524C10.4729 23.2976 10.5953 23.4987 10.8958 23.6065C11.4024 23.786 11.892 24.0069 12.4087 24.1243C14.4061 24.5817 16.4254 24.5946 18.449 24.3349C19.3298 24.235 20.1917 24.0051 21.0079 23.6523C21.3726 23.4892 21.5203 23.2726 21.5195 22.842C21.5059 17.8111 21.5059 12.7793 21.5059 7.74579V7.26427Z" fill="#151515"/>
</svg>
