<svg width="32" height="32" viewBox="0 0 32 32" fill="none" xmlns="http://www.w3.org/2000/svg">
<path d="M16.0434 21.1995C14.5262 21.1996 13.009 21.2009 11.4918 21.199C10.9437 21.1983 10.8253 21.0807 10.8216 20.5476C10.8194 20.2348 10.8233 19.922 10.82 19.6093C10.8155 19.1899 10.734 19.1077 10.3029 19.107C8.8099 19.1047 7.31695 19.1061 5.82401 19.1061C4.62236 19.1061 3.42072 19.1081 2.21907 19.1052C1.6259 19.1037 1.45365 18.8223 1.72536 18.2938C2.56189 16.6667 3.40709 15.0441 4.23881 13.4147C4.43401 13.0322 4.73253 12.888 5.14879 12.8896C6.82375 12.8958 8.49878 12.8923 10.1738 12.8919C10.795 12.8918 10.8205 12.8651 10.8209 12.2324C10.821 11.9558 10.8186 11.679 10.8229 11.4024C10.83 10.9441 10.9726 10.802 11.4364 10.8013C12.8809 10.7991 14.3252 10.8005 15.7696 10.8005C17.3961 10.8005 19.0226 10.7995 20.649 10.8009C21.1763 10.8013 21.3112 10.9369 21.3163 11.4644C21.3192 11.7651 21.3169 12.0658 21.3177 12.3666C21.3189 12.8555 21.3561 12.8937 21.8647 12.8939C24.4742 12.8947 27.0838 12.894 29.6935 12.8955C29.8262 12.8956 29.9659 12.8875 30.0902 12.924C30.3986 13.0143 30.4873 13.3115 30.3084 13.6611C29.7382 14.7757 29.1615 15.8869 28.587 16.9993C28.3329 17.4913 28.0569 17.9736 27.8296 18.4774C27.6169 18.949 27.2822 19.1231 26.7694 19.1171C25.1553 19.0984 23.5409 19.1099 21.9266 19.1109C21.3448 19.1112 21.315 19.1425 21.3146 19.7283C21.3144 20.017 21.3198 20.3057 21.3155 20.5944C21.3088 21.0554 21.1697 21.1973 20.7045 21.1982C19.1507 21.2014 17.5971 21.1994 16.0434 21.1995ZM8.31633 17.5061C9.50625 17.5061 10.6962 17.5054 11.8861 17.5065C12.4121 17.5069 12.4336 17.5303 12.4346 18.066C12.4352 18.439 12.4391 18.8121 12.4336 19.1851C12.4294 19.4722 12.5631 19.6009 12.8528 19.6005C14.9899 19.598 17.1268 19.5981 19.2639 19.6011C19.5752 19.6015 19.7015 19.4466 19.6998 19.1543C19.6976 18.7933 19.6996 18.4322 19.7005 18.0712C19.7018 17.5222 19.7175 17.5061 20.278 17.5059C22.2207 17.5055 24.1635 17.5045 26.1062 17.5079C26.3375 17.5084 26.5256 17.4821 26.6461 17.2409C27.0226 16.4868 27.4212 15.7436 27.8021 14.9916C27.9494 14.7008 27.8467 14.5349 27.5174 14.5018C27.4091 14.491 27.299 14.4972 27.1898 14.4972C24.8585 14.4971 22.5272 14.4977 20.1959 14.4966C19.7451 14.4964 19.6964 14.4478 19.6935 13.9988C19.6912 13.6379 19.7017 13.2769 19.6986 12.916C19.6949 12.4908 19.6117 12.4078 19.1863 12.407C18.0571 12.4048 16.9279 12.4066 15.7986 12.4067C14.8637 12.4067 13.9287 12.4054 12.9938 12.4072C12.4931 12.4082 12.4382 12.4661 12.4371 12.973C12.4363 13.2859 12.4373 13.5988 12.4368 13.9116C12.436 14.4812 12.4169 14.5009 11.8442 14.5006C9.91355 14.4997 7.98284 14.5103 6.0525 14.4869C5.6366 14.4819 5.41197 14.62 5.2414 14.986C4.93654 15.64 4.58688 16.2736 4.25776 16.9167C4.04063 17.3409 4.14358 17.5036 4.6373 17.5047C5.86364 17.5075 7.08999 17.5057 8.31633 17.5061Z" fill="#151515"/>
</svg>
